M48
; DRILL file {KiCad 7.0.5} date Sat Mar  2 17:25:27 2024
; FORMAT={-:-/ absolute / inch / decimal}
; #@! TF.CreationDate,2024-03-02T17:25:27+09:00
; #@! TF.GenerationSoftware,Kicad,Pcbnew,7.0.5
; #@! TF.FileFunction,NonPlated,1,2,NPTH
FMAT,2
INCH
; #@! TA.AperFunction,NonPlated,NPTH,ComponentDrill
T1C0.0335
; #@! TA.AperFunction,NonPlated,NPTH,ComponentDrill
T2C0.0689
; #@! TA.AperFunction,NonPlated,NPTH,ComponentDrill
T3C0.1200
; #@! TA.AperFunction,NonPlated,NPTH,ComponentDrill
T4C0.1570
; #@! TA.AperFunction,NonPlated,NPTH,ComponentDrill
T5C0.1575
%
G90
G05
T1
X4.098Y-5.4917
X4.098Y-5.6098
T2
X2.9875Y-4.25
X3.0812Y-7.25
X3.175Y-5.0
X3.2687Y-5.75
X3.3875Y-4.25
X3.4562Y-6.5
X3.4812Y-7.25
X3.575Y-5.0
X3.6687Y-5.75
X3.7375Y-4.25
X3.8562Y-6.5
X4.0187Y-7.25
X4.1125Y-5.0
X4.1375Y-4.25
X4.3Y-5.75
X4.4188Y-7.25
X4.4875Y-4.25
X4.5125Y-5.0
X4.675Y-6.5
X4.7Y-5.75
X4.8625Y-5.0
X4.8875Y-4.25
X4.9562Y-7.25
X5.05Y-5.75
X5.075Y-6.5
X5.2375Y-4.25
X5.2625Y-5.0
X5.3563Y-7.25
X5.425Y-6.5
X5.45Y-5.75
X5.6125Y-5.0
X5.6375Y-4.25
X5.8Y-5.75
X5.825Y-6.5
X5.8937Y-7.25
X5.9875Y-4.25
X6.0125Y-5.0
X6.175Y-6.5
X6.2Y-5.75
X6.2938Y-7.25
X6.3625Y-5.0
X6.3875Y-4.25
X6.55Y-5.75
X6.575Y-6.5
X6.7375Y-4.25
X6.7625Y-5.0
X6.925Y-6.5
X6.95Y-5.75
X7.1125Y-5.0
X7.1375Y-4.25
X7.3Y-5.75
X7.325Y-6.5
X7.3937Y-7.25
X7.4875Y-4.25
X7.5125Y-5.0
X7.675Y-6.5
X7.7Y-5.75
X7.7687Y-7.25
X7.7938Y-7.25
X7.8625Y-5.0
X7.8875Y-4.25
X8.05Y-5.75
X8.075Y-6.5
X8.1687Y-7.25
X8.2375Y-4.25
X8.2625Y-5.0
X8.425Y-6.5
X8.45Y-5.75
X8.6125Y-5.0
X8.6375Y-4.25
X8.8Y-5.75
X8.825Y-6.5
X8.9875Y-4.25
X9.0125Y-5.0
X9.175Y-6.5
X9.2Y-5.75
X9.2687Y-7.25
X9.3625Y-5.0
X9.3875Y-4.25
X9.55Y-5.75
X9.575Y-6.5
X9.6687Y-7.25
X9.7375Y-4.25
X9.7625Y-5.0
X9.925Y-6.5
X9.95Y-5.75
X10.1125Y-5.0
X10.1375Y-4.25
X10.3Y-5.75
X10.325Y-6.5
X10.4875Y-4.25
X10.5125Y-5.0
X10.5812Y-7.25
X10.675Y-6.5
X10.7Y-5.75
X10.8625Y-5.0
X10.8875Y-4.25
X10.9812Y-7.25
X11.05Y-5.75
X11.075Y-6.5
X11.2375Y-4.25
X11.2625Y-5.0
X11.425Y-6.5
X11.45Y-5.75
X11.5187Y-7.25
X11.6125Y-5.0
X11.6375Y-4.25
X11.8Y-5.75
X11.825Y-6.5
X11.9187Y-7.25
X11.9875Y-4.25
X12.0125Y-5.0
X12.2Y-5.75
X12.3625Y-5.0
X12.3875Y-4.25
X12.4562Y-7.25
X12.7625Y-5.0
X12.8312Y-6.5
X12.8562Y-7.25
X13.0187Y-5.75
X13.1125Y-4.25
X13.2312Y-6.5
X13.3Y-5.0
X13.3937Y-7.25
X13.4187Y-5.75
X13.5125Y-4.25
X13.7Y-5.0
X13.7937Y-7.25
T3
X3.1862Y-6.225
X4.1262Y-6.225
X6.0002Y-7.525
X7.1238Y-7.525
X8.0638Y-7.525
X8.9987Y-7.525
X9.9373Y-7.525
X9.9388Y-7.525
X12.5612Y-6.225
X12.7487Y-6.025
X12.8425Y-3.975
X13.5012Y-6.225
X13.6887Y-6.025
X13.7825Y-3.975
T4
X3.1862Y-6.825
X4.1262Y-6.825
X6.0002Y-6.925
X7.1238Y-6.925
X8.0638Y-6.925
X8.9987Y-6.925
X9.9373Y-6.925
X9.9388Y-6.925
X12.5612Y-6.825
X12.7487Y-5.425
X12.8425Y-4.575
X13.5012Y-6.825
X13.6887Y-5.425
X13.7825Y-4.575
T5
X3.1875Y-4.25
X3.2812Y-7.25
X3.375Y-5.0
X3.4688Y-5.75
X3.6562Y-6.5
X3.9375Y-4.25
X4.2188Y-7.25
X4.3125Y-5.0
X4.5Y-5.75
X4.6875Y-4.25
X4.875Y-6.5
X5.0625Y-5.0
X5.1562Y-7.25
X5.25Y-5.75
X5.4375Y-4.25
X5.625Y-6.5
X5.8125Y-5.0
X6.0Y-5.75
X6.0938Y-7.25
X6.1875Y-4.25
X6.375Y-6.5
X6.5625Y-5.0
X6.75Y-5.75
X6.9375Y-4.25
X7.125Y-6.5
X7.3125Y-5.0
X7.5Y-5.75
X7.5938Y-7.25
X7.6875Y-4.25
X7.875Y-6.5
X7.9688Y-7.25
X8.0625Y-5.0
X8.25Y-5.75
X8.4375Y-4.25
X8.625Y-6.5
X8.8125Y-5.0
X9.0Y-5.75
X9.1875Y-4.25
X9.375Y-6.5
X9.4688Y-7.25
X9.5625Y-5.0
X9.75Y-5.75
X9.9375Y-4.25
X10.125Y-6.5
X10.3125Y-5.0
X10.5Y-5.75
X10.6875Y-4.25
X10.7812Y-7.25
X10.875Y-6.5
X11.0625Y-5.0
X11.25Y-5.75
X11.4375Y-4.25
X11.625Y-6.5
X11.7188Y-7.25
X11.8125Y-5.0
X12.0Y-5.75
X12.1875Y-4.25
X12.5625Y-5.0
X12.6562Y-7.25
X13.0312Y-6.5
X13.2188Y-5.75
X13.3125Y-4.25
X13.5Y-5.0
X13.5938Y-7.25
T0
M30
