%TF.GenerationSoftware,KiCad,Pcbnew,7.0.5*%
%TF.CreationDate,2024-03-02T17:25:27+09:00*%
%TF.ProjectId,Hotp4ck60,486f7470-3463-46b3-9630-2e6b69636164,rev?*%
%TF.SameCoordinates,Original*%
%TF.FileFunction,Soldermask,Bot*%
%TF.FilePolarity,Negative*%
%FSLAX46Y46*%
G04 Gerber Fmt 4.6, Leading zero omitted, Abs format (unit mm)*
G04 Created by KiCad (PCBNEW 7.0.5) date 2024-03-02 17:25:27*
%MOMM*%
%LPD*%
G01*
G04 APERTURE LIST*
G04 Aperture macros list*
%AMRoundRect*
0 Rectangle with rounded corners*
0 $1 Rounding radius*
0 $2 $3 $4 $5 $6 $7 $8 $9 X,Y pos of 4 corners*
0 Add a 4 corners polygon primitive as box body*
4,1,4,$2,$3,$4,$5,$6,$7,$8,$9,$2,$3,0*
0 Add four circle primitives for the rounded corners*
1,1,$1+$1,$2,$3*
1,1,$1+$1,$4,$5*
1,1,$1+$1,$6,$7*
1,1,$1+$1,$8,$9*
0 Add four rect primitives between the rounded corners*
20,1,$1+$1,$2,$3,$4,$5,0*
20,1,$1+$1,$4,$5,$6,$7,0*
20,1,$1+$1,$6,$7,$8,$9,0*
20,1,$1+$1,$8,$9,$2,$3,0*%
G04 Aperture macros list end*
%ADD10C,2.501900*%
%ADD11C,1.750000*%
%ADD12C,4.000000*%
%ADD13C,2.250000*%
%ADD14C,3.048000*%
%ADD15C,3.987800*%
%ADD16R,1.700000X1.700000*%
%ADD17O,1.700000X1.700000*%
%ADD18C,7.001300*%
%ADD19C,7.000240*%
%ADD20RoundRect,0.140000X-0.140000X-0.170000X0.140000X-0.170000X0.140000X0.170000X-0.140000X0.170000X0*%
%ADD21RoundRect,0.112500X-0.112500X0.187500X-0.112500X-0.187500X0.112500X-0.187500X0.112500X0.187500X0*%
%ADD22RoundRect,0.140000X0.170000X-0.140000X0.170000X0.140000X-0.170000X0.140000X-0.170000X-0.140000X0*%
%ADD23RoundRect,0.140000X0.140000X0.170000X-0.140000X0.170000X-0.140000X-0.170000X0.140000X-0.170000X0*%
%ADD24RoundRect,0.112500X0.112500X-0.187500X0.112500X0.187500X-0.112500X0.187500X-0.112500X-0.187500X0*%
%ADD25RoundRect,0.218750X-0.256250X0.218750X-0.256250X-0.218750X0.256250X-0.218750X0.256250X0.218750X0*%
%ADD26RoundRect,0.150000X0.587500X0.150000X-0.587500X0.150000X-0.587500X-0.150000X0.587500X-0.150000X0*%
%ADD27R,1.100000X0.600000*%
%ADD28RoundRect,0.135000X-0.135000X-0.185000X0.135000X-0.185000X0.135000X0.185000X-0.135000X0.185000X0*%
%ADD29RoundRect,0.135000X0.185000X-0.135000X0.185000X0.135000X-0.185000X0.135000X-0.185000X-0.135000X0*%
%ADD30RoundRect,0.225000X0.225000X0.250000X-0.225000X0.250000X-0.225000X-0.250000X0.225000X-0.250000X0*%
%ADD31RoundRect,0.147500X0.172500X-0.147500X0.172500X0.147500X-0.172500X0.147500X-0.172500X-0.147500X0*%
%ADD32RoundRect,0.062500X-0.062500X0.325000X-0.062500X-0.325000X0.062500X-0.325000X0.062500X0.325000X0*%
%ADD33R,1.300000X0.700000*%
%ADD34R,0.800000X0.900000*%
%ADD35C,0.850000*%
%ADD36RoundRect,0.090000X0.535000X-0.210000X0.535000X0.210000X-0.535000X0.210000X-0.535000X-0.210000X0*%
%ADD37RoundRect,0.105000X-0.245000X-0.445000X0.245000X-0.445000X0.245000X0.445000X-0.245000X0.445000X0*%
%ADD38RoundRect,0.140000X-0.170000X0.140000X-0.170000X-0.140000X0.170000X-0.140000X0.170000X0.140000X0*%
%ADD39RoundRect,0.062500X0.062500X-0.375000X0.062500X0.375000X-0.062500X0.375000X-0.062500X-0.375000X0*%
%ADD40RoundRect,0.062500X0.375000X-0.062500X0.375000X0.062500X-0.375000X0.062500X-0.375000X-0.062500X0*%
%ADD41R,1.600000X1.600000*%
%ADD42RoundRect,0.147500X0.147500X0.172500X-0.147500X0.172500X-0.147500X-0.172500X0.147500X-0.172500X0*%
%ADD43RoundRect,0.218750X0.218750X0.256250X-0.218750X0.256250X-0.218750X-0.256250X0.218750X-0.256250X0*%
%ADD44RoundRect,0.200000X0.600000X-0.200000X0.600000X0.200000X-0.600000X0.200000X-0.600000X-0.200000X0*%
%ADD45RoundRect,0.250001X1.249999X-0.799999X1.249999X0.799999X-1.249999X0.799999X-1.249999X-0.799999X0*%
%ADD46RoundRect,0.275000X0.625000X0.275000X-0.625000X0.275000X-0.625000X-0.275000X0.625000X-0.275000X0*%
%ADD47RoundRect,0.135000X0.135000X0.185000X-0.135000X0.185000X-0.135000X-0.185000X0.135000X-0.185000X0*%
%ADD48RoundRect,0.218750X0.256250X-0.218750X0.256250X0.218750X-0.256250X0.218750X-0.256250X-0.218750X0*%
%ADD49RoundRect,0.150000X0.625000X-0.150000X0.625000X0.150000X-0.625000X0.150000X-0.625000X-0.150000X0*%
%ADD50RoundRect,0.250000X0.650000X-0.350000X0.650000X0.350000X-0.650000X0.350000X-0.650000X-0.350000X0*%
%ADD51C,0.250000*%
%ADD52R,4.850000X4.850000*%
G04 APERTURE END LIST*
D10*
%TO.C,H8*%
X71812500Y-152599050D02*
X75612500Y-152599050D01*
X71812500Y-157900950D02*
X75612500Y-157900950D01*
X353012500Y-152599050D02*
X356812500Y-152599050D01*
X353012500Y-157900950D02*
X356862500Y-157900950D01*
X78263450Y-155250000D02*
G75*
G03*
X75612500Y-152599050I-2650949J1D01*
G01*
X75612500Y-157900950D02*
G75*
G03*
X78263450Y-155250000I1J2650949D01*
G01*
X353012500Y-152599050D02*
G75*
G03*
X350361550Y-155250000I0J-2650950D01*
G01*
X350361550Y-155250000D02*
G75*
G03*
X353012500Y-157900950I2650950J0D01*
G01*
%TD*%
D11*
%TO.C,S47*%
X194945000Y-165100000D03*
D12*
X200025000Y-165100000D03*
D11*
X205105000Y-165100000D03*
D13*
X196215000Y-162560000D03*
X202565000Y-160020000D03*
%TD*%
D11*
%TO.C,S15*%
X80645000Y-127000000D03*
D12*
X85725000Y-127000000D03*
D11*
X90805000Y-127000000D03*
D13*
X81915000Y-124460000D03*
X88265000Y-121920000D03*
%TD*%
D14*
%TO.C,H5*%
X204819250Y-191135000D03*
D15*
X204819250Y-175895000D03*
D14*
X180943250Y-191135000D03*
D15*
X180943250Y-175895000D03*
%TD*%
D11*
%TO.C,S39*%
X280670000Y-146050000D03*
D12*
X285750000Y-146050000D03*
D11*
X290830000Y-146050000D03*
D13*
X281940000Y-143510000D03*
X288290000Y-140970000D03*
%TD*%
D11*
%TO.C,S38*%
X261620000Y-146050000D03*
D12*
X266700000Y-146050000D03*
D11*
X271780000Y-146050000D03*
D13*
X262890000Y-143510000D03*
X269240000Y-140970000D03*
%TD*%
D11*
%TO.C,S11*%
X266382500Y-107950000D03*
D12*
X271462500Y-107950000D03*
D11*
X276542500Y-107950000D03*
D13*
X267652500Y-105410000D03*
X274002500Y-102870000D03*
%TD*%
D11*
%TO.C,S17*%
X123507500Y-127000000D03*
D12*
X128587500Y-127000000D03*
D11*
X133667500Y-127000000D03*
D13*
X124777500Y-124460000D03*
X131127500Y-121920000D03*
%TD*%
D16*
%TO.C,J3*%
X179300000Y-182265000D03*
D17*
X176760000Y-182265000D03*
X174220000Y-182265000D03*
X171680000Y-182265000D03*
%TD*%
D11*
%TO.C,S50*%
X252095000Y-165100000D03*
D12*
X257175000Y-165100000D03*
D11*
X262255000Y-165100000D03*
D13*
X253365000Y-162560000D03*
X259715000Y-160020000D03*
%TD*%
D11*
%TO.C,S22*%
X218757500Y-127000000D03*
D12*
X223837500Y-127000000D03*
D11*
X228917500Y-127000000D03*
D13*
X220027500Y-124460000D03*
X226377500Y-121920000D03*
%TD*%
D11*
%TO.C,S63*%
X235426250Y-184150000D03*
D12*
X240506250Y-184150000D03*
D11*
X245586250Y-184150000D03*
D13*
X236696250Y-181610000D03*
X243046250Y-179070000D03*
%TD*%
D11*
%TO.C,S10*%
X247332500Y-107950000D03*
D12*
X252412500Y-107950000D03*
D11*
X257492500Y-107950000D03*
D13*
X248602500Y-105410000D03*
X254952500Y-102870000D03*
%TD*%
D11*
%TO.C,S20*%
X180657500Y-127000000D03*
D12*
X185737500Y-127000000D03*
D11*
X190817500Y-127000000D03*
D13*
X181927500Y-124460000D03*
X188277500Y-121920000D03*
%TD*%
D11*
%TO.C,S59*%
X292576250Y-184150000D03*
D12*
X297656250Y-184150000D03*
D11*
X302736250Y-184150000D03*
D13*
X293846250Y-181610000D03*
X300196250Y-179070000D03*
%TD*%
D11*
%TO.C,S58*%
X268763750Y-184150000D03*
D12*
X273843750Y-184150000D03*
D11*
X278923750Y-184150000D03*
D13*
X270033750Y-181610000D03*
X276383750Y-179070000D03*
%TD*%
D11*
%TO.C,S33*%
X166370000Y-146050000D03*
D12*
X171450000Y-146050000D03*
D11*
X176530000Y-146050000D03*
D13*
X167640000Y-143510000D03*
X173990000Y-140970000D03*
%TD*%
D11*
%TO.C,S48*%
X213995000Y-165100000D03*
D12*
X219075000Y-165100000D03*
D11*
X224155000Y-165100000D03*
D13*
X215265000Y-162560000D03*
X221615000Y-160020000D03*
%TD*%
D11*
%TO.C,S21*%
X199707500Y-127000000D03*
D12*
X204787500Y-127000000D03*
D11*
X209867500Y-127000000D03*
D13*
X200977500Y-124460000D03*
X207327500Y-121920000D03*
%TD*%
D11*
%TO.C,S28*%
X337820000Y-127000000D03*
D12*
X342900000Y-127000000D03*
D11*
X347980000Y-127000000D03*
D13*
X339090000Y-124460000D03*
X345440000Y-121920000D03*
%TD*%
D11*
%TO.C,S55*%
X102076250Y-184150000D03*
D12*
X107156250Y-184150000D03*
D11*
X112236250Y-184150000D03*
D13*
X103346250Y-181610000D03*
X109696250Y-179070000D03*
%TD*%
D11*
%TO.C,S30*%
X109220000Y-146050000D03*
D12*
X114300000Y-146050000D03*
D11*
X119380000Y-146050000D03*
D13*
X110490000Y-143510000D03*
X116840000Y-140970000D03*
%TD*%
D11*
%TO.C,S24*%
X256857500Y-127000000D03*
D12*
X261937500Y-127000000D03*
D11*
X267017500Y-127000000D03*
D13*
X258127500Y-124460000D03*
X264477500Y-121920000D03*
%TD*%
D11*
%TO.C,S32*%
X147320000Y-146050000D03*
D12*
X152400000Y-146050000D03*
D11*
X157480000Y-146050000D03*
D13*
X148590000Y-143510000D03*
X154940000Y-140970000D03*
%TD*%
D11*
%TO.C,S8*%
X209232500Y-107950000D03*
D12*
X214312500Y-107950000D03*
D11*
X219392500Y-107950000D03*
D13*
X210502500Y-105410000D03*
X216852500Y-102870000D03*
%TD*%
D11*
%TO.C,S60*%
X316388750Y-184150000D03*
D12*
X321468750Y-184150000D03*
D11*
X326548750Y-184150000D03*
D13*
X317658750Y-181610000D03*
X324008750Y-179070000D03*
%TD*%
D11*
%TO.C,S7*%
X190182500Y-107950000D03*
D12*
X195262500Y-107950000D03*
D11*
X200342500Y-107950000D03*
D13*
X191452500Y-105410000D03*
X197802500Y-102870000D03*
%TD*%
D11*
%TO.C,S3*%
X113982500Y-107950000D03*
D12*
X119062500Y-107950000D03*
D11*
X124142500Y-107950000D03*
D13*
X115252500Y-105410000D03*
X121602500Y-102870000D03*
%TD*%
D11*
%TO.C,S18*%
X142557500Y-127000000D03*
D12*
X147637500Y-127000000D03*
D11*
X152717500Y-127000000D03*
D13*
X143827500Y-124460000D03*
X150177500Y-121920000D03*
%TD*%
D11*
%TO.C,S49*%
X233045000Y-165100000D03*
D12*
X238125000Y-165100000D03*
D11*
X243205000Y-165100000D03*
D13*
X234315000Y-162560000D03*
X240665000Y-160020000D03*
%TD*%
D11*
%TO.C,S9*%
X228282500Y-107950000D03*
D12*
X233362500Y-107950000D03*
D11*
X238442500Y-107950000D03*
D13*
X229552500Y-105410000D03*
X235902500Y-102870000D03*
%TD*%
D14*
%TO.C,H6*%
X252444250Y-191135000D03*
D15*
X252444250Y-175895000D03*
D14*
X228568250Y-191135000D03*
D15*
X228568250Y-175895000D03*
%TD*%
D11*
%TO.C,S13*%
X304482500Y-107950000D03*
D12*
X309562500Y-107950000D03*
D11*
X314642500Y-107950000D03*
D13*
X305752500Y-105410000D03*
X312102500Y-102870000D03*
%TD*%
D11*
%TO.C,S31*%
X128270000Y-146050000D03*
D12*
X133350000Y-146050000D03*
D11*
X138430000Y-146050000D03*
D13*
X129540000Y-143510000D03*
X135890000Y-140970000D03*
%TD*%
D14*
%TO.C,H7*%
X252406250Y-191135000D03*
D15*
X252406250Y-175895000D03*
D14*
X152406250Y-191135000D03*
D15*
X152406250Y-175895000D03*
%TD*%
D14*
%TO.C,H4*%
X319055750Y-158115000D03*
D15*
X319055750Y-173355000D03*
D14*
X342931750Y-158115000D03*
D15*
X342931750Y-173355000D03*
%TD*%
D11*
%TO.C,S35*%
X204470000Y-146050000D03*
D12*
X209550000Y-146050000D03*
D11*
X214630000Y-146050000D03*
D13*
X205740000Y-143510000D03*
X212090000Y-140970000D03*
%TD*%
D11*
%TO.C,S44*%
X137795000Y-165100000D03*
D12*
X142875000Y-165100000D03*
D11*
X147955000Y-165100000D03*
D13*
X139065000Y-162560000D03*
X145415000Y-160020000D03*
%TD*%
D11*
%TO.C,S27*%
X314007500Y-127000000D03*
D12*
X319087500Y-127000000D03*
D11*
X324167500Y-127000000D03*
D13*
X315277500Y-124460000D03*
X321627500Y-121920000D03*
%TD*%
D11*
%TO.C,S29*%
X83026250Y-146050000D03*
D12*
X88106250Y-146050000D03*
D11*
X93186250Y-146050000D03*
D13*
X84296250Y-143510000D03*
X90646250Y-140970000D03*
%TD*%
D11*
%TO.C,S5*%
X152082500Y-107950000D03*
D12*
X157162500Y-107950000D03*
D11*
X162242500Y-107950000D03*
D13*
X153352500Y-105410000D03*
X159702500Y-102870000D03*
%TD*%
D11*
%TO.C,S40*%
X299720000Y-146050000D03*
D12*
X304800000Y-146050000D03*
D11*
X309880000Y-146050000D03*
D13*
X300990000Y-143510000D03*
X307340000Y-140970000D03*
%TD*%
D11*
%TO.C,S42*%
X87788750Y-165100000D03*
D12*
X92868750Y-165100000D03*
D11*
X97948750Y-165100000D03*
D13*
X89058750Y-162560000D03*
X95408750Y-160020000D03*
%TD*%
D11*
%TO.C,S54*%
X78263750Y-184150000D03*
D12*
X83343750Y-184150000D03*
D11*
X88423750Y-184150000D03*
D13*
X79533750Y-181610000D03*
X85883750Y-179070000D03*
%TD*%
D11*
%TO.C,S37*%
X242570000Y-146050000D03*
D12*
X247650000Y-146050000D03*
D11*
X252730000Y-146050000D03*
D13*
X243840000Y-143510000D03*
X250190000Y-140970000D03*
%TD*%
D11*
%TO.C,S4*%
X133032500Y-107950000D03*
D12*
X138112500Y-107950000D03*
D11*
X143192500Y-107950000D03*
D13*
X134302500Y-105410000D03*
X140652500Y-102870000D03*
%TD*%
D11*
%TO.C,S34*%
X185420000Y-146050000D03*
D12*
X190500000Y-146050000D03*
D11*
X195580000Y-146050000D03*
D13*
X186690000Y-143510000D03*
X193040000Y-140970000D03*
%TD*%
D11*
%TO.C,S53*%
X325913750Y-165100000D03*
D12*
X330993750Y-165100000D03*
D11*
X336073750Y-165100000D03*
D13*
X327183750Y-162560000D03*
X333533750Y-160020000D03*
%TD*%
D11*
%TO.C,S571*%
X187801250Y-184150000D03*
D12*
X192881250Y-184150000D03*
D11*
X197961250Y-184150000D03*
D13*
X189071250Y-181610000D03*
X195421250Y-179070000D03*
%TD*%
D11*
%TO.C,S41*%
X330676250Y-146050000D03*
D12*
X335756250Y-146050000D03*
D11*
X340836250Y-146050000D03*
D13*
X331946250Y-143510000D03*
X338296250Y-140970000D03*
%TD*%
D11*
%TO.C,S51*%
X271145000Y-165100000D03*
D12*
X276225000Y-165100000D03*
D11*
X281305000Y-165100000D03*
D13*
X272415000Y-162560000D03*
X278765000Y-160020000D03*
%TD*%
D11*
%TO.C,S25*%
X275907500Y-127000000D03*
D12*
X280987500Y-127000000D03*
D11*
X286067500Y-127000000D03*
D13*
X277177500Y-124460000D03*
X283527500Y-121920000D03*
%TD*%
D11*
%TO.C,S36*%
X223520000Y-146050000D03*
D12*
X228600000Y-146050000D03*
D11*
X233680000Y-146050000D03*
D13*
X224790000Y-143510000D03*
X231140000Y-140970000D03*
%TD*%
D11*
%TO.C,S46*%
X175895000Y-165100000D03*
D12*
X180975000Y-165100000D03*
D11*
X186055000Y-165100000D03*
D13*
X177165000Y-162560000D03*
X183515000Y-160020000D03*
%TD*%
D11*
%TO.C,S6*%
X171132500Y-107950000D03*
D12*
X176212500Y-107950000D03*
D11*
X181292500Y-107950000D03*
D13*
X172402500Y-105410000D03*
X178752500Y-102870000D03*
%TD*%
D14*
%TO.C,H3*%
X80930750Y-158115000D03*
D15*
X80930750Y-173355000D03*
D14*
X104806750Y-158115000D03*
D15*
X104806750Y-173355000D03*
%TD*%
D11*
%TO.C,S19*%
X161607500Y-127000000D03*
D12*
X166687500Y-127000000D03*
D11*
X171767500Y-127000000D03*
D13*
X162877500Y-124460000D03*
X169227500Y-121920000D03*
%TD*%
D11*
%TO.C,S43*%
X118745000Y-165100000D03*
D12*
X123825000Y-165100000D03*
D11*
X128905000Y-165100000D03*
D13*
X120015000Y-162560000D03*
X126365000Y-160020000D03*
%TD*%
D14*
%TO.C,H2*%
X347694250Y-153035000D03*
D15*
X347694250Y-137795000D03*
D14*
X323818250Y-153035000D03*
D15*
X323818250Y-137795000D03*
%TD*%
D11*
%TO.C,S62*%
X149701250Y-184150000D03*
D12*
X154781250Y-184150000D03*
D11*
X159861250Y-184150000D03*
D13*
X150971250Y-181610000D03*
X157321250Y-179070000D03*
%TD*%
D11*
%TO.C,S61*%
X340201250Y-184150000D03*
D12*
X345281250Y-184150000D03*
D11*
X350361250Y-184150000D03*
D13*
X341471250Y-181610000D03*
X347821250Y-179070000D03*
%TD*%
D11*
%TO.C,S16*%
X104457500Y-127000000D03*
D12*
X109537500Y-127000000D03*
D11*
X114617500Y-127000000D03*
D13*
X105727500Y-124460000D03*
X112077500Y-121920000D03*
%TD*%
D14*
%TO.C,H1*%
X326199500Y-100965000D03*
D15*
X326199500Y-116205000D03*
D14*
X350075500Y-100965000D03*
D15*
X350075500Y-116205000D03*
%TD*%
D11*
%TO.C,S45*%
X156845000Y-165100000D03*
D12*
X161925000Y-165100000D03*
D11*
X167005000Y-165100000D03*
D13*
X158115000Y-162560000D03*
X164465000Y-160020000D03*
%TD*%
D11*
%TO.C,S56*%
X125888750Y-184150000D03*
D12*
X130968750Y-184150000D03*
D11*
X136048750Y-184150000D03*
D13*
X127158750Y-181610000D03*
X133508750Y-179070000D03*
%TD*%
D11*
%TO.C,S57*%
X197326250Y-184150000D03*
D12*
X202406250Y-184150000D03*
D11*
X207486250Y-184150000D03*
D13*
X198596250Y-181610000D03*
X204946250Y-179070000D03*
%TD*%
D11*
%TO.C,S26*%
X294957500Y-127000000D03*
D12*
X300037500Y-127000000D03*
D11*
X305117500Y-127000000D03*
D13*
X296227500Y-124460000D03*
X302577500Y-121920000D03*
%TD*%
D11*
%TO.C,S2*%
X94932500Y-107950000D03*
D12*
X100012500Y-107950000D03*
D11*
X105092500Y-107950000D03*
D13*
X96202500Y-105410000D03*
X102552500Y-102870000D03*
%TD*%
D11*
%TO.C,S12*%
X285432500Y-107950000D03*
D12*
X290512500Y-107950000D03*
D11*
X295592500Y-107950000D03*
D13*
X286702500Y-105410000D03*
X293052500Y-102870000D03*
%TD*%
D11*
%TO.C,S23*%
X237807500Y-127000000D03*
D12*
X242887500Y-127000000D03*
D11*
X247967500Y-127000000D03*
D13*
X239077500Y-124460000D03*
X245427500Y-121920000D03*
%TD*%
D11*
%TO.C,S1*%
X75882500Y-107950000D03*
D12*
X80962500Y-107950000D03*
D11*
X86042500Y-107950000D03*
D13*
X77152500Y-105410000D03*
X83502500Y-102870000D03*
%TD*%
D11*
%TO.C,S52*%
X290195000Y-165100000D03*
D12*
X295275000Y-165100000D03*
D11*
X300355000Y-165100000D03*
D13*
X291465000Y-162560000D03*
X297815000Y-160020000D03*
%TD*%
D18*
%TO.C,H8*%
X97012500Y-126650000D03*
D19*
X200012500Y-145750000D03*
X262312500Y-183950000D03*
X331862500Y-126650000D03*
%TD*%
D11*
%TO.C,S14*%
X333057500Y-107950000D03*
D12*
X338137500Y-107950000D03*
D11*
X343217500Y-107950000D03*
D13*
X334327500Y-105410000D03*
X340677500Y-102870000D03*
%TD*%
D20*
%TO.C,C15*%
X171690000Y-176650000D03*
X172650000Y-176650000D03*
%TD*%
D21*
%TO.C,D54*%
X89693750Y-174368750D03*
X89693750Y-176468750D03*
%TD*%
D22*
%TO.C,C7*%
X166090000Y-169360000D03*
X166090000Y-168400000D03*
%TD*%
D23*
%TO.C,C18*%
X163290000Y-172000000D03*
X162330000Y-172000000D03*
%TD*%
D24*
%TO.C,D3*%
X127000000Y-111381250D03*
X127000000Y-109281250D03*
%TD*%
%TO.C,D34*%
X217487500Y-149481250D03*
X217487500Y-147381250D03*
%TD*%
D25*
%TO.C,LED1*%
X99520000Y-142282500D03*
X99520000Y-143857500D03*
%TD*%
D24*
%TO.C,D21*%
X212725000Y-130431250D03*
X212725000Y-128331250D03*
%TD*%
D26*
%TO.C,Q1*%
X179947500Y-131840000D03*
X179947500Y-133740000D03*
X178072500Y-132790000D03*
%TD*%
D21*
%TO.C,D55*%
X113506250Y-174368750D03*
X113506250Y-176468750D03*
%TD*%
D22*
%TO.C,C17*%
X169150000Y-172040000D03*
X169150000Y-171080000D03*
%TD*%
D24*
%TO.C,D29*%
X96043750Y-149481250D03*
X96043750Y-147381250D03*
%TD*%
D21*
%TO.C,D56*%
X137318750Y-174368750D03*
X137318750Y-176468750D03*
%TD*%
D24*
%TO.C,D28*%
X350837500Y-130431250D03*
X350837500Y-128331250D03*
%TD*%
D21*
%TO.C,D53*%
X337343750Y-153731250D03*
X337343750Y-155831250D03*
%TD*%
D24*
%TO.C,D4*%
X146050000Y-111381250D03*
X146050000Y-109281250D03*
%TD*%
%TO.C,D37*%
X255587500Y-149481250D03*
X255587500Y-147381250D03*
%TD*%
D21*
%TO.C,D42*%
X99218750Y-153731250D03*
X99218750Y-155831250D03*
%TD*%
D22*
%TO.C,C8*%
X170140000Y-172040000D03*
X170140000Y-171080000D03*
%TD*%
D20*
%TO.C,C2*%
X165680000Y-183760000D03*
X166640000Y-183760000D03*
%TD*%
%TO.C,C3*%
X165680000Y-180740000D03*
X166640000Y-180740000D03*
%TD*%
D24*
%TO.C,D35*%
X220662500Y-149481250D03*
X220662500Y-147381250D03*
%TD*%
%TO.C,D26*%
X307975000Y-130431250D03*
X307975000Y-128331250D03*
%TD*%
%TO.C,D1*%
X88900000Y-111381250D03*
X88900000Y-109281250D03*
%TD*%
D27*
%TO.C,Y2*%
X165650000Y-171860000D03*
X165650000Y-170460000D03*
%TD*%
D21*
%TO.C,D61*%
X351631250Y-173575000D03*
X351631250Y-175675000D03*
%TD*%
D28*
%TO.C,R5*%
X176990000Y-137730000D03*
X178010000Y-137730000D03*
%TD*%
D21*
%TO.C,D62*%
X148431250Y-174368750D03*
X148431250Y-176468750D03*
%TD*%
D24*
%TO.C,D8*%
X222250000Y-111381250D03*
X222250000Y-109281250D03*
%TD*%
D29*
%TO.C,R8*%
X181480000Y-133674000D03*
X181480000Y-132654000D03*
%TD*%
D24*
%TO.C,D6*%
X184150000Y-111381250D03*
X184150000Y-109281250D03*
%TD*%
D21*
%TO.C,D50*%
X263525000Y-153731250D03*
X263525000Y-155831250D03*
%TD*%
D24*
%TO.C,D25*%
X288925000Y-130431250D03*
X288925000Y-128331250D03*
%TD*%
D29*
%TO.C,R7*%
X182496000Y-134694000D03*
X182496000Y-133674000D03*
%TD*%
D24*
%TO.C,D27*%
X311150000Y-130431250D03*
X311150000Y-128331250D03*
%TD*%
D30*
%TO.C,C10*%
X162805000Y-174800000D03*
X161255000Y-174800000D03*
%TD*%
D21*
%TO.C,D52*%
X301625000Y-153731250D03*
X301625000Y-155831250D03*
%TD*%
D22*
%TO.C,C21*%
X176300000Y-134695000D03*
X176300000Y-133735000D03*
%TD*%
D23*
%TO.C,C16*%
X163100000Y-178580000D03*
X162140000Y-178580000D03*
%TD*%
D21*
%TO.C,D59*%
X304006250Y-173575000D03*
X304006250Y-175675000D03*
%TD*%
D31*
%TO.C,L1*%
X166640000Y-182735000D03*
X166640000Y-181765000D03*
%TD*%
D24*
%TO.C,D18*%
X155575000Y-130431250D03*
X155575000Y-128331250D03*
%TD*%
D32*
%TO.C,U3*%
X160530000Y-140337500D03*
X161030000Y-140337500D03*
X161530000Y-140337500D03*
X162030000Y-140337500D03*
X162030000Y-142262500D03*
X161530000Y-142262500D03*
X161030000Y-142262500D03*
X160530000Y-142262500D03*
D33*
X161280000Y-141300000D03*
%TD*%
D24*
%TO.C,D33*%
X163512500Y-149481250D03*
X163512500Y-147381250D03*
%TD*%
D28*
%TO.C,R2*%
X176990000Y-135660000D03*
X178010000Y-135660000D03*
%TD*%
D21*
%TO.C,D63*%
X246856250Y-173575000D03*
X246856250Y-175675000D03*
%TD*%
%TO.C,D45*%
X168275000Y-153731250D03*
X168275000Y-155831250D03*
%TD*%
D24*
%TO.C,D16*%
X120650000Y-130431250D03*
X120650000Y-128331250D03*
%TD*%
D21*
%TO.C,D44*%
X150812500Y-153731250D03*
X150812500Y-155831250D03*
%TD*%
D34*
%TO.C,Y1*%
X160850000Y-181310000D03*
X160850000Y-179910000D03*
X161950000Y-179910000D03*
X161950000Y-181310000D03*
%TD*%
D35*
%TO.C,SW2*%
X104090000Y-139490000D03*
X104090000Y-142490000D03*
D36*
X106090000Y-143240000D03*
X106090000Y-140240000D03*
X106090000Y-138740000D03*
D37*
X105240000Y-137290000D03*
X102940000Y-137290000D03*
X105240000Y-144690000D03*
X102940000Y-144690000D03*
%TD*%
D20*
%TO.C,C24*%
X161280000Y-139110000D03*
X162240000Y-139110000D03*
%TD*%
D23*
%TO.C,C4*%
X161880000Y-182560000D03*
X160920000Y-182560000D03*
%TD*%
D24*
%TO.C,D7*%
X203200000Y-111381250D03*
X203200000Y-109281250D03*
%TD*%
D21*
%TO.C,D48*%
X225425000Y-153731250D03*
X225425000Y-155831250D03*
%TD*%
D38*
%TO.C,C23*%
X171060000Y-138210000D03*
X171060000Y-139170000D03*
%TD*%
D24*
%TO.C,D40*%
X312737500Y-149481250D03*
X312737500Y-147381250D03*
%TD*%
D21*
%TO.C,D57*%
X209550000Y-173575000D03*
X209550000Y-175675000D03*
%TD*%
D38*
%TO.C,C9*%
X160000000Y-174040000D03*
X160000000Y-175000000D03*
%TD*%
D20*
%TO.C,C19*%
X171720000Y-173590000D03*
X172680000Y-173590000D03*
%TD*%
D21*
%TO.C,D43*%
X130175000Y-153731250D03*
X130175000Y-155831250D03*
%TD*%
D28*
%TO.C,R4*%
X176980000Y-136690000D03*
X178000000Y-136690000D03*
%TD*%
D24*
%TO.C,D9*%
X241300000Y-111381250D03*
X241300000Y-109281250D03*
%TD*%
%TO.C,D13*%
X317500000Y-111381250D03*
X317500000Y-109281250D03*
%TD*%
%TO.C,D2*%
X107950000Y-111381250D03*
X107950000Y-109281250D03*
%TD*%
%TO.C,D20*%
X177800000Y-130431250D03*
X177800000Y-128331250D03*
%TD*%
%TO.C,D15*%
X117475000Y-130431250D03*
X117475000Y-128331250D03*
%TD*%
D20*
%TO.C,C20*%
X171710000Y-172270000D03*
X172670000Y-172270000D03*
%TD*%
D39*
%TO.C,U2*%
X174350000Y-137037500D03*
X173850000Y-137037500D03*
X173350000Y-137037500D03*
X172850000Y-137037500D03*
D40*
X172162500Y-136350000D03*
X172162500Y-135850000D03*
X172162500Y-135350000D03*
X172162500Y-134850000D03*
D39*
X172850000Y-134162500D03*
X173350000Y-134162500D03*
X173850000Y-134162500D03*
X174350000Y-134162500D03*
D40*
X175037500Y-134850000D03*
X175037500Y-135350000D03*
X175037500Y-135850000D03*
X175037500Y-136350000D03*
D41*
X173600000Y-135600000D03*
%TD*%
D42*
%TO.C,L3*%
X160025000Y-173000000D03*
X159055000Y-173000000D03*
%TD*%
D20*
%TO.C,C14*%
X171690000Y-179080000D03*
X172650000Y-179080000D03*
%TD*%
D21*
%TO.C,D58*%
X280193750Y-173575000D03*
X280193750Y-175675000D03*
%TD*%
D43*
%TO.C,L2*%
X162817500Y-173270000D03*
X161242500Y-173270000D03*
%TD*%
D24*
%TO.C,D17*%
X136525000Y-130431250D03*
X136525000Y-128331250D03*
%TD*%
D44*
%TO.C,J2*%
X168250000Y-136455000D03*
X168250000Y-135205000D03*
D45*
X165350000Y-139005000D03*
X165350000Y-132655000D03*
%TD*%
D21*
%TO.C,D46*%
X187325000Y-153731250D03*
X187325000Y-155831250D03*
%TD*%
D24*
%TO.C,D24*%
X269875000Y-130431250D03*
X269875000Y-128331250D03*
%TD*%
%TO.C,D30*%
X122237500Y-149481250D03*
X122237500Y-147381250D03*
%TD*%
D20*
%TO.C,C1*%
X165330000Y-186557364D03*
X166290000Y-186557364D03*
%TD*%
D46*
%TO.C,SW1*%
X192806250Y-172040000D03*
X186606250Y-172040000D03*
X192806250Y-175740000D03*
X186606250Y-175740000D03*
%TD*%
D47*
%TO.C,R11*%
X169850000Y-168210000D03*
X168830000Y-168210000D03*
%TD*%
D48*
%TO.C,L4*%
X171990000Y-171087500D03*
X171990000Y-169512500D03*
%TD*%
D24*
%TO.C,D31*%
X141287500Y-149481250D03*
X141287500Y-147381250D03*
%TD*%
%TO.C,D38*%
X274637500Y-149481250D03*
X274637500Y-147381250D03*
%TD*%
%TO.C,D11*%
X279400000Y-111381250D03*
X279400000Y-109281250D03*
%TD*%
D22*
%TO.C,C22*%
X173600000Y-132810000D03*
X173600000Y-131850000D03*
%TD*%
D25*
%TO.C,LED2*%
X99520000Y-137892500D03*
X99520000Y-139467500D03*
%TD*%
D24*
%TO.C,D19*%
X174625000Y-130431250D03*
X174625000Y-128331250D03*
%TD*%
D23*
%TO.C,C6*%
X165050000Y-169340000D03*
X164090000Y-169340000D03*
%TD*%
%TO.C,C12*%
X164450000Y-180610000D03*
X163490000Y-180610000D03*
%TD*%
D24*
%TO.C,D41*%
X327818750Y-149481250D03*
X327818750Y-147381250D03*
%TD*%
D21*
%TO.C,D49*%
X244475000Y-153731250D03*
X244475000Y-155831250D03*
%TD*%
D24*
%TO.C,D14*%
X320675000Y-111381250D03*
X320675000Y-109281250D03*
%TD*%
D29*
%TO.C,R9*%
X172050000Y-139230000D03*
X172050000Y-138210000D03*
%TD*%
D24*
%TO.C,D12*%
X298450000Y-111381250D03*
X298450000Y-109281250D03*
%TD*%
%TO.C,D36*%
X236537500Y-149481250D03*
X236537500Y-147381250D03*
%TD*%
%TO.C,D5*%
X165100000Y-111381250D03*
X165100000Y-109281250D03*
%TD*%
D21*
%TO.C,D51*%
X282575000Y-153731250D03*
X282575000Y-155831250D03*
%TD*%
D38*
%TO.C,C11*%
X168310000Y-180630000D03*
X168310000Y-181590000D03*
%TD*%
D24*
%TO.C,D10*%
X260350000Y-111381250D03*
X260350000Y-109281250D03*
%TD*%
D28*
%TO.C,R6*%
X171150000Y-132780000D03*
X172170000Y-132780000D03*
%TD*%
D49*
%TO.C,J1*%
X192490000Y-117410000D03*
X192490000Y-116410000D03*
X192490000Y-115410000D03*
X192490000Y-114410000D03*
D50*
X188615000Y-118710000D03*
X188615000Y-113110000D03*
%TD*%
D51*
%TO.C,U1*%
X164150000Y-175090000D03*
X164150000Y-175590000D03*
X164150000Y-176090000D03*
X164150000Y-176590000D03*
X164150000Y-177090000D03*
X164150000Y-177590000D03*
X164150000Y-178090000D03*
X164150000Y-178590000D03*
X164150000Y-179090000D03*
X169650000Y-179590000D03*
X169900000Y-173590000D03*
X170150000Y-174340000D03*
X170150000Y-175340000D03*
X170150000Y-175840000D03*
X170150000Y-176340000D03*
X170150000Y-176840000D03*
X170150000Y-177340000D03*
X170150000Y-177840000D03*
X170150000Y-178340000D03*
X170150000Y-179590000D03*
X170650000Y-173590000D03*
X170650000Y-174090000D03*
X170650000Y-174590000D03*
X170650000Y-175090000D03*
X170650000Y-175590000D03*
X170650000Y-176090000D03*
X170650000Y-176590000D03*
X170650000Y-177090000D03*
X170650000Y-177590000D03*
X170650000Y-178090000D03*
X170650000Y-178590000D03*
X170650000Y-179090000D03*
X164650000Y-173090000D03*
X164650000Y-173840000D03*
X164650000Y-174340000D03*
X164650000Y-174840000D03*
X164650000Y-175340000D03*
X164650000Y-175840000D03*
X164650000Y-176340000D03*
X164650000Y-176840000D03*
X164650000Y-177340000D03*
X164650000Y-177840000D03*
X164650000Y-179590000D03*
X165150000Y-173090000D03*
X165400000Y-173590000D03*
X165400000Y-179090000D03*
X165650000Y-179590000D03*
D52*
X167400000Y-176340000D03*
D51*
X165900000Y-173590000D03*
X165900000Y-179090000D03*
X166150000Y-173090000D03*
X166400000Y-173590000D03*
X166400000Y-179090000D03*
X166650000Y-173090000D03*
X166650000Y-179590000D03*
X166900000Y-173590000D03*
X167150000Y-173090000D03*
X167150000Y-179590000D03*
X167400000Y-173590000D03*
X167650000Y-173090000D03*
X167650000Y-179590000D03*
X167900000Y-173590000D03*
X167900000Y-179090000D03*
X168150000Y-173090000D03*
X168150000Y-179590000D03*
X168400000Y-173590000D03*
X168400000Y-179090000D03*
X168650000Y-173090000D03*
X168650000Y-179590000D03*
X168900000Y-179090000D03*
X169150000Y-173090000D03*
X169150000Y-179590000D03*
X169400000Y-173590000D03*
X169400000Y-179090000D03*
%TD*%
D24*
%TO.C,D32*%
X144462500Y-149481250D03*
X144462500Y-147381250D03*
%TD*%
%TO.C,D39*%
X293687500Y-149481250D03*
X293687500Y-147381250D03*
%TD*%
D23*
%TO.C,C5*%
X161200000Y-178590000D03*
X160240000Y-178590000D03*
%TD*%
D47*
%TO.C,R10*%
X169850000Y-169190000D03*
X168830000Y-169190000D03*
%TD*%
D21*
%TO.C,D60*%
X327818750Y-173575000D03*
X327818750Y-175675000D03*
%TD*%
D24*
%TO.C,D22*%
X231775000Y-130431250D03*
X231775000Y-128331250D03*
%TD*%
D22*
%TO.C,C13*%
X164240000Y-172030000D03*
X164240000Y-171070000D03*
%TD*%
D28*
%TO.C,R3*%
X174550000Y-132770000D03*
X175570000Y-132770000D03*
%TD*%
D21*
%TO.C,D47*%
X206375000Y-153731250D03*
X206375000Y-155831250D03*
%TD*%
D29*
%TO.C,R1*%
X157880000Y-173970000D03*
X157880000Y-172950000D03*
%TD*%
D24*
%TO.C,D23*%
X250825000Y-130431250D03*
X250825000Y-128331250D03*
%TD*%
M02*
