%TF.GenerationSoftware,KiCad,Pcbnew,7.0.5*%
%TF.CreationDate,2024-03-02T17:25:27+09:00*%
%TF.ProjectId,Hotp4ck60,486f7470-3463-46b3-9630-2e6b69636164,rev?*%
%TF.SameCoordinates,Original*%
%TF.FileFunction,Paste,Bot*%
%TF.FilePolarity,Positive*%
%FSLAX46Y46*%
G04 Gerber Fmt 4.6, Leading zero omitted, Abs format (unit mm)*
G04 Created by KiCad (PCBNEW 7.0.5) date 2024-03-02 17:25:27*
%MOMM*%
%LPD*%
G01*
G04 APERTURE LIST*
G04 Aperture macros list*
%AMRoundRect*
0 Rectangle with rounded corners*
0 $1 Rounding radius*
0 $2 $3 $4 $5 $6 $7 $8 $9 X,Y pos of 4 corners*
0 Add a 4 corners polygon primitive as box body*
4,1,4,$2,$3,$4,$5,$6,$7,$8,$9,$2,$3,0*
0 Add four circle primitives for the rounded corners*
1,1,$1+$1,$2,$3*
1,1,$1+$1,$4,$5*
1,1,$1+$1,$6,$7*
1,1,$1+$1,$8,$9*
0 Add four rect primitives between the rounded corners*
20,1,$1+$1,$2,$3,$4,$5,0*
20,1,$1+$1,$4,$5,$6,$7,0*
20,1,$1+$1,$6,$7,$8,$9,0*
20,1,$1+$1,$8,$9,$2,$3,0*%
G04 Aperture macros list end*
%ADD10RoundRect,0.140000X-0.140000X-0.170000X0.140000X-0.170000X0.140000X0.170000X-0.140000X0.170000X0*%
%ADD11RoundRect,0.112500X-0.112500X0.187500X-0.112500X-0.187500X0.112500X-0.187500X0.112500X0.187500X0*%
%ADD12RoundRect,0.140000X0.170000X-0.140000X0.170000X0.140000X-0.170000X0.140000X-0.170000X-0.140000X0*%
%ADD13RoundRect,0.140000X0.140000X0.170000X-0.140000X0.170000X-0.140000X-0.170000X0.140000X-0.170000X0*%
%ADD14RoundRect,0.112500X0.112500X-0.187500X0.112500X0.187500X-0.112500X0.187500X-0.112500X-0.187500X0*%
%ADD15RoundRect,0.218750X-0.256250X0.218750X-0.256250X-0.218750X0.256250X-0.218750X0.256250X0.218750X0*%
%ADD16RoundRect,0.150000X0.587500X0.150000X-0.587500X0.150000X-0.587500X-0.150000X0.587500X-0.150000X0*%
%ADD17R,1.100000X0.600000*%
%ADD18RoundRect,0.135000X-0.135000X-0.185000X0.135000X-0.185000X0.135000X0.185000X-0.135000X0.185000X0*%
%ADD19RoundRect,0.135000X0.185000X-0.135000X0.185000X0.135000X-0.185000X0.135000X-0.185000X-0.135000X0*%
%ADD20RoundRect,0.225000X0.225000X0.250000X-0.225000X0.250000X-0.225000X-0.250000X0.225000X-0.250000X0*%
%ADD21RoundRect,0.147500X0.172500X-0.147500X0.172500X0.147500X-0.172500X0.147500X-0.172500X-0.147500X0*%
%ADD22RoundRect,0.070000X-0.190000X0.070000X-0.190000X-0.070000X0.190000X-0.070000X0.190000X0.070000X0*%
%ADD23RoundRect,0.062500X-0.062500X0.325000X-0.062500X-0.325000X0.062500X-0.325000X0.062500X0.325000X0*%
%ADD24R,0.800000X0.900000*%
%ADD25RoundRect,0.090000X0.535000X-0.210000X0.535000X0.210000X-0.535000X0.210000X-0.535000X-0.210000X0*%
%ADD26RoundRect,0.105000X-0.245000X-0.445000X0.245000X-0.445000X0.245000X0.445000X-0.245000X0.445000X0*%
%ADD27RoundRect,0.140000X-0.170000X0.140000X-0.170000X-0.140000X0.170000X-0.140000X0.170000X0.140000X0*%
%ADD28RoundRect,0.160000X0.160000X-0.160000X0.160000X0.160000X-0.160000X0.160000X-0.160000X-0.160000X0*%
%ADD29RoundRect,0.062500X0.062500X-0.375000X0.062500X0.375000X-0.062500X0.375000X-0.062500X-0.375000X0*%
%ADD30RoundRect,0.062500X0.375000X-0.062500X0.375000X0.062500X-0.375000X0.062500X-0.375000X-0.062500X0*%
%ADD31RoundRect,0.147500X0.147500X0.172500X-0.147500X0.172500X-0.147500X-0.172500X0.147500X-0.172500X0*%
%ADD32RoundRect,0.218750X0.218750X0.256250X-0.218750X0.256250X-0.218750X-0.256250X0.218750X-0.256250X0*%
%ADD33RoundRect,0.200000X0.600000X-0.200000X0.600000X0.200000X-0.600000X0.200000X-0.600000X-0.200000X0*%
%ADD34RoundRect,0.250001X1.249999X-0.799999X1.249999X0.799999X-1.249999X0.799999X-1.249999X-0.799999X0*%
%ADD35RoundRect,0.275000X0.625000X0.275000X-0.625000X0.275000X-0.625000X-0.275000X0.625000X-0.275000X0*%
%ADD36RoundRect,0.135000X0.135000X0.185000X-0.135000X0.185000X-0.135000X-0.185000X0.135000X-0.185000X0*%
%ADD37RoundRect,0.218750X0.256250X-0.218750X0.256250X0.218750X-0.256250X0.218750X-0.256250X-0.218750X0*%
%ADD38RoundRect,0.150000X0.625000X-0.150000X0.625000X0.150000X-0.625000X0.150000X-0.625000X-0.150000X0*%
%ADD39RoundRect,0.250000X0.650000X-0.350000X0.650000X0.350000X-0.650000X0.350000X-0.650000X-0.350000X0*%
%ADD40R,2.000000X2.000000*%
%ADD41C,0.250000*%
G04 APERTURE END LIST*
D10*
%TO.C,C15*%
X171690000Y-176650000D03*
X172650000Y-176650000D03*
%TD*%
D11*
%TO.C,D54*%
X89693750Y-174368750D03*
X89693750Y-176468750D03*
%TD*%
D12*
%TO.C,C7*%
X166090000Y-169360000D03*
X166090000Y-168400000D03*
%TD*%
D13*
%TO.C,C18*%
X163290000Y-172000000D03*
X162330000Y-172000000D03*
%TD*%
D14*
%TO.C,D3*%
X127000000Y-111381250D03*
X127000000Y-109281250D03*
%TD*%
%TO.C,D34*%
X217487500Y-149481250D03*
X217487500Y-147381250D03*
%TD*%
D15*
%TO.C,LED1*%
X99520000Y-142282500D03*
X99520000Y-143857500D03*
%TD*%
D14*
%TO.C,D21*%
X212725000Y-130431250D03*
X212725000Y-128331250D03*
%TD*%
D16*
%TO.C,Q1*%
X179947500Y-131840000D03*
X179947500Y-133740000D03*
X178072500Y-132790000D03*
%TD*%
D11*
%TO.C,D55*%
X113506250Y-174368750D03*
X113506250Y-176468750D03*
%TD*%
D12*
%TO.C,C17*%
X169150000Y-172040000D03*
X169150000Y-171080000D03*
%TD*%
D14*
%TO.C,D29*%
X96043750Y-149481250D03*
X96043750Y-147381250D03*
%TD*%
D11*
%TO.C,D56*%
X137318750Y-174368750D03*
X137318750Y-176468750D03*
%TD*%
D14*
%TO.C,D28*%
X350837500Y-130431250D03*
X350837500Y-128331250D03*
%TD*%
D11*
%TO.C,D53*%
X337343750Y-153731250D03*
X337343750Y-155831250D03*
%TD*%
D14*
%TO.C,D4*%
X146050000Y-111381250D03*
X146050000Y-109281250D03*
%TD*%
%TO.C,D37*%
X255587500Y-149481250D03*
X255587500Y-147381250D03*
%TD*%
D11*
%TO.C,D42*%
X99218750Y-153731250D03*
X99218750Y-155831250D03*
%TD*%
D12*
%TO.C,C8*%
X170140000Y-172040000D03*
X170140000Y-171080000D03*
%TD*%
D10*
%TO.C,C2*%
X165680000Y-183760000D03*
X166640000Y-183760000D03*
%TD*%
%TO.C,C3*%
X165680000Y-180740000D03*
X166640000Y-180740000D03*
%TD*%
D14*
%TO.C,D35*%
X220662500Y-149481250D03*
X220662500Y-147381250D03*
%TD*%
%TO.C,D26*%
X307975000Y-130431250D03*
X307975000Y-128331250D03*
%TD*%
%TO.C,D1*%
X88900000Y-111381250D03*
X88900000Y-109281250D03*
%TD*%
D17*
%TO.C,Y2*%
X165650000Y-171860000D03*
X165650000Y-170460000D03*
%TD*%
D11*
%TO.C,D61*%
X351631250Y-173575000D03*
X351631250Y-175675000D03*
%TD*%
D18*
%TO.C,R5*%
X176990000Y-137730000D03*
X178010000Y-137730000D03*
%TD*%
D11*
%TO.C,D62*%
X148431250Y-174368750D03*
X148431250Y-176468750D03*
%TD*%
D14*
%TO.C,D8*%
X222250000Y-111381250D03*
X222250000Y-109281250D03*
%TD*%
D19*
%TO.C,R8*%
X181480000Y-133674000D03*
X181480000Y-132654000D03*
%TD*%
D14*
%TO.C,D6*%
X184150000Y-111381250D03*
X184150000Y-109281250D03*
%TD*%
D11*
%TO.C,D50*%
X263525000Y-153731250D03*
X263525000Y-155831250D03*
%TD*%
D14*
%TO.C,D25*%
X288925000Y-130431250D03*
X288925000Y-128331250D03*
%TD*%
D19*
%TO.C,R7*%
X182496000Y-134694000D03*
X182496000Y-133674000D03*
%TD*%
D14*
%TO.C,D27*%
X311150000Y-130431250D03*
X311150000Y-128331250D03*
%TD*%
D20*
%TO.C,C10*%
X162805000Y-174800000D03*
X161255000Y-174800000D03*
%TD*%
D11*
%TO.C,D52*%
X301625000Y-153731250D03*
X301625000Y-155831250D03*
%TD*%
D12*
%TO.C,C21*%
X176300000Y-134695000D03*
X176300000Y-133735000D03*
%TD*%
D13*
%TO.C,C16*%
X163100000Y-178580000D03*
X162140000Y-178580000D03*
%TD*%
D11*
%TO.C,D59*%
X304006250Y-173575000D03*
X304006250Y-175675000D03*
%TD*%
D21*
%TO.C,L1*%
X166640000Y-182735000D03*
X166640000Y-181765000D03*
%TD*%
D14*
%TO.C,D18*%
X155575000Y-130431250D03*
X155575000Y-128331250D03*
%TD*%
D22*
%TO.C,U3*%
X161605000Y-141125000D03*
X160955000Y-141125000D03*
X161605000Y-141475000D03*
X160955000Y-141475000D03*
D23*
X160530000Y-140337500D03*
X161030000Y-140337500D03*
X161530000Y-140337500D03*
X162030000Y-140337500D03*
X162030000Y-142262500D03*
X161530000Y-142262500D03*
X161030000Y-142262500D03*
X160530000Y-142262500D03*
%TD*%
D14*
%TO.C,D33*%
X163512500Y-149481250D03*
X163512500Y-147381250D03*
%TD*%
D18*
%TO.C,R2*%
X176990000Y-135660000D03*
X178010000Y-135660000D03*
%TD*%
D11*
%TO.C,D63*%
X246856250Y-173575000D03*
X246856250Y-175675000D03*
%TD*%
%TO.C,D45*%
X168275000Y-153731250D03*
X168275000Y-155831250D03*
%TD*%
D14*
%TO.C,D16*%
X120650000Y-130431250D03*
X120650000Y-128331250D03*
%TD*%
D11*
%TO.C,D44*%
X150812500Y-153731250D03*
X150812500Y-155831250D03*
%TD*%
D24*
%TO.C,Y1*%
X160850000Y-181310000D03*
X160850000Y-179910000D03*
X161950000Y-179910000D03*
X161950000Y-181310000D03*
%TD*%
D25*
%TO.C,SW2*%
X106090000Y-143240000D03*
X106090000Y-140240000D03*
X106090000Y-138740000D03*
D26*
X105240000Y-137290000D03*
X102940000Y-137290000D03*
X105240000Y-144690000D03*
X102940000Y-144690000D03*
%TD*%
D10*
%TO.C,C24*%
X161280000Y-139110000D03*
X162240000Y-139110000D03*
%TD*%
D13*
%TO.C,C4*%
X161880000Y-182560000D03*
X160920000Y-182560000D03*
%TD*%
D14*
%TO.C,D7*%
X203200000Y-111381250D03*
X203200000Y-109281250D03*
%TD*%
D11*
%TO.C,D48*%
X225425000Y-153731250D03*
X225425000Y-155831250D03*
%TD*%
D27*
%TO.C,C23*%
X171060000Y-138210000D03*
X171060000Y-139170000D03*
%TD*%
D14*
%TO.C,D40*%
X312737500Y-149481250D03*
X312737500Y-147381250D03*
%TD*%
D11*
%TO.C,D57*%
X209550000Y-173575000D03*
X209550000Y-175675000D03*
%TD*%
D27*
%TO.C,C9*%
X160000000Y-174040000D03*
X160000000Y-175000000D03*
%TD*%
D10*
%TO.C,C19*%
X171720000Y-173590000D03*
X172680000Y-173590000D03*
%TD*%
D11*
%TO.C,D43*%
X130175000Y-153731250D03*
X130175000Y-155831250D03*
%TD*%
D18*
%TO.C,R4*%
X176980000Y-136690000D03*
X178000000Y-136690000D03*
%TD*%
D14*
%TO.C,D9*%
X241300000Y-111381250D03*
X241300000Y-109281250D03*
%TD*%
%TO.C,D13*%
X317500000Y-111381250D03*
X317500000Y-109281250D03*
%TD*%
%TO.C,D2*%
X107950000Y-111381250D03*
X107950000Y-109281250D03*
%TD*%
%TO.C,D20*%
X177800000Y-130431250D03*
X177800000Y-128331250D03*
%TD*%
%TO.C,D15*%
X117475000Y-130431250D03*
X117475000Y-128331250D03*
%TD*%
D10*
%TO.C,C20*%
X171710000Y-172270000D03*
X172670000Y-172270000D03*
%TD*%
D28*
%TO.C,U2*%
X173200000Y-136000000D03*
X174000000Y-136000000D03*
X173200000Y-135200000D03*
X174000000Y-135200000D03*
D29*
X174350000Y-137037500D03*
X173850000Y-137037500D03*
X173350000Y-137037500D03*
X172850000Y-137037500D03*
D30*
X172162500Y-136350000D03*
X172162500Y-135850000D03*
X172162500Y-135350000D03*
X172162500Y-134850000D03*
D29*
X172850000Y-134162500D03*
X173350000Y-134162500D03*
X173850000Y-134162500D03*
X174350000Y-134162500D03*
D30*
X175037500Y-134850000D03*
X175037500Y-135350000D03*
X175037500Y-135850000D03*
X175037500Y-136350000D03*
%TD*%
D31*
%TO.C,L3*%
X160025000Y-173000000D03*
X159055000Y-173000000D03*
%TD*%
D10*
%TO.C,C14*%
X171690000Y-179080000D03*
X172650000Y-179080000D03*
%TD*%
D11*
%TO.C,D58*%
X280193750Y-173575000D03*
X280193750Y-175675000D03*
%TD*%
D32*
%TO.C,L2*%
X162817500Y-173270000D03*
X161242500Y-173270000D03*
%TD*%
D14*
%TO.C,D17*%
X136525000Y-130431250D03*
X136525000Y-128331250D03*
%TD*%
D33*
%TO.C,J2*%
X168250000Y-136455000D03*
X168250000Y-135205000D03*
D34*
X165350000Y-139005000D03*
X165350000Y-132655000D03*
%TD*%
D11*
%TO.C,D46*%
X187325000Y-153731250D03*
X187325000Y-155831250D03*
%TD*%
D14*
%TO.C,D24*%
X269875000Y-130431250D03*
X269875000Y-128331250D03*
%TD*%
%TO.C,D30*%
X122237500Y-149481250D03*
X122237500Y-147381250D03*
%TD*%
D10*
%TO.C,C1*%
X165330000Y-186557364D03*
X166290000Y-186557364D03*
%TD*%
D35*
%TO.C,SW1*%
X192806250Y-172040000D03*
X186606250Y-172040000D03*
X192806250Y-175740000D03*
X186606250Y-175740000D03*
%TD*%
D36*
%TO.C,R11*%
X169850000Y-168210000D03*
X168830000Y-168210000D03*
%TD*%
D37*
%TO.C,L4*%
X171990000Y-171087500D03*
X171990000Y-169512500D03*
%TD*%
D14*
%TO.C,D31*%
X141287500Y-149481250D03*
X141287500Y-147381250D03*
%TD*%
%TO.C,D38*%
X274637500Y-149481250D03*
X274637500Y-147381250D03*
%TD*%
%TO.C,D11*%
X279400000Y-111381250D03*
X279400000Y-109281250D03*
%TD*%
D12*
%TO.C,C22*%
X173600000Y-132810000D03*
X173600000Y-131850000D03*
%TD*%
D15*
%TO.C,LED2*%
X99520000Y-137892500D03*
X99520000Y-139467500D03*
%TD*%
D14*
%TO.C,D19*%
X174625000Y-130431250D03*
X174625000Y-128331250D03*
%TD*%
D13*
%TO.C,C6*%
X165050000Y-169340000D03*
X164090000Y-169340000D03*
%TD*%
%TO.C,C12*%
X164450000Y-180610000D03*
X163490000Y-180610000D03*
%TD*%
D14*
%TO.C,D41*%
X327818750Y-149481250D03*
X327818750Y-147381250D03*
%TD*%
D11*
%TO.C,D49*%
X244475000Y-153731250D03*
X244475000Y-155831250D03*
%TD*%
D14*
%TO.C,D14*%
X320675000Y-111381250D03*
X320675000Y-109281250D03*
%TD*%
D19*
%TO.C,R9*%
X172050000Y-139230000D03*
X172050000Y-138210000D03*
%TD*%
D14*
%TO.C,D12*%
X298450000Y-111381250D03*
X298450000Y-109281250D03*
%TD*%
%TO.C,D36*%
X236537500Y-149481250D03*
X236537500Y-147381250D03*
%TD*%
%TO.C,D5*%
X165100000Y-111381250D03*
X165100000Y-109281250D03*
%TD*%
D11*
%TO.C,D51*%
X282575000Y-153731250D03*
X282575000Y-155831250D03*
%TD*%
D27*
%TO.C,C11*%
X168310000Y-180630000D03*
X168310000Y-181590000D03*
%TD*%
D14*
%TO.C,D10*%
X260350000Y-111381250D03*
X260350000Y-109281250D03*
%TD*%
D18*
%TO.C,R6*%
X171150000Y-132780000D03*
X172170000Y-132780000D03*
%TD*%
D38*
%TO.C,J1*%
X192490000Y-117410000D03*
X192490000Y-116410000D03*
X192490000Y-115410000D03*
X192490000Y-114410000D03*
D39*
X188615000Y-118710000D03*
X188615000Y-113110000D03*
%TD*%
D40*
%TO.C,U1*%
X168612500Y-175127500D03*
X166187500Y-175127500D03*
X168612500Y-177552500D03*
X166187500Y-177552500D03*
D41*
X164150000Y-175090000D03*
X164150000Y-175590000D03*
X164150000Y-176090000D03*
X164150000Y-176590000D03*
X164150000Y-177090000D03*
X164150000Y-177590000D03*
X164150000Y-178090000D03*
X164150000Y-178590000D03*
X164150000Y-179090000D03*
X169650000Y-179590000D03*
X169900000Y-173590000D03*
X170150000Y-174340000D03*
X170150000Y-175340000D03*
X170150000Y-175840000D03*
X170150000Y-176340000D03*
X170150000Y-176840000D03*
X170150000Y-177340000D03*
X170150000Y-177840000D03*
X170150000Y-178340000D03*
X170150000Y-179590000D03*
X170650000Y-173590000D03*
X170650000Y-174090000D03*
X170650000Y-174590000D03*
X170650000Y-175090000D03*
X170650000Y-175590000D03*
X170650000Y-176090000D03*
X170650000Y-176590000D03*
X170650000Y-177090000D03*
X170650000Y-177590000D03*
X170650000Y-178090000D03*
X170650000Y-178590000D03*
X170650000Y-179090000D03*
X164650000Y-173090000D03*
X164650000Y-173840000D03*
X164650000Y-174340000D03*
X164650000Y-174840000D03*
X164650000Y-175340000D03*
X164650000Y-175840000D03*
X164650000Y-176340000D03*
X164650000Y-176840000D03*
X164650000Y-177340000D03*
X164650000Y-177840000D03*
X164650000Y-179590000D03*
X165150000Y-173090000D03*
X165400000Y-173590000D03*
X165400000Y-179090000D03*
X165650000Y-179590000D03*
X165900000Y-173590000D03*
X165900000Y-179090000D03*
X166150000Y-173090000D03*
X166400000Y-173590000D03*
X166400000Y-179090000D03*
X166650000Y-173090000D03*
X166650000Y-179590000D03*
X166900000Y-173590000D03*
X167150000Y-173090000D03*
X167150000Y-179590000D03*
X167400000Y-173590000D03*
X167650000Y-173090000D03*
X167650000Y-179590000D03*
X167900000Y-173590000D03*
X167900000Y-179090000D03*
X168150000Y-173090000D03*
X168150000Y-179590000D03*
X168400000Y-173590000D03*
X168400000Y-179090000D03*
X168650000Y-173090000D03*
X168650000Y-179590000D03*
X168900000Y-179090000D03*
X169150000Y-173090000D03*
X169150000Y-179590000D03*
X169400000Y-173590000D03*
X169400000Y-179090000D03*
%TD*%
D14*
%TO.C,D32*%
X144462500Y-149481250D03*
X144462500Y-147381250D03*
%TD*%
%TO.C,D39*%
X293687500Y-149481250D03*
X293687500Y-147381250D03*
%TD*%
D13*
%TO.C,C5*%
X161200000Y-178590000D03*
X160240000Y-178590000D03*
%TD*%
D36*
%TO.C,R10*%
X169850000Y-169190000D03*
X168830000Y-169190000D03*
%TD*%
D11*
%TO.C,D60*%
X327818750Y-173575000D03*
X327818750Y-175675000D03*
%TD*%
D14*
%TO.C,D22*%
X231775000Y-130431250D03*
X231775000Y-128331250D03*
%TD*%
D12*
%TO.C,C13*%
X164240000Y-172030000D03*
X164240000Y-171070000D03*
%TD*%
D18*
%TO.C,R3*%
X174550000Y-132770000D03*
X175570000Y-132770000D03*
%TD*%
D11*
%TO.C,D47*%
X206375000Y-153731250D03*
X206375000Y-155831250D03*
%TD*%
D19*
%TO.C,R1*%
X157880000Y-173970000D03*
X157880000Y-172950000D03*
%TD*%
D14*
%TO.C,D23*%
X250825000Y-130431250D03*
X250825000Y-128331250D03*
%TD*%
M02*
