%TF.GenerationSoftware,KiCad,Pcbnew,7.0.5*%
%TF.CreationDate,2024-03-02T17:25:27+09:00*%
%TF.ProjectId,Hotp4ck60,486f7470-3463-46b3-9630-2e6b69636164,rev?*%
%TF.SameCoordinates,Original*%
%TF.FileFunction,Other,Comment*%
%FSLAX46Y46*%
G04 Gerber Fmt 4.6, Leading zero omitted, Abs format (unit mm)*
G04 Created by KiCad (PCBNEW 7.0.5) date 2024-03-02 17:25:27*
%MOMM*%
%LPD*%
G01*
G04 APERTURE LIST*
%ADD10C,0.030000*%
G04 APERTURE END LIST*
D10*
%TO.C,SW1*%
X190991965Y-173780963D02*
X190991965Y-173580963D01*
X191106250Y-173780963D02*
X191020536Y-173666678D01*
X191106250Y-173580963D02*
X190991965Y-173695249D01*
X191191965Y-173676201D02*
X191258631Y-173676201D01*
X191287203Y-173780963D02*
X191191965Y-173780963D01*
X191191965Y-173780963D02*
X191191965Y-173580963D01*
X191191965Y-173580963D02*
X191287203Y-173580963D01*
X191372917Y-173676201D02*
X191439583Y-173676201D01*
X191468155Y-173780963D02*
X191372917Y-173780963D01*
X191372917Y-173780963D02*
X191372917Y-173580963D01*
X191372917Y-173580963D02*
X191468155Y-173580963D01*
X191553869Y-173780963D02*
X191553869Y-173580963D01*
X191553869Y-173580963D02*
X191630059Y-173580963D01*
X191630059Y-173580963D02*
X191649107Y-173590487D01*
X191649107Y-173590487D02*
X191658630Y-173600011D01*
X191658630Y-173600011D02*
X191668154Y-173619059D01*
X191668154Y-173619059D02*
X191668154Y-173647630D01*
X191668154Y-173647630D02*
X191658630Y-173666678D01*
X191658630Y-173666678D02*
X191649107Y-173676201D01*
X191649107Y-173676201D02*
X191630059Y-173685725D01*
X191630059Y-173685725D02*
X191553869Y-173685725D01*
X191753869Y-173704773D02*
X191906250Y-173704773D01*
X192039583Y-173580963D02*
X192077678Y-173580963D01*
X192077678Y-173580963D02*
X192096726Y-173590487D01*
X192096726Y-173590487D02*
X192115773Y-173609535D01*
X192115773Y-173609535D02*
X192125297Y-173647630D01*
X192125297Y-173647630D02*
X192125297Y-173714297D01*
X192125297Y-173714297D02*
X192115773Y-173752392D01*
X192115773Y-173752392D02*
X192096726Y-173771440D01*
X192096726Y-173771440D02*
X192077678Y-173780963D01*
X192077678Y-173780963D02*
X192039583Y-173780963D01*
X192039583Y-173780963D02*
X192020535Y-173771440D01*
X192020535Y-173771440D02*
X192001488Y-173752392D01*
X192001488Y-173752392D02*
X191991964Y-173714297D01*
X191991964Y-173714297D02*
X191991964Y-173647630D01*
X191991964Y-173647630D02*
X192001488Y-173609535D01*
X192001488Y-173609535D02*
X192020535Y-173590487D01*
X192020535Y-173590487D02*
X192039583Y-173580963D01*
X192211012Y-173580963D02*
X192211012Y-173742868D01*
X192211012Y-173742868D02*
X192220535Y-173761916D01*
X192220535Y-173761916D02*
X192230059Y-173771440D01*
X192230059Y-173771440D02*
X192249107Y-173780963D01*
X192249107Y-173780963D02*
X192287202Y-173780963D01*
X192287202Y-173780963D02*
X192306250Y-173771440D01*
X192306250Y-173771440D02*
X192315773Y-173761916D01*
X192315773Y-173761916D02*
X192325297Y-173742868D01*
X192325297Y-173742868D02*
X192325297Y-173580963D01*
X192391964Y-173580963D02*
X192506250Y-173580963D01*
X192449107Y-173780963D02*
X192449107Y-173580963D01*
X192706250Y-173580963D02*
X192839583Y-173580963D01*
X192839583Y-173580963D02*
X192706250Y-173780963D01*
X192706250Y-173780963D02*
X192839583Y-173780963D01*
X192953869Y-173580963D02*
X192991964Y-173580963D01*
X192991964Y-173580963D02*
X193011012Y-173590487D01*
X193011012Y-173590487D02*
X193030059Y-173609535D01*
X193030059Y-173609535D02*
X193039583Y-173647630D01*
X193039583Y-173647630D02*
X193039583Y-173714297D01*
X193039583Y-173714297D02*
X193030059Y-173752392D01*
X193030059Y-173752392D02*
X193011012Y-173771440D01*
X193011012Y-173771440D02*
X192991964Y-173780963D01*
X192991964Y-173780963D02*
X192953869Y-173780963D01*
X192953869Y-173780963D02*
X192934821Y-173771440D01*
X192934821Y-173771440D02*
X192915774Y-173752392D01*
X192915774Y-173752392D02*
X192906250Y-173714297D01*
X192906250Y-173714297D02*
X192906250Y-173647630D01*
X192906250Y-173647630D02*
X192915774Y-173609535D01*
X192915774Y-173609535D02*
X192934821Y-173590487D01*
X192934821Y-173590487D02*
X192953869Y-173580963D01*
X193125298Y-173780963D02*
X193125298Y-173580963D01*
X193125298Y-173580963D02*
X193239583Y-173780963D01*
X193239583Y-173780963D02*
X193239583Y-173580963D01*
X193334822Y-173676201D02*
X193401488Y-173676201D01*
X193430060Y-173780963D02*
X193334822Y-173780963D01*
X193334822Y-173780963D02*
X193334822Y-173580963D01*
X193334822Y-173580963D02*
X193430060Y-173580963D01*
X191125297Y-174180963D02*
X191125297Y-173980963D01*
X191125297Y-173980963D02*
X191239582Y-174180963D01*
X191239582Y-174180963D02*
X191239582Y-173980963D01*
X191363392Y-174180963D02*
X191344344Y-174171440D01*
X191344344Y-174171440D02*
X191334821Y-174161916D01*
X191334821Y-174161916D02*
X191325297Y-174142868D01*
X191325297Y-174142868D02*
X191325297Y-174085725D01*
X191325297Y-174085725D02*
X191334821Y-174066678D01*
X191334821Y-174066678D02*
X191344344Y-174057154D01*
X191344344Y-174057154D02*
X191363392Y-174047630D01*
X191363392Y-174047630D02*
X191391963Y-174047630D01*
X191391963Y-174047630D02*
X191411011Y-174057154D01*
X191411011Y-174057154D02*
X191420535Y-174066678D01*
X191420535Y-174066678D02*
X191430059Y-174085725D01*
X191430059Y-174085725D02*
X191430059Y-174142868D01*
X191430059Y-174142868D02*
X191420535Y-174161916D01*
X191420535Y-174161916D02*
X191411011Y-174171440D01*
X191411011Y-174171440D02*
X191391963Y-174180963D01*
X191391963Y-174180963D02*
X191363392Y-174180963D01*
X191734820Y-174076201D02*
X191668154Y-174076201D01*
X191668154Y-174180963D02*
X191668154Y-173980963D01*
X191668154Y-173980963D02*
X191763392Y-173980963D01*
X191839583Y-174161916D02*
X191849106Y-174171440D01*
X191849106Y-174171440D02*
X191839583Y-174180963D01*
X191839583Y-174180963D02*
X191830059Y-174171440D01*
X191830059Y-174171440D02*
X191839583Y-174161916D01*
X191839583Y-174161916D02*
X191839583Y-174180963D01*
X192049106Y-174161916D02*
X192039582Y-174171440D01*
X192039582Y-174171440D02*
X192011011Y-174180963D01*
X192011011Y-174180963D02*
X191991963Y-174180963D01*
X191991963Y-174180963D02*
X191963392Y-174171440D01*
X191963392Y-174171440D02*
X191944344Y-174152392D01*
X191944344Y-174152392D02*
X191934821Y-174133344D01*
X191934821Y-174133344D02*
X191925297Y-174095249D01*
X191925297Y-174095249D02*
X191925297Y-174066678D01*
X191925297Y-174066678D02*
X191934821Y-174028582D01*
X191934821Y-174028582D02*
X191944344Y-174009535D01*
X191944344Y-174009535D02*
X191963392Y-173990487D01*
X191963392Y-173990487D02*
X191991963Y-173980963D01*
X191991963Y-173980963D02*
X192011011Y-173980963D01*
X192011011Y-173980963D02*
X192039582Y-173990487D01*
X192039582Y-173990487D02*
X192049106Y-174000011D01*
X192220535Y-174047630D02*
X192220535Y-174180963D01*
X192134821Y-174047630D02*
X192134821Y-174152392D01*
X192134821Y-174152392D02*
X192144344Y-174171440D01*
X192144344Y-174171440D02*
X192163392Y-174180963D01*
X192163392Y-174180963D02*
X192191963Y-174180963D01*
X192191963Y-174180963D02*
X192211011Y-174171440D01*
X192211011Y-174171440D02*
X192220535Y-174161916D01*
X192439582Y-174047630D02*
X192515773Y-174047630D01*
X192468154Y-173980963D02*
X192468154Y-174152392D01*
X192468154Y-174152392D02*
X192477677Y-174171440D01*
X192477677Y-174171440D02*
X192496725Y-174180963D01*
X192496725Y-174180963D02*
X192515773Y-174180963D01*
X192582440Y-174180963D02*
X192582440Y-174047630D01*
X192582440Y-174085725D02*
X192591963Y-174066678D01*
X192591963Y-174066678D02*
X192601487Y-174057154D01*
X192601487Y-174057154D02*
X192620535Y-174047630D01*
X192620535Y-174047630D02*
X192639582Y-174047630D01*
X192791964Y-174180963D02*
X192791964Y-174076201D01*
X192791964Y-174076201D02*
X192782440Y-174057154D01*
X192782440Y-174057154D02*
X192763392Y-174047630D01*
X192763392Y-174047630D02*
X192725297Y-174047630D01*
X192725297Y-174047630D02*
X192706250Y-174057154D01*
X192791964Y-174171440D02*
X192772916Y-174180963D01*
X192772916Y-174180963D02*
X192725297Y-174180963D01*
X192725297Y-174180963D02*
X192706250Y-174171440D01*
X192706250Y-174171440D02*
X192696726Y-174152392D01*
X192696726Y-174152392D02*
X192696726Y-174133344D01*
X192696726Y-174133344D02*
X192706250Y-174114297D01*
X192706250Y-174114297D02*
X192725297Y-174104773D01*
X192725297Y-174104773D02*
X192772916Y-174104773D01*
X192772916Y-174104773D02*
X192791964Y-174095249D01*
X192972916Y-174171440D02*
X192953868Y-174180963D01*
X192953868Y-174180963D02*
X192915773Y-174180963D01*
X192915773Y-174180963D02*
X192896725Y-174171440D01*
X192896725Y-174171440D02*
X192887202Y-174161916D01*
X192887202Y-174161916D02*
X192877678Y-174142868D01*
X192877678Y-174142868D02*
X192877678Y-174085725D01*
X192877678Y-174085725D02*
X192887202Y-174066678D01*
X192887202Y-174066678D02*
X192896725Y-174057154D01*
X192896725Y-174057154D02*
X192915773Y-174047630D01*
X192915773Y-174047630D02*
X192953868Y-174047630D01*
X192953868Y-174047630D02*
X192972916Y-174057154D01*
X193058631Y-174180963D02*
X193058631Y-173980963D01*
X193077678Y-174104773D02*
X193134821Y-174180963D01*
X193134821Y-174047630D02*
X193058631Y-174123820D01*
X193211012Y-174171440D02*
X193230059Y-174180963D01*
X193230059Y-174180963D02*
X193268155Y-174180963D01*
X193268155Y-174180963D02*
X193287202Y-174171440D01*
X193287202Y-174171440D02*
X193296726Y-174152392D01*
X193296726Y-174152392D02*
X193296726Y-174142868D01*
X193296726Y-174142868D02*
X193287202Y-174123820D01*
X193287202Y-174123820D02*
X193268155Y-174114297D01*
X193268155Y-174114297D02*
X193239583Y-174114297D01*
X193239583Y-174114297D02*
X193220536Y-174104773D01*
X193220536Y-174104773D02*
X193211012Y-174085725D01*
X193211012Y-174085725D02*
X193211012Y-174076201D01*
X193211012Y-174076201D02*
X193220536Y-174057154D01*
X193220536Y-174057154D02*
X193239583Y-174047630D01*
X193239583Y-174047630D02*
X193268155Y-174047630D01*
X193268155Y-174047630D02*
X193287202Y-174057154D01*
X186125297Y-174180963D02*
X186125297Y-173980963D01*
X186125297Y-173980963D02*
X186239582Y-174180963D01*
X186239582Y-174180963D02*
X186239582Y-173980963D01*
X186363392Y-174180963D02*
X186344344Y-174171440D01*
X186344344Y-174171440D02*
X186334821Y-174161916D01*
X186334821Y-174161916D02*
X186325297Y-174142868D01*
X186325297Y-174142868D02*
X186325297Y-174085725D01*
X186325297Y-174085725D02*
X186334821Y-174066678D01*
X186334821Y-174066678D02*
X186344344Y-174057154D01*
X186344344Y-174057154D02*
X186363392Y-174047630D01*
X186363392Y-174047630D02*
X186391963Y-174047630D01*
X186391963Y-174047630D02*
X186411011Y-174057154D01*
X186411011Y-174057154D02*
X186420535Y-174066678D01*
X186420535Y-174066678D02*
X186430059Y-174085725D01*
X186430059Y-174085725D02*
X186430059Y-174142868D01*
X186430059Y-174142868D02*
X186420535Y-174161916D01*
X186420535Y-174161916D02*
X186411011Y-174171440D01*
X186411011Y-174171440D02*
X186391963Y-174180963D01*
X186391963Y-174180963D02*
X186363392Y-174180963D01*
X186734820Y-174076201D02*
X186668154Y-174076201D01*
X186668154Y-174180963D02*
X186668154Y-173980963D01*
X186668154Y-173980963D02*
X186763392Y-173980963D01*
X186839583Y-174161916D02*
X186849106Y-174171440D01*
X186849106Y-174171440D02*
X186839583Y-174180963D01*
X186839583Y-174180963D02*
X186830059Y-174171440D01*
X186830059Y-174171440D02*
X186839583Y-174161916D01*
X186839583Y-174161916D02*
X186839583Y-174180963D01*
X187049106Y-174161916D02*
X187039582Y-174171440D01*
X187039582Y-174171440D02*
X187011011Y-174180963D01*
X187011011Y-174180963D02*
X186991963Y-174180963D01*
X186991963Y-174180963D02*
X186963392Y-174171440D01*
X186963392Y-174171440D02*
X186944344Y-174152392D01*
X186944344Y-174152392D02*
X186934821Y-174133344D01*
X186934821Y-174133344D02*
X186925297Y-174095249D01*
X186925297Y-174095249D02*
X186925297Y-174066678D01*
X186925297Y-174066678D02*
X186934821Y-174028582D01*
X186934821Y-174028582D02*
X186944344Y-174009535D01*
X186944344Y-174009535D02*
X186963392Y-173990487D01*
X186963392Y-173990487D02*
X186991963Y-173980963D01*
X186991963Y-173980963D02*
X187011011Y-173980963D01*
X187011011Y-173980963D02*
X187039582Y-173990487D01*
X187039582Y-173990487D02*
X187049106Y-174000011D01*
X187220535Y-174047630D02*
X187220535Y-174180963D01*
X187134821Y-174047630D02*
X187134821Y-174152392D01*
X187134821Y-174152392D02*
X187144344Y-174171440D01*
X187144344Y-174171440D02*
X187163392Y-174180963D01*
X187163392Y-174180963D02*
X187191963Y-174180963D01*
X187191963Y-174180963D02*
X187211011Y-174171440D01*
X187211011Y-174171440D02*
X187220535Y-174161916D01*
X187439582Y-174047630D02*
X187515773Y-174047630D01*
X187468154Y-173980963D02*
X187468154Y-174152392D01*
X187468154Y-174152392D02*
X187477677Y-174171440D01*
X187477677Y-174171440D02*
X187496725Y-174180963D01*
X187496725Y-174180963D02*
X187515773Y-174180963D01*
X187582440Y-174180963D02*
X187582440Y-174047630D01*
X187582440Y-174085725D02*
X187591963Y-174066678D01*
X187591963Y-174066678D02*
X187601487Y-174057154D01*
X187601487Y-174057154D02*
X187620535Y-174047630D01*
X187620535Y-174047630D02*
X187639582Y-174047630D01*
X187791964Y-174180963D02*
X187791964Y-174076201D01*
X187791964Y-174076201D02*
X187782440Y-174057154D01*
X187782440Y-174057154D02*
X187763392Y-174047630D01*
X187763392Y-174047630D02*
X187725297Y-174047630D01*
X187725297Y-174047630D02*
X187706250Y-174057154D01*
X187791964Y-174171440D02*
X187772916Y-174180963D01*
X187772916Y-174180963D02*
X187725297Y-174180963D01*
X187725297Y-174180963D02*
X187706250Y-174171440D01*
X187706250Y-174171440D02*
X187696726Y-174152392D01*
X187696726Y-174152392D02*
X187696726Y-174133344D01*
X187696726Y-174133344D02*
X187706250Y-174114297D01*
X187706250Y-174114297D02*
X187725297Y-174104773D01*
X187725297Y-174104773D02*
X187772916Y-174104773D01*
X187772916Y-174104773D02*
X187791964Y-174095249D01*
X187972916Y-174171440D02*
X187953868Y-174180963D01*
X187953868Y-174180963D02*
X187915773Y-174180963D01*
X187915773Y-174180963D02*
X187896725Y-174171440D01*
X187896725Y-174171440D02*
X187887202Y-174161916D01*
X187887202Y-174161916D02*
X187877678Y-174142868D01*
X187877678Y-174142868D02*
X187877678Y-174085725D01*
X187877678Y-174085725D02*
X187887202Y-174066678D01*
X187887202Y-174066678D02*
X187896725Y-174057154D01*
X187896725Y-174057154D02*
X187915773Y-174047630D01*
X187915773Y-174047630D02*
X187953868Y-174047630D01*
X187953868Y-174047630D02*
X187972916Y-174057154D01*
X188058631Y-174180963D02*
X188058631Y-173980963D01*
X188077678Y-174104773D02*
X188134821Y-174180963D01*
X188134821Y-174047630D02*
X188058631Y-174123820D01*
X188211012Y-174171440D02*
X188230059Y-174180963D01*
X188230059Y-174180963D02*
X188268155Y-174180963D01*
X188268155Y-174180963D02*
X188287202Y-174171440D01*
X188287202Y-174171440D02*
X188296726Y-174152392D01*
X188296726Y-174152392D02*
X188296726Y-174142868D01*
X188296726Y-174142868D02*
X188287202Y-174123820D01*
X188287202Y-174123820D02*
X188268155Y-174114297D01*
X188268155Y-174114297D02*
X188239583Y-174114297D01*
X188239583Y-174114297D02*
X188220536Y-174104773D01*
X188220536Y-174104773D02*
X188211012Y-174085725D01*
X188211012Y-174085725D02*
X188211012Y-174076201D01*
X188211012Y-174076201D02*
X188220536Y-174057154D01*
X188220536Y-174057154D02*
X188239583Y-174047630D01*
X188239583Y-174047630D02*
X188268155Y-174047630D01*
X188268155Y-174047630D02*
X188287202Y-174057154D01*
X185991965Y-173780963D02*
X185991965Y-173580963D01*
X186106250Y-173780963D02*
X186020536Y-173666678D01*
X186106250Y-173580963D02*
X185991965Y-173695249D01*
X186191965Y-173676201D02*
X186258631Y-173676201D01*
X186287203Y-173780963D02*
X186191965Y-173780963D01*
X186191965Y-173780963D02*
X186191965Y-173580963D01*
X186191965Y-173580963D02*
X186287203Y-173580963D01*
X186372917Y-173676201D02*
X186439583Y-173676201D01*
X186468155Y-173780963D02*
X186372917Y-173780963D01*
X186372917Y-173780963D02*
X186372917Y-173580963D01*
X186372917Y-173580963D02*
X186468155Y-173580963D01*
X186553869Y-173780963D02*
X186553869Y-173580963D01*
X186553869Y-173580963D02*
X186630059Y-173580963D01*
X186630059Y-173580963D02*
X186649107Y-173590487D01*
X186649107Y-173590487D02*
X186658630Y-173600011D01*
X186658630Y-173600011D02*
X186668154Y-173619059D01*
X186668154Y-173619059D02*
X186668154Y-173647630D01*
X186668154Y-173647630D02*
X186658630Y-173666678D01*
X186658630Y-173666678D02*
X186649107Y-173676201D01*
X186649107Y-173676201D02*
X186630059Y-173685725D01*
X186630059Y-173685725D02*
X186553869Y-173685725D01*
X186753869Y-173704773D02*
X186906250Y-173704773D01*
X187039583Y-173580963D02*
X187077678Y-173580963D01*
X187077678Y-173580963D02*
X187096726Y-173590487D01*
X187096726Y-173590487D02*
X187115773Y-173609535D01*
X187115773Y-173609535D02*
X187125297Y-173647630D01*
X187125297Y-173647630D02*
X187125297Y-173714297D01*
X187125297Y-173714297D02*
X187115773Y-173752392D01*
X187115773Y-173752392D02*
X187096726Y-173771440D01*
X187096726Y-173771440D02*
X187077678Y-173780963D01*
X187077678Y-173780963D02*
X187039583Y-173780963D01*
X187039583Y-173780963D02*
X187020535Y-173771440D01*
X187020535Y-173771440D02*
X187001488Y-173752392D01*
X187001488Y-173752392D02*
X186991964Y-173714297D01*
X186991964Y-173714297D02*
X186991964Y-173647630D01*
X186991964Y-173647630D02*
X187001488Y-173609535D01*
X187001488Y-173609535D02*
X187020535Y-173590487D01*
X187020535Y-173590487D02*
X187039583Y-173580963D01*
X187211012Y-173580963D02*
X187211012Y-173742868D01*
X187211012Y-173742868D02*
X187220535Y-173761916D01*
X187220535Y-173761916D02*
X187230059Y-173771440D01*
X187230059Y-173771440D02*
X187249107Y-173780963D01*
X187249107Y-173780963D02*
X187287202Y-173780963D01*
X187287202Y-173780963D02*
X187306250Y-173771440D01*
X187306250Y-173771440D02*
X187315773Y-173761916D01*
X187315773Y-173761916D02*
X187325297Y-173742868D01*
X187325297Y-173742868D02*
X187325297Y-173580963D01*
X187391964Y-173580963D02*
X187506250Y-173580963D01*
X187449107Y-173780963D02*
X187449107Y-173580963D01*
X187706250Y-173580963D02*
X187839583Y-173580963D01*
X187839583Y-173580963D02*
X187706250Y-173780963D01*
X187706250Y-173780963D02*
X187839583Y-173780963D01*
X187953869Y-173580963D02*
X187991964Y-173580963D01*
X187991964Y-173580963D02*
X188011012Y-173590487D01*
X188011012Y-173590487D02*
X188030059Y-173609535D01*
X188030059Y-173609535D02*
X188039583Y-173647630D01*
X188039583Y-173647630D02*
X188039583Y-173714297D01*
X188039583Y-173714297D02*
X188030059Y-173752392D01*
X188030059Y-173752392D02*
X188011012Y-173771440D01*
X188011012Y-173771440D02*
X187991964Y-173780963D01*
X187991964Y-173780963D02*
X187953869Y-173780963D01*
X187953869Y-173780963D02*
X187934821Y-173771440D01*
X187934821Y-173771440D02*
X187915774Y-173752392D01*
X187915774Y-173752392D02*
X187906250Y-173714297D01*
X187906250Y-173714297D02*
X187906250Y-173647630D01*
X187906250Y-173647630D02*
X187915774Y-173609535D01*
X187915774Y-173609535D02*
X187934821Y-173590487D01*
X187934821Y-173590487D02*
X187953869Y-173580963D01*
X188125298Y-173780963D02*
X188125298Y-173580963D01*
X188125298Y-173580963D02*
X188239583Y-173780963D01*
X188239583Y-173780963D02*
X188239583Y-173580963D01*
X188334822Y-173676201D02*
X188401488Y-173676201D01*
X188430060Y-173780963D02*
X188334822Y-173780963D01*
X188334822Y-173780963D02*
X188334822Y-173580963D01*
X188334822Y-173580963D02*
X188430060Y-173580963D01*
%TD*%
M02*
