M48
; DRILL file {KiCad 7.0.5} date Sat Mar  2 17:25:27 2024
; FORMAT={-:-/ absolute / inch / decimal}
; #@! TF.CreationDate,2024-03-02T17:25:27+09:00
; #@! TF.GenerationSoftware,Kicad,Pcbnew,7.0.5
; #@! TF.FileFunction,Plated,1,2,PTH
FMAT,2
INCH
; #@! TA.AperFunction,Plated,PTH,ViaDrill
T1C0.0118
; #@! TA.AperFunction,Plated,PTH,ComponentDrill
T2C0.0118
; #@! TA.AperFunction,Plated,PTH,ViaDrill
T3C0.0157
; #@! TA.AperFunction,Plated,PTH,ComponentDrill
T4C0.0394
; #@! TA.AperFunction,Plated,PTH,ComponentDrill
T5C0.0579
; #@! TA.AperFunction,Plated,PTH,ComponentDrill
T6C0.0984
; #@! TA.AperFunction,Plated,PTH,ComponentDrill
T7C0.0984
%
G90
G05
T1
X3.9181Y-5.7154
X4.0134Y-6.5925
X4.3204Y-5.3616
X4.3339Y-5.333
X4.3671Y-5.4011
X4.3671Y-5.3616
X4.3961Y-5.3326
X4.4189Y-5.3106
X5.3618Y-7.3996
X5.3618Y-7.498
X5.3618Y-7.5807
X5.3657Y-7.3256
X5.4362Y-7.498
X5.4362Y-7.5807
X5.4366Y-7.3976
X5.4378Y-7.3256
X5.4898Y-7.3276
X5.4898Y-7.3795
X5.5484Y-7.3283
X5.5484Y-7.3803
X5.6402Y-7.3287
X5.6402Y-7.3807
X5.7228Y-7.3287
X5.7228Y-7.3807
X5.8055Y-7.3287
X5.8055Y-7.3807
X5.8772Y-7.3287
X5.8772Y-7.3807
X5.8851Y-6.8649
X5.9598Y-7.3287
X5.9598Y-7.3807
X6.0055Y-7.0707
X6.0425Y-7.3287
X6.0425Y-7.3807
X6.0976Y-7.3803
X6.1757Y-5.2134
X6.1803Y-7.3283
X6.1803Y-7.3803
X6.2114Y-5.3761
X6.2483Y-5.2906
X6.2483Y-5.3543
X6.2598Y-5.1351
X6.2598Y-5.1894
X6.263Y-7.3283
X6.263Y-7.3803
X6.274Y-6.8898
X6.278Y-5.885
X6.2921Y-5.1154
X6.2921Y-5.1894
X6.3026Y-5.3543
X6.3368Y-5.563
X6.3382Y-7.3811
X6.3624Y-5.563
X6.365Y-7.0012
X6.3992Y-5.4
X6.4067Y-5.8851
X6.4189Y-7.0028
X6.4209Y-7.3811
X6.4287Y-6.7465
X6.4457Y-6.8638
X6.4933Y-7.1374
X6.5016Y-7.3831
X6.5205Y-6.8713
X6.5205Y-6.9185
X6.5205Y-7.013
X6.5205Y-6.9657
X6.5677Y-7.013
X6.5677Y-6.9185
X6.5677Y-6.9657
X6.5677Y-6.8713
X6.5811Y-5.8851
X6.5827Y-7.3811
X6.615Y-7.013
X6.615Y-6.8713
X6.615Y-6.9185
X6.615Y-6.9657
X6.6205Y-6.6201
X6.6433Y-6.6913
X6.6441Y-7.1795
X6.6622Y-7.013
X6.6622Y-6.8713
X6.6622Y-6.9657
X6.6622Y-6.9185
X6.6626Y-6.0524
X6.6654Y-7.3811
X6.6657Y-7.3252
X6.6789Y-6.7059
X6.7028Y-5.4685
X6.7295Y-7.0815
X6.737Y-7.3811
X6.7394Y-7.3248
X6.7417Y-5.3681
X6.7594Y-6.9323
X6.7717Y-5.2764
X6.7732Y-5.4004
X6.8051Y-5.2287
X6.8063Y-6.7008
X6.8142Y-6.7382
X6.8145Y-6.4886
X6.8145Y-6.5598
X6.8145Y-6.6236
X6.8146Y-6.4077
X6.8189Y-5.3228
X6.8189Y-5.3543
X6.8197Y-7.0815
X6.8244Y-7.3807
X6.8248Y-7.3236
X6.8252Y-7.0504
X6.826Y-6.8343
X6.8268Y-6.9547
X6.8504Y-5.3228
X6.8504Y-5.3543
X6.8972Y-5.3996
X6.898Y-5.2764
X6.9051Y-6.7843
X6.9217Y-7.3236
X6.9264Y-7.3799
X6.9346Y-5.3496
X6.9567Y-5.228
X6.9993Y-6.776
X7.0268Y-7.3236
X7.0295Y-7.3807
X7.0846Y-5.2291
X7.1028Y-7.3236
X7.1035Y-7.3807
X7.1126Y-5.2768
X7.1396Y-7.2836
X7.1539Y-5.4701
X7.1776Y-7.3811
X7.2181Y-5.2764
X7.2181Y-5.3362
X7.2374Y-5.8851
X7.2378Y-6.0913
X7.2409Y-6.0524
X7.274Y-7.3811
X7.3043Y-6.135
X7.3567Y-7.3811
X7.4283Y-7.3811
X7.5157Y-7.3811
X7.5288Y-7.0906
X7.6177Y-7.3811
X7.6228Y-5.1351
X7.6594Y-4.5961
X7.7035Y-7.2508
X7.7209Y-7.3811
X7.7505Y-7.0773
X7.785Y-5.1351
X7.7949Y-7.3811
X7.797Y-6.824
X7.84Y-6.8578
X7.8654Y-6.8327
X7.8689Y-7.3811
X7.9398Y-7.3811
X8.0087Y-7.5819
X8.0138Y-7.3811
X8.0138Y-7.4492
X8.072Y-7.4126
X8.1445Y-7.4276
X8.1988Y-7.576
X8.1996Y-7.3811
X8.1996Y-7.4819
T2
X6.4642Y-7.386
T3
X6.8346Y-5.4413
T4
X6.7591Y-7.1758
X6.8591Y-7.1758
X6.9591Y-7.1758
X7.0591Y-7.1758
T5
X3.0375Y-4.15
X3.1313Y-7.15
X3.225Y-4.9
X3.2875Y-4.05
X3.3188Y-5.65
X3.3813Y-7.05
X3.475Y-4.8
X3.5063Y-6.4
X3.5688Y-5.55
X3.7563Y-6.3
X3.7875Y-4.15
X4.0375Y-4.05
X4.0687Y-7.15
X4.1625Y-4.9
X4.3187Y-7.05
X4.35Y-5.65
X4.4125Y-4.8
X4.5375Y-4.15
X4.6Y-5.55
X4.725Y-6.4
X4.7875Y-4.05
X4.9125Y-4.9
X4.975Y-6.3
X5.0062Y-7.15
X5.1Y-5.65
X5.1625Y-4.8
X5.2562Y-7.05
X5.2875Y-4.15
X5.35Y-5.55
X5.475Y-6.4
X5.5375Y-4.05
X5.6625Y-4.9
X5.725Y-6.3
X5.85Y-5.65
X5.9125Y-4.8
X5.9437Y-7.15
X6.0375Y-4.15
X6.1Y-5.55
X6.1937Y-7.05
X6.225Y-6.4
X6.2875Y-4.05
X6.4125Y-4.9
X6.475Y-6.3
X6.6Y-5.65
X6.6625Y-4.8
X6.7875Y-4.15
X6.85Y-5.55
X6.975Y-6.4
X7.0375Y-4.05
X7.1625Y-4.9
X7.225Y-6.3
X7.35Y-5.65
X7.4125Y-4.8
X7.4437Y-7.15
X7.5375Y-4.15
X7.6Y-5.55
X7.6937Y-7.05
X7.725Y-6.4
X7.7875Y-4.05
X7.8187Y-7.15
X7.9125Y-4.9
X7.975Y-6.3
X8.0687Y-7.05
X8.1Y-5.65
X8.1625Y-4.8
X8.2875Y-4.15
X8.35Y-5.55
X8.475Y-6.4
X8.5375Y-4.05
X8.6625Y-4.9
X8.725Y-6.3
X8.85Y-5.65
X8.9125Y-4.8
X9.0375Y-4.15
X9.1Y-5.55
X9.225Y-6.4
X9.2875Y-4.05
X9.3187Y-7.15
X9.4125Y-4.9
X9.475Y-6.3
X9.5687Y-7.05
X9.6Y-5.65
X9.6625Y-4.8
X9.7875Y-4.15
X9.85Y-5.55
X9.975Y-6.4
X10.0375Y-4.05
X10.1625Y-4.9
X10.225Y-6.3
X10.35Y-5.65
X10.4125Y-4.8
X10.5375Y-4.15
X10.6Y-5.55
X10.6312Y-7.15
X10.725Y-6.4
X10.7875Y-4.05
X10.8812Y-7.05
X10.9125Y-4.9
X10.975Y-6.3
X11.1Y-5.65
X11.1625Y-4.8
X11.2875Y-4.15
X11.35Y-5.55
X11.475Y-6.4
X11.5375Y-4.05
X11.5687Y-7.15
X11.6625Y-4.9
X11.725Y-6.3
X11.8187Y-7.05
X11.85Y-5.65
X11.9125Y-4.8
X12.0375Y-4.15
X12.1Y-5.55
X12.2875Y-4.05
X12.4125Y-4.9
X12.5062Y-7.15
X12.6625Y-4.8
X12.7562Y-7.05
X12.8812Y-6.4
X13.0687Y-5.65
X13.1312Y-6.3
X13.1625Y-4.15
X13.3187Y-5.55
X13.35Y-4.9
X13.4125Y-4.05
X13.4437Y-7.15
X13.6Y-4.8
X13.6937Y-7.05
T7
X3.8194Y-4.9862
T6
G00X7.8253Y-5.7382
M15
G01X7.9238Y-5.7382
M16
G05
G00X10.278Y-7.2421
M15
G01X10.3765Y-7.2421
M16
G05
G00X13.0162Y-4.9862
M15
G01X13.1147Y-4.9862
M16
G05
T0
M30
