G04 #@! TF.GenerationSoftware,KiCad,Pcbnew,7.0.5*
G04 #@! TF.CreationDate,2023-07-06T12:41:45+09:00*
G04 #@! TF.ProjectId,Hotp4ck60,486f7470-3463-46b3-9630-2e6b69636164,rev?*
G04 #@! TF.SameCoordinates,Original*
G04 #@! TF.FileFunction,Soldermask,Top*
G04 #@! TF.FilePolarity,Negative*
%FSLAX46Y46*%
G04 Gerber Fmt 4.6, Leading zero omitted, Abs format (unit mm)*
G04 Created by KiCad (PCBNEW 7.0.5) date 2023-07-06 12:41:45*
%MOMM*%
%LPD*%
G01*
G04 APERTURE LIST*
%ADD10C,2.501900*%
%ADD11C,1.750000*%
%ADD12C,4.000000*%
%ADD13C,3.048000*%
%ADD14C,3.987800*%
%ADD15C,1.000000*%
%ADD16C,7.001300*%
%ADD17C,7.000240*%
%ADD18C,3.700000*%
%ADD19R,1.000000X1.000000*%
%ADD20C,0.850000*%
%ADD21C,0.650000*%
%ADD22O,1.000000X1.600000*%
%ADD23O,1.000000X2.100000*%
G04 APERTURE END LIST*
D10*
X71812500Y-141486550D02*
X75612500Y-141486550D01*
X71812500Y-146788450D02*
X75612500Y-146788450D01*
X353012500Y-141486550D02*
X356812500Y-141486550D01*
X353012500Y-146788450D02*
X356862500Y-146788450D01*
X78263450Y-144137500D02*
G75*
G03*
X75612500Y-141486550I-2650949J1D01*
G01*
X75612500Y-146788450D02*
G75*
G03*
X78263450Y-144137500I1J2650949D01*
G01*
X353012500Y-141486550D02*
G75*
G03*
X350361550Y-144137500I0J-2650950D01*
G01*
X350361550Y-144137500D02*
G75*
G03*
X353012500Y-146788450I2650950J0D01*
G01*
D11*
X325913750Y-153987500D03*
D12*
X330993750Y-153987500D03*
D11*
X336073750Y-153987500D03*
X125888750Y-173037500D03*
D12*
X130968750Y-173037500D03*
D11*
X136048750Y-173037500D03*
D13*
X252406250Y-180022500D03*
D14*
X252406250Y-164782500D03*
D13*
X152406250Y-180022500D03*
D14*
X152406250Y-164782500D03*
D11*
X94932500Y-96837500D03*
D12*
X100012500Y-96837500D03*
D11*
X105092500Y-96837500D03*
X133032500Y-96837500D03*
D12*
X138112500Y-96837500D03*
D11*
X143192500Y-96837500D03*
X268763750Y-173037500D03*
D12*
X273843750Y-173037500D03*
D11*
X278923750Y-173037500D03*
X204470000Y-134937500D03*
D12*
X209550000Y-134937500D03*
D11*
X214630000Y-134937500D03*
X271145000Y-153987500D03*
D12*
X276225000Y-153987500D03*
D11*
X281305000Y-153987500D03*
D13*
X204819250Y-180022500D03*
D14*
X204819250Y-164782500D03*
D13*
X180943250Y-180022500D03*
D14*
X180943250Y-164782500D03*
D11*
X194945000Y-153987500D03*
D12*
X200025000Y-153987500D03*
D11*
X205105000Y-153987500D03*
D15*
X181440000Y-169110000D03*
D11*
X330676250Y-134937500D03*
D12*
X335756250Y-134937500D03*
D11*
X340836250Y-134937500D03*
X228282500Y-96837500D03*
D12*
X233362500Y-96837500D03*
D11*
X238442500Y-96837500D03*
X156845000Y-153987500D03*
D12*
X161925000Y-153987500D03*
D11*
X167005000Y-153987500D03*
X166370000Y-134937500D03*
D12*
X171450000Y-134937500D03*
D11*
X176530000Y-134937500D03*
X113982500Y-96837500D03*
D12*
X119062500Y-96837500D03*
D11*
X124142500Y-96837500D03*
D15*
X179370000Y-169110000D03*
D13*
X347694250Y-141922500D03*
D14*
X347694250Y-126682500D03*
D13*
X323818250Y-141922500D03*
D14*
X323818250Y-126682500D03*
D15*
X73570465Y-141537500D03*
X73570465Y-146737500D03*
X75612500Y-141537500D03*
X75612500Y-146737500D03*
X77450978Y-142299022D03*
X77450978Y-145975978D03*
X78212500Y-144137500D03*
X94712500Y-115537500D03*
X95386154Y-113911154D03*
X95386154Y-117163846D03*
X97012500Y-113237500D03*
D16*
X97012500Y-115537500D03*
D15*
X97012500Y-117837500D03*
X98638846Y-113911154D03*
X98638846Y-117163846D03*
X99312500Y-115537500D03*
X198812500Y-132337500D03*
X198812500Y-136937500D03*
X200012500Y-132337500D03*
D17*
X200012500Y-134637500D03*
D15*
X200012500Y-136937500D03*
X201212500Y-132337500D03*
X201212500Y-136937500D03*
X261112500Y-170537500D03*
X261112500Y-175137500D03*
X262312500Y-170537500D03*
D17*
X262312500Y-172837500D03*
D15*
X262312500Y-175137500D03*
X263512500Y-170537500D03*
X263512500Y-175137500D03*
X330662500Y-113237500D03*
X330662500Y-117837500D03*
X331862500Y-113237500D03*
D17*
X331862500Y-115537500D03*
D15*
X331862500Y-117837500D03*
X333062500Y-113220500D03*
X333062500Y-117837500D03*
X350412500Y-144137500D03*
X351174022Y-142299022D03*
X351174022Y-145975978D03*
X353012500Y-141537500D03*
X353012500Y-146737500D03*
X355054535Y-141537500D03*
X355054535Y-146737500D03*
D18*
X74112500Y-111637500D03*
X74112500Y-157937500D03*
X109012500Y-89937500D03*
X109012500Y-179637500D03*
X166912500Y-89937500D03*
X243212500Y-89937500D03*
X258404500Y-179645500D03*
X319712500Y-89937500D03*
X319812500Y-179637500D03*
X354512500Y-111837500D03*
X354512500Y-158137500D03*
D11*
X314007500Y-115887500D03*
D12*
X319087500Y-115887500D03*
D11*
X324167500Y-115887500D03*
X147320000Y-134937500D03*
D12*
X152400000Y-134937500D03*
D11*
X157480000Y-134937500D03*
X237807500Y-115887500D03*
D12*
X242887500Y-115887500D03*
D11*
X247967500Y-115887500D03*
X137795000Y-153987500D03*
D12*
X142875000Y-153987500D03*
D11*
X147955000Y-153987500D03*
X161607500Y-115887500D03*
D12*
X166687500Y-115887500D03*
D11*
X171767500Y-115887500D03*
X185420000Y-134937500D03*
D12*
X190500000Y-134937500D03*
D11*
X195580000Y-134937500D03*
X316388750Y-173037500D03*
D12*
X321468750Y-173037500D03*
D11*
X326548750Y-173037500D03*
X123507500Y-115887500D03*
D12*
X128587500Y-115887500D03*
D11*
X133667500Y-115887500D03*
X190182500Y-96837500D03*
D12*
X195262500Y-96837500D03*
D11*
X200342500Y-96837500D03*
X152082500Y-96837500D03*
D12*
X157162500Y-96837500D03*
D11*
X162242500Y-96837500D03*
X275907500Y-115887500D03*
D12*
X280987500Y-115887500D03*
D11*
X286067500Y-115887500D03*
X149701250Y-173037500D03*
D12*
X154781250Y-173037500D03*
D11*
X159861250Y-173037500D03*
X299720000Y-134937500D03*
D12*
X304800000Y-134937500D03*
D11*
X309880000Y-134937500D03*
X175895000Y-153987500D03*
D12*
X180975000Y-153987500D03*
D11*
X186055000Y-153987500D03*
D13*
X252444250Y-180022500D03*
D14*
X252444250Y-164782500D03*
D13*
X228568250Y-180022500D03*
D14*
X228568250Y-164782500D03*
D11*
X118745000Y-153987500D03*
D12*
X123825000Y-153987500D03*
D11*
X128905000Y-153987500D03*
D13*
X319055750Y-147002500D03*
D14*
X319055750Y-162242500D03*
D13*
X342931750Y-147002500D03*
D14*
X342931750Y-162242500D03*
D11*
X252095000Y-153987500D03*
D12*
X257175000Y-153987500D03*
D11*
X262255000Y-153987500D03*
X233045000Y-153987500D03*
D12*
X238125000Y-153987500D03*
D11*
X243205000Y-153987500D03*
X333057500Y-96837500D03*
D12*
X338137500Y-96837500D03*
D11*
X343217500Y-96837500D03*
X213995000Y-153987500D03*
D12*
X219075000Y-153987500D03*
D11*
X224155000Y-153987500D03*
X180657500Y-115887500D03*
D12*
X185737500Y-115887500D03*
D11*
X190817500Y-115887500D03*
X128270000Y-134937500D03*
D12*
X133350000Y-134937500D03*
D11*
X138430000Y-134937500D03*
X104457500Y-115887500D03*
D12*
X109537500Y-115887500D03*
D11*
X114617500Y-115887500D03*
X102076250Y-173037500D03*
D12*
X107156250Y-173037500D03*
D11*
X112236250Y-173037500D03*
X109220000Y-134937500D03*
D12*
X114300000Y-134937500D03*
D11*
X119380000Y-134937500D03*
X209232500Y-96837500D03*
D12*
X214312500Y-96837500D03*
D11*
X219392500Y-96837500D03*
X142557500Y-115887500D03*
D12*
X147637500Y-115887500D03*
D11*
X152717500Y-115887500D03*
X294957500Y-115887500D03*
D12*
X300037500Y-115887500D03*
D11*
X305117500Y-115887500D03*
D13*
X326199500Y-89852500D03*
D14*
X326199500Y-105092500D03*
D13*
X350075500Y-89852500D03*
D14*
X350075500Y-105092500D03*
D11*
X337820000Y-115887500D03*
D12*
X342900000Y-115887500D03*
D11*
X347980000Y-115887500D03*
X80645000Y-115887500D03*
D12*
X85725000Y-115887500D03*
D11*
X90805000Y-115887500D03*
X199707500Y-115887500D03*
D12*
X204787500Y-115887500D03*
D11*
X209867500Y-115887500D03*
X197326250Y-173037500D03*
D12*
X202406250Y-173037500D03*
D11*
X207486250Y-173037500D03*
X340201250Y-173037500D03*
D12*
X345281250Y-173037500D03*
D11*
X350361250Y-173037500D03*
X285432500Y-96837500D03*
D12*
X290512500Y-96837500D03*
D11*
X295592500Y-96837500D03*
X171132500Y-96837500D03*
D12*
X176212500Y-96837500D03*
D11*
X181292500Y-96837500D03*
X242570000Y-134937500D03*
D12*
X247650000Y-134937500D03*
D11*
X252730000Y-134937500D03*
X235426250Y-173037500D03*
D12*
X240506250Y-173037500D03*
D11*
X245586250Y-173037500D03*
D13*
X80930750Y-147002500D03*
D14*
X80930750Y-162242500D03*
D13*
X104806750Y-147002500D03*
D14*
X104806750Y-162242500D03*
D11*
X218757500Y-115887500D03*
D12*
X223837500Y-115887500D03*
D11*
X228917500Y-115887500D03*
X187801250Y-173037500D03*
D12*
X192881250Y-173037500D03*
D11*
X197961250Y-173037500D03*
X223520000Y-134937500D03*
D12*
X228600000Y-134937500D03*
D11*
X233680000Y-134937500D03*
X83026250Y-134937500D03*
D12*
X88106250Y-134937500D03*
D11*
X93186250Y-134937500D03*
X78263750Y-173037500D03*
D12*
X83343750Y-173037500D03*
D11*
X88423750Y-173037500D03*
D15*
X183510000Y-169110000D03*
D11*
X290195000Y-153987500D03*
D12*
X295275000Y-153987500D03*
D11*
X300355000Y-153987500D03*
X247332500Y-96837500D03*
D12*
X252412500Y-96837500D03*
D11*
X257492500Y-96837500D03*
X280670000Y-134937500D03*
D12*
X285750000Y-134937500D03*
D11*
X290830000Y-134937500D03*
X256857500Y-115887500D03*
D12*
X261937500Y-115887500D03*
D11*
X267017500Y-115887500D03*
X304482500Y-96837500D03*
D12*
X309562500Y-96837500D03*
D11*
X314642500Y-96837500D03*
X261620000Y-134937500D03*
D12*
X266700000Y-134937500D03*
D11*
X271780000Y-134937500D03*
X87788750Y-153987500D03*
D12*
X92868750Y-153987500D03*
D11*
X97948750Y-153987500D03*
X75882500Y-96837500D03*
D12*
X80962500Y-96837500D03*
D11*
X86042500Y-96837500D03*
X292576250Y-173037500D03*
D12*
X297656250Y-173037500D03*
D11*
X302736250Y-173037500D03*
D19*
X177300000Y-169110000D03*
D11*
X266382500Y-96837500D03*
D12*
X271462500Y-96837500D03*
D11*
X276542500Y-96837500D03*
D20*
X97120000Y-136910000D03*
X97120000Y-133910000D03*
D21*
X87120000Y-92070000D03*
X92900000Y-92070000D03*
D22*
X85690000Y-88420000D03*
D23*
X85690000Y-92600000D03*
D22*
X94330000Y-88420000D03*
D23*
X94330000Y-92600000D03*
M02*
