%TF.GenerationSoftware,KiCad,Pcbnew,7.0.5*%
%TF.CreationDate,2023-07-26T01:46:39+09:00*%
%TF.ProjectId,Hotp4ck60,486f7470-3463-46b3-9630-2e6b69636164,rev?*%
%TF.SameCoordinates,Original*%
%TF.FileFunction,Drillmap*%
%TF.FilePolarity,Positive*%
%FSLAX45Y45*%
G04 Gerber Fmt 4.5, Leading zero omitted, Abs format (unit mm)*
G04 Created by KiCad (PCBNEW 7.0.5) date 2023-07-26 01:46:39*
%MOMM*%
%LPD*%
G01*
G04 APERTURE LIST*
%ADD10C,0.200000*%
%ADD11C,0.030000*%
%ADD12C,0.034000*%
%ADD13C,0.040000*%
%ADD14C,0.050000*%
%ADD15C,0.060000*%
%ADD16C,0.100000*%
%ADD17C,0.147000*%
%ADD18C,0.249936*%
%ADD19C,0.249940*%
G04 APERTURE END LIST*
D10*
D11*
X8075000Y-9109000D02*
X8105000Y-9139000D01*
X8105000Y-9109000D02*
X8075000Y-9139000D01*
X8409357Y-9299670D02*
X8439357Y-9329670D01*
X8439357Y-9299670D02*
X8409357Y-9329670D01*
X8554000Y-9447000D02*
X8584000Y-9477000D01*
X8584000Y-9447000D02*
X8554000Y-9477000D01*
X8608950Y-9078200D02*
X8638950Y-9108200D01*
X8638950Y-9078200D02*
X8608950Y-9108200D01*
X8640000Y-8933300D02*
X8670000Y-8963300D01*
X8670000Y-8933300D02*
X8640000Y-8963300D01*
X8661000Y-9447000D02*
X8691000Y-9477000D01*
X8691000Y-9447000D02*
X8661000Y-9477000D01*
X8699000Y-9092000D02*
X8729000Y-9122000D01*
X8729000Y-9092000D02*
X8699000Y-9122000D01*
X8717000Y-10016000D02*
X8747000Y-10046000D01*
X8747000Y-10016000D02*
X8717000Y-10046000D01*
X8915950Y-9203950D02*
X8945950Y-9233950D01*
X8945950Y-9203950D02*
X8915950Y-9233950D01*
X8959000Y-9493950D02*
X8989000Y-9523950D01*
X8989000Y-9493950D02*
X8959000Y-9523950D01*
X9106050Y-9203950D02*
X9136050Y-9233950D01*
X9136050Y-9203950D02*
X9106050Y-9233950D01*
X9131000Y-9470000D02*
X9161000Y-9500000D01*
X9161000Y-9470000D02*
X9131000Y-9500000D01*
X9189000Y-10340000D02*
X9219000Y-10370000D01*
X9219000Y-10340000D02*
X9189000Y-10370000D01*
X9272000Y-9092000D02*
X9302000Y-9122000D01*
X9302000Y-9092000D02*
X9272000Y-9122000D01*
X9311000Y-9447000D02*
X9341000Y-9477000D01*
X9341000Y-9447000D02*
X9311000Y-9477000D01*
X9553829Y-10377588D02*
X9583829Y-10407588D01*
X9583829Y-10377588D02*
X9553829Y-10407588D01*
X9689064Y-10376950D02*
X9719064Y-10406950D01*
X9719064Y-10376950D02*
X9689064Y-10406950D01*
X9783000Y-13961000D02*
X9813000Y-13991000D01*
X9813000Y-13961000D02*
X9783000Y-13991000D01*
X9798000Y-12218000D02*
X9828000Y-12248000D01*
X9828000Y-12218000D02*
X9798000Y-12248000D01*
X9798000Y-12314000D02*
X9828000Y-12344000D01*
X9828000Y-12314000D02*
X9798000Y-12344000D01*
X9798000Y-12409000D02*
X9828000Y-12439000D01*
X9828000Y-12409000D02*
X9798000Y-12439000D01*
X9918000Y-12218000D02*
X9948000Y-12248000D01*
X9948000Y-12218000D02*
X9918000Y-12248000D01*
X9918000Y-12314000D02*
X9948000Y-12344000D01*
X9948000Y-12314000D02*
X9918000Y-12344000D01*
X9918000Y-12409000D02*
X9948000Y-12439000D01*
X9948000Y-12409000D02*
X9918000Y-12439000D01*
X10148000Y-10376950D02*
X10178000Y-10406950D01*
X10178000Y-10376950D02*
X10148000Y-10406950D01*
X10172000Y-13900000D02*
X10202000Y-13930000D01*
X10202000Y-13900000D02*
X10172000Y-13930000D01*
X10287000Y-12559000D02*
X10317000Y-12589000D01*
X10317000Y-12559000D02*
X10287000Y-12589000D01*
X10287000Y-12839000D02*
X10317000Y-12869000D01*
X10317000Y-12839000D02*
X10287000Y-12869000D01*
X10400000Y-13905000D02*
X10430000Y-13935000D01*
X10430000Y-13905000D02*
X10400000Y-13935000D01*
X10647000Y-13903000D02*
X10677000Y-13933000D01*
X10677000Y-13903000D02*
X10647000Y-13933000D01*
X10695000Y-10376950D02*
X10725000Y-10406950D01*
X10725000Y-10376950D02*
X10695000Y-10406950D01*
X10745000Y-15834000D02*
X10775000Y-15864000D01*
X10775000Y-15834000D02*
X10745000Y-15864000D01*
X10858000Y-14206000D02*
X10888000Y-14236000D01*
X10888000Y-14206000D02*
X10858000Y-14236000D01*
X11458965Y-10378244D02*
X11488965Y-10408244D01*
X11488965Y-10378244D02*
X11458965Y-10408244D01*
X11594073Y-10376950D02*
X11624073Y-10406950D01*
X11624073Y-10376950D02*
X11594073Y-10406950D01*
X11783000Y-12501000D02*
X11813000Y-12531000D01*
X11813000Y-12501000D02*
X11783000Y-12531000D01*
X11814465Y-12678535D02*
X11844465Y-12708535D01*
X11844465Y-12678535D02*
X11814465Y-12708535D01*
X11953000Y-12627000D02*
X11983000Y-12657000D01*
X11983000Y-12627000D02*
X11953000Y-12657000D01*
X12139000Y-12502000D02*
X12169000Y-12532000D01*
X12169000Y-12502000D02*
X12139000Y-12532000D01*
X12333000Y-10376950D02*
X12363000Y-10406950D01*
X12363000Y-10376950D02*
X12333000Y-10406950D01*
X13143000Y-10376950D02*
X13173000Y-10406950D01*
X13173000Y-10376950D02*
X13143000Y-10406950D01*
X13499082Y-10376907D02*
X13529082Y-10406907D01*
X13529082Y-10376907D02*
X13499082Y-10406907D01*
X13570000Y-17683000D02*
X13600000Y-17713000D01*
X13600000Y-17683000D02*
X13570000Y-17713000D01*
X13570000Y-17933000D02*
X13600000Y-17963000D01*
X13600000Y-17933000D02*
X13570000Y-17963000D01*
X13570000Y-18143000D02*
X13600000Y-18173000D01*
X13600000Y-18143000D02*
X13570000Y-18173000D01*
X13580000Y-17495000D02*
X13610000Y-17525000D01*
X13610000Y-17495000D02*
X13580000Y-17525000D01*
X13759000Y-17933000D02*
X13789000Y-17963000D01*
X13789000Y-17933000D02*
X13759000Y-17963000D01*
X13759000Y-18143000D02*
X13789000Y-18173000D01*
X13789000Y-18143000D02*
X13759000Y-18173000D01*
X13760000Y-17678000D02*
X13790000Y-17708000D01*
X13790000Y-17678000D02*
X13760000Y-17708000D01*
X13763000Y-17495000D02*
X13793000Y-17525000D01*
X13793000Y-17495000D02*
X13763000Y-17525000D01*
X13895000Y-17500000D02*
X13925000Y-17530000D01*
X13925000Y-17500000D02*
X13895000Y-17530000D01*
X13895000Y-17632000D02*
X13925000Y-17662000D01*
X13925000Y-17632000D02*
X13895000Y-17662000D01*
X13948950Y-15767450D02*
X13978950Y-15797450D01*
X13978950Y-15767450D02*
X13948950Y-15797450D01*
X14042000Y-15832400D02*
X14072000Y-15862400D01*
X14072000Y-15832400D02*
X14042000Y-15862400D01*
X14044000Y-17502000D02*
X14074000Y-17532000D01*
X14074000Y-17502000D02*
X14044000Y-17532000D01*
X14044000Y-17634000D02*
X14074000Y-17664000D01*
X14074000Y-17634000D02*
X14044000Y-17664000D01*
X14201000Y-10376950D02*
X14231000Y-10406950D01*
X14231000Y-10376950D02*
X14201000Y-10406950D01*
X14277000Y-17503000D02*
X14307000Y-17533000D01*
X14307000Y-17503000D02*
X14277000Y-17533000D01*
X14277000Y-17635000D02*
X14307000Y-17665000D01*
X14307000Y-17635000D02*
X14277000Y-17665000D01*
X14487000Y-17503000D02*
X14517000Y-17533000D01*
X14517000Y-17503000D02*
X14487000Y-17533000D01*
X14487000Y-17635000D02*
X14517000Y-17665000D01*
X14517000Y-17635000D02*
X14487000Y-17665000D01*
X14697000Y-17503000D02*
X14727000Y-17533000D01*
X14727000Y-17503000D02*
X14697000Y-17533000D01*
X14697000Y-17635000D02*
X14727000Y-17665000D01*
X14727000Y-17635000D02*
X14697000Y-17665000D01*
X14704000Y-10376950D02*
X14734000Y-10406950D01*
X14734000Y-10376950D02*
X14704000Y-10406950D01*
X14879000Y-17503000D02*
X14909000Y-17533000D01*
X14909000Y-17503000D02*
X14879000Y-17533000D01*
X14879000Y-17635000D02*
X14909000Y-17665000D01*
X14909000Y-17635000D02*
X14879000Y-17665000D01*
X14936289Y-10521900D02*
X14966289Y-10551900D01*
X14966289Y-10521900D02*
X14936289Y-10551900D01*
X15089000Y-17503000D02*
X15119000Y-17533000D01*
X15119000Y-17503000D02*
X15089000Y-17533000D01*
X15089000Y-17635000D02*
X15119000Y-17665000D01*
X15119000Y-17635000D02*
X15089000Y-17665000D01*
X15284962Y-10527938D02*
X15314962Y-10557938D01*
X15314962Y-10527938D02*
X15284962Y-10557938D01*
X15299000Y-17503000D02*
X15329000Y-17533000D01*
X15329000Y-17503000D02*
X15299000Y-17533000D01*
X15299000Y-17635000D02*
X15329000Y-17665000D01*
X15329000Y-17635000D02*
X15299000Y-17665000D01*
X15436200Y-15882412D02*
X15466200Y-15912412D01*
X15466200Y-15882412D02*
X15436200Y-15912412D01*
X15439000Y-17634000D02*
X15469000Y-17664000D01*
X15469000Y-17634000D02*
X15439000Y-17664000D01*
X15450976Y-10694024D02*
X15480976Y-10724024D01*
X15480976Y-10694024D02*
X15450976Y-10724024D01*
X15545088Y-10971912D02*
X15575088Y-11001912D01*
X15575088Y-10971912D02*
X15545088Y-11001912D01*
X15606424Y-12762600D02*
X15636424Y-12792600D01*
X15636424Y-12762600D02*
X15606424Y-12792600D01*
X15617550Y-11837500D02*
X15647550Y-11867500D01*
X15647550Y-11837500D02*
X15617550Y-11867500D01*
X15643088Y-11069912D02*
X15673088Y-11099912D01*
X15673088Y-11069912D02*
X15643088Y-11099912D01*
X15649000Y-17502000D02*
X15679000Y-17532000D01*
X15679000Y-17502000D02*
X15649000Y-17532000D01*
X15649000Y-17634000D02*
X15679000Y-17664000D01*
X15679000Y-17634000D02*
X15649000Y-17664000D01*
X15675912Y-12837450D02*
X15705912Y-12867450D01*
X15705912Y-12837450D02*
X15675912Y-12867450D01*
X15723050Y-11785050D02*
X15753050Y-11815050D01*
X15753050Y-11785050D02*
X15723050Y-11815050D01*
X15723050Y-11899000D02*
X15753050Y-11929000D01*
X15753050Y-11899000D02*
X15723050Y-11929000D01*
X15723050Y-12172000D02*
X15753050Y-12202000D01*
X15753050Y-12172000D02*
X15723050Y-12202000D01*
X15723050Y-12528000D02*
X15753050Y-12558000D01*
X15753050Y-12528000D02*
X15723050Y-12558000D01*
X15723100Y-11439000D02*
X15753100Y-11469000D01*
X15753100Y-11439000D02*
X15723100Y-11469000D01*
X15769301Y-12732550D02*
X15799301Y-12762550D01*
X15799301Y-12732550D02*
X15769301Y-12762550D01*
X15804550Y-16084950D02*
X15834550Y-16114950D01*
X15834550Y-16084950D02*
X15804550Y-16114950D01*
X15852950Y-11187000D02*
X15882950Y-11217000D01*
X15882950Y-11187000D02*
X15852950Y-11217000D01*
X15853050Y-11437000D02*
X15883050Y-11467000D01*
X15883050Y-11437000D02*
X15853050Y-11467000D01*
X15853050Y-11785050D02*
X15883050Y-11815050D01*
X15883050Y-11785050D02*
X15853050Y-11815050D01*
X15853050Y-11889950D02*
X15883050Y-11919950D01*
X15883050Y-11889950D02*
X15853050Y-11919950D01*
X15853050Y-12166000D02*
X15883050Y-12196000D01*
X15883050Y-12166000D02*
X15853050Y-12196000D01*
X15853050Y-12528000D02*
X15883050Y-12558000D01*
X15883050Y-12528000D02*
X15853050Y-12558000D01*
X15859000Y-17502000D02*
X15889000Y-17532000D01*
X15889000Y-17502000D02*
X15859000Y-17532000D01*
X15859000Y-17634000D02*
X15889000Y-17664000D01*
X15889000Y-17634000D02*
X15859000Y-17664000D01*
X15888100Y-11660380D02*
X15918100Y-11690380D01*
X15918100Y-11660380D02*
X15888100Y-11690380D01*
X15901999Y-12867450D02*
X15931999Y-12897450D01*
X15931999Y-12867450D02*
X15901999Y-12897450D01*
X15942950Y-11719000D02*
X15972950Y-11749000D01*
X15972950Y-11719000D02*
X15942950Y-11749000D01*
X15953427Y-12731573D02*
X15983427Y-12761573D01*
X15983427Y-12731573D02*
X15953427Y-12761573D01*
X15954000Y-13742500D02*
X15984000Y-13772500D01*
X15984000Y-13742500D02*
X15954000Y-13772500D01*
X15990000Y-16148000D02*
X16020000Y-16178000D01*
X16020000Y-16148000D02*
X15990000Y-16178000D01*
X15998000Y-11837500D02*
X16028000Y-11867500D01*
X16028000Y-11837500D02*
X15998000Y-11867500D01*
X16006000Y-17031000D02*
X16036000Y-17061000D01*
X16036000Y-17031000D02*
X16006000Y-17061000D01*
X16012000Y-16375000D02*
X16042000Y-16405000D01*
X16042000Y-16375000D02*
X16012000Y-16405000D01*
X16016000Y-16590000D02*
X16046000Y-16620000D01*
X16046000Y-16590000D02*
X16016000Y-16620000D01*
X16039000Y-16828000D02*
X16069000Y-16858000D01*
X16069000Y-16828000D02*
X16039000Y-16858000D01*
X16050000Y-17431000D02*
X16080000Y-17461000D01*
X16080000Y-17431000D02*
X16050000Y-17461000D01*
X16050000Y-17636000D02*
X16080000Y-17666000D01*
X16080000Y-17636000D02*
X16050000Y-17666000D01*
X16088950Y-13137000D02*
X16118950Y-13167000D01*
X16118950Y-13137000D02*
X16088950Y-13167000D01*
X16088950Y-13522000D02*
X16118950Y-13552000D01*
X16118950Y-13522000D02*
X16088950Y-13552000D01*
X16089235Y-12867450D02*
X16119235Y-12897450D01*
X16119235Y-12867450D02*
X16089235Y-12897450D01*
X16089702Y-13913248D02*
X16119702Y-13943248D01*
X16119702Y-13913248D02*
X16089702Y-13943248D01*
X16191356Y-12762550D02*
X16221356Y-12792550D01*
X16221356Y-12762550D02*
X16191356Y-12792550D01*
X16208000Y-16475000D02*
X16238000Y-16505000D01*
X16238000Y-16475000D02*
X16208000Y-16505000D01*
X16218950Y-13134000D02*
X16248950Y-13164000D01*
X16248950Y-13134000D02*
X16218950Y-13164000D01*
X16218950Y-13524000D02*
X16248950Y-13554000D01*
X16248950Y-13524000D02*
X16218950Y-13554000D01*
X16218950Y-13841573D02*
X16248950Y-13871573D01*
X16248950Y-13841573D02*
X16218950Y-13871573D01*
X16260000Y-17426000D02*
X16290000Y-17456000D01*
X16290000Y-17426000D02*
X16260000Y-17456000D01*
X16260000Y-17636000D02*
X16290000Y-17666000D01*
X16290000Y-17636000D02*
X16260000Y-17666000D01*
X16300227Y-14123773D02*
X16330227Y-14153773D01*
X16330227Y-14123773D02*
X16300227Y-14153773D01*
X16304000Y-16036000D02*
X16334000Y-16066000D01*
X16334000Y-16036000D02*
X16304000Y-16066000D01*
X16325050Y-16816450D02*
X16355050Y-16846450D01*
X16355050Y-16816450D02*
X16325050Y-16846450D01*
X16325050Y-16902000D02*
X16355050Y-16932000D01*
X16355050Y-16902000D02*
X16325050Y-16932000D01*
X16334000Y-17109000D02*
X16364000Y-17139000D01*
X16364000Y-17109000D02*
X16334000Y-17139000D01*
X16337000Y-17229000D02*
X16367000Y-17259000D01*
X16367000Y-17229000D02*
X16337000Y-17259000D01*
X16347745Y-12920034D02*
X16377745Y-12950034D01*
X16377745Y-12920034D02*
X16347745Y-12950034D01*
X16359588Y-12783412D02*
X16389588Y-12813412D01*
X16389588Y-12783412D02*
X16359588Y-12813412D01*
X16363950Y-13141000D02*
X16393950Y-13171000D01*
X16393950Y-13141000D02*
X16363950Y-13171000D01*
X16363950Y-13690050D02*
X16393950Y-13720050D01*
X16393950Y-13690050D02*
X16363950Y-13720050D01*
X16405927Y-14038073D02*
X16435927Y-14068073D01*
X16435927Y-14038073D02*
X16405927Y-14068073D01*
X16421000Y-17190000D02*
X16451000Y-17220000D01*
X16451000Y-17190000D02*
X16421000Y-17220000D01*
X16441356Y-13867644D02*
X16471356Y-13897644D01*
X16471356Y-13867644D02*
X16441356Y-13897644D01*
X16450000Y-16480000D02*
X16480000Y-16510000D01*
X16480000Y-16480000D02*
X16450000Y-16510000D01*
X16453500Y-16375500D02*
X16483500Y-16405500D01*
X16483500Y-16375500D02*
X16453500Y-16405500D01*
X16465000Y-17641000D02*
X16495000Y-17671000D01*
X16495000Y-17641000D02*
X16465000Y-17671000D01*
X16479000Y-17411000D02*
X16509000Y-17441000D01*
X16509000Y-17411000D02*
X16479000Y-17441000D01*
X16514265Y-14337810D02*
X16544265Y-14367810D01*
X16544265Y-14337810D02*
X16514265Y-14367810D01*
X16555000Y-17197000D02*
X16585000Y-17227000D01*
X16585000Y-17197000D02*
X16555000Y-17227000D01*
X16588440Y-14411985D02*
X16618440Y-14441985D01*
X16618440Y-14411985D02*
X16588440Y-14441985D01*
X16609964Y-14242110D02*
X16639964Y-14272110D01*
X16639964Y-14242110D02*
X16609964Y-14272110D01*
X16648000Y-16489000D02*
X16678000Y-16519000D01*
X16678000Y-16489000D02*
X16648000Y-16519000D01*
X16648000Y-16609000D02*
X16678000Y-16639000D01*
X16678000Y-16609000D02*
X16648000Y-16639000D01*
X16648000Y-16849000D02*
X16678000Y-16879000D01*
X16678000Y-16849000D02*
X16648000Y-16879000D01*
X16648000Y-16728999D02*
X16678000Y-16758999D01*
X16678000Y-16728999D02*
X16648000Y-16758999D01*
X16658000Y-13742500D02*
X16688000Y-13772500D01*
X16688000Y-13742500D02*
X16658000Y-13772500D01*
X16671000Y-17636000D02*
X16701000Y-17666000D01*
X16701000Y-17636000D02*
X16671000Y-17666000D01*
X16684139Y-14316286D02*
X16714139Y-14346286D01*
X16714139Y-14316286D02*
X16684139Y-14346286D01*
X16696598Y-14122887D02*
X16726598Y-14152887D01*
X16726598Y-14122887D02*
X16696598Y-14152887D01*
X16719000Y-15647500D02*
X16749000Y-15677500D01*
X16749000Y-15647500D02*
X16719000Y-15677500D01*
X16768000Y-16849000D02*
X16798000Y-16879000D01*
X16798000Y-16849000D02*
X16768000Y-16879000D01*
X16768000Y-16609000D02*
X16798000Y-16639000D01*
X16798000Y-16609000D02*
X16768000Y-16639000D01*
X16768000Y-16729000D02*
X16798000Y-16759000D01*
X16798000Y-16729000D02*
X16768000Y-16759000D01*
X16768000Y-16489000D02*
X16798000Y-16519000D01*
X16798000Y-16489000D02*
X16768000Y-16519000D01*
X16787749Y-14212599D02*
X16817749Y-14242599D01*
X16817749Y-14212599D02*
X16787749Y-14242599D01*
X16813000Y-16179000D02*
X16843000Y-16209000D01*
X16843000Y-16179000D02*
X16813000Y-16209000D01*
X16855227Y-14678773D02*
X16885227Y-14708773D01*
X16885227Y-14678773D02*
X16855227Y-14708773D01*
X16881000Y-17636000D02*
X16911000Y-17666000D01*
X16911000Y-17636000D02*
X16881000Y-17666000D01*
X16882000Y-17494000D02*
X16912000Y-17524000D01*
X16912000Y-17494000D02*
X16882000Y-17524000D01*
X16888000Y-16849000D02*
X16918000Y-16879000D01*
X16918000Y-16849000D02*
X16888000Y-16879000D01*
X16888000Y-16489000D02*
X16918000Y-16519000D01*
X16918000Y-16489000D02*
X16888000Y-16519000D01*
X16888000Y-16609000D02*
X16918000Y-16639000D01*
X16918000Y-16609000D02*
X16888000Y-16639000D01*
X16888000Y-16729000D02*
X16918000Y-16759000D01*
X16918000Y-16729000D02*
X16888000Y-16759000D01*
X16963927Y-14596073D02*
X16993927Y-14626073D01*
X16993927Y-14596073D02*
X16963927Y-14626073D01*
X17008000Y-16849000D02*
X17038000Y-16879000D01*
X17038000Y-16849000D02*
X17008000Y-16879000D01*
X17008000Y-16489000D02*
X17038000Y-16519000D01*
X17038000Y-16489000D02*
X17008000Y-16519000D01*
X17008000Y-16729000D02*
X17038000Y-16759000D01*
X17038000Y-16729000D02*
X17008000Y-16759000D01*
X17008000Y-16608999D02*
X17038000Y-16638999D01*
X17038000Y-16608999D02*
X17008000Y-16638999D01*
X17013450Y-14907178D02*
X17043450Y-14937178D01*
X17043450Y-14907178D02*
X17013450Y-14937178D01*
X17013450Y-15216000D02*
X17043450Y-15246000D01*
X17043450Y-15216000D02*
X17013450Y-15246000D01*
X17013450Y-15466000D02*
X17043450Y-15496000D01*
X17043450Y-15466000D02*
X17013450Y-15496000D01*
X17013450Y-15832400D02*
X17043450Y-15862400D01*
X17043450Y-15832400D02*
X17013450Y-15862400D01*
X17031000Y-15702450D02*
X17061000Y-15732450D01*
X17061000Y-15702450D02*
X17031000Y-15732450D01*
X17046856Y-14473144D02*
X17076856Y-14503144D01*
X17076856Y-14473144D02*
X17046856Y-14503144D01*
X17063000Y-17636000D02*
X17093000Y-17666000D01*
X17093000Y-17636000D02*
X17063000Y-17666000D01*
X17068000Y-17250000D02*
X17098000Y-17280000D01*
X17098000Y-17250000D02*
X17068000Y-17280000D01*
X17069000Y-17493000D02*
X17099000Y-17523000D01*
X17099000Y-17493000D02*
X17069000Y-17523000D01*
X17085000Y-16023000D02*
X17115000Y-16053000D01*
X17115000Y-16023000D02*
X17085000Y-16053000D01*
X17088050Y-15885450D02*
X17118050Y-15915450D01*
X17118050Y-15885450D02*
X17088050Y-15915450D01*
X17140972Y-14783558D02*
X17170972Y-14813558D01*
X17170972Y-14783558D02*
X17140972Y-14813558D01*
X17143950Y-15087000D02*
X17173950Y-15117000D01*
X17173950Y-15087000D02*
X17143950Y-15117000D01*
X17143950Y-15432111D02*
X17173950Y-15462111D01*
X17173950Y-15432111D02*
X17143950Y-15462111D01*
X17217950Y-15942950D02*
X17247950Y-15972950D01*
X17247950Y-15942950D02*
X17217950Y-15972950D01*
X17219085Y-17039915D02*
X17249085Y-17069915D01*
X17249085Y-17039915D02*
X17219085Y-17069915D01*
X17228510Y-15700440D02*
X17258510Y-15730440D01*
X17258510Y-15700440D02*
X17228510Y-15730440D01*
X17285000Y-17635000D02*
X17315000Y-17665000D01*
X17315000Y-17635000D02*
X17285000Y-17665000D01*
X17286000Y-17490000D02*
X17316000Y-17520000D01*
X17316000Y-17490000D02*
X17286000Y-17520000D01*
X17290950Y-15085000D02*
X17320950Y-15115000D01*
X17320950Y-15085000D02*
X17290950Y-15115000D01*
X17290950Y-15370644D02*
X17320950Y-15400644D01*
X17320950Y-15370644D02*
X17290950Y-15400644D01*
X17291912Y-14716088D02*
X17321912Y-14746088D01*
X17321912Y-14716088D02*
X17291912Y-14746088D01*
X17303000Y-16775050D02*
X17333000Y-16805050D01*
X17333000Y-16775050D02*
X17303000Y-16805050D01*
X17303000Y-17051050D02*
X17333000Y-17081050D01*
X17333000Y-17051050D02*
X17303000Y-17081050D01*
X17308389Y-15595050D02*
X17338389Y-15625050D01*
X17338389Y-15595050D02*
X17308389Y-15625050D01*
X17347000Y-15914000D02*
X17377000Y-15944000D01*
X17377000Y-15914000D02*
X17347000Y-15944000D01*
X17403000Y-16804000D02*
X17433000Y-16834000D01*
X17433000Y-16804000D02*
X17403000Y-16834000D01*
X17442000Y-15914000D02*
X17472000Y-15944000D01*
X17472000Y-15914000D02*
X17442000Y-15944000D01*
X17449000Y-16975000D02*
X17479000Y-17005000D01*
X17479000Y-16975000D02*
X17449000Y-17005000D01*
X17450750Y-16069000D02*
X17480750Y-16099000D01*
X17480750Y-16069000D02*
X17450750Y-16099000D01*
X17450750Y-16306000D02*
X17480750Y-16336000D01*
X17480750Y-16306000D02*
X17450750Y-16336000D01*
X17450750Y-16446000D02*
X17480750Y-16476000D01*
X17480750Y-16446000D02*
X17450750Y-16476000D01*
X17476000Y-16694000D02*
X17506000Y-16724000D01*
X17506000Y-16694000D02*
X17476000Y-16724000D01*
X17505800Y-15794093D02*
X17535800Y-15824093D01*
X17535800Y-15794093D02*
X17505800Y-15824093D01*
X17532000Y-17479000D02*
X17562000Y-17509000D01*
X17562000Y-17479000D02*
X17532000Y-17509000D01*
X17544000Y-17633000D02*
X17574000Y-17663000D01*
X17574000Y-17633000D02*
X17544000Y-17663000D01*
X17646863Y-16688687D02*
X17676863Y-16718687D01*
X17676863Y-16688687D02*
X17646863Y-16718687D01*
X17650700Y-16146000D02*
X17680700Y-16176000D01*
X17680700Y-16146000D02*
X17650700Y-16176000D01*
X17650786Y-15873814D02*
X17680786Y-15903814D01*
X17680786Y-15873814D02*
X17650786Y-15903814D01*
X17654050Y-16405000D02*
X17684050Y-16435000D01*
X17684050Y-16405000D02*
X17654050Y-16435000D01*
X17727085Y-16098465D02*
X17757085Y-16128465D01*
X17757085Y-16098465D02*
X17727085Y-16128465D01*
X17789586Y-16400397D02*
X17819586Y-16430397D01*
X17819586Y-16400397D02*
X17789586Y-16430397D01*
X17799000Y-17482000D02*
X17829000Y-17512000D01*
X17829000Y-17482000D02*
X17799000Y-17512000D01*
X17806000Y-17635000D02*
X17836000Y-17665000D01*
X17836000Y-17635000D02*
X17806000Y-17665000D01*
X17850000Y-16675000D02*
X17880000Y-16705000D01*
X17880000Y-16675000D02*
X17850000Y-16705000D01*
X17992000Y-17483000D02*
X18022000Y-17513000D01*
X18022000Y-17483000D02*
X17992000Y-17513000D01*
X17994000Y-17635000D02*
X18024000Y-17665000D01*
X18024000Y-17635000D02*
X17994000Y-17665000D01*
X18182000Y-17635000D02*
X18212000Y-17665000D01*
X18212000Y-17635000D02*
X18182000Y-17665000D01*
X18195000Y-17473000D02*
X18225000Y-17503000D01*
X18225000Y-17473000D02*
X18195000Y-17503000D01*
X18238000Y-15647500D02*
X18268000Y-15677500D01*
X18268000Y-15647500D02*
X18238000Y-15677500D01*
X18427000Y-17635000D02*
X18457000Y-17665000D01*
X18457000Y-17635000D02*
X18427000Y-17665000D01*
X18429000Y-17476000D02*
X18459000Y-17506000D01*
X18459000Y-17476000D02*
X18429000Y-17506000D01*
X18631000Y-17510000D02*
X18661000Y-17540000D01*
X18661000Y-17510000D02*
X18631000Y-17540000D01*
X18637000Y-17635000D02*
X18667000Y-17665000D01*
X18667000Y-17635000D02*
X18637000Y-17665000D01*
X18819000Y-17635000D02*
X18849000Y-17665000D01*
X18849000Y-17635000D02*
X18819000Y-17665000D01*
X18964000Y-17296000D02*
X18994000Y-17326000D01*
X18994000Y-17296000D02*
X18964000Y-17326000D01*
X19041000Y-17634000D02*
X19071000Y-17664000D01*
X19071000Y-17634000D02*
X19041000Y-17664000D01*
X19300000Y-17632000D02*
X19330000Y-17662000D01*
X19330000Y-17632000D02*
X19300000Y-17662000D01*
X19549000Y-16230000D02*
X19579000Y-16260000D01*
X19579000Y-16230000D02*
X19549000Y-16260000D01*
X19562000Y-17634000D02*
X19592000Y-17664000D01*
X19592000Y-17634000D02*
X19562000Y-17664000D01*
X19750000Y-17634000D02*
X19780000Y-17664000D01*
X19780000Y-17634000D02*
X19750000Y-17664000D01*
X19938000Y-17634000D02*
X19968000Y-17664000D01*
X19968000Y-17634000D02*
X19938000Y-17664000D01*
X20118000Y-17634000D02*
X20148000Y-17664000D01*
X20148000Y-17634000D02*
X20118000Y-17664000D01*
X20293000Y-18146000D02*
X20323000Y-18176000D01*
X20323000Y-18146000D02*
X20293000Y-18176000D01*
X20306000Y-17631950D02*
X20336000Y-17661950D01*
X20336000Y-17631950D02*
X20306000Y-17661950D01*
X20306000Y-17809000D02*
X20336000Y-17839000D01*
X20336000Y-17809000D02*
X20306000Y-17839000D01*
X20454000Y-17716000D02*
X20484000Y-17746000D01*
X20484000Y-17716000D02*
X20454000Y-17746000D01*
X20638000Y-17754000D02*
X20668000Y-17784000D01*
X20668000Y-17754000D02*
X20638000Y-17784000D01*
X20776000Y-18131000D02*
X20806000Y-18161000D01*
X20806000Y-18131000D02*
X20776000Y-18161000D01*
X20778000Y-17639000D02*
X20808000Y-17669000D01*
X20808000Y-17639000D02*
X20778000Y-17669000D01*
X20778000Y-17892000D02*
X20808000Y-17922000D01*
X20808000Y-17892000D02*
X20778000Y-17922000D01*
X21575000Y-15827550D02*
X21605000Y-15857550D01*
X21605000Y-15827550D02*
X21575000Y-15857550D01*
X24944000Y-15857550D02*
X24974000Y-15887550D01*
X24974000Y-15857550D02*
X24944000Y-15887550D01*
X29131500Y-15992450D02*
X29161500Y-16022450D01*
X29161500Y-15992450D02*
X29131500Y-16022450D01*
X31512750Y-15962450D02*
X31542750Y-15992450D01*
X31542750Y-15962450D02*
X31512750Y-15992450D01*
X32703375Y-15606000D02*
X32733375Y-15636000D01*
X32733375Y-15606000D02*
X32703375Y-15636000D01*
X16395000Y-17656000D02*
G75*
G03*
X16395000Y-17656000I-15000J0D01*
G01*
D12*
X10459500Y-12374500D02*
X10459500Y-12408500D01*
X10442500Y-12391500D02*
X10476500Y-12391500D01*
D13*
X9315142Y-9945142D02*
X9315142Y-9916858D01*
X9286858Y-9916858D01*
X9286858Y-9945142D01*
X9315142Y-9945142D01*
X9315142Y-10341142D02*
X9315142Y-10312858D01*
X9286858Y-10312858D01*
X9286858Y-10341142D01*
X9315142Y-10341142D01*
X9315142Y-11954142D02*
X9315142Y-11925858D01*
X9286858Y-11925858D01*
X9286858Y-11954142D01*
X9315142Y-11954142D01*
X9463142Y-12152642D02*
X9463142Y-12124358D01*
X9434858Y-12124358D01*
X9434858Y-12152642D01*
X9463142Y-12152642D01*
X9587142Y-12692142D02*
X9587142Y-12663858D01*
X9558858Y-12663858D01*
X9558858Y-12692142D01*
X9587142Y-12692142D01*
X9995142Y-13022142D02*
X9995142Y-12993858D01*
X9966858Y-12993858D01*
X9966858Y-13022142D01*
X9995142Y-13022142D01*
X10721142Y-15796592D02*
X10721142Y-15768308D01*
X10692858Y-15768308D01*
X10692858Y-15796592D01*
X10721142Y-15796592D01*
X10750142Y-13785142D02*
X10750142Y-13756858D01*
X10721858Y-13756858D01*
X10721858Y-13785142D01*
X10750142Y-13785142D01*
X15817142Y-11689522D02*
X15817142Y-11661237D01*
X15788858Y-11661237D01*
X15788858Y-11689522D01*
X15817142Y-11689522D01*
X17182142Y-15796592D02*
X17182142Y-15768308D01*
X17153858Y-15768308D01*
X17153858Y-15796592D01*
X17182142Y-15796592D01*
D14*
X7357046Y-14178750D02*
X7382046Y-14153750D01*
X7357046Y-14128750D01*
X7332046Y-14153750D01*
X7357046Y-14178750D01*
X7357046Y-14698750D02*
X7382046Y-14673750D01*
X7357046Y-14648750D01*
X7332046Y-14673750D01*
X7357046Y-14698750D01*
X7561250Y-14178750D02*
X7586250Y-14153750D01*
X7561250Y-14128750D01*
X7536250Y-14153750D01*
X7561250Y-14178750D01*
X7561250Y-14698750D02*
X7586250Y-14673750D01*
X7561250Y-14648750D01*
X7536250Y-14673750D01*
X7561250Y-14698750D01*
X7745098Y-14254902D02*
X7770098Y-14229902D01*
X7745098Y-14204902D01*
X7720098Y-14229902D01*
X7745098Y-14254902D01*
X7745098Y-14622598D02*
X7770098Y-14597598D01*
X7745098Y-14572598D01*
X7720098Y-14597598D01*
X7745098Y-14622598D01*
X7821250Y-14438750D02*
X7846250Y-14413750D01*
X7821250Y-14388750D01*
X7796250Y-14413750D01*
X7821250Y-14438750D01*
X9471250Y-11578750D02*
X9496250Y-11553750D01*
X9471250Y-11528750D01*
X9446250Y-11553750D01*
X9471250Y-11578750D01*
X9538615Y-11416115D02*
X9563615Y-11391115D01*
X9538615Y-11366115D01*
X9513615Y-11391115D01*
X9538615Y-11416115D01*
X9538615Y-11741385D02*
X9563615Y-11716385D01*
X9538615Y-11691385D01*
X9513615Y-11716385D01*
X9538615Y-11741385D01*
X9701250Y-11348750D02*
X9726250Y-11323750D01*
X9701250Y-11298750D01*
X9676250Y-11323750D01*
X9701250Y-11348750D01*
X9701250Y-11808750D02*
X9726250Y-11783750D01*
X9701250Y-11758750D01*
X9676250Y-11783750D01*
X9701250Y-11808750D01*
X9863885Y-11416115D02*
X9888885Y-11391115D01*
X9863885Y-11366115D01*
X9838885Y-11391115D01*
X9863885Y-11416115D01*
X9863885Y-11741385D02*
X9888885Y-11716385D01*
X9863885Y-11691385D01*
X9838885Y-11716385D01*
X9863885Y-11741385D01*
X9931250Y-11578750D02*
X9956250Y-11553750D01*
X9931250Y-11528750D01*
X9906250Y-11553750D01*
X9931250Y-11578750D01*
X19881250Y-13258750D02*
X19906250Y-13233750D01*
X19881250Y-13208750D01*
X19856250Y-13233750D01*
X19881250Y-13258750D01*
X19881250Y-13718750D02*
X19906250Y-13693750D01*
X19881250Y-13668750D01*
X19856250Y-13693750D01*
X19881250Y-13718750D01*
X20001250Y-13258750D02*
X20026250Y-13233750D01*
X20001250Y-13208750D01*
X19976250Y-13233750D01*
X20001250Y-13258750D01*
X20001250Y-13718750D02*
X20026250Y-13693750D01*
X20001250Y-13668750D01*
X19976250Y-13693750D01*
X20001250Y-13718750D01*
X20121250Y-13258750D02*
X20146250Y-13233750D01*
X20121250Y-13208750D01*
X20096250Y-13233750D01*
X20121250Y-13258750D01*
X20121250Y-13718750D02*
X20146250Y-13693750D01*
X20121250Y-13668750D01*
X20096250Y-13693750D01*
X20121250Y-13718750D01*
X26111250Y-17078750D02*
X26136250Y-17053750D01*
X26111250Y-17028750D01*
X26086250Y-17053750D01*
X26111250Y-17078750D01*
X26111250Y-17538750D02*
X26136250Y-17513750D01*
X26111250Y-17488750D01*
X26086250Y-17513750D01*
X26111250Y-17538750D01*
X26231250Y-17078750D02*
X26256250Y-17053750D01*
X26231250Y-17028750D01*
X26206250Y-17053750D01*
X26231250Y-17078750D01*
X26231250Y-17538750D02*
X26256250Y-17513750D01*
X26231250Y-17488750D01*
X26206250Y-17513750D01*
X26231250Y-17538750D01*
X26351250Y-17078750D02*
X26376250Y-17053750D01*
X26351250Y-17028750D01*
X26326250Y-17053750D01*
X26351250Y-17078750D01*
X26351250Y-17538750D02*
X26376250Y-17513750D01*
X26351250Y-17488750D01*
X26326250Y-17513750D01*
X26351250Y-17538750D01*
X33066250Y-11348750D02*
X33091250Y-11323750D01*
X33066250Y-11298750D01*
X33041250Y-11323750D01*
X33066250Y-11348750D01*
X33066250Y-11808750D02*
X33091250Y-11783750D01*
X33066250Y-11758750D01*
X33041250Y-11783750D01*
X33066250Y-11808750D01*
X33186250Y-11348750D02*
X33211250Y-11323750D01*
X33186250Y-11298750D01*
X33161250Y-11323750D01*
X33186250Y-11348750D01*
X33186250Y-11808750D02*
X33211250Y-11783750D01*
X33186250Y-11758750D01*
X33161250Y-11783750D01*
X33186250Y-11808750D01*
X33306250Y-11347050D02*
X33331250Y-11322050D01*
X33306250Y-11297050D01*
X33281250Y-11322050D01*
X33306250Y-11347050D01*
X33306250Y-11808750D02*
X33331250Y-11783750D01*
X33306250Y-11758750D01*
X33281250Y-11783750D01*
X33306250Y-11808750D01*
X35041250Y-14438750D02*
X35066250Y-14413750D01*
X35041250Y-14388750D01*
X35016250Y-14413750D01*
X35041250Y-14438750D01*
X35117402Y-14254902D02*
X35142402Y-14229902D01*
X35117402Y-14204902D01*
X35092402Y-14229902D01*
X35117402Y-14254902D01*
X35117402Y-14622598D02*
X35142402Y-14597598D01*
X35117402Y-14572598D01*
X35092402Y-14597598D01*
X35117402Y-14622598D01*
X35301250Y-14178750D02*
X35326250Y-14153750D01*
X35301250Y-14128750D01*
X35276250Y-14153750D01*
X35301250Y-14178750D01*
X35301250Y-14698750D02*
X35326250Y-14673750D01*
X35301250Y-14648750D01*
X35276250Y-14673750D01*
X35301250Y-14698750D01*
X35505454Y-14178750D02*
X35530454Y-14153750D01*
X35505454Y-14128750D01*
X35480454Y-14153750D01*
X35505454Y-14178750D01*
X35505454Y-14698750D02*
X35530454Y-14673750D01*
X35505454Y-14648750D01*
X35480454Y-14673750D01*
X35505454Y-14698750D01*
D15*
X8539000Y-8811500D02*
X8599000Y-8871500D01*
X8599000Y-8811500D02*
X8539000Y-8871500D01*
X8599000Y-8841500D02*
G75*
G03*
X8599000Y-8841500I-30000J0D01*
G01*
D10*
X8539000Y-8811500D02*
X8539000Y-8871500D01*
X8539000Y-8871500D02*
G75*
G03*
X8599000Y-8871500I30000J0D01*
G01*
X8599000Y-8871500D02*
X8599000Y-8811500D01*
X8599000Y-8811500D02*
G75*
G03*
X8539000Y-8811500I-30000J0D01*
G01*
D15*
X8539000Y-9229500D02*
X8599000Y-9289500D01*
X8599000Y-9229500D02*
X8539000Y-9289500D01*
X8599000Y-9259500D02*
G75*
G03*
X8599000Y-9259500I-30000J0D01*
G01*
D10*
X8539000Y-9204500D02*
X8539000Y-9314500D01*
X8539000Y-9314500D02*
G75*
G03*
X8599000Y-9314500I30000J0D01*
G01*
X8599000Y-9314500D02*
X8599000Y-9204500D01*
X8599000Y-9204500D02*
G75*
G03*
X8539000Y-9204500I-30000J0D01*
G01*
D15*
X9403000Y-8811500D02*
X9463000Y-8871500D01*
X9463000Y-8811500D02*
X9403000Y-8871500D01*
X9463000Y-8841500D02*
G75*
G03*
X9463000Y-8841500I-30000J0D01*
G01*
D10*
X9403000Y-8811500D02*
X9403000Y-8871500D01*
X9403000Y-8871500D02*
G75*
G03*
X9463000Y-8871500I30000J0D01*
G01*
X9463000Y-8871500D02*
X9463000Y-8811500D01*
X9463000Y-8811500D02*
G75*
G03*
X9403000Y-8811500I-30000J0D01*
G01*
D15*
X9403000Y-9229500D02*
X9463000Y-9289500D01*
X9463000Y-9229500D02*
X9403000Y-9289500D01*
X9463000Y-9259500D02*
G75*
G03*
X9463000Y-9259500I-30000J0D01*
G01*
D10*
X9403000Y-9204500D02*
X9403000Y-9314500D01*
X9403000Y-9314500D02*
G75*
G03*
X9463000Y-9314500I30000J0D01*
G01*
X9463000Y-9314500D02*
X9463000Y-9204500D01*
X9463000Y-9204500D02*
G75*
G03*
X9403000Y-9204500I-30000J0D01*
G01*
D16*
X13974000Y-10588500D02*
X14074000Y-10688500D01*
X14074000Y-10588500D02*
X13974000Y-10688500D01*
X14024000Y-10588500D02*
X14024000Y-10688500D01*
X13974000Y-10638500D02*
X14074000Y-10638500D01*
X14228000Y-10588500D02*
X14328000Y-10688500D01*
X14328000Y-10588500D02*
X14228000Y-10688500D01*
X14278000Y-10588500D02*
X14278000Y-10688500D01*
X14228000Y-10638500D02*
X14328000Y-10638500D01*
X14482000Y-10588500D02*
X14582000Y-10688500D01*
X14582000Y-10588500D02*
X14482000Y-10688500D01*
X14532000Y-10588500D02*
X14532000Y-10688500D01*
X14482000Y-10638500D02*
X14582000Y-10638500D01*
X14736000Y-10588500D02*
X14836000Y-10688500D01*
X14836000Y-10588500D02*
X14736000Y-10688500D01*
X14786000Y-10588500D02*
X14786000Y-10688500D01*
X14736000Y-10638500D02*
X14836000Y-10638500D01*
X17595000Y-16941000D02*
X17695000Y-17041000D01*
X17695000Y-16941000D02*
X17595000Y-17041000D01*
X17645000Y-16941000D02*
X17645000Y-17041000D01*
X17595000Y-16991000D02*
X17695000Y-16991000D01*
X17849000Y-16941000D02*
X17949000Y-17041000D01*
X17949000Y-16941000D02*
X17849000Y-17041000D01*
X17899000Y-16941000D02*
X17899000Y-17041000D01*
X17849000Y-16991000D02*
X17949000Y-16991000D01*
X18103000Y-16941000D02*
X18203000Y-17041000D01*
X18203000Y-16941000D02*
X18103000Y-17041000D01*
X18153000Y-16941000D02*
X18153000Y-17041000D01*
X18103000Y-16991000D02*
X18203000Y-16991000D01*
X18357000Y-16941000D02*
X18457000Y-17041000D01*
X18457000Y-16941000D02*
X18357000Y-17041000D01*
X18407000Y-16941000D02*
X18407000Y-17041000D01*
X18357000Y-16991000D02*
X18457000Y-16991000D01*
D17*
X7641750Y-9356250D02*
X7788750Y-9503250D01*
X7788750Y-9356250D02*
X7641750Y-9503250D01*
X7767223Y-9481723D02*
X7767223Y-9377777D01*
X7663277Y-9377777D01*
X7663277Y-9481723D01*
X7767223Y-9481723D01*
X7879875Y-16976250D02*
X8026875Y-17123250D01*
X8026875Y-16976250D02*
X7879875Y-17123250D01*
X8005348Y-17101723D02*
X8005348Y-16997777D01*
X7901402Y-16997777D01*
X7901402Y-17101723D01*
X8005348Y-17101723D01*
X8118000Y-11261250D02*
X8265000Y-11408250D01*
X8265000Y-11261250D02*
X8118000Y-11408250D01*
X8243473Y-11386723D02*
X8243473Y-11282777D01*
X8139527Y-11282777D01*
X8139527Y-11386723D01*
X8243473Y-11386723D01*
X8276750Y-9102250D02*
X8423750Y-9249250D01*
X8423750Y-9102250D02*
X8276750Y-9249250D01*
X8402223Y-9227723D02*
X8402223Y-9123777D01*
X8298277Y-9123777D01*
X8298277Y-9227723D01*
X8402223Y-9227723D01*
X8356125Y-13168500D02*
X8503125Y-13315500D01*
X8503125Y-13168500D02*
X8356125Y-13315500D01*
X8481598Y-13293973D02*
X8481598Y-13190027D01*
X8377652Y-13190027D01*
X8377652Y-13293973D01*
X8481598Y-13293973D01*
X8514875Y-16722250D02*
X8661875Y-16869250D01*
X8661875Y-16722250D02*
X8514875Y-16869250D01*
X8640348Y-16847723D02*
X8640348Y-16743777D01*
X8536402Y-16743777D01*
X8536402Y-16847723D01*
X8640348Y-16847723D01*
X8753000Y-11007250D02*
X8900000Y-11154250D01*
X8900000Y-11007250D02*
X8753000Y-11154250D01*
X8878473Y-11132723D02*
X8878473Y-11028777D01*
X8774527Y-11028777D01*
X8774527Y-11132723D01*
X8878473Y-11132723D01*
X8832375Y-15071250D02*
X8979375Y-15218250D01*
X8979375Y-15071250D02*
X8832375Y-15218250D01*
X8957848Y-15196723D02*
X8957848Y-15092777D01*
X8853902Y-15092777D01*
X8853902Y-15196723D01*
X8957848Y-15196723D01*
X8991125Y-12914500D02*
X9138125Y-13061500D01*
X9138125Y-12914500D02*
X8991125Y-13061500D01*
X9116598Y-13039973D02*
X9116598Y-12936027D01*
X9012652Y-12936027D01*
X9012652Y-13039973D01*
X9116598Y-13039973D01*
X9467375Y-14817250D02*
X9614375Y-14964250D01*
X9614375Y-14817250D02*
X9467375Y-14964250D01*
X9592848Y-14942723D02*
X9592848Y-14838777D01*
X9488902Y-14838777D01*
X9488902Y-14942723D01*
X9592848Y-14942723D01*
X9546750Y-9356250D02*
X9693750Y-9503250D01*
X9693750Y-9356250D02*
X9546750Y-9503250D01*
X9672223Y-9481723D02*
X9672223Y-9377777D01*
X9568277Y-9377777D01*
X9568277Y-9481723D01*
X9672223Y-9481723D01*
X10181750Y-9102250D02*
X10328750Y-9249250D01*
X10328750Y-9102250D02*
X10181750Y-9249250D01*
X10307223Y-9227723D02*
X10307223Y-9123777D01*
X10203277Y-9123777D01*
X10203277Y-9227723D01*
X10307223Y-9227723D01*
X10261125Y-16976250D02*
X10408125Y-17123250D01*
X10408125Y-16976250D02*
X10261125Y-17123250D01*
X10386598Y-17101723D02*
X10386598Y-16997777D01*
X10282652Y-16997777D01*
X10282652Y-17101723D01*
X10386598Y-17101723D01*
X10499250Y-11261250D02*
X10646250Y-11408250D01*
X10646250Y-11261250D02*
X10499250Y-11408250D01*
X10624723Y-11386723D02*
X10624723Y-11282777D01*
X10520777Y-11282777D01*
X10520777Y-11386723D01*
X10624723Y-11386723D01*
X10896125Y-16722250D02*
X11043125Y-16869250D01*
X11043125Y-16722250D02*
X10896125Y-16869250D01*
X11021598Y-16847723D02*
X11021598Y-16743777D01*
X10917652Y-16743777D01*
X10917652Y-16847723D01*
X11021598Y-16847723D01*
X10975500Y-13166250D02*
X11122500Y-13313250D01*
X11122500Y-13166250D02*
X10975500Y-13313250D01*
X11100973Y-13291723D02*
X11100973Y-13187777D01*
X10997027Y-13187777D01*
X10997027Y-13291723D01*
X11100973Y-13291723D01*
X11134250Y-11007250D02*
X11281250Y-11154250D01*
X11281250Y-11007250D02*
X11134250Y-11154250D01*
X11259723Y-11132723D02*
X11259723Y-11028777D01*
X11155777Y-11028777D01*
X11155777Y-11132723D01*
X11259723Y-11132723D01*
X11451750Y-9356250D02*
X11598750Y-9503250D01*
X11598750Y-9356250D02*
X11451750Y-9503250D01*
X11577223Y-9481723D02*
X11577223Y-9377777D01*
X11473277Y-9377777D01*
X11473277Y-9481723D01*
X11577223Y-9481723D01*
X11610500Y-12912250D02*
X11757500Y-13059250D01*
X11757500Y-12912250D02*
X11610500Y-13059250D01*
X11735973Y-13037723D02*
X11735973Y-12933777D01*
X11632027Y-12933777D01*
X11632027Y-13037723D01*
X11735973Y-13037723D01*
X11928000Y-15071250D02*
X12075000Y-15218250D01*
X12075000Y-15071250D02*
X11928000Y-15218250D01*
X12053473Y-15196723D02*
X12053473Y-15092777D01*
X11949527Y-15092777D01*
X11949527Y-15196723D01*
X12053473Y-15196723D01*
X12086750Y-9102250D02*
X12233750Y-9249250D01*
X12233750Y-9102250D02*
X12086750Y-9249250D01*
X12212223Y-9227723D02*
X12212223Y-9123777D01*
X12108277Y-9123777D01*
X12108277Y-9227723D01*
X12212223Y-9227723D01*
X12404250Y-11261250D02*
X12551250Y-11408250D01*
X12551250Y-11261250D02*
X12404250Y-11408250D01*
X12529723Y-11386723D02*
X12529723Y-11282777D01*
X12425777Y-11282777D01*
X12425777Y-11386723D01*
X12529723Y-11386723D01*
X12563000Y-14817250D02*
X12710000Y-14964250D01*
X12710000Y-14817250D02*
X12563000Y-14964250D01*
X12688473Y-14942723D02*
X12688473Y-14838777D01*
X12584527Y-14838777D01*
X12584527Y-14942723D01*
X12688473Y-14942723D01*
X12642375Y-16976250D02*
X12789375Y-17123250D01*
X12789375Y-16976250D02*
X12642375Y-17123250D01*
X12767848Y-17101723D02*
X12767848Y-16997777D01*
X12663902Y-16997777D01*
X12663902Y-17101723D01*
X12767848Y-17101723D01*
X12880500Y-13166250D02*
X13027500Y-13313250D01*
X13027500Y-13166250D02*
X12880500Y-13313250D01*
X13005973Y-13291723D02*
X13005973Y-13187777D01*
X12902027Y-13187777D01*
X12902027Y-13291723D01*
X13005973Y-13291723D01*
X13039250Y-11007250D02*
X13186250Y-11154250D01*
X13186250Y-11007250D02*
X13039250Y-11154250D01*
X13164723Y-11132723D02*
X13164723Y-11028777D01*
X13060777Y-11028777D01*
X13060777Y-11132723D01*
X13164723Y-11132723D01*
X13277375Y-16722250D02*
X13424375Y-16869250D01*
X13424375Y-16722250D02*
X13277375Y-16869250D01*
X13402848Y-16847723D02*
X13402848Y-16743777D01*
X13298902Y-16743777D01*
X13298902Y-16847723D01*
X13402848Y-16847723D01*
X13356750Y-9356250D02*
X13503750Y-9503250D01*
X13503750Y-9356250D02*
X13356750Y-9503250D01*
X13482223Y-9481723D02*
X13482223Y-9377777D01*
X13378277Y-9377777D01*
X13378277Y-9481723D01*
X13482223Y-9481723D01*
X13515500Y-12912250D02*
X13662500Y-13059250D01*
X13662500Y-12912250D02*
X13515500Y-13059250D01*
X13640973Y-13037723D02*
X13640973Y-12933777D01*
X13537027Y-12933777D01*
X13537027Y-13037723D01*
X13640973Y-13037723D01*
X13833000Y-15071250D02*
X13980000Y-15218250D01*
X13980000Y-15071250D02*
X13833000Y-15218250D01*
X13958473Y-15196723D02*
X13958473Y-15092777D01*
X13854527Y-15092777D01*
X13854527Y-15196723D01*
X13958473Y-15196723D01*
X13991750Y-9102250D02*
X14138750Y-9249250D01*
X14138750Y-9102250D02*
X13991750Y-9249250D01*
X14117223Y-9227723D02*
X14117223Y-9123777D01*
X14013277Y-9123777D01*
X14013277Y-9227723D01*
X14117223Y-9227723D01*
X14309250Y-11261250D02*
X14456250Y-11408250D01*
X14456250Y-11261250D02*
X14309250Y-11408250D01*
X14434723Y-11386723D02*
X14434723Y-11282777D01*
X14330777Y-11282777D01*
X14330777Y-11386723D01*
X14434723Y-11386723D01*
X14468000Y-14817250D02*
X14615000Y-14964250D01*
X14615000Y-14817250D02*
X14468000Y-14964250D01*
X14593473Y-14942723D02*
X14593473Y-14838777D01*
X14489527Y-14838777D01*
X14489527Y-14942723D01*
X14593473Y-14942723D01*
X14785500Y-13166250D02*
X14932500Y-13313250D01*
X14932500Y-13166250D02*
X14785500Y-13313250D01*
X14910973Y-13291723D02*
X14910973Y-13187777D01*
X14807027Y-13187777D01*
X14807027Y-13291723D01*
X14910973Y-13291723D01*
X14944250Y-11007250D02*
X15091250Y-11154250D01*
X15091250Y-11007250D02*
X14944250Y-11154250D01*
X15069723Y-11132723D02*
X15069723Y-11028777D01*
X14965777Y-11028777D01*
X14965777Y-11132723D01*
X15069723Y-11132723D01*
X15023625Y-16976250D02*
X15170625Y-17123250D01*
X15170625Y-16976250D02*
X15023625Y-17123250D01*
X15149098Y-17101723D02*
X15149098Y-16997777D01*
X15045152Y-16997777D01*
X15045152Y-17101723D01*
X15149098Y-17101723D01*
X15261750Y-9356250D02*
X15408750Y-9503250D01*
X15408750Y-9356250D02*
X15261750Y-9503250D01*
X15387223Y-9481723D02*
X15387223Y-9377777D01*
X15283277Y-9377777D01*
X15283277Y-9481723D01*
X15387223Y-9481723D01*
X15420500Y-12912250D02*
X15567500Y-13059250D01*
X15567500Y-12912250D02*
X15420500Y-13059250D01*
X15545973Y-13037723D02*
X15545973Y-12933777D01*
X15442027Y-12933777D01*
X15442027Y-13037723D01*
X15545973Y-13037723D01*
X15658625Y-16722250D02*
X15805625Y-16869250D01*
X15805625Y-16722250D02*
X15658625Y-16869250D01*
X15784098Y-16847723D02*
X15784098Y-16743777D01*
X15680152Y-16743777D01*
X15680152Y-16847723D01*
X15784098Y-16847723D01*
X15738000Y-15071250D02*
X15885000Y-15218250D01*
X15885000Y-15071250D02*
X15738000Y-15218250D01*
X15863473Y-15196723D02*
X15863473Y-15092777D01*
X15759527Y-15092777D01*
X15759527Y-15196723D01*
X15863473Y-15196723D01*
X15896750Y-9102250D02*
X16043750Y-9249250D01*
X16043750Y-9102250D02*
X15896750Y-9249250D01*
X16022223Y-9227723D02*
X16022223Y-9123777D01*
X15918277Y-9123777D01*
X15918277Y-9227723D01*
X16022223Y-9227723D01*
X16214250Y-11261250D02*
X16361250Y-11408250D01*
X16361250Y-11261250D02*
X16214250Y-11408250D01*
X16339723Y-11386723D02*
X16339723Y-11282777D01*
X16235777Y-11282777D01*
X16235777Y-11386723D01*
X16339723Y-11386723D01*
X16373000Y-14817250D02*
X16520000Y-14964250D01*
X16520000Y-14817250D02*
X16373000Y-14964250D01*
X16498473Y-14942723D02*
X16498473Y-14838777D01*
X16394527Y-14838777D01*
X16394527Y-14942723D01*
X16498473Y-14942723D01*
X16690500Y-13166250D02*
X16837500Y-13313250D01*
X16837500Y-13166250D02*
X16690500Y-13313250D01*
X16815973Y-13291723D02*
X16815973Y-13187777D01*
X16712027Y-13187777D01*
X16712027Y-13291723D01*
X16815973Y-13291723D01*
X16849250Y-11007250D02*
X16996250Y-11154250D01*
X16996250Y-11007250D02*
X16849250Y-11154250D01*
X16974723Y-11132723D02*
X16974723Y-11028777D01*
X16870777Y-11028777D01*
X16870777Y-11132723D01*
X16974723Y-11132723D01*
X17166750Y-9356250D02*
X17313750Y-9503250D01*
X17313750Y-9356250D02*
X17166750Y-9503250D01*
X17292223Y-9481723D02*
X17292223Y-9377777D01*
X17188277Y-9377777D01*
X17188277Y-9481723D01*
X17292223Y-9481723D01*
X17325500Y-12912250D02*
X17472500Y-13059250D01*
X17472500Y-12912250D02*
X17325500Y-13059250D01*
X17450973Y-13037723D02*
X17450973Y-12933777D01*
X17347027Y-12933777D01*
X17347027Y-13037723D01*
X17450973Y-13037723D01*
X17643000Y-15071250D02*
X17790000Y-15218250D01*
X17790000Y-15071250D02*
X17643000Y-15218250D01*
X17768473Y-15196723D02*
X17768473Y-15092777D01*
X17664527Y-15092777D01*
X17664527Y-15196723D01*
X17768473Y-15196723D01*
X17801750Y-9102250D02*
X17948750Y-9249250D01*
X17948750Y-9102250D02*
X17801750Y-9249250D01*
X17927223Y-9227723D02*
X17927223Y-9123777D01*
X17823277Y-9123777D01*
X17823277Y-9227723D01*
X17927223Y-9227723D01*
X18119250Y-11261250D02*
X18266250Y-11408250D01*
X18266250Y-11261250D02*
X18119250Y-11408250D01*
X18244723Y-11386723D02*
X18244723Y-11282777D01*
X18140777Y-11282777D01*
X18140777Y-11386723D01*
X18244723Y-11386723D01*
X18278000Y-14817250D02*
X18425000Y-14964250D01*
X18425000Y-14817250D02*
X18278000Y-14964250D01*
X18403473Y-14942723D02*
X18403473Y-14838777D01*
X18299527Y-14838777D01*
X18299527Y-14942723D01*
X18403473Y-14942723D01*
X18595500Y-13166250D02*
X18742500Y-13313250D01*
X18742500Y-13166250D02*
X18595500Y-13313250D01*
X18720973Y-13291723D02*
X18720973Y-13187777D01*
X18617027Y-13187777D01*
X18617027Y-13291723D01*
X18720973Y-13291723D01*
X18754250Y-11007250D02*
X18901250Y-11154250D01*
X18901250Y-11007250D02*
X18754250Y-11154250D01*
X18879723Y-11132723D02*
X18879723Y-11028777D01*
X18775777Y-11028777D01*
X18775777Y-11132723D01*
X18879723Y-11132723D01*
X18833625Y-16976250D02*
X18980625Y-17123250D01*
X18980625Y-16976250D02*
X18833625Y-17123250D01*
X18959098Y-17101723D02*
X18959098Y-16997777D01*
X18855152Y-16997777D01*
X18855152Y-17101723D01*
X18959098Y-17101723D01*
X19071750Y-9356250D02*
X19218750Y-9503250D01*
X19218750Y-9356250D02*
X19071750Y-9503250D01*
X19197223Y-9481723D02*
X19197223Y-9377777D01*
X19093277Y-9377777D01*
X19093277Y-9481723D01*
X19197223Y-9481723D01*
X19230500Y-12912250D02*
X19377500Y-13059250D01*
X19377500Y-12912250D02*
X19230500Y-13059250D01*
X19355973Y-13037723D02*
X19355973Y-12933777D01*
X19252027Y-12933777D01*
X19252027Y-13037723D01*
X19355973Y-13037723D01*
X19468625Y-16722250D02*
X19615625Y-16869250D01*
X19615625Y-16722250D02*
X19468625Y-16869250D01*
X19594098Y-16847723D02*
X19594098Y-16743777D01*
X19490152Y-16743777D01*
X19490152Y-16847723D01*
X19594098Y-16847723D01*
X19548000Y-15071250D02*
X19695000Y-15218250D01*
X19695000Y-15071250D02*
X19548000Y-15218250D01*
X19673473Y-15196723D02*
X19673473Y-15092777D01*
X19569527Y-15092777D01*
X19569527Y-15196723D01*
X19673473Y-15196723D01*
X19706750Y-9102250D02*
X19853750Y-9249250D01*
X19853750Y-9102250D02*
X19706750Y-9249250D01*
X19832223Y-9227723D02*
X19832223Y-9123777D01*
X19728277Y-9123777D01*
X19728277Y-9227723D01*
X19832223Y-9227723D01*
X19786125Y-16976250D02*
X19933125Y-17123250D01*
X19933125Y-16976250D02*
X19786125Y-17123250D01*
X19911598Y-17101723D02*
X19911598Y-16997777D01*
X19807652Y-16997777D01*
X19807652Y-17101723D01*
X19911598Y-17101723D01*
X20024250Y-11261250D02*
X20171250Y-11408250D01*
X20171250Y-11261250D02*
X20024250Y-11408250D01*
X20149723Y-11386723D02*
X20149723Y-11282777D01*
X20045777Y-11282777D01*
X20045777Y-11386723D01*
X20149723Y-11386723D01*
X20183000Y-14817250D02*
X20330000Y-14964250D01*
X20330000Y-14817250D02*
X20183000Y-14964250D01*
X20308473Y-14942723D02*
X20308473Y-14838777D01*
X20204527Y-14838777D01*
X20204527Y-14942723D01*
X20308473Y-14942723D01*
X20421125Y-16722250D02*
X20568125Y-16869250D01*
X20568125Y-16722250D02*
X20421125Y-16869250D01*
X20546598Y-16847723D02*
X20546598Y-16743777D01*
X20442652Y-16743777D01*
X20442652Y-16847723D01*
X20546598Y-16847723D01*
X20500500Y-13166250D02*
X20647500Y-13313250D01*
X20647500Y-13166250D02*
X20500500Y-13313250D01*
X20625973Y-13291723D02*
X20625973Y-13187777D01*
X20522027Y-13187777D01*
X20522027Y-13291723D01*
X20625973Y-13291723D01*
X20659250Y-11007250D02*
X20806250Y-11154250D01*
X20806250Y-11007250D02*
X20659250Y-11154250D01*
X20784723Y-11132723D02*
X20784723Y-11028777D01*
X20680777Y-11028777D01*
X20680777Y-11132723D01*
X20784723Y-11132723D01*
X20976750Y-9356250D02*
X21123750Y-9503250D01*
X21123750Y-9356250D02*
X20976750Y-9503250D01*
X21102223Y-9481723D02*
X21102223Y-9377777D01*
X20998277Y-9377777D01*
X20998277Y-9481723D01*
X21102223Y-9481723D01*
X21135500Y-12912250D02*
X21282500Y-13059250D01*
X21282500Y-12912250D02*
X21135500Y-13059250D01*
X21260973Y-13037723D02*
X21260973Y-12933777D01*
X21157027Y-12933777D01*
X21157027Y-13037723D01*
X21260973Y-13037723D01*
X21453000Y-15071250D02*
X21600000Y-15218250D01*
X21600000Y-15071250D02*
X21453000Y-15218250D01*
X21578473Y-15196723D02*
X21578473Y-15092777D01*
X21474527Y-15092777D01*
X21474527Y-15196723D01*
X21578473Y-15196723D01*
X21611750Y-9102250D02*
X21758750Y-9249250D01*
X21758750Y-9102250D02*
X21611750Y-9249250D01*
X21737223Y-9227723D02*
X21737223Y-9123777D01*
X21633277Y-9123777D01*
X21633277Y-9227723D01*
X21737223Y-9227723D01*
X21929250Y-11261250D02*
X22076250Y-11408250D01*
X22076250Y-11261250D02*
X21929250Y-11408250D01*
X22054723Y-11386723D02*
X22054723Y-11282777D01*
X21950777Y-11282777D01*
X21950777Y-11386723D01*
X22054723Y-11386723D01*
X22088000Y-14817250D02*
X22235000Y-14964250D01*
X22235000Y-14817250D02*
X22088000Y-14964250D01*
X22213473Y-14942723D02*
X22213473Y-14838777D01*
X22109527Y-14838777D01*
X22109527Y-14942723D01*
X22213473Y-14942723D01*
X22405500Y-13166250D02*
X22552500Y-13313250D01*
X22552500Y-13166250D02*
X22405500Y-13313250D01*
X22530973Y-13291723D02*
X22530973Y-13187777D01*
X22427027Y-13187777D01*
X22427027Y-13291723D01*
X22530973Y-13291723D01*
X22564250Y-11007250D02*
X22711250Y-11154250D01*
X22711250Y-11007250D02*
X22564250Y-11154250D01*
X22689723Y-11132723D02*
X22689723Y-11028777D01*
X22585777Y-11028777D01*
X22585777Y-11132723D01*
X22689723Y-11132723D01*
X22881750Y-9356250D02*
X23028750Y-9503250D01*
X23028750Y-9356250D02*
X22881750Y-9503250D01*
X23007223Y-9481723D02*
X23007223Y-9377777D01*
X22903277Y-9377777D01*
X22903277Y-9481723D01*
X23007223Y-9481723D01*
X23040500Y-12912250D02*
X23187500Y-13059250D01*
X23187500Y-12912250D02*
X23040500Y-13059250D01*
X23165973Y-13037723D02*
X23165973Y-12933777D01*
X23062027Y-12933777D01*
X23062027Y-13037723D01*
X23165973Y-13037723D01*
X23358000Y-15071250D02*
X23505000Y-15218250D01*
X23505000Y-15071250D02*
X23358000Y-15218250D01*
X23483473Y-15196723D02*
X23483473Y-15092777D01*
X23379527Y-15092777D01*
X23379527Y-15196723D01*
X23483473Y-15196723D01*
X23516750Y-9102250D02*
X23663750Y-9249250D01*
X23663750Y-9102250D02*
X23516750Y-9249250D01*
X23642223Y-9227723D02*
X23642223Y-9123777D01*
X23538277Y-9123777D01*
X23538277Y-9227723D01*
X23642223Y-9227723D01*
X23596125Y-16976250D02*
X23743125Y-17123250D01*
X23743125Y-16976250D02*
X23596125Y-17123250D01*
X23721598Y-17101723D02*
X23721598Y-16997777D01*
X23617652Y-16997777D01*
X23617652Y-17101723D01*
X23721598Y-17101723D01*
X23834250Y-11261250D02*
X23981250Y-11408250D01*
X23981250Y-11261250D02*
X23834250Y-11408250D01*
X23959723Y-11386723D02*
X23959723Y-11282777D01*
X23855777Y-11282777D01*
X23855777Y-11386723D01*
X23959723Y-11386723D01*
X23993000Y-14817250D02*
X24140000Y-14964250D01*
X24140000Y-14817250D02*
X23993000Y-14964250D01*
X24118473Y-14942723D02*
X24118473Y-14838777D01*
X24014527Y-14838777D01*
X24014527Y-14942723D01*
X24118473Y-14942723D01*
X24231125Y-16722250D02*
X24378125Y-16869250D01*
X24378125Y-16722250D02*
X24231125Y-16869250D01*
X24356598Y-16847723D02*
X24356598Y-16743777D01*
X24252652Y-16743777D01*
X24252652Y-16847723D01*
X24356598Y-16847723D01*
X24310500Y-13166250D02*
X24457500Y-13313250D01*
X24457500Y-13166250D02*
X24310500Y-13313250D01*
X24435973Y-13291723D02*
X24435973Y-13187777D01*
X24332027Y-13187777D01*
X24332027Y-13291723D01*
X24435973Y-13291723D01*
X24469250Y-11007250D02*
X24616250Y-11154250D01*
X24616250Y-11007250D02*
X24469250Y-11154250D01*
X24594723Y-11132723D02*
X24594723Y-11028777D01*
X24490777Y-11028777D01*
X24490777Y-11132723D01*
X24594723Y-11132723D01*
X24786750Y-9356250D02*
X24933750Y-9503250D01*
X24933750Y-9356250D02*
X24786750Y-9503250D01*
X24912223Y-9481723D02*
X24912223Y-9377777D01*
X24808277Y-9377777D01*
X24808277Y-9481723D01*
X24912223Y-9481723D01*
X24945500Y-12912250D02*
X25092500Y-13059250D01*
X25092500Y-12912250D02*
X24945500Y-13059250D01*
X25070973Y-13037723D02*
X25070973Y-12933777D01*
X24967027Y-12933777D01*
X24967027Y-13037723D01*
X25070973Y-13037723D01*
X25263000Y-15071250D02*
X25410000Y-15218250D01*
X25410000Y-15071250D02*
X25263000Y-15218250D01*
X25388473Y-15196723D02*
X25388473Y-15092777D01*
X25284527Y-15092777D01*
X25284527Y-15196723D01*
X25388473Y-15196723D01*
X25421750Y-9102250D02*
X25568750Y-9249250D01*
X25568750Y-9102250D02*
X25421750Y-9249250D01*
X25547223Y-9227723D02*
X25547223Y-9123777D01*
X25443277Y-9123777D01*
X25443277Y-9227723D01*
X25547223Y-9227723D01*
X25739250Y-11261250D02*
X25886250Y-11408250D01*
X25886250Y-11261250D02*
X25739250Y-11408250D01*
X25864723Y-11386723D02*
X25864723Y-11282777D01*
X25760777Y-11282777D01*
X25760777Y-11386723D01*
X25864723Y-11386723D01*
X25898000Y-14817250D02*
X26045000Y-14964250D01*
X26045000Y-14817250D02*
X25898000Y-14964250D01*
X26023473Y-14942723D02*
X26023473Y-14838777D01*
X25919527Y-14838777D01*
X25919527Y-14942723D01*
X26023473Y-14942723D01*
X26215500Y-13166250D02*
X26362500Y-13313250D01*
X26362500Y-13166250D02*
X26215500Y-13313250D01*
X26340973Y-13291723D02*
X26340973Y-13187777D01*
X26237027Y-13187777D01*
X26237027Y-13291723D01*
X26340973Y-13291723D01*
X26374250Y-11007250D02*
X26521250Y-11154250D01*
X26521250Y-11007250D02*
X26374250Y-11154250D01*
X26499723Y-11132723D02*
X26499723Y-11028777D01*
X26395777Y-11028777D01*
X26395777Y-11132723D01*
X26499723Y-11132723D01*
X26691750Y-9356250D02*
X26838750Y-9503250D01*
X26838750Y-9356250D02*
X26691750Y-9503250D01*
X26817223Y-9481723D02*
X26817223Y-9377777D01*
X26713277Y-9377777D01*
X26713277Y-9481723D01*
X26817223Y-9481723D01*
X26850500Y-12912250D02*
X26997500Y-13059250D01*
X26997500Y-12912250D02*
X26850500Y-13059250D01*
X26975973Y-13037723D02*
X26975973Y-12933777D01*
X26872027Y-12933777D01*
X26872027Y-13037723D01*
X26975973Y-13037723D01*
X26929875Y-16976250D02*
X27076875Y-17123250D01*
X27076875Y-16976250D02*
X26929875Y-17123250D01*
X27055348Y-17101723D02*
X27055348Y-16997777D01*
X26951402Y-16997777D01*
X26951402Y-17101723D01*
X27055348Y-17101723D01*
X27168000Y-15071250D02*
X27315000Y-15218250D01*
X27315000Y-15071250D02*
X27168000Y-15218250D01*
X27293473Y-15196723D02*
X27293473Y-15092777D01*
X27189527Y-15092777D01*
X27189527Y-15196723D01*
X27293473Y-15196723D01*
X27326750Y-9102250D02*
X27473750Y-9249250D01*
X27473750Y-9102250D02*
X27326750Y-9249250D01*
X27452223Y-9227723D02*
X27452223Y-9123777D01*
X27348277Y-9123777D01*
X27348277Y-9227723D01*
X27452223Y-9227723D01*
X27564875Y-16722250D02*
X27711875Y-16869250D01*
X27711875Y-16722250D02*
X27564875Y-16869250D01*
X27690348Y-16847723D02*
X27690348Y-16743777D01*
X27586402Y-16743777D01*
X27586402Y-16847723D01*
X27690348Y-16847723D01*
X27644250Y-11261250D02*
X27791250Y-11408250D01*
X27791250Y-11261250D02*
X27644250Y-11408250D01*
X27769723Y-11386723D02*
X27769723Y-11282777D01*
X27665777Y-11282777D01*
X27665777Y-11386723D01*
X27769723Y-11386723D01*
X27803000Y-14817250D02*
X27950000Y-14964250D01*
X27950000Y-14817250D02*
X27803000Y-14964250D01*
X27928473Y-14942723D02*
X27928473Y-14838777D01*
X27824527Y-14838777D01*
X27824527Y-14942723D01*
X27928473Y-14942723D01*
X28120500Y-13166250D02*
X28267500Y-13313250D01*
X28267500Y-13166250D02*
X28120500Y-13313250D01*
X28245973Y-13291723D02*
X28245973Y-13187777D01*
X28142027Y-13187777D01*
X28142027Y-13291723D01*
X28245973Y-13291723D01*
X28279250Y-11007250D02*
X28426250Y-11154250D01*
X28426250Y-11007250D02*
X28279250Y-11154250D01*
X28404723Y-11132723D02*
X28404723Y-11028777D01*
X28300777Y-11028777D01*
X28300777Y-11132723D01*
X28404723Y-11132723D01*
X28596750Y-9356250D02*
X28743750Y-9503250D01*
X28743750Y-9356250D02*
X28596750Y-9503250D01*
X28722223Y-9481723D02*
X28722223Y-9377777D01*
X28618277Y-9377777D01*
X28618277Y-9481723D01*
X28722223Y-9481723D01*
X28755500Y-12912250D02*
X28902500Y-13059250D01*
X28902500Y-12912250D02*
X28755500Y-13059250D01*
X28880973Y-13037723D02*
X28880973Y-12933777D01*
X28777027Y-12933777D01*
X28777027Y-13037723D01*
X28880973Y-13037723D01*
X29073000Y-15071250D02*
X29220000Y-15218250D01*
X29220000Y-15071250D02*
X29073000Y-15218250D01*
X29198473Y-15196723D02*
X29198473Y-15092777D01*
X29094527Y-15092777D01*
X29094527Y-15196723D01*
X29198473Y-15196723D01*
X29231750Y-9102250D02*
X29378750Y-9249250D01*
X29378750Y-9102250D02*
X29231750Y-9249250D01*
X29357223Y-9227723D02*
X29357223Y-9123777D01*
X29253277Y-9123777D01*
X29253277Y-9227723D01*
X29357223Y-9227723D01*
X29311125Y-16976250D02*
X29458125Y-17123250D01*
X29458125Y-16976250D02*
X29311125Y-17123250D01*
X29436598Y-17101723D02*
X29436598Y-16997777D01*
X29332652Y-16997777D01*
X29332652Y-17101723D01*
X29436598Y-17101723D01*
X29549250Y-11261250D02*
X29696250Y-11408250D01*
X29696250Y-11261250D02*
X29549250Y-11408250D01*
X29674723Y-11386723D02*
X29674723Y-11282777D01*
X29570777Y-11282777D01*
X29570777Y-11386723D01*
X29674723Y-11386723D01*
X29708000Y-14817250D02*
X29855000Y-14964250D01*
X29855000Y-14817250D02*
X29708000Y-14964250D01*
X29833473Y-14942723D02*
X29833473Y-14838777D01*
X29729527Y-14838777D01*
X29729527Y-14942723D01*
X29833473Y-14942723D01*
X29946125Y-16722250D02*
X30093125Y-16869250D01*
X30093125Y-16722250D02*
X29946125Y-16869250D01*
X30071598Y-16847723D02*
X30071598Y-16743777D01*
X29967652Y-16743777D01*
X29967652Y-16847723D01*
X30071598Y-16847723D01*
X30025500Y-13166250D02*
X30172500Y-13313250D01*
X30172500Y-13166250D02*
X30025500Y-13313250D01*
X30150973Y-13291723D02*
X30150973Y-13187777D01*
X30047027Y-13187777D01*
X30047027Y-13291723D01*
X30150973Y-13291723D01*
X30184250Y-11007250D02*
X30331250Y-11154250D01*
X30331250Y-11007250D02*
X30184250Y-11154250D01*
X30309723Y-11132723D02*
X30309723Y-11028777D01*
X30205777Y-11028777D01*
X30205777Y-11132723D01*
X30309723Y-11132723D01*
X30501750Y-9356250D02*
X30648750Y-9503250D01*
X30648750Y-9356250D02*
X30501750Y-9503250D01*
X30627223Y-9481723D02*
X30627223Y-9377777D01*
X30523277Y-9377777D01*
X30523277Y-9481723D01*
X30627223Y-9481723D01*
X30660500Y-12912250D02*
X30807500Y-13059250D01*
X30807500Y-12912250D02*
X30660500Y-13059250D01*
X30785973Y-13037723D02*
X30785973Y-12933777D01*
X30682027Y-12933777D01*
X30682027Y-13037723D01*
X30785973Y-13037723D01*
X31136750Y-9102250D02*
X31283750Y-9249250D01*
X31283750Y-9102250D02*
X31136750Y-9249250D01*
X31262223Y-9227723D02*
X31262223Y-9123777D01*
X31158277Y-9123777D01*
X31158277Y-9227723D01*
X31262223Y-9227723D01*
X31454250Y-11261250D02*
X31601250Y-11408250D01*
X31601250Y-11261250D02*
X31454250Y-11408250D01*
X31579723Y-11386723D02*
X31579723Y-11282777D01*
X31475777Y-11282777D01*
X31475777Y-11386723D01*
X31579723Y-11386723D01*
X31692375Y-16976250D02*
X31839375Y-17123250D01*
X31839375Y-16976250D02*
X31692375Y-17123250D01*
X31817848Y-17101723D02*
X31817848Y-16997777D01*
X31713902Y-16997777D01*
X31713902Y-17101723D01*
X31817848Y-17101723D01*
X32089250Y-11007250D02*
X32236250Y-11154250D01*
X32236250Y-11007250D02*
X32089250Y-11154250D01*
X32214723Y-11132723D02*
X32214723Y-11028777D01*
X32110777Y-11028777D01*
X32110777Y-11132723D01*
X32214723Y-11132723D01*
X32327375Y-16722250D02*
X32474375Y-16869250D01*
X32474375Y-16722250D02*
X32327375Y-16869250D01*
X32452848Y-16847723D02*
X32452848Y-16743777D01*
X32348902Y-16743777D01*
X32348902Y-16847723D01*
X32452848Y-16847723D01*
X32644875Y-15071250D02*
X32791875Y-15218250D01*
X32791875Y-15071250D02*
X32644875Y-15218250D01*
X32770348Y-15196723D02*
X32770348Y-15092777D01*
X32666402Y-15092777D01*
X32666402Y-15196723D01*
X32770348Y-15196723D01*
X33121125Y-13166250D02*
X33268125Y-13313250D01*
X33268125Y-13166250D02*
X33121125Y-13313250D01*
X33246598Y-13291723D02*
X33246598Y-13187777D01*
X33142652Y-13187777D01*
X33142652Y-13291723D01*
X33246598Y-13291723D01*
X33279875Y-14817250D02*
X33426875Y-14964250D01*
X33426875Y-14817250D02*
X33279875Y-14964250D01*
X33405348Y-14942723D02*
X33405348Y-14838777D01*
X33301402Y-14838777D01*
X33301402Y-14942723D01*
X33405348Y-14942723D01*
X33359250Y-9356250D02*
X33506250Y-9503250D01*
X33506250Y-9356250D02*
X33359250Y-9503250D01*
X33484723Y-9481723D02*
X33484723Y-9377777D01*
X33380777Y-9377777D01*
X33380777Y-9481723D01*
X33484723Y-9481723D01*
X33756125Y-12912250D02*
X33903125Y-13059250D01*
X33903125Y-12912250D02*
X33756125Y-13059250D01*
X33881598Y-13037723D02*
X33881598Y-12933777D01*
X33777652Y-12933777D01*
X33777652Y-13037723D01*
X33881598Y-13037723D01*
X33835500Y-11261250D02*
X33982500Y-11408250D01*
X33982500Y-11261250D02*
X33835500Y-11408250D01*
X33960973Y-11386723D02*
X33960973Y-11282777D01*
X33857027Y-11282777D01*
X33857027Y-11386723D01*
X33960973Y-11386723D01*
X33994250Y-9102250D02*
X34141250Y-9249250D01*
X34141250Y-9102250D02*
X33994250Y-9249250D01*
X34119723Y-9227723D02*
X34119723Y-9123777D01*
X34015777Y-9123777D01*
X34015777Y-9227723D01*
X34119723Y-9227723D01*
X34073625Y-16976250D02*
X34220625Y-17123250D01*
X34220625Y-16976250D02*
X34073625Y-17123250D01*
X34199098Y-17101723D02*
X34199098Y-16997777D01*
X34095152Y-16997777D01*
X34095152Y-17101723D01*
X34199098Y-17101723D01*
X34470500Y-11007250D02*
X34617500Y-11154250D01*
X34617500Y-11007250D02*
X34470500Y-11154250D01*
X34595973Y-11132723D02*
X34595973Y-11028777D01*
X34492027Y-11028777D01*
X34492027Y-11132723D01*
X34595973Y-11132723D01*
X34708625Y-16722250D02*
X34855625Y-16869250D01*
X34855625Y-16722250D02*
X34708625Y-16869250D01*
X34834098Y-16847723D02*
X34834098Y-16743777D01*
X34730152Y-16743777D01*
X34730152Y-16847723D01*
X34834098Y-16847723D01*
D18*
X19876282Y-13338782D02*
X20126218Y-13588718D01*
X20126218Y-13338782D02*
X19876282Y-13588718D01*
X20001250Y-13588718D02*
X20126218Y-13463750D01*
X20001250Y-13338782D01*
X19876282Y-13463750D01*
X20001250Y-13588718D01*
D10*
X19876155Y-13588718D02*
X20126345Y-13588718D01*
X20126345Y-13588718D02*
G75*
G03*
X20126345Y-13338782I0J124968D01*
G01*
X20126345Y-13338782D02*
X19876155Y-13338782D01*
X19876155Y-13338782D02*
G75*
G03*
X19876155Y-13588718I0J-124968D01*
G01*
D18*
X26106282Y-17158782D02*
X26356218Y-17408718D01*
X26356218Y-17158782D02*
X26106282Y-17408718D01*
X26231250Y-17408718D02*
X26356218Y-17283750D01*
X26231250Y-17158782D01*
X26106282Y-17283750D01*
X26231250Y-17408718D01*
D10*
X26106155Y-17408718D02*
X26356345Y-17408718D01*
X26356345Y-17408718D02*
G75*
G03*
X26356345Y-17158782I0J124968D01*
G01*
X26356345Y-17158782D02*
X26106155Y-17158782D01*
X26106155Y-17158782D02*
G75*
G03*
X26106155Y-17408718I0J-124968D01*
G01*
D18*
X33061282Y-11428782D02*
X33311218Y-11678718D01*
X33311218Y-11428782D02*
X33061282Y-11678718D01*
X33186250Y-11678718D02*
X33311218Y-11553750D01*
X33186250Y-11428782D01*
X33061282Y-11553750D01*
X33186250Y-11678718D01*
D10*
X33061155Y-11678718D02*
X33311345Y-11678718D01*
X33311345Y-11678718D02*
G75*
G03*
X33311345Y-11428782I0J124968D01*
G01*
X33311345Y-11428782D02*
X33061155Y-11428782D01*
X33061155Y-11428782D02*
G75*
G03*
X33061155Y-11678718I0J-124968D01*
G01*
D19*
X9701250Y-11428780D02*
X9701250Y-11678720D01*
X9576280Y-11553750D02*
X9826220Y-11553750D01*
X9826220Y-11553750D02*
G75*
G03*
X9826220Y-11553750I-124970J0D01*
G01*
D10*
X7427027Y-18550234D02*
X7427027Y-18350234D01*
X7427027Y-18350234D02*
X7474646Y-18350234D01*
X7474646Y-18350234D02*
X7503217Y-18359758D01*
X7503217Y-18359758D02*
X7522265Y-18378805D01*
X7522265Y-18378805D02*
X7531789Y-18397853D01*
X7531789Y-18397853D02*
X7541312Y-18435948D01*
X7541312Y-18435948D02*
X7541312Y-18464520D01*
X7541312Y-18464520D02*
X7531789Y-18502615D01*
X7531789Y-18502615D02*
X7522265Y-18521662D01*
X7522265Y-18521662D02*
X7503217Y-18540710D01*
X7503217Y-18540710D02*
X7474646Y-18550234D01*
X7474646Y-18550234D02*
X7427027Y-18550234D01*
X7627027Y-18550234D02*
X7627027Y-18416900D01*
X7627027Y-18454996D02*
X7636551Y-18435948D01*
X7636551Y-18435948D02*
X7646074Y-18426424D01*
X7646074Y-18426424D02*
X7665122Y-18416900D01*
X7665122Y-18416900D02*
X7684170Y-18416900D01*
X7750836Y-18550234D02*
X7750836Y-18416900D01*
X7750836Y-18350234D02*
X7741312Y-18359758D01*
X7741312Y-18359758D02*
X7750836Y-18369281D01*
X7750836Y-18369281D02*
X7760360Y-18359758D01*
X7760360Y-18359758D02*
X7750836Y-18350234D01*
X7750836Y-18350234D02*
X7750836Y-18369281D01*
X7874646Y-18550234D02*
X7855598Y-18540710D01*
X7855598Y-18540710D02*
X7846074Y-18521662D01*
X7846074Y-18521662D02*
X7846074Y-18350234D01*
X7979408Y-18550234D02*
X7960360Y-18540710D01*
X7960360Y-18540710D02*
X7950836Y-18521662D01*
X7950836Y-18521662D02*
X7950836Y-18350234D01*
X8207979Y-18550234D02*
X8207979Y-18350234D01*
X8207979Y-18350234D02*
X8274646Y-18493091D01*
X8274646Y-18493091D02*
X8341312Y-18350234D01*
X8341312Y-18350234D02*
X8341312Y-18550234D01*
X8522265Y-18550234D02*
X8522265Y-18445472D01*
X8522265Y-18445472D02*
X8512741Y-18426424D01*
X8512741Y-18426424D02*
X8493694Y-18416900D01*
X8493694Y-18416900D02*
X8455598Y-18416900D01*
X8455598Y-18416900D02*
X8436551Y-18426424D01*
X8522265Y-18540710D02*
X8503217Y-18550234D01*
X8503217Y-18550234D02*
X8455598Y-18550234D01*
X8455598Y-18550234D02*
X8436551Y-18540710D01*
X8436551Y-18540710D02*
X8427027Y-18521662D01*
X8427027Y-18521662D02*
X8427027Y-18502615D01*
X8427027Y-18502615D02*
X8436551Y-18483567D01*
X8436551Y-18483567D02*
X8455598Y-18474043D01*
X8455598Y-18474043D02*
X8503217Y-18474043D01*
X8503217Y-18474043D02*
X8522265Y-18464520D01*
X8617503Y-18416900D02*
X8617503Y-18616900D01*
X8617503Y-18426424D02*
X8636551Y-18416900D01*
X8636551Y-18416900D02*
X8674646Y-18416900D01*
X8674646Y-18416900D02*
X8693694Y-18426424D01*
X8693694Y-18426424D02*
X8703217Y-18435948D01*
X8703217Y-18435948D02*
X8712741Y-18454996D01*
X8712741Y-18454996D02*
X8712741Y-18512139D01*
X8712741Y-18512139D02*
X8703217Y-18531186D01*
X8703217Y-18531186D02*
X8693694Y-18540710D01*
X8693694Y-18540710D02*
X8674646Y-18550234D01*
X8674646Y-18550234D02*
X8636551Y-18550234D01*
X8636551Y-18550234D02*
X8617503Y-18540710D01*
X8798455Y-18531186D02*
X8807979Y-18540710D01*
X8807979Y-18540710D02*
X8798455Y-18550234D01*
X8798455Y-18550234D02*
X8788932Y-18540710D01*
X8788932Y-18540710D02*
X8798455Y-18531186D01*
X8798455Y-18531186D02*
X8798455Y-18550234D01*
X8798455Y-18426424D02*
X8807979Y-18435948D01*
X8807979Y-18435948D02*
X8798455Y-18445472D01*
X8798455Y-18445472D02*
X8788932Y-18435948D01*
X8788932Y-18435948D02*
X8798455Y-18426424D01*
X8798455Y-18426424D02*
X8798455Y-18445472D01*
D11*
X7136250Y-18863750D02*
X7166250Y-18893750D01*
X7166250Y-18863750D02*
X7136250Y-18893750D01*
D10*
X7465122Y-18770234D02*
X7484170Y-18770234D01*
X7484170Y-18770234D02*
X7503217Y-18779758D01*
X7503217Y-18779758D02*
X7512741Y-18789281D01*
X7512741Y-18789281D02*
X7522265Y-18808329D01*
X7522265Y-18808329D02*
X7531789Y-18846424D01*
X7531789Y-18846424D02*
X7531789Y-18894043D01*
X7531789Y-18894043D02*
X7522265Y-18932139D01*
X7522265Y-18932139D02*
X7512741Y-18951186D01*
X7512741Y-18951186D02*
X7503217Y-18960710D01*
X7503217Y-18960710D02*
X7484170Y-18970234D01*
X7484170Y-18970234D02*
X7465122Y-18970234D01*
X7465122Y-18970234D02*
X7446074Y-18960710D01*
X7446074Y-18960710D02*
X7436551Y-18951186D01*
X7436551Y-18951186D02*
X7427027Y-18932139D01*
X7427027Y-18932139D02*
X7417503Y-18894043D01*
X7417503Y-18894043D02*
X7417503Y-18846424D01*
X7417503Y-18846424D02*
X7427027Y-18808329D01*
X7427027Y-18808329D02*
X7436551Y-18789281D01*
X7436551Y-18789281D02*
X7446074Y-18779758D01*
X7446074Y-18779758D02*
X7465122Y-18770234D01*
X7617503Y-18951186D02*
X7627027Y-18960710D01*
X7627027Y-18960710D02*
X7617503Y-18970234D01*
X7617503Y-18970234D02*
X7607979Y-18960710D01*
X7607979Y-18960710D02*
X7617503Y-18951186D01*
X7617503Y-18951186D02*
X7617503Y-18970234D01*
X7693693Y-18770234D02*
X7817503Y-18770234D01*
X7817503Y-18770234D02*
X7750836Y-18846424D01*
X7750836Y-18846424D02*
X7779408Y-18846424D01*
X7779408Y-18846424D02*
X7798455Y-18855948D01*
X7798455Y-18855948D02*
X7807979Y-18865472D01*
X7807979Y-18865472D02*
X7817503Y-18884520D01*
X7817503Y-18884520D02*
X7817503Y-18932139D01*
X7817503Y-18932139D02*
X7807979Y-18951186D01*
X7807979Y-18951186D02*
X7798455Y-18960710D01*
X7798455Y-18960710D02*
X7779408Y-18970234D01*
X7779408Y-18970234D02*
X7722265Y-18970234D01*
X7722265Y-18970234D02*
X7703217Y-18960710D01*
X7703217Y-18960710D02*
X7693693Y-18951186D01*
X7941312Y-18770234D02*
X7960360Y-18770234D01*
X7960360Y-18770234D02*
X7979408Y-18779758D01*
X7979408Y-18779758D02*
X7988932Y-18789281D01*
X7988932Y-18789281D02*
X7998455Y-18808329D01*
X7998455Y-18808329D02*
X8007979Y-18846424D01*
X8007979Y-18846424D02*
X8007979Y-18894043D01*
X8007979Y-18894043D02*
X7998455Y-18932139D01*
X7998455Y-18932139D02*
X7988932Y-18951186D01*
X7988932Y-18951186D02*
X7979408Y-18960710D01*
X7979408Y-18960710D02*
X7960360Y-18970234D01*
X7960360Y-18970234D02*
X7941312Y-18970234D01*
X7941312Y-18970234D02*
X7922265Y-18960710D01*
X7922265Y-18960710D02*
X7912741Y-18951186D01*
X7912741Y-18951186D02*
X7903217Y-18932139D01*
X7903217Y-18932139D02*
X7893693Y-18894043D01*
X7893693Y-18894043D02*
X7893693Y-18846424D01*
X7893693Y-18846424D02*
X7903217Y-18808329D01*
X7903217Y-18808329D02*
X7912741Y-18789281D01*
X7912741Y-18789281D02*
X7922265Y-18779758D01*
X7922265Y-18779758D02*
X7941312Y-18770234D01*
X8131789Y-18770234D02*
X8150836Y-18770234D01*
X8150836Y-18770234D02*
X8169884Y-18779758D01*
X8169884Y-18779758D02*
X8179408Y-18789281D01*
X8179408Y-18789281D02*
X8188932Y-18808329D01*
X8188932Y-18808329D02*
X8198455Y-18846424D01*
X8198455Y-18846424D02*
X8198455Y-18894043D01*
X8198455Y-18894043D02*
X8188932Y-18932139D01*
X8188932Y-18932139D02*
X8179408Y-18951186D01*
X8179408Y-18951186D02*
X8169884Y-18960710D01*
X8169884Y-18960710D02*
X8150836Y-18970234D01*
X8150836Y-18970234D02*
X8131789Y-18970234D01*
X8131789Y-18970234D02*
X8112741Y-18960710D01*
X8112741Y-18960710D02*
X8103217Y-18951186D01*
X8103217Y-18951186D02*
X8093693Y-18932139D01*
X8093693Y-18932139D02*
X8084170Y-18894043D01*
X8084170Y-18894043D02*
X8084170Y-18846424D01*
X8084170Y-18846424D02*
X8093693Y-18808329D01*
X8093693Y-18808329D02*
X8103217Y-18789281D01*
X8103217Y-18789281D02*
X8112741Y-18779758D01*
X8112741Y-18779758D02*
X8131789Y-18770234D01*
X8284170Y-18970234D02*
X8284170Y-18836900D01*
X8284170Y-18855948D02*
X8293693Y-18846424D01*
X8293693Y-18846424D02*
X8312741Y-18836900D01*
X8312741Y-18836900D02*
X8341313Y-18836900D01*
X8341313Y-18836900D02*
X8360360Y-18846424D01*
X8360360Y-18846424D02*
X8369884Y-18865472D01*
X8369884Y-18865472D02*
X8369884Y-18970234D01*
X8369884Y-18865472D02*
X8379408Y-18846424D01*
X8379408Y-18846424D02*
X8398455Y-18836900D01*
X8398455Y-18836900D02*
X8427027Y-18836900D01*
X8427027Y-18836900D02*
X8446075Y-18846424D01*
X8446075Y-18846424D02*
X8455598Y-18865472D01*
X8455598Y-18865472D02*
X8455598Y-18970234D01*
X8550836Y-18970234D02*
X8550836Y-18836900D01*
X8550836Y-18855948D02*
X8560360Y-18846424D01*
X8560360Y-18846424D02*
X8579408Y-18836900D01*
X8579408Y-18836900D02*
X8607979Y-18836900D01*
X8607979Y-18836900D02*
X8627027Y-18846424D01*
X8627027Y-18846424D02*
X8636551Y-18865472D01*
X8636551Y-18865472D02*
X8636551Y-18970234D01*
X8636551Y-18865472D02*
X8646075Y-18846424D01*
X8646075Y-18846424D02*
X8665122Y-18836900D01*
X8665122Y-18836900D02*
X8693694Y-18836900D01*
X8693694Y-18836900D02*
X8712741Y-18846424D01*
X8712741Y-18846424D02*
X8722265Y-18865472D01*
X8722265Y-18865472D02*
X8722265Y-18970234D01*
X9112741Y-18760710D02*
X8941313Y-19017853D01*
X9369884Y-18770234D02*
X9388932Y-18770234D01*
X9388932Y-18770234D02*
X9407979Y-18779758D01*
X9407979Y-18779758D02*
X9417503Y-18789281D01*
X9417503Y-18789281D02*
X9427027Y-18808329D01*
X9427027Y-18808329D02*
X9436551Y-18846424D01*
X9436551Y-18846424D02*
X9436551Y-18894043D01*
X9436551Y-18894043D02*
X9427027Y-18932139D01*
X9427027Y-18932139D02*
X9417503Y-18951186D01*
X9417503Y-18951186D02*
X9407979Y-18960710D01*
X9407979Y-18960710D02*
X9388932Y-18970234D01*
X9388932Y-18970234D02*
X9369884Y-18970234D01*
X9369884Y-18970234D02*
X9350837Y-18960710D01*
X9350837Y-18960710D02*
X9341313Y-18951186D01*
X9341313Y-18951186D02*
X9331789Y-18932139D01*
X9331789Y-18932139D02*
X9322265Y-18894043D01*
X9322265Y-18894043D02*
X9322265Y-18846424D01*
X9322265Y-18846424D02*
X9331789Y-18808329D01*
X9331789Y-18808329D02*
X9341313Y-18789281D01*
X9341313Y-18789281D02*
X9350837Y-18779758D01*
X9350837Y-18779758D02*
X9369884Y-18770234D01*
X9522265Y-18951186D02*
X9531789Y-18960710D01*
X9531789Y-18960710D02*
X9522265Y-18970234D01*
X9522265Y-18970234D02*
X9512741Y-18960710D01*
X9512741Y-18960710D02*
X9522265Y-18951186D01*
X9522265Y-18951186D02*
X9522265Y-18970234D01*
X9655598Y-18770234D02*
X9674646Y-18770234D01*
X9674646Y-18770234D02*
X9693694Y-18779758D01*
X9693694Y-18779758D02*
X9703218Y-18789281D01*
X9703218Y-18789281D02*
X9712741Y-18808329D01*
X9712741Y-18808329D02*
X9722265Y-18846424D01*
X9722265Y-18846424D02*
X9722265Y-18894043D01*
X9722265Y-18894043D02*
X9712741Y-18932139D01*
X9712741Y-18932139D02*
X9703218Y-18951186D01*
X9703218Y-18951186D02*
X9693694Y-18960710D01*
X9693694Y-18960710D02*
X9674646Y-18970234D01*
X9674646Y-18970234D02*
X9655598Y-18970234D01*
X9655598Y-18970234D02*
X9636551Y-18960710D01*
X9636551Y-18960710D02*
X9627027Y-18951186D01*
X9627027Y-18951186D02*
X9617503Y-18932139D01*
X9617503Y-18932139D02*
X9607979Y-18894043D01*
X9607979Y-18894043D02*
X9607979Y-18846424D01*
X9607979Y-18846424D02*
X9617503Y-18808329D01*
X9617503Y-18808329D02*
X9627027Y-18789281D01*
X9627027Y-18789281D02*
X9636551Y-18779758D01*
X9636551Y-18779758D02*
X9655598Y-18770234D01*
X9912741Y-18970234D02*
X9798456Y-18970234D01*
X9855598Y-18970234D02*
X9855598Y-18770234D01*
X9855598Y-18770234D02*
X9836551Y-18798805D01*
X9836551Y-18798805D02*
X9817503Y-18817853D01*
X9817503Y-18817853D02*
X9798456Y-18827377D01*
X10103218Y-18970234D02*
X9988932Y-18970234D01*
X10046075Y-18970234D02*
X10046075Y-18770234D01*
X10046075Y-18770234D02*
X10027027Y-18798805D01*
X10027027Y-18798805D02*
X10007979Y-18817853D01*
X10007979Y-18817853D02*
X9988932Y-18827377D01*
X10217503Y-18855948D02*
X10198456Y-18846424D01*
X10198456Y-18846424D02*
X10188932Y-18836900D01*
X10188932Y-18836900D02*
X10179408Y-18817853D01*
X10179408Y-18817853D02*
X10179408Y-18808329D01*
X10179408Y-18808329D02*
X10188932Y-18789281D01*
X10188932Y-18789281D02*
X10198456Y-18779758D01*
X10198456Y-18779758D02*
X10217503Y-18770234D01*
X10217503Y-18770234D02*
X10255599Y-18770234D01*
X10255599Y-18770234D02*
X10274646Y-18779758D01*
X10274646Y-18779758D02*
X10284170Y-18789281D01*
X10284170Y-18789281D02*
X10293694Y-18808329D01*
X10293694Y-18808329D02*
X10293694Y-18817853D01*
X10293694Y-18817853D02*
X10284170Y-18836900D01*
X10284170Y-18836900D02*
X10274646Y-18846424D01*
X10274646Y-18846424D02*
X10255599Y-18855948D01*
X10255599Y-18855948D02*
X10217503Y-18855948D01*
X10217503Y-18855948D02*
X10198456Y-18865472D01*
X10198456Y-18865472D02*
X10188932Y-18874996D01*
X10188932Y-18874996D02*
X10179408Y-18894043D01*
X10179408Y-18894043D02*
X10179408Y-18932139D01*
X10179408Y-18932139D02*
X10188932Y-18951186D01*
X10188932Y-18951186D02*
X10198456Y-18960710D01*
X10198456Y-18960710D02*
X10217503Y-18970234D01*
X10217503Y-18970234D02*
X10255599Y-18970234D01*
X10255599Y-18970234D02*
X10274646Y-18960710D01*
X10274646Y-18960710D02*
X10284170Y-18951186D01*
X10284170Y-18951186D02*
X10293694Y-18932139D01*
X10293694Y-18932139D02*
X10293694Y-18894043D01*
X10293694Y-18894043D02*
X10284170Y-18874996D01*
X10284170Y-18874996D02*
X10274646Y-18865472D01*
X10274646Y-18865472D02*
X10255599Y-18855948D01*
X10369884Y-18770234D02*
X10369884Y-18808329D01*
X10446075Y-18770234D02*
X10446075Y-18808329D01*
X10741313Y-19046424D02*
X10731789Y-19036900D01*
X10731789Y-19036900D02*
X10712741Y-19008329D01*
X10712741Y-19008329D02*
X10703218Y-18989281D01*
X10703218Y-18989281D02*
X10693694Y-18960710D01*
X10693694Y-18960710D02*
X10684170Y-18913091D01*
X10684170Y-18913091D02*
X10684170Y-18874996D01*
X10684170Y-18874996D02*
X10693694Y-18827377D01*
X10693694Y-18827377D02*
X10703218Y-18798805D01*
X10703218Y-18798805D02*
X10712741Y-18779758D01*
X10712741Y-18779758D02*
X10731789Y-18751186D01*
X10731789Y-18751186D02*
X10741313Y-18741662D01*
X10807980Y-18789281D02*
X10817503Y-18779758D01*
X10817503Y-18779758D02*
X10836551Y-18770234D01*
X10836551Y-18770234D02*
X10884170Y-18770234D01*
X10884170Y-18770234D02*
X10903218Y-18779758D01*
X10903218Y-18779758D02*
X10912741Y-18789281D01*
X10912741Y-18789281D02*
X10922265Y-18808329D01*
X10922265Y-18808329D02*
X10922265Y-18827377D01*
X10922265Y-18827377D02*
X10912741Y-18855948D01*
X10912741Y-18855948D02*
X10798456Y-18970234D01*
X10798456Y-18970234D02*
X10922265Y-18970234D01*
X11093694Y-18836900D02*
X11093694Y-18970234D01*
X11046075Y-18760710D02*
X10998456Y-18903567D01*
X10998456Y-18903567D02*
X11122265Y-18903567D01*
X11293694Y-18770234D02*
X11198456Y-18770234D01*
X11198456Y-18770234D02*
X11188932Y-18865472D01*
X11188932Y-18865472D02*
X11198456Y-18855948D01*
X11198456Y-18855948D02*
X11217503Y-18846424D01*
X11217503Y-18846424D02*
X11265122Y-18846424D01*
X11265122Y-18846424D02*
X11284170Y-18855948D01*
X11284170Y-18855948D02*
X11293694Y-18865472D01*
X11293694Y-18865472D02*
X11303218Y-18884520D01*
X11303218Y-18884520D02*
X11303218Y-18932139D01*
X11303218Y-18932139D02*
X11293694Y-18951186D01*
X11293694Y-18951186D02*
X11284170Y-18960710D01*
X11284170Y-18960710D02*
X11265122Y-18970234D01*
X11265122Y-18970234D02*
X11217503Y-18970234D01*
X11217503Y-18970234D02*
X11198456Y-18960710D01*
X11198456Y-18960710D02*
X11188932Y-18951186D01*
X11541313Y-18970234D02*
X11541313Y-18770234D01*
X11627027Y-18970234D02*
X11627027Y-18865472D01*
X11627027Y-18865472D02*
X11617503Y-18846424D01*
X11617503Y-18846424D02*
X11598456Y-18836900D01*
X11598456Y-18836900D02*
X11569884Y-18836900D01*
X11569884Y-18836900D02*
X11550837Y-18846424D01*
X11550837Y-18846424D02*
X11541313Y-18855948D01*
X11750837Y-18970234D02*
X11731789Y-18960710D01*
X11731789Y-18960710D02*
X11722265Y-18951186D01*
X11722265Y-18951186D02*
X11712741Y-18932139D01*
X11712741Y-18932139D02*
X11712741Y-18874996D01*
X11712741Y-18874996D02*
X11722265Y-18855948D01*
X11722265Y-18855948D02*
X11731789Y-18846424D01*
X11731789Y-18846424D02*
X11750837Y-18836900D01*
X11750837Y-18836900D02*
X11779408Y-18836900D01*
X11779408Y-18836900D02*
X11798456Y-18846424D01*
X11798456Y-18846424D02*
X11807980Y-18855948D01*
X11807980Y-18855948D02*
X11817503Y-18874996D01*
X11817503Y-18874996D02*
X11817503Y-18932139D01*
X11817503Y-18932139D02*
X11807980Y-18951186D01*
X11807980Y-18951186D02*
X11798456Y-18960710D01*
X11798456Y-18960710D02*
X11779408Y-18970234D01*
X11779408Y-18970234D02*
X11750837Y-18970234D01*
X11931789Y-18970234D02*
X11912741Y-18960710D01*
X11912741Y-18960710D02*
X11903218Y-18941662D01*
X11903218Y-18941662D02*
X11903218Y-18770234D01*
X12084170Y-18960710D02*
X12065122Y-18970234D01*
X12065122Y-18970234D02*
X12027027Y-18970234D01*
X12027027Y-18970234D02*
X12007980Y-18960710D01*
X12007980Y-18960710D02*
X11998456Y-18941662D01*
X11998456Y-18941662D02*
X11998456Y-18865472D01*
X11998456Y-18865472D02*
X12007980Y-18846424D01*
X12007980Y-18846424D02*
X12027027Y-18836900D01*
X12027027Y-18836900D02*
X12065122Y-18836900D01*
X12065122Y-18836900D02*
X12084170Y-18846424D01*
X12084170Y-18846424D02*
X12093694Y-18865472D01*
X12093694Y-18865472D02*
X12093694Y-18884520D01*
X12093694Y-18884520D02*
X11998456Y-18903567D01*
X12169884Y-18960710D02*
X12188932Y-18970234D01*
X12188932Y-18970234D02*
X12227027Y-18970234D01*
X12227027Y-18970234D02*
X12246075Y-18960710D01*
X12246075Y-18960710D02*
X12255599Y-18941662D01*
X12255599Y-18941662D02*
X12255599Y-18932139D01*
X12255599Y-18932139D02*
X12246075Y-18913091D01*
X12246075Y-18913091D02*
X12227027Y-18903567D01*
X12227027Y-18903567D02*
X12198456Y-18903567D01*
X12198456Y-18903567D02*
X12179408Y-18894043D01*
X12179408Y-18894043D02*
X12169884Y-18874996D01*
X12169884Y-18874996D02*
X12169884Y-18865472D01*
X12169884Y-18865472D02*
X12179408Y-18846424D01*
X12179408Y-18846424D02*
X12198456Y-18836900D01*
X12198456Y-18836900D02*
X12227027Y-18836900D01*
X12227027Y-18836900D02*
X12246075Y-18846424D01*
X12322265Y-19046424D02*
X12331789Y-19036900D01*
X12331789Y-19036900D02*
X12350837Y-19008329D01*
X12350837Y-19008329D02*
X12360361Y-18989281D01*
X12360361Y-18989281D02*
X12369884Y-18960710D01*
X12369884Y-18960710D02*
X12379408Y-18913091D01*
X12379408Y-18913091D02*
X12379408Y-18874996D01*
X12379408Y-18874996D02*
X12369884Y-18827377D01*
X12369884Y-18827377D02*
X12360361Y-18798805D01*
X12360361Y-18798805D02*
X12350837Y-18779758D01*
X12350837Y-18779758D02*
X12331789Y-18751186D01*
X12331789Y-18751186D02*
X12322265Y-18741662D01*
D11*
X7166250Y-19142750D02*
G75*
G03*
X7166250Y-19142750I-15000J0D01*
G01*
D10*
X7465122Y-19034234D02*
X7484170Y-19034234D01*
X7484170Y-19034234D02*
X7503217Y-19043758D01*
X7503217Y-19043758D02*
X7512741Y-19053281D01*
X7512741Y-19053281D02*
X7522265Y-19072329D01*
X7522265Y-19072329D02*
X7531789Y-19110424D01*
X7531789Y-19110424D02*
X7531789Y-19158043D01*
X7531789Y-19158043D02*
X7522265Y-19196139D01*
X7522265Y-19196139D02*
X7512741Y-19215186D01*
X7512741Y-19215186D02*
X7503217Y-19224710D01*
X7503217Y-19224710D02*
X7484170Y-19234234D01*
X7484170Y-19234234D02*
X7465122Y-19234234D01*
X7465122Y-19234234D02*
X7446074Y-19224710D01*
X7446074Y-19224710D02*
X7436551Y-19215186D01*
X7436551Y-19215186D02*
X7427027Y-19196139D01*
X7427027Y-19196139D02*
X7417503Y-19158043D01*
X7417503Y-19158043D02*
X7417503Y-19110424D01*
X7417503Y-19110424D02*
X7427027Y-19072329D01*
X7427027Y-19072329D02*
X7436551Y-19053281D01*
X7436551Y-19053281D02*
X7446074Y-19043758D01*
X7446074Y-19043758D02*
X7465122Y-19034234D01*
X7617503Y-19215186D02*
X7627027Y-19224710D01*
X7627027Y-19224710D02*
X7617503Y-19234234D01*
X7617503Y-19234234D02*
X7607979Y-19224710D01*
X7607979Y-19224710D02*
X7617503Y-19215186D01*
X7617503Y-19215186D02*
X7617503Y-19234234D01*
X7693693Y-19034234D02*
X7817503Y-19034234D01*
X7817503Y-19034234D02*
X7750836Y-19110424D01*
X7750836Y-19110424D02*
X7779408Y-19110424D01*
X7779408Y-19110424D02*
X7798455Y-19119948D01*
X7798455Y-19119948D02*
X7807979Y-19129472D01*
X7807979Y-19129472D02*
X7817503Y-19148520D01*
X7817503Y-19148520D02*
X7817503Y-19196139D01*
X7817503Y-19196139D02*
X7807979Y-19215186D01*
X7807979Y-19215186D02*
X7798455Y-19224710D01*
X7798455Y-19224710D02*
X7779408Y-19234234D01*
X7779408Y-19234234D02*
X7722265Y-19234234D01*
X7722265Y-19234234D02*
X7703217Y-19224710D01*
X7703217Y-19224710D02*
X7693693Y-19215186D01*
X7941312Y-19034234D02*
X7960360Y-19034234D01*
X7960360Y-19034234D02*
X7979408Y-19043758D01*
X7979408Y-19043758D02*
X7988932Y-19053281D01*
X7988932Y-19053281D02*
X7998455Y-19072329D01*
X7998455Y-19072329D02*
X8007979Y-19110424D01*
X8007979Y-19110424D02*
X8007979Y-19158043D01*
X8007979Y-19158043D02*
X7998455Y-19196139D01*
X7998455Y-19196139D02*
X7988932Y-19215186D01*
X7988932Y-19215186D02*
X7979408Y-19224710D01*
X7979408Y-19224710D02*
X7960360Y-19234234D01*
X7960360Y-19234234D02*
X7941312Y-19234234D01*
X7941312Y-19234234D02*
X7922265Y-19224710D01*
X7922265Y-19224710D02*
X7912741Y-19215186D01*
X7912741Y-19215186D02*
X7903217Y-19196139D01*
X7903217Y-19196139D02*
X7893693Y-19158043D01*
X7893693Y-19158043D02*
X7893693Y-19110424D01*
X7893693Y-19110424D02*
X7903217Y-19072329D01*
X7903217Y-19072329D02*
X7912741Y-19053281D01*
X7912741Y-19053281D02*
X7922265Y-19043758D01*
X7922265Y-19043758D02*
X7941312Y-19034234D01*
X8131789Y-19034234D02*
X8150836Y-19034234D01*
X8150836Y-19034234D02*
X8169884Y-19043758D01*
X8169884Y-19043758D02*
X8179408Y-19053281D01*
X8179408Y-19053281D02*
X8188932Y-19072329D01*
X8188932Y-19072329D02*
X8198455Y-19110424D01*
X8198455Y-19110424D02*
X8198455Y-19158043D01*
X8198455Y-19158043D02*
X8188932Y-19196139D01*
X8188932Y-19196139D02*
X8179408Y-19215186D01*
X8179408Y-19215186D02*
X8169884Y-19224710D01*
X8169884Y-19224710D02*
X8150836Y-19234234D01*
X8150836Y-19234234D02*
X8131789Y-19234234D01*
X8131789Y-19234234D02*
X8112741Y-19224710D01*
X8112741Y-19224710D02*
X8103217Y-19215186D01*
X8103217Y-19215186D02*
X8093693Y-19196139D01*
X8093693Y-19196139D02*
X8084170Y-19158043D01*
X8084170Y-19158043D02*
X8084170Y-19110424D01*
X8084170Y-19110424D02*
X8093693Y-19072329D01*
X8093693Y-19072329D02*
X8103217Y-19053281D01*
X8103217Y-19053281D02*
X8112741Y-19043758D01*
X8112741Y-19043758D02*
X8131789Y-19034234D01*
X8284170Y-19234234D02*
X8284170Y-19100900D01*
X8284170Y-19119948D02*
X8293693Y-19110424D01*
X8293693Y-19110424D02*
X8312741Y-19100900D01*
X8312741Y-19100900D02*
X8341313Y-19100900D01*
X8341313Y-19100900D02*
X8360360Y-19110424D01*
X8360360Y-19110424D02*
X8369884Y-19129472D01*
X8369884Y-19129472D02*
X8369884Y-19234234D01*
X8369884Y-19129472D02*
X8379408Y-19110424D01*
X8379408Y-19110424D02*
X8398455Y-19100900D01*
X8398455Y-19100900D02*
X8427027Y-19100900D01*
X8427027Y-19100900D02*
X8446075Y-19110424D01*
X8446075Y-19110424D02*
X8455598Y-19129472D01*
X8455598Y-19129472D02*
X8455598Y-19234234D01*
X8550836Y-19234234D02*
X8550836Y-19100900D01*
X8550836Y-19119948D02*
X8560360Y-19110424D01*
X8560360Y-19110424D02*
X8579408Y-19100900D01*
X8579408Y-19100900D02*
X8607979Y-19100900D01*
X8607979Y-19100900D02*
X8627027Y-19110424D01*
X8627027Y-19110424D02*
X8636551Y-19129472D01*
X8636551Y-19129472D02*
X8636551Y-19234234D01*
X8636551Y-19129472D02*
X8646075Y-19110424D01*
X8646075Y-19110424D02*
X8665122Y-19100900D01*
X8665122Y-19100900D02*
X8693694Y-19100900D01*
X8693694Y-19100900D02*
X8712741Y-19110424D01*
X8712741Y-19110424D02*
X8722265Y-19129472D01*
X8722265Y-19129472D02*
X8722265Y-19234234D01*
X9112741Y-19024710D02*
X8941313Y-19281853D01*
X9369884Y-19034234D02*
X9388932Y-19034234D01*
X9388932Y-19034234D02*
X9407979Y-19043758D01*
X9407979Y-19043758D02*
X9417503Y-19053281D01*
X9417503Y-19053281D02*
X9427027Y-19072329D01*
X9427027Y-19072329D02*
X9436551Y-19110424D01*
X9436551Y-19110424D02*
X9436551Y-19158043D01*
X9436551Y-19158043D02*
X9427027Y-19196139D01*
X9427027Y-19196139D02*
X9417503Y-19215186D01*
X9417503Y-19215186D02*
X9407979Y-19224710D01*
X9407979Y-19224710D02*
X9388932Y-19234234D01*
X9388932Y-19234234D02*
X9369884Y-19234234D01*
X9369884Y-19234234D02*
X9350837Y-19224710D01*
X9350837Y-19224710D02*
X9341313Y-19215186D01*
X9341313Y-19215186D02*
X9331789Y-19196139D01*
X9331789Y-19196139D02*
X9322265Y-19158043D01*
X9322265Y-19158043D02*
X9322265Y-19110424D01*
X9322265Y-19110424D02*
X9331789Y-19072329D01*
X9331789Y-19072329D02*
X9341313Y-19053281D01*
X9341313Y-19053281D02*
X9350837Y-19043758D01*
X9350837Y-19043758D02*
X9369884Y-19034234D01*
X9522265Y-19215186D02*
X9531789Y-19224710D01*
X9531789Y-19224710D02*
X9522265Y-19234234D01*
X9522265Y-19234234D02*
X9512741Y-19224710D01*
X9512741Y-19224710D02*
X9522265Y-19215186D01*
X9522265Y-19215186D02*
X9522265Y-19234234D01*
X9655598Y-19034234D02*
X9674646Y-19034234D01*
X9674646Y-19034234D02*
X9693694Y-19043758D01*
X9693694Y-19043758D02*
X9703218Y-19053281D01*
X9703218Y-19053281D02*
X9712741Y-19072329D01*
X9712741Y-19072329D02*
X9722265Y-19110424D01*
X9722265Y-19110424D02*
X9722265Y-19158043D01*
X9722265Y-19158043D02*
X9712741Y-19196139D01*
X9712741Y-19196139D02*
X9703218Y-19215186D01*
X9703218Y-19215186D02*
X9693694Y-19224710D01*
X9693694Y-19224710D02*
X9674646Y-19234234D01*
X9674646Y-19234234D02*
X9655598Y-19234234D01*
X9655598Y-19234234D02*
X9636551Y-19224710D01*
X9636551Y-19224710D02*
X9627027Y-19215186D01*
X9627027Y-19215186D02*
X9617503Y-19196139D01*
X9617503Y-19196139D02*
X9607979Y-19158043D01*
X9607979Y-19158043D02*
X9607979Y-19110424D01*
X9607979Y-19110424D02*
X9617503Y-19072329D01*
X9617503Y-19072329D02*
X9627027Y-19053281D01*
X9627027Y-19053281D02*
X9636551Y-19043758D01*
X9636551Y-19043758D02*
X9655598Y-19034234D01*
X9912741Y-19234234D02*
X9798456Y-19234234D01*
X9855598Y-19234234D02*
X9855598Y-19034234D01*
X9855598Y-19034234D02*
X9836551Y-19062805D01*
X9836551Y-19062805D02*
X9817503Y-19081853D01*
X9817503Y-19081853D02*
X9798456Y-19091377D01*
X10103218Y-19234234D02*
X9988932Y-19234234D01*
X10046075Y-19234234D02*
X10046075Y-19034234D01*
X10046075Y-19034234D02*
X10027027Y-19062805D01*
X10027027Y-19062805D02*
X10007979Y-19081853D01*
X10007979Y-19081853D02*
X9988932Y-19091377D01*
X10217503Y-19119948D02*
X10198456Y-19110424D01*
X10198456Y-19110424D02*
X10188932Y-19100900D01*
X10188932Y-19100900D02*
X10179408Y-19081853D01*
X10179408Y-19081853D02*
X10179408Y-19072329D01*
X10179408Y-19072329D02*
X10188932Y-19053281D01*
X10188932Y-19053281D02*
X10198456Y-19043758D01*
X10198456Y-19043758D02*
X10217503Y-19034234D01*
X10217503Y-19034234D02*
X10255599Y-19034234D01*
X10255599Y-19034234D02*
X10274646Y-19043758D01*
X10274646Y-19043758D02*
X10284170Y-19053281D01*
X10284170Y-19053281D02*
X10293694Y-19072329D01*
X10293694Y-19072329D02*
X10293694Y-19081853D01*
X10293694Y-19081853D02*
X10284170Y-19100900D01*
X10284170Y-19100900D02*
X10274646Y-19110424D01*
X10274646Y-19110424D02*
X10255599Y-19119948D01*
X10255599Y-19119948D02*
X10217503Y-19119948D01*
X10217503Y-19119948D02*
X10198456Y-19129472D01*
X10198456Y-19129472D02*
X10188932Y-19138996D01*
X10188932Y-19138996D02*
X10179408Y-19158043D01*
X10179408Y-19158043D02*
X10179408Y-19196139D01*
X10179408Y-19196139D02*
X10188932Y-19215186D01*
X10188932Y-19215186D02*
X10198456Y-19224710D01*
X10198456Y-19224710D02*
X10217503Y-19234234D01*
X10217503Y-19234234D02*
X10255599Y-19234234D01*
X10255599Y-19234234D02*
X10274646Y-19224710D01*
X10274646Y-19224710D02*
X10284170Y-19215186D01*
X10284170Y-19215186D02*
X10293694Y-19196139D01*
X10293694Y-19196139D02*
X10293694Y-19158043D01*
X10293694Y-19158043D02*
X10284170Y-19138996D01*
X10284170Y-19138996D02*
X10274646Y-19129472D01*
X10274646Y-19129472D02*
X10255599Y-19119948D01*
X10369884Y-19034234D02*
X10369884Y-19072329D01*
X10446075Y-19034234D02*
X10446075Y-19072329D01*
X10741313Y-19310424D02*
X10731789Y-19300900D01*
X10731789Y-19300900D02*
X10712741Y-19272329D01*
X10712741Y-19272329D02*
X10703218Y-19253281D01*
X10703218Y-19253281D02*
X10693694Y-19224710D01*
X10693694Y-19224710D02*
X10684170Y-19177091D01*
X10684170Y-19177091D02*
X10684170Y-19138996D01*
X10684170Y-19138996D02*
X10693694Y-19091377D01*
X10693694Y-19091377D02*
X10703218Y-19062805D01*
X10703218Y-19062805D02*
X10712741Y-19043758D01*
X10712741Y-19043758D02*
X10731789Y-19015186D01*
X10731789Y-19015186D02*
X10741313Y-19005662D01*
X10922265Y-19234234D02*
X10807980Y-19234234D01*
X10865122Y-19234234D02*
X10865122Y-19034234D01*
X10865122Y-19034234D02*
X10846075Y-19062805D01*
X10846075Y-19062805D02*
X10827027Y-19081853D01*
X10827027Y-19081853D02*
X10807980Y-19091377D01*
X11160361Y-19234234D02*
X11160361Y-19034234D01*
X11246075Y-19234234D02*
X11246075Y-19129472D01*
X11246075Y-19129472D02*
X11236551Y-19110424D01*
X11236551Y-19110424D02*
X11217503Y-19100900D01*
X11217503Y-19100900D02*
X11188932Y-19100900D01*
X11188932Y-19100900D02*
X11169884Y-19110424D01*
X11169884Y-19110424D02*
X11160361Y-19119948D01*
X11369884Y-19234234D02*
X11350837Y-19224710D01*
X11350837Y-19224710D02*
X11341313Y-19215186D01*
X11341313Y-19215186D02*
X11331789Y-19196139D01*
X11331789Y-19196139D02*
X11331789Y-19138996D01*
X11331789Y-19138996D02*
X11341313Y-19119948D01*
X11341313Y-19119948D02*
X11350837Y-19110424D01*
X11350837Y-19110424D02*
X11369884Y-19100900D01*
X11369884Y-19100900D02*
X11398456Y-19100900D01*
X11398456Y-19100900D02*
X11417503Y-19110424D01*
X11417503Y-19110424D02*
X11427027Y-19119948D01*
X11427027Y-19119948D02*
X11436551Y-19138996D01*
X11436551Y-19138996D02*
X11436551Y-19196139D01*
X11436551Y-19196139D02*
X11427027Y-19215186D01*
X11427027Y-19215186D02*
X11417503Y-19224710D01*
X11417503Y-19224710D02*
X11398456Y-19234234D01*
X11398456Y-19234234D02*
X11369884Y-19234234D01*
X11550837Y-19234234D02*
X11531789Y-19224710D01*
X11531789Y-19224710D02*
X11522265Y-19205662D01*
X11522265Y-19205662D02*
X11522265Y-19034234D01*
X11703218Y-19224710D02*
X11684170Y-19234234D01*
X11684170Y-19234234D02*
X11646075Y-19234234D01*
X11646075Y-19234234D02*
X11627027Y-19224710D01*
X11627027Y-19224710D02*
X11617503Y-19205662D01*
X11617503Y-19205662D02*
X11617503Y-19129472D01*
X11617503Y-19129472D02*
X11627027Y-19110424D01*
X11627027Y-19110424D02*
X11646075Y-19100900D01*
X11646075Y-19100900D02*
X11684170Y-19100900D01*
X11684170Y-19100900D02*
X11703218Y-19110424D01*
X11703218Y-19110424D02*
X11712741Y-19129472D01*
X11712741Y-19129472D02*
X11712741Y-19148520D01*
X11712741Y-19148520D02*
X11617503Y-19167567D01*
X11779408Y-19310424D02*
X11788932Y-19300900D01*
X11788932Y-19300900D02*
X11807980Y-19272329D01*
X11807980Y-19272329D02*
X11817503Y-19253281D01*
X11817503Y-19253281D02*
X11827027Y-19224710D01*
X11827027Y-19224710D02*
X11836551Y-19177091D01*
X11836551Y-19177091D02*
X11836551Y-19138996D01*
X11836551Y-19138996D02*
X11827027Y-19091377D01*
X11827027Y-19091377D02*
X11817503Y-19062805D01*
X11817503Y-19062805D02*
X11807980Y-19043758D01*
X11807980Y-19043758D02*
X11788932Y-19015186D01*
X11788932Y-19015186D02*
X11779408Y-19005662D01*
D12*
X7149250Y-19389750D02*
X7149250Y-19423750D01*
X7132250Y-19406750D02*
X7166250Y-19406750D01*
D10*
X7465122Y-19298234D02*
X7484170Y-19298234D01*
X7484170Y-19298234D02*
X7503217Y-19307758D01*
X7503217Y-19307758D02*
X7512741Y-19317281D01*
X7512741Y-19317281D02*
X7522265Y-19336329D01*
X7522265Y-19336329D02*
X7531789Y-19374424D01*
X7531789Y-19374424D02*
X7531789Y-19422043D01*
X7531789Y-19422043D02*
X7522265Y-19460139D01*
X7522265Y-19460139D02*
X7512741Y-19479186D01*
X7512741Y-19479186D02*
X7503217Y-19488710D01*
X7503217Y-19488710D02*
X7484170Y-19498234D01*
X7484170Y-19498234D02*
X7465122Y-19498234D01*
X7465122Y-19498234D02*
X7446074Y-19488710D01*
X7446074Y-19488710D02*
X7436551Y-19479186D01*
X7436551Y-19479186D02*
X7427027Y-19460139D01*
X7427027Y-19460139D02*
X7417503Y-19422043D01*
X7417503Y-19422043D02*
X7417503Y-19374424D01*
X7417503Y-19374424D02*
X7427027Y-19336329D01*
X7427027Y-19336329D02*
X7436551Y-19317281D01*
X7436551Y-19317281D02*
X7446074Y-19307758D01*
X7446074Y-19307758D02*
X7465122Y-19298234D01*
X7617503Y-19479186D02*
X7627027Y-19488710D01*
X7627027Y-19488710D02*
X7617503Y-19498234D01*
X7617503Y-19498234D02*
X7607979Y-19488710D01*
X7607979Y-19488710D02*
X7617503Y-19479186D01*
X7617503Y-19479186D02*
X7617503Y-19498234D01*
X7693693Y-19298234D02*
X7817503Y-19298234D01*
X7817503Y-19298234D02*
X7750836Y-19374424D01*
X7750836Y-19374424D02*
X7779408Y-19374424D01*
X7779408Y-19374424D02*
X7798455Y-19383948D01*
X7798455Y-19383948D02*
X7807979Y-19393472D01*
X7807979Y-19393472D02*
X7817503Y-19412520D01*
X7817503Y-19412520D02*
X7817503Y-19460139D01*
X7817503Y-19460139D02*
X7807979Y-19479186D01*
X7807979Y-19479186D02*
X7798455Y-19488710D01*
X7798455Y-19488710D02*
X7779408Y-19498234D01*
X7779408Y-19498234D02*
X7722265Y-19498234D01*
X7722265Y-19498234D02*
X7703217Y-19488710D01*
X7703217Y-19488710D02*
X7693693Y-19479186D01*
X7988932Y-19364900D02*
X7988932Y-19498234D01*
X7941312Y-19288710D02*
X7893693Y-19431567D01*
X7893693Y-19431567D02*
X8017503Y-19431567D01*
X8131789Y-19298234D02*
X8150836Y-19298234D01*
X8150836Y-19298234D02*
X8169884Y-19307758D01*
X8169884Y-19307758D02*
X8179408Y-19317281D01*
X8179408Y-19317281D02*
X8188932Y-19336329D01*
X8188932Y-19336329D02*
X8198455Y-19374424D01*
X8198455Y-19374424D02*
X8198455Y-19422043D01*
X8198455Y-19422043D02*
X8188932Y-19460139D01*
X8188932Y-19460139D02*
X8179408Y-19479186D01*
X8179408Y-19479186D02*
X8169884Y-19488710D01*
X8169884Y-19488710D02*
X8150836Y-19498234D01*
X8150836Y-19498234D02*
X8131789Y-19498234D01*
X8131789Y-19498234D02*
X8112741Y-19488710D01*
X8112741Y-19488710D02*
X8103217Y-19479186D01*
X8103217Y-19479186D02*
X8093693Y-19460139D01*
X8093693Y-19460139D02*
X8084170Y-19422043D01*
X8084170Y-19422043D02*
X8084170Y-19374424D01*
X8084170Y-19374424D02*
X8093693Y-19336329D01*
X8093693Y-19336329D02*
X8103217Y-19317281D01*
X8103217Y-19317281D02*
X8112741Y-19307758D01*
X8112741Y-19307758D02*
X8131789Y-19298234D01*
X8284170Y-19498234D02*
X8284170Y-19364900D01*
X8284170Y-19383948D02*
X8293693Y-19374424D01*
X8293693Y-19374424D02*
X8312741Y-19364900D01*
X8312741Y-19364900D02*
X8341313Y-19364900D01*
X8341313Y-19364900D02*
X8360360Y-19374424D01*
X8360360Y-19374424D02*
X8369884Y-19393472D01*
X8369884Y-19393472D02*
X8369884Y-19498234D01*
X8369884Y-19393472D02*
X8379408Y-19374424D01*
X8379408Y-19374424D02*
X8398455Y-19364900D01*
X8398455Y-19364900D02*
X8427027Y-19364900D01*
X8427027Y-19364900D02*
X8446075Y-19374424D01*
X8446075Y-19374424D02*
X8455598Y-19393472D01*
X8455598Y-19393472D02*
X8455598Y-19498234D01*
X8550836Y-19498234D02*
X8550836Y-19364900D01*
X8550836Y-19383948D02*
X8560360Y-19374424D01*
X8560360Y-19374424D02*
X8579408Y-19364900D01*
X8579408Y-19364900D02*
X8607979Y-19364900D01*
X8607979Y-19364900D02*
X8627027Y-19374424D01*
X8627027Y-19374424D02*
X8636551Y-19393472D01*
X8636551Y-19393472D02*
X8636551Y-19498234D01*
X8636551Y-19393472D02*
X8646075Y-19374424D01*
X8646075Y-19374424D02*
X8665122Y-19364900D01*
X8665122Y-19364900D02*
X8693694Y-19364900D01*
X8693694Y-19364900D02*
X8712741Y-19374424D01*
X8712741Y-19374424D02*
X8722265Y-19393472D01*
X8722265Y-19393472D02*
X8722265Y-19498234D01*
X9112741Y-19288710D02*
X8941313Y-19545853D01*
X9369884Y-19298234D02*
X9388932Y-19298234D01*
X9388932Y-19298234D02*
X9407979Y-19307758D01*
X9407979Y-19307758D02*
X9417503Y-19317281D01*
X9417503Y-19317281D02*
X9427027Y-19336329D01*
X9427027Y-19336329D02*
X9436551Y-19374424D01*
X9436551Y-19374424D02*
X9436551Y-19422043D01*
X9436551Y-19422043D02*
X9427027Y-19460139D01*
X9427027Y-19460139D02*
X9417503Y-19479186D01*
X9417503Y-19479186D02*
X9407979Y-19488710D01*
X9407979Y-19488710D02*
X9388932Y-19498234D01*
X9388932Y-19498234D02*
X9369884Y-19498234D01*
X9369884Y-19498234D02*
X9350837Y-19488710D01*
X9350837Y-19488710D02*
X9341313Y-19479186D01*
X9341313Y-19479186D02*
X9331789Y-19460139D01*
X9331789Y-19460139D02*
X9322265Y-19422043D01*
X9322265Y-19422043D02*
X9322265Y-19374424D01*
X9322265Y-19374424D02*
X9331789Y-19336329D01*
X9331789Y-19336329D02*
X9341313Y-19317281D01*
X9341313Y-19317281D02*
X9350837Y-19307758D01*
X9350837Y-19307758D02*
X9369884Y-19298234D01*
X9522265Y-19479186D02*
X9531789Y-19488710D01*
X9531789Y-19488710D02*
X9522265Y-19498234D01*
X9522265Y-19498234D02*
X9512741Y-19488710D01*
X9512741Y-19488710D02*
X9522265Y-19479186D01*
X9522265Y-19479186D02*
X9522265Y-19498234D01*
X9655598Y-19298234D02*
X9674646Y-19298234D01*
X9674646Y-19298234D02*
X9693694Y-19307758D01*
X9693694Y-19307758D02*
X9703218Y-19317281D01*
X9703218Y-19317281D02*
X9712741Y-19336329D01*
X9712741Y-19336329D02*
X9722265Y-19374424D01*
X9722265Y-19374424D02*
X9722265Y-19422043D01*
X9722265Y-19422043D02*
X9712741Y-19460139D01*
X9712741Y-19460139D02*
X9703218Y-19479186D01*
X9703218Y-19479186D02*
X9693694Y-19488710D01*
X9693694Y-19488710D02*
X9674646Y-19498234D01*
X9674646Y-19498234D02*
X9655598Y-19498234D01*
X9655598Y-19498234D02*
X9636551Y-19488710D01*
X9636551Y-19488710D02*
X9627027Y-19479186D01*
X9627027Y-19479186D02*
X9617503Y-19460139D01*
X9617503Y-19460139D02*
X9607979Y-19422043D01*
X9607979Y-19422043D02*
X9607979Y-19374424D01*
X9607979Y-19374424D02*
X9617503Y-19336329D01*
X9617503Y-19336329D02*
X9627027Y-19317281D01*
X9627027Y-19317281D02*
X9636551Y-19307758D01*
X9636551Y-19307758D02*
X9655598Y-19298234D01*
X9912741Y-19498234D02*
X9798456Y-19498234D01*
X9855598Y-19498234D02*
X9855598Y-19298234D01*
X9855598Y-19298234D02*
X9836551Y-19326805D01*
X9836551Y-19326805D02*
X9817503Y-19345853D01*
X9817503Y-19345853D02*
X9798456Y-19355377D01*
X9979408Y-19298234D02*
X10103218Y-19298234D01*
X10103218Y-19298234D02*
X10036551Y-19374424D01*
X10036551Y-19374424D02*
X10065122Y-19374424D01*
X10065122Y-19374424D02*
X10084170Y-19383948D01*
X10084170Y-19383948D02*
X10093694Y-19393472D01*
X10093694Y-19393472D02*
X10103218Y-19412520D01*
X10103218Y-19412520D02*
X10103218Y-19460139D01*
X10103218Y-19460139D02*
X10093694Y-19479186D01*
X10093694Y-19479186D02*
X10084170Y-19488710D01*
X10084170Y-19488710D02*
X10065122Y-19498234D01*
X10065122Y-19498234D02*
X10007979Y-19498234D01*
X10007979Y-19498234D02*
X9988932Y-19488710D01*
X9988932Y-19488710D02*
X9979408Y-19479186D01*
X10274646Y-19364900D02*
X10274646Y-19498234D01*
X10227027Y-19288710D02*
X10179408Y-19431567D01*
X10179408Y-19431567D02*
X10303218Y-19431567D01*
X10369884Y-19298234D02*
X10369884Y-19336329D01*
X10446075Y-19298234D02*
X10446075Y-19336329D01*
X10741313Y-19574424D02*
X10731789Y-19564900D01*
X10731789Y-19564900D02*
X10712741Y-19536329D01*
X10712741Y-19536329D02*
X10703218Y-19517281D01*
X10703218Y-19517281D02*
X10693694Y-19488710D01*
X10693694Y-19488710D02*
X10684170Y-19441091D01*
X10684170Y-19441091D02*
X10684170Y-19402996D01*
X10684170Y-19402996D02*
X10693694Y-19355377D01*
X10693694Y-19355377D02*
X10703218Y-19326805D01*
X10703218Y-19326805D02*
X10712741Y-19307758D01*
X10712741Y-19307758D02*
X10731789Y-19279186D01*
X10731789Y-19279186D02*
X10741313Y-19269662D01*
X10922265Y-19498234D02*
X10807980Y-19498234D01*
X10865122Y-19498234D02*
X10865122Y-19298234D01*
X10865122Y-19298234D02*
X10846075Y-19326805D01*
X10846075Y-19326805D02*
X10827027Y-19345853D01*
X10827027Y-19345853D02*
X10807980Y-19355377D01*
X11160361Y-19498234D02*
X11160361Y-19298234D01*
X11246075Y-19498234D02*
X11246075Y-19393472D01*
X11246075Y-19393472D02*
X11236551Y-19374424D01*
X11236551Y-19374424D02*
X11217503Y-19364900D01*
X11217503Y-19364900D02*
X11188932Y-19364900D01*
X11188932Y-19364900D02*
X11169884Y-19374424D01*
X11169884Y-19374424D02*
X11160361Y-19383948D01*
X11369884Y-19498234D02*
X11350837Y-19488710D01*
X11350837Y-19488710D02*
X11341313Y-19479186D01*
X11341313Y-19479186D02*
X11331789Y-19460139D01*
X11331789Y-19460139D02*
X11331789Y-19402996D01*
X11331789Y-19402996D02*
X11341313Y-19383948D01*
X11341313Y-19383948D02*
X11350837Y-19374424D01*
X11350837Y-19374424D02*
X11369884Y-19364900D01*
X11369884Y-19364900D02*
X11398456Y-19364900D01*
X11398456Y-19364900D02*
X11417503Y-19374424D01*
X11417503Y-19374424D02*
X11427027Y-19383948D01*
X11427027Y-19383948D02*
X11436551Y-19402996D01*
X11436551Y-19402996D02*
X11436551Y-19460139D01*
X11436551Y-19460139D02*
X11427027Y-19479186D01*
X11427027Y-19479186D02*
X11417503Y-19488710D01*
X11417503Y-19488710D02*
X11398456Y-19498234D01*
X11398456Y-19498234D02*
X11369884Y-19498234D01*
X11550837Y-19498234D02*
X11531789Y-19488710D01*
X11531789Y-19488710D02*
X11522265Y-19469662D01*
X11522265Y-19469662D02*
X11522265Y-19298234D01*
X11703218Y-19488710D02*
X11684170Y-19498234D01*
X11684170Y-19498234D02*
X11646075Y-19498234D01*
X11646075Y-19498234D02*
X11627027Y-19488710D01*
X11627027Y-19488710D02*
X11617503Y-19469662D01*
X11617503Y-19469662D02*
X11617503Y-19393472D01*
X11617503Y-19393472D02*
X11627027Y-19374424D01*
X11627027Y-19374424D02*
X11646075Y-19364900D01*
X11646075Y-19364900D02*
X11684170Y-19364900D01*
X11684170Y-19364900D02*
X11703218Y-19374424D01*
X11703218Y-19374424D02*
X11712741Y-19393472D01*
X11712741Y-19393472D02*
X11712741Y-19412520D01*
X11712741Y-19412520D02*
X11617503Y-19431567D01*
X11779408Y-19574424D02*
X11788932Y-19564900D01*
X11788932Y-19564900D02*
X11807980Y-19536329D01*
X11807980Y-19536329D02*
X11817503Y-19517281D01*
X11817503Y-19517281D02*
X11827027Y-19488710D01*
X11827027Y-19488710D02*
X11836551Y-19441091D01*
X11836551Y-19441091D02*
X11836551Y-19402996D01*
X11836551Y-19402996D02*
X11827027Y-19355377D01*
X11827027Y-19355377D02*
X11817503Y-19326805D01*
X11817503Y-19326805D02*
X11807980Y-19307758D01*
X11807980Y-19307758D02*
X11788932Y-19279186D01*
X11788932Y-19279186D02*
X11779408Y-19269662D01*
D13*
X7160392Y-19684892D02*
X7160392Y-19656608D01*
X7132108Y-19656608D01*
X7132108Y-19684892D01*
X7160392Y-19684892D01*
D10*
X7465122Y-19562234D02*
X7484170Y-19562234D01*
X7484170Y-19562234D02*
X7503217Y-19571758D01*
X7503217Y-19571758D02*
X7512741Y-19581281D01*
X7512741Y-19581281D02*
X7522265Y-19600329D01*
X7522265Y-19600329D02*
X7531789Y-19638424D01*
X7531789Y-19638424D02*
X7531789Y-19686043D01*
X7531789Y-19686043D02*
X7522265Y-19724139D01*
X7522265Y-19724139D02*
X7512741Y-19743186D01*
X7512741Y-19743186D02*
X7503217Y-19752710D01*
X7503217Y-19752710D02*
X7484170Y-19762234D01*
X7484170Y-19762234D02*
X7465122Y-19762234D01*
X7465122Y-19762234D02*
X7446074Y-19752710D01*
X7446074Y-19752710D02*
X7436551Y-19743186D01*
X7436551Y-19743186D02*
X7427027Y-19724139D01*
X7427027Y-19724139D02*
X7417503Y-19686043D01*
X7417503Y-19686043D02*
X7417503Y-19638424D01*
X7417503Y-19638424D02*
X7427027Y-19600329D01*
X7427027Y-19600329D02*
X7436551Y-19581281D01*
X7436551Y-19581281D02*
X7446074Y-19571758D01*
X7446074Y-19571758D02*
X7465122Y-19562234D01*
X7617503Y-19743186D02*
X7627027Y-19752710D01*
X7627027Y-19752710D02*
X7617503Y-19762234D01*
X7617503Y-19762234D02*
X7607979Y-19752710D01*
X7607979Y-19752710D02*
X7617503Y-19743186D01*
X7617503Y-19743186D02*
X7617503Y-19762234D01*
X7798455Y-19628900D02*
X7798455Y-19762234D01*
X7750836Y-19552710D02*
X7703217Y-19695567D01*
X7703217Y-19695567D02*
X7827027Y-19695567D01*
X7941312Y-19562234D02*
X7960360Y-19562234D01*
X7960360Y-19562234D02*
X7979408Y-19571758D01*
X7979408Y-19571758D02*
X7988932Y-19581281D01*
X7988932Y-19581281D02*
X7998455Y-19600329D01*
X7998455Y-19600329D02*
X8007979Y-19638424D01*
X8007979Y-19638424D02*
X8007979Y-19686043D01*
X8007979Y-19686043D02*
X7998455Y-19724139D01*
X7998455Y-19724139D02*
X7988932Y-19743186D01*
X7988932Y-19743186D02*
X7979408Y-19752710D01*
X7979408Y-19752710D02*
X7960360Y-19762234D01*
X7960360Y-19762234D02*
X7941312Y-19762234D01*
X7941312Y-19762234D02*
X7922265Y-19752710D01*
X7922265Y-19752710D02*
X7912741Y-19743186D01*
X7912741Y-19743186D02*
X7903217Y-19724139D01*
X7903217Y-19724139D02*
X7893693Y-19686043D01*
X7893693Y-19686043D02*
X7893693Y-19638424D01*
X7893693Y-19638424D02*
X7903217Y-19600329D01*
X7903217Y-19600329D02*
X7912741Y-19581281D01*
X7912741Y-19581281D02*
X7922265Y-19571758D01*
X7922265Y-19571758D02*
X7941312Y-19562234D01*
X8131789Y-19562234D02*
X8150836Y-19562234D01*
X8150836Y-19562234D02*
X8169884Y-19571758D01*
X8169884Y-19571758D02*
X8179408Y-19581281D01*
X8179408Y-19581281D02*
X8188932Y-19600329D01*
X8188932Y-19600329D02*
X8198455Y-19638424D01*
X8198455Y-19638424D02*
X8198455Y-19686043D01*
X8198455Y-19686043D02*
X8188932Y-19724139D01*
X8188932Y-19724139D02*
X8179408Y-19743186D01*
X8179408Y-19743186D02*
X8169884Y-19752710D01*
X8169884Y-19752710D02*
X8150836Y-19762234D01*
X8150836Y-19762234D02*
X8131789Y-19762234D01*
X8131789Y-19762234D02*
X8112741Y-19752710D01*
X8112741Y-19752710D02*
X8103217Y-19743186D01*
X8103217Y-19743186D02*
X8093693Y-19724139D01*
X8093693Y-19724139D02*
X8084170Y-19686043D01*
X8084170Y-19686043D02*
X8084170Y-19638424D01*
X8084170Y-19638424D02*
X8093693Y-19600329D01*
X8093693Y-19600329D02*
X8103217Y-19581281D01*
X8103217Y-19581281D02*
X8112741Y-19571758D01*
X8112741Y-19571758D02*
X8131789Y-19562234D01*
X8284170Y-19762234D02*
X8284170Y-19628900D01*
X8284170Y-19647948D02*
X8293693Y-19638424D01*
X8293693Y-19638424D02*
X8312741Y-19628900D01*
X8312741Y-19628900D02*
X8341313Y-19628900D01*
X8341313Y-19628900D02*
X8360360Y-19638424D01*
X8360360Y-19638424D02*
X8369884Y-19657472D01*
X8369884Y-19657472D02*
X8369884Y-19762234D01*
X8369884Y-19657472D02*
X8379408Y-19638424D01*
X8379408Y-19638424D02*
X8398455Y-19628900D01*
X8398455Y-19628900D02*
X8427027Y-19628900D01*
X8427027Y-19628900D02*
X8446075Y-19638424D01*
X8446075Y-19638424D02*
X8455598Y-19657472D01*
X8455598Y-19657472D02*
X8455598Y-19762234D01*
X8550836Y-19762234D02*
X8550836Y-19628900D01*
X8550836Y-19647948D02*
X8560360Y-19638424D01*
X8560360Y-19638424D02*
X8579408Y-19628900D01*
X8579408Y-19628900D02*
X8607979Y-19628900D01*
X8607979Y-19628900D02*
X8627027Y-19638424D01*
X8627027Y-19638424D02*
X8636551Y-19657472D01*
X8636551Y-19657472D02*
X8636551Y-19762234D01*
X8636551Y-19657472D02*
X8646075Y-19638424D01*
X8646075Y-19638424D02*
X8665122Y-19628900D01*
X8665122Y-19628900D02*
X8693694Y-19628900D01*
X8693694Y-19628900D02*
X8712741Y-19638424D01*
X8712741Y-19638424D02*
X8722265Y-19657472D01*
X8722265Y-19657472D02*
X8722265Y-19762234D01*
X9112741Y-19552710D02*
X8941313Y-19809853D01*
X9369884Y-19562234D02*
X9388932Y-19562234D01*
X9388932Y-19562234D02*
X9407979Y-19571758D01*
X9407979Y-19571758D02*
X9417503Y-19581281D01*
X9417503Y-19581281D02*
X9427027Y-19600329D01*
X9427027Y-19600329D02*
X9436551Y-19638424D01*
X9436551Y-19638424D02*
X9436551Y-19686043D01*
X9436551Y-19686043D02*
X9427027Y-19724139D01*
X9427027Y-19724139D02*
X9417503Y-19743186D01*
X9417503Y-19743186D02*
X9407979Y-19752710D01*
X9407979Y-19752710D02*
X9388932Y-19762234D01*
X9388932Y-19762234D02*
X9369884Y-19762234D01*
X9369884Y-19762234D02*
X9350837Y-19752710D01*
X9350837Y-19752710D02*
X9341313Y-19743186D01*
X9341313Y-19743186D02*
X9331789Y-19724139D01*
X9331789Y-19724139D02*
X9322265Y-19686043D01*
X9322265Y-19686043D02*
X9322265Y-19638424D01*
X9322265Y-19638424D02*
X9331789Y-19600329D01*
X9331789Y-19600329D02*
X9341313Y-19581281D01*
X9341313Y-19581281D02*
X9350837Y-19571758D01*
X9350837Y-19571758D02*
X9369884Y-19562234D01*
X9522265Y-19743186D02*
X9531789Y-19752710D01*
X9531789Y-19752710D02*
X9522265Y-19762234D01*
X9522265Y-19762234D02*
X9512741Y-19752710D01*
X9512741Y-19752710D02*
X9522265Y-19743186D01*
X9522265Y-19743186D02*
X9522265Y-19762234D01*
X9655598Y-19562234D02*
X9674646Y-19562234D01*
X9674646Y-19562234D02*
X9693694Y-19571758D01*
X9693694Y-19571758D02*
X9703218Y-19581281D01*
X9703218Y-19581281D02*
X9712741Y-19600329D01*
X9712741Y-19600329D02*
X9722265Y-19638424D01*
X9722265Y-19638424D02*
X9722265Y-19686043D01*
X9722265Y-19686043D02*
X9712741Y-19724139D01*
X9712741Y-19724139D02*
X9703218Y-19743186D01*
X9703218Y-19743186D02*
X9693694Y-19752710D01*
X9693694Y-19752710D02*
X9674646Y-19762234D01*
X9674646Y-19762234D02*
X9655598Y-19762234D01*
X9655598Y-19762234D02*
X9636551Y-19752710D01*
X9636551Y-19752710D02*
X9627027Y-19743186D01*
X9627027Y-19743186D02*
X9617503Y-19724139D01*
X9617503Y-19724139D02*
X9607979Y-19686043D01*
X9607979Y-19686043D02*
X9607979Y-19638424D01*
X9607979Y-19638424D02*
X9617503Y-19600329D01*
X9617503Y-19600329D02*
X9627027Y-19581281D01*
X9627027Y-19581281D02*
X9636551Y-19571758D01*
X9636551Y-19571758D02*
X9655598Y-19562234D01*
X9912741Y-19762234D02*
X9798456Y-19762234D01*
X9855598Y-19762234D02*
X9855598Y-19562234D01*
X9855598Y-19562234D02*
X9836551Y-19590805D01*
X9836551Y-19590805D02*
X9817503Y-19609853D01*
X9817503Y-19609853D02*
X9798456Y-19619377D01*
X10093694Y-19562234D02*
X9998456Y-19562234D01*
X9998456Y-19562234D02*
X9988932Y-19657472D01*
X9988932Y-19657472D02*
X9998456Y-19647948D01*
X9998456Y-19647948D02*
X10017503Y-19638424D01*
X10017503Y-19638424D02*
X10065122Y-19638424D01*
X10065122Y-19638424D02*
X10084170Y-19647948D01*
X10084170Y-19647948D02*
X10093694Y-19657472D01*
X10093694Y-19657472D02*
X10103218Y-19676520D01*
X10103218Y-19676520D02*
X10103218Y-19724139D01*
X10103218Y-19724139D02*
X10093694Y-19743186D01*
X10093694Y-19743186D02*
X10084170Y-19752710D01*
X10084170Y-19752710D02*
X10065122Y-19762234D01*
X10065122Y-19762234D02*
X10017503Y-19762234D01*
X10017503Y-19762234D02*
X9998456Y-19752710D01*
X9998456Y-19752710D02*
X9988932Y-19743186D01*
X10169884Y-19562234D02*
X10303218Y-19562234D01*
X10303218Y-19562234D02*
X10217503Y-19762234D01*
X10369884Y-19562234D02*
X10369884Y-19600329D01*
X10446075Y-19562234D02*
X10446075Y-19600329D01*
X10741313Y-19838424D02*
X10731789Y-19828900D01*
X10731789Y-19828900D02*
X10712741Y-19800329D01*
X10712741Y-19800329D02*
X10703218Y-19781281D01*
X10703218Y-19781281D02*
X10693694Y-19752710D01*
X10693694Y-19752710D02*
X10684170Y-19705091D01*
X10684170Y-19705091D02*
X10684170Y-19666996D01*
X10684170Y-19666996D02*
X10693694Y-19619377D01*
X10693694Y-19619377D02*
X10703218Y-19590805D01*
X10703218Y-19590805D02*
X10712741Y-19571758D01*
X10712741Y-19571758D02*
X10731789Y-19543186D01*
X10731789Y-19543186D02*
X10741313Y-19533662D01*
X10922265Y-19762234D02*
X10807980Y-19762234D01*
X10865122Y-19762234D02*
X10865122Y-19562234D01*
X10865122Y-19562234D02*
X10846075Y-19590805D01*
X10846075Y-19590805D02*
X10827027Y-19609853D01*
X10827027Y-19609853D02*
X10807980Y-19619377D01*
X11046075Y-19562234D02*
X11065122Y-19562234D01*
X11065122Y-19562234D02*
X11084170Y-19571758D01*
X11084170Y-19571758D02*
X11093694Y-19581281D01*
X11093694Y-19581281D02*
X11103218Y-19600329D01*
X11103218Y-19600329D02*
X11112741Y-19638424D01*
X11112741Y-19638424D02*
X11112741Y-19686043D01*
X11112741Y-19686043D02*
X11103218Y-19724139D01*
X11103218Y-19724139D02*
X11093694Y-19743186D01*
X11093694Y-19743186D02*
X11084170Y-19752710D01*
X11084170Y-19752710D02*
X11065122Y-19762234D01*
X11065122Y-19762234D02*
X11046075Y-19762234D01*
X11046075Y-19762234D02*
X11027027Y-19752710D01*
X11027027Y-19752710D02*
X11017503Y-19743186D01*
X11017503Y-19743186D02*
X11007980Y-19724139D01*
X11007980Y-19724139D02*
X10998456Y-19686043D01*
X10998456Y-19686043D02*
X10998456Y-19638424D01*
X10998456Y-19638424D02*
X11007980Y-19600329D01*
X11007980Y-19600329D02*
X11017503Y-19581281D01*
X11017503Y-19581281D02*
X11027027Y-19571758D01*
X11027027Y-19571758D02*
X11046075Y-19562234D01*
X11350837Y-19762234D02*
X11350837Y-19562234D01*
X11436551Y-19762234D02*
X11436551Y-19657472D01*
X11436551Y-19657472D02*
X11427027Y-19638424D01*
X11427027Y-19638424D02*
X11407980Y-19628900D01*
X11407980Y-19628900D02*
X11379408Y-19628900D01*
X11379408Y-19628900D02*
X11360360Y-19638424D01*
X11360360Y-19638424D02*
X11350837Y-19647948D01*
X11560360Y-19762234D02*
X11541313Y-19752710D01*
X11541313Y-19752710D02*
X11531789Y-19743186D01*
X11531789Y-19743186D02*
X11522265Y-19724139D01*
X11522265Y-19724139D02*
X11522265Y-19666996D01*
X11522265Y-19666996D02*
X11531789Y-19647948D01*
X11531789Y-19647948D02*
X11541313Y-19638424D01*
X11541313Y-19638424D02*
X11560360Y-19628900D01*
X11560360Y-19628900D02*
X11588932Y-19628900D01*
X11588932Y-19628900D02*
X11607980Y-19638424D01*
X11607980Y-19638424D02*
X11617503Y-19647948D01*
X11617503Y-19647948D02*
X11627027Y-19666996D01*
X11627027Y-19666996D02*
X11627027Y-19724139D01*
X11627027Y-19724139D02*
X11617503Y-19743186D01*
X11617503Y-19743186D02*
X11607980Y-19752710D01*
X11607980Y-19752710D02*
X11588932Y-19762234D01*
X11588932Y-19762234D02*
X11560360Y-19762234D01*
X11741313Y-19762234D02*
X11722265Y-19752710D01*
X11722265Y-19752710D02*
X11712741Y-19733662D01*
X11712741Y-19733662D02*
X11712741Y-19562234D01*
X11893694Y-19752710D02*
X11874646Y-19762234D01*
X11874646Y-19762234D02*
X11836551Y-19762234D01*
X11836551Y-19762234D02*
X11817503Y-19752710D01*
X11817503Y-19752710D02*
X11807980Y-19733662D01*
X11807980Y-19733662D02*
X11807980Y-19657472D01*
X11807980Y-19657472D02*
X11817503Y-19638424D01*
X11817503Y-19638424D02*
X11836551Y-19628900D01*
X11836551Y-19628900D02*
X11874646Y-19628900D01*
X11874646Y-19628900D02*
X11893694Y-19638424D01*
X11893694Y-19638424D02*
X11903218Y-19657472D01*
X11903218Y-19657472D02*
X11903218Y-19676520D01*
X11903218Y-19676520D02*
X11807980Y-19695567D01*
X11979408Y-19752710D02*
X11998456Y-19762234D01*
X11998456Y-19762234D02*
X12036551Y-19762234D01*
X12036551Y-19762234D02*
X12055599Y-19752710D01*
X12055599Y-19752710D02*
X12065122Y-19733662D01*
X12065122Y-19733662D02*
X12065122Y-19724139D01*
X12065122Y-19724139D02*
X12055599Y-19705091D01*
X12055599Y-19705091D02*
X12036551Y-19695567D01*
X12036551Y-19695567D02*
X12007980Y-19695567D01*
X12007980Y-19695567D02*
X11988932Y-19686043D01*
X11988932Y-19686043D02*
X11979408Y-19666996D01*
X11979408Y-19666996D02*
X11979408Y-19657472D01*
X11979408Y-19657472D02*
X11988932Y-19638424D01*
X11988932Y-19638424D02*
X12007980Y-19628900D01*
X12007980Y-19628900D02*
X12036551Y-19628900D01*
X12036551Y-19628900D02*
X12055599Y-19638424D01*
X12131789Y-19838424D02*
X12141313Y-19828900D01*
X12141313Y-19828900D02*
X12160361Y-19800329D01*
X12160361Y-19800329D02*
X12169884Y-19781281D01*
X12169884Y-19781281D02*
X12179408Y-19752710D01*
X12179408Y-19752710D02*
X12188932Y-19705091D01*
X12188932Y-19705091D02*
X12188932Y-19666996D01*
X12188932Y-19666996D02*
X12179408Y-19619377D01*
X12179408Y-19619377D02*
X12169884Y-19590805D01*
X12169884Y-19590805D02*
X12160361Y-19571758D01*
X12160361Y-19571758D02*
X12141313Y-19543186D01*
X12141313Y-19543186D02*
X12131789Y-19533662D01*
D14*
X7141250Y-19959750D02*
X7166250Y-19934750D01*
X7141250Y-19909750D01*
X7116250Y-19934750D01*
X7141250Y-19959750D01*
D10*
X7465122Y-19826234D02*
X7484170Y-19826234D01*
X7484170Y-19826234D02*
X7503217Y-19835758D01*
X7503217Y-19835758D02*
X7512741Y-19845281D01*
X7512741Y-19845281D02*
X7522265Y-19864329D01*
X7522265Y-19864329D02*
X7531789Y-19902424D01*
X7531789Y-19902424D02*
X7531789Y-19950043D01*
X7531789Y-19950043D02*
X7522265Y-19988139D01*
X7522265Y-19988139D02*
X7512741Y-20007186D01*
X7512741Y-20007186D02*
X7503217Y-20016710D01*
X7503217Y-20016710D02*
X7484170Y-20026234D01*
X7484170Y-20026234D02*
X7465122Y-20026234D01*
X7465122Y-20026234D02*
X7446074Y-20016710D01*
X7446074Y-20016710D02*
X7436551Y-20007186D01*
X7436551Y-20007186D02*
X7427027Y-19988139D01*
X7427027Y-19988139D02*
X7417503Y-19950043D01*
X7417503Y-19950043D02*
X7417503Y-19902424D01*
X7417503Y-19902424D02*
X7427027Y-19864329D01*
X7427027Y-19864329D02*
X7436551Y-19845281D01*
X7436551Y-19845281D02*
X7446074Y-19835758D01*
X7446074Y-19835758D02*
X7465122Y-19826234D01*
X7617503Y-20007186D02*
X7627027Y-20016710D01*
X7627027Y-20016710D02*
X7617503Y-20026234D01*
X7617503Y-20026234D02*
X7607979Y-20016710D01*
X7607979Y-20016710D02*
X7617503Y-20007186D01*
X7617503Y-20007186D02*
X7617503Y-20026234D01*
X7807979Y-19826234D02*
X7712741Y-19826234D01*
X7712741Y-19826234D02*
X7703217Y-19921472D01*
X7703217Y-19921472D02*
X7712741Y-19911948D01*
X7712741Y-19911948D02*
X7731789Y-19902424D01*
X7731789Y-19902424D02*
X7779408Y-19902424D01*
X7779408Y-19902424D02*
X7798455Y-19911948D01*
X7798455Y-19911948D02*
X7807979Y-19921472D01*
X7807979Y-19921472D02*
X7817503Y-19940520D01*
X7817503Y-19940520D02*
X7817503Y-19988139D01*
X7817503Y-19988139D02*
X7807979Y-20007186D01*
X7807979Y-20007186D02*
X7798455Y-20016710D01*
X7798455Y-20016710D02*
X7779408Y-20026234D01*
X7779408Y-20026234D02*
X7731789Y-20026234D01*
X7731789Y-20026234D02*
X7712741Y-20016710D01*
X7712741Y-20016710D02*
X7703217Y-20007186D01*
X7941312Y-19826234D02*
X7960360Y-19826234D01*
X7960360Y-19826234D02*
X7979408Y-19835758D01*
X7979408Y-19835758D02*
X7988932Y-19845281D01*
X7988932Y-19845281D02*
X7998455Y-19864329D01*
X7998455Y-19864329D02*
X8007979Y-19902424D01*
X8007979Y-19902424D02*
X8007979Y-19950043D01*
X8007979Y-19950043D02*
X7998455Y-19988139D01*
X7998455Y-19988139D02*
X7988932Y-20007186D01*
X7988932Y-20007186D02*
X7979408Y-20016710D01*
X7979408Y-20016710D02*
X7960360Y-20026234D01*
X7960360Y-20026234D02*
X7941312Y-20026234D01*
X7941312Y-20026234D02*
X7922265Y-20016710D01*
X7922265Y-20016710D02*
X7912741Y-20007186D01*
X7912741Y-20007186D02*
X7903217Y-19988139D01*
X7903217Y-19988139D02*
X7893693Y-19950043D01*
X7893693Y-19950043D02*
X7893693Y-19902424D01*
X7893693Y-19902424D02*
X7903217Y-19864329D01*
X7903217Y-19864329D02*
X7912741Y-19845281D01*
X7912741Y-19845281D02*
X7922265Y-19835758D01*
X7922265Y-19835758D02*
X7941312Y-19826234D01*
X8131789Y-19826234D02*
X8150836Y-19826234D01*
X8150836Y-19826234D02*
X8169884Y-19835758D01*
X8169884Y-19835758D02*
X8179408Y-19845281D01*
X8179408Y-19845281D02*
X8188932Y-19864329D01*
X8188932Y-19864329D02*
X8198455Y-19902424D01*
X8198455Y-19902424D02*
X8198455Y-19950043D01*
X8198455Y-19950043D02*
X8188932Y-19988139D01*
X8188932Y-19988139D02*
X8179408Y-20007186D01*
X8179408Y-20007186D02*
X8169884Y-20016710D01*
X8169884Y-20016710D02*
X8150836Y-20026234D01*
X8150836Y-20026234D02*
X8131789Y-20026234D01*
X8131789Y-20026234D02*
X8112741Y-20016710D01*
X8112741Y-20016710D02*
X8103217Y-20007186D01*
X8103217Y-20007186D02*
X8093693Y-19988139D01*
X8093693Y-19988139D02*
X8084170Y-19950043D01*
X8084170Y-19950043D02*
X8084170Y-19902424D01*
X8084170Y-19902424D02*
X8093693Y-19864329D01*
X8093693Y-19864329D02*
X8103217Y-19845281D01*
X8103217Y-19845281D02*
X8112741Y-19835758D01*
X8112741Y-19835758D02*
X8131789Y-19826234D01*
X8284170Y-20026234D02*
X8284170Y-19892900D01*
X8284170Y-19911948D02*
X8293693Y-19902424D01*
X8293693Y-19902424D02*
X8312741Y-19892900D01*
X8312741Y-19892900D02*
X8341313Y-19892900D01*
X8341313Y-19892900D02*
X8360360Y-19902424D01*
X8360360Y-19902424D02*
X8369884Y-19921472D01*
X8369884Y-19921472D02*
X8369884Y-20026234D01*
X8369884Y-19921472D02*
X8379408Y-19902424D01*
X8379408Y-19902424D02*
X8398455Y-19892900D01*
X8398455Y-19892900D02*
X8427027Y-19892900D01*
X8427027Y-19892900D02*
X8446075Y-19902424D01*
X8446075Y-19902424D02*
X8455598Y-19921472D01*
X8455598Y-19921472D02*
X8455598Y-20026234D01*
X8550836Y-20026234D02*
X8550836Y-19892900D01*
X8550836Y-19911948D02*
X8560360Y-19902424D01*
X8560360Y-19902424D02*
X8579408Y-19892900D01*
X8579408Y-19892900D02*
X8607979Y-19892900D01*
X8607979Y-19892900D02*
X8627027Y-19902424D01*
X8627027Y-19902424D02*
X8636551Y-19921472D01*
X8636551Y-19921472D02*
X8636551Y-20026234D01*
X8636551Y-19921472D02*
X8646075Y-19902424D01*
X8646075Y-19902424D02*
X8665122Y-19892900D01*
X8665122Y-19892900D02*
X8693694Y-19892900D01*
X8693694Y-19892900D02*
X8712741Y-19902424D01*
X8712741Y-19902424D02*
X8722265Y-19921472D01*
X8722265Y-19921472D02*
X8722265Y-20026234D01*
X9112741Y-19816710D02*
X8941313Y-20073853D01*
X9369884Y-19826234D02*
X9388932Y-19826234D01*
X9388932Y-19826234D02*
X9407979Y-19835758D01*
X9407979Y-19835758D02*
X9417503Y-19845281D01*
X9417503Y-19845281D02*
X9427027Y-19864329D01*
X9427027Y-19864329D02*
X9436551Y-19902424D01*
X9436551Y-19902424D02*
X9436551Y-19950043D01*
X9436551Y-19950043D02*
X9427027Y-19988139D01*
X9427027Y-19988139D02*
X9417503Y-20007186D01*
X9417503Y-20007186D02*
X9407979Y-20016710D01*
X9407979Y-20016710D02*
X9388932Y-20026234D01*
X9388932Y-20026234D02*
X9369884Y-20026234D01*
X9369884Y-20026234D02*
X9350837Y-20016710D01*
X9350837Y-20016710D02*
X9341313Y-20007186D01*
X9341313Y-20007186D02*
X9331789Y-19988139D01*
X9331789Y-19988139D02*
X9322265Y-19950043D01*
X9322265Y-19950043D02*
X9322265Y-19902424D01*
X9322265Y-19902424D02*
X9331789Y-19864329D01*
X9331789Y-19864329D02*
X9341313Y-19845281D01*
X9341313Y-19845281D02*
X9350837Y-19835758D01*
X9350837Y-19835758D02*
X9369884Y-19826234D01*
X9522265Y-20007186D02*
X9531789Y-20016710D01*
X9531789Y-20016710D02*
X9522265Y-20026234D01*
X9522265Y-20026234D02*
X9512741Y-20016710D01*
X9512741Y-20016710D02*
X9522265Y-20007186D01*
X9522265Y-20007186D02*
X9522265Y-20026234D01*
X9655598Y-19826234D02*
X9674646Y-19826234D01*
X9674646Y-19826234D02*
X9693694Y-19835758D01*
X9693694Y-19835758D02*
X9703218Y-19845281D01*
X9703218Y-19845281D02*
X9712741Y-19864329D01*
X9712741Y-19864329D02*
X9722265Y-19902424D01*
X9722265Y-19902424D02*
X9722265Y-19950043D01*
X9722265Y-19950043D02*
X9712741Y-19988139D01*
X9712741Y-19988139D02*
X9703218Y-20007186D01*
X9703218Y-20007186D02*
X9693694Y-20016710D01*
X9693694Y-20016710D02*
X9674646Y-20026234D01*
X9674646Y-20026234D02*
X9655598Y-20026234D01*
X9655598Y-20026234D02*
X9636551Y-20016710D01*
X9636551Y-20016710D02*
X9627027Y-20007186D01*
X9627027Y-20007186D02*
X9617503Y-19988139D01*
X9617503Y-19988139D02*
X9607979Y-19950043D01*
X9607979Y-19950043D02*
X9607979Y-19902424D01*
X9607979Y-19902424D02*
X9617503Y-19864329D01*
X9617503Y-19864329D02*
X9627027Y-19845281D01*
X9627027Y-19845281D02*
X9636551Y-19835758D01*
X9636551Y-19835758D02*
X9655598Y-19826234D01*
X9912741Y-20026234D02*
X9798456Y-20026234D01*
X9855598Y-20026234D02*
X9855598Y-19826234D01*
X9855598Y-19826234D02*
X9836551Y-19854805D01*
X9836551Y-19854805D02*
X9817503Y-19873853D01*
X9817503Y-19873853D02*
X9798456Y-19883377D01*
X10007979Y-20026234D02*
X10046075Y-20026234D01*
X10046075Y-20026234D02*
X10065122Y-20016710D01*
X10065122Y-20016710D02*
X10074646Y-20007186D01*
X10074646Y-20007186D02*
X10093694Y-19978615D01*
X10093694Y-19978615D02*
X10103218Y-19940520D01*
X10103218Y-19940520D02*
X10103218Y-19864329D01*
X10103218Y-19864329D02*
X10093694Y-19845281D01*
X10093694Y-19845281D02*
X10084170Y-19835758D01*
X10084170Y-19835758D02*
X10065122Y-19826234D01*
X10065122Y-19826234D02*
X10027027Y-19826234D01*
X10027027Y-19826234D02*
X10007979Y-19835758D01*
X10007979Y-19835758D02*
X9998456Y-19845281D01*
X9998456Y-19845281D02*
X9988932Y-19864329D01*
X9988932Y-19864329D02*
X9988932Y-19911948D01*
X9988932Y-19911948D02*
X9998456Y-19930996D01*
X9998456Y-19930996D02*
X10007979Y-19940520D01*
X10007979Y-19940520D02*
X10027027Y-19950043D01*
X10027027Y-19950043D02*
X10065122Y-19950043D01*
X10065122Y-19950043D02*
X10084170Y-19940520D01*
X10084170Y-19940520D02*
X10093694Y-19930996D01*
X10093694Y-19930996D02*
X10103218Y-19911948D01*
X10169884Y-19826234D02*
X10303218Y-19826234D01*
X10303218Y-19826234D02*
X10217503Y-20026234D01*
X10369884Y-19826234D02*
X10369884Y-19864329D01*
X10446075Y-19826234D02*
X10446075Y-19864329D01*
X10741313Y-20102424D02*
X10731789Y-20092900D01*
X10731789Y-20092900D02*
X10712741Y-20064329D01*
X10712741Y-20064329D02*
X10703218Y-20045281D01*
X10703218Y-20045281D02*
X10693694Y-20016710D01*
X10693694Y-20016710D02*
X10684170Y-19969091D01*
X10684170Y-19969091D02*
X10684170Y-19930996D01*
X10684170Y-19930996D02*
X10693694Y-19883377D01*
X10693694Y-19883377D02*
X10703218Y-19854805D01*
X10703218Y-19854805D02*
X10712741Y-19835758D01*
X10712741Y-19835758D02*
X10731789Y-19807186D01*
X10731789Y-19807186D02*
X10741313Y-19797662D01*
X10903218Y-19892900D02*
X10903218Y-20026234D01*
X10855599Y-19816710D02*
X10807980Y-19959567D01*
X10807980Y-19959567D02*
X10931789Y-19959567D01*
X11046075Y-19826234D02*
X11065122Y-19826234D01*
X11065122Y-19826234D02*
X11084170Y-19835758D01*
X11084170Y-19835758D02*
X11093694Y-19845281D01*
X11093694Y-19845281D02*
X11103218Y-19864329D01*
X11103218Y-19864329D02*
X11112741Y-19902424D01*
X11112741Y-19902424D02*
X11112741Y-19950043D01*
X11112741Y-19950043D02*
X11103218Y-19988139D01*
X11103218Y-19988139D02*
X11093694Y-20007186D01*
X11093694Y-20007186D02*
X11084170Y-20016710D01*
X11084170Y-20016710D02*
X11065122Y-20026234D01*
X11065122Y-20026234D02*
X11046075Y-20026234D01*
X11046075Y-20026234D02*
X11027027Y-20016710D01*
X11027027Y-20016710D02*
X11017503Y-20007186D01*
X11017503Y-20007186D02*
X11007980Y-19988139D01*
X11007980Y-19988139D02*
X10998456Y-19950043D01*
X10998456Y-19950043D02*
X10998456Y-19902424D01*
X10998456Y-19902424D02*
X11007980Y-19864329D01*
X11007980Y-19864329D02*
X11017503Y-19845281D01*
X11017503Y-19845281D02*
X11027027Y-19835758D01*
X11027027Y-19835758D02*
X11046075Y-19826234D01*
X11350837Y-20026234D02*
X11350837Y-19826234D01*
X11436551Y-20026234D02*
X11436551Y-19921472D01*
X11436551Y-19921472D02*
X11427027Y-19902424D01*
X11427027Y-19902424D02*
X11407980Y-19892900D01*
X11407980Y-19892900D02*
X11379408Y-19892900D01*
X11379408Y-19892900D02*
X11360360Y-19902424D01*
X11360360Y-19902424D02*
X11350837Y-19911948D01*
X11560360Y-20026234D02*
X11541313Y-20016710D01*
X11541313Y-20016710D02*
X11531789Y-20007186D01*
X11531789Y-20007186D02*
X11522265Y-19988139D01*
X11522265Y-19988139D02*
X11522265Y-19930996D01*
X11522265Y-19930996D02*
X11531789Y-19911948D01*
X11531789Y-19911948D02*
X11541313Y-19902424D01*
X11541313Y-19902424D02*
X11560360Y-19892900D01*
X11560360Y-19892900D02*
X11588932Y-19892900D01*
X11588932Y-19892900D02*
X11607980Y-19902424D01*
X11607980Y-19902424D02*
X11617503Y-19911948D01*
X11617503Y-19911948D02*
X11627027Y-19930996D01*
X11627027Y-19930996D02*
X11627027Y-19988139D01*
X11627027Y-19988139D02*
X11617503Y-20007186D01*
X11617503Y-20007186D02*
X11607980Y-20016710D01*
X11607980Y-20016710D02*
X11588932Y-20026234D01*
X11588932Y-20026234D02*
X11560360Y-20026234D01*
X11741313Y-20026234D02*
X11722265Y-20016710D01*
X11722265Y-20016710D02*
X11712741Y-19997662D01*
X11712741Y-19997662D02*
X11712741Y-19826234D01*
X11893694Y-20016710D02*
X11874646Y-20026234D01*
X11874646Y-20026234D02*
X11836551Y-20026234D01*
X11836551Y-20026234D02*
X11817503Y-20016710D01*
X11817503Y-20016710D02*
X11807980Y-19997662D01*
X11807980Y-19997662D02*
X11807980Y-19921472D01*
X11807980Y-19921472D02*
X11817503Y-19902424D01*
X11817503Y-19902424D02*
X11836551Y-19892900D01*
X11836551Y-19892900D02*
X11874646Y-19892900D01*
X11874646Y-19892900D02*
X11893694Y-19902424D01*
X11893694Y-19902424D02*
X11903218Y-19921472D01*
X11903218Y-19921472D02*
X11903218Y-19940520D01*
X11903218Y-19940520D02*
X11807980Y-19959567D01*
X11979408Y-20016710D02*
X11998456Y-20026234D01*
X11998456Y-20026234D02*
X12036551Y-20026234D01*
X12036551Y-20026234D02*
X12055599Y-20016710D01*
X12055599Y-20016710D02*
X12065122Y-19997662D01*
X12065122Y-19997662D02*
X12065122Y-19988139D01*
X12065122Y-19988139D02*
X12055599Y-19969091D01*
X12055599Y-19969091D02*
X12036551Y-19959567D01*
X12036551Y-19959567D02*
X12007980Y-19959567D01*
X12007980Y-19959567D02*
X11988932Y-19950043D01*
X11988932Y-19950043D02*
X11979408Y-19930996D01*
X11979408Y-19930996D02*
X11979408Y-19921472D01*
X11979408Y-19921472D02*
X11988932Y-19902424D01*
X11988932Y-19902424D02*
X12007980Y-19892900D01*
X12007980Y-19892900D02*
X12036551Y-19892900D01*
X12036551Y-19892900D02*
X12055599Y-19902424D01*
X12131789Y-20102424D02*
X12141313Y-20092900D01*
X12141313Y-20092900D02*
X12160361Y-20064329D01*
X12160361Y-20064329D02*
X12169884Y-20045281D01*
X12169884Y-20045281D02*
X12179408Y-20016710D01*
X12179408Y-20016710D02*
X12188932Y-19969091D01*
X12188932Y-19969091D02*
X12188932Y-19930996D01*
X12188932Y-19930996D02*
X12179408Y-19883377D01*
X12179408Y-19883377D02*
X12169884Y-19854805D01*
X12169884Y-19854805D02*
X12160361Y-19835758D01*
X12160361Y-19835758D02*
X12141313Y-19807186D01*
X12141313Y-19807186D02*
X12131789Y-19797662D01*
D15*
X7106250Y-20168750D02*
X7166250Y-20228750D01*
X7166250Y-20168750D02*
X7106250Y-20228750D01*
X7166250Y-20198750D02*
G75*
G03*
X7166250Y-20198750I-30000J0D01*
G01*
D10*
X7465122Y-20090234D02*
X7484170Y-20090234D01*
X7484170Y-20090234D02*
X7503217Y-20099758D01*
X7503217Y-20099758D02*
X7512741Y-20109281D01*
X7512741Y-20109281D02*
X7522265Y-20128329D01*
X7522265Y-20128329D02*
X7531789Y-20166424D01*
X7531789Y-20166424D02*
X7531789Y-20214043D01*
X7531789Y-20214043D02*
X7522265Y-20252139D01*
X7522265Y-20252139D02*
X7512741Y-20271186D01*
X7512741Y-20271186D02*
X7503217Y-20280710D01*
X7503217Y-20280710D02*
X7484170Y-20290234D01*
X7484170Y-20290234D02*
X7465122Y-20290234D01*
X7465122Y-20290234D02*
X7446074Y-20280710D01*
X7446074Y-20280710D02*
X7436551Y-20271186D01*
X7436551Y-20271186D02*
X7427027Y-20252139D01*
X7427027Y-20252139D02*
X7417503Y-20214043D01*
X7417503Y-20214043D02*
X7417503Y-20166424D01*
X7417503Y-20166424D02*
X7427027Y-20128329D01*
X7427027Y-20128329D02*
X7436551Y-20109281D01*
X7436551Y-20109281D02*
X7446074Y-20099758D01*
X7446074Y-20099758D02*
X7465122Y-20090234D01*
X7617503Y-20271186D02*
X7627027Y-20280710D01*
X7627027Y-20280710D02*
X7617503Y-20290234D01*
X7617503Y-20290234D02*
X7607979Y-20280710D01*
X7607979Y-20280710D02*
X7617503Y-20271186D01*
X7617503Y-20271186D02*
X7617503Y-20290234D01*
X7798455Y-20090234D02*
X7760360Y-20090234D01*
X7760360Y-20090234D02*
X7741312Y-20099758D01*
X7741312Y-20099758D02*
X7731789Y-20109281D01*
X7731789Y-20109281D02*
X7712741Y-20137853D01*
X7712741Y-20137853D02*
X7703217Y-20175948D01*
X7703217Y-20175948D02*
X7703217Y-20252139D01*
X7703217Y-20252139D02*
X7712741Y-20271186D01*
X7712741Y-20271186D02*
X7722265Y-20280710D01*
X7722265Y-20280710D02*
X7741312Y-20290234D01*
X7741312Y-20290234D02*
X7779408Y-20290234D01*
X7779408Y-20290234D02*
X7798455Y-20280710D01*
X7798455Y-20280710D02*
X7807979Y-20271186D01*
X7807979Y-20271186D02*
X7817503Y-20252139D01*
X7817503Y-20252139D02*
X7817503Y-20204520D01*
X7817503Y-20204520D02*
X7807979Y-20185472D01*
X7807979Y-20185472D02*
X7798455Y-20175948D01*
X7798455Y-20175948D02*
X7779408Y-20166424D01*
X7779408Y-20166424D02*
X7741312Y-20166424D01*
X7741312Y-20166424D02*
X7722265Y-20175948D01*
X7722265Y-20175948D02*
X7712741Y-20185472D01*
X7712741Y-20185472D02*
X7703217Y-20204520D01*
X7941312Y-20090234D02*
X7960360Y-20090234D01*
X7960360Y-20090234D02*
X7979408Y-20099758D01*
X7979408Y-20099758D02*
X7988932Y-20109281D01*
X7988932Y-20109281D02*
X7998455Y-20128329D01*
X7998455Y-20128329D02*
X8007979Y-20166424D01*
X8007979Y-20166424D02*
X8007979Y-20214043D01*
X8007979Y-20214043D02*
X7998455Y-20252139D01*
X7998455Y-20252139D02*
X7988932Y-20271186D01*
X7988932Y-20271186D02*
X7979408Y-20280710D01*
X7979408Y-20280710D02*
X7960360Y-20290234D01*
X7960360Y-20290234D02*
X7941312Y-20290234D01*
X7941312Y-20290234D02*
X7922265Y-20280710D01*
X7922265Y-20280710D02*
X7912741Y-20271186D01*
X7912741Y-20271186D02*
X7903217Y-20252139D01*
X7903217Y-20252139D02*
X7893693Y-20214043D01*
X7893693Y-20214043D02*
X7893693Y-20166424D01*
X7893693Y-20166424D02*
X7903217Y-20128329D01*
X7903217Y-20128329D02*
X7912741Y-20109281D01*
X7912741Y-20109281D02*
X7922265Y-20099758D01*
X7922265Y-20099758D02*
X7941312Y-20090234D01*
X8131789Y-20090234D02*
X8150836Y-20090234D01*
X8150836Y-20090234D02*
X8169884Y-20099758D01*
X8169884Y-20099758D02*
X8179408Y-20109281D01*
X8179408Y-20109281D02*
X8188932Y-20128329D01*
X8188932Y-20128329D02*
X8198455Y-20166424D01*
X8198455Y-20166424D02*
X8198455Y-20214043D01*
X8198455Y-20214043D02*
X8188932Y-20252139D01*
X8188932Y-20252139D02*
X8179408Y-20271186D01*
X8179408Y-20271186D02*
X8169884Y-20280710D01*
X8169884Y-20280710D02*
X8150836Y-20290234D01*
X8150836Y-20290234D02*
X8131789Y-20290234D01*
X8131789Y-20290234D02*
X8112741Y-20280710D01*
X8112741Y-20280710D02*
X8103217Y-20271186D01*
X8103217Y-20271186D02*
X8093693Y-20252139D01*
X8093693Y-20252139D02*
X8084170Y-20214043D01*
X8084170Y-20214043D02*
X8084170Y-20166424D01*
X8084170Y-20166424D02*
X8093693Y-20128329D01*
X8093693Y-20128329D02*
X8103217Y-20109281D01*
X8103217Y-20109281D02*
X8112741Y-20099758D01*
X8112741Y-20099758D02*
X8131789Y-20090234D01*
X8284170Y-20290234D02*
X8284170Y-20156900D01*
X8284170Y-20175948D02*
X8293693Y-20166424D01*
X8293693Y-20166424D02*
X8312741Y-20156900D01*
X8312741Y-20156900D02*
X8341313Y-20156900D01*
X8341313Y-20156900D02*
X8360360Y-20166424D01*
X8360360Y-20166424D02*
X8369884Y-20185472D01*
X8369884Y-20185472D02*
X8369884Y-20290234D01*
X8369884Y-20185472D02*
X8379408Y-20166424D01*
X8379408Y-20166424D02*
X8398455Y-20156900D01*
X8398455Y-20156900D02*
X8427027Y-20156900D01*
X8427027Y-20156900D02*
X8446075Y-20166424D01*
X8446075Y-20166424D02*
X8455598Y-20185472D01*
X8455598Y-20185472D02*
X8455598Y-20290234D01*
X8550836Y-20290234D02*
X8550836Y-20156900D01*
X8550836Y-20175948D02*
X8560360Y-20166424D01*
X8560360Y-20166424D02*
X8579408Y-20156900D01*
X8579408Y-20156900D02*
X8607979Y-20156900D01*
X8607979Y-20156900D02*
X8627027Y-20166424D01*
X8627027Y-20166424D02*
X8636551Y-20185472D01*
X8636551Y-20185472D02*
X8636551Y-20290234D01*
X8636551Y-20185472D02*
X8646075Y-20166424D01*
X8646075Y-20166424D02*
X8665122Y-20156900D01*
X8665122Y-20156900D02*
X8693694Y-20156900D01*
X8693694Y-20156900D02*
X8712741Y-20166424D01*
X8712741Y-20166424D02*
X8722265Y-20185472D01*
X8722265Y-20185472D02*
X8722265Y-20290234D01*
X9112741Y-20080710D02*
X8941313Y-20337853D01*
X9369884Y-20090234D02*
X9388932Y-20090234D01*
X9388932Y-20090234D02*
X9407979Y-20099758D01*
X9407979Y-20099758D02*
X9417503Y-20109281D01*
X9417503Y-20109281D02*
X9427027Y-20128329D01*
X9427027Y-20128329D02*
X9436551Y-20166424D01*
X9436551Y-20166424D02*
X9436551Y-20214043D01*
X9436551Y-20214043D02*
X9427027Y-20252139D01*
X9427027Y-20252139D02*
X9417503Y-20271186D01*
X9417503Y-20271186D02*
X9407979Y-20280710D01*
X9407979Y-20280710D02*
X9388932Y-20290234D01*
X9388932Y-20290234D02*
X9369884Y-20290234D01*
X9369884Y-20290234D02*
X9350837Y-20280710D01*
X9350837Y-20280710D02*
X9341313Y-20271186D01*
X9341313Y-20271186D02*
X9331789Y-20252139D01*
X9331789Y-20252139D02*
X9322265Y-20214043D01*
X9322265Y-20214043D02*
X9322265Y-20166424D01*
X9322265Y-20166424D02*
X9331789Y-20128329D01*
X9331789Y-20128329D02*
X9341313Y-20109281D01*
X9341313Y-20109281D02*
X9350837Y-20099758D01*
X9350837Y-20099758D02*
X9369884Y-20090234D01*
X9522265Y-20271186D02*
X9531789Y-20280710D01*
X9531789Y-20280710D02*
X9522265Y-20290234D01*
X9522265Y-20290234D02*
X9512741Y-20280710D01*
X9512741Y-20280710D02*
X9522265Y-20271186D01*
X9522265Y-20271186D02*
X9522265Y-20290234D01*
X9655598Y-20090234D02*
X9674646Y-20090234D01*
X9674646Y-20090234D02*
X9693694Y-20099758D01*
X9693694Y-20099758D02*
X9703218Y-20109281D01*
X9703218Y-20109281D02*
X9712741Y-20128329D01*
X9712741Y-20128329D02*
X9722265Y-20166424D01*
X9722265Y-20166424D02*
X9722265Y-20214043D01*
X9722265Y-20214043D02*
X9712741Y-20252139D01*
X9712741Y-20252139D02*
X9703218Y-20271186D01*
X9703218Y-20271186D02*
X9693694Y-20280710D01*
X9693694Y-20280710D02*
X9674646Y-20290234D01*
X9674646Y-20290234D02*
X9655598Y-20290234D01*
X9655598Y-20290234D02*
X9636551Y-20280710D01*
X9636551Y-20280710D02*
X9627027Y-20271186D01*
X9627027Y-20271186D02*
X9617503Y-20252139D01*
X9617503Y-20252139D02*
X9607979Y-20214043D01*
X9607979Y-20214043D02*
X9607979Y-20166424D01*
X9607979Y-20166424D02*
X9617503Y-20128329D01*
X9617503Y-20128329D02*
X9627027Y-20109281D01*
X9627027Y-20109281D02*
X9636551Y-20099758D01*
X9636551Y-20099758D02*
X9655598Y-20090234D01*
X9798456Y-20109281D02*
X9807979Y-20099758D01*
X9807979Y-20099758D02*
X9827027Y-20090234D01*
X9827027Y-20090234D02*
X9874646Y-20090234D01*
X9874646Y-20090234D02*
X9893694Y-20099758D01*
X9893694Y-20099758D02*
X9903218Y-20109281D01*
X9903218Y-20109281D02*
X9912741Y-20128329D01*
X9912741Y-20128329D02*
X9912741Y-20147377D01*
X9912741Y-20147377D02*
X9903218Y-20175948D01*
X9903218Y-20175948D02*
X9788932Y-20290234D01*
X9788932Y-20290234D02*
X9912741Y-20290234D01*
X9979408Y-20090234D02*
X10103218Y-20090234D01*
X10103218Y-20090234D02*
X10036551Y-20166424D01*
X10036551Y-20166424D02*
X10065122Y-20166424D01*
X10065122Y-20166424D02*
X10084170Y-20175948D01*
X10084170Y-20175948D02*
X10093694Y-20185472D01*
X10093694Y-20185472D02*
X10103218Y-20204520D01*
X10103218Y-20204520D02*
X10103218Y-20252139D01*
X10103218Y-20252139D02*
X10093694Y-20271186D01*
X10093694Y-20271186D02*
X10084170Y-20280710D01*
X10084170Y-20280710D02*
X10065122Y-20290234D01*
X10065122Y-20290234D02*
X10007979Y-20290234D01*
X10007979Y-20290234D02*
X9988932Y-20280710D01*
X9988932Y-20280710D02*
X9979408Y-20271186D01*
X10274646Y-20090234D02*
X10236551Y-20090234D01*
X10236551Y-20090234D02*
X10217503Y-20099758D01*
X10217503Y-20099758D02*
X10207979Y-20109281D01*
X10207979Y-20109281D02*
X10188932Y-20137853D01*
X10188932Y-20137853D02*
X10179408Y-20175948D01*
X10179408Y-20175948D02*
X10179408Y-20252139D01*
X10179408Y-20252139D02*
X10188932Y-20271186D01*
X10188932Y-20271186D02*
X10198456Y-20280710D01*
X10198456Y-20280710D02*
X10217503Y-20290234D01*
X10217503Y-20290234D02*
X10255599Y-20290234D01*
X10255599Y-20290234D02*
X10274646Y-20280710D01*
X10274646Y-20280710D02*
X10284170Y-20271186D01*
X10284170Y-20271186D02*
X10293694Y-20252139D01*
X10293694Y-20252139D02*
X10293694Y-20204520D01*
X10293694Y-20204520D02*
X10284170Y-20185472D01*
X10284170Y-20185472D02*
X10274646Y-20175948D01*
X10274646Y-20175948D02*
X10255599Y-20166424D01*
X10255599Y-20166424D02*
X10217503Y-20166424D01*
X10217503Y-20166424D02*
X10198456Y-20175948D01*
X10198456Y-20175948D02*
X10188932Y-20185472D01*
X10188932Y-20185472D02*
X10179408Y-20204520D01*
X10369884Y-20090234D02*
X10369884Y-20128329D01*
X10446075Y-20090234D02*
X10446075Y-20128329D01*
X10741313Y-20366424D02*
X10731789Y-20356900D01*
X10731789Y-20356900D02*
X10712741Y-20328329D01*
X10712741Y-20328329D02*
X10703218Y-20309281D01*
X10703218Y-20309281D02*
X10693694Y-20280710D01*
X10693694Y-20280710D02*
X10684170Y-20233091D01*
X10684170Y-20233091D02*
X10684170Y-20194996D01*
X10684170Y-20194996D02*
X10693694Y-20147377D01*
X10693694Y-20147377D02*
X10703218Y-20118805D01*
X10703218Y-20118805D02*
X10712741Y-20099758D01*
X10712741Y-20099758D02*
X10731789Y-20071186D01*
X10731789Y-20071186D02*
X10741313Y-20061662D01*
X10855599Y-20090234D02*
X10874646Y-20090234D01*
X10874646Y-20090234D02*
X10893694Y-20099758D01*
X10893694Y-20099758D02*
X10903218Y-20109281D01*
X10903218Y-20109281D02*
X10912741Y-20128329D01*
X10912741Y-20128329D02*
X10922265Y-20166424D01*
X10922265Y-20166424D02*
X10922265Y-20214043D01*
X10922265Y-20214043D02*
X10912741Y-20252139D01*
X10912741Y-20252139D02*
X10903218Y-20271186D01*
X10903218Y-20271186D02*
X10893694Y-20280710D01*
X10893694Y-20280710D02*
X10874646Y-20290234D01*
X10874646Y-20290234D02*
X10855599Y-20290234D01*
X10855599Y-20290234D02*
X10836551Y-20280710D01*
X10836551Y-20280710D02*
X10827027Y-20271186D01*
X10827027Y-20271186D02*
X10817503Y-20252139D01*
X10817503Y-20252139D02*
X10807980Y-20214043D01*
X10807980Y-20214043D02*
X10807980Y-20166424D01*
X10807980Y-20166424D02*
X10817503Y-20128329D01*
X10817503Y-20128329D02*
X10827027Y-20109281D01*
X10827027Y-20109281D02*
X10836551Y-20099758D01*
X10836551Y-20099758D02*
X10855599Y-20090234D01*
X11160361Y-20290234D02*
X11160361Y-20090234D01*
X11246075Y-20290234D02*
X11246075Y-20185472D01*
X11246075Y-20185472D02*
X11236551Y-20166424D01*
X11236551Y-20166424D02*
X11217503Y-20156900D01*
X11217503Y-20156900D02*
X11188932Y-20156900D01*
X11188932Y-20156900D02*
X11169884Y-20166424D01*
X11169884Y-20166424D02*
X11160361Y-20175948D01*
X11369884Y-20290234D02*
X11350837Y-20280710D01*
X11350837Y-20280710D02*
X11341313Y-20271186D01*
X11341313Y-20271186D02*
X11331789Y-20252139D01*
X11331789Y-20252139D02*
X11331789Y-20194996D01*
X11331789Y-20194996D02*
X11341313Y-20175948D01*
X11341313Y-20175948D02*
X11350837Y-20166424D01*
X11350837Y-20166424D02*
X11369884Y-20156900D01*
X11369884Y-20156900D02*
X11398456Y-20156900D01*
X11398456Y-20156900D02*
X11417503Y-20166424D01*
X11417503Y-20166424D02*
X11427027Y-20175948D01*
X11427027Y-20175948D02*
X11436551Y-20194996D01*
X11436551Y-20194996D02*
X11436551Y-20252139D01*
X11436551Y-20252139D02*
X11427027Y-20271186D01*
X11427027Y-20271186D02*
X11417503Y-20280710D01*
X11417503Y-20280710D02*
X11398456Y-20290234D01*
X11398456Y-20290234D02*
X11369884Y-20290234D01*
X11550837Y-20290234D02*
X11531789Y-20280710D01*
X11531789Y-20280710D02*
X11522265Y-20261662D01*
X11522265Y-20261662D02*
X11522265Y-20090234D01*
X11703218Y-20280710D02*
X11684170Y-20290234D01*
X11684170Y-20290234D02*
X11646075Y-20290234D01*
X11646075Y-20290234D02*
X11627027Y-20280710D01*
X11627027Y-20280710D02*
X11617503Y-20261662D01*
X11617503Y-20261662D02*
X11617503Y-20185472D01*
X11617503Y-20185472D02*
X11627027Y-20166424D01*
X11627027Y-20166424D02*
X11646075Y-20156900D01*
X11646075Y-20156900D02*
X11684170Y-20156900D01*
X11684170Y-20156900D02*
X11703218Y-20166424D01*
X11703218Y-20166424D02*
X11712741Y-20185472D01*
X11712741Y-20185472D02*
X11712741Y-20204520D01*
X11712741Y-20204520D02*
X11617503Y-20223567D01*
X11788932Y-20280710D02*
X11807980Y-20290234D01*
X11807980Y-20290234D02*
X11846075Y-20290234D01*
X11846075Y-20290234D02*
X11865122Y-20280710D01*
X11865122Y-20280710D02*
X11874646Y-20261662D01*
X11874646Y-20261662D02*
X11874646Y-20252139D01*
X11874646Y-20252139D02*
X11865122Y-20233091D01*
X11865122Y-20233091D02*
X11846075Y-20223567D01*
X11846075Y-20223567D02*
X11817503Y-20223567D01*
X11817503Y-20223567D02*
X11798456Y-20214043D01*
X11798456Y-20214043D02*
X11788932Y-20194996D01*
X11788932Y-20194996D02*
X11788932Y-20185472D01*
X11788932Y-20185472D02*
X11798456Y-20166424D01*
X11798456Y-20166424D02*
X11817503Y-20156900D01*
X11817503Y-20156900D02*
X11846075Y-20156900D01*
X11846075Y-20156900D02*
X11865122Y-20166424D01*
X12112742Y-20214043D02*
X12265123Y-20214043D01*
X12188932Y-20290234D02*
X12188932Y-20137853D01*
X12598456Y-20156900D02*
X12598456Y-20290234D01*
X12550837Y-20080710D02*
X12503218Y-20223567D01*
X12503218Y-20223567D02*
X12627027Y-20223567D01*
X12846075Y-20280710D02*
X12865123Y-20290234D01*
X12865123Y-20290234D02*
X12903218Y-20290234D01*
X12903218Y-20290234D02*
X12922265Y-20280710D01*
X12922265Y-20280710D02*
X12931789Y-20261662D01*
X12931789Y-20261662D02*
X12931789Y-20252139D01*
X12931789Y-20252139D02*
X12922265Y-20233091D01*
X12922265Y-20233091D02*
X12903218Y-20223567D01*
X12903218Y-20223567D02*
X12874646Y-20223567D01*
X12874646Y-20223567D02*
X12855599Y-20214043D01*
X12855599Y-20214043D02*
X12846075Y-20194996D01*
X12846075Y-20194996D02*
X12846075Y-20185472D01*
X12846075Y-20185472D02*
X12855599Y-20166424D01*
X12855599Y-20166424D02*
X12874646Y-20156900D01*
X12874646Y-20156900D02*
X12903218Y-20156900D01*
X12903218Y-20156900D02*
X12922265Y-20166424D01*
X13046075Y-20290234D02*
X13027027Y-20280710D01*
X13027027Y-20280710D02*
X13017504Y-20261662D01*
X13017504Y-20261662D02*
X13017504Y-20090234D01*
X13150837Y-20290234D02*
X13131789Y-20280710D01*
X13131789Y-20280710D02*
X13122265Y-20271186D01*
X13122265Y-20271186D02*
X13112742Y-20252139D01*
X13112742Y-20252139D02*
X13112742Y-20194996D01*
X13112742Y-20194996D02*
X13122265Y-20175948D01*
X13122265Y-20175948D02*
X13131789Y-20166424D01*
X13131789Y-20166424D02*
X13150837Y-20156900D01*
X13150837Y-20156900D02*
X13179408Y-20156900D01*
X13179408Y-20156900D02*
X13198456Y-20166424D01*
X13198456Y-20166424D02*
X13207980Y-20175948D01*
X13207980Y-20175948D02*
X13217504Y-20194996D01*
X13217504Y-20194996D02*
X13217504Y-20252139D01*
X13217504Y-20252139D02*
X13207980Y-20271186D01*
X13207980Y-20271186D02*
X13198456Y-20280710D01*
X13198456Y-20280710D02*
X13179408Y-20290234D01*
X13179408Y-20290234D02*
X13150837Y-20290234D01*
X13274646Y-20156900D02*
X13350837Y-20156900D01*
X13303218Y-20090234D02*
X13303218Y-20261662D01*
X13303218Y-20261662D02*
X13312742Y-20280710D01*
X13312742Y-20280710D02*
X13331789Y-20290234D01*
X13331789Y-20290234D02*
X13350837Y-20290234D01*
X13407980Y-20280710D02*
X13427027Y-20290234D01*
X13427027Y-20290234D02*
X13465123Y-20290234D01*
X13465123Y-20290234D02*
X13484170Y-20280710D01*
X13484170Y-20280710D02*
X13493694Y-20261662D01*
X13493694Y-20261662D02*
X13493694Y-20252139D01*
X13493694Y-20252139D02*
X13484170Y-20233091D01*
X13484170Y-20233091D02*
X13465123Y-20223567D01*
X13465123Y-20223567D02*
X13436551Y-20223567D01*
X13436551Y-20223567D02*
X13417504Y-20214043D01*
X13417504Y-20214043D02*
X13407980Y-20194996D01*
X13407980Y-20194996D02*
X13407980Y-20185472D01*
X13407980Y-20185472D02*
X13417504Y-20166424D01*
X13417504Y-20166424D02*
X13436551Y-20156900D01*
X13436551Y-20156900D02*
X13465123Y-20156900D01*
X13465123Y-20156900D02*
X13484170Y-20166424D01*
X13560361Y-20366424D02*
X13569885Y-20356900D01*
X13569885Y-20356900D02*
X13588932Y-20328329D01*
X13588932Y-20328329D02*
X13598456Y-20309281D01*
X13598456Y-20309281D02*
X13607980Y-20280710D01*
X13607980Y-20280710D02*
X13617504Y-20233091D01*
X13617504Y-20233091D02*
X13617504Y-20194996D01*
X13617504Y-20194996D02*
X13607980Y-20147377D01*
X13607980Y-20147377D02*
X13598456Y-20118805D01*
X13598456Y-20118805D02*
X13588932Y-20099758D01*
X13588932Y-20099758D02*
X13569885Y-20071186D01*
X13569885Y-20071186D02*
X13560361Y-20061662D01*
D16*
X7066250Y-20412750D02*
X7166250Y-20512750D01*
X7166250Y-20412750D02*
X7066250Y-20512750D01*
X7116250Y-20412750D02*
X7116250Y-20512750D01*
X7066250Y-20462750D02*
X7166250Y-20462750D01*
D10*
X7531789Y-20554234D02*
X7417503Y-20554234D01*
X7474646Y-20554234D02*
X7474646Y-20354234D01*
X7474646Y-20354234D02*
X7455598Y-20382805D01*
X7455598Y-20382805D02*
X7436551Y-20401853D01*
X7436551Y-20401853D02*
X7417503Y-20411377D01*
X7617503Y-20535186D02*
X7627027Y-20544710D01*
X7627027Y-20544710D02*
X7617503Y-20554234D01*
X7617503Y-20554234D02*
X7607979Y-20544710D01*
X7607979Y-20544710D02*
X7617503Y-20535186D01*
X7617503Y-20535186D02*
X7617503Y-20554234D01*
X7750836Y-20354234D02*
X7769884Y-20354234D01*
X7769884Y-20354234D02*
X7788932Y-20363758D01*
X7788932Y-20363758D02*
X7798455Y-20373281D01*
X7798455Y-20373281D02*
X7807979Y-20392329D01*
X7807979Y-20392329D02*
X7817503Y-20430424D01*
X7817503Y-20430424D02*
X7817503Y-20478043D01*
X7817503Y-20478043D02*
X7807979Y-20516139D01*
X7807979Y-20516139D02*
X7798455Y-20535186D01*
X7798455Y-20535186D02*
X7788932Y-20544710D01*
X7788932Y-20544710D02*
X7769884Y-20554234D01*
X7769884Y-20554234D02*
X7750836Y-20554234D01*
X7750836Y-20554234D02*
X7731789Y-20544710D01*
X7731789Y-20544710D02*
X7722265Y-20535186D01*
X7722265Y-20535186D02*
X7712741Y-20516139D01*
X7712741Y-20516139D02*
X7703217Y-20478043D01*
X7703217Y-20478043D02*
X7703217Y-20430424D01*
X7703217Y-20430424D02*
X7712741Y-20392329D01*
X7712741Y-20392329D02*
X7722265Y-20373281D01*
X7722265Y-20373281D02*
X7731789Y-20363758D01*
X7731789Y-20363758D02*
X7750836Y-20354234D01*
X7941312Y-20354234D02*
X7960360Y-20354234D01*
X7960360Y-20354234D02*
X7979408Y-20363758D01*
X7979408Y-20363758D02*
X7988932Y-20373281D01*
X7988932Y-20373281D02*
X7998455Y-20392329D01*
X7998455Y-20392329D02*
X8007979Y-20430424D01*
X8007979Y-20430424D02*
X8007979Y-20478043D01*
X8007979Y-20478043D02*
X7998455Y-20516139D01*
X7998455Y-20516139D02*
X7988932Y-20535186D01*
X7988932Y-20535186D02*
X7979408Y-20544710D01*
X7979408Y-20544710D02*
X7960360Y-20554234D01*
X7960360Y-20554234D02*
X7941312Y-20554234D01*
X7941312Y-20554234D02*
X7922265Y-20544710D01*
X7922265Y-20544710D02*
X7912741Y-20535186D01*
X7912741Y-20535186D02*
X7903217Y-20516139D01*
X7903217Y-20516139D02*
X7893693Y-20478043D01*
X7893693Y-20478043D02*
X7893693Y-20430424D01*
X7893693Y-20430424D02*
X7903217Y-20392329D01*
X7903217Y-20392329D02*
X7912741Y-20373281D01*
X7912741Y-20373281D02*
X7922265Y-20363758D01*
X7922265Y-20363758D02*
X7941312Y-20354234D01*
X8131789Y-20354234D02*
X8150836Y-20354234D01*
X8150836Y-20354234D02*
X8169884Y-20363758D01*
X8169884Y-20363758D02*
X8179408Y-20373281D01*
X8179408Y-20373281D02*
X8188932Y-20392329D01*
X8188932Y-20392329D02*
X8198455Y-20430424D01*
X8198455Y-20430424D02*
X8198455Y-20478043D01*
X8198455Y-20478043D02*
X8188932Y-20516139D01*
X8188932Y-20516139D02*
X8179408Y-20535186D01*
X8179408Y-20535186D02*
X8169884Y-20544710D01*
X8169884Y-20544710D02*
X8150836Y-20554234D01*
X8150836Y-20554234D02*
X8131789Y-20554234D01*
X8131789Y-20554234D02*
X8112741Y-20544710D01*
X8112741Y-20544710D02*
X8103217Y-20535186D01*
X8103217Y-20535186D02*
X8093693Y-20516139D01*
X8093693Y-20516139D02*
X8084170Y-20478043D01*
X8084170Y-20478043D02*
X8084170Y-20430424D01*
X8084170Y-20430424D02*
X8093693Y-20392329D01*
X8093693Y-20392329D02*
X8103217Y-20373281D01*
X8103217Y-20373281D02*
X8112741Y-20363758D01*
X8112741Y-20363758D02*
X8131789Y-20354234D01*
X8284170Y-20554234D02*
X8284170Y-20420900D01*
X8284170Y-20439948D02*
X8293693Y-20430424D01*
X8293693Y-20430424D02*
X8312741Y-20420900D01*
X8312741Y-20420900D02*
X8341313Y-20420900D01*
X8341313Y-20420900D02*
X8360360Y-20430424D01*
X8360360Y-20430424D02*
X8369884Y-20449472D01*
X8369884Y-20449472D02*
X8369884Y-20554234D01*
X8369884Y-20449472D02*
X8379408Y-20430424D01*
X8379408Y-20430424D02*
X8398455Y-20420900D01*
X8398455Y-20420900D02*
X8427027Y-20420900D01*
X8427027Y-20420900D02*
X8446075Y-20430424D01*
X8446075Y-20430424D02*
X8455598Y-20449472D01*
X8455598Y-20449472D02*
X8455598Y-20554234D01*
X8550836Y-20554234D02*
X8550836Y-20420900D01*
X8550836Y-20439948D02*
X8560360Y-20430424D01*
X8560360Y-20430424D02*
X8579408Y-20420900D01*
X8579408Y-20420900D02*
X8607979Y-20420900D01*
X8607979Y-20420900D02*
X8627027Y-20430424D01*
X8627027Y-20430424D02*
X8636551Y-20449472D01*
X8636551Y-20449472D02*
X8636551Y-20554234D01*
X8636551Y-20449472D02*
X8646075Y-20430424D01*
X8646075Y-20430424D02*
X8665122Y-20420900D01*
X8665122Y-20420900D02*
X8693694Y-20420900D01*
X8693694Y-20420900D02*
X8712741Y-20430424D01*
X8712741Y-20430424D02*
X8722265Y-20449472D01*
X8722265Y-20449472D02*
X8722265Y-20554234D01*
X9112741Y-20344710D02*
X8941313Y-20601853D01*
X9369884Y-20354234D02*
X9388932Y-20354234D01*
X9388932Y-20354234D02*
X9407979Y-20363758D01*
X9407979Y-20363758D02*
X9417503Y-20373281D01*
X9417503Y-20373281D02*
X9427027Y-20392329D01*
X9427027Y-20392329D02*
X9436551Y-20430424D01*
X9436551Y-20430424D02*
X9436551Y-20478043D01*
X9436551Y-20478043D02*
X9427027Y-20516139D01*
X9427027Y-20516139D02*
X9417503Y-20535186D01*
X9417503Y-20535186D02*
X9407979Y-20544710D01*
X9407979Y-20544710D02*
X9388932Y-20554234D01*
X9388932Y-20554234D02*
X9369884Y-20554234D01*
X9369884Y-20554234D02*
X9350837Y-20544710D01*
X9350837Y-20544710D02*
X9341313Y-20535186D01*
X9341313Y-20535186D02*
X9331789Y-20516139D01*
X9331789Y-20516139D02*
X9322265Y-20478043D01*
X9322265Y-20478043D02*
X9322265Y-20430424D01*
X9322265Y-20430424D02*
X9331789Y-20392329D01*
X9331789Y-20392329D02*
X9341313Y-20373281D01*
X9341313Y-20373281D02*
X9350837Y-20363758D01*
X9350837Y-20363758D02*
X9369884Y-20354234D01*
X9522265Y-20535186D02*
X9531789Y-20544710D01*
X9531789Y-20544710D02*
X9522265Y-20554234D01*
X9522265Y-20554234D02*
X9512741Y-20544710D01*
X9512741Y-20544710D02*
X9522265Y-20535186D01*
X9522265Y-20535186D02*
X9522265Y-20554234D01*
X9655598Y-20354234D02*
X9674646Y-20354234D01*
X9674646Y-20354234D02*
X9693694Y-20363758D01*
X9693694Y-20363758D02*
X9703218Y-20373281D01*
X9703218Y-20373281D02*
X9712741Y-20392329D01*
X9712741Y-20392329D02*
X9722265Y-20430424D01*
X9722265Y-20430424D02*
X9722265Y-20478043D01*
X9722265Y-20478043D02*
X9712741Y-20516139D01*
X9712741Y-20516139D02*
X9703218Y-20535186D01*
X9703218Y-20535186D02*
X9693694Y-20544710D01*
X9693694Y-20544710D02*
X9674646Y-20554234D01*
X9674646Y-20554234D02*
X9655598Y-20554234D01*
X9655598Y-20554234D02*
X9636551Y-20544710D01*
X9636551Y-20544710D02*
X9627027Y-20535186D01*
X9627027Y-20535186D02*
X9617503Y-20516139D01*
X9617503Y-20516139D02*
X9607979Y-20478043D01*
X9607979Y-20478043D02*
X9607979Y-20430424D01*
X9607979Y-20430424D02*
X9617503Y-20392329D01*
X9617503Y-20392329D02*
X9627027Y-20373281D01*
X9627027Y-20373281D02*
X9636551Y-20363758D01*
X9636551Y-20363758D02*
X9655598Y-20354234D01*
X9788932Y-20354234D02*
X9912741Y-20354234D01*
X9912741Y-20354234D02*
X9846075Y-20430424D01*
X9846075Y-20430424D02*
X9874646Y-20430424D01*
X9874646Y-20430424D02*
X9893694Y-20439948D01*
X9893694Y-20439948D02*
X9903218Y-20449472D01*
X9903218Y-20449472D02*
X9912741Y-20468520D01*
X9912741Y-20468520D02*
X9912741Y-20516139D01*
X9912741Y-20516139D02*
X9903218Y-20535186D01*
X9903218Y-20535186D02*
X9893694Y-20544710D01*
X9893694Y-20544710D02*
X9874646Y-20554234D01*
X9874646Y-20554234D02*
X9817503Y-20554234D01*
X9817503Y-20554234D02*
X9798456Y-20544710D01*
X9798456Y-20544710D02*
X9788932Y-20535186D01*
X10007979Y-20554234D02*
X10046075Y-20554234D01*
X10046075Y-20554234D02*
X10065122Y-20544710D01*
X10065122Y-20544710D02*
X10074646Y-20535186D01*
X10074646Y-20535186D02*
X10093694Y-20506615D01*
X10093694Y-20506615D02*
X10103218Y-20468520D01*
X10103218Y-20468520D02*
X10103218Y-20392329D01*
X10103218Y-20392329D02*
X10093694Y-20373281D01*
X10093694Y-20373281D02*
X10084170Y-20363758D01*
X10084170Y-20363758D02*
X10065122Y-20354234D01*
X10065122Y-20354234D02*
X10027027Y-20354234D01*
X10027027Y-20354234D02*
X10007979Y-20363758D01*
X10007979Y-20363758D02*
X9998456Y-20373281D01*
X9998456Y-20373281D02*
X9988932Y-20392329D01*
X9988932Y-20392329D02*
X9988932Y-20439948D01*
X9988932Y-20439948D02*
X9998456Y-20458996D01*
X9998456Y-20458996D02*
X10007979Y-20468520D01*
X10007979Y-20468520D02*
X10027027Y-20478043D01*
X10027027Y-20478043D02*
X10065122Y-20478043D01*
X10065122Y-20478043D02*
X10084170Y-20468520D01*
X10084170Y-20468520D02*
X10093694Y-20458996D01*
X10093694Y-20458996D02*
X10103218Y-20439948D01*
X10274646Y-20420900D02*
X10274646Y-20554234D01*
X10227027Y-20344710D02*
X10179408Y-20487567D01*
X10179408Y-20487567D02*
X10303218Y-20487567D01*
X10369884Y-20354234D02*
X10369884Y-20392329D01*
X10446075Y-20354234D02*
X10446075Y-20392329D01*
X10741313Y-20630424D02*
X10731789Y-20620900D01*
X10731789Y-20620900D02*
X10712741Y-20592329D01*
X10712741Y-20592329D02*
X10703218Y-20573281D01*
X10703218Y-20573281D02*
X10693694Y-20544710D01*
X10693694Y-20544710D02*
X10684170Y-20497091D01*
X10684170Y-20497091D02*
X10684170Y-20458996D01*
X10684170Y-20458996D02*
X10693694Y-20411377D01*
X10693694Y-20411377D02*
X10703218Y-20382805D01*
X10703218Y-20382805D02*
X10712741Y-20363758D01*
X10712741Y-20363758D02*
X10731789Y-20335186D01*
X10731789Y-20335186D02*
X10741313Y-20325662D01*
X10846075Y-20439948D02*
X10827027Y-20430424D01*
X10827027Y-20430424D02*
X10817503Y-20420900D01*
X10817503Y-20420900D02*
X10807980Y-20401853D01*
X10807980Y-20401853D02*
X10807980Y-20392329D01*
X10807980Y-20392329D02*
X10817503Y-20373281D01*
X10817503Y-20373281D02*
X10827027Y-20363758D01*
X10827027Y-20363758D02*
X10846075Y-20354234D01*
X10846075Y-20354234D02*
X10884170Y-20354234D01*
X10884170Y-20354234D02*
X10903218Y-20363758D01*
X10903218Y-20363758D02*
X10912741Y-20373281D01*
X10912741Y-20373281D02*
X10922265Y-20392329D01*
X10922265Y-20392329D02*
X10922265Y-20401853D01*
X10922265Y-20401853D02*
X10912741Y-20420900D01*
X10912741Y-20420900D02*
X10903218Y-20430424D01*
X10903218Y-20430424D02*
X10884170Y-20439948D01*
X10884170Y-20439948D02*
X10846075Y-20439948D01*
X10846075Y-20439948D02*
X10827027Y-20449472D01*
X10827027Y-20449472D02*
X10817503Y-20458996D01*
X10817503Y-20458996D02*
X10807980Y-20478043D01*
X10807980Y-20478043D02*
X10807980Y-20516139D01*
X10807980Y-20516139D02*
X10817503Y-20535186D01*
X10817503Y-20535186D02*
X10827027Y-20544710D01*
X10827027Y-20544710D02*
X10846075Y-20554234D01*
X10846075Y-20554234D02*
X10884170Y-20554234D01*
X10884170Y-20554234D02*
X10903218Y-20544710D01*
X10903218Y-20544710D02*
X10912741Y-20535186D01*
X10912741Y-20535186D02*
X10922265Y-20516139D01*
X10922265Y-20516139D02*
X10922265Y-20478043D01*
X10922265Y-20478043D02*
X10912741Y-20458996D01*
X10912741Y-20458996D02*
X10903218Y-20449472D01*
X10903218Y-20449472D02*
X10884170Y-20439948D01*
X11160361Y-20554234D02*
X11160361Y-20354234D01*
X11246075Y-20554234D02*
X11246075Y-20449472D01*
X11246075Y-20449472D02*
X11236551Y-20430424D01*
X11236551Y-20430424D02*
X11217503Y-20420900D01*
X11217503Y-20420900D02*
X11188932Y-20420900D01*
X11188932Y-20420900D02*
X11169884Y-20430424D01*
X11169884Y-20430424D02*
X11160361Y-20439948D01*
X11369884Y-20554234D02*
X11350837Y-20544710D01*
X11350837Y-20544710D02*
X11341313Y-20535186D01*
X11341313Y-20535186D02*
X11331789Y-20516139D01*
X11331789Y-20516139D02*
X11331789Y-20458996D01*
X11331789Y-20458996D02*
X11341313Y-20439948D01*
X11341313Y-20439948D02*
X11350837Y-20430424D01*
X11350837Y-20430424D02*
X11369884Y-20420900D01*
X11369884Y-20420900D02*
X11398456Y-20420900D01*
X11398456Y-20420900D02*
X11417503Y-20430424D01*
X11417503Y-20430424D02*
X11427027Y-20439948D01*
X11427027Y-20439948D02*
X11436551Y-20458996D01*
X11436551Y-20458996D02*
X11436551Y-20516139D01*
X11436551Y-20516139D02*
X11427027Y-20535186D01*
X11427027Y-20535186D02*
X11417503Y-20544710D01*
X11417503Y-20544710D02*
X11398456Y-20554234D01*
X11398456Y-20554234D02*
X11369884Y-20554234D01*
X11550837Y-20554234D02*
X11531789Y-20544710D01*
X11531789Y-20544710D02*
X11522265Y-20525662D01*
X11522265Y-20525662D02*
X11522265Y-20354234D01*
X11703218Y-20544710D02*
X11684170Y-20554234D01*
X11684170Y-20554234D02*
X11646075Y-20554234D01*
X11646075Y-20554234D02*
X11627027Y-20544710D01*
X11627027Y-20544710D02*
X11617503Y-20525662D01*
X11617503Y-20525662D02*
X11617503Y-20449472D01*
X11617503Y-20449472D02*
X11627027Y-20430424D01*
X11627027Y-20430424D02*
X11646075Y-20420900D01*
X11646075Y-20420900D02*
X11684170Y-20420900D01*
X11684170Y-20420900D02*
X11703218Y-20430424D01*
X11703218Y-20430424D02*
X11712741Y-20449472D01*
X11712741Y-20449472D02*
X11712741Y-20468520D01*
X11712741Y-20468520D02*
X11617503Y-20487567D01*
X11788932Y-20544710D02*
X11807980Y-20554234D01*
X11807980Y-20554234D02*
X11846075Y-20554234D01*
X11846075Y-20554234D02*
X11865122Y-20544710D01*
X11865122Y-20544710D02*
X11874646Y-20525662D01*
X11874646Y-20525662D02*
X11874646Y-20516139D01*
X11874646Y-20516139D02*
X11865122Y-20497091D01*
X11865122Y-20497091D02*
X11846075Y-20487567D01*
X11846075Y-20487567D02*
X11817503Y-20487567D01*
X11817503Y-20487567D02*
X11798456Y-20478043D01*
X11798456Y-20478043D02*
X11788932Y-20458996D01*
X11788932Y-20458996D02*
X11788932Y-20449472D01*
X11788932Y-20449472D02*
X11798456Y-20430424D01*
X11798456Y-20430424D02*
X11817503Y-20420900D01*
X11817503Y-20420900D02*
X11846075Y-20420900D01*
X11846075Y-20420900D02*
X11865122Y-20430424D01*
X11941313Y-20630424D02*
X11950837Y-20620900D01*
X11950837Y-20620900D02*
X11969884Y-20592329D01*
X11969884Y-20592329D02*
X11979408Y-20573281D01*
X11979408Y-20573281D02*
X11988932Y-20544710D01*
X11988932Y-20544710D02*
X11998456Y-20497091D01*
X11998456Y-20497091D02*
X11998456Y-20458996D01*
X11998456Y-20458996D02*
X11988932Y-20411377D01*
X11988932Y-20411377D02*
X11979408Y-20382805D01*
X11979408Y-20382805D02*
X11969884Y-20363758D01*
X11969884Y-20363758D02*
X11950837Y-20335186D01*
X11950837Y-20335186D02*
X11941313Y-20325662D01*
D17*
X7019250Y-20653250D02*
X7166250Y-20800250D01*
X7166250Y-20653250D02*
X7019250Y-20800250D01*
X7144723Y-20778723D02*
X7144723Y-20674777D01*
X7040777Y-20674777D01*
X7040777Y-20778723D01*
X7144723Y-20778723D01*
D10*
X7531789Y-20818234D02*
X7417503Y-20818234D01*
X7474646Y-20818234D02*
X7474646Y-20618234D01*
X7474646Y-20618234D02*
X7455598Y-20646805D01*
X7455598Y-20646805D02*
X7436551Y-20665853D01*
X7436551Y-20665853D02*
X7417503Y-20675377D01*
X7617503Y-20799186D02*
X7627027Y-20808710D01*
X7627027Y-20808710D02*
X7617503Y-20818234D01*
X7617503Y-20818234D02*
X7607979Y-20808710D01*
X7607979Y-20808710D02*
X7617503Y-20799186D01*
X7617503Y-20799186D02*
X7617503Y-20818234D01*
X7798455Y-20684900D02*
X7798455Y-20818234D01*
X7750836Y-20608710D02*
X7703217Y-20751567D01*
X7703217Y-20751567D02*
X7827027Y-20751567D01*
X7884170Y-20618234D02*
X8017503Y-20618234D01*
X8017503Y-20618234D02*
X7931789Y-20818234D01*
X8131789Y-20618234D02*
X8150836Y-20618234D01*
X8150836Y-20618234D02*
X8169884Y-20627758D01*
X8169884Y-20627758D02*
X8179408Y-20637281D01*
X8179408Y-20637281D02*
X8188932Y-20656329D01*
X8188932Y-20656329D02*
X8198455Y-20694424D01*
X8198455Y-20694424D02*
X8198455Y-20742043D01*
X8198455Y-20742043D02*
X8188932Y-20780139D01*
X8188932Y-20780139D02*
X8179408Y-20799186D01*
X8179408Y-20799186D02*
X8169884Y-20808710D01*
X8169884Y-20808710D02*
X8150836Y-20818234D01*
X8150836Y-20818234D02*
X8131789Y-20818234D01*
X8131789Y-20818234D02*
X8112741Y-20808710D01*
X8112741Y-20808710D02*
X8103217Y-20799186D01*
X8103217Y-20799186D02*
X8093693Y-20780139D01*
X8093693Y-20780139D02*
X8084170Y-20742043D01*
X8084170Y-20742043D02*
X8084170Y-20694424D01*
X8084170Y-20694424D02*
X8093693Y-20656329D01*
X8093693Y-20656329D02*
X8103217Y-20637281D01*
X8103217Y-20637281D02*
X8112741Y-20627758D01*
X8112741Y-20627758D02*
X8131789Y-20618234D01*
X8284170Y-20818234D02*
X8284170Y-20684900D01*
X8284170Y-20703948D02*
X8293693Y-20694424D01*
X8293693Y-20694424D02*
X8312741Y-20684900D01*
X8312741Y-20684900D02*
X8341313Y-20684900D01*
X8341313Y-20684900D02*
X8360360Y-20694424D01*
X8360360Y-20694424D02*
X8369884Y-20713472D01*
X8369884Y-20713472D02*
X8369884Y-20818234D01*
X8369884Y-20713472D02*
X8379408Y-20694424D01*
X8379408Y-20694424D02*
X8398455Y-20684900D01*
X8398455Y-20684900D02*
X8427027Y-20684900D01*
X8427027Y-20684900D02*
X8446075Y-20694424D01*
X8446075Y-20694424D02*
X8455598Y-20713472D01*
X8455598Y-20713472D02*
X8455598Y-20818234D01*
X8550836Y-20818234D02*
X8550836Y-20684900D01*
X8550836Y-20703948D02*
X8560360Y-20694424D01*
X8560360Y-20694424D02*
X8579408Y-20684900D01*
X8579408Y-20684900D02*
X8607979Y-20684900D01*
X8607979Y-20684900D02*
X8627027Y-20694424D01*
X8627027Y-20694424D02*
X8636551Y-20713472D01*
X8636551Y-20713472D02*
X8636551Y-20818234D01*
X8636551Y-20713472D02*
X8646075Y-20694424D01*
X8646075Y-20694424D02*
X8665122Y-20684900D01*
X8665122Y-20684900D02*
X8693694Y-20684900D01*
X8693694Y-20684900D02*
X8712741Y-20694424D01*
X8712741Y-20694424D02*
X8722265Y-20713472D01*
X8722265Y-20713472D02*
X8722265Y-20818234D01*
X9112741Y-20608710D02*
X8941313Y-20865853D01*
X9369884Y-20618234D02*
X9388932Y-20618234D01*
X9388932Y-20618234D02*
X9407979Y-20627758D01*
X9407979Y-20627758D02*
X9417503Y-20637281D01*
X9417503Y-20637281D02*
X9427027Y-20656329D01*
X9427027Y-20656329D02*
X9436551Y-20694424D01*
X9436551Y-20694424D02*
X9436551Y-20742043D01*
X9436551Y-20742043D02*
X9427027Y-20780139D01*
X9427027Y-20780139D02*
X9417503Y-20799186D01*
X9417503Y-20799186D02*
X9407979Y-20808710D01*
X9407979Y-20808710D02*
X9388932Y-20818234D01*
X9388932Y-20818234D02*
X9369884Y-20818234D01*
X9369884Y-20818234D02*
X9350837Y-20808710D01*
X9350837Y-20808710D02*
X9341313Y-20799186D01*
X9341313Y-20799186D02*
X9331789Y-20780139D01*
X9331789Y-20780139D02*
X9322265Y-20742043D01*
X9322265Y-20742043D02*
X9322265Y-20694424D01*
X9322265Y-20694424D02*
X9331789Y-20656329D01*
X9331789Y-20656329D02*
X9341313Y-20637281D01*
X9341313Y-20637281D02*
X9350837Y-20627758D01*
X9350837Y-20627758D02*
X9369884Y-20618234D01*
X9522265Y-20799186D02*
X9531789Y-20808710D01*
X9531789Y-20808710D02*
X9522265Y-20818234D01*
X9522265Y-20818234D02*
X9512741Y-20808710D01*
X9512741Y-20808710D02*
X9522265Y-20799186D01*
X9522265Y-20799186D02*
X9522265Y-20818234D01*
X9655598Y-20618234D02*
X9674646Y-20618234D01*
X9674646Y-20618234D02*
X9693694Y-20627758D01*
X9693694Y-20627758D02*
X9703218Y-20637281D01*
X9703218Y-20637281D02*
X9712741Y-20656329D01*
X9712741Y-20656329D02*
X9722265Y-20694424D01*
X9722265Y-20694424D02*
X9722265Y-20742043D01*
X9722265Y-20742043D02*
X9712741Y-20780139D01*
X9712741Y-20780139D02*
X9703218Y-20799186D01*
X9703218Y-20799186D02*
X9693694Y-20808710D01*
X9693694Y-20808710D02*
X9674646Y-20818234D01*
X9674646Y-20818234D02*
X9655598Y-20818234D01*
X9655598Y-20818234D02*
X9636551Y-20808710D01*
X9636551Y-20808710D02*
X9627027Y-20799186D01*
X9627027Y-20799186D02*
X9617503Y-20780139D01*
X9617503Y-20780139D02*
X9607979Y-20742043D01*
X9607979Y-20742043D02*
X9607979Y-20694424D01*
X9607979Y-20694424D02*
X9617503Y-20656329D01*
X9617503Y-20656329D02*
X9627027Y-20637281D01*
X9627027Y-20637281D02*
X9636551Y-20627758D01*
X9636551Y-20627758D02*
X9655598Y-20618234D01*
X9903218Y-20618234D02*
X9807979Y-20618234D01*
X9807979Y-20618234D02*
X9798456Y-20713472D01*
X9798456Y-20713472D02*
X9807979Y-20703948D01*
X9807979Y-20703948D02*
X9827027Y-20694424D01*
X9827027Y-20694424D02*
X9874646Y-20694424D01*
X9874646Y-20694424D02*
X9893694Y-20703948D01*
X9893694Y-20703948D02*
X9903218Y-20713472D01*
X9903218Y-20713472D02*
X9912741Y-20732520D01*
X9912741Y-20732520D02*
X9912741Y-20780139D01*
X9912741Y-20780139D02*
X9903218Y-20799186D01*
X9903218Y-20799186D02*
X9893694Y-20808710D01*
X9893694Y-20808710D02*
X9874646Y-20818234D01*
X9874646Y-20818234D02*
X9827027Y-20818234D01*
X9827027Y-20818234D02*
X9807979Y-20808710D01*
X9807979Y-20808710D02*
X9798456Y-20799186D01*
X9979408Y-20618234D02*
X10112741Y-20618234D01*
X10112741Y-20618234D02*
X10027027Y-20818234D01*
X10198456Y-20818234D02*
X10236551Y-20818234D01*
X10236551Y-20818234D02*
X10255599Y-20808710D01*
X10255599Y-20808710D02*
X10265122Y-20799186D01*
X10265122Y-20799186D02*
X10284170Y-20770615D01*
X10284170Y-20770615D02*
X10293694Y-20732520D01*
X10293694Y-20732520D02*
X10293694Y-20656329D01*
X10293694Y-20656329D02*
X10284170Y-20637281D01*
X10284170Y-20637281D02*
X10274646Y-20627758D01*
X10274646Y-20627758D02*
X10255599Y-20618234D01*
X10255599Y-20618234D02*
X10217503Y-20618234D01*
X10217503Y-20618234D02*
X10198456Y-20627758D01*
X10198456Y-20627758D02*
X10188932Y-20637281D01*
X10188932Y-20637281D02*
X10179408Y-20656329D01*
X10179408Y-20656329D02*
X10179408Y-20703948D01*
X10179408Y-20703948D02*
X10188932Y-20722996D01*
X10188932Y-20722996D02*
X10198456Y-20732520D01*
X10198456Y-20732520D02*
X10217503Y-20742043D01*
X10217503Y-20742043D02*
X10255599Y-20742043D01*
X10255599Y-20742043D02*
X10274646Y-20732520D01*
X10274646Y-20732520D02*
X10284170Y-20722996D01*
X10284170Y-20722996D02*
X10293694Y-20703948D01*
X10369884Y-20618234D02*
X10369884Y-20656329D01*
X10446075Y-20618234D02*
X10446075Y-20656329D01*
X10741313Y-20894424D02*
X10731789Y-20884900D01*
X10731789Y-20884900D02*
X10712741Y-20856329D01*
X10712741Y-20856329D02*
X10703218Y-20837281D01*
X10703218Y-20837281D02*
X10693694Y-20808710D01*
X10693694Y-20808710D02*
X10684170Y-20761091D01*
X10684170Y-20761091D02*
X10684170Y-20722996D01*
X10684170Y-20722996D02*
X10693694Y-20675377D01*
X10693694Y-20675377D02*
X10703218Y-20646805D01*
X10703218Y-20646805D02*
X10712741Y-20627758D01*
X10712741Y-20627758D02*
X10731789Y-20599186D01*
X10731789Y-20599186D02*
X10741313Y-20589662D01*
X10922265Y-20818234D02*
X10807980Y-20818234D01*
X10865122Y-20818234D02*
X10865122Y-20618234D01*
X10865122Y-20618234D02*
X10846075Y-20646805D01*
X10846075Y-20646805D02*
X10827027Y-20665853D01*
X10827027Y-20665853D02*
X10807980Y-20675377D01*
X10998456Y-20637281D02*
X11007980Y-20627758D01*
X11007980Y-20627758D02*
X11027027Y-20618234D01*
X11027027Y-20618234D02*
X11074646Y-20618234D01*
X11074646Y-20618234D02*
X11093694Y-20627758D01*
X11093694Y-20627758D02*
X11103218Y-20637281D01*
X11103218Y-20637281D02*
X11112741Y-20656329D01*
X11112741Y-20656329D02*
X11112741Y-20675377D01*
X11112741Y-20675377D02*
X11103218Y-20703948D01*
X11103218Y-20703948D02*
X10988932Y-20818234D01*
X10988932Y-20818234D02*
X11112741Y-20818234D01*
X11227027Y-20703948D02*
X11207979Y-20694424D01*
X11207979Y-20694424D02*
X11198456Y-20684900D01*
X11198456Y-20684900D02*
X11188932Y-20665853D01*
X11188932Y-20665853D02*
X11188932Y-20656329D01*
X11188932Y-20656329D02*
X11198456Y-20637281D01*
X11198456Y-20637281D02*
X11207979Y-20627758D01*
X11207979Y-20627758D02*
X11227027Y-20618234D01*
X11227027Y-20618234D02*
X11265122Y-20618234D01*
X11265122Y-20618234D02*
X11284170Y-20627758D01*
X11284170Y-20627758D02*
X11293694Y-20637281D01*
X11293694Y-20637281D02*
X11303218Y-20656329D01*
X11303218Y-20656329D02*
X11303218Y-20665853D01*
X11303218Y-20665853D02*
X11293694Y-20684900D01*
X11293694Y-20684900D02*
X11284170Y-20694424D01*
X11284170Y-20694424D02*
X11265122Y-20703948D01*
X11265122Y-20703948D02*
X11227027Y-20703948D01*
X11227027Y-20703948D02*
X11207979Y-20713472D01*
X11207979Y-20713472D02*
X11198456Y-20722996D01*
X11198456Y-20722996D02*
X11188932Y-20742043D01*
X11188932Y-20742043D02*
X11188932Y-20780139D01*
X11188932Y-20780139D02*
X11198456Y-20799186D01*
X11198456Y-20799186D02*
X11207979Y-20808710D01*
X11207979Y-20808710D02*
X11227027Y-20818234D01*
X11227027Y-20818234D02*
X11265122Y-20818234D01*
X11265122Y-20818234D02*
X11284170Y-20808710D01*
X11284170Y-20808710D02*
X11293694Y-20799186D01*
X11293694Y-20799186D02*
X11303218Y-20780139D01*
X11303218Y-20780139D02*
X11303218Y-20742043D01*
X11303218Y-20742043D02*
X11293694Y-20722996D01*
X11293694Y-20722996D02*
X11284170Y-20713472D01*
X11284170Y-20713472D02*
X11265122Y-20703948D01*
X11541313Y-20818234D02*
X11541313Y-20618234D01*
X11627027Y-20818234D02*
X11627027Y-20713472D01*
X11627027Y-20713472D02*
X11617503Y-20694424D01*
X11617503Y-20694424D02*
X11598456Y-20684900D01*
X11598456Y-20684900D02*
X11569884Y-20684900D01*
X11569884Y-20684900D02*
X11550837Y-20694424D01*
X11550837Y-20694424D02*
X11541313Y-20703948D01*
X11750837Y-20818234D02*
X11731789Y-20808710D01*
X11731789Y-20808710D02*
X11722265Y-20799186D01*
X11722265Y-20799186D02*
X11712741Y-20780139D01*
X11712741Y-20780139D02*
X11712741Y-20722996D01*
X11712741Y-20722996D02*
X11722265Y-20703948D01*
X11722265Y-20703948D02*
X11731789Y-20694424D01*
X11731789Y-20694424D02*
X11750837Y-20684900D01*
X11750837Y-20684900D02*
X11779408Y-20684900D01*
X11779408Y-20684900D02*
X11798456Y-20694424D01*
X11798456Y-20694424D02*
X11807980Y-20703948D01*
X11807980Y-20703948D02*
X11817503Y-20722996D01*
X11817503Y-20722996D02*
X11817503Y-20780139D01*
X11817503Y-20780139D02*
X11807980Y-20799186D01*
X11807980Y-20799186D02*
X11798456Y-20808710D01*
X11798456Y-20808710D02*
X11779408Y-20818234D01*
X11779408Y-20818234D02*
X11750837Y-20818234D01*
X11931789Y-20818234D02*
X11912741Y-20808710D01*
X11912741Y-20808710D02*
X11903218Y-20789662D01*
X11903218Y-20789662D02*
X11903218Y-20618234D01*
X12084170Y-20808710D02*
X12065122Y-20818234D01*
X12065122Y-20818234D02*
X12027027Y-20818234D01*
X12027027Y-20818234D02*
X12007980Y-20808710D01*
X12007980Y-20808710D02*
X11998456Y-20789662D01*
X11998456Y-20789662D02*
X11998456Y-20713472D01*
X11998456Y-20713472D02*
X12007980Y-20694424D01*
X12007980Y-20694424D02*
X12027027Y-20684900D01*
X12027027Y-20684900D02*
X12065122Y-20684900D01*
X12065122Y-20684900D02*
X12084170Y-20694424D01*
X12084170Y-20694424D02*
X12093694Y-20713472D01*
X12093694Y-20713472D02*
X12093694Y-20732520D01*
X12093694Y-20732520D02*
X11998456Y-20751567D01*
X12169884Y-20808710D02*
X12188932Y-20818234D01*
X12188932Y-20818234D02*
X12227027Y-20818234D01*
X12227027Y-20818234D02*
X12246075Y-20808710D01*
X12246075Y-20808710D02*
X12255599Y-20789662D01*
X12255599Y-20789662D02*
X12255599Y-20780139D01*
X12255599Y-20780139D02*
X12246075Y-20761091D01*
X12246075Y-20761091D02*
X12227027Y-20751567D01*
X12227027Y-20751567D02*
X12198456Y-20751567D01*
X12198456Y-20751567D02*
X12179408Y-20742043D01*
X12179408Y-20742043D02*
X12169884Y-20722996D01*
X12169884Y-20722996D02*
X12169884Y-20713472D01*
X12169884Y-20713472D02*
X12179408Y-20694424D01*
X12179408Y-20694424D02*
X12198456Y-20684900D01*
X12198456Y-20684900D02*
X12227027Y-20684900D01*
X12227027Y-20684900D02*
X12246075Y-20694424D01*
X12322265Y-20894424D02*
X12331789Y-20884900D01*
X12331789Y-20884900D02*
X12350837Y-20856329D01*
X12350837Y-20856329D02*
X12360361Y-20837281D01*
X12360361Y-20837281D02*
X12369884Y-20808710D01*
X12369884Y-20808710D02*
X12379408Y-20761091D01*
X12379408Y-20761091D02*
X12379408Y-20722996D01*
X12379408Y-20722996D02*
X12369884Y-20675377D01*
X12369884Y-20675377D02*
X12360361Y-20646805D01*
X12360361Y-20646805D02*
X12350837Y-20627758D01*
X12350837Y-20627758D02*
X12331789Y-20599186D01*
X12331789Y-20599186D02*
X12322265Y-20589662D01*
X6966250Y-20893750D02*
X7166250Y-21093750D01*
X7166250Y-20893750D02*
X6966250Y-21093750D01*
X7066250Y-21093750D02*
X7166250Y-20993750D01*
X7066250Y-20893750D01*
X6966250Y-20993750D01*
X7066250Y-21093750D01*
X7417503Y-20904281D02*
X7427027Y-20894758D01*
X7427027Y-20894758D02*
X7446074Y-20885234D01*
X7446074Y-20885234D02*
X7493693Y-20885234D01*
X7493693Y-20885234D02*
X7512741Y-20894758D01*
X7512741Y-20894758D02*
X7522265Y-20904281D01*
X7522265Y-20904281D02*
X7531789Y-20923329D01*
X7531789Y-20923329D02*
X7531789Y-20942377D01*
X7531789Y-20942377D02*
X7522265Y-20970948D01*
X7522265Y-20970948D02*
X7407979Y-21085234D01*
X7407979Y-21085234D02*
X7531789Y-21085234D01*
X7617503Y-21066186D02*
X7627027Y-21075710D01*
X7627027Y-21075710D02*
X7617503Y-21085234D01*
X7617503Y-21085234D02*
X7607979Y-21075710D01*
X7607979Y-21075710D02*
X7617503Y-21066186D01*
X7617503Y-21066186D02*
X7617503Y-21085234D01*
X7798455Y-20951900D02*
X7798455Y-21085234D01*
X7750836Y-20875710D02*
X7703217Y-21018567D01*
X7703217Y-21018567D02*
X7827027Y-21018567D01*
X7912741Y-21085234D02*
X7950836Y-21085234D01*
X7950836Y-21085234D02*
X7969884Y-21075710D01*
X7969884Y-21075710D02*
X7979408Y-21066186D01*
X7979408Y-21066186D02*
X7998455Y-21037615D01*
X7998455Y-21037615D02*
X8007979Y-20999520D01*
X8007979Y-20999520D02*
X8007979Y-20923329D01*
X8007979Y-20923329D02*
X7998455Y-20904281D01*
X7998455Y-20904281D02*
X7988932Y-20894758D01*
X7988932Y-20894758D02*
X7969884Y-20885234D01*
X7969884Y-20885234D02*
X7931789Y-20885234D01*
X7931789Y-20885234D02*
X7912741Y-20894758D01*
X7912741Y-20894758D02*
X7903217Y-20904281D01*
X7903217Y-20904281D02*
X7893693Y-20923329D01*
X7893693Y-20923329D02*
X7893693Y-20970948D01*
X7893693Y-20970948D02*
X7903217Y-20989996D01*
X7903217Y-20989996D02*
X7912741Y-20999520D01*
X7912741Y-20999520D02*
X7931789Y-21009043D01*
X7931789Y-21009043D02*
X7969884Y-21009043D01*
X7969884Y-21009043D02*
X7988932Y-20999520D01*
X7988932Y-20999520D02*
X7998455Y-20989996D01*
X7998455Y-20989996D02*
X8007979Y-20970948D01*
X8103217Y-21085234D02*
X8141312Y-21085234D01*
X8141312Y-21085234D02*
X8160360Y-21075710D01*
X8160360Y-21075710D02*
X8169884Y-21066186D01*
X8169884Y-21066186D02*
X8188932Y-21037615D01*
X8188932Y-21037615D02*
X8198455Y-20999520D01*
X8198455Y-20999520D02*
X8198455Y-20923329D01*
X8198455Y-20923329D02*
X8188932Y-20904281D01*
X8188932Y-20904281D02*
X8179408Y-20894758D01*
X8179408Y-20894758D02*
X8160360Y-20885234D01*
X8160360Y-20885234D02*
X8122265Y-20885234D01*
X8122265Y-20885234D02*
X8103217Y-20894758D01*
X8103217Y-20894758D02*
X8093693Y-20904281D01*
X8093693Y-20904281D02*
X8084170Y-20923329D01*
X8084170Y-20923329D02*
X8084170Y-20970948D01*
X8084170Y-20970948D02*
X8093693Y-20989996D01*
X8093693Y-20989996D02*
X8103217Y-20999520D01*
X8103217Y-20999520D02*
X8122265Y-21009043D01*
X8122265Y-21009043D02*
X8160360Y-21009043D01*
X8160360Y-21009043D02*
X8179408Y-20999520D01*
X8179408Y-20999520D02*
X8188932Y-20989996D01*
X8188932Y-20989996D02*
X8198455Y-20970948D01*
X8284170Y-21085234D02*
X8284170Y-20951900D01*
X8284170Y-20970948D02*
X8293693Y-20961424D01*
X8293693Y-20961424D02*
X8312741Y-20951900D01*
X8312741Y-20951900D02*
X8341313Y-20951900D01*
X8341313Y-20951900D02*
X8360360Y-20961424D01*
X8360360Y-20961424D02*
X8369884Y-20980472D01*
X8369884Y-20980472D02*
X8369884Y-21085234D01*
X8369884Y-20980472D02*
X8379408Y-20961424D01*
X8379408Y-20961424D02*
X8398455Y-20951900D01*
X8398455Y-20951900D02*
X8427027Y-20951900D01*
X8427027Y-20951900D02*
X8446075Y-20961424D01*
X8446075Y-20961424D02*
X8455598Y-20980472D01*
X8455598Y-20980472D02*
X8455598Y-21085234D01*
X8550836Y-21085234D02*
X8550836Y-20951900D01*
X8550836Y-20970948D02*
X8560360Y-20961424D01*
X8560360Y-20961424D02*
X8579408Y-20951900D01*
X8579408Y-20951900D02*
X8607979Y-20951900D01*
X8607979Y-20951900D02*
X8627027Y-20961424D01*
X8627027Y-20961424D02*
X8636551Y-20980472D01*
X8636551Y-20980472D02*
X8636551Y-21085234D01*
X8636551Y-20980472D02*
X8646075Y-20961424D01*
X8646075Y-20961424D02*
X8665122Y-20951900D01*
X8665122Y-20951900D02*
X8693694Y-20951900D01*
X8693694Y-20951900D02*
X8712741Y-20961424D01*
X8712741Y-20961424D02*
X8722265Y-20980472D01*
X8722265Y-20980472D02*
X8722265Y-21085234D01*
X9112741Y-20875710D02*
X8941313Y-21132853D01*
X9369884Y-20885234D02*
X9388932Y-20885234D01*
X9388932Y-20885234D02*
X9407979Y-20894758D01*
X9407979Y-20894758D02*
X9417503Y-20904281D01*
X9417503Y-20904281D02*
X9427027Y-20923329D01*
X9427027Y-20923329D02*
X9436551Y-20961424D01*
X9436551Y-20961424D02*
X9436551Y-21009043D01*
X9436551Y-21009043D02*
X9427027Y-21047139D01*
X9427027Y-21047139D02*
X9417503Y-21066186D01*
X9417503Y-21066186D02*
X9407979Y-21075710D01*
X9407979Y-21075710D02*
X9388932Y-21085234D01*
X9388932Y-21085234D02*
X9369884Y-21085234D01*
X9369884Y-21085234D02*
X9350837Y-21075710D01*
X9350837Y-21075710D02*
X9341313Y-21066186D01*
X9341313Y-21066186D02*
X9331789Y-21047139D01*
X9331789Y-21047139D02*
X9322265Y-21009043D01*
X9322265Y-21009043D02*
X9322265Y-20961424D01*
X9322265Y-20961424D02*
X9331789Y-20923329D01*
X9331789Y-20923329D02*
X9341313Y-20904281D01*
X9341313Y-20904281D02*
X9350837Y-20894758D01*
X9350837Y-20894758D02*
X9369884Y-20885234D01*
X9522265Y-21066186D02*
X9531789Y-21075710D01*
X9531789Y-21075710D02*
X9522265Y-21085234D01*
X9522265Y-21085234D02*
X9512741Y-21075710D01*
X9512741Y-21075710D02*
X9522265Y-21066186D01*
X9522265Y-21066186D02*
X9522265Y-21085234D01*
X9655598Y-20885234D02*
X9674646Y-20885234D01*
X9674646Y-20885234D02*
X9693694Y-20894758D01*
X9693694Y-20894758D02*
X9703218Y-20904281D01*
X9703218Y-20904281D02*
X9712741Y-20923329D01*
X9712741Y-20923329D02*
X9722265Y-20961424D01*
X9722265Y-20961424D02*
X9722265Y-21009043D01*
X9722265Y-21009043D02*
X9712741Y-21047139D01*
X9712741Y-21047139D02*
X9703218Y-21066186D01*
X9703218Y-21066186D02*
X9693694Y-21075710D01*
X9693694Y-21075710D02*
X9674646Y-21085234D01*
X9674646Y-21085234D02*
X9655598Y-21085234D01*
X9655598Y-21085234D02*
X9636551Y-21075710D01*
X9636551Y-21075710D02*
X9627027Y-21066186D01*
X9627027Y-21066186D02*
X9617503Y-21047139D01*
X9617503Y-21047139D02*
X9607979Y-21009043D01*
X9607979Y-21009043D02*
X9607979Y-20961424D01*
X9607979Y-20961424D02*
X9617503Y-20923329D01*
X9617503Y-20923329D02*
X9627027Y-20904281D01*
X9627027Y-20904281D02*
X9636551Y-20894758D01*
X9636551Y-20894758D02*
X9655598Y-20885234D01*
X9817503Y-21085234D02*
X9855598Y-21085234D01*
X9855598Y-21085234D02*
X9874646Y-21075710D01*
X9874646Y-21075710D02*
X9884170Y-21066186D01*
X9884170Y-21066186D02*
X9903218Y-21037615D01*
X9903218Y-21037615D02*
X9912741Y-20999520D01*
X9912741Y-20999520D02*
X9912741Y-20923329D01*
X9912741Y-20923329D02*
X9903218Y-20904281D01*
X9903218Y-20904281D02*
X9893694Y-20894758D01*
X9893694Y-20894758D02*
X9874646Y-20885234D01*
X9874646Y-20885234D02*
X9836551Y-20885234D01*
X9836551Y-20885234D02*
X9817503Y-20894758D01*
X9817503Y-20894758D02*
X9807979Y-20904281D01*
X9807979Y-20904281D02*
X9798456Y-20923329D01*
X9798456Y-20923329D02*
X9798456Y-20970948D01*
X9798456Y-20970948D02*
X9807979Y-20989996D01*
X9807979Y-20989996D02*
X9817503Y-20999520D01*
X9817503Y-20999520D02*
X9836551Y-21009043D01*
X9836551Y-21009043D02*
X9874646Y-21009043D01*
X9874646Y-21009043D02*
X9893694Y-20999520D01*
X9893694Y-20999520D02*
X9903218Y-20989996D01*
X9903218Y-20989996D02*
X9912741Y-20970948D01*
X10027027Y-20970948D02*
X10007979Y-20961424D01*
X10007979Y-20961424D02*
X9998456Y-20951900D01*
X9998456Y-20951900D02*
X9988932Y-20932853D01*
X9988932Y-20932853D02*
X9988932Y-20923329D01*
X9988932Y-20923329D02*
X9998456Y-20904281D01*
X9998456Y-20904281D02*
X10007979Y-20894758D01*
X10007979Y-20894758D02*
X10027027Y-20885234D01*
X10027027Y-20885234D02*
X10065122Y-20885234D01*
X10065122Y-20885234D02*
X10084170Y-20894758D01*
X10084170Y-20894758D02*
X10093694Y-20904281D01*
X10093694Y-20904281D02*
X10103218Y-20923329D01*
X10103218Y-20923329D02*
X10103218Y-20932853D01*
X10103218Y-20932853D02*
X10093694Y-20951900D01*
X10093694Y-20951900D02*
X10084170Y-20961424D01*
X10084170Y-20961424D02*
X10065122Y-20970948D01*
X10065122Y-20970948D02*
X10027027Y-20970948D01*
X10027027Y-20970948D02*
X10007979Y-20980472D01*
X10007979Y-20980472D02*
X9998456Y-20989996D01*
X9998456Y-20989996D02*
X9988932Y-21009043D01*
X9988932Y-21009043D02*
X9988932Y-21047139D01*
X9988932Y-21047139D02*
X9998456Y-21066186D01*
X9998456Y-21066186D02*
X10007979Y-21075710D01*
X10007979Y-21075710D02*
X10027027Y-21085234D01*
X10027027Y-21085234D02*
X10065122Y-21085234D01*
X10065122Y-21085234D02*
X10084170Y-21075710D01*
X10084170Y-21075710D02*
X10093694Y-21066186D01*
X10093694Y-21066186D02*
X10103218Y-21047139D01*
X10103218Y-21047139D02*
X10103218Y-21009043D01*
X10103218Y-21009043D02*
X10093694Y-20989996D01*
X10093694Y-20989996D02*
X10084170Y-20980472D01*
X10084170Y-20980472D02*
X10065122Y-20970948D01*
X10274646Y-20951900D02*
X10274646Y-21085234D01*
X10227027Y-20875710D02*
X10179408Y-21018567D01*
X10179408Y-21018567D02*
X10303218Y-21018567D01*
X10369884Y-20885234D02*
X10369884Y-20923329D01*
X10446075Y-20885234D02*
X10446075Y-20923329D01*
X10741313Y-21161424D02*
X10731789Y-21151900D01*
X10731789Y-21151900D02*
X10712741Y-21123329D01*
X10712741Y-21123329D02*
X10703218Y-21104281D01*
X10703218Y-21104281D02*
X10693694Y-21075710D01*
X10693694Y-21075710D02*
X10684170Y-21028091D01*
X10684170Y-21028091D02*
X10684170Y-20989996D01*
X10684170Y-20989996D02*
X10693694Y-20942377D01*
X10693694Y-20942377D02*
X10703218Y-20913805D01*
X10703218Y-20913805D02*
X10712741Y-20894758D01*
X10712741Y-20894758D02*
X10731789Y-20866186D01*
X10731789Y-20866186D02*
X10741313Y-20856662D01*
X10855599Y-20885234D02*
X10874646Y-20885234D01*
X10874646Y-20885234D02*
X10893694Y-20894758D01*
X10893694Y-20894758D02*
X10903218Y-20904281D01*
X10903218Y-20904281D02*
X10912741Y-20923329D01*
X10912741Y-20923329D02*
X10922265Y-20961424D01*
X10922265Y-20961424D02*
X10922265Y-21009043D01*
X10922265Y-21009043D02*
X10912741Y-21047139D01*
X10912741Y-21047139D02*
X10903218Y-21066186D01*
X10903218Y-21066186D02*
X10893694Y-21075710D01*
X10893694Y-21075710D02*
X10874646Y-21085234D01*
X10874646Y-21085234D02*
X10855599Y-21085234D01*
X10855599Y-21085234D02*
X10836551Y-21075710D01*
X10836551Y-21075710D02*
X10827027Y-21066186D01*
X10827027Y-21066186D02*
X10817503Y-21047139D01*
X10817503Y-21047139D02*
X10807980Y-21009043D01*
X10807980Y-21009043D02*
X10807980Y-20961424D01*
X10807980Y-20961424D02*
X10817503Y-20923329D01*
X10817503Y-20923329D02*
X10827027Y-20904281D01*
X10827027Y-20904281D02*
X10836551Y-20894758D01*
X10836551Y-20894758D02*
X10855599Y-20885234D01*
X11160361Y-21085234D02*
X11160361Y-20885234D01*
X11246075Y-21085234D02*
X11246075Y-20980472D01*
X11246075Y-20980472D02*
X11236551Y-20961424D01*
X11236551Y-20961424D02*
X11217503Y-20951900D01*
X11217503Y-20951900D02*
X11188932Y-20951900D01*
X11188932Y-20951900D02*
X11169884Y-20961424D01*
X11169884Y-20961424D02*
X11160361Y-20970948D01*
X11369884Y-21085234D02*
X11350837Y-21075710D01*
X11350837Y-21075710D02*
X11341313Y-21066186D01*
X11341313Y-21066186D02*
X11331789Y-21047139D01*
X11331789Y-21047139D02*
X11331789Y-20989996D01*
X11331789Y-20989996D02*
X11341313Y-20970948D01*
X11341313Y-20970948D02*
X11350837Y-20961424D01*
X11350837Y-20961424D02*
X11369884Y-20951900D01*
X11369884Y-20951900D02*
X11398456Y-20951900D01*
X11398456Y-20951900D02*
X11417503Y-20961424D01*
X11417503Y-20961424D02*
X11427027Y-20970948D01*
X11427027Y-20970948D02*
X11436551Y-20989996D01*
X11436551Y-20989996D02*
X11436551Y-21047139D01*
X11436551Y-21047139D02*
X11427027Y-21066186D01*
X11427027Y-21066186D02*
X11417503Y-21075710D01*
X11417503Y-21075710D02*
X11398456Y-21085234D01*
X11398456Y-21085234D02*
X11369884Y-21085234D01*
X11550837Y-21085234D02*
X11531789Y-21075710D01*
X11531789Y-21075710D02*
X11522265Y-21056662D01*
X11522265Y-21056662D02*
X11522265Y-20885234D01*
X11703218Y-21075710D02*
X11684170Y-21085234D01*
X11684170Y-21085234D02*
X11646075Y-21085234D01*
X11646075Y-21085234D02*
X11627027Y-21075710D01*
X11627027Y-21075710D02*
X11617503Y-21056662D01*
X11617503Y-21056662D02*
X11617503Y-20980472D01*
X11617503Y-20980472D02*
X11627027Y-20961424D01*
X11627027Y-20961424D02*
X11646075Y-20951900D01*
X11646075Y-20951900D02*
X11684170Y-20951900D01*
X11684170Y-20951900D02*
X11703218Y-20961424D01*
X11703218Y-20961424D02*
X11712741Y-20980472D01*
X11712741Y-20980472D02*
X11712741Y-20999520D01*
X11712741Y-20999520D02*
X11617503Y-21018567D01*
X11788932Y-21075710D02*
X11807980Y-21085234D01*
X11807980Y-21085234D02*
X11846075Y-21085234D01*
X11846075Y-21085234D02*
X11865122Y-21075710D01*
X11865122Y-21075710D02*
X11874646Y-21056662D01*
X11874646Y-21056662D02*
X11874646Y-21047139D01*
X11874646Y-21047139D02*
X11865122Y-21028091D01*
X11865122Y-21028091D02*
X11846075Y-21018567D01*
X11846075Y-21018567D02*
X11817503Y-21018567D01*
X11817503Y-21018567D02*
X11798456Y-21009043D01*
X11798456Y-21009043D02*
X11788932Y-20989996D01*
X11788932Y-20989996D02*
X11788932Y-20980472D01*
X11788932Y-20980472D02*
X11798456Y-20961424D01*
X11798456Y-20961424D02*
X11817503Y-20951900D01*
X11817503Y-20951900D02*
X11846075Y-20951900D01*
X11846075Y-20951900D02*
X11865122Y-20961424D01*
X12112742Y-21009043D02*
X12265123Y-21009043D01*
X12188932Y-21085234D02*
X12188932Y-20932853D01*
X12493694Y-20885234D02*
X12617503Y-20885234D01*
X12617503Y-20885234D02*
X12550837Y-20961424D01*
X12550837Y-20961424D02*
X12579408Y-20961424D01*
X12579408Y-20961424D02*
X12598456Y-20970948D01*
X12598456Y-20970948D02*
X12607980Y-20980472D01*
X12607980Y-20980472D02*
X12617503Y-20999520D01*
X12617503Y-20999520D02*
X12617503Y-21047139D01*
X12617503Y-21047139D02*
X12607980Y-21066186D01*
X12607980Y-21066186D02*
X12598456Y-21075710D01*
X12598456Y-21075710D02*
X12579408Y-21085234D01*
X12579408Y-21085234D02*
X12522265Y-21085234D01*
X12522265Y-21085234D02*
X12503218Y-21075710D01*
X12503218Y-21075710D02*
X12493694Y-21066186D01*
X12846075Y-21075710D02*
X12865123Y-21085234D01*
X12865123Y-21085234D02*
X12903218Y-21085234D01*
X12903218Y-21085234D02*
X12922265Y-21075710D01*
X12922265Y-21075710D02*
X12931789Y-21056662D01*
X12931789Y-21056662D02*
X12931789Y-21047139D01*
X12931789Y-21047139D02*
X12922265Y-21028091D01*
X12922265Y-21028091D02*
X12903218Y-21018567D01*
X12903218Y-21018567D02*
X12874646Y-21018567D01*
X12874646Y-21018567D02*
X12855599Y-21009043D01*
X12855599Y-21009043D02*
X12846075Y-20989996D01*
X12846075Y-20989996D02*
X12846075Y-20980472D01*
X12846075Y-20980472D02*
X12855599Y-20961424D01*
X12855599Y-20961424D02*
X12874646Y-20951900D01*
X12874646Y-20951900D02*
X12903218Y-20951900D01*
X12903218Y-20951900D02*
X12922265Y-20961424D01*
X13046075Y-21085234D02*
X13027027Y-21075710D01*
X13027027Y-21075710D02*
X13017504Y-21056662D01*
X13017504Y-21056662D02*
X13017504Y-20885234D01*
X13150837Y-21085234D02*
X13131789Y-21075710D01*
X13131789Y-21075710D02*
X13122265Y-21066186D01*
X13122265Y-21066186D02*
X13112742Y-21047139D01*
X13112742Y-21047139D02*
X13112742Y-20989996D01*
X13112742Y-20989996D02*
X13122265Y-20970948D01*
X13122265Y-20970948D02*
X13131789Y-20961424D01*
X13131789Y-20961424D02*
X13150837Y-20951900D01*
X13150837Y-20951900D02*
X13179408Y-20951900D01*
X13179408Y-20951900D02*
X13198456Y-20961424D01*
X13198456Y-20961424D02*
X13207980Y-20970948D01*
X13207980Y-20970948D02*
X13217504Y-20989996D01*
X13217504Y-20989996D02*
X13217504Y-21047139D01*
X13217504Y-21047139D02*
X13207980Y-21066186D01*
X13207980Y-21066186D02*
X13198456Y-21075710D01*
X13198456Y-21075710D02*
X13179408Y-21085234D01*
X13179408Y-21085234D02*
X13150837Y-21085234D01*
X13274646Y-20951900D02*
X13350837Y-20951900D01*
X13303218Y-20885234D02*
X13303218Y-21056662D01*
X13303218Y-21056662D02*
X13312742Y-21075710D01*
X13312742Y-21075710D02*
X13331789Y-21085234D01*
X13331789Y-21085234D02*
X13350837Y-21085234D01*
X13407980Y-21075710D02*
X13427027Y-21085234D01*
X13427027Y-21085234D02*
X13465123Y-21085234D01*
X13465123Y-21085234D02*
X13484170Y-21075710D01*
X13484170Y-21075710D02*
X13493694Y-21056662D01*
X13493694Y-21056662D02*
X13493694Y-21047139D01*
X13493694Y-21047139D02*
X13484170Y-21028091D01*
X13484170Y-21028091D02*
X13465123Y-21018567D01*
X13465123Y-21018567D02*
X13436551Y-21018567D01*
X13436551Y-21018567D02*
X13417504Y-21009043D01*
X13417504Y-21009043D02*
X13407980Y-20989996D01*
X13407980Y-20989996D02*
X13407980Y-20980472D01*
X13407980Y-20980472D02*
X13417504Y-20961424D01*
X13417504Y-20961424D02*
X13436551Y-20951900D01*
X13436551Y-20951900D02*
X13465123Y-20951900D01*
X13465123Y-20951900D02*
X13484170Y-20961424D01*
X13560361Y-21161424D02*
X13569885Y-21151900D01*
X13569885Y-21151900D02*
X13588932Y-21123329D01*
X13588932Y-21123329D02*
X13598456Y-21104281D01*
X13598456Y-21104281D02*
X13607980Y-21075710D01*
X13607980Y-21075710D02*
X13617504Y-21028091D01*
X13617504Y-21028091D02*
X13617504Y-20989996D01*
X13617504Y-20989996D02*
X13607980Y-20942377D01*
X13607980Y-20942377D02*
X13598456Y-20913805D01*
X13598456Y-20913805D02*
X13588932Y-20894758D01*
X13588932Y-20894758D02*
X13569885Y-20866186D01*
X13569885Y-20866186D02*
X13560361Y-20856662D01*
X7066250Y-21213750D02*
X7066250Y-21413750D01*
X6966250Y-21313750D02*
X7166250Y-21313750D01*
X7166250Y-21313750D02*
G75*
G03*
X7166250Y-21313750I-100000J0D01*
G01*
X7417503Y-21224281D02*
X7427027Y-21214758D01*
X7427027Y-21214758D02*
X7446074Y-21205234D01*
X7446074Y-21205234D02*
X7493693Y-21205234D01*
X7493693Y-21205234D02*
X7512741Y-21214758D01*
X7512741Y-21214758D02*
X7522265Y-21224281D01*
X7522265Y-21224281D02*
X7531789Y-21243329D01*
X7531789Y-21243329D02*
X7531789Y-21262377D01*
X7531789Y-21262377D02*
X7522265Y-21290948D01*
X7522265Y-21290948D02*
X7407979Y-21405234D01*
X7407979Y-21405234D02*
X7531789Y-21405234D01*
X7617503Y-21386186D02*
X7627027Y-21395710D01*
X7627027Y-21395710D02*
X7617503Y-21405234D01*
X7617503Y-21405234D02*
X7607979Y-21395710D01*
X7607979Y-21395710D02*
X7617503Y-21386186D01*
X7617503Y-21386186D02*
X7617503Y-21405234D01*
X7798455Y-21271900D02*
X7798455Y-21405234D01*
X7750836Y-21195710D02*
X7703217Y-21338567D01*
X7703217Y-21338567D02*
X7827027Y-21338567D01*
X7912741Y-21405234D02*
X7950836Y-21405234D01*
X7950836Y-21405234D02*
X7969884Y-21395710D01*
X7969884Y-21395710D02*
X7979408Y-21386186D01*
X7979408Y-21386186D02*
X7998455Y-21357615D01*
X7998455Y-21357615D02*
X8007979Y-21319520D01*
X8007979Y-21319520D02*
X8007979Y-21243329D01*
X8007979Y-21243329D02*
X7998455Y-21224281D01*
X7998455Y-21224281D02*
X7988932Y-21214758D01*
X7988932Y-21214758D02*
X7969884Y-21205234D01*
X7969884Y-21205234D02*
X7931789Y-21205234D01*
X7931789Y-21205234D02*
X7912741Y-21214758D01*
X7912741Y-21214758D02*
X7903217Y-21224281D01*
X7903217Y-21224281D02*
X7893693Y-21243329D01*
X7893693Y-21243329D02*
X7893693Y-21290948D01*
X7893693Y-21290948D02*
X7903217Y-21309996D01*
X7903217Y-21309996D02*
X7912741Y-21319520D01*
X7912741Y-21319520D02*
X7931789Y-21329043D01*
X7931789Y-21329043D02*
X7969884Y-21329043D01*
X7969884Y-21329043D02*
X7988932Y-21319520D01*
X7988932Y-21319520D02*
X7998455Y-21309996D01*
X7998455Y-21309996D02*
X8007979Y-21290948D01*
X8103217Y-21405234D02*
X8141312Y-21405234D01*
X8141312Y-21405234D02*
X8160360Y-21395710D01*
X8160360Y-21395710D02*
X8169884Y-21386186D01*
X8169884Y-21386186D02*
X8188932Y-21357615D01*
X8188932Y-21357615D02*
X8198455Y-21319520D01*
X8198455Y-21319520D02*
X8198455Y-21243329D01*
X8198455Y-21243329D02*
X8188932Y-21224281D01*
X8188932Y-21224281D02*
X8179408Y-21214758D01*
X8179408Y-21214758D02*
X8160360Y-21205234D01*
X8160360Y-21205234D02*
X8122265Y-21205234D01*
X8122265Y-21205234D02*
X8103217Y-21214758D01*
X8103217Y-21214758D02*
X8093693Y-21224281D01*
X8093693Y-21224281D02*
X8084170Y-21243329D01*
X8084170Y-21243329D02*
X8084170Y-21290948D01*
X8084170Y-21290948D02*
X8093693Y-21309996D01*
X8093693Y-21309996D02*
X8103217Y-21319520D01*
X8103217Y-21319520D02*
X8122265Y-21329043D01*
X8122265Y-21329043D02*
X8160360Y-21329043D01*
X8160360Y-21329043D02*
X8179408Y-21319520D01*
X8179408Y-21319520D02*
X8188932Y-21309996D01*
X8188932Y-21309996D02*
X8198455Y-21290948D01*
X8284170Y-21405234D02*
X8284170Y-21271900D01*
X8284170Y-21290948D02*
X8293693Y-21281424D01*
X8293693Y-21281424D02*
X8312741Y-21271900D01*
X8312741Y-21271900D02*
X8341313Y-21271900D01*
X8341313Y-21271900D02*
X8360360Y-21281424D01*
X8360360Y-21281424D02*
X8369884Y-21300472D01*
X8369884Y-21300472D02*
X8369884Y-21405234D01*
X8369884Y-21300472D02*
X8379408Y-21281424D01*
X8379408Y-21281424D02*
X8398455Y-21271900D01*
X8398455Y-21271900D02*
X8427027Y-21271900D01*
X8427027Y-21271900D02*
X8446075Y-21281424D01*
X8446075Y-21281424D02*
X8455598Y-21300472D01*
X8455598Y-21300472D02*
X8455598Y-21405234D01*
X8550836Y-21405234D02*
X8550836Y-21271900D01*
X8550836Y-21290948D02*
X8560360Y-21281424D01*
X8560360Y-21281424D02*
X8579408Y-21271900D01*
X8579408Y-21271900D02*
X8607979Y-21271900D01*
X8607979Y-21271900D02*
X8627027Y-21281424D01*
X8627027Y-21281424D02*
X8636551Y-21300472D01*
X8636551Y-21300472D02*
X8636551Y-21405234D01*
X8636551Y-21300472D02*
X8646075Y-21281424D01*
X8646075Y-21281424D02*
X8665122Y-21271900D01*
X8665122Y-21271900D02*
X8693694Y-21271900D01*
X8693694Y-21271900D02*
X8712741Y-21281424D01*
X8712741Y-21281424D02*
X8722265Y-21300472D01*
X8722265Y-21300472D02*
X8722265Y-21405234D01*
X9112741Y-21195710D02*
X8941313Y-21452853D01*
X9369884Y-21205234D02*
X9388932Y-21205234D01*
X9388932Y-21205234D02*
X9407979Y-21214758D01*
X9407979Y-21214758D02*
X9417503Y-21224281D01*
X9417503Y-21224281D02*
X9427027Y-21243329D01*
X9427027Y-21243329D02*
X9436551Y-21281424D01*
X9436551Y-21281424D02*
X9436551Y-21329043D01*
X9436551Y-21329043D02*
X9427027Y-21367139D01*
X9427027Y-21367139D02*
X9417503Y-21386186D01*
X9417503Y-21386186D02*
X9407979Y-21395710D01*
X9407979Y-21395710D02*
X9388932Y-21405234D01*
X9388932Y-21405234D02*
X9369884Y-21405234D01*
X9369884Y-21405234D02*
X9350837Y-21395710D01*
X9350837Y-21395710D02*
X9341313Y-21386186D01*
X9341313Y-21386186D02*
X9331789Y-21367139D01*
X9331789Y-21367139D02*
X9322265Y-21329043D01*
X9322265Y-21329043D02*
X9322265Y-21281424D01*
X9322265Y-21281424D02*
X9331789Y-21243329D01*
X9331789Y-21243329D02*
X9341313Y-21224281D01*
X9341313Y-21224281D02*
X9350837Y-21214758D01*
X9350837Y-21214758D02*
X9369884Y-21205234D01*
X9522265Y-21386186D02*
X9531789Y-21395710D01*
X9531789Y-21395710D02*
X9522265Y-21405234D01*
X9522265Y-21405234D02*
X9512741Y-21395710D01*
X9512741Y-21395710D02*
X9522265Y-21386186D01*
X9522265Y-21386186D02*
X9522265Y-21405234D01*
X9655598Y-21205234D02*
X9674646Y-21205234D01*
X9674646Y-21205234D02*
X9693694Y-21214758D01*
X9693694Y-21214758D02*
X9703218Y-21224281D01*
X9703218Y-21224281D02*
X9712741Y-21243329D01*
X9712741Y-21243329D02*
X9722265Y-21281424D01*
X9722265Y-21281424D02*
X9722265Y-21329043D01*
X9722265Y-21329043D02*
X9712741Y-21367139D01*
X9712741Y-21367139D02*
X9703218Y-21386186D01*
X9703218Y-21386186D02*
X9693694Y-21395710D01*
X9693694Y-21395710D02*
X9674646Y-21405234D01*
X9674646Y-21405234D02*
X9655598Y-21405234D01*
X9655598Y-21405234D02*
X9636551Y-21395710D01*
X9636551Y-21395710D02*
X9627027Y-21386186D01*
X9627027Y-21386186D02*
X9617503Y-21367139D01*
X9617503Y-21367139D02*
X9607979Y-21329043D01*
X9607979Y-21329043D02*
X9607979Y-21281424D01*
X9607979Y-21281424D02*
X9617503Y-21243329D01*
X9617503Y-21243329D02*
X9627027Y-21224281D01*
X9627027Y-21224281D02*
X9636551Y-21214758D01*
X9636551Y-21214758D02*
X9655598Y-21205234D01*
X9817503Y-21405234D02*
X9855598Y-21405234D01*
X9855598Y-21405234D02*
X9874646Y-21395710D01*
X9874646Y-21395710D02*
X9884170Y-21386186D01*
X9884170Y-21386186D02*
X9903218Y-21357615D01*
X9903218Y-21357615D02*
X9912741Y-21319520D01*
X9912741Y-21319520D02*
X9912741Y-21243329D01*
X9912741Y-21243329D02*
X9903218Y-21224281D01*
X9903218Y-21224281D02*
X9893694Y-21214758D01*
X9893694Y-21214758D02*
X9874646Y-21205234D01*
X9874646Y-21205234D02*
X9836551Y-21205234D01*
X9836551Y-21205234D02*
X9817503Y-21214758D01*
X9817503Y-21214758D02*
X9807979Y-21224281D01*
X9807979Y-21224281D02*
X9798456Y-21243329D01*
X9798456Y-21243329D02*
X9798456Y-21290948D01*
X9798456Y-21290948D02*
X9807979Y-21309996D01*
X9807979Y-21309996D02*
X9817503Y-21319520D01*
X9817503Y-21319520D02*
X9836551Y-21329043D01*
X9836551Y-21329043D02*
X9874646Y-21329043D01*
X9874646Y-21329043D02*
X9893694Y-21319520D01*
X9893694Y-21319520D02*
X9903218Y-21309996D01*
X9903218Y-21309996D02*
X9912741Y-21290948D01*
X10027027Y-21290948D02*
X10007979Y-21281424D01*
X10007979Y-21281424D02*
X9998456Y-21271900D01*
X9998456Y-21271900D02*
X9988932Y-21252853D01*
X9988932Y-21252853D02*
X9988932Y-21243329D01*
X9988932Y-21243329D02*
X9998456Y-21224281D01*
X9998456Y-21224281D02*
X10007979Y-21214758D01*
X10007979Y-21214758D02*
X10027027Y-21205234D01*
X10027027Y-21205234D02*
X10065122Y-21205234D01*
X10065122Y-21205234D02*
X10084170Y-21214758D01*
X10084170Y-21214758D02*
X10093694Y-21224281D01*
X10093694Y-21224281D02*
X10103218Y-21243329D01*
X10103218Y-21243329D02*
X10103218Y-21252853D01*
X10103218Y-21252853D02*
X10093694Y-21271900D01*
X10093694Y-21271900D02*
X10084170Y-21281424D01*
X10084170Y-21281424D02*
X10065122Y-21290948D01*
X10065122Y-21290948D02*
X10027027Y-21290948D01*
X10027027Y-21290948D02*
X10007979Y-21300472D01*
X10007979Y-21300472D02*
X9998456Y-21309996D01*
X9998456Y-21309996D02*
X9988932Y-21329043D01*
X9988932Y-21329043D02*
X9988932Y-21367139D01*
X9988932Y-21367139D02*
X9998456Y-21386186D01*
X9998456Y-21386186D02*
X10007979Y-21395710D01*
X10007979Y-21395710D02*
X10027027Y-21405234D01*
X10027027Y-21405234D02*
X10065122Y-21405234D01*
X10065122Y-21405234D02*
X10084170Y-21395710D01*
X10084170Y-21395710D02*
X10093694Y-21386186D01*
X10093694Y-21386186D02*
X10103218Y-21367139D01*
X10103218Y-21367139D02*
X10103218Y-21329043D01*
X10103218Y-21329043D02*
X10093694Y-21309996D01*
X10093694Y-21309996D02*
X10084170Y-21300472D01*
X10084170Y-21300472D02*
X10065122Y-21290948D01*
X10274646Y-21271900D02*
X10274646Y-21405234D01*
X10227027Y-21195710D02*
X10179408Y-21338567D01*
X10179408Y-21338567D02*
X10303218Y-21338567D01*
X10369884Y-21205234D02*
X10369884Y-21243329D01*
X10446075Y-21205234D02*
X10446075Y-21243329D01*
X10741313Y-21481424D02*
X10731789Y-21471900D01*
X10731789Y-21471900D02*
X10712741Y-21443329D01*
X10712741Y-21443329D02*
X10703218Y-21424281D01*
X10703218Y-21424281D02*
X10693694Y-21395710D01*
X10693694Y-21395710D02*
X10684170Y-21348091D01*
X10684170Y-21348091D02*
X10684170Y-21309996D01*
X10684170Y-21309996D02*
X10693694Y-21262377D01*
X10693694Y-21262377D02*
X10703218Y-21233805D01*
X10703218Y-21233805D02*
X10712741Y-21214758D01*
X10712741Y-21214758D02*
X10731789Y-21186186D01*
X10731789Y-21186186D02*
X10741313Y-21176662D01*
X10922265Y-21405234D02*
X10807980Y-21405234D01*
X10865122Y-21405234D02*
X10865122Y-21205234D01*
X10865122Y-21205234D02*
X10846075Y-21233805D01*
X10846075Y-21233805D02*
X10827027Y-21252853D01*
X10827027Y-21252853D02*
X10807980Y-21262377D01*
X11160361Y-21405234D02*
X11160361Y-21205234D01*
X11246075Y-21405234D02*
X11246075Y-21300472D01*
X11246075Y-21300472D02*
X11236551Y-21281424D01*
X11236551Y-21281424D02*
X11217503Y-21271900D01*
X11217503Y-21271900D02*
X11188932Y-21271900D01*
X11188932Y-21271900D02*
X11169884Y-21281424D01*
X11169884Y-21281424D02*
X11160361Y-21290948D01*
X11369884Y-21405234D02*
X11350837Y-21395710D01*
X11350837Y-21395710D02*
X11341313Y-21386186D01*
X11341313Y-21386186D02*
X11331789Y-21367139D01*
X11331789Y-21367139D02*
X11331789Y-21309996D01*
X11331789Y-21309996D02*
X11341313Y-21290948D01*
X11341313Y-21290948D02*
X11350837Y-21281424D01*
X11350837Y-21281424D02*
X11369884Y-21271900D01*
X11369884Y-21271900D02*
X11398456Y-21271900D01*
X11398456Y-21271900D02*
X11417503Y-21281424D01*
X11417503Y-21281424D02*
X11427027Y-21290948D01*
X11427027Y-21290948D02*
X11436551Y-21309996D01*
X11436551Y-21309996D02*
X11436551Y-21367139D01*
X11436551Y-21367139D02*
X11427027Y-21386186D01*
X11427027Y-21386186D02*
X11417503Y-21395710D01*
X11417503Y-21395710D02*
X11398456Y-21405234D01*
X11398456Y-21405234D02*
X11369884Y-21405234D01*
X11550837Y-21405234D02*
X11531789Y-21395710D01*
X11531789Y-21395710D02*
X11522265Y-21376662D01*
X11522265Y-21376662D02*
X11522265Y-21205234D01*
X11703218Y-21395710D02*
X11684170Y-21405234D01*
X11684170Y-21405234D02*
X11646075Y-21405234D01*
X11646075Y-21405234D02*
X11627027Y-21395710D01*
X11627027Y-21395710D02*
X11617503Y-21376662D01*
X11617503Y-21376662D02*
X11617503Y-21300472D01*
X11617503Y-21300472D02*
X11627027Y-21281424D01*
X11627027Y-21281424D02*
X11646075Y-21271900D01*
X11646075Y-21271900D02*
X11684170Y-21271900D01*
X11684170Y-21271900D02*
X11703218Y-21281424D01*
X11703218Y-21281424D02*
X11712741Y-21300472D01*
X11712741Y-21300472D02*
X11712741Y-21319520D01*
X11712741Y-21319520D02*
X11617503Y-21338567D01*
X11779408Y-21481424D02*
X11788932Y-21471900D01*
X11788932Y-21471900D02*
X11807980Y-21443329D01*
X11807980Y-21443329D02*
X11817503Y-21424281D01*
X11817503Y-21424281D02*
X11827027Y-21395710D01*
X11827027Y-21395710D02*
X11836551Y-21348091D01*
X11836551Y-21348091D02*
X11836551Y-21309996D01*
X11836551Y-21309996D02*
X11827027Y-21262377D01*
X11827027Y-21262377D02*
X11817503Y-21233805D01*
X11817503Y-21233805D02*
X11807980Y-21214758D01*
X11807980Y-21214758D02*
X11788932Y-21186186D01*
X11788932Y-21186186D02*
X11779408Y-21176662D01*
M02*
