M48
; DRILL file {KiCad 7.0.5} date Wed Jul 26 01:46:38 2023
; FORMAT={-:-/ absolute / metric / decimal}
; #@! TF.CreationDate,2023-07-26T01:46:38+09:00
; #@! TF.GenerationSoftware,Kicad,Pcbnew,7.0.5
; #@! TF.FileFunction,Plated,1,2,PTH
FMAT,2
METRIC
; #@! TA.AperFunction,Plated,PTH,ViaDrill
T1C0.300
; #@! TA.AperFunction,Plated,PTH,ComponentDrill
T2C0.300
; #@! TA.AperFunction,Plated,PTH,ViaDrill
T3C0.340
; #@! TA.AperFunction,Plated,PTH,ViaDrill
T4C0.400
; #@! TA.AperFunction,Plated,PTH,ComponentDrill
T5C0.500
; #@! TA.AperFunction,Plated,PTH,ComponentDrill
T6C0.600
; #@! TA.AperFunction,Plated,PTH,ComponentDrill
T7C1.000
; #@! TA.AperFunction,Plated,PTH,ComponentDrill
T8C1.470
; #@! TA.AperFunction,Plated,PTH,ComponentDrill
T9C2.499
; #@! TA.AperFunction,Plated,PTH,ComponentDrill
T10C2.499
%
G90
G05
T1
X80.9Y-91.24
X84.244Y-93.147
X85.69Y-94.62
X86.239Y-90.932
X86.55Y-89.483
X86.76Y-94.62
X87.14Y-91.07
X87.32Y-100.31
X89.309Y-92.189
X89.74Y-95.09
X91.21Y-92.189
X91.46Y-94.85
X92.04Y-103.55
X92.87Y-91.07
X93.26Y-94.62
X95.688Y-103.926
X97.041Y-103.919
X97.98Y-139.76
X98.13Y-122.33
X98.13Y-123.29
X98.13Y-124.24
X99.33Y-122.33
X99.33Y-123.29
X99.33Y-124.24
X101.63Y-103.919
X101.87Y-139.15
X103.02Y-125.74
X103.02Y-128.54
X104.15Y-139.2
X106.62Y-139.18
X107.1Y-103.919
X107.6Y-158.49
X108.73Y-142.21
X114.74Y-103.932
X116.091Y-103.919
X117.98Y-125.16
X118.295Y-126.935
X119.68Y-126.42
X121.54Y-125.17
X123.48Y-103.919
X131.58Y-103.919
X135.141Y-103.919
X135.85Y-176.98
X135.85Y-179.48
X135.85Y-181.58
X135.95Y-175.1
X137.74Y-179.48
X137.74Y-181.58
X137.75Y-176.93
X137.78Y-175.1
X139.1Y-175.15
X139.1Y-176.47
X139.639Y-157.825
X140.57Y-158.474
X140.59Y-175.17
X140.59Y-176.49
X142.16Y-103.919
X142.92Y-175.18
X142.92Y-176.5
X145.02Y-175.18
X145.02Y-176.5
X147.12Y-175.18
X147.12Y-176.5
X147.19Y-103.919
X148.94Y-175.18
X148.94Y-176.5
X149.513Y-105.369
X151.04Y-175.18
X151.04Y-176.5
X153.0Y-105.429
X153.14Y-175.18
X153.14Y-176.5
X154.512Y-158.974
X154.54Y-176.49
X154.66Y-107.09
X155.601Y-109.869
X156.214Y-127.776
X156.326Y-118.525
X156.581Y-110.849
X156.64Y-175.17
X156.64Y-176.49
X156.909Y-128.524
X157.38Y-118.0
X157.38Y-119.14
X157.38Y-121.87
X157.38Y-125.43
X157.381Y-114.54
X157.843Y-127.475
X158.195Y-160.999
X158.679Y-112.02
X158.68Y-114.52
X158.68Y-118.0
X158.68Y-119.049
X158.68Y-121.81
X158.68Y-125.43
X158.74Y-175.17
X158.74Y-176.49
X159.031Y-116.754
X159.17Y-128.825
X159.579Y-117.34
X159.684Y-127.466
X159.69Y-137.575
X160.05Y-161.63
X160.13Y-118.525
X160.21Y-170.46
X160.27Y-163.9
X160.31Y-166.05
X160.54Y-168.43
X160.65Y-174.46
X160.65Y-176.51
X161.04Y-131.52
X161.04Y-135.37
X161.042Y-128.825
X161.047Y-139.282
X162.064Y-127.775
X162.23Y-164.9
X162.339Y-131.49
X162.339Y-135.39
X162.339Y-138.566
X162.75Y-174.41
X162.75Y-176.51
X163.152Y-141.388
X163.19Y-160.51
X163.4Y-168.314
X163.4Y-169.17
X163.49Y-171.24
X163.52Y-172.44
X163.627Y-129.35
X163.746Y-127.984
X163.79Y-131.56
X163.79Y-137.05
X164.209Y-140.531
X164.36Y-172.05
X164.564Y-138.826
X164.65Y-164.95
X164.685Y-163.905
X164.8Y-176.56
X164.94Y-174.26
X165.293Y-143.528
X165.7Y-172.12
X166.034Y-144.27
X166.25Y-142.571
X166.63Y-165.04
X166.63Y-166.24
X166.63Y-168.64
X166.63Y-167.44
X166.73Y-137.575
X166.86Y-176.51
X166.991Y-143.313
X167.116Y-141.379
X167.34Y-156.625
X167.83Y-168.64
X167.83Y-166.24
X167.83Y-167.44
X167.83Y-165.04
X168.027Y-142.276
X168.28Y-161.94
X168.702Y-146.938
X168.96Y-176.51
X168.97Y-175.09
X169.03Y-168.64
X169.03Y-165.04
X169.03Y-166.24
X169.03Y-167.44
X169.789Y-146.111
X170.23Y-168.64
X170.23Y-165.04
X170.23Y-167.44
X170.23Y-166.24
X170.284Y-149.222
X170.284Y-152.31
X170.284Y-154.81
X170.284Y-158.474
X170.46Y-157.174
X170.619Y-144.881
X170.78Y-176.51
X170.83Y-172.65
X170.84Y-175.08
X171.0Y-160.38
X171.03Y-159.004
X171.56Y-147.986
X171.589Y-151.02
X171.589Y-154.471
X172.329Y-159.579
X172.341Y-170.549
X172.435Y-157.154
X173.0Y-176.5
X173.01Y-175.05
X173.059Y-151.0
X173.059Y-153.856
X173.069Y-147.311
X173.18Y-167.9
X173.18Y-170.66
X173.234Y-156.1
X173.62Y-159.29
X174.18Y-168.19
X174.57Y-159.29
X174.64Y-169.9
X174.657Y-160.84
X174.657Y-163.21
X174.657Y-164.61
X174.91Y-167.09
X175.208Y-158.091
X175.47Y-174.94
X175.59Y-176.48
X176.619Y-167.037
X176.657Y-161.61
X176.658Y-158.888
X176.69Y-164.2
X177.421Y-161.135
X178.046Y-164.154
X178.14Y-174.97
X178.21Y-176.5
X178.65Y-166.9
X180.07Y-174.98
X180.09Y-176.5
X181.97Y-176.5
X182.1Y-174.88
X182.53Y-156.625
X184.42Y-176.5
X184.44Y-174.91
X186.46Y-175.25
X186.52Y-176.5
X188.34Y-176.5
X189.79Y-173.11
X190.56Y-176.49
X193.15Y-176.47
X195.64Y-162.45
X195.77Y-176.49
X197.65Y-176.49
X199.53Y-176.49
X201.33Y-176.49
X203.08Y-181.61
X203.21Y-176.469
X203.21Y-178.24
X204.69Y-177.31
X206.53Y-177.69
X207.91Y-181.46
X207.93Y-176.54
X207.93Y-179.07
X215.9Y-158.425
X249.59Y-158.725
X291.465Y-160.075
X315.277Y-159.774
X327.184Y-156.21
T2
X163.8Y-176.56
T3
X104.595Y-123.915
T4
X93.01Y-99.31
X93.01Y-103.27
X93.01Y-119.4
X94.49Y-121.385
X95.73Y-126.78
X99.81Y-130.08
X107.07Y-157.825
X107.36Y-137.71
X158.03Y-116.754
X171.68Y-157.825
T5
X73.57Y-141.537
X73.57Y-146.737
X75.612Y-141.537
X75.612Y-146.737
X77.451Y-142.299
X77.451Y-145.976
X78.212Y-144.137
X94.712Y-115.537
X95.386Y-113.911
X95.386Y-117.164
X97.012Y-113.237
X97.012Y-117.837
X98.639Y-113.911
X98.639Y-117.164
X99.312Y-115.537
X198.812Y-132.338
X198.812Y-136.938
X200.012Y-132.338
X200.012Y-136.938
X201.212Y-132.338
X201.212Y-136.938
X261.113Y-170.537
X261.113Y-175.137
X262.312Y-170.537
X262.312Y-175.137
X263.512Y-170.537
X263.512Y-175.137
X330.662Y-113.237
X330.662Y-117.837
X331.863Y-113.237
X331.863Y-117.837
X333.062Y-113.221
X333.062Y-117.837
X350.412Y-144.137
X351.174Y-142.299
X351.174Y-145.976
X353.012Y-141.537
X353.012Y-146.737
X355.055Y-141.537
X355.055Y-146.737
T7
X140.24Y-106.385
X142.78Y-106.385
X145.32Y-106.385
X147.86Y-106.385
X176.45Y-169.91
X178.99Y-169.91
X181.53Y-169.91
X184.07Y-169.91
T8
X77.153Y-94.297
X79.534Y-170.498
X81.915Y-113.347
X83.502Y-91.757
X84.296Y-132.42
X85.884Y-167.957
X88.265Y-110.807
X89.059Y-151.447
X90.646Y-129.88
X95.409Y-148.907
X96.203Y-94.297
X102.552Y-91.757
X103.346Y-170.498
X105.727Y-113.347
X109.696Y-167.957
X110.49Y-132.398
X112.078Y-110.807
X115.252Y-94.297
X116.84Y-129.857
X120.015Y-151.447
X121.602Y-91.757
X124.777Y-113.347
X126.365Y-148.907
X127.159Y-170.498
X129.54Y-132.398
X131.127Y-110.807
X133.509Y-167.957
X134.302Y-94.297
X135.89Y-129.857
X139.065Y-151.447
X140.653Y-91.757
X143.827Y-113.347
X145.415Y-148.907
X148.59Y-132.398
X150.177Y-110.807
X150.971Y-170.498
X153.352Y-94.297
X154.94Y-129.857
X157.321Y-167.957
X158.115Y-151.447
X159.702Y-91.757
X162.877Y-113.347
X164.465Y-148.907
X167.64Y-132.398
X169.227Y-110.807
X172.403Y-94.297
X173.99Y-129.857
X177.165Y-151.447
X178.752Y-91.757
X181.927Y-113.347
X183.515Y-148.907
X186.69Y-132.398
X188.278Y-110.807
X189.071Y-170.498
X191.452Y-94.297
X193.04Y-129.857
X195.421Y-167.957
X196.215Y-151.447
X197.802Y-91.757
X198.596Y-170.498
X200.977Y-113.347
X202.565Y-148.907
X204.946Y-167.957
X205.74Y-132.398
X207.327Y-110.807
X210.502Y-94.297
X212.09Y-129.857
X215.265Y-151.447
X216.852Y-91.757
X220.028Y-113.347
X221.615Y-148.907
X224.79Y-132.398
X226.377Y-110.807
X229.552Y-94.297
X231.14Y-129.857
X234.315Y-151.447
X235.903Y-91.757
X236.696Y-170.498
X239.077Y-113.347
X240.665Y-148.907
X243.046Y-167.957
X243.84Y-132.398
X245.427Y-110.807
X248.602Y-94.297
X250.19Y-129.857
X253.365Y-151.447
X254.952Y-91.757
X258.127Y-113.347
X259.715Y-148.907
X262.89Y-132.398
X264.477Y-110.807
X267.652Y-94.297
X269.24Y-129.857
X270.034Y-170.498
X272.415Y-151.447
X274.002Y-91.757
X276.384Y-167.957
X277.178Y-113.347
X278.765Y-148.907
X281.94Y-132.398
X283.527Y-110.807
X286.702Y-94.297
X288.29Y-129.857
X291.465Y-151.447
X293.053Y-91.757
X293.846Y-170.498
X296.227Y-113.347
X297.815Y-148.907
X300.196Y-167.957
X300.99Y-132.398
X302.577Y-110.807
X305.752Y-94.297
X307.34Y-129.857
X312.102Y-91.757
X315.277Y-113.347
X317.659Y-170.498
X321.627Y-110.807
X324.009Y-167.957
X327.184Y-151.447
X331.946Y-132.398
X333.534Y-148.907
X334.327Y-94.297
X338.296Y-129.857
X339.09Y-113.347
X340.678Y-91.757
X341.471Y-170.498
X345.44Y-110.807
X347.821Y-167.957
T10
X97.012Y-115.537
T6
X85.69Y-88.115G85X85.69Y-88.715
G05
X85.69Y-92.045G85X85.69Y-93.145
G05
X94.33Y-88.115G85X94.33Y-88.715
G05
X94.33Y-92.045G85X94.33Y-93.145
G05
T9
X198.762Y-134.637G85X201.263Y-134.637
G05
X261.062Y-172.838G85X263.563Y-172.838
G05
X330.612Y-115.537G85X333.113Y-115.537
G05
T0
M30
