G04 #@! TF.GenerationSoftware,KiCad,Pcbnew,7.0.5*
G04 #@! TF.CreationDate,2023-07-26T01:46:33+09:00*
G04 #@! TF.ProjectId,Hotp4ck60,486f7470-3463-46b3-9630-2e6b69636164,rev?*
G04 #@! TF.SameCoordinates,Original*
G04 #@! TF.FileFunction,Legend,Top*
G04 #@! TF.FilePolarity,Positive*
%FSLAX46Y46*%
G04 Gerber Fmt 4.6, Leading zero omitted, Abs format (unit mm)*
G04 Created by KiCad (PCBNEW 7.0.5) date 2023-07-26 01:46:33*
%MOMM*%
%LPD*%
G01*
G04 APERTURE LIST*
%ADD10C,0.150000*%
%ADD11C,0.120000*%
%ADD12C,2.501900*%
%ADD13C,1.750000*%
%ADD14C,4.000000*%
%ADD15R,1.700000X1.700000*%
%ADD16O,1.700000X1.700000*%
%ADD17C,3.048000*%
%ADD18C,3.987800*%
%ADD19C,1.000000*%
%ADD20C,7.001300*%
%ADD21C,7.000240*%
%ADD22C,0.850000*%
%ADD23C,0.650000*%
%ADD24O,1.000000X1.600000*%
%ADD25O,1.000000X2.100000*%
G04 APERTURE END LIST*
D10*
X139658571Y-108421628D02*
X140801428Y-108421628D01*
X139887143Y-108764485D02*
X140572857Y-108764485D01*
X140230000Y-107907342D02*
X140230000Y-108421628D01*
X140344285Y-109107342D02*
X140115714Y-109107342D01*
G36*
X142338410Y-107866326D02*
G01*
X142364919Y-107867774D01*
X142390555Y-107870188D01*
X142415318Y-107873569D01*
X142439207Y-107877918D01*
X142462223Y-107883235D01*
X142484367Y-107889522D01*
X142505638Y-107896779D01*
X142526038Y-107905007D01*
X142545566Y-107914206D01*
X142564223Y-107924379D01*
X142582009Y-107935525D01*
X142598924Y-107947645D01*
X142614968Y-107960740D01*
X142630143Y-107974811D01*
X142644448Y-107989858D01*
X142657884Y-108005883D01*
X142670451Y-108022886D01*
X142682148Y-108040869D01*
X142692978Y-108059831D01*
X142702939Y-108079774D01*
X142712032Y-108100698D01*
X142720258Y-108122605D01*
X142727617Y-108145494D01*
X142734109Y-108169368D01*
X142739734Y-108194226D01*
X142744493Y-108220070D01*
X142748386Y-108246900D01*
X142751413Y-108274717D01*
X142753575Y-108303522D01*
X142754872Y-108333316D01*
X142755304Y-108364099D01*
X142754872Y-108393128D01*
X142753575Y-108421230D01*
X142751413Y-108448405D01*
X142748386Y-108474654D01*
X142744493Y-108499976D01*
X142739734Y-108524374D01*
X142734109Y-108547846D01*
X142727617Y-108570393D01*
X142720258Y-108592016D01*
X142712032Y-108612714D01*
X142702939Y-108632489D01*
X142692978Y-108651340D01*
X142682148Y-108669269D01*
X142670451Y-108686274D01*
X142657884Y-108702357D01*
X142644448Y-108717519D01*
X142630143Y-108731758D01*
X142614968Y-108745077D01*
X142598924Y-108757474D01*
X142582009Y-108768951D01*
X142564223Y-108779508D01*
X142545566Y-108789144D01*
X142526038Y-108797862D01*
X142505638Y-108805660D01*
X142484367Y-108812539D01*
X142462223Y-108818500D01*
X142439207Y-108823543D01*
X142415318Y-108827668D01*
X142390555Y-108830876D01*
X142364919Y-108833167D01*
X142338410Y-108834541D01*
X142311026Y-108835000D01*
X142075820Y-108835000D01*
X142075820Y-107995781D01*
X142217970Y-107995781D01*
X142217970Y-108705307D01*
X142311026Y-108705307D01*
X142329446Y-108704972D01*
X142347290Y-108703970D01*
X142364557Y-108702300D01*
X142381248Y-108699962D01*
X142397360Y-108696956D01*
X142412895Y-108693283D01*
X142427850Y-108688943D01*
X142442227Y-108683935D01*
X142456023Y-108678261D01*
X142469239Y-108671920D01*
X142481874Y-108664912D01*
X142493927Y-108657238D01*
X142505397Y-108648898D01*
X142516285Y-108639892D01*
X142526589Y-108630220D01*
X142536310Y-108619883D01*
X142545446Y-108608880D01*
X142553996Y-108597211D01*
X142561961Y-108584878D01*
X142569339Y-108571879D01*
X142576131Y-108558216D01*
X142582335Y-108543889D01*
X142587951Y-108528896D01*
X142592978Y-108513240D01*
X142597416Y-108496920D01*
X142601264Y-108479936D01*
X142604522Y-108462288D01*
X142607188Y-108443976D01*
X142609264Y-108425002D01*
X142610746Y-108405364D01*
X142611637Y-108385063D01*
X142611934Y-108364099D01*
X142611637Y-108341382D01*
X142610746Y-108319391D01*
X142609264Y-108298126D01*
X142607188Y-108277588D01*
X142604522Y-108257775D01*
X142601264Y-108238687D01*
X142597416Y-108220324D01*
X142592978Y-108202685D01*
X142587951Y-108185771D01*
X142582335Y-108169580D01*
X142576131Y-108154113D01*
X142569339Y-108139369D01*
X142561961Y-108125348D01*
X142553996Y-108112049D01*
X142545446Y-108099472D01*
X142536310Y-108087616D01*
X142526589Y-108076482D01*
X142516285Y-108066069D01*
X142505397Y-108056376D01*
X142493927Y-108047404D01*
X142481874Y-108039152D01*
X142469239Y-108031618D01*
X142456023Y-108024805D01*
X142442227Y-108018709D01*
X142427850Y-108013333D01*
X142412895Y-108008674D01*
X142397360Y-108004733D01*
X142381248Y-108001509D01*
X142364557Y-107999003D01*
X142347290Y-107997213D01*
X142329446Y-107996139D01*
X142311026Y-107995781D01*
X142217970Y-107995781D01*
X142075820Y-107995781D01*
X142075820Y-107865844D01*
X142311026Y-107865844D01*
X142338410Y-107866326D01*
G37*
G36*
X143137544Y-108705062D02*
G01*
X143282380Y-108705062D01*
X143282380Y-108412948D01*
X143551780Y-108412948D01*
X143551780Y-108285942D01*
X143282380Y-108285942D01*
X143282380Y-107995293D01*
X143137544Y-107995293D01*
X143137544Y-108285942D01*
X142868144Y-108285942D01*
X142868144Y-108412948D01*
X143137544Y-108412948D01*
X143137544Y-108705062D01*
G37*
G36*
X144828410Y-107866326D02*
G01*
X144854919Y-107867774D01*
X144880555Y-107870188D01*
X144905318Y-107873569D01*
X144929207Y-107877918D01*
X144952223Y-107883235D01*
X144974367Y-107889522D01*
X144995638Y-107896779D01*
X145016038Y-107905007D01*
X145035566Y-107914206D01*
X145054223Y-107924379D01*
X145072009Y-107935525D01*
X145088924Y-107947645D01*
X145104968Y-107960740D01*
X145120143Y-107974811D01*
X145134448Y-107989858D01*
X145147884Y-108005883D01*
X145160451Y-108022886D01*
X145172148Y-108040869D01*
X145182978Y-108059831D01*
X145192939Y-108079774D01*
X145202032Y-108100698D01*
X145210258Y-108122605D01*
X145217617Y-108145494D01*
X145224109Y-108169368D01*
X145229734Y-108194226D01*
X145234493Y-108220070D01*
X145238386Y-108246900D01*
X145241413Y-108274717D01*
X145243575Y-108303522D01*
X145244872Y-108333316D01*
X145245304Y-108364099D01*
X145244872Y-108393128D01*
X145243575Y-108421230D01*
X145241413Y-108448405D01*
X145238386Y-108474654D01*
X145234493Y-108499976D01*
X145229734Y-108524374D01*
X145224109Y-108547846D01*
X145217617Y-108570393D01*
X145210258Y-108592016D01*
X145202032Y-108612714D01*
X145192939Y-108632489D01*
X145182978Y-108651340D01*
X145172148Y-108669269D01*
X145160451Y-108686274D01*
X145147884Y-108702357D01*
X145134448Y-108717519D01*
X145120143Y-108731758D01*
X145104968Y-108745077D01*
X145088924Y-108757474D01*
X145072009Y-108768951D01*
X145054223Y-108779508D01*
X145035566Y-108789144D01*
X145016038Y-108797862D01*
X144995638Y-108805660D01*
X144974367Y-108812539D01*
X144952223Y-108818500D01*
X144929207Y-108823543D01*
X144905318Y-108827668D01*
X144880555Y-108830876D01*
X144854919Y-108833167D01*
X144828410Y-108834541D01*
X144801026Y-108835000D01*
X144565820Y-108835000D01*
X144565820Y-107995781D01*
X144707970Y-107995781D01*
X144707970Y-108705307D01*
X144801026Y-108705307D01*
X144819446Y-108704972D01*
X144837290Y-108703970D01*
X144854557Y-108702300D01*
X144871248Y-108699962D01*
X144887360Y-108696956D01*
X144902895Y-108693283D01*
X144917850Y-108688943D01*
X144932227Y-108683935D01*
X144946023Y-108678261D01*
X144959239Y-108671920D01*
X144971874Y-108664912D01*
X144983927Y-108657238D01*
X144995397Y-108648898D01*
X145006285Y-108639892D01*
X145016589Y-108630220D01*
X145026310Y-108619883D01*
X145035446Y-108608880D01*
X145043996Y-108597211D01*
X145051961Y-108584878D01*
X145059339Y-108571879D01*
X145066131Y-108558216D01*
X145072335Y-108543889D01*
X145077951Y-108528896D01*
X145082978Y-108513240D01*
X145087416Y-108496920D01*
X145091264Y-108479936D01*
X145094522Y-108462288D01*
X145097188Y-108443976D01*
X145099264Y-108425002D01*
X145100746Y-108405364D01*
X145101637Y-108385063D01*
X145101934Y-108364099D01*
X145101637Y-108341382D01*
X145100746Y-108319391D01*
X145099264Y-108298126D01*
X145097188Y-108277588D01*
X145094522Y-108257775D01*
X145091264Y-108238687D01*
X145087416Y-108220324D01*
X145082978Y-108202685D01*
X145077951Y-108185771D01*
X145072335Y-108169580D01*
X145066131Y-108154113D01*
X145059339Y-108139369D01*
X145051961Y-108125348D01*
X145043996Y-108112049D01*
X145035446Y-108099472D01*
X145026310Y-108087616D01*
X145016589Y-108076482D01*
X145006285Y-108066069D01*
X144995397Y-108056376D01*
X144983927Y-108047404D01*
X144971874Y-108039152D01*
X144959239Y-108031618D01*
X144946023Y-108024805D01*
X144932227Y-108018709D01*
X144917850Y-108013333D01*
X144902895Y-108008674D01*
X144887360Y-108004733D01*
X144871248Y-108001509D01*
X144854557Y-107999003D01*
X144837290Y-107997213D01*
X144819446Y-107996139D01*
X144801026Y-107995781D01*
X144707970Y-107995781D01*
X144565820Y-107995781D01*
X144565820Y-107865844D01*
X144801026Y-107865844D01*
X144828410Y-107866326D01*
G37*
G36*
X145358144Y-108412948D02*
G01*
X146041780Y-108412948D01*
X146041780Y-108285942D01*
X145358144Y-108285942D01*
X145358144Y-108412948D01*
G37*
X147669523Y-107874819D02*
X147193333Y-107874819D01*
X147193333Y-107874819D02*
X147145714Y-108351009D01*
X147145714Y-108351009D02*
X147193333Y-108303390D01*
X147193333Y-108303390D02*
X147288571Y-108255771D01*
X147288571Y-108255771D02*
X147526666Y-108255771D01*
X147526666Y-108255771D02*
X147621904Y-108303390D01*
X147621904Y-108303390D02*
X147669523Y-108351009D01*
X147669523Y-108351009D02*
X147717142Y-108446247D01*
X147717142Y-108446247D02*
X147717142Y-108684342D01*
X147717142Y-108684342D02*
X147669523Y-108779580D01*
X147669523Y-108779580D02*
X147621904Y-108827200D01*
X147621904Y-108827200D02*
X147526666Y-108874819D01*
X147526666Y-108874819D02*
X147288571Y-108874819D01*
X147288571Y-108874819D02*
X147193333Y-108827200D01*
X147193333Y-108827200D02*
X147145714Y-108779580D01*
X148002857Y-107874819D02*
X148336190Y-108874819D01*
X148336190Y-108874819D02*
X148669523Y-107874819D01*
X183498571Y-171931628D02*
X184641428Y-171931628D01*
X183727143Y-172274485D02*
X184412857Y-172274485D01*
X184070000Y-171417342D02*
X184070000Y-171931628D01*
X184184285Y-172617342D02*
X183955714Y-172617342D01*
X178516191Y-172664819D02*
X178516191Y-171664819D01*
X179182857Y-171664819D02*
X179373333Y-171664819D01*
X179373333Y-171664819D02*
X179468571Y-171712438D01*
X179468571Y-171712438D02*
X179563809Y-171807676D01*
X179563809Y-171807676D02*
X179611428Y-171998152D01*
X179611428Y-171998152D02*
X179611428Y-172331485D01*
X179611428Y-172331485D02*
X179563809Y-172521961D01*
X179563809Y-172521961D02*
X179468571Y-172617200D01*
X179468571Y-172617200D02*
X179373333Y-172664819D01*
X179373333Y-172664819D02*
X179182857Y-172664819D01*
X179182857Y-172664819D02*
X179087619Y-172617200D01*
X179087619Y-172617200D02*
X178992381Y-172521961D01*
X178992381Y-172521961D02*
X178944762Y-172331485D01*
X178944762Y-172331485D02*
X178944762Y-171998152D01*
X178944762Y-171998152D02*
X178992381Y-171807676D01*
X178992381Y-171807676D02*
X179087619Y-171712438D01*
X179087619Y-171712438D02*
X179182857Y-171664819D01*
X180934761Y-172489580D02*
X180887142Y-172537200D01*
X180887142Y-172537200D02*
X180744285Y-172584819D01*
X180744285Y-172584819D02*
X180649047Y-172584819D01*
X180649047Y-172584819D02*
X180506190Y-172537200D01*
X180506190Y-172537200D02*
X180410952Y-172441961D01*
X180410952Y-172441961D02*
X180363333Y-172346723D01*
X180363333Y-172346723D02*
X180315714Y-172156247D01*
X180315714Y-172156247D02*
X180315714Y-172013390D01*
X180315714Y-172013390D02*
X180363333Y-171822914D01*
X180363333Y-171822914D02*
X180410952Y-171727676D01*
X180410952Y-171727676D02*
X180506190Y-171632438D01*
X180506190Y-171632438D02*
X180649047Y-171584819D01*
X180649047Y-171584819D02*
X180744285Y-171584819D01*
X180744285Y-171584819D02*
X180887142Y-171632438D01*
X180887142Y-171632438D02*
X180934761Y-171680057D01*
X181839523Y-172584819D02*
X181363333Y-172584819D01*
X181363333Y-172584819D02*
X181363333Y-171584819D01*
X182172857Y-172584819D02*
X182172857Y-171584819D01*
X182744285Y-172584819D02*
X182315714Y-172013390D01*
X182744285Y-171584819D02*
X182172857Y-172156247D01*
X175181905Y-171674819D02*
X175800952Y-171674819D01*
X175800952Y-171674819D02*
X175467619Y-172055771D01*
X175467619Y-172055771D02*
X175610476Y-172055771D01*
X175610476Y-172055771D02*
X175705714Y-172103390D01*
X175705714Y-172103390D02*
X175753333Y-172151009D01*
X175753333Y-172151009D02*
X175800952Y-172246247D01*
X175800952Y-172246247D02*
X175800952Y-172484342D01*
X175800952Y-172484342D02*
X175753333Y-172579580D01*
X175753333Y-172579580D02*
X175705714Y-172627200D01*
X175705714Y-172627200D02*
X175610476Y-172674819D01*
X175610476Y-172674819D02*
X175324762Y-172674819D01*
X175324762Y-172674819D02*
X175229524Y-172627200D01*
X175229524Y-172627200D02*
X175181905Y-172579580D01*
X176086667Y-171674819D02*
X176420000Y-172674819D01*
X176420000Y-172674819D02*
X176753333Y-171674819D01*
X176991429Y-171674819D02*
X177610476Y-171674819D01*
X177610476Y-171674819D02*
X177277143Y-172055771D01*
X177277143Y-172055771D02*
X177420000Y-172055771D01*
X177420000Y-172055771D02*
X177515238Y-172103390D01*
X177515238Y-172103390D02*
X177562857Y-172151009D01*
X177562857Y-172151009D02*
X177610476Y-172246247D01*
X177610476Y-172246247D02*
X177610476Y-172484342D01*
X177610476Y-172484342D02*
X177562857Y-172579580D01*
X177562857Y-172579580D02*
X177515238Y-172627200D01*
X177515238Y-172627200D02*
X177420000Y-172674819D01*
X177420000Y-172674819D02*
X177134286Y-172674819D01*
X177134286Y-172674819D02*
X177039048Y-172627200D01*
X177039048Y-172627200D02*
X176991429Y-172579580D01*
X329755655Y-146394700D02*
X329898512Y-146442319D01*
X329898512Y-146442319D02*
X330136607Y-146442319D01*
X330136607Y-146442319D02*
X330231845Y-146394700D01*
X330231845Y-146394700D02*
X330279464Y-146347080D01*
X330279464Y-146347080D02*
X330327083Y-146251842D01*
X330327083Y-146251842D02*
X330327083Y-146156604D01*
X330327083Y-146156604D02*
X330279464Y-146061366D01*
X330279464Y-146061366D02*
X330231845Y-146013747D01*
X330231845Y-146013747D02*
X330136607Y-145966128D01*
X330136607Y-145966128D02*
X329946131Y-145918509D01*
X329946131Y-145918509D02*
X329850893Y-145870890D01*
X329850893Y-145870890D02*
X329803274Y-145823271D01*
X329803274Y-145823271D02*
X329755655Y-145728033D01*
X329755655Y-145728033D02*
X329755655Y-145632795D01*
X329755655Y-145632795D02*
X329803274Y-145537557D01*
X329803274Y-145537557D02*
X329850893Y-145489938D01*
X329850893Y-145489938D02*
X329946131Y-145442319D01*
X329946131Y-145442319D02*
X330184226Y-145442319D01*
X330184226Y-145442319D02*
X330327083Y-145489938D01*
X331231845Y-145442319D02*
X330755655Y-145442319D01*
X330755655Y-145442319D02*
X330708036Y-145918509D01*
X330708036Y-145918509D02*
X330755655Y-145870890D01*
X330755655Y-145870890D02*
X330850893Y-145823271D01*
X330850893Y-145823271D02*
X331088988Y-145823271D01*
X331088988Y-145823271D02*
X331184226Y-145870890D01*
X331184226Y-145870890D02*
X331231845Y-145918509D01*
X331231845Y-145918509D02*
X331279464Y-146013747D01*
X331279464Y-146013747D02*
X331279464Y-146251842D01*
X331279464Y-146251842D02*
X331231845Y-146347080D01*
X331231845Y-146347080D02*
X331184226Y-146394700D01*
X331184226Y-146394700D02*
X331088988Y-146442319D01*
X331088988Y-146442319D02*
X330850893Y-146442319D01*
X330850893Y-146442319D02*
X330755655Y-146394700D01*
X330755655Y-146394700D02*
X330708036Y-146347080D01*
X331612798Y-145442319D02*
X332231845Y-145442319D01*
X332231845Y-145442319D02*
X331898512Y-145823271D01*
X331898512Y-145823271D02*
X332041369Y-145823271D01*
X332041369Y-145823271D02*
X332136607Y-145870890D01*
X332136607Y-145870890D02*
X332184226Y-145918509D01*
X332184226Y-145918509D02*
X332231845Y-146013747D01*
X332231845Y-146013747D02*
X332231845Y-146251842D01*
X332231845Y-146251842D02*
X332184226Y-146347080D01*
X332184226Y-146347080D02*
X332136607Y-146394700D01*
X332136607Y-146394700D02*
X332041369Y-146442319D01*
X332041369Y-146442319D02*
X331755655Y-146442319D01*
X331755655Y-146442319D02*
X331660417Y-146394700D01*
X331660417Y-146394700D02*
X331612798Y-146347080D01*
X129730655Y-165444700D02*
X129873512Y-165492319D01*
X129873512Y-165492319D02*
X130111607Y-165492319D01*
X130111607Y-165492319D02*
X130206845Y-165444700D01*
X130206845Y-165444700D02*
X130254464Y-165397080D01*
X130254464Y-165397080D02*
X130302083Y-165301842D01*
X130302083Y-165301842D02*
X130302083Y-165206604D01*
X130302083Y-165206604D02*
X130254464Y-165111366D01*
X130254464Y-165111366D02*
X130206845Y-165063747D01*
X130206845Y-165063747D02*
X130111607Y-165016128D01*
X130111607Y-165016128D02*
X129921131Y-164968509D01*
X129921131Y-164968509D02*
X129825893Y-164920890D01*
X129825893Y-164920890D02*
X129778274Y-164873271D01*
X129778274Y-164873271D02*
X129730655Y-164778033D01*
X129730655Y-164778033D02*
X129730655Y-164682795D01*
X129730655Y-164682795D02*
X129778274Y-164587557D01*
X129778274Y-164587557D02*
X129825893Y-164539938D01*
X129825893Y-164539938D02*
X129921131Y-164492319D01*
X129921131Y-164492319D02*
X130159226Y-164492319D01*
X130159226Y-164492319D02*
X130302083Y-164539938D01*
X131206845Y-164492319D02*
X130730655Y-164492319D01*
X130730655Y-164492319D02*
X130683036Y-164968509D01*
X130683036Y-164968509D02*
X130730655Y-164920890D01*
X130730655Y-164920890D02*
X130825893Y-164873271D01*
X130825893Y-164873271D02*
X131063988Y-164873271D01*
X131063988Y-164873271D02*
X131159226Y-164920890D01*
X131159226Y-164920890D02*
X131206845Y-164968509D01*
X131206845Y-164968509D02*
X131254464Y-165063747D01*
X131254464Y-165063747D02*
X131254464Y-165301842D01*
X131254464Y-165301842D02*
X131206845Y-165397080D01*
X131206845Y-165397080D02*
X131159226Y-165444700D01*
X131159226Y-165444700D02*
X131063988Y-165492319D01*
X131063988Y-165492319D02*
X130825893Y-165492319D01*
X130825893Y-165492319D02*
X130730655Y-165444700D01*
X130730655Y-165444700D02*
X130683036Y-165397080D01*
X132111607Y-164492319D02*
X131921131Y-164492319D01*
X131921131Y-164492319D02*
X131825893Y-164539938D01*
X131825893Y-164539938D02*
X131778274Y-164587557D01*
X131778274Y-164587557D02*
X131683036Y-164730414D01*
X131683036Y-164730414D02*
X131635417Y-164920890D01*
X131635417Y-164920890D02*
X131635417Y-165301842D01*
X131635417Y-165301842D02*
X131683036Y-165397080D01*
X131683036Y-165397080D02*
X131730655Y-165444700D01*
X131730655Y-165444700D02*
X131825893Y-165492319D01*
X131825893Y-165492319D02*
X132016369Y-165492319D01*
X132016369Y-165492319D02*
X132111607Y-165444700D01*
X132111607Y-165444700D02*
X132159226Y-165397080D01*
X132159226Y-165397080D02*
X132206845Y-165301842D01*
X132206845Y-165301842D02*
X132206845Y-165063747D01*
X132206845Y-165063747D02*
X132159226Y-164968509D01*
X132159226Y-164968509D02*
X132111607Y-164920890D01*
X132111607Y-164920890D02*
X132016369Y-164873271D01*
X132016369Y-164873271D02*
X131825893Y-164873271D01*
X131825893Y-164873271D02*
X131730655Y-164920890D01*
X131730655Y-164920890D02*
X131683036Y-164968509D01*
X131683036Y-164968509D02*
X131635417Y-165063747D01*
X99250595Y-89244700D02*
X99393452Y-89292319D01*
X99393452Y-89292319D02*
X99631547Y-89292319D01*
X99631547Y-89292319D02*
X99726785Y-89244700D01*
X99726785Y-89244700D02*
X99774404Y-89197080D01*
X99774404Y-89197080D02*
X99822023Y-89101842D01*
X99822023Y-89101842D02*
X99822023Y-89006604D01*
X99822023Y-89006604D02*
X99774404Y-88911366D01*
X99774404Y-88911366D02*
X99726785Y-88863747D01*
X99726785Y-88863747D02*
X99631547Y-88816128D01*
X99631547Y-88816128D02*
X99441071Y-88768509D01*
X99441071Y-88768509D02*
X99345833Y-88720890D01*
X99345833Y-88720890D02*
X99298214Y-88673271D01*
X99298214Y-88673271D02*
X99250595Y-88578033D01*
X99250595Y-88578033D02*
X99250595Y-88482795D01*
X99250595Y-88482795D02*
X99298214Y-88387557D01*
X99298214Y-88387557D02*
X99345833Y-88339938D01*
X99345833Y-88339938D02*
X99441071Y-88292319D01*
X99441071Y-88292319D02*
X99679166Y-88292319D01*
X99679166Y-88292319D02*
X99822023Y-88339938D01*
X100202976Y-88387557D02*
X100250595Y-88339938D01*
X100250595Y-88339938D02*
X100345833Y-88292319D01*
X100345833Y-88292319D02*
X100583928Y-88292319D01*
X100583928Y-88292319D02*
X100679166Y-88339938D01*
X100679166Y-88339938D02*
X100726785Y-88387557D01*
X100726785Y-88387557D02*
X100774404Y-88482795D01*
X100774404Y-88482795D02*
X100774404Y-88578033D01*
X100774404Y-88578033D02*
X100726785Y-88720890D01*
X100726785Y-88720890D02*
X100155357Y-89292319D01*
X100155357Y-89292319D02*
X100774404Y-89292319D01*
X137350595Y-89244700D02*
X137493452Y-89292319D01*
X137493452Y-89292319D02*
X137731547Y-89292319D01*
X137731547Y-89292319D02*
X137826785Y-89244700D01*
X137826785Y-89244700D02*
X137874404Y-89197080D01*
X137874404Y-89197080D02*
X137922023Y-89101842D01*
X137922023Y-89101842D02*
X137922023Y-89006604D01*
X137922023Y-89006604D02*
X137874404Y-88911366D01*
X137874404Y-88911366D02*
X137826785Y-88863747D01*
X137826785Y-88863747D02*
X137731547Y-88816128D01*
X137731547Y-88816128D02*
X137541071Y-88768509D01*
X137541071Y-88768509D02*
X137445833Y-88720890D01*
X137445833Y-88720890D02*
X137398214Y-88673271D01*
X137398214Y-88673271D02*
X137350595Y-88578033D01*
X137350595Y-88578033D02*
X137350595Y-88482795D01*
X137350595Y-88482795D02*
X137398214Y-88387557D01*
X137398214Y-88387557D02*
X137445833Y-88339938D01*
X137445833Y-88339938D02*
X137541071Y-88292319D01*
X137541071Y-88292319D02*
X137779166Y-88292319D01*
X137779166Y-88292319D02*
X137922023Y-88339938D01*
X138779166Y-88625652D02*
X138779166Y-89292319D01*
X138541071Y-88244700D02*
X138302976Y-88958985D01*
X138302976Y-88958985D02*
X138922023Y-88958985D01*
X272605655Y-165444700D02*
X272748512Y-165492319D01*
X272748512Y-165492319D02*
X272986607Y-165492319D01*
X272986607Y-165492319D02*
X273081845Y-165444700D01*
X273081845Y-165444700D02*
X273129464Y-165397080D01*
X273129464Y-165397080D02*
X273177083Y-165301842D01*
X273177083Y-165301842D02*
X273177083Y-165206604D01*
X273177083Y-165206604D02*
X273129464Y-165111366D01*
X273129464Y-165111366D02*
X273081845Y-165063747D01*
X273081845Y-165063747D02*
X272986607Y-165016128D01*
X272986607Y-165016128D02*
X272796131Y-164968509D01*
X272796131Y-164968509D02*
X272700893Y-164920890D01*
X272700893Y-164920890D02*
X272653274Y-164873271D01*
X272653274Y-164873271D02*
X272605655Y-164778033D01*
X272605655Y-164778033D02*
X272605655Y-164682795D01*
X272605655Y-164682795D02*
X272653274Y-164587557D01*
X272653274Y-164587557D02*
X272700893Y-164539938D01*
X272700893Y-164539938D02*
X272796131Y-164492319D01*
X272796131Y-164492319D02*
X273034226Y-164492319D01*
X273034226Y-164492319D02*
X273177083Y-164539938D01*
X274081845Y-164492319D02*
X273605655Y-164492319D01*
X273605655Y-164492319D02*
X273558036Y-164968509D01*
X273558036Y-164968509D02*
X273605655Y-164920890D01*
X273605655Y-164920890D02*
X273700893Y-164873271D01*
X273700893Y-164873271D02*
X273938988Y-164873271D01*
X273938988Y-164873271D02*
X274034226Y-164920890D01*
X274034226Y-164920890D02*
X274081845Y-164968509D01*
X274081845Y-164968509D02*
X274129464Y-165063747D01*
X274129464Y-165063747D02*
X274129464Y-165301842D01*
X274129464Y-165301842D02*
X274081845Y-165397080D01*
X274081845Y-165397080D02*
X274034226Y-165444700D01*
X274034226Y-165444700D02*
X273938988Y-165492319D01*
X273938988Y-165492319D02*
X273700893Y-165492319D01*
X273700893Y-165492319D02*
X273605655Y-165444700D01*
X273605655Y-165444700D02*
X273558036Y-165397080D01*
X274700893Y-164920890D02*
X274605655Y-164873271D01*
X274605655Y-164873271D02*
X274558036Y-164825652D01*
X274558036Y-164825652D02*
X274510417Y-164730414D01*
X274510417Y-164730414D02*
X274510417Y-164682795D01*
X274510417Y-164682795D02*
X274558036Y-164587557D01*
X274558036Y-164587557D02*
X274605655Y-164539938D01*
X274605655Y-164539938D02*
X274700893Y-164492319D01*
X274700893Y-164492319D02*
X274891369Y-164492319D01*
X274891369Y-164492319D02*
X274986607Y-164539938D01*
X274986607Y-164539938D02*
X275034226Y-164587557D01*
X275034226Y-164587557D02*
X275081845Y-164682795D01*
X275081845Y-164682795D02*
X275081845Y-164730414D01*
X275081845Y-164730414D02*
X275034226Y-164825652D01*
X275034226Y-164825652D02*
X274986607Y-164873271D01*
X274986607Y-164873271D02*
X274891369Y-164920890D01*
X274891369Y-164920890D02*
X274700893Y-164920890D01*
X274700893Y-164920890D02*
X274605655Y-164968509D01*
X274605655Y-164968509D02*
X274558036Y-165016128D01*
X274558036Y-165016128D02*
X274510417Y-165111366D01*
X274510417Y-165111366D02*
X274510417Y-165301842D01*
X274510417Y-165301842D02*
X274558036Y-165397080D01*
X274558036Y-165397080D02*
X274605655Y-165444700D01*
X274605655Y-165444700D02*
X274700893Y-165492319D01*
X274700893Y-165492319D02*
X274891369Y-165492319D01*
X274891369Y-165492319D02*
X274986607Y-165444700D01*
X274986607Y-165444700D02*
X275034226Y-165397080D01*
X275034226Y-165397080D02*
X275081845Y-165301842D01*
X275081845Y-165301842D02*
X275081845Y-165111366D01*
X275081845Y-165111366D02*
X275034226Y-165016128D01*
X275034226Y-165016128D02*
X274986607Y-164968509D01*
X274986607Y-164968509D02*
X274891369Y-164920890D01*
X150084819Y-106718333D02*
X150799104Y-106718333D01*
X150799104Y-106718333D02*
X150941961Y-106765952D01*
X150941961Y-106765952D02*
X151037200Y-106861190D01*
X151037200Y-106861190D02*
X151084819Y-107004047D01*
X151084819Y-107004047D02*
X151084819Y-107099285D01*
X150418152Y-105813571D02*
X151084819Y-105813571D01*
X150037200Y-106051666D02*
X150751485Y-106289761D01*
X150751485Y-106289761D02*
X150751485Y-105670714D01*
X208311905Y-127344700D02*
X208454762Y-127392319D01*
X208454762Y-127392319D02*
X208692857Y-127392319D01*
X208692857Y-127392319D02*
X208788095Y-127344700D01*
X208788095Y-127344700D02*
X208835714Y-127297080D01*
X208835714Y-127297080D02*
X208883333Y-127201842D01*
X208883333Y-127201842D02*
X208883333Y-127106604D01*
X208883333Y-127106604D02*
X208835714Y-127011366D01*
X208835714Y-127011366D02*
X208788095Y-126963747D01*
X208788095Y-126963747D02*
X208692857Y-126916128D01*
X208692857Y-126916128D02*
X208502381Y-126868509D01*
X208502381Y-126868509D02*
X208407143Y-126820890D01*
X208407143Y-126820890D02*
X208359524Y-126773271D01*
X208359524Y-126773271D02*
X208311905Y-126678033D01*
X208311905Y-126678033D02*
X208311905Y-126582795D01*
X208311905Y-126582795D02*
X208359524Y-126487557D01*
X208359524Y-126487557D02*
X208407143Y-126439938D01*
X208407143Y-126439938D02*
X208502381Y-126392319D01*
X208502381Y-126392319D02*
X208740476Y-126392319D01*
X208740476Y-126392319D02*
X208883333Y-126439938D01*
X209216667Y-126392319D02*
X209835714Y-126392319D01*
X209835714Y-126392319D02*
X209502381Y-126773271D01*
X209502381Y-126773271D02*
X209645238Y-126773271D01*
X209645238Y-126773271D02*
X209740476Y-126820890D01*
X209740476Y-126820890D02*
X209788095Y-126868509D01*
X209788095Y-126868509D02*
X209835714Y-126963747D01*
X209835714Y-126963747D02*
X209835714Y-127201842D01*
X209835714Y-127201842D02*
X209788095Y-127297080D01*
X209788095Y-127297080D02*
X209740476Y-127344700D01*
X209740476Y-127344700D02*
X209645238Y-127392319D01*
X209645238Y-127392319D02*
X209359524Y-127392319D01*
X209359524Y-127392319D02*
X209264286Y-127344700D01*
X209264286Y-127344700D02*
X209216667Y-127297080D01*
X210740476Y-126392319D02*
X210264286Y-126392319D01*
X210264286Y-126392319D02*
X210216667Y-126868509D01*
X210216667Y-126868509D02*
X210264286Y-126820890D01*
X210264286Y-126820890D02*
X210359524Y-126773271D01*
X210359524Y-126773271D02*
X210597619Y-126773271D01*
X210597619Y-126773271D02*
X210692857Y-126820890D01*
X210692857Y-126820890D02*
X210740476Y-126868509D01*
X210740476Y-126868509D02*
X210788095Y-126963747D01*
X210788095Y-126963747D02*
X210788095Y-127201842D01*
X210788095Y-127201842D02*
X210740476Y-127297080D01*
X210740476Y-127297080D02*
X210692857Y-127344700D01*
X210692857Y-127344700D02*
X210597619Y-127392319D01*
X210597619Y-127392319D02*
X210359524Y-127392319D01*
X210359524Y-127392319D02*
X210264286Y-127344700D01*
X210264286Y-127344700D02*
X210216667Y-127297080D01*
X274986905Y-146394700D02*
X275129762Y-146442319D01*
X275129762Y-146442319D02*
X275367857Y-146442319D01*
X275367857Y-146442319D02*
X275463095Y-146394700D01*
X275463095Y-146394700D02*
X275510714Y-146347080D01*
X275510714Y-146347080D02*
X275558333Y-146251842D01*
X275558333Y-146251842D02*
X275558333Y-146156604D01*
X275558333Y-146156604D02*
X275510714Y-146061366D01*
X275510714Y-146061366D02*
X275463095Y-146013747D01*
X275463095Y-146013747D02*
X275367857Y-145966128D01*
X275367857Y-145966128D02*
X275177381Y-145918509D01*
X275177381Y-145918509D02*
X275082143Y-145870890D01*
X275082143Y-145870890D02*
X275034524Y-145823271D01*
X275034524Y-145823271D02*
X274986905Y-145728033D01*
X274986905Y-145728033D02*
X274986905Y-145632795D01*
X274986905Y-145632795D02*
X275034524Y-145537557D01*
X275034524Y-145537557D02*
X275082143Y-145489938D01*
X275082143Y-145489938D02*
X275177381Y-145442319D01*
X275177381Y-145442319D02*
X275415476Y-145442319D01*
X275415476Y-145442319D02*
X275558333Y-145489938D01*
X276463095Y-145442319D02*
X275986905Y-145442319D01*
X275986905Y-145442319D02*
X275939286Y-145918509D01*
X275939286Y-145918509D02*
X275986905Y-145870890D01*
X275986905Y-145870890D02*
X276082143Y-145823271D01*
X276082143Y-145823271D02*
X276320238Y-145823271D01*
X276320238Y-145823271D02*
X276415476Y-145870890D01*
X276415476Y-145870890D02*
X276463095Y-145918509D01*
X276463095Y-145918509D02*
X276510714Y-146013747D01*
X276510714Y-146013747D02*
X276510714Y-146251842D01*
X276510714Y-146251842D02*
X276463095Y-146347080D01*
X276463095Y-146347080D02*
X276415476Y-146394700D01*
X276415476Y-146394700D02*
X276320238Y-146442319D01*
X276320238Y-146442319D02*
X276082143Y-146442319D01*
X276082143Y-146442319D02*
X275986905Y-146394700D01*
X275986905Y-146394700D02*
X275939286Y-146347080D01*
X277463095Y-146442319D02*
X276891667Y-146442319D01*
X277177381Y-146442319D02*
X277177381Y-145442319D01*
X277177381Y-145442319D02*
X277082143Y-145585176D01*
X277082143Y-145585176D02*
X276986905Y-145680414D01*
X276986905Y-145680414D02*
X276891667Y-145728033D01*
X192119345Y-176492319D02*
X192119345Y-175492319D01*
X192119345Y-175968509D02*
X192690773Y-175968509D01*
X192690773Y-176492319D02*
X192690773Y-175492319D01*
X193643154Y-175492319D02*
X193166964Y-175492319D01*
X193166964Y-175492319D02*
X193119345Y-175968509D01*
X193119345Y-175968509D02*
X193166964Y-175920890D01*
X193166964Y-175920890D02*
X193262202Y-175873271D01*
X193262202Y-175873271D02*
X193500297Y-175873271D01*
X193500297Y-175873271D02*
X193595535Y-175920890D01*
X193595535Y-175920890D02*
X193643154Y-175968509D01*
X193643154Y-175968509D02*
X193690773Y-176063747D01*
X193690773Y-176063747D02*
X193690773Y-176301842D01*
X193690773Y-176301842D02*
X193643154Y-176397080D01*
X193643154Y-176397080D02*
X193595535Y-176444700D01*
X193595535Y-176444700D02*
X193500297Y-176492319D01*
X193500297Y-176492319D02*
X193262202Y-176492319D01*
X193262202Y-176492319D02*
X193166964Y-176444700D01*
X193166964Y-176444700D02*
X193119345Y-176397080D01*
X198786905Y-146394700D02*
X198929762Y-146442319D01*
X198929762Y-146442319D02*
X199167857Y-146442319D01*
X199167857Y-146442319D02*
X199263095Y-146394700D01*
X199263095Y-146394700D02*
X199310714Y-146347080D01*
X199310714Y-146347080D02*
X199358333Y-146251842D01*
X199358333Y-146251842D02*
X199358333Y-146156604D01*
X199358333Y-146156604D02*
X199310714Y-146061366D01*
X199310714Y-146061366D02*
X199263095Y-146013747D01*
X199263095Y-146013747D02*
X199167857Y-145966128D01*
X199167857Y-145966128D02*
X198977381Y-145918509D01*
X198977381Y-145918509D02*
X198882143Y-145870890D01*
X198882143Y-145870890D02*
X198834524Y-145823271D01*
X198834524Y-145823271D02*
X198786905Y-145728033D01*
X198786905Y-145728033D02*
X198786905Y-145632795D01*
X198786905Y-145632795D02*
X198834524Y-145537557D01*
X198834524Y-145537557D02*
X198882143Y-145489938D01*
X198882143Y-145489938D02*
X198977381Y-145442319D01*
X198977381Y-145442319D02*
X199215476Y-145442319D01*
X199215476Y-145442319D02*
X199358333Y-145489938D01*
X200215476Y-145775652D02*
X200215476Y-146442319D01*
X199977381Y-145394700D02*
X199739286Y-146108985D01*
X199739286Y-146108985D02*
X200358333Y-146108985D01*
X200644048Y-145442319D02*
X201310714Y-145442319D01*
X201310714Y-145442319D02*
X200882143Y-146442319D01*
X334518155Y-127344700D02*
X334661012Y-127392319D01*
X334661012Y-127392319D02*
X334899107Y-127392319D01*
X334899107Y-127392319D02*
X334994345Y-127344700D01*
X334994345Y-127344700D02*
X335041964Y-127297080D01*
X335041964Y-127297080D02*
X335089583Y-127201842D01*
X335089583Y-127201842D02*
X335089583Y-127106604D01*
X335089583Y-127106604D02*
X335041964Y-127011366D01*
X335041964Y-127011366D02*
X334994345Y-126963747D01*
X334994345Y-126963747D02*
X334899107Y-126916128D01*
X334899107Y-126916128D02*
X334708631Y-126868509D01*
X334708631Y-126868509D02*
X334613393Y-126820890D01*
X334613393Y-126820890D02*
X334565774Y-126773271D01*
X334565774Y-126773271D02*
X334518155Y-126678033D01*
X334518155Y-126678033D02*
X334518155Y-126582795D01*
X334518155Y-126582795D02*
X334565774Y-126487557D01*
X334565774Y-126487557D02*
X334613393Y-126439938D01*
X334613393Y-126439938D02*
X334708631Y-126392319D01*
X334708631Y-126392319D02*
X334946726Y-126392319D01*
X334946726Y-126392319D02*
X335089583Y-126439938D01*
X335946726Y-126725652D02*
X335946726Y-127392319D01*
X335708631Y-126344700D02*
X335470536Y-127058985D01*
X335470536Y-127058985D02*
X336089583Y-127058985D01*
X336994345Y-127392319D02*
X336422917Y-127392319D01*
X336708631Y-127392319D02*
X336708631Y-126392319D01*
X336708631Y-126392319D02*
X336613393Y-126535176D01*
X336613393Y-126535176D02*
X336518155Y-126630414D01*
X336518155Y-126630414D02*
X336422917Y-126678033D01*
X232600595Y-89244700D02*
X232743452Y-89292319D01*
X232743452Y-89292319D02*
X232981547Y-89292319D01*
X232981547Y-89292319D02*
X233076785Y-89244700D01*
X233076785Y-89244700D02*
X233124404Y-89197080D01*
X233124404Y-89197080D02*
X233172023Y-89101842D01*
X233172023Y-89101842D02*
X233172023Y-89006604D01*
X233172023Y-89006604D02*
X233124404Y-88911366D01*
X233124404Y-88911366D02*
X233076785Y-88863747D01*
X233076785Y-88863747D02*
X232981547Y-88816128D01*
X232981547Y-88816128D02*
X232791071Y-88768509D01*
X232791071Y-88768509D02*
X232695833Y-88720890D01*
X232695833Y-88720890D02*
X232648214Y-88673271D01*
X232648214Y-88673271D02*
X232600595Y-88578033D01*
X232600595Y-88578033D02*
X232600595Y-88482795D01*
X232600595Y-88482795D02*
X232648214Y-88387557D01*
X232648214Y-88387557D02*
X232695833Y-88339938D01*
X232695833Y-88339938D02*
X232791071Y-88292319D01*
X232791071Y-88292319D02*
X233029166Y-88292319D01*
X233029166Y-88292319D02*
X233172023Y-88339938D01*
X233648214Y-89292319D02*
X233838690Y-89292319D01*
X233838690Y-89292319D02*
X233933928Y-89244700D01*
X233933928Y-89244700D02*
X233981547Y-89197080D01*
X233981547Y-89197080D02*
X234076785Y-89054223D01*
X234076785Y-89054223D02*
X234124404Y-88863747D01*
X234124404Y-88863747D02*
X234124404Y-88482795D01*
X234124404Y-88482795D02*
X234076785Y-88387557D01*
X234076785Y-88387557D02*
X234029166Y-88339938D01*
X234029166Y-88339938D02*
X233933928Y-88292319D01*
X233933928Y-88292319D02*
X233743452Y-88292319D01*
X233743452Y-88292319D02*
X233648214Y-88339938D01*
X233648214Y-88339938D02*
X233600595Y-88387557D01*
X233600595Y-88387557D02*
X233552976Y-88482795D01*
X233552976Y-88482795D02*
X233552976Y-88720890D01*
X233552976Y-88720890D02*
X233600595Y-88816128D01*
X233600595Y-88816128D02*
X233648214Y-88863747D01*
X233648214Y-88863747D02*
X233743452Y-88911366D01*
X233743452Y-88911366D02*
X233933928Y-88911366D01*
X233933928Y-88911366D02*
X234029166Y-88863747D01*
X234029166Y-88863747D02*
X234076785Y-88816128D01*
X234076785Y-88816128D02*
X234124404Y-88720890D01*
X160686905Y-146394700D02*
X160829762Y-146442319D01*
X160829762Y-146442319D02*
X161067857Y-146442319D01*
X161067857Y-146442319D02*
X161163095Y-146394700D01*
X161163095Y-146394700D02*
X161210714Y-146347080D01*
X161210714Y-146347080D02*
X161258333Y-146251842D01*
X161258333Y-146251842D02*
X161258333Y-146156604D01*
X161258333Y-146156604D02*
X161210714Y-146061366D01*
X161210714Y-146061366D02*
X161163095Y-146013747D01*
X161163095Y-146013747D02*
X161067857Y-145966128D01*
X161067857Y-145966128D02*
X160877381Y-145918509D01*
X160877381Y-145918509D02*
X160782143Y-145870890D01*
X160782143Y-145870890D02*
X160734524Y-145823271D01*
X160734524Y-145823271D02*
X160686905Y-145728033D01*
X160686905Y-145728033D02*
X160686905Y-145632795D01*
X160686905Y-145632795D02*
X160734524Y-145537557D01*
X160734524Y-145537557D02*
X160782143Y-145489938D01*
X160782143Y-145489938D02*
X160877381Y-145442319D01*
X160877381Y-145442319D02*
X161115476Y-145442319D01*
X161115476Y-145442319D02*
X161258333Y-145489938D01*
X162115476Y-145775652D02*
X162115476Y-146442319D01*
X161877381Y-145394700D02*
X161639286Y-146108985D01*
X161639286Y-146108985D02*
X162258333Y-146108985D01*
X163115476Y-145442319D02*
X162639286Y-145442319D01*
X162639286Y-145442319D02*
X162591667Y-145918509D01*
X162591667Y-145918509D02*
X162639286Y-145870890D01*
X162639286Y-145870890D02*
X162734524Y-145823271D01*
X162734524Y-145823271D02*
X162972619Y-145823271D01*
X162972619Y-145823271D02*
X163067857Y-145870890D01*
X163067857Y-145870890D02*
X163115476Y-145918509D01*
X163115476Y-145918509D02*
X163163095Y-146013747D01*
X163163095Y-146013747D02*
X163163095Y-146251842D01*
X163163095Y-146251842D02*
X163115476Y-146347080D01*
X163115476Y-146347080D02*
X163067857Y-146394700D01*
X163067857Y-146394700D02*
X162972619Y-146442319D01*
X162972619Y-146442319D02*
X162734524Y-146442319D01*
X162734524Y-146442319D02*
X162639286Y-146394700D01*
X162639286Y-146394700D02*
X162591667Y-146347080D01*
X170211905Y-127344700D02*
X170354762Y-127392319D01*
X170354762Y-127392319D02*
X170592857Y-127392319D01*
X170592857Y-127392319D02*
X170688095Y-127344700D01*
X170688095Y-127344700D02*
X170735714Y-127297080D01*
X170735714Y-127297080D02*
X170783333Y-127201842D01*
X170783333Y-127201842D02*
X170783333Y-127106604D01*
X170783333Y-127106604D02*
X170735714Y-127011366D01*
X170735714Y-127011366D02*
X170688095Y-126963747D01*
X170688095Y-126963747D02*
X170592857Y-126916128D01*
X170592857Y-126916128D02*
X170402381Y-126868509D01*
X170402381Y-126868509D02*
X170307143Y-126820890D01*
X170307143Y-126820890D02*
X170259524Y-126773271D01*
X170259524Y-126773271D02*
X170211905Y-126678033D01*
X170211905Y-126678033D02*
X170211905Y-126582795D01*
X170211905Y-126582795D02*
X170259524Y-126487557D01*
X170259524Y-126487557D02*
X170307143Y-126439938D01*
X170307143Y-126439938D02*
X170402381Y-126392319D01*
X170402381Y-126392319D02*
X170640476Y-126392319D01*
X170640476Y-126392319D02*
X170783333Y-126439938D01*
X171116667Y-126392319D02*
X171735714Y-126392319D01*
X171735714Y-126392319D02*
X171402381Y-126773271D01*
X171402381Y-126773271D02*
X171545238Y-126773271D01*
X171545238Y-126773271D02*
X171640476Y-126820890D01*
X171640476Y-126820890D02*
X171688095Y-126868509D01*
X171688095Y-126868509D02*
X171735714Y-126963747D01*
X171735714Y-126963747D02*
X171735714Y-127201842D01*
X171735714Y-127201842D02*
X171688095Y-127297080D01*
X171688095Y-127297080D02*
X171640476Y-127344700D01*
X171640476Y-127344700D02*
X171545238Y-127392319D01*
X171545238Y-127392319D02*
X171259524Y-127392319D01*
X171259524Y-127392319D02*
X171164286Y-127344700D01*
X171164286Y-127344700D02*
X171116667Y-127297080D01*
X172069048Y-126392319D02*
X172688095Y-126392319D01*
X172688095Y-126392319D02*
X172354762Y-126773271D01*
X172354762Y-126773271D02*
X172497619Y-126773271D01*
X172497619Y-126773271D02*
X172592857Y-126820890D01*
X172592857Y-126820890D02*
X172640476Y-126868509D01*
X172640476Y-126868509D02*
X172688095Y-126963747D01*
X172688095Y-126963747D02*
X172688095Y-127201842D01*
X172688095Y-127201842D02*
X172640476Y-127297080D01*
X172640476Y-127297080D02*
X172592857Y-127344700D01*
X172592857Y-127344700D02*
X172497619Y-127392319D01*
X172497619Y-127392319D02*
X172211905Y-127392319D01*
X172211905Y-127392319D02*
X172116667Y-127344700D01*
X172116667Y-127344700D02*
X172069048Y-127297080D01*
X118300595Y-89244700D02*
X118443452Y-89292319D01*
X118443452Y-89292319D02*
X118681547Y-89292319D01*
X118681547Y-89292319D02*
X118776785Y-89244700D01*
X118776785Y-89244700D02*
X118824404Y-89197080D01*
X118824404Y-89197080D02*
X118872023Y-89101842D01*
X118872023Y-89101842D02*
X118872023Y-89006604D01*
X118872023Y-89006604D02*
X118824404Y-88911366D01*
X118824404Y-88911366D02*
X118776785Y-88863747D01*
X118776785Y-88863747D02*
X118681547Y-88816128D01*
X118681547Y-88816128D02*
X118491071Y-88768509D01*
X118491071Y-88768509D02*
X118395833Y-88720890D01*
X118395833Y-88720890D02*
X118348214Y-88673271D01*
X118348214Y-88673271D02*
X118300595Y-88578033D01*
X118300595Y-88578033D02*
X118300595Y-88482795D01*
X118300595Y-88482795D02*
X118348214Y-88387557D01*
X118348214Y-88387557D02*
X118395833Y-88339938D01*
X118395833Y-88339938D02*
X118491071Y-88292319D01*
X118491071Y-88292319D02*
X118729166Y-88292319D01*
X118729166Y-88292319D02*
X118872023Y-88339938D01*
X119205357Y-88292319D02*
X119824404Y-88292319D01*
X119824404Y-88292319D02*
X119491071Y-88673271D01*
X119491071Y-88673271D02*
X119633928Y-88673271D01*
X119633928Y-88673271D02*
X119729166Y-88720890D01*
X119729166Y-88720890D02*
X119776785Y-88768509D01*
X119776785Y-88768509D02*
X119824404Y-88863747D01*
X119824404Y-88863747D02*
X119824404Y-89101842D01*
X119824404Y-89101842D02*
X119776785Y-89197080D01*
X119776785Y-89197080D02*
X119729166Y-89244700D01*
X119729166Y-89244700D02*
X119633928Y-89292319D01*
X119633928Y-89292319D02*
X119348214Y-89292319D01*
X119348214Y-89292319D02*
X119252976Y-89244700D01*
X119252976Y-89244700D02*
X119205357Y-89197080D01*
X173134819Y-170243333D02*
X173849104Y-170243333D01*
X173849104Y-170243333D02*
X173991961Y-170290952D01*
X173991961Y-170290952D02*
X174087200Y-170386190D01*
X174087200Y-170386190D02*
X174134819Y-170529047D01*
X174134819Y-170529047D02*
X174134819Y-170624285D01*
X173134819Y-169862380D02*
X173134819Y-169243333D01*
X173134819Y-169243333D02*
X173515771Y-169576666D01*
X173515771Y-169576666D02*
X173515771Y-169433809D01*
X173515771Y-169433809D02*
X173563390Y-169338571D01*
X173563390Y-169338571D02*
X173611009Y-169290952D01*
X173611009Y-169290952D02*
X173706247Y-169243333D01*
X173706247Y-169243333D02*
X173944342Y-169243333D01*
X173944342Y-169243333D02*
X174039580Y-169290952D01*
X174039580Y-169290952D02*
X174087200Y-169338571D01*
X174087200Y-169338571D02*
X174134819Y-169433809D01*
X174134819Y-169433809D02*
X174134819Y-169719523D01*
X174134819Y-169719523D02*
X174087200Y-169814761D01*
X174087200Y-169814761D02*
X174039580Y-169862380D01*
X334994345Y-138392319D02*
X334994345Y-137392319D01*
X334994345Y-137868509D02*
X335565773Y-137868509D01*
X335565773Y-138392319D02*
X335565773Y-137392319D01*
X336470535Y-137725652D02*
X336470535Y-138392319D01*
X336232440Y-137344700D02*
X335994345Y-138058985D01*
X335994345Y-138058985D02*
X336613392Y-138058985D01*
X317849405Y-108294700D02*
X317992262Y-108342319D01*
X317992262Y-108342319D02*
X318230357Y-108342319D01*
X318230357Y-108342319D02*
X318325595Y-108294700D01*
X318325595Y-108294700D02*
X318373214Y-108247080D01*
X318373214Y-108247080D02*
X318420833Y-108151842D01*
X318420833Y-108151842D02*
X318420833Y-108056604D01*
X318420833Y-108056604D02*
X318373214Y-107961366D01*
X318373214Y-107961366D02*
X318325595Y-107913747D01*
X318325595Y-107913747D02*
X318230357Y-107866128D01*
X318230357Y-107866128D02*
X318039881Y-107818509D01*
X318039881Y-107818509D02*
X317944643Y-107770890D01*
X317944643Y-107770890D02*
X317897024Y-107723271D01*
X317897024Y-107723271D02*
X317849405Y-107628033D01*
X317849405Y-107628033D02*
X317849405Y-107532795D01*
X317849405Y-107532795D02*
X317897024Y-107437557D01*
X317897024Y-107437557D02*
X317944643Y-107389938D01*
X317944643Y-107389938D02*
X318039881Y-107342319D01*
X318039881Y-107342319D02*
X318277976Y-107342319D01*
X318277976Y-107342319D02*
X318420833Y-107389938D01*
X318801786Y-107437557D02*
X318849405Y-107389938D01*
X318849405Y-107389938D02*
X318944643Y-107342319D01*
X318944643Y-107342319D02*
X319182738Y-107342319D01*
X319182738Y-107342319D02*
X319277976Y-107389938D01*
X319277976Y-107389938D02*
X319325595Y-107437557D01*
X319325595Y-107437557D02*
X319373214Y-107532795D01*
X319373214Y-107532795D02*
X319373214Y-107628033D01*
X319373214Y-107628033D02*
X319325595Y-107770890D01*
X319325595Y-107770890D02*
X318754167Y-108342319D01*
X318754167Y-108342319D02*
X319373214Y-108342319D01*
X319706548Y-107342319D02*
X320373214Y-107342319D01*
X320373214Y-107342319D02*
X319944643Y-108342319D01*
X151161905Y-127344700D02*
X151304762Y-127392319D01*
X151304762Y-127392319D02*
X151542857Y-127392319D01*
X151542857Y-127392319D02*
X151638095Y-127344700D01*
X151638095Y-127344700D02*
X151685714Y-127297080D01*
X151685714Y-127297080D02*
X151733333Y-127201842D01*
X151733333Y-127201842D02*
X151733333Y-127106604D01*
X151733333Y-127106604D02*
X151685714Y-127011366D01*
X151685714Y-127011366D02*
X151638095Y-126963747D01*
X151638095Y-126963747D02*
X151542857Y-126916128D01*
X151542857Y-126916128D02*
X151352381Y-126868509D01*
X151352381Y-126868509D02*
X151257143Y-126820890D01*
X151257143Y-126820890D02*
X151209524Y-126773271D01*
X151209524Y-126773271D02*
X151161905Y-126678033D01*
X151161905Y-126678033D02*
X151161905Y-126582795D01*
X151161905Y-126582795D02*
X151209524Y-126487557D01*
X151209524Y-126487557D02*
X151257143Y-126439938D01*
X151257143Y-126439938D02*
X151352381Y-126392319D01*
X151352381Y-126392319D02*
X151590476Y-126392319D01*
X151590476Y-126392319D02*
X151733333Y-126439938D01*
X152066667Y-126392319D02*
X152685714Y-126392319D01*
X152685714Y-126392319D02*
X152352381Y-126773271D01*
X152352381Y-126773271D02*
X152495238Y-126773271D01*
X152495238Y-126773271D02*
X152590476Y-126820890D01*
X152590476Y-126820890D02*
X152638095Y-126868509D01*
X152638095Y-126868509D02*
X152685714Y-126963747D01*
X152685714Y-126963747D02*
X152685714Y-127201842D01*
X152685714Y-127201842D02*
X152638095Y-127297080D01*
X152638095Y-127297080D02*
X152590476Y-127344700D01*
X152590476Y-127344700D02*
X152495238Y-127392319D01*
X152495238Y-127392319D02*
X152209524Y-127392319D01*
X152209524Y-127392319D02*
X152114286Y-127344700D01*
X152114286Y-127344700D02*
X152066667Y-127297080D01*
X153066667Y-126487557D02*
X153114286Y-126439938D01*
X153114286Y-126439938D02*
X153209524Y-126392319D01*
X153209524Y-126392319D02*
X153447619Y-126392319D01*
X153447619Y-126392319D02*
X153542857Y-126439938D01*
X153542857Y-126439938D02*
X153590476Y-126487557D01*
X153590476Y-126487557D02*
X153638095Y-126582795D01*
X153638095Y-126582795D02*
X153638095Y-126678033D01*
X153638095Y-126678033D02*
X153590476Y-126820890D01*
X153590476Y-126820890D02*
X153019048Y-127392319D01*
X153019048Y-127392319D02*
X153638095Y-127392319D01*
X241649405Y-108294700D02*
X241792262Y-108342319D01*
X241792262Y-108342319D02*
X242030357Y-108342319D01*
X242030357Y-108342319D02*
X242125595Y-108294700D01*
X242125595Y-108294700D02*
X242173214Y-108247080D01*
X242173214Y-108247080D02*
X242220833Y-108151842D01*
X242220833Y-108151842D02*
X242220833Y-108056604D01*
X242220833Y-108056604D02*
X242173214Y-107961366D01*
X242173214Y-107961366D02*
X242125595Y-107913747D01*
X242125595Y-107913747D02*
X242030357Y-107866128D01*
X242030357Y-107866128D02*
X241839881Y-107818509D01*
X241839881Y-107818509D02*
X241744643Y-107770890D01*
X241744643Y-107770890D02*
X241697024Y-107723271D01*
X241697024Y-107723271D02*
X241649405Y-107628033D01*
X241649405Y-107628033D02*
X241649405Y-107532795D01*
X241649405Y-107532795D02*
X241697024Y-107437557D01*
X241697024Y-107437557D02*
X241744643Y-107389938D01*
X241744643Y-107389938D02*
X241839881Y-107342319D01*
X241839881Y-107342319D02*
X242077976Y-107342319D01*
X242077976Y-107342319D02*
X242220833Y-107389938D01*
X242601786Y-107437557D02*
X242649405Y-107389938D01*
X242649405Y-107389938D02*
X242744643Y-107342319D01*
X242744643Y-107342319D02*
X242982738Y-107342319D01*
X242982738Y-107342319D02*
X243077976Y-107389938D01*
X243077976Y-107389938D02*
X243125595Y-107437557D01*
X243125595Y-107437557D02*
X243173214Y-107532795D01*
X243173214Y-107532795D02*
X243173214Y-107628033D01*
X243173214Y-107628033D02*
X243125595Y-107770890D01*
X243125595Y-107770890D02*
X242554167Y-108342319D01*
X242554167Y-108342319D02*
X243173214Y-108342319D01*
X243506548Y-107342319D02*
X244125595Y-107342319D01*
X244125595Y-107342319D02*
X243792262Y-107723271D01*
X243792262Y-107723271D02*
X243935119Y-107723271D01*
X243935119Y-107723271D02*
X244030357Y-107770890D01*
X244030357Y-107770890D02*
X244077976Y-107818509D01*
X244077976Y-107818509D02*
X244125595Y-107913747D01*
X244125595Y-107913747D02*
X244125595Y-108151842D01*
X244125595Y-108151842D02*
X244077976Y-108247080D01*
X244077976Y-108247080D02*
X244030357Y-108294700D01*
X244030357Y-108294700D02*
X243935119Y-108342319D01*
X243935119Y-108342319D02*
X243649405Y-108342319D01*
X243649405Y-108342319D02*
X243554167Y-108294700D01*
X243554167Y-108294700D02*
X243506548Y-108247080D01*
X141636905Y-146394700D02*
X141779762Y-146442319D01*
X141779762Y-146442319D02*
X142017857Y-146442319D01*
X142017857Y-146442319D02*
X142113095Y-146394700D01*
X142113095Y-146394700D02*
X142160714Y-146347080D01*
X142160714Y-146347080D02*
X142208333Y-146251842D01*
X142208333Y-146251842D02*
X142208333Y-146156604D01*
X142208333Y-146156604D02*
X142160714Y-146061366D01*
X142160714Y-146061366D02*
X142113095Y-146013747D01*
X142113095Y-146013747D02*
X142017857Y-145966128D01*
X142017857Y-145966128D02*
X141827381Y-145918509D01*
X141827381Y-145918509D02*
X141732143Y-145870890D01*
X141732143Y-145870890D02*
X141684524Y-145823271D01*
X141684524Y-145823271D02*
X141636905Y-145728033D01*
X141636905Y-145728033D02*
X141636905Y-145632795D01*
X141636905Y-145632795D02*
X141684524Y-145537557D01*
X141684524Y-145537557D02*
X141732143Y-145489938D01*
X141732143Y-145489938D02*
X141827381Y-145442319D01*
X141827381Y-145442319D02*
X142065476Y-145442319D01*
X142065476Y-145442319D02*
X142208333Y-145489938D01*
X143065476Y-145775652D02*
X143065476Y-146442319D01*
X142827381Y-145394700D02*
X142589286Y-146108985D01*
X142589286Y-146108985D02*
X143208333Y-146108985D01*
X144017857Y-145775652D02*
X144017857Y-146442319D01*
X143779762Y-145394700D02*
X143541667Y-146108985D01*
X143541667Y-146108985D02*
X144160714Y-146108985D01*
X165449405Y-108294700D02*
X165592262Y-108342319D01*
X165592262Y-108342319D02*
X165830357Y-108342319D01*
X165830357Y-108342319D02*
X165925595Y-108294700D01*
X165925595Y-108294700D02*
X165973214Y-108247080D01*
X165973214Y-108247080D02*
X166020833Y-108151842D01*
X166020833Y-108151842D02*
X166020833Y-108056604D01*
X166020833Y-108056604D02*
X165973214Y-107961366D01*
X165973214Y-107961366D02*
X165925595Y-107913747D01*
X165925595Y-107913747D02*
X165830357Y-107866128D01*
X165830357Y-107866128D02*
X165639881Y-107818509D01*
X165639881Y-107818509D02*
X165544643Y-107770890D01*
X165544643Y-107770890D02*
X165497024Y-107723271D01*
X165497024Y-107723271D02*
X165449405Y-107628033D01*
X165449405Y-107628033D02*
X165449405Y-107532795D01*
X165449405Y-107532795D02*
X165497024Y-107437557D01*
X165497024Y-107437557D02*
X165544643Y-107389938D01*
X165544643Y-107389938D02*
X165639881Y-107342319D01*
X165639881Y-107342319D02*
X165877976Y-107342319D01*
X165877976Y-107342319D02*
X166020833Y-107389938D01*
X166973214Y-108342319D02*
X166401786Y-108342319D01*
X166687500Y-108342319D02*
X166687500Y-107342319D01*
X166687500Y-107342319D02*
X166592262Y-107485176D01*
X166592262Y-107485176D02*
X166497024Y-107580414D01*
X166497024Y-107580414D02*
X166401786Y-107628033D01*
X167449405Y-108342319D02*
X167639881Y-108342319D01*
X167639881Y-108342319D02*
X167735119Y-108294700D01*
X167735119Y-108294700D02*
X167782738Y-108247080D01*
X167782738Y-108247080D02*
X167877976Y-108104223D01*
X167877976Y-108104223D02*
X167925595Y-107913747D01*
X167925595Y-107913747D02*
X167925595Y-107532795D01*
X167925595Y-107532795D02*
X167877976Y-107437557D01*
X167877976Y-107437557D02*
X167830357Y-107389938D01*
X167830357Y-107389938D02*
X167735119Y-107342319D01*
X167735119Y-107342319D02*
X167544643Y-107342319D01*
X167544643Y-107342319D02*
X167449405Y-107389938D01*
X167449405Y-107389938D02*
X167401786Y-107437557D01*
X167401786Y-107437557D02*
X167354167Y-107532795D01*
X167354167Y-107532795D02*
X167354167Y-107770890D01*
X167354167Y-107770890D02*
X167401786Y-107866128D01*
X167401786Y-107866128D02*
X167449405Y-107913747D01*
X167449405Y-107913747D02*
X167544643Y-107961366D01*
X167544643Y-107961366D02*
X167735119Y-107961366D01*
X167735119Y-107961366D02*
X167830357Y-107913747D01*
X167830357Y-107913747D02*
X167877976Y-107866128D01*
X167877976Y-107866128D02*
X167925595Y-107770890D01*
X189261905Y-127344700D02*
X189404762Y-127392319D01*
X189404762Y-127392319D02*
X189642857Y-127392319D01*
X189642857Y-127392319D02*
X189738095Y-127344700D01*
X189738095Y-127344700D02*
X189785714Y-127297080D01*
X189785714Y-127297080D02*
X189833333Y-127201842D01*
X189833333Y-127201842D02*
X189833333Y-127106604D01*
X189833333Y-127106604D02*
X189785714Y-127011366D01*
X189785714Y-127011366D02*
X189738095Y-126963747D01*
X189738095Y-126963747D02*
X189642857Y-126916128D01*
X189642857Y-126916128D02*
X189452381Y-126868509D01*
X189452381Y-126868509D02*
X189357143Y-126820890D01*
X189357143Y-126820890D02*
X189309524Y-126773271D01*
X189309524Y-126773271D02*
X189261905Y-126678033D01*
X189261905Y-126678033D02*
X189261905Y-126582795D01*
X189261905Y-126582795D02*
X189309524Y-126487557D01*
X189309524Y-126487557D02*
X189357143Y-126439938D01*
X189357143Y-126439938D02*
X189452381Y-126392319D01*
X189452381Y-126392319D02*
X189690476Y-126392319D01*
X189690476Y-126392319D02*
X189833333Y-126439938D01*
X190166667Y-126392319D02*
X190785714Y-126392319D01*
X190785714Y-126392319D02*
X190452381Y-126773271D01*
X190452381Y-126773271D02*
X190595238Y-126773271D01*
X190595238Y-126773271D02*
X190690476Y-126820890D01*
X190690476Y-126820890D02*
X190738095Y-126868509D01*
X190738095Y-126868509D02*
X190785714Y-126963747D01*
X190785714Y-126963747D02*
X190785714Y-127201842D01*
X190785714Y-127201842D02*
X190738095Y-127297080D01*
X190738095Y-127297080D02*
X190690476Y-127344700D01*
X190690476Y-127344700D02*
X190595238Y-127392319D01*
X190595238Y-127392319D02*
X190309524Y-127392319D01*
X190309524Y-127392319D02*
X190214286Y-127344700D01*
X190214286Y-127344700D02*
X190166667Y-127297080D01*
X191642857Y-126725652D02*
X191642857Y-127392319D01*
X191404762Y-126344700D02*
X191166667Y-127058985D01*
X191166667Y-127058985D02*
X191785714Y-127058985D01*
X201644345Y-176492319D02*
X201644345Y-175492319D01*
X201644345Y-175968509D02*
X202215773Y-175968509D01*
X202215773Y-176492319D02*
X202215773Y-175492319D01*
X202596726Y-175492319D02*
X203263392Y-175492319D01*
X203263392Y-175492319D02*
X202834821Y-176492319D01*
X320230655Y-165444700D02*
X320373512Y-165492319D01*
X320373512Y-165492319D02*
X320611607Y-165492319D01*
X320611607Y-165492319D02*
X320706845Y-165444700D01*
X320706845Y-165444700D02*
X320754464Y-165397080D01*
X320754464Y-165397080D02*
X320802083Y-165301842D01*
X320802083Y-165301842D02*
X320802083Y-165206604D01*
X320802083Y-165206604D02*
X320754464Y-165111366D01*
X320754464Y-165111366D02*
X320706845Y-165063747D01*
X320706845Y-165063747D02*
X320611607Y-165016128D01*
X320611607Y-165016128D02*
X320421131Y-164968509D01*
X320421131Y-164968509D02*
X320325893Y-164920890D01*
X320325893Y-164920890D02*
X320278274Y-164873271D01*
X320278274Y-164873271D02*
X320230655Y-164778033D01*
X320230655Y-164778033D02*
X320230655Y-164682795D01*
X320230655Y-164682795D02*
X320278274Y-164587557D01*
X320278274Y-164587557D02*
X320325893Y-164539938D01*
X320325893Y-164539938D02*
X320421131Y-164492319D01*
X320421131Y-164492319D02*
X320659226Y-164492319D01*
X320659226Y-164492319D02*
X320802083Y-164539938D01*
X321659226Y-164492319D02*
X321468750Y-164492319D01*
X321468750Y-164492319D02*
X321373512Y-164539938D01*
X321373512Y-164539938D02*
X321325893Y-164587557D01*
X321325893Y-164587557D02*
X321230655Y-164730414D01*
X321230655Y-164730414D02*
X321183036Y-164920890D01*
X321183036Y-164920890D02*
X321183036Y-165301842D01*
X321183036Y-165301842D02*
X321230655Y-165397080D01*
X321230655Y-165397080D02*
X321278274Y-165444700D01*
X321278274Y-165444700D02*
X321373512Y-165492319D01*
X321373512Y-165492319D02*
X321563988Y-165492319D01*
X321563988Y-165492319D02*
X321659226Y-165444700D01*
X321659226Y-165444700D02*
X321706845Y-165397080D01*
X321706845Y-165397080D02*
X321754464Y-165301842D01*
X321754464Y-165301842D02*
X321754464Y-165063747D01*
X321754464Y-165063747D02*
X321706845Y-164968509D01*
X321706845Y-164968509D02*
X321659226Y-164920890D01*
X321659226Y-164920890D02*
X321563988Y-164873271D01*
X321563988Y-164873271D02*
X321373512Y-164873271D01*
X321373512Y-164873271D02*
X321278274Y-164920890D01*
X321278274Y-164920890D02*
X321230655Y-164968509D01*
X321230655Y-164968509D02*
X321183036Y-165063747D01*
X322373512Y-164492319D02*
X322468750Y-164492319D01*
X322468750Y-164492319D02*
X322563988Y-164539938D01*
X322563988Y-164539938D02*
X322611607Y-164587557D01*
X322611607Y-164587557D02*
X322659226Y-164682795D01*
X322659226Y-164682795D02*
X322706845Y-164873271D01*
X322706845Y-164873271D02*
X322706845Y-165111366D01*
X322706845Y-165111366D02*
X322659226Y-165301842D01*
X322659226Y-165301842D02*
X322611607Y-165397080D01*
X322611607Y-165397080D02*
X322563988Y-165444700D01*
X322563988Y-165444700D02*
X322468750Y-165492319D01*
X322468750Y-165492319D02*
X322373512Y-165492319D01*
X322373512Y-165492319D02*
X322278274Y-165444700D01*
X322278274Y-165444700D02*
X322230655Y-165397080D01*
X322230655Y-165397080D02*
X322183036Y-165301842D01*
X322183036Y-165301842D02*
X322135417Y-165111366D01*
X322135417Y-165111366D02*
X322135417Y-164873271D01*
X322135417Y-164873271D02*
X322183036Y-164682795D01*
X322183036Y-164682795D02*
X322230655Y-164587557D01*
X322230655Y-164587557D02*
X322278274Y-164539938D01*
X322278274Y-164539938D02*
X322373512Y-164492319D01*
X127349405Y-108294700D02*
X127492262Y-108342319D01*
X127492262Y-108342319D02*
X127730357Y-108342319D01*
X127730357Y-108342319D02*
X127825595Y-108294700D01*
X127825595Y-108294700D02*
X127873214Y-108247080D01*
X127873214Y-108247080D02*
X127920833Y-108151842D01*
X127920833Y-108151842D02*
X127920833Y-108056604D01*
X127920833Y-108056604D02*
X127873214Y-107961366D01*
X127873214Y-107961366D02*
X127825595Y-107913747D01*
X127825595Y-107913747D02*
X127730357Y-107866128D01*
X127730357Y-107866128D02*
X127539881Y-107818509D01*
X127539881Y-107818509D02*
X127444643Y-107770890D01*
X127444643Y-107770890D02*
X127397024Y-107723271D01*
X127397024Y-107723271D02*
X127349405Y-107628033D01*
X127349405Y-107628033D02*
X127349405Y-107532795D01*
X127349405Y-107532795D02*
X127397024Y-107437557D01*
X127397024Y-107437557D02*
X127444643Y-107389938D01*
X127444643Y-107389938D02*
X127539881Y-107342319D01*
X127539881Y-107342319D02*
X127777976Y-107342319D01*
X127777976Y-107342319D02*
X127920833Y-107389938D01*
X128873214Y-108342319D02*
X128301786Y-108342319D01*
X128587500Y-108342319D02*
X128587500Y-107342319D01*
X128587500Y-107342319D02*
X128492262Y-107485176D01*
X128492262Y-107485176D02*
X128397024Y-107580414D01*
X128397024Y-107580414D02*
X128301786Y-107628033D01*
X129206548Y-107342319D02*
X129873214Y-107342319D01*
X129873214Y-107342319D02*
X129444643Y-108342319D01*
X194500595Y-89244700D02*
X194643452Y-89292319D01*
X194643452Y-89292319D02*
X194881547Y-89292319D01*
X194881547Y-89292319D02*
X194976785Y-89244700D01*
X194976785Y-89244700D02*
X195024404Y-89197080D01*
X195024404Y-89197080D02*
X195072023Y-89101842D01*
X195072023Y-89101842D02*
X195072023Y-89006604D01*
X195072023Y-89006604D02*
X195024404Y-88911366D01*
X195024404Y-88911366D02*
X194976785Y-88863747D01*
X194976785Y-88863747D02*
X194881547Y-88816128D01*
X194881547Y-88816128D02*
X194691071Y-88768509D01*
X194691071Y-88768509D02*
X194595833Y-88720890D01*
X194595833Y-88720890D02*
X194548214Y-88673271D01*
X194548214Y-88673271D02*
X194500595Y-88578033D01*
X194500595Y-88578033D02*
X194500595Y-88482795D01*
X194500595Y-88482795D02*
X194548214Y-88387557D01*
X194548214Y-88387557D02*
X194595833Y-88339938D01*
X194595833Y-88339938D02*
X194691071Y-88292319D01*
X194691071Y-88292319D02*
X194929166Y-88292319D01*
X194929166Y-88292319D02*
X195072023Y-88339938D01*
X195405357Y-88292319D02*
X196072023Y-88292319D01*
X196072023Y-88292319D02*
X195643452Y-89292319D01*
X156400595Y-89244700D02*
X156543452Y-89292319D01*
X156543452Y-89292319D02*
X156781547Y-89292319D01*
X156781547Y-89292319D02*
X156876785Y-89244700D01*
X156876785Y-89244700D02*
X156924404Y-89197080D01*
X156924404Y-89197080D02*
X156972023Y-89101842D01*
X156972023Y-89101842D02*
X156972023Y-89006604D01*
X156972023Y-89006604D02*
X156924404Y-88911366D01*
X156924404Y-88911366D02*
X156876785Y-88863747D01*
X156876785Y-88863747D02*
X156781547Y-88816128D01*
X156781547Y-88816128D02*
X156591071Y-88768509D01*
X156591071Y-88768509D02*
X156495833Y-88720890D01*
X156495833Y-88720890D02*
X156448214Y-88673271D01*
X156448214Y-88673271D02*
X156400595Y-88578033D01*
X156400595Y-88578033D02*
X156400595Y-88482795D01*
X156400595Y-88482795D02*
X156448214Y-88387557D01*
X156448214Y-88387557D02*
X156495833Y-88339938D01*
X156495833Y-88339938D02*
X156591071Y-88292319D01*
X156591071Y-88292319D02*
X156829166Y-88292319D01*
X156829166Y-88292319D02*
X156972023Y-88339938D01*
X157876785Y-88292319D02*
X157400595Y-88292319D01*
X157400595Y-88292319D02*
X157352976Y-88768509D01*
X157352976Y-88768509D02*
X157400595Y-88720890D01*
X157400595Y-88720890D02*
X157495833Y-88673271D01*
X157495833Y-88673271D02*
X157733928Y-88673271D01*
X157733928Y-88673271D02*
X157829166Y-88720890D01*
X157829166Y-88720890D02*
X157876785Y-88768509D01*
X157876785Y-88768509D02*
X157924404Y-88863747D01*
X157924404Y-88863747D02*
X157924404Y-89101842D01*
X157924404Y-89101842D02*
X157876785Y-89197080D01*
X157876785Y-89197080D02*
X157829166Y-89244700D01*
X157829166Y-89244700D02*
X157733928Y-89292319D01*
X157733928Y-89292319D02*
X157495833Y-89292319D01*
X157495833Y-89292319D02*
X157400595Y-89244700D01*
X157400595Y-89244700D02*
X157352976Y-89197080D01*
X279749405Y-108294700D02*
X279892262Y-108342319D01*
X279892262Y-108342319D02*
X280130357Y-108342319D01*
X280130357Y-108342319D02*
X280225595Y-108294700D01*
X280225595Y-108294700D02*
X280273214Y-108247080D01*
X280273214Y-108247080D02*
X280320833Y-108151842D01*
X280320833Y-108151842D02*
X280320833Y-108056604D01*
X280320833Y-108056604D02*
X280273214Y-107961366D01*
X280273214Y-107961366D02*
X280225595Y-107913747D01*
X280225595Y-107913747D02*
X280130357Y-107866128D01*
X280130357Y-107866128D02*
X279939881Y-107818509D01*
X279939881Y-107818509D02*
X279844643Y-107770890D01*
X279844643Y-107770890D02*
X279797024Y-107723271D01*
X279797024Y-107723271D02*
X279749405Y-107628033D01*
X279749405Y-107628033D02*
X279749405Y-107532795D01*
X279749405Y-107532795D02*
X279797024Y-107437557D01*
X279797024Y-107437557D02*
X279844643Y-107389938D01*
X279844643Y-107389938D02*
X279939881Y-107342319D01*
X279939881Y-107342319D02*
X280177976Y-107342319D01*
X280177976Y-107342319D02*
X280320833Y-107389938D01*
X280701786Y-107437557D02*
X280749405Y-107389938D01*
X280749405Y-107389938D02*
X280844643Y-107342319D01*
X280844643Y-107342319D02*
X281082738Y-107342319D01*
X281082738Y-107342319D02*
X281177976Y-107389938D01*
X281177976Y-107389938D02*
X281225595Y-107437557D01*
X281225595Y-107437557D02*
X281273214Y-107532795D01*
X281273214Y-107532795D02*
X281273214Y-107628033D01*
X281273214Y-107628033D02*
X281225595Y-107770890D01*
X281225595Y-107770890D02*
X280654167Y-108342319D01*
X280654167Y-108342319D02*
X281273214Y-108342319D01*
X282177976Y-107342319D02*
X281701786Y-107342319D01*
X281701786Y-107342319D02*
X281654167Y-107818509D01*
X281654167Y-107818509D02*
X281701786Y-107770890D01*
X281701786Y-107770890D02*
X281797024Y-107723271D01*
X281797024Y-107723271D02*
X282035119Y-107723271D01*
X282035119Y-107723271D02*
X282130357Y-107770890D01*
X282130357Y-107770890D02*
X282177976Y-107818509D01*
X282177976Y-107818509D02*
X282225595Y-107913747D01*
X282225595Y-107913747D02*
X282225595Y-108151842D01*
X282225595Y-108151842D02*
X282177976Y-108247080D01*
X282177976Y-108247080D02*
X282130357Y-108294700D01*
X282130357Y-108294700D02*
X282035119Y-108342319D01*
X282035119Y-108342319D02*
X281797024Y-108342319D01*
X281797024Y-108342319D02*
X281701786Y-108294700D01*
X281701786Y-108294700D02*
X281654167Y-108247080D01*
X153543155Y-165444700D02*
X153686012Y-165492319D01*
X153686012Y-165492319D02*
X153924107Y-165492319D01*
X153924107Y-165492319D02*
X154019345Y-165444700D01*
X154019345Y-165444700D02*
X154066964Y-165397080D01*
X154066964Y-165397080D02*
X154114583Y-165301842D01*
X154114583Y-165301842D02*
X154114583Y-165206604D01*
X154114583Y-165206604D02*
X154066964Y-165111366D01*
X154066964Y-165111366D02*
X154019345Y-165063747D01*
X154019345Y-165063747D02*
X153924107Y-165016128D01*
X153924107Y-165016128D02*
X153733631Y-164968509D01*
X153733631Y-164968509D02*
X153638393Y-164920890D01*
X153638393Y-164920890D02*
X153590774Y-164873271D01*
X153590774Y-164873271D02*
X153543155Y-164778033D01*
X153543155Y-164778033D02*
X153543155Y-164682795D01*
X153543155Y-164682795D02*
X153590774Y-164587557D01*
X153590774Y-164587557D02*
X153638393Y-164539938D01*
X153638393Y-164539938D02*
X153733631Y-164492319D01*
X153733631Y-164492319D02*
X153971726Y-164492319D01*
X153971726Y-164492319D02*
X154114583Y-164539938D01*
X154971726Y-164492319D02*
X154781250Y-164492319D01*
X154781250Y-164492319D02*
X154686012Y-164539938D01*
X154686012Y-164539938D02*
X154638393Y-164587557D01*
X154638393Y-164587557D02*
X154543155Y-164730414D01*
X154543155Y-164730414D02*
X154495536Y-164920890D01*
X154495536Y-164920890D02*
X154495536Y-165301842D01*
X154495536Y-165301842D02*
X154543155Y-165397080D01*
X154543155Y-165397080D02*
X154590774Y-165444700D01*
X154590774Y-165444700D02*
X154686012Y-165492319D01*
X154686012Y-165492319D02*
X154876488Y-165492319D01*
X154876488Y-165492319D02*
X154971726Y-165444700D01*
X154971726Y-165444700D02*
X155019345Y-165397080D01*
X155019345Y-165397080D02*
X155066964Y-165301842D01*
X155066964Y-165301842D02*
X155066964Y-165063747D01*
X155066964Y-165063747D02*
X155019345Y-164968509D01*
X155019345Y-164968509D02*
X154971726Y-164920890D01*
X154971726Y-164920890D02*
X154876488Y-164873271D01*
X154876488Y-164873271D02*
X154686012Y-164873271D01*
X154686012Y-164873271D02*
X154590774Y-164920890D01*
X154590774Y-164920890D02*
X154543155Y-164968509D01*
X154543155Y-164968509D02*
X154495536Y-165063747D01*
X155447917Y-164587557D02*
X155495536Y-164539938D01*
X155495536Y-164539938D02*
X155590774Y-164492319D01*
X155590774Y-164492319D02*
X155828869Y-164492319D01*
X155828869Y-164492319D02*
X155924107Y-164539938D01*
X155924107Y-164539938D02*
X155971726Y-164587557D01*
X155971726Y-164587557D02*
X156019345Y-164682795D01*
X156019345Y-164682795D02*
X156019345Y-164778033D01*
X156019345Y-164778033D02*
X155971726Y-164920890D01*
X155971726Y-164920890D02*
X155400298Y-165492319D01*
X155400298Y-165492319D02*
X156019345Y-165492319D01*
X303561905Y-127344700D02*
X303704762Y-127392319D01*
X303704762Y-127392319D02*
X303942857Y-127392319D01*
X303942857Y-127392319D02*
X304038095Y-127344700D01*
X304038095Y-127344700D02*
X304085714Y-127297080D01*
X304085714Y-127297080D02*
X304133333Y-127201842D01*
X304133333Y-127201842D02*
X304133333Y-127106604D01*
X304133333Y-127106604D02*
X304085714Y-127011366D01*
X304085714Y-127011366D02*
X304038095Y-126963747D01*
X304038095Y-126963747D02*
X303942857Y-126916128D01*
X303942857Y-126916128D02*
X303752381Y-126868509D01*
X303752381Y-126868509D02*
X303657143Y-126820890D01*
X303657143Y-126820890D02*
X303609524Y-126773271D01*
X303609524Y-126773271D02*
X303561905Y-126678033D01*
X303561905Y-126678033D02*
X303561905Y-126582795D01*
X303561905Y-126582795D02*
X303609524Y-126487557D01*
X303609524Y-126487557D02*
X303657143Y-126439938D01*
X303657143Y-126439938D02*
X303752381Y-126392319D01*
X303752381Y-126392319D02*
X303990476Y-126392319D01*
X303990476Y-126392319D02*
X304133333Y-126439938D01*
X304990476Y-126725652D02*
X304990476Y-127392319D01*
X304752381Y-126344700D02*
X304514286Y-127058985D01*
X304514286Y-127058985D02*
X305133333Y-127058985D01*
X305704762Y-126392319D02*
X305800000Y-126392319D01*
X305800000Y-126392319D02*
X305895238Y-126439938D01*
X305895238Y-126439938D02*
X305942857Y-126487557D01*
X305942857Y-126487557D02*
X305990476Y-126582795D01*
X305990476Y-126582795D02*
X306038095Y-126773271D01*
X306038095Y-126773271D02*
X306038095Y-127011366D01*
X306038095Y-127011366D02*
X305990476Y-127201842D01*
X305990476Y-127201842D02*
X305942857Y-127297080D01*
X305942857Y-127297080D02*
X305895238Y-127344700D01*
X305895238Y-127344700D02*
X305800000Y-127392319D01*
X305800000Y-127392319D02*
X305704762Y-127392319D01*
X305704762Y-127392319D02*
X305609524Y-127344700D01*
X305609524Y-127344700D02*
X305561905Y-127297080D01*
X305561905Y-127297080D02*
X305514286Y-127201842D01*
X305514286Y-127201842D02*
X305466667Y-127011366D01*
X305466667Y-127011366D02*
X305466667Y-126773271D01*
X305466667Y-126773271D02*
X305514286Y-126582795D01*
X305514286Y-126582795D02*
X305561905Y-126487557D01*
X305561905Y-126487557D02*
X305609524Y-126439938D01*
X305609524Y-126439938D02*
X305704762Y-126392319D01*
X179736905Y-146394700D02*
X179879762Y-146442319D01*
X179879762Y-146442319D02*
X180117857Y-146442319D01*
X180117857Y-146442319D02*
X180213095Y-146394700D01*
X180213095Y-146394700D02*
X180260714Y-146347080D01*
X180260714Y-146347080D02*
X180308333Y-146251842D01*
X180308333Y-146251842D02*
X180308333Y-146156604D01*
X180308333Y-146156604D02*
X180260714Y-146061366D01*
X180260714Y-146061366D02*
X180213095Y-146013747D01*
X180213095Y-146013747D02*
X180117857Y-145966128D01*
X180117857Y-145966128D02*
X179927381Y-145918509D01*
X179927381Y-145918509D02*
X179832143Y-145870890D01*
X179832143Y-145870890D02*
X179784524Y-145823271D01*
X179784524Y-145823271D02*
X179736905Y-145728033D01*
X179736905Y-145728033D02*
X179736905Y-145632795D01*
X179736905Y-145632795D02*
X179784524Y-145537557D01*
X179784524Y-145537557D02*
X179832143Y-145489938D01*
X179832143Y-145489938D02*
X179927381Y-145442319D01*
X179927381Y-145442319D02*
X180165476Y-145442319D01*
X180165476Y-145442319D02*
X180308333Y-145489938D01*
X181165476Y-145775652D02*
X181165476Y-146442319D01*
X180927381Y-145394700D02*
X180689286Y-146108985D01*
X180689286Y-146108985D02*
X181308333Y-146108985D01*
X182117857Y-145442319D02*
X181927381Y-145442319D01*
X181927381Y-145442319D02*
X181832143Y-145489938D01*
X181832143Y-145489938D02*
X181784524Y-145537557D01*
X181784524Y-145537557D02*
X181689286Y-145680414D01*
X181689286Y-145680414D02*
X181641667Y-145870890D01*
X181641667Y-145870890D02*
X181641667Y-146251842D01*
X181641667Y-146251842D02*
X181689286Y-146347080D01*
X181689286Y-146347080D02*
X181736905Y-146394700D01*
X181736905Y-146394700D02*
X181832143Y-146442319D01*
X181832143Y-146442319D02*
X182022619Y-146442319D01*
X182022619Y-146442319D02*
X182117857Y-146394700D01*
X182117857Y-146394700D02*
X182165476Y-146347080D01*
X182165476Y-146347080D02*
X182213095Y-146251842D01*
X182213095Y-146251842D02*
X182213095Y-146013747D01*
X182213095Y-146013747D02*
X182165476Y-145918509D01*
X182165476Y-145918509D02*
X182117857Y-145870890D01*
X182117857Y-145870890D02*
X182022619Y-145823271D01*
X182022619Y-145823271D02*
X181832143Y-145823271D01*
X181832143Y-145823271D02*
X181736905Y-145870890D01*
X181736905Y-145870890D02*
X181689286Y-145918509D01*
X181689286Y-145918509D02*
X181641667Y-146013747D01*
X239744345Y-176492319D02*
X239744345Y-175492319D01*
X239744345Y-175968509D02*
X240315773Y-175968509D01*
X240315773Y-176492319D02*
X240315773Y-175492319D01*
X241220535Y-175492319D02*
X241030059Y-175492319D01*
X241030059Y-175492319D02*
X240934821Y-175539938D01*
X240934821Y-175539938D02*
X240887202Y-175587557D01*
X240887202Y-175587557D02*
X240791964Y-175730414D01*
X240791964Y-175730414D02*
X240744345Y-175920890D01*
X240744345Y-175920890D02*
X240744345Y-176301842D01*
X240744345Y-176301842D02*
X240791964Y-176397080D01*
X240791964Y-176397080D02*
X240839583Y-176444700D01*
X240839583Y-176444700D02*
X240934821Y-176492319D01*
X240934821Y-176492319D02*
X241125297Y-176492319D01*
X241125297Y-176492319D02*
X241220535Y-176444700D01*
X241220535Y-176444700D02*
X241268154Y-176397080D01*
X241268154Y-176397080D02*
X241315773Y-176301842D01*
X241315773Y-176301842D02*
X241315773Y-176063747D01*
X241315773Y-176063747D02*
X241268154Y-175968509D01*
X241268154Y-175968509D02*
X241220535Y-175920890D01*
X241220535Y-175920890D02*
X241125297Y-175873271D01*
X241125297Y-175873271D02*
X240934821Y-175873271D01*
X240934821Y-175873271D02*
X240839583Y-175920890D01*
X240839583Y-175920890D02*
X240791964Y-175968509D01*
X240791964Y-175968509D02*
X240744345Y-176063747D01*
X122586905Y-146394700D02*
X122729762Y-146442319D01*
X122729762Y-146442319D02*
X122967857Y-146442319D01*
X122967857Y-146442319D02*
X123063095Y-146394700D01*
X123063095Y-146394700D02*
X123110714Y-146347080D01*
X123110714Y-146347080D02*
X123158333Y-146251842D01*
X123158333Y-146251842D02*
X123158333Y-146156604D01*
X123158333Y-146156604D02*
X123110714Y-146061366D01*
X123110714Y-146061366D02*
X123063095Y-146013747D01*
X123063095Y-146013747D02*
X122967857Y-145966128D01*
X122967857Y-145966128D02*
X122777381Y-145918509D01*
X122777381Y-145918509D02*
X122682143Y-145870890D01*
X122682143Y-145870890D02*
X122634524Y-145823271D01*
X122634524Y-145823271D02*
X122586905Y-145728033D01*
X122586905Y-145728033D02*
X122586905Y-145632795D01*
X122586905Y-145632795D02*
X122634524Y-145537557D01*
X122634524Y-145537557D02*
X122682143Y-145489938D01*
X122682143Y-145489938D02*
X122777381Y-145442319D01*
X122777381Y-145442319D02*
X123015476Y-145442319D01*
X123015476Y-145442319D02*
X123158333Y-145489938D01*
X124015476Y-145775652D02*
X124015476Y-146442319D01*
X123777381Y-145394700D02*
X123539286Y-146108985D01*
X123539286Y-146108985D02*
X124158333Y-146108985D01*
X124444048Y-145442319D02*
X125063095Y-145442319D01*
X125063095Y-145442319D02*
X124729762Y-145823271D01*
X124729762Y-145823271D02*
X124872619Y-145823271D01*
X124872619Y-145823271D02*
X124967857Y-145870890D01*
X124967857Y-145870890D02*
X125015476Y-145918509D01*
X125015476Y-145918509D02*
X125063095Y-146013747D01*
X125063095Y-146013747D02*
X125063095Y-146251842D01*
X125063095Y-146251842D02*
X125015476Y-146347080D01*
X125015476Y-146347080D02*
X124967857Y-146394700D01*
X124967857Y-146394700D02*
X124872619Y-146442319D01*
X124872619Y-146442319D02*
X124586905Y-146442319D01*
X124586905Y-146442319D02*
X124491667Y-146394700D01*
X124491667Y-146394700D02*
X124444048Y-146347080D01*
X330231845Y-151442319D02*
X330231845Y-150442319D01*
X330231845Y-150918509D02*
X330803273Y-150918509D01*
X330803273Y-151442319D02*
X330803273Y-150442319D01*
X331184226Y-150442319D02*
X331803273Y-150442319D01*
X331803273Y-150442319D02*
X331469940Y-150823271D01*
X331469940Y-150823271D02*
X331612797Y-150823271D01*
X331612797Y-150823271D02*
X331708035Y-150870890D01*
X331708035Y-150870890D02*
X331755654Y-150918509D01*
X331755654Y-150918509D02*
X331803273Y-151013747D01*
X331803273Y-151013747D02*
X331803273Y-151251842D01*
X331803273Y-151251842D02*
X331755654Y-151347080D01*
X331755654Y-151347080D02*
X331708035Y-151394700D01*
X331708035Y-151394700D02*
X331612797Y-151442319D01*
X331612797Y-151442319D02*
X331327083Y-151442319D01*
X331327083Y-151442319D02*
X331231845Y-151394700D01*
X331231845Y-151394700D02*
X331184226Y-151347080D01*
X255936905Y-146394700D02*
X256079762Y-146442319D01*
X256079762Y-146442319D02*
X256317857Y-146442319D01*
X256317857Y-146442319D02*
X256413095Y-146394700D01*
X256413095Y-146394700D02*
X256460714Y-146347080D01*
X256460714Y-146347080D02*
X256508333Y-146251842D01*
X256508333Y-146251842D02*
X256508333Y-146156604D01*
X256508333Y-146156604D02*
X256460714Y-146061366D01*
X256460714Y-146061366D02*
X256413095Y-146013747D01*
X256413095Y-146013747D02*
X256317857Y-145966128D01*
X256317857Y-145966128D02*
X256127381Y-145918509D01*
X256127381Y-145918509D02*
X256032143Y-145870890D01*
X256032143Y-145870890D02*
X255984524Y-145823271D01*
X255984524Y-145823271D02*
X255936905Y-145728033D01*
X255936905Y-145728033D02*
X255936905Y-145632795D01*
X255936905Y-145632795D02*
X255984524Y-145537557D01*
X255984524Y-145537557D02*
X256032143Y-145489938D01*
X256032143Y-145489938D02*
X256127381Y-145442319D01*
X256127381Y-145442319D02*
X256365476Y-145442319D01*
X256365476Y-145442319D02*
X256508333Y-145489938D01*
X257413095Y-145442319D02*
X256936905Y-145442319D01*
X256936905Y-145442319D02*
X256889286Y-145918509D01*
X256889286Y-145918509D02*
X256936905Y-145870890D01*
X256936905Y-145870890D02*
X257032143Y-145823271D01*
X257032143Y-145823271D02*
X257270238Y-145823271D01*
X257270238Y-145823271D02*
X257365476Y-145870890D01*
X257365476Y-145870890D02*
X257413095Y-145918509D01*
X257413095Y-145918509D02*
X257460714Y-146013747D01*
X257460714Y-146013747D02*
X257460714Y-146251842D01*
X257460714Y-146251842D02*
X257413095Y-146347080D01*
X257413095Y-146347080D02*
X257365476Y-146394700D01*
X257365476Y-146394700D02*
X257270238Y-146442319D01*
X257270238Y-146442319D02*
X257032143Y-146442319D01*
X257032143Y-146442319D02*
X256936905Y-146394700D01*
X256936905Y-146394700D02*
X256889286Y-146347080D01*
X258079762Y-145442319D02*
X258175000Y-145442319D01*
X258175000Y-145442319D02*
X258270238Y-145489938D01*
X258270238Y-145489938D02*
X258317857Y-145537557D01*
X258317857Y-145537557D02*
X258365476Y-145632795D01*
X258365476Y-145632795D02*
X258413095Y-145823271D01*
X258413095Y-145823271D02*
X258413095Y-146061366D01*
X258413095Y-146061366D02*
X258365476Y-146251842D01*
X258365476Y-146251842D02*
X258317857Y-146347080D01*
X258317857Y-146347080D02*
X258270238Y-146394700D01*
X258270238Y-146394700D02*
X258175000Y-146442319D01*
X258175000Y-146442319D02*
X258079762Y-146442319D01*
X258079762Y-146442319D02*
X257984524Y-146394700D01*
X257984524Y-146394700D02*
X257936905Y-146347080D01*
X257936905Y-146347080D02*
X257889286Y-146251842D01*
X257889286Y-146251842D02*
X257841667Y-146061366D01*
X257841667Y-146061366D02*
X257841667Y-145823271D01*
X257841667Y-145823271D02*
X257889286Y-145632795D01*
X257889286Y-145632795D02*
X257936905Y-145537557D01*
X257936905Y-145537557D02*
X257984524Y-145489938D01*
X257984524Y-145489938D02*
X258079762Y-145442319D01*
X236886905Y-146394700D02*
X237029762Y-146442319D01*
X237029762Y-146442319D02*
X237267857Y-146442319D01*
X237267857Y-146442319D02*
X237363095Y-146394700D01*
X237363095Y-146394700D02*
X237410714Y-146347080D01*
X237410714Y-146347080D02*
X237458333Y-146251842D01*
X237458333Y-146251842D02*
X237458333Y-146156604D01*
X237458333Y-146156604D02*
X237410714Y-146061366D01*
X237410714Y-146061366D02*
X237363095Y-146013747D01*
X237363095Y-146013747D02*
X237267857Y-145966128D01*
X237267857Y-145966128D02*
X237077381Y-145918509D01*
X237077381Y-145918509D02*
X236982143Y-145870890D01*
X236982143Y-145870890D02*
X236934524Y-145823271D01*
X236934524Y-145823271D02*
X236886905Y-145728033D01*
X236886905Y-145728033D02*
X236886905Y-145632795D01*
X236886905Y-145632795D02*
X236934524Y-145537557D01*
X236934524Y-145537557D02*
X236982143Y-145489938D01*
X236982143Y-145489938D02*
X237077381Y-145442319D01*
X237077381Y-145442319D02*
X237315476Y-145442319D01*
X237315476Y-145442319D02*
X237458333Y-145489938D01*
X238315476Y-145775652D02*
X238315476Y-146442319D01*
X238077381Y-145394700D02*
X237839286Y-146108985D01*
X237839286Y-146108985D02*
X238458333Y-146108985D01*
X238886905Y-146442319D02*
X239077381Y-146442319D01*
X239077381Y-146442319D02*
X239172619Y-146394700D01*
X239172619Y-146394700D02*
X239220238Y-146347080D01*
X239220238Y-146347080D02*
X239315476Y-146204223D01*
X239315476Y-146204223D02*
X239363095Y-146013747D01*
X239363095Y-146013747D02*
X239363095Y-145632795D01*
X239363095Y-145632795D02*
X239315476Y-145537557D01*
X239315476Y-145537557D02*
X239267857Y-145489938D01*
X239267857Y-145489938D02*
X239172619Y-145442319D01*
X239172619Y-145442319D02*
X238982143Y-145442319D01*
X238982143Y-145442319D02*
X238886905Y-145489938D01*
X238886905Y-145489938D02*
X238839286Y-145537557D01*
X238839286Y-145537557D02*
X238791667Y-145632795D01*
X238791667Y-145632795D02*
X238791667Y-145870890D01*
X238791667Y-145870890D02*
X238839286Y-145966128D01*
X238839286Y-145966128D02*
X238886905Y-146013747D01*
X238886905Y-146013747D02*
X238982143Y-146061366D01*
X238982143Y-146061366D02*
X239172619Y-146061366D01*
X239172619Y-146061366D02*
X239267857Y-146013747D01*
X239267857Y-146013747D02*
X239315476Y-145966128D01*
X239315476Y-145966128D02*
X239363095Y-145870890D01*
X336899405Y-89244700D02*
X337042262Y-89292319D01*
X337042262Y-89292319D02*
X337280357Y-89292319D01*
X337280357Y-89292319D02*
X337375595Y-89244700D01*
X337375595Y-89244700D02*
X337423214Y-89197080D01*
X337423214Y-89197080D02*
X337470833Y-89101842D01*
X337470833Y-89101842D02*
X337470833Y-89006604D01*
X337470833Y-89006604D02*
X337423214Y-88911366D01*
X337423214Y-88911366D02*
X337375595Y-88863747D01*
X337375595Y-88863747D02*
X337280357Y-88816128D01*
X337280357Y-88816128D02*
X337089881Y-88768509D01*
X337089881Y-88768509D02*
X336994643Y-88720890D01*
X336994643Y-88720890D02*
X336947024Y-88673271D01*
X336947024Y-88673271D02*
X336899405Y-88578033D01*
X336899405Y-88578033D02*
X336899405Y-88482795D01*
X336899405Y-88482795D02*
X336947024Y-88387557D01*
X336947024Y-88387557D02*
X336994643Y-88339938D01*
X336994643Y-88339938D02*
X337089881Y-88292319D01*
X337089881Y-88292319D02*
X337327976Y-88292319D01*
X337327976Y-88292319D02*
X337470833Y-88339938D01*
X338423214Y-89292319D02*
X337851786Y-89292319D01*
X338137500Y-89292319D02*
X338137500Y-88292319D01*
X338137500Y-88292319D02*
X338042262Y-88435176D01*
X338042262Y-88435176D02*
X337947024Y-88530414D01*
X337947024Y-88530414D02*
X337851786Y-88578033D01*
X339280357Y-88625652D02*
X339280357Y-89292319D01*
X339042262Y-88244700D02*
X338804167Y-88958985D01*
X338804167Y-88958985D02*
X339423214Y-88958985D01*
X217836905Y-146394700D02*
X217979762Y-146442319D01*
X217979762Y-146442319D02*
X218217857Y-146442319D01*
X218217857Y-146442319D02*
X218313095Y-146394700D01*
X218313095Y-146394700D02*
X218360714Y-146347080D01*
X218360714Y-146347080D02*
X218408333Y-146251842D01*
X218408333Y-146251842D02*
X218408333Y-146156604D01*
X218408333Y-146156604D02*
X218360714Y-146061366D01*
X218360714Y-146061366D02*
X218313095Y-146013747D01*
X218313095Y-146013747D02*
X218217857Y-145966128D01*
X218217857Y-145966128D02*
X218027381Y-145918509D01*
X218027381Y-145918509D02*
X217932143Y-145870890D01*
X217932143Y-145870890D02*
X217884524Y-145823271D01*
X217884524Y-145823271D02*
X217836905Y-145728033D01*
X217836905Y-145728033D02*
X217836905Y-145632795D01*
X217836905Y-145632795D02*
X217884524Y-145537557D01*
X217884524Y-145537557D02*
X217932143Y-145489938D01*
X217932143Y-145489938D02*
X218027381Y-145442319D01*
X218027381Y-145442319D02*
X218265476Y-145442319D01*
X218265476Y-145442319D02*
X218408333Y-145489938D01*
X219265476Y-145775652D02*
X219265476Y-146442319D01*
X219027381Y-145394700D02*
X218789286Y-146108985D01*
X218789286Y-146108985D02*
X219408333Y-146108985D01*
X219932143Y-145870890D02*
X219836905Y-145823271D01*
X219836905Y-145823271D02*
X219789286Y-145775652D01*
X219789286Y-145775652D02*
X219741667Y-145680414D01*
X219741667Y-145680414D02*
X219741667Y-145632795D01*
X219741667Y-145632795D02*
X219789286Y-145537557D01*
X219789286Y-145537557D02*
X219836905Y-145489938D01*
X219836905Y-145489938D02*
X219932143Y-145442319D01*
X219932143Y-145442319D02*
X220122619Y-145442319D01*
X220122619Y-145442319D02*
X220217857Y-145489938D01*
X220217857Y-145489938D02*
X220265476Y-145537557D01*
X220265476Y-145537557D02*
X220313095Y-145632795D01*
X220313095Y-145632795D02*
X220313095Y-145680414D01*
X220313095Y-145680414D02*
X220265476Y-145775652D01*
X220265476Y-145775652D02*
X220217857Y-145823271D01*
X220217857Y-145823271D02*
X220122619Y-145870890D01*
X220122619Y-145870890D02*
X219932143Y-145870890D01*
X219932143Y-145870890D02*
X219836905Y-145918509D01*
X219836905Y-145918509D02*
X219789286Y-145966128D01*
X219789286Y-145966128D02*
X219741667Y-146061366D01*
X219741667Y-146061366D02*
X219741667Y-146251842D01*
X219741667Y-146251842D02*
X219789286Y-146347080D01*
X219789286Y-146347080D02*
X219836905Y-146394700D01*
X219836905Y-146394700D02*
X219932143Y-146442319D01*
X219932143Y-146442319D02*
X220122619Y-146442319D01*
X220122619Y-146442319D02*
X220217857Y-146394700D01*
X220217857Y-146394700D02*
X220265476Y-146347080D01*
X220265476Y-146347080D02*
X220313095Y-146251842D01*
X220313095Y-146251842D02*
X220313095Y-146061366D01*
X220313095Y-146061366D02*
X220265476Y-145966128D01*
X220265476Y-145966128D02*
X220217857Y-145918509D01*
X220217857Y-145918509D02*
X220122619Y-145870890D01*
X184499405Y-108294700D02*
X184642262Y-108342319D01*
X184642262Y-108342319D02*
X184880357Y-108342319D01*
X184880357Y-108342319D02*
X184975595Y-108294700D01*
X184975595Y-108294700D02*
X185023214Y-108247080D01*
X185023214Y-108247080D02*
X185070833Y-108151842D01*
X185070833Y-108151842D02*
X185070833Y-108056604D01*
X185070833Y-108056604D02*
X185023214Y-107961366D01*
X185023214Y-107961366D02*
X184975595Y-107913747D01*
X184975595Y-107913747D02*
X184880357Y-107866128D01*
X184880357Y-107866128D02*
X184689881Y-107818509D01*
X184689881Y-107818509D02*
X184594643Y-107770890D01*
X184594643Y-107770890D02*
X184547024Y-107723271D01*
X184547024Y-107723271D02*
X184499405Y-107628033D01*
X184499405Y-107628033D02*
X184499405Y-107532795D01*
X184499405Y-107532795D02*
X184547024Y-107437557D01*
X184547024Y-107437557D02*
X184594643Y-107389938D01*
X184594643Y-107389938D02*
X184689881Y-107342319D01*
X184689881Y-107342319D02*
X184927976Y-107342319D01*
X184927976Y-107342319D02*
X185070833Y-107389938D01*
X185451786Y-107437557D02*
X185499405Y-107389938D01*
X185499405Y-107389938D02*
X185594643Y-107342319D01*
X185594643Y-107342319D02*
X185832738Y-107342319D01*
X185832738Y-107342319D02*
X185927976Y-107389938D01*
X185927976Y-107389938D02*
X185975595Y-107437557D01*
X185975595Y-107437557D02*
X186023214Y-107532795D01*
X186023214Y-107532795D02*
X186023214Y-107628033D01*
X186023214Y-107628033D02*
X185975595Y-107770890D01*
X185975595Y-107770890D02*
X185404167Y-108342319D01*
X185404167Y-108342319D02*
X186023214Y-108342319D01*
X186642262Y-107342319D02*
X186737500Y-107342319D01*
X186737500Y-107342319D02*
X186832738Y-107389938D01*
X186832738Y-107389938D02*
X186880357Y-107437557D01*
X186880357Y-107437557D02*
X186927976Y-107532795D01*
X186927976Y-107532795D02*
X186975595Y-107723271D01*
X186975595Y-107723271D02*
X186975595Y-107961366D01*
X186975595Y-107961366D02*
X186927976Y-108151842D01*
X186927976Y-108151842D02*
X186880357Y-108247080D01*
X186880357Y-108247080D02*
X186832738Y-108294700D01*
X186832738Y-108294700D02*
X186737500Y-108342319D01*
X186737500Y-108342319D02*
X186642262Y-108342319D01*
X186642262Y-108342319D02*
X186547024Y-108294700D01*
X186547024Y-108294700D02*
X186499405Y-108247080D01*
X186499405Y-108247080D02*
X186451786Y-108151842D01*
X186451786Y-108151842D02*
X186404167Y-107961366D01*
X186404167Y-107961366D02*
X186404167Y-107723271D01*
X186404167Y-107723271D02*
X186451786Y-107532795D01*
X186451786Y-107532795D02*
X186499405Y-107437557D01*
X186499405Y-107437557D02*
X186547024Y-107389938D01*
X186547024Y-107389938D02*
X186642262Y-107342319D01*
X132111905Y-127344700D02*
X132254762Y-127392319D01*
X132254762Y-127392319D02*
X132492857Y-127392319D01*
X132492857Y-127392319D02*
X132588095Y-127344700D01*
X132588095Y-127344700D02*
X132635714Y-127297080D01*
X132635714Y-127297080D02*
X132683333Y-127201842D01*
X132683333Y-127201842D02*
X132683333Y-127106604D01*
X132683333Y-127106604D02*
X132635714Y-127011366D01*
X132635714Y-127011366D02*
X132588095Y-126963747D01*
X132588095Y-126963747D02*
X132492857Y-126916128D01*
X132492857Y-126916128D02*
X132302381Y-126868509D01*
X132302381Y-126868509D02*
X132207143Y-126820890D01*
X132207143Y-126820890D02*
X132159524Y-126773271D01*
X132159524Y-126773271D02*
X132111905Y-126678033D01*
X132111905Y-126678033D02*
X132111905Y-126582795D01*
X132111905Y-126582795D02*
X132159524Y-126487557D01*
X132159524Y-126487557D02*
X132207143Y-126439938D01*
X132207143Y-126439938D02*
X132302381Y-126392319D01*
X132302381Y-126392319D02*
X132540476Y-126392319D01*
X132540476Y-126392319D02*
X132683333Y-126439938D01*
X133016667Y-126392319D02*
X133635714Y-126392319D01*
X133635714Y-126392319D02*
X133302381Y-126773271D01*
X133302381Y-126773271D02*
X133445238Y-126773271D01*
X133445238Y-126773271D02*
X133540476Y-126820890D01*
X133540476Y-126820890D02*
X133588095Y-126868509D01*
X133588095Y-126868509D02*
X133635714Y-126963747D01*
X133635714Y-126963747D02*
X133635714Y-127201842D01*
X133635714Y-127201842D02*
X133588095Y-127297080D01*
X133588095Y-127297080D02*
X133540476Y-127344700D01*
X133540476Y-127344700D02*
X133445238Y-127392319D01*
X133445238Y-127392319D02*
X133159524Y-127392319D01*
X133159524Y-127392319D02*
X133064286Y-127344700D01*
X133064286Y-127344700D02*
X133016667Y-127297080D01*
X134588095Y-127392319D02*
X134016667Y-127392319D01*
X134302381Y-127392319D02*
X134302381Y-126392319D01*
X134302381Y-126392319D02*
X134207143Y-126535176D01*
X134207143Y-126535176D02*
X134111905Y-126630414D01*
X134111905Y-126630414D02*
X134016667Y-126678033D01*
X108299405Y-108294700D02*
X108442262Y-108342319D01*
X108442262Y-108342319D02*
X108680357Y-108342319D01*
X108680357Y-108342319D02*
X108775595Y-108294700D01*
X108775595Y-108294700D02*
X108823214Y-108247080D01*
X108823214Y-108247080D02*
X108870833Y-108151842D01*
X108870833Y-108151842D02*
X108870833Y-108056604D01*
X108870833Y-108056604D02*
X108823214Y-107961366D01*
X108823214Y-107961366D02*
X108775595Y-107913747D01*
X108775595Y-107913747D02*
X108680357Y-107866128D01*
X108680357Y-107866128D02*
X108489881Y-107818509D01*
X108489881Y-107818509D02*
X108394643Y-107770890D01*
X108394643Y-107770890D02*
X108347024Y-107723271D01*
X108347024Y-107723271D02*
X108299405Y-107628033D01*
X108299405Y-107628033D02*
X108299405Y-107532795D01*
X108299405Y-107532795D02*
X108347024Y-107437557D01*
X108347024Y-107437557D02*
X108394643Y-107389938D01*
X108394643Y-107389938D02*
X108489881Y-107342319D01*
X108489881Y-107342319D02*
X108727976Y-107342319D01*
X108727976Y-107342319D02*
X108870833Y-107389938D01*
X109823214Y-108342319D02*
X109251786Y-108342319D01*
X109537500Y-108342319D02*
X109537500Y-107342319D01*
X109537500Y-107342319D02*
X109442262Y-107485176D01*
X109442262Y-107485176D02*
X109347024Y-107580414D01*
X109347024Y-107580414D02*
X109251786Y-107628033D01*
X110680357Y-107342319D02*
X110489881Y-107342319D01*
X110489881Y-107342319D02*
X110394643Y-107389938D01*
X110394643Y-107389938D02*
X110347024Y-107437557D01*
X110347024Y-107437557D02*
X110251786Y-107580414D01*
X110251786Y-107580414D02*
X110204167Y-107770890D01*
X110204167Y-107770890D02*
X110204167Y-108151842D01*
X110204167Y-108151842D02*
X110251786Y-108247080D01*
X110251786Y-108247080D02*
X110299405Y-108294700D01*
X110299405Y-108294700D02*
X110394643Y-108342319D01*
X110394643Y-108342319D02*
X110585119Y-108342319D01*
X110585119Y-108342319D02*
X110680357Y-108294700D01*
X110680357Y-108294700D02*
X110727976Y-108247080D01*
X110727976Y-108247080D02*
X110775595Y-108151842D01*
X110775595Y-108151842D02*
X110775595Y-107913747D01*
X110775595Y-107913747D02*
X110727976Y-107818509D01*
X110727976Y-107818509D02*
X110680357Y-107770890D01*
X110680357Y-107770890D02*
X110585119Y-107723271D01*
X110585119Y-107723271D02*
X110394643Y-107723271D01*
X110394643Y-107723271D02*
X110299405Y-107770890D01*
X110299405Y-107770890D02*
X110251786Y-107818509D01*
X110251786Y-107818509D02*
X110204167Y-107913747D01*
X105918155Y-165444700D02*
X106061012Y-165492319D01*
X106061012Y-165492319D02*
X106299107Y-165492319D01*
X106299107Y-165492319D02*
X106394345Y-165444700D01*
X106394345Y-165444700D02*
X106441964Y-165397080D01*
X106441964Y-165397080D02*
X106489583Y-165301842D01*
X106489583Y-165301842D02*
X106489583Y-165206604D01*
X106489583Y-165206604D02*
X106441964Y-165111366D01*
X106441964Y-165111366D02*
X106394345Y-165063747D01*
X106394345Y-165063747D02*
X106299107Y-165016128D01*
X106299107Y-165016128D02*
X106108631Y-164968509D01*
X106108631Y-164968509D02*
X106013393Y-164920890D01*
X106013393Y-164920890D02*
X105965774Y-164873271D01*
X105965774Y-164873271D02*
X105918155Y-164778033D01*
X105918155Y-164778033D02*
X105918155Y-164682795D01*
X105918155Y-164682795D02*
X105965774Y-164587557D01*
X105965774Y-164587557D02*
X106013393Y-164539938D01*
X106013393Y-164539938D02*
X106108631Y-164492319D01*
X106108631Y-164492319D02*
X106346726Y-164492319D01*
X106346726Y-164492319D02*
X106489583Y-164539938D01*
X107394345Y-164492319D02*
X106918155Y-164492319D01*
X106918155Y-164492319D02*
X106870536Y-164968509D01*
X106870536Y-164968509D02*
X106918155Y-164920890D01*
X106918155Y-164920890D02*
X107013393Y-164873271D01*
X107013393Y-164873271D02*
X107251488Y-164873271D01*
X107251488Y-164873271D02*
X107346726Y-164920890D01*
X107346726Y-164920890D02*
X107394345Y-164968509D01*
X107394345Y-164968509D02*
X107441964Y-165063747D01*
X107441964Y-165063747D02*
X107441964Y-165301842D01*
X107441964Y-165301842D02*
X107394345Y-165397080D01*
X107394345Y-165397080D02*
X107346726Y-165444700D01*
X107346726Y-165444700D02*
X107251488Y-165492319D01*
X107251488Y-165492319D02*
X107013393Y-165492319D01*
X107013393Y-165492319D02*
X106918155Y-165444700D01*
X106918155Y-165444700D02*
X106870536Y-165397080D01*
X108346726Y-164492319D02*
X107870536Y-164492319D01*
X107870536Y-164492319D02*
X107822917Y-164968509D01*
X107822917Y-164968509D02*
X107870536Y-164920890D01*
X107870536Y-164920890D02*
X107965774Y-164873271D01*
X107965774Y-164873271D02*
X108203869Y-164873271D01*
X108203869Y-164873271D02*
X108299107Y-164920890D01*
X108299107Y-164920890D02*
X108346726Y-164968509D01*
X108346726Y-164968509D02*
X108394345Y-165063747D01*
X108394345Y-165063747D02*
X108394345Y-165301842D01*
X108394345Y-165301842D02*
X108346726Y-165397080D01*
X108346726Y-165397080D02*
X108299107Y-165444700D01*
X108299107Y-165444700D02*
X108203869Y-165492319D01*
X108203869Y-165492319D02*
X107965774Y-165492319D01*
X107965774Y-165492319D02*
X107870536Y-165444700D01*
X107870536Y-165444700D02*
X107822917Y-165397080D01*
X113061905Y-127344700D02*
X113204762Y-127392319D01*
X113204762Y-127392319D02*
X113442857Y-127392319D01*
X113442857Y-127392319D02*
X113538095Y-127344700D01*
X113538095Y-127344700D02*
X113585714Y-127297080D01*
X113585714Y-127297080D02*
X113633333Y-127201842D01*
X113633333Y-127201842D02*
X113633333Y-127106604D01*
X113633333Y-127106604D02*
X113585714Y-127011366D01*
X113585714Y-127011366D02*
X113538095Y-126963747D01*
X113538095Y-126963747D02*
X113442857Y-126916128D01*
X113442857Y-126916128D02*
X113252381Y-126868509D01*
X113252381Y-126868509D02*
X113157143Y-126820890D01*
X113157143Y-126820890D02*
X113109524Y-126773271D01*
X113109524Y-126773271D02*
X113061905Y-126678033D01*
X113061905Y-126678033D02*
X113061905Y-126582795D01*
X113061905Y-126582795D02*
X113109524Y-126487557D01*
X113109524Y-126487557D02*
X113157143Y-126439938D01*
X113157143Y-126439938D02*
X113252381Y-126392319D01*
X113252381Y-126392319D02*
X113490476Y-126392319D01*
X113490476Y-126392319D02*
X113633333Y-126439938D01*
X113966667Y-126392319D02*
X114585714Y-126392319D01*
X114585714Y-126392319D02*
X114252381Y-126773271D01*
X114252381Y-126773271D02*
X114395238Y-126773271D01*
X114395238Y-126773271D02*
X114490476Y-126820890D01*
X114490476Y-126820890D02*
X114538095Y-126868509D01*
X114538095Y-126868509D02*
X114585714Y-126963747D01*
X114585714Y-126963747D02*
X114585714Y-127201842D01*
X114585714Y-127201842D02*
X114538095Y-127297080D01*
X114538095Y-127297080D02*
X114490476Y-127344700D01*
X114490476Y-127344700D02*
X114395238Y-127392319D01*
X114395238Y-127392319D02*
X114109524Y-127392319D01*
X114109524Y-127392319D02*
X114014286Y-127344700D01*
X114014286Y-127344700D02*
X113966667Y-127297080D01*
X115204762Y-126392319D02*
X115300000Y-126392319D01*
X115300000Y-126392319D02*
X115395238Y-126439938D01*
X115395238Y-126439938D02*
X115442857Y-126487557D01*
X115442857Y-126487557D02*
X115490476Y-126582795D01*
X115490476Y-126582795D02*
X115538095Y-126773271D01*
X115538095Y-126773271D02*
X115538095Y-127011366D01*
X115538095Y-127011366D02*
X115490476Y-127201842D01*
X115490476Y-127201842D02*
X115442857Y-127297080D01*
X115442857Y-127297080D02*
X115395238Y-127344700D01*
X115395238Y-127344700D02*
X115300000Y-127392319D01*
X115300000Y-127392319D02*
X115204762Y-127392319D01*
X115204762Y-127392319D02*
X115109524Y-127344700D01*
X115109524Y-127344700D02*
X115061905Y-127297080D01*
X115061905Y-127297080D02*
X115014286Y-127201842D01*
X115014286Y-127201842D02*
X114966667Y-127011366D01*
X114966667Y-127011366D02*
X114966667Y-126773271D01*
X114966667Y-126773271D02*
X115014286Y-126582795D01*
X115014286Y-126582795D02*
X115061905Y-126487557D01*
X115061905Y-126487557D02*
X115109524Y-126439938D01*
X115109524Y-126439938D02*
X115204762Y-126392319D01*
X86868155Y-127367200D02*
X87011012Y-127414819D01*
X87011012Y-127414819D02*
X87249107Y-127414819D01*
X87249107Y-127414819D02*
X87344345Y-127367200D01*
X87344345Y-127367200D02*
X87391964Y-127319580D01*
X87391964Y-127319580D02*
X87439583Y-127224342D01*
X87439583Y-127224342D02*
X87439583Y-127129104D01*
X87439583Y-127129104D02*
X87391964Y-127033866D01*
X87391964Y-127033866D02*
X87344345Y-126986247D01*
X87344345Y-126986247D02*
X87249107Y-126938628D01*
X87249107Y-126938628D02*
X87058631Y-126891009D01*
X87058631Y-126891009D02*
X86963393Y-126843390D01*
X86963393Y-126843390D02*
X86915774Y-126795771D01*
X86915774Y-126795771D02*
X86868155Y-126700533D01*
X86868155Y-126700533D02*
X86868155Y-126605295D01*
X86868155Y-126605295D02*
X86915774Y-126510057D01*
X86915774Y-126510057D02*
X86963393Y-126462438D01*
X86963393Y-126462438D02*
X87058631Y-126414819D01*
X87058631Y-126414819D02*
X87296726Y-126414819D01*
X87296726Y-126414819D02*
X87439583Y-126462438D01*
X87820536Y-126510057D02*
X87868155Y-126462438D01*
X87868155Y-126462438D02*
X87963393Y-126414819D01*
X87963393Y-126414819D02*
X88201488Y-126414819D01*
X88201488Y-126414819D02*
X88296726Y-126462438D01*
X88296726Y-126462438D02*
X88344345Y-126510057D01*
X88344345Y-126510057D02*
X88391964Y-126605295D01*
X88391964Y-126605295D02*
X88391964Y-126700533D01*
X88391964Y-126700533D02*
X88344345Y-126843390D01*
X88344345Y-126843390D02*
X87772917Y-127414819D01*
X87772917Y-127414819D02*
X88391964Y-127414819D01*
X88868155Y-127414819D02*
X89058631Y-127414819D01*
X89058631Y-127414819D02*
X89153869Y-127367200D01*
X89153869Y-127367200D02*
X89201488Y-127319580D01*
X89201488Y-127319580D02*
X89296726Y-127176723D01*
X89296726Y-127176723D02*
X89344345Y-126986247D01*
X89344345Y-126986247D02*
X89344345Y-126605295D01*
X89344345Y-126605295D02*
X89296726Y-126510057D01*
X89296726Y-126510057D02*
X89249107Y-126462438D01*
X89249107Y-126462438D02*
X89153869Y-126414819D01*
X89153869Y-126414819D02*
X88963393Y-126414819D01*
X88963393Y-126414819D02*
X88868155Y-126462438D01*
X88868155Y-126462438D02*
X88820536Y-126510057D01*
X88820536Y-126510057D02*
X88772917Y-126605295D01*
X88772917Y-126605295D02*
X88772917Y-126843390D01*
X88772917Y-126843390D02*
X88820536Y-126938628D01*
X88820536Y-126938628D02*
X88868155Y-126986247D01*
X88868155Y-126986247D02*
X88963393Y-127033866D01*
X88963393Y-127033866D02*
X89153869Y-127033866D01*
X89153869Y-127033866D02*
X89249107Y-126986247D01*
X89249107Y-126986247D02*
X89296726Y-126938628D01*
X89296726Y-126938628D02*
X89344345Y-126843390D01*
X213550595Y-89244700D02*
X213693452Y-89292319D01*
X213693452Y-89292319D02*
X213931547Y-89292319D01*
X213931547Y-89292319D02*
X214026785Y-89244700D01*
X214026785Y-89244700D02*
X214074404Y-89197080D01*
X214074404Y-89197080D02*
X214122023Y-89101842D01*
X214122023Y-89101842D02*
X214122023Y-89006604D01*
X214122023Y-89006604D02*
X214074404Y-88911366D01*
X214074404Y-88911366D02*
X214026785Y-88863747D01*
X214026785Y-88863747D02*
X213931547Y-88816128D01*
X213931547Y-88816128D02*
X213741071Y-88768509D01*
X213741071Y-88768509D02*
X213645833Y-88720890D01*
X213645833Y-88720890D02*
X213598214Y-88673271D01*
X213598214Y-88673271D02*
X213550595Y-88578033D01*
X213550595Y-88578033D02*
X213550595Y-88482795D01*
X213550595Y-88482795D02*
X213598214Y-88387557D01*
X213598214Y-88387557D02*
X213645833Y-88339938D01*
X213645833Y-88339938D02*
X213741071Y-88292319D01*
X213741071Y-88292319D02*
X213979166Y-88292319D01*
X213979166Y-88292319D02*
X214122023Y-88339938D01*
X214693452Y-88720890D02*
X214598214Y-88673271D01*
X214598214Y-88673271D02*
X214550595Y-88625652D01*
X214550595Y-88625652D02*
X214502976Y-88530414D01*
X214502976Y-88530414D02*
X214502976Y-88482795D01*
X214502976Y-88482795D02*
X214550595Y-88387557D01*
X214550595Y-88387557D02*
X214598214Y-88339938D01*
X214598214Y-88339938D02*
X214693452Y-88292319D01*
X214693452Y-88292319D02*
X214883928Y-88292319D01*
X214883928Y-88292319D02*
X214979166Y-88339938D01*
X214979166Y-88339938D02*
X215026785Y-88387557D01*
X215026785Y-88387557D02*
X215074404Y-88482795D01*
X215074404Y-88482795D02*
X215074404Y-88530414D01*
X215074404Y-88530414D02*
X215026785Y-88625652D01*
X215026785Y-88625652D02*
X214979166Y-88673271D01*
X214979166Y-88673271D02*
X214883928Y-88720890D01*
X214883928Y-88720890D02*
X214693452Y-88720890D01*
X214693452Y-88720890D02*
X214598214Y-88768509D01*
X214598214Y-88768509D02*
X214550595Y-88816128D01*
X214550595Y-88816128D02*
X214502976Y-88911366D01*
X214502976Y-88911366D02*
X214502976Y-89101842D01*
X214502976Y-89101842D02*
X214550595Y-89197080D01*
X214550595Y-89197080D02*
X214598214Y-89244700D01*
X214598214Y-89244700D02*
X214693452Y-89292319D01*
X214693452Y-89292319D02*
X214883928Y-89292319D01*
X214883928Y-89292319D02*
X214979166Y-89244700D01*
X214979166Y-89244700D02*
X215026785Y-89197080D01*
X215026785Y-89197080D02*
X215074404Y-89101842D01*
X215074404Y-89101842D02*
X215074404Y-88911366D01*
X215074404Y-88911366D02*
X215026785Y-88816128D01*
X215026785Y-88816128D02*
X214979166Y-88768509D01*
X214979166Y-88768509D02*
X214883928Y-88720890D01*
X146399405Y-111247200D02*
X146542262Y-111294819D01*
X146542262Y-111294819D02*
X146780357Y-111294819D01*
X146780357Y-111294819D02*
X146875595Y-111247200D01*
X146875595Y-111247200D02*
X146923214Y-111199580D01*
X146923214Y-111199580D02*
X146970833Y-111104342D01*
X146970833Y-111104342D02*
X146970833Y-111009104D01*
X146970833Y-111009104D02*
X146923214Y-110913866D01*
X146923214Y-110913866D02*
X146875595Y-110866247D01*
X146875595Y-110866247D02*
X146780357Y-110818628D01*
X146780357Y-110818628D02*
X146589881Y-110771009D01*
X146589881Y-110771009D02*
X146494643Y-110723390D01*
X146494643Y-110723390D02*
X146447024Y-110675771D01*
X146447024Y-110675771D02*
X146399405Y-110580533D01*
X146399405Y-110580533D02*
X146399405Y-110485295D01*
X146399405Y-110485295D02*
X146447024Y-110390057D01*
X146447024Y-110390057D02*
X146494643Y-110342438D01*
X146494643Y-110342438D02*
X146589881Y-110294819D01*
X146589881Y-110294819D02*
X146827976Y-110294819D01*
X146827976Y-110294819D02*
X146970833Y-110342438D01*
X147923214Y-111294819D02*
X147351786Y-111294819D01*
X147637500Y-111294819D02*
X147637500Y-110294819D01*
X147637500Y-110294819D02*
X147542262Y-110437676D01*
X147542262Y-110437676D02*
X147447024Y-110532914D01*
X147447024Y-110532914D02*
X147351786Y-110580533D01*
X148494643Y-110723390D02*
X148399405Y-110675771D01*
X148399405Y-110675771D02*
X148351786Y-110628152D01*
X148351786Y-110628152D02*
X148304167Y-110532914D01*
X148304167Y-110532914D02*
X148304167Y-110485295D01*
X148304167Y-110485295D02*
X148351786Y-110390057D01*
X148351786Y-110390057D02*
X148399405Y-110342438D01*
X148399405Y-110342438D02*
X148494643Y-110294819D01*
X148494643Y-110294819D02*
X148685119Y-110294819D01*
X148685119Y-110294819D02*
X148780357Y-110342438D01*
X148780357Y-110342438D02*
X148827976Y-110390057D01*
X148827976Y-110390057D02*
X148875595Y-110485295D01*
X148875595Y-110485295D02*
X148875595Y-110532914D01*
X148875595Y-110532914D02*
X148827976Y-110628152D01*
X148827976Y-110628152D02*
X148780357Y-110675771D01*
X148780357Y-110675771D02*
X148685119Y-110723390D01*
X148685119Y-110723390D02*
X148494643Y-110723390D01*
X148494643Y-110723390D02*
X148399405Y-110771009D01*
X148399405Y-110771009D02*
X148351786Y-110818628D01*
X148351786Y-110818628D02*
X148304167Y-110913866D01*
X148304167Y-110913866D02*
X148304167Y-111104342D01*
X148304167Y-111104342D02*
X148351786Y-111199580D01*
X148351786Y-111199580D02*
X148399405Y-111247200D01*
X148399405Y-111247200D02*
X148494643Y-111294819D01*
X148494643Y-111294819D02*
X148685119Y-111294819D01*
X148685119Y-111294819D02*
X148780357Y-111247200D01*
X148780357Y-111247200D02*
X148827976Y-111199580D01*
X148827976Y-111199580D02*
X148875595Y-111104342D01*
X148875595Y-111104342D02*
X148875595Y-110913866D01*
X148875595Y-110913866D02*
X148827976Y-110818628D01*
X148827976Y-110818628D02*
X148780357Y-110771009D01*
X148780357Y-110771009D02*
X148685119Y-110723390D01*
X298799405Y-108294700D02*
X298942262Y-108342319D01*
X298942262Y-108342319D02*
X299180357Y-108342319D01*
X299180357Y-108342319D02*
X299275595Y-108294700D01*
X299275595Y-108294700D02*
X299323214Y-108247080D01*
X299323214Y-108247080D02*
X299370833Y-108151842D01*
X299370833Y-108151842D02*
X299370833Y-108056604D01*
X299370833Y-108056604D02*
X299323214Y-107961366D01*
X299323214Y-107961366D02*
X299275595Y-107913747D01*
X299275595Y-107913747D02*
X299180357Y-107866128D01*
X299180357Y-107866128D02*
X298989881Y-107818509D01*
X298989881Y-107818509D02*
X298894643Y-107770890D01*
X298894643Y-107770890D02*
X298847024Y-107723271D01*
X298847024Y-107723271D02*
X298799405Y-107628033D01*
X298799405Y-107628033D02*
X298799405Y-107532795D01*
X298799405Y-107532795D02*
X298847024Y-107437557D01*
X298847024Y-107437557D02*
X298894643Y-107389938D01*
X298894643Y-107389938D02*
X298989881Y-107342319D01*
X298989881Y-107342319D02*
X299227976Y-107342319D01*
X299227976Y-107342319D02*
X299370833Y-107389938D01*
X299751786Y-107437557D02*
X299799405Y-107389938D01*
X299799405Y-107389938D02*
X299894643Y-107342319D01*
X299894643Y-107342319D02*
X300132738Y-107342319D01*
X300132738Y-107342319D02*
X300227976Y-107389938D01*
X300227976Y-107389938D02*
X300275595Y-107437557D01*
X300275595Y-107437557D02*
X300323214Y-107532795D01*
X300323214Y-107532795D02*
X300323214Y-107628033D01*
X300323214Y-107628033D02*
X300275595Y-107770890D01*
X300275595Y-107770890D02*
X299704167Y-108342319D01*
X299704167Y-108342319D02*
X300323214Y-108342319D01*
X301180357Y-107342319D02*
X300989881Y-107342319D01*
X300989881Y-107342319D02*
X300894643Y-107389938D01*
X300894643Y-107389938D02*
X300847024Y-107437557D01*
X300847024Y-107437557D02*
X300751786Y-107580414D01*
X300751786Y-107580414D02*
X300704167Y-107770890D01*
X300704167Y-107770890D02*
X300704167Y-108151842D01*
X300704167Y-108151842D02*
X300751786Y-108247080D01*
X300751786Y-108247080D02*
X300799405Y-108294700D01*
X300799405Y-108294700D02*
X300894643Y-108342319D01*
X300894643Y-108342319D02*
X301085119Y-108342319D01*
X301085119Y-108342319D02*
X301180357Y-108294700D01*
X301180357Y-108294700D02*
X301227976Y-108247080D01*
X301227976Y-108247080D02*
X301275595Y-108151842D01*
X301275595Y-108151842D02*
X301275595Y-107913747D01*
X301275595Y-107913747D02*
X301227976Y-107818509D01*
X301227976Y-107818509D02*
X301180357Y-107770890D01*
X301180357Y-107770890D02*
X301085119Y-107723271D01*
X301085119Y-107723271D02*
X300894643Y-107723271D01*
X300894643Y-107723271D02*
X300799405Y-107770890D01*
X300799405Y-107770890D02*
X300751786Y-107818509D01*
X300751786Y-107818509D02*
X300704167Y-107913747D01*
X337375595Y-94292319D02*
X337375595Y-93292319D01*
X337375595Y-93768509D02*
X337947023Y-93768509D01*
X337947023Y-94292319D02*
X337947023Y-93292319D01*
X338947023Y-94292319D02*
X338375595Y-94292319D01*
X338661309Y-94292319D02*
X338661309Y-93292319D01*
X338661309Y-93292319D02*
X338566071Y-93435176D01*
X338566071Y-93435176D02*
X338470833Y-93530414D01*
X338470833Y-93530414D02*
X338375595Y-93578033D01*
X341661905Y-108294700D02*
X341804762Y-108342319D01*
X341804762Y-108342319D02*
X342042857Y-108342319D01*
X342042857Y-108342319D02*
X342138095Y-108294700D01*
X342138095Y-108294700D02*
X342185714Y-108247080D01*
X342185714Y-108247080D02*
X342233333Y-108151842D01*
X342233333Y-108151842D02*
X342233333Y-108056604D01*
X342233333Y-108056604D02*
X342185714Y-107961366D01*
X342185714Y-107961366D02*
X342138095Y-107913747D01*
X342138095Y-107913747D02*
X342042857Y-107866128D01*
X342042857Y-107866128D02*
X341852381Y-107818509D01*
X341852381Y-107818509D02*
X341757143Y-107770890D01*
X341757143Y-107770890D02*
X341709524Y-107723271D01*
X341709524Y-107723271D02*
X341661905Y-107628033D01*
X341661905Y-107628033D02*
X341661905Y-107532795D01*
X341661905Y-107532795D02*
X341709524Y-107437557D01*
X341709524Y-107437557D02*
X341757143Y-107389938D01*
X341757143Y-107389938D02*
X341852381Y-107342319D01*
X341852381Y-107342319D02*
X342090476Y-107342319D01*
X342090476Y-107342319D02*
X342233333Y-107389938D01*
X342614286Y-107437557D02*
X342661905Y-107389938D01*
X342661905Y-107389938D02*
X342757143Y-107342319D01*
X342757143Y-107342319D02*
X342995238Y-107342319D01*
X342995238Y-107342319D02*
X343090476Y-107389938D01*
X343090476Y-107389938D02*
X343138095Y-107437557D01*
X343138095Y-107437557D02*
X343185714Y-107532795D01*
X343185714Y-107532795D02*
X343185714Y-107628033D01*
X343185714Y-107628033D02*
X343138095Y-107770890D01*
X343138095Y-107770890D02*
X342566667Y-108342319D01*
X342566667Y-108342319D02*
X343185714Y-108342319D01*
X343757143Y-107770890D02*
X343661905Y-107723271D01*
X343661905Y-107723271D02*
X343614286Y-107675652D01*
X343614286Y-107675652D02*
X343566667Y-107580414D01*
X343566667Y-107580414D02*
X343566667Y-107532795D01*
X343566667Y-107532795D02*
X343614286Y-107437557D01*
X343614286Y-107437557D02*
X343661905Y-107389938D01*
X343661905Y-107389938D02*
X343757143Y-107342319D01*
X343757143Y-107342319D02*
X343947619Y-107342319D01*
X343947619Y-107342319D02*
X344042857Y-107389938D01*
X344042857Y-107389938D02*
X344090476Y-107437557D01*
X344090476Y-107437557D02*
X344138095Y-107532795D01*
X344138095Y-107532795D02*
X344138095Y-107580414D01*
X344138095Y-107580414D02*
X344090476Y-107675652D01*
X344090476Y-107675652D02*
X344042857Y-107723271D01*
X344042857Y-107723271D02*
X343947619Y-107770890D01*
X343947619Y-107770890D02*
X343757143Y-107770890D01*
X343757143Y-107770890D02*
X343661905Y-107818509D01*
X343661905Y-107818509D02*
X343614286Y-107866128D01*
X343614286Y-107866128D02*
X343566667Y-107961366D01*
X343566667Y-107961366D02*
X343566667Y-108151842D01*
X343566667Y-108151842D02*
X343614286Y-108247080D01*
X343614286Y-108247080D02*
X343661905Y-108294700D01*
X343661905Y-108294700D02*
X343757143Y-108342319D01*
X343757143Y-108342319D02*
X343947619Y-108342319D01*
X343947619Y-108342319D02*
X344042857Y-108294700D01*
X344042857Y-108294700D02*
X344090476Y-108247080D01*
X344090476Y-108247080D02*
X344138095Y-108151842D01*
X344138095Y-108151842D02*
X344138095Y-107961366D01*
X344138095Y-107961366D02*
X344090476Y-107866128D01*
X344090476Y-107866128D02*
X344042857Y-107818509D01*
X344042857Y-107818509D02*
X343947619Y-107770890D01*
X84486905Y-108294700D02*
X84629762Y-108342319D01*
X84629762Y-108342319D02*
X84867857Y-108342319D01*
X84867857Y-108342319D02*
X84963095Y-108294700D01*
X84963095Y-108294700D02*
X85010714Y-108247080D01*
X85010714Y-108247080D02*
X85058333Y-108151842D01*
X85058333Y-108151842D02*
X85058333Y-108056604D01*
X85058333Y-108056604D02*
X85010714Y-107961366D01*
X85010714Y-107961366D02*
X84963095Y-107913747D01*
X84963095Y-107913747D02*
X84867857Y-107866128D01*
X84867857Y-107866128D02*
X84677381Y-107818509D01*
X84677381Y-107818509D02*
X84582143Y-107770890D01*
X84582143Y-107770890D02*
X84534524Y-107723271D01*
X84534524Y-107723271D02*
X84486905Y-107628033D01*
X84486905Y-107628033D02*
X84486905Y-107532795D01*
X84486905Y-107532795D02*
X84534524Y-107437557D01*
X84534524Y-107437557D02*
X84582143Y-107389938D01*
X84582143Y-107389938D02*
X84677381Y-107342319D01*
X84677381Y-107342319D02*
X84915476Y-107342319D01*
X84915476Y-107342319D02*
X85058333Y-107389938D01*
X86010714Y-108342319D02*
X85439286Y-108342319D01*
X85725000Y-108342319D02*
X85725000Y-107342319D01*
X85725000Y-107342319D02*
X85629762Y-107485176D01*
X85629762Y-107485176D02*
X85534524Y-107580414D01*
X85534524Y-107580414D02*
X85439286Y-107628033D01*
X86915476Y-107342319D02*
X86439286Y-107342319D01*
X86439286Y-107342319D02*
X86391667Y-107818509D01*
X86391667Y-107818509D02*
X86439286Y-107770890D01*
X86439286Y-107770890D02*
X86534524Y-107723271D01*
X86534524Y-107723271D02*
X86772619Y-107723271D01*
X86772619Y-107723271D02*
X86867857Y-107770890D01*
X86867857Y-107770890D02*
X86915476Y-107818509D01*
X86915476Y-107818509D02*
X86963095Y-107913747D01*
X86963095Y-107913747D02*
X86963095Y-108151842D01*
X86963095Y-108151842D02*
X86915476Y-108247080D01*
X86915476Y-108247080D02*
X86867857Y-108294700D01*
X86867857Y-108294700D02*
X86772619Y-108342319D01*
X86772619Y-108342319D02*
X86534524Y-108342319D01*
X86534524Y-108342319D02*
X86439286Y-108294700D01*
X86439286Y-108294700D02*
X86391667Y-108247080D01*
X203549405Y-108294700D02*
X203692262Y-108342319D01*
X203692262Y-108342319D02*
X203930357Y-108342319D01*
X203930357Y-108342319D02*
X204025595Y-108294700D01*
X204025595Y-108294700D02*
X204073214Y-108247080D01*
X204073214Y-108247080D02*
X204120833Y-108151842D01*
X204120833Y-108151842D02*
X204120833Y-108056604D01*
X204120833Y-108056604D02*
X204073214Y-107961366D01*
X204073214Y-107961366D02*
X204025595Y-107913747D01*
X204025595Y-107913747D02*
X203930357Y-107866128D01*
X203930357Y-107866128D02*
X203739881Y-107818509D01*
X203739881Y-107818509D02*
X203644643Y-107770890D01*
X203644643Y-107770890D02*
X203597024Y-107723271D01*
X203597024Y-107723271D02*
X203549405Y-107628033D01*
X203549405Y-107628033D02*
X203549405Y-107532795D01*
X203549405Y-107532795D02*
X203597024Y-107437557D01*
X203597024Y-107437557D02*
X203644643Y-107389938D01*
X203644643Y-107389938D02*
X203739881Y-107342319D01*
X203739881Y-107342319D02*
X203977976Y-107342319D01*
X203977976Y-107342319D02*
X204120833Y-107389938D01*
X204501786Y-107437557D02*
X204549405Y-107389938D01*
X204549405Y-107389938D02*
X204644643Y-107342319D01*
X204644643Y-107342319D02*
X204882738Y-107342319D01*
X204882738Y-107342319D02*
X204977976Y-107389938D01*
X204977976Y-107389938D02*
X205025595Y-107437557D01*
X205025595Y-107437557D02*
X205073214Y-107532795D01*
X205073214Y-107532795D02*
X205073214Y-107628033D01*
X205073214Y-107628033D02*
X205025595Y-107770890D01*
X205025595Y-107770890D02*
X204454167Y-108342319D01*
X204454167Y-108342319D02*
X205073214Y-108342319D01*
X206025595Y-108342319D02*
X205454167Y-108342319D01*
X205739881Y-108342319D02*
X205739881Y-107342319D01*
X205739881Y-107342319D02*
X205644643Y-107485176D01*
X205644643Y-107485176D02*
X205549405Y-107580414D01*
X205549405Y-107580414D02*
X205454167Y-107628033D01*
X201168155Y-165444700D02*
X201311012Y-165492319D01*
X201311012Y-165492319D02*
X201549107Y-165492319D01*
X201549107Y-165492319D02*
X201644345Y-165444700D01*
X201644345Y-165444700D02*
X201691964Y-165397080D01*
X201691964Y-165397080D02*
X201739583Y-165301842D01*
X201739583Y-165301842D02*
X201739583Y-165206604D01*
X201739583Y-165206604D02*
X201691964Y-165111366D01*
X201691964Y-165111366D02*
X201644345Y-165063747D01*
X201644345Y-165063747D02*
X201549107Y-165016128D01*
X201549107Y-165016128D02*
X201358631Y-164968509D01*
X201358631Y-164968509D02*
X201263393Y-164920890D01*
X201263393Y-164920890D02*
X201215774Y-164873271D01*
X201215774Y-164873271D02*
X201168155Y-164778033D01*
X201168155Y-164778033D02*
X201168155Y-164682795D01*
X201168155Y-164682795D02*
X201215774Y-164587557D01*
X201215774Y-164587557D02*
X201263393Y-164539938D01*
X201263393Y-164539938D02*
X201358631Y-164492319D01*
X201358631Y-164492319D02*
X201596726Y-164492319D01*
X201596726Y-164492319D02*
X201739583Y-164539938D01*
X202644345Y-164492319D02*
X202168155Y-164492319D01*
X202168155Y-164492319D02*
X202120536Y-164968509D01*
X202120536Y-164968509D02*
X202168155Y-164920890D01*
X202168155Y-164920890D02*
X202263393Y-164873271D01*
X202263393Y-164873271D02*
X202501488Y-164873271D01*
X202501488Y-164873271D02*
X202596726Y-164920890D01*
X202596726Y-164920890D02*
X202644345Y-164968509D01*
X202644345Y-164968509D02*
X202691964Y-165063747D01*
X202691964Y-165063747D02*
X202691964Y-165301842D01*
X202691964Y-165301842D02*
X202644345Y-165397080D01*
X202644345Y-165397080D02*
X202596726Y-165444700D01*
X202596726Y-165444700D02*
X202501488Y-165492319D01*
X202501488Y-165492319D02*
X202263393Y-165492319D01*
X202263393Y-165492319D02*
X202168155Y-165444700D01*
X202168155Y-165444700D02*
X202120536Y-165397080D01*
X203025298Y-164492319D02*
X203691964Y-164492319D01*
X203691964Y-164492319D02*
X203263393Y-165492319D01*
X344043155Y-165444700D02*
X344186012Y-165492319D01*
X344186012Y-165492319D02*
X344424107Y-165492319D01*
X344424107Y-165492319D02*
X344519345Y-165444700D01*
X344519345Y-165444700D02*
X344566964Y-165397080D01*
X344566964Y-165397080D02*
X344614583Y-165301842D01*
X344614583Y-165301842D02*
X344614583Y-165206604D01*
X344614583Y-165206604D02*
X344566964Y-165111366D01*
X344566964Y-165111366D02*
X344519345Y-165063747D01*
X344519345Y-165063747D02*
X344424107Y-165016128D01*
X344424107Y-165016128D02*
X344233631Y-164968509D01*
X344233631Y-164968509D02*
X344138393Y-164920890D01*
X344138393Y-164920890D02*
X344090774Y-164873271D01*
X344090774Y-164873271D02*
X344043155Y-164778033D01*
X344043155Y-164778033D02*
X344043155Y-164682795D01*
X344043155Y-164682795D02*
X344090774Y-164587557D01*
X344090774Y-164587557D02*
X344138393Y-164539938D01*
X344138393Y-164539938D02*
X344233631Y-164492319D01*
X344233631Y-164492319D02*
X344471726Y-164492319D01*
X344471726Y-164492319D02*
X344614583Y-164539938D01*
X345471726Y-164492319D02*
X345281250Y-164492319D01*
X345281250Y-164492319D02*
X345186012Y-164539938D01*
X345186012Y-164539938D02*
X345138393Y-164587557D01*
X345138393Y-164587557D02*
X345043155Y-164730414D01*
X345043155Y-164730414D02*
X344995536Y-164920890D01*
X344995536Y-164920890D02*
X344995536Y-165301842D01*
X344995536Y-165301842D02*
X345043155Y-165397080D01*
X345043155Y-165397080D02*
X345090774Y-165444700D01*
X345090774Y-165444700D02*
X345186012Y-165492319D01*
X345186012Y-165492319D02*
X345376488Y-165492319D01*
X345376488Y-165492319D02*
X345471726Y-165444700D01*
X345471726Y-165444700D02*
X345519345Y-165397080D01*
X345519345Y-165397080D02*
X345566964Y-165301842D01*
X345566964Y-165301842D02*
X345566964Y-165063747D01*
X345566964Y-165063747D02*
X345519345Y-164968509D01*
X345519345Y-164968509D02*
X345471726Y-164920890D01*
X345471726Y-164920890D02*
X345376488Y-164873271D01*
X345376488Y-164873271D02*
X345186012Y-164873271D01*
X345186012Y-164873271D02*
X345090774Y-164920890D01*
X345090774Y-164920890D02*
X345043155Y-164968509D01*
X345043155Y-164968509D02*
X344995536Y-165063747D01*
X346519345Y-165492319D02*
X345947917Y-165492319D01*
X346233631Y-165492319D02*
X346233631Y-164492319D01*
X346233631Y-164492319D02*
X346138393Y-164635176D01*
X346138393Y-164635176D02*
X346043155Y-164730414D01*
X346043155Y-164730414D02*
X345947917Y-164778033D01*
X289274405Y-89244700D02*
X289417262Y-89292319D01*
X289417262Y-89292319D02*
X289655357Y-89292319D01*
X289655357Y-89292319D02*
X289750595Y-89244700D01*
X289750595Y-89244700D02*
X289798214Y-89197080D01*
X289798214Y-89197080D02*
X289845833Y-89101842D01*
X289845833Y-89101842D02*
X289845833Y-89006604D01*
X289845833Y-89006604D02*
X289798214Y-88911366D01*
X289798214Y-88911366D02*
X289750595Y-88863747D01*
X289750595Y-88863747D02*
X289655357Y-88816128D01*
X289655357Y-88816128D02*
X289464881Y-88768509D01*
X289464881Y-88768509D02*
X289369643Y-88720890D01*
X289369643Y-88720890D02*
X289322024Y-88673271D01*
X289322024Y-88673271D02*
X289274405Y-88578033D01*
X289274405Y-88578033D02*
X289274405Y-88482795D01*
X289274405Y-88482795D02*
X289322024Y-88387557D01*
X289322024Y-88387557D02*
X289369643Y-88339938D01*
X289369643Y-88339938D02*
X289464881Y-88292319D01*
X289464881Y-88292319D02*
X289702976Y-88292319D01*
X289702976Y-88292319D02*
X289845833Y-88339938D01*
X290798214Y-89292319D02*
X290226786Y-89292319D01*
X290512500Y-89292319D02*
X290512500Y-88292319D01*
X290512500Y-88292319D02*
X290417262Y-88435176D01*
X290417262Y-88435176D02*
X290322024Y-88530414D01*
X290322024Y-88530414D02*
X290226786Y-88578033D01*
X291179167Y-88387557D02*
X291226786Y-88339938D01*
X291226786Y-88339938D02*
X291322024Y-88292319D01*
X291322024Y-88292319D02*
X291560119Y-88292319D01*
X291560119Y-88292319D02*
X291655357Y-88339938D01*
X291655357Y-88339938D02*
X291702976Y-88387557D01*
X291702976Y-88387557D02*
X291750595Y-88482795D01*
X291750595Y-88482795D02*
X291750595Y-88578033D01*
X291750595Y-88578033D02*
X291702976Y-88720890D01*
X291702976Y-88720890D02*
X291131548Y-89292319D01*
X291131548Y-89292319D02*
X291750595Y-89292319D01*
X175450595Y-89244700D02*
X175593452Y-89292319D01*
X175593452Y-89292319D02*
X175831547Y-89292319D01*
X175831547Y-89292319D02*
X175926785Y-89244700D01*
X175926785Y-89244700D02*
X175974404Y-89197080D01*
X175974404Y-89197080D02*
X176022023Y-89101842D01*
X176022023Y-89101842D02*
X176022023Y-89006604D01*
X176022023Y-89006604D02*
X175974404Y-88911366D01*
X175974404Y-88911366D02*
X175926785Y-88863747D01*
X175926785Y-88863747D02*
X175831547Y-88816128D01*
X175831547Y-88816128D02*
X175641071Y-88768509D01*
X175641071Y-88768509D02*
X175545833Y-88720890D01*
X175545833Y-88720890D02*
X175498214Y-88673271D01*
X175498214Y-88673271D02*
X175450595Y-88578033D01*
X175450595Y-88578033D02*
X175450595Y-88482795D01*
X175450595Y-88482795D02*
X175498214Y-88387557D01*
X175498214Y-88387557D02*
X175545833Y-88339938D01*
X175545833Y-88339938D02*
X175641071Y-88292319D01*
X175641071Y-88292319D02*
X175879166Y-88292319D01*
X175879166Y-88292319D02*
X176022023Y-88339938D01*
X176879166Y-88292319D02*
X176688690Y-88292319D01*
X176688690Y-88292319D02*
X176593452Y-88339938D01*
X176593452Y-88339938D02*
X176545833Y-88387557D01*
X176545833Y-88387557D02*
X176450595Y-88530414D01*
X176450595Y-88530414D02*
X176402976Y-88720890D01*
X176402976Y-88720890D02*
X176402976Y-89101842D01*
X176402976Y-89101842D02*
X176450595Y-89197080D01*
X176450595Y-89197080D02*
X176498214Y-89244700D01*
X176498214Y-89244700D02*
X176593452Y-89292319D01*
X176593452Y-89292319D02*
X176783928Y-89292319D01*
X176783928Y-89292319D02*
X176879166Y-89244700D01*
X176879166Y-89244700D02*
X176926785Y-89197080D01*
X176926785Y-89197080D02*
X176974404Y-89101842D01*
X176974404Y-89101842D02*
X176974404Y-88863747D01*
X176974404Y-88863747D02*
X176926785Y-88768509D01*
X176926785Y-88768509D02*
X176879166Y-88720890D01*
X176879166Y-88720890D02*
X176783928Y-88673271D01*
X176783928Y-88673271D02*
X176593452Y-88673271D01*
X176593452Y-88673271D02*
X176498214Y-88720890D01*
X176498214Y-88720890D02*
X176450595Y-88768509D01*
X176450595Y-88768509D02*
X176402976Y-88863747D01*
X246411905Y-127344700D02*
X246554762Y-127392319D01*
X246554762Y-127392319D02*
X246792857Y-127392319D01*
X246792857Y-127392319D02*
X246888095Y-127344700D01*
X246888095Y-127344700D02*
X246935714Y-127297080D01*
X246935714Y-127297080D02*
X246983333Y-127201842D01*
X246983333Y-127201842D02*
X246983333Y-127106604D01*
X246983333Y-127106604D02*
X246935714Y-127011366D01*
X246935714Y-127011366D02*
X246888095Y-126963747D01*
X246888095Y-126963747D02*
X246792857Y-126916128D01*
X246792857Y-126916128D02*
X246602381Y-126868509D01*
X246602381Y-126868509D02*
X246507143Y-126820890D01*
X246507143Y-126820890D02*
X246459524Y-126773271D01*
X246459524Y-126773271D02*
X246411905Y-126678033D01*
X246411905Y-126678033D02*
X246411905Y-126582795D01*
X246411905Y-126582795D02*
X246459524Y-126487557D01*
X246459524Y-126487557D02*
X246507143Y-126439938D01*
X246507143Y-126439938D02*
X246602381Y-126392319D01*
X246602381Y-126392319D02*
X246840476Y-126392319D01*
X246840476Y-126392319D02*
X246983333Y-126439938D01*
X247316667Y-126392319D02*
X247935714Y-126392319D01*
X247935714Y-126392319D02*
X247602381Y-126773271D01*
X247602381Y-126773271D02*
X247745238Y-126773271D01*
X247745238Y-126773271D02*
X247840476Y-126820890D01*
X247840476Y-126820890D02*
X247888095Y-126868509D01*
X247888095Y-126868509D02*
X247935714Y-126963747D01*
X247935714Y-126963747D02*
X247935714Y-127201842D01*
X247935714Y-127201842D02*
X247888095Y-127297080D01*
X247888095Y-127297080D02*
X247840476Y-127344700D01*
X247840476Y-127344700D02*
X247745238Y-127392319D01*
X247745238Y-127392319D02*
X247459524Y-127392319D01*
X247459524Y-127392319D02*
X247364286Y-127344700D01*
X247364286Y-127344700D02*
X247316667Y-127297080D01*
X248269048Y-126392319D02*
X248935714Y-126392319D01*
X248935714Y-126392319D02*
X248507143Y-127392319D01*
X239268155Y-165444700D02*
X239411012Y-165492319D01*
X239411012Y-165492319D02*
X239649107Y-165492319D01*
X239649107Y-165492319D02*
X239744345Y-165444700D01*
X239744345Y-165444700D02*
X239791964Y-165397080D01*
X239791964Y-165397080D02*
X239839583Y-165301842D01*
X239839583Y-165301842D02*
X239839583Y-165206604D01*
X239839583Y-165206604D02*
X239791964Y-165111366D01*
X239791964Y-165111366D02*
X239744345Y-165063747D01*
X239744345Y-165063747D02*
X239649107Y-165016128D01*
X239649107Y-165016128D02*
X239458631Y-164968509D01*
X239458631Y-164968509D02*
X239363393Y-164920890D01*
X239363393Y-164920890D02*
X239315774Y-164873271D01*
X239315774Y-164873271D02*
X239268155Y-164778033D01*
X239268155Y-164778033D02*
X239268155Y-164682795D01*
X239268155Y-164682795D02*
X239315774Y-164587557D01*
X239315774Y-164587557D02*
X239363393Y-164539938D01*
X239363393Y-164539938D02*
X239458631Y-164492319D01*
X239458631Y-164492319D02*
X239696726Y-164492319D01*
X239696726Y-164492319D02*
X239839583Y-164539938D01*
X240696726Y-164492319D02*
X240506250Y-164492319D01*
X240506250Y-164492319D02*
X240411012Y-164539938D01*
X240411012Y-164539938D02*
X240363393Y-164587557D01*
X240363393Y-164587557D02*
X240268155Y-164730414D01*
X240268155Y-164730414D02*
X240220536Y-164920890D01*
X240220536Y-164920890D02*
X240220536Y-165301842D01*
X240220536Y-165301842D02*
X240268155Y-165397080D01*
X240268155Y-165397080D02*
X240315774Y-165444700D01*
X240315774Y-165444700D02*
X240411012Y-165492319D01*
X240411012Y-165492319D02*
X240601488Y-165492319D01*
X240601488Y-165492319D02*
X240696726Y-165444700D01*
X240696726Y-165444700D02*
X240744345Y-165397080D01*
X240744345Y-165397080D02*
X240791964Y-165301842D01*
X240791964Y-165301842D02*
X240791964Y-165063747D01*
X240791964Y-165063747D02*
X240744345Y-164968509D01*
X240744345Y-164968509D02*
X240696726Y-164920890D01*
X240696726Y-164920890D02*
X240601488Y-164873271D01*
X240601488Y-164873271D02*
X240411012Y-164873271D01*
X240411012Y-164873271D02*
X240315774Y-164920890D01*
X240315774Y-164920890D02*
X240268155Y-164968509D01*
X240268155Y-164968509D02*
X240220536Y-165063747D01*
X241125298Y-164492319D02*
X241744345Y-164492319D01*
X241744345Y-164492319D02*
X241411012Y-164873271D01*
X241411012Y-164873271D02*
X241553869Y-164873271D01*
X241553869Y-164873271D02*
X241649107Y-164920890D01*
X241649107Y-164920890D02*
X241696726Y-164968509D01*
X241696726Y-164968509D02*
X241744345Y-165063747D01*
X241744345Y-165063747D02*
X241744345Y-165301842D01*
X241744345Y-165301842D02*
X241696726Y-165397080D01*
X241696726Y-165397080D02*
X241649107Y-165444700D01*
X241649107Y-165444700D02*
X241553869Y-165492319D01*
X241553869Y-165492319D02*
X241268155Y-165492319D01*
X241268155Y-165492319D02*
X241172917Y-165444700D01*
X241172917Y-165444700D02*
X241125298Y-165397080D01*
X92106845Y-151442319D02*
X92106845Y-150442319D01*
X92106845Y-150918509D02*
X92678273Y-150918509D01*
X92678273Y-151442319D02*
X92678273Y-150442319D01*
X93106845Y-150537557D02*
X93154464Y-150489938D01*
X93154464Y-150489938D02*
X93249702Y-150442319D01*
X93249702Y-150442319D02*
X93487797Y-150442319D01*
X93487797Y-150442319D02*
X93583035Y-150489938D01*
X93583035Y-150489938D02*
X93630654Y-150537557D01*
X93630654Y-150537557D02*
X93678273Y-150632795D01*
X93678273Y-150632795D02*
X93678273Y-150728033D01*
X93678273Y-150728033D02*
X93630654Y-150870890D01*
X93630654Y-150870890D02*
X93059226Y-151442319D01*
X93059226Y-151442319D02*
X93678273Y-151442319D01*
X222599405Y-108294700D02*
X222742262Y-108342319D01*
X222742262Y-108342319D02*
X222980357Y-108342319D01*
X222980357Y-108342319D02*
X223075595Y-108294700D01*
X223075595Y-108294700D02*
X223123214Y-108247080D01*
X223123214Y-108247080D02*
X223170833Y-108151842D01*
X223170833Y-108151842D02*
X223170833Y-108056604D01*
X223170833Y-108056604D02*
X223123214Y-107961366D01*
X223123214Y-107961366D02*
X223075595Y-107913747D01*
X223075595Y-107913747D02*
X222980357Y-107866128D01*
X222980357Y-107866128D02*
X222789881Y-107818509D01*
X222789881Y-107818509D02*
X222694643Y-107770890D01*
X222694643Y-107770890D02*
X222647024Y-107723271D01*
X222647024Y-107723271D02*
X222599405Y-107628033D01*
X222599405Y-107628033D02*
X222599405Y-107532795D01*
X222599405Y-107532795D02*
X222647024Y-107437557D01*
X222647024Y-107437557D02*
X222694643Y-107389938D01*
X222694643Y-107389938D02*
X222789881Y-107342319D01*
X222789881Y-107342319D02*
X223027976Y-107342319D01*
X223027976Y-107342319D02*
X223170833Y-107389938D01*
X223551786Y-107437557D02*
X223599405Y-107389938D01*
X223599405Y-107389938D02*
X223694643Y-107342319D01*
X223694643Y-107342319D02*
X223932738Y-107342319D01*
X223932738Y-107342319D02*
X224027976Y-107389938D01*
X224027976Y-107389938D02*
X224075595Y-107437557D01*
X224075595Y-107437557D02*
X224123214Y-107532795D01*
X224123214Y-107532795D02*
X224123214Y-107628033D01*
X224123214Y-107628033D02*
X224075595Y-107770890D01*
X224075595Y-107770890D02*
X223504167Y-108342319D01*
X223504167Y-108342319D02*
X224123214Y-108342319D01*
X224504167Y-107437557D02*
X224551786Y-107389938D01*
X224551786Y-107389938D02*
X224647024Y-107342319D01*
X224647024Y-107342319D02*
X224885119Y-107342319D01*
X224885119Y-107342319D02*
X224980357Y-107389938D01*
X224980357Y-107389938D02*
X225027976Y-107437557D01*
X225027976Y-107437557D02*
X225075595Y-107532795D01*
X225075595Y-107532795D02*
X225075595Y-107628033D01*
X225075595Y-107628033D02*
X225027976Y-107770890D01*
X225027976Y-107770890D02*
X224456548Y-108342319D01*
X224456548Y-108342319D02*
X225075595Y-108342319D01*
X191166964Y-165444700D02*
X191309821Y-165492319D01*
X191309821Y-165492319D02*
X191547916Y-165492319D01*
X191547916Y-165492319D02*
X191643154Y-165444700D01*
X191643154Y-165444700D02*
X191690773Y-165397080D01*
X191690773Y-165397080D02*
X191738392Y-165301842D01*
X191738392Y-165301842D02*
X191738392Y-165206604D01*
X191738392Y-165206604D02*
X191690773Y-165111366D01*
X191690773Y-165111366D02*
X191643154Y-165063747D01*
X191643154Y-165063747D02*
X191547916Y-165016128D01*
X191547916Y-165016128D02*
X191357440Y-164968509D01*
X191357440Y-164968509D02*
X191262202Y-164920890D01*
X191262202Y-164920890D02*
X191214583Y-164873271D01*
X191214583Y-164873271D02*
X191166964Y-164778033D01*
X191166964Y-164778033D02*
X191166964Y-164682795D01*
X191166964Y-164682795D02*
X191214583Y-164587557D01*
X191214583Y-164587557D02*
X191262202Y-164539938D01*
X191262202Y-164539938D02*
X191357440Y-164492319D01*
X191357440Y-164492319D02*
X191595535Y-164492319D01*
X191595535Y-164492319D02*
X191738392Y-164539938D01*
X192643154Y-164492319D02*
X192166964Y-164492319D01*
X192166964Y-164492319D02*
X192119345Y-164968509D01*
X192119345Y-164968509D02*
X192166964Y-164920890D01*
X192166964Y-164920890D02*
X192262202Y-164873271D01*
X192262202Y-164873271D02*
X192500297Y-164873271D01*
X192500297Y-164873271D02*
X192595535Y-164920890D01*
X192595535Y-164920890D02*
X192643154Y-164968509D01*
X192643154Y-164968509D02*
X192690773Y-165063747D01*
X192690773Y-165063747D02*
X192690773Y-165301842D01*
X192690773Y-165301842D02*
X192643154Y-165397080D01*
X192643154Y-165397080D02*
X192595535Y-165444700D01*
X192595535Y-165444700D02*
X192500297Y-165492319D01*
X192500297Y-165492319D02*
X192262202Y-165492319D01*
X192262202Y-165492319D02*
X192166964Y-165444700D01*
X192166964Y-165444700D02*
X192119345Y-165397080D01*
X193024107Y-164492319D02*
X193690773Y-164492319D01*
X193690773Y-164492319D02*
X193262202Y-165492319D01*
X194595535Y-165492319D02*
X194024107Y-165492319D01*
X194309821Y-165492319D02*
X194309821Y-164492319D01*
X194309821Y-164492319D02*
X194214583Y-164635176D01*
X194214583Y-164635176D02*
X194119345Y-164730414D01*
X194119345Y-164730414D02*
X194024107Y-164778033D01*
X227361905Y-127344700D02*
X227504762Y-127392319D01*
X227504762Y-127392319D02*
X227742857Y-127392319D01*
X227742857Y-127392319D02*
X227838095Y-127344700D01*
X227838095Y-127344700D02*
X227885714Y-127297080D01*
X227885714Y-127297080D02*
X227933333Y-127201842D01*
X227933333Y-127201842D02*
X227933333Y-127106604D01*
X227933333Y-127106604D02*
X227885714Y-127011366D01*
X227885714Y-127011366D02*
X227838095Y-126963747D01*
X227838095Y-126963747D02*
X227742857Y-126916128D01*
X227742857Y-126916128D02*
X227552381Y-126868509D01*
X227552381Y-126868509D02*
X227457143Y-126820890D01*
X227457143Y-126820890D02*
X227409524Y-126773271D01*
X227409524Y-126773271D02*
X227361905Y-126678033D01*
X227361905Y-126678033D02*
X227361905Y-126582795D01*
X227361905Y-126582795D02*
X227409524Y-126487557D01*
X227409524Y-126487557D02*
X227457143Y-126439938D01*
X227457143Y-126439938D02*
X227552381Y-126392319D01*
X227552381Y-126392319D02*
X227790476Y-126392319D01*
X227790476Y-126392319D02*
X227933333Y-126439938D01*
X228266667Y-126392319D02*
X228885714Y-126392319D01*
X228885714Y-126392319D02*
X228552381Y-126773271D01*
X228552381Y-126773271D02*
X228695238Y-126773271D01*
X228695238Y-126773271D02*
X228790476Y-126820890D01*
X228790476Y-126820890D02*
X228838095Y-126868509D01*
X228838095Y-126868509D02*
X228885714Y-126963747D01*
X228885714Y-126963747D02*
X228885714Y-127201842D01*
X228885714Y-127201842D02*
X228838095Y-127297080D01*
X228838095Y-127297080D02*
X228790476Y-127344700D01*
X228790476Y-127344700D02*
X228695238Y-127392319D01*
X228695238Y-127392319D02*
X228409524Y-127392319D01*
X228409524Y-127392319D02*
X228314286Y-127344700D01*
X228314286Y-127344700D02*
X228266667Y-127297080D01*
X229742857Y-126392319D02*
X229552381Y-126392319D01*
X229552381Y-126392319D02*
X229457143Y-126439938D01*
X229457143Y-126439938D02*
X229409524Y-126487557D01*
X229409524Y-126487557D02*
X229314286Y-126630414D01*
X229314286Y-126630414D02*
X229266667Y-126820890D01*
X229266667Y-126820890D02*
X229266667Y-127201842D01*
X229266667Y-127201842D02*
X229314286Y-127297080D01*
X229314286Y-127297080D02*
X229361905Y-127344700D01*
X229361905Y-127344700D02*
X229457143Y-127392319D01*
X229457143Y-127392319D02*
X229647619Y-127392319D01*
X229647619Y-127392319D02*
X229742857Y-127344700D01*
X229742857Y-127344700D02*
X229790476Y-127297080D01*
X229790476Y-127297080D02*
X229838095Y-127201842D01*
X229838095Y-127201842D02*
X229838095Y-126963747D01*
X229838095Y-126963747D02*
X229790476Y-126868509D01*
X229790476Y-126868509D02*
X229742857Y-126820890D01*
X229742857Y-126820890D02*
X229647619Y-126773271D01*
X229647619Y-126773271D02*
X229457143Y-126773271D01*
X229457143Y-126773271D02*
X229361905Y-126820890D01*
X229361905Y-126820890D02*
X229314286Y-126868509D01*
X229314286Y-126868509D02*
X229266667Y-126963747D01*
X82105655Y-165444700D02*
X82248512Y-165492319D01*
X82248512Y-165492319D02*
X82486607Y-165492319D01*
X82486607Y-165492319D02*
X82581845Y-165444700D01*
X82581845Y-165444700D02*
X82629464Y-165397080D01*
X82629464Y-165397080D02*
X82677083Y-165301842D01*
X82677083Y-165301842D02*
X82677083Y-165206604D01*
X82677083Y-165206604D02*
X82629464Y-165111366D01*
X82629464Y-165111366D02*
X82581845Y-165063747D01*
X82581845Y-165063747D02*
X82486607Y-165016128D01*
X82486607Y-165016128D02*
X82296131Y-164968509D01*
X82296131Y-164968509D02*
X82200893Y-164920890D01*
X82200893Y-164920890D02*
X82153274Y-164873271D01*
X82153274Y-164873271D02*
X82105655Y-164778033D01*
X82105655Y-164778033D02*
X82105655Y-164682795D01*
X82105655Y-164682795D02*
X82153274Y-164587557D01*
X82153274Y-164587557D02*
X82200893Y-164539938D01*
X82200893Y-164539938D02*
X82296131Y-164492319D01*
X82296131Y-164492319D02*
X82534226Y-164492319D01*
X82534226Y-164492319D02*
X82677083Y-164539938D01*
X83581845Y-164492319D02*
X83105655Y-164492319D01*
X83105655Y-164492319D02*
X83058036Y-164968509D01*
X83058036Y-164968509D02*
X83105655Y-164920890D01*
X83105655Y-164920890D02*
X83200893Y-164873271D01*
X83200893Y-164873271D02*
X83438988Y-164873271D01*
X83438988Y-164873271D02*
X83534226Y-164920890D01*
X83534226Y-164920890D02*
X83581845Y-164968509D01*
X83581845Y-164968509D02*
X83629464Y-165063747D01*
X83629464Y-165063747D02*
X83629464Y-165301842D01*
X83629464Y-165301842D02*
X83581845Y-165397080D01*
X83581845Y-165397080D02*
X83534226Y-165444700D01*
X83534226Y-165444700D02*
X83438988Y-165492319D01*
X83438988Y-165492319D02*
X83200893Y-165492319D01*
X83200893Y-165492319D02*
X83105655Y-165444700D01*
X83105655Y-165444700D02*
X83058036Y-165397080D01*
X84486607Y-164825652D02*
X84486607Y-165492319D01*
X84248512Y-164444700D02*
X84010417Y-165158985D01*
X84010417Y-165158985D02*
X84629464Y-165158985D01*
X294036905Y-146394700D02*
X294179762Y-146442319D01*
X294179762Y-146442319D02*
X294417857Y-146442319D01*
X294417857Y-146442319D02*
X294513095Y-146394700D01*
X294513095Y-146394700D02*
X294560714Y-146347080D01*
X294560714Y-146347080D02*
X294608333Y-146251842D01*
X294608333Y-146251842D02*
X294608333Y-146156604D01*
X294608333Y-146156604D02*
X294560714Y-146061366D01*
X294560714Y-146061366D02*
X294513095Y-146013747D01*
X294513095Y-146013747D02*
X294417857Y-145966128D01*
X294417857Y-145966128D02*
X294227381Y-145918509D01*
X294227381Y-145918509D02*
X294132143Y-145870890D01*
X294132143Y-145870890D02*
X294084524Y-145823271D01*
X294084524Y-145823271D02*
X294036905Y-145728033D01*
X294036905Y-145728033D02*
X294036905Y-145632795D01*
X294036905Y-145632795D02*
X294084524Y-145537557D01*
X294084524Y-145537557D02*
X294132143Y-145489938D01*
X294132143Y-145489938D02*
X294227381Y-145442319D01*
X294227381Y-145442319D02*
X294465476Y-145442319D01*
X294465476Y-145442319D02*
X294608333Y-145489938D01*
X295513095Y-145442319D02*
X295036905Y-145442319D01*
X295036905Y-145442319D02*
X294989286Y-145918509D01*
X294989286Y-145918509D02*
X295036905Y-145870890D01*
X295036905Y-145870890D02*
X295132143Y-145823271D01*
X295132143Y-145823271D02*
X295370238Y-145823271D01*
X295370238Y-145823271D02*
X295465476Y-145870890D01*
X295465476Y-145870890D02*
X295513095Y-145918509D01*
X295513095Y-145918509D02*
X295560714Y-146013747D01*
X295560714Y-146013747D02*
X295560714Y-146251842D01*
X295560714Y-146251842D02*
X295513095Y-146347080D01*
X295513095Y-146347080D02*
X295465476Y-146394700D01*
X295465476Y-146394700D02*
X295370238Y-146442319D01*
X295370238Y-146442319D02*
X295132143Y-146442319D01*
X295132143Y-146442319D02*
X295036905Y-146394700D01*
X295036905Y-146394700D02*
X294989286Y-146347080D01*
X295941667Y-145537557D02*
X295989286Y-145489938D01*
X295989286Y-145489938D02*
X296084524Y-145442319D01*
X296084524Y-145442319D02*
X296322619Y-145442319D01*
X296322619Y-145442319D02*
X296417857Y-145489938D01*
X296417857Y-145489938D02*
X296465476Y-145537557D01*
X296465476Y-145537557D02*
X296513095Y-145632795D01*
X296513095Y-145632795D02*
X296513095Y-145728033D01*
X296513095Y-145728033D02*
X296465476Y-145870890D01*
X296465476Y-145870890D02*
X295894048Y-146442319D01*
X295894048Y-146442319D02*
X296513095Y-146442319D01*
X251174405Y-89244700D02*
X251317262Y-89292319D01*
X251317262Y-89292319D02*
X251555357Y-89292319D01*
X251555357Y-89292319D02*
X251650595Y-89244700D01*
X251650595Y-89244700D02*
X251698214Y-89197080D01*
X251698214Y-89197080D02*
X251745833Y-89101842D01*
X251745833Y-89101842D02*
X251745833Y-89006604D01*
X251745833Y-89006604D02*
X251698214Y-88911366D01*
X251698214Y-88911366D02*
X251650595Y-88863747D01*
X251650595Y-88863747D02*
X251555357Y-88816128D01*
X251555357Y-88816128D02*
X251364881Y-88768509D01*
X251364881Y-88768509D02*
X251269643Y-88720890D01*
X251269643Y-88720890D02*
X251222024Y-88673271D01*
X251222024Y-88673271D02*
X251174405Y-88578033D01*
X251174405Y-88578033D02*
X251174405Y-88482795D01*
X251174405Y-88482795D02*
X251222024Y-88387557D01*
X251222024Y-88387557D02*
X251269643Y-88339938D01*
X251269643Y-88339938D02*
X251364881Y-88292319D01*
X251364881Y-88292319D02*
X251602976Y-88292319D01*
X251602976Y-88292319D02*
X251745833Y-88339938D01*
X252698214Y-89292319D02*
X252126786Y-89292319D01*
X252412500Y-89292319D02*
X252412500Y-88292319D01*
X252412500Y-88292319D02*
X252317262Y-88435176D01*
X252317262Y-88435176D02*
X252222024Y-88530414D01*
X252222024Y-88530414D02*
X252126786Y-88578033D01*
X253317262Y-88292319D02*
X253412500Y-88292319D01*
X253412500Y-88292319D02*
X253507738Y-88339938D01*
X253507738Y-88339938D02*
X253555357Y-88387557D01*
X253555357Y-88387557D02*
X253602976Y-88482795D01*
X253602976Y-88482795D02*
X253650595Y-88673271D01*
X253650595Y-88673271D02*
X253650595Y-88911366D01*
X253650595Y-88911366D02*
X253602976Y-89101842D01*
X253602976Y-89101842D02*
X253555357Y-89197080D01*
X253555357Y-89197080D02*
X253507738Y-89244700D01*
X253507738Y-89244700D02*
X253412500Y-89292319D01*
X253412500Y-89292319D02*
X253317262Y-89292319D01*
X253317262Y-89292319D02*
X253222024Y-89244700D01*
X253222024Y-89244700D02*
X253174405Y-89197080D01*
X253174405Y-89197080D02*
X253126786Y-89101842D01*
X253126786Y-89101842D02*
X253079167Y-88911366D01*
X253079167Y-88911366D02*
X253079167Y-88673271D01*
X253079167Y-88673271D02*
X253126786Y-88482795D01*
X253126786Y-88482795D02*
X253174405Y-88387557D01*
X253174405Y-88387557D02*
X253222024Y-88339938D01*
X253222024Y-88339938D02*
X253317262Y-88292319D01*
X284511905Y-127344700D02*
X284654762Y-127392319D01*
X284654762Y-127392319D02*
X284892857Y-127392319D01*
X284892857Y-127392319D02*
X284988095Y-127344700D01*
X284988095Y-127344700D02*
X285035714Y-127297080D01*
X285035714Y-127297080D02*
X285083333Y-127201842D01*
X285083333Y-127201842D02*
X285083333Y-127106604D01*
X285083333Y-127106604D02*
X285035714Y-127011366D01*
X285035714Y-127011366D02*
X284988095Y-126963747D01*
X284988095Y-126963747D02*
X284892857Y-126916128D01*
X284892857Y-126916128D02*
X284702381Y-126868509D01*
X284702381Y-126868509D02*
X284607143Y-126820890D01*
X284607143Y-126820890D02*
X284559524Y-126773271D01*
X284559524Y-126773271D02*
X284511905Y-126678033D01*
X284511905Y-126678033D02*
X284511905Y-126582795D01*
X284511905Y-126582795D02*
X284559524Y-126487557D01*
X284559524Y-126487557D02*
X284607143Y-126439938D01*
X284607143Y-126439938D02*
X284702381Y-126392319D01*
X284702381Y-126392319D02*
X284940476Y-126392319D01*
X284940476Y-126392319D02*
X285083333Y-126439938D01*
X285416667Y-126392319D02*
X286035714Y-126392319D01*
X286035714Y-126392319D02*
X285702381Y-126773271D01*
X285702381Y-126773271D02*
X285845238Y-126773271D01*
X285845238Y-126773271D02*
X285940476Y-126820890D01*
X285940476Y-126820890D02*
X285988095Y-126868509D01*
X285988095Y-126868509D02*
X286035714Y-126963747D01*
X286035714Y-126963747D02*
X286035714Y-127201842D01*
X286035714Y-127201842D02*
X285988095Y-127297080D01*
X285988095Y-127297080D02*
X285940476Y-127344700D01*
X285940476Y-127344700D02*
X285845238Y-127392319D01*
X285845238Y-127392319D02*
X285559524Y-127392319D01*
X285559524Y-127392319D02*
X285464286Y-127344700D01*
X285464286Y-127344700D02*
X285416667Y-127297080D01*
X286511905Y-127392319D02*
X286702381Y-127392319D01*
X286702381Y-127392319D02*
X286797619Y-127344700D01*
X286797619Y-127344700D02*
X286845238Y-127297080D01*
X286845238Y-127297080D02*
X286940476Y-127154223D01*
X286940476Y-127154223D02*
X286988095Y-126963747D01*
X286988095Y-126963747D02*
X286988095Y-126582795D01*
X286988095Y-126582795D02*
X286940476Y-126487557D01*
X286940476Y-126487557D02*
X286892857Y-126439938D01*
X286892857Y-126439938D02*
X286797619Y-126392319D01*
X286797619Y-126392319D02*
X286607143Y-126392319D01*
X286607143Y-126392319D02*
X286511905Y-126439938D01*
X286511905Y-126439938D02*
X286464286Y-126487557D01*
X286464286Y-126487557D02*
X286416667Y-126582795D01*
X286416667Y-126582795D02*
X286416667Y-126820890D01*
X286416667Y-126820890D02*
X286464286Y-126916128D01*
X286464286Y-126916128D02*
X286511905Y-126963747D01*
X286511905Y-126963747D02*
X286607143Y-127011366D01*
X286607143Y-127011366D02*
X286797619Y-127011366D01*
X286797619Y-127011366D02*
X286892857Y-126963747D01*
X286892857Y-126963747D02*
X286940476Y-126916128D01*
X286940476Y-126916128D02*
X286988095Y-126820890D01*
X260699405Y-108294700D02*
X260842262Y-108342319D01*
X260842262Y-108342319D02*
X261080357Y-108342319D01*
X261080357Y-108342319D02*
X261175595Y-108294700D01*
X261175595Y-108294700D02*
X261223214Y-108247080D01*
X261223214Y-108247080D02*
X261270833Y-108151842D01*
X261270833Y-108151842D02*
X261270833Y-108056604D01*
X261270833Y-108056604D02*
X261223214Y-107961366D01*
X261223214Y-107961366D02*
X261175595Y-107913747D01*
X261175595Y-107913747D02*
X261080357Y-107866128D01*
X261080357Y-107866128D02*
X260889881Y-107818509D01*
X260889881Y-107818509D02*
X260794643Y-107770890D01*
X260794643Y-107770890D02*
X260747024Y-107723271D01*
X260747024Y-107723271D02*
X260699405Y-107628033D01*
X260699405Y-107628033D02*
X260699405Y-107532795D01*
X260699405Y-107532795D02*
X260747024Y-107437557D01*
X260747024Y-107437557D02*
X260794643Y-107389938D01*
X260794643Y-107389938D02*
X260889881Y-107342319D01*
X260889881Y-107342319D02*
X261127976Y-107342319D01*
X261127976Y-107342319D02*
X261270833Y-107389938D01*
X261651786Y-107437557D02*
X261699405Y-107389938D01*
X261699405Y-107389938D02*
X261794643Y-107342319D01*
X261794643Y-107342319D02*
X262032738Y-107342319D01*
X262032738Y-107342319D02*
X262127976Y-107389938D01*
X262127976Y-107389938D02*
X262175595Y-107437557D01*
X262175595Y-107437557D02*
X262223214Y-107532795D01*
X262223214Y-107532795D02*
X262223214Y-107628033D01*
X262223214Y-107628033D02*
X262175595Y-107770890D01*
X262175595Y-107770890D02*
X261604167Y-108342319D01*
X261604167Y-108342319D02*
X262223214Y-108342319D01*
X263080357Y-107675652D02*
X263080357Y-108342319D01*
X262842262Y-107294700D02*
X262604167Y-108008985D01*
X262604167Y-108008985D02*
X263223214Y-108008985D01*
X308324405Y-89244700D02*
X308467262Y-89292319D01*
X308467262Y-89292319D02*
X308705357Y-89292319D01*
X308705357Y-89292319D02*
X308800595Y-89244700D01*
X308800595Y-89244700D02*
X308848214Y-89197080D01*
X308848214Y-89197080D02*
X308895833Y-89101842D01*
X308895833Y-89101842D02*
X308895833Y-89006604D01*
X308895833Y-89006604D02*
X308848214Y-88911366D01*
X308848214Y-88911366D02*
X308800595Y-88863747D01*
X308800595Y-88863747D02*
X308705357Y-88816128D01*
X308705357Y-88816128D02*
X308514881Y-88768509D01*
X308514881Y-88768509D02*
X308419643Y-88720890D01*
X308419643Y-88720890D02*
X308372024Y-88673271D01*
X308372024Y-88673271D02*
X308324405Y-88578033D01*
X308324405Y-88578033D02*
X308324405Y-88482795D01*
X308324405Y-88482795D02*
X308372024Y-88387557D01*
X308372024Y-88387557D02*
X308419643Y-88339938D01*
X308419643Y-88339938D02*
X308514881Y-88292319D01*
X308514881Y-88292319D02*
X308752976Y-88292319D01*
X308752976Y-88292319D02*
X308895833Y-88339938D01*
X309848214Y-89292319D02*
X309276786Y-89292319D01*
X309562500Y-89292319D02*
X309562500Y-88292319D01*
X309562500Y-88292319D02*
X309467262Y-88435176D01*
X309467262Y-88435176D02*
X309372024Y-88530414D01*
X309372024Y-88530414D02*
X309276786Y-88578033D01*
X310181548Y-88292319D02*
X310800595Y-88292319D01*
X310800595Y-88292319D02*
X310467262Y-88673271D01*
X310467262Y-88673271D02*
X310610119Y-88673271D01*
X310610119Y-88673271D02*
X310705357Y-88720890D01*
X310705357Y-88720890D02*
X310752976Y-88768509D01*
X310752976Y-88768509D02*
X310800595Y-88863747D01*
X310800595Y-88863747D02*
X310800595Y-89101842D01*
X310800595Y-89101842D02*
X310752976Y-89197080D01*
X310752976Y-89197080D02*
X310705357Y-89244700D01*
X310705357Y-89244700D02*
X310610119Y-89292319D01*
X310610119Y-89292319D02*
X310324405Y-89292319D01*
X310324405Y-89292319D02*
X310229167Y-89244700D01*
X310229167Y-89244700D02*
X310181548Y-89197080D01*
X265461905Y-127344700D02*
X265604762Y-127392319D01*
X265604762Y-127392319D02*
X265842857Y-127392319D01*
X265842857Y-127392319D02*
X265938095Y-127344700D01*
X265938095Y-127344700D02*
X265985714Y-127297080D01*
X265985714Y-127297080D02*
X266033333Y-127201842D01*
X266033333Y-127201842D02*
X266033333Y-127106604D01*
X266033333Y-127106604D02*
X265985714Y-127011366D01*
X265985714Y-127011366D02*
X265938095Y-126963747D01*
X265938095Y-126963747D02*
X265842857Y-126916128D01*
X265842857Y-126916128D02*
X265652381Y-126868509D01*
X265652381Y-126868509D02*
X265557143Y-126820890D01*
X265557143Y-126820890D02*
X265509524Y-126773271D01*
X265509524Y-126773271D02*
X265461905Y-126678033D01*
X265461905Y-126678033D02*
X265461905Y-126582795D01*
X265461905Y-126582795D02*
X265509524Y-126487557D01*
X265509524Y-126487557D02*
X265557143Y-126439938D01*
X265557143Y-126439938D02*
X265652381Y-126392319D01*
X265652381Y-126392319D02*
X265890476Y-126392319D01*
X265890476Y-126392319D02*
X266033333Y-126439938D01*
X266366667Y-126392319D02*
X266985714Y-126392319D01*
X266985714Y-126392319D02*
X266652381Y-126773271D01*
X266652381Y-126773271D02*
X266795238Y-126773271D01*
X266795238Y-126773271D02*
X266890476Y-126820890D01*
X266890476Y-126820890D02*
X266938095Y-126868509D01*
X266938095Y-126868509D02*
X266985714Y-126963747D01*
X266985714Y-126963747D02*
X266985714Y-127201842D01*
X266985714Y-127201842D02*
X266938095Y-127297080D01*
X266938095Y-127297080D02*
X266890476Y-127344700D01*
X266890476Y-127344700D02*
X266795238Y-127392319D01*
X266795238Y-127392319D02*
X266509524Y-127392319D01*
X266509524Y-127392319D02*
X266414286Y-127344700D01*
X266414286Y-127344700D02*
X266366667Y-127297080D01*
X267557143Y-126820890D02*
X267461905Y-126773271D01*
X267461905Y-126773271D02*
X267414286Y-126725652D01*
X267414286Y-126725652D02*
X267366667Y-126630414D01*
X267366667Y-126630414D02*
X267366667Y-126582795D01*
X267366667Y-126582795D02*
X267414286Y-126487557D01*
X267414286Y-126487557D02*
X267461905Y-126439938D01*
X267461905Y-126439938D02*
X267557143Y-126392319D01*
X267557143Y-126392319D02*
X267747619Y-126392319D01*
X267747619Y-126392319D02*
X267842857Y-126439938D01*
X267842857Y-126439938D02*
X267890476Y-126487557D01*
X267890476Y-126487557D02*
X267938095Y-126582795D01*
X267938095Y-126582795D02*
X267938095Y-126630414D01*
X267938095Y-126630414D02*
X267890476Y-126725652D01*
X267890476Y-126725652D02*
X267842857Y-126773271D01*
X267842857Y-126773271D02*
X267747619Y-126820890D01*
X267747619Y-126820890D02*
X267557143Y-126820890D01*
X267557143Y-126820890D02*
X267461905Y-126868509D01*
X267461905Y-126868509D02*
X267414286Y-126916128D01*
X267414286Y-126916128D02*
X267366667Y-127011366D01*
X267366667Y-127011366D02*
X267366667Y-127201842D01*
X267366667Y-127201842D02*
X267414286Y-127297080D01*
X267414286Y-127297080D02*
X267461905Y-127344700D01*
X267461905Y-127344700D02*
X267557143Y-127392319D01*
X267557143Y-127392319D02*
X267747619Y-127392319D01*
X267747619Y-127392319D02*
X267842857Y-127344700D01*
X267842857Y-127344700D02*
X267890476Y-127297080D01*
X267890476Y-127297080D02*
X267938095Y-127201842D01*
X267938095Y-127201842D02*
X267938095Y-127011366D01*
X267938095Y-127011366D02*
X267890476Y-126916128D01*
X267890476Y-126916128D02*
X267842857Y-126868509D01*
X267842857Y-126868509D02*
X267747619Y-126820890D01*
X91630655Y-146394700D02*
X91773512Y-146442319D01*
X91773512Y-146442319D02*
X92011607Y-146442319D01*
X92011607Y-146442319D02*
X92106845Y-146394700D01*
X92106845Y-146394700D02*
X92154464Y-146347080D01*
X92154464Y-146347080D02*
X92202083Y-146251842D01*
X92202083Y-146251842D02*
X92202083Y-146156604D01*
X92202083Y-146156604D02*
X92154464Y-146061366D01*
X92154464Y-146061366D02*
X92106845Y-146013747D01*
X92106845Y-146013747D02*
X92011607Y-145966128D01*
X92011607Y-145966128D02*
X91821131Y-145918509D01*
X91821131Y-145918509D02*
X91725893Y-145870890D01*
X91725893Y-145870890D02*
X91678274Y-145823271D01*
X91678274Y-145823271D02*
X91630655Y-145728033D01*
X91630655Y-145728033D02*
X91630655Y-145632795D01*
X91630655Y-145632795D02*
X91678274Y-145537557D01*
X91678274Y-145537557D02*
X91725893Y-145489938D01*
X91725893Y-145489938D02*
X91821131Y-145442319D01*
X91821131Y-145442319D02*
X92059226Y-145442319D01*
X92059226Y-145442319D02*
X92202083Y-145489938D01*
X93059226Y-145775652D02*
X93059226Y-146442319D01*
X92821131Y-145394700D02*
X92583036Y-146108985D01*
X92583036Y-146108985D02*
X93202083Y-146108985D01*
X93535417Y-145537557D02*
X93583036Y-145489938D01*
X93583036Y-145489938D02*
X93678274Y-145442319D01*
X93678274Y-145442319D02*
X93916369Y-145442319D01*
X93916369Y-145442319D02*
X94011607Y-145489938D01*
X94011607Y-145489938D02*
X94059226Y-145537557D01*
X94059226Y-145537557D02*
X94106845Y-145632795D01*
X94106845Y-145632795D02*
X94106845Y-145728033D01*
X94106845Y-145728033D02*
X94059226Y-145870890D01*
X94059226Y-145870890D02*
X93487798Y-146442319D01*
X93487798Y-146442319D02*
X94106845Y-146442319D01*
X80200595Y-89244700D02*
X80343452Y-89292319D01*
X80343452Y-89292319D02*
X80581547Y-89292319D01*
X80581547Y-89292319D02*
X80676785Y-89244700D01*
X80676785Y-89244700D02*
X80724404Y-89197080D01*
X80724404Y-89197080D02*
X80772023Y-89101842D01*
X80772023Y-89101842D02*
X80772023Y-89006604D01*
X80772023Y-89006604D02*
X80724404Y-88911366D01*
X80724404Y-88911366D02*
X80676785Y-88863747D01*
X80676785Y-88863747D02*
X80581547Y-88816128D01*
X80581547Y-88816128D02*
X80391071Y-88768509D01*
X80391071Y-88768509D02*
X80295833Y-88720890D01*
X80295833Y-88720890D02*
X80248214Y-88673271D01*
X80248214Y-88673271D02*
X80200595Y-88578033D01*
X80200595Y-88578033D02*
X80200595Y-88482795D01*
X80200595Y-88482795D02*
X80248214Y-88387557D01*
X80248214Y-88387557D02*
X80295833Y-88339938D01*
X80295833Y-88339938D02*
X80391071Y-88292319D01*
X80391071Y-88292319D02*
X80629166Y-88292319D01*
X80629166Y-88292319D02*
X80772023Y-88339938D01*
X81724404Y-89292319D02*
X81152976Y-89292319D01*
X81438690Y-89292319D02*
X81438690Y-88292319D01*
X81438690Y-88292319D02*
X81343452Y-88435176D01*
X81343452Y-88435176D02*
X81248214Y-88530414D01*
X81248214Y-88530414D02*
X81152976Y-88578033D01*
X296418155Y-165444700D02*
X296561012Y-165492319D01*
X296561012Y-165492319D02*
X296799107Y-165492319D01*
X296799107Y-165492319D02*
X296894345Y-165444700D01*
X296894345Y-165444700D02*
X296941964Y-165397080D01*
X296941964Y-165397080D02*
X296989583Y-165301842D01*
X296989583Y-165301842D02*
X296989583Y-165206604D01*
X296989583Y-165206604D02*
X296941964Y-165111366D01*
X296941964Y-165111366D02*
X296894345Y-165063747D01*
X296894345Y-165063747D02*
X296799107Y-165016128D01*
X296799107Y-165016128D02*
X296608631Y-164968509D01*
X296608631Y-164968509D02*
X296513393Y-164920890D01*
X296513393Y-164920890D02*
X296465774Y-164873271D01*
X296465774Y-164873271D02*
X296418155Y-164778033D01*
X296418155Y-164778033D02*
X296418155Y-164682795D01*
X296418155Y-164682795D02*
X296465774Y-164587557D01*
X296465774Y-164587557D02*
X296513393Y-164539938D01*
X296513393Y-164539938D02*
X296608631Y-164492319D01*
X296608631Y-164492319D02*
X296846726Y-164492319D01*
X296846726Y-164492319D02*
X296989583Y-164539938D01*
X297894345Y-164492319D02*
X297418155Y-164492319D01*
X297418155Y-164492319D02*
X297370536Y-164968509D01*
X297370536Y-164968509D02*
X297418155Y-164920890D01*
X297418155Y-164920890D02*
X297513393Y-164873271D01*
X297513393Y-164873271D02*
X297751488Y-164873271D01*
X297751488Y-164873271D02*
X297846726Y-164920890D01*
X297846726Y-164920890D02*
X297894345Y-164968509D01*
X297894345Y-164968509D02*
X297941964Y-165063747D01*
X297941964Y-165063747D02*
X297941964Y-165301842D01*
X297941964Y-165301842D02*
X297894345Y-165397080D01*
X297894345Y-165397080D02*
X297846726Y-165444700D01*
X297846726Y-165444700D02*
X297751488Y-165492319D01*
X297751488Y-165492319D02*
X297513393Y-165492319D01*
X297513393Y-165492319D02*
X297418155Y-165444700D01*
X297418155Y-165444700D02*
X297370536Y-165397080D01*
X298418155Y-165492319D02*
X298608631Y-165492319D01*
X298608631Y-165492319D02*
X298703869Y-165444700D01*
X298703869Y-165444700D02*
X298751488Y-165397080D01*
X298751488Y-165397080D02*
X298846726Y-165254223D01*
X298846726Y-165254223D02*
X298894345Y-165063747D01*
X298894345Y-165063747D02*
X298894345Y-164682795D01*
X298894345Y-164682795D02*
X298846726Y-164587557D01*
X298846726Y-164587557D02*
X298799107Y-164539938D01*
X298799107Y-164539938D02*
X298703869Y-164492319D01*
X298703869Y-164492319D02*
X298513393Y-164492319D01*
X298513393Y-164492319D02*
X298418155Y-164539938D01*
X298418155Y-164539938D02*
X298370536Y-164587557D01*
X298370536Y-164587557D02*
X298322917Y-164682795D01*
X298322917Y-164682795D02*
X298322917Y-164920890D01*
X298322917Y-164920890D02*
X298370536Y-165016128D01*
X298370536Y-165016128D02*
X298418155Y-165063747D01*
X298418155Y-165063747D02*
X298513393Y-165111366D01*
X298513393Y-165111366D02*
X298703869Y-165111366D01*
X298703869Y-165111366D02*
X298799107Y-165063747D01*
X298799107Y-165063747D02*
X298846726Y-165016128D01*
X298846726Y-165016128D02*
X298894345Y-164920890D01*
X270224405Y-89244700D02*
X270367262Y-89292319D01*
X270367262Y-89292319D02*
X270605357Y-89292319D01*
X270605357Y-89292319D02*
X270700595Y-89244700D01*
X270700595Y-89244700D02*
X270748214Y-89197080D01*
X270748214Y-89197080D02*
X270795833Y-89101842D01*
X270795833Y-89101842D02*
X270795833Y-89006604D01*
X270795833Y-89006604D02*
X270748214Y-88911366D01*
X270748214Y-88911366D02*
X270700595Y-88863747D01*
X270700595Y-88863747D02*
X270605357Y-88816128D01*
X270605357Y-88816128D02*
X270414881Y-88768509D01*
X270414881Y-88768509D02*
X270319643Y-88720890D01*
X270319643Y-88720890D02*
X270272024Y-88673271D01*
X270272024Y-88673271D02*
X270224405Y-88578033D01*
X270224405Y-88578033D02*
X270224405Y-88482795D01*
X270224405Y-88482795D02*
X270272024Y-88387557D01*
X270272024Y-88387557D02*
X270319643Y-88339938D01*
X270319643Y-88339938D02*
X270414881Y-88292319D01*
X270414881Y-88292319D02*
X270652976Y-88292319D01*
X270652976Y-88292319D02*
X270795833Y-88339938D01*
X271748214Y-89292319D02*
X271176786Y-89292319D01*
X271462500Y-89292319D02*
X271462500Y-88292319D01*
X271462500Y-88292319D02*
X271367262Y-88435176D01*
X271367262Y-88435176D02*
X271272024Y-88530414D01*
X271272024Y-88530414D02*
X271176786Y-88578033D01*
X272700595Y-89292319D02*
X272129167Y-89292319D01*
X272414881Y-89292319D02*
X272414881Y-88292319D01*
X272414881Y-88292319D02*
X272319643Y-88435176D01*
X272319643Y-88435176D02*
X272224405Y-88530414D01*
X272224405Y-88530414D02*
X272129167Y-88578033D01*
D11*
X146590000Y-105055000D02*
X138910000Y-105055000D01*
X146590000Y-105055000D02*
X146590000Y-107715000D01*
X138910000Y-105055000D02*
X138910000Y-107715000D01*
X149190000Y-106385000D02*
X149190000Y-107715000D01*
X149190000Y-107715000D02*
X147860000Y-107715000D01*
X146590000Y-107715000D02*
X138910000Y-107715000D01*
X177720000Y-171240000D02*
X185400000Y-171240000D01*
X177720000Y-171240000D02*
X177720000Y-168580000D01*
X185400000Y-171240000D02*
X185400000Y-168580000D01*
X175120000Y-169910000D02*
X175120000Y-168580000D01*
X175120000Y-168580000D02*
X176450000Y-168580000D01*
X177720000Y-168580000D02*
X185400000Y-168580000D01*
%LPC*%
D12*
X71812500Y-141486550D02*
X75612500Y-141486550D01*
X71812500Y-146788450D02*
X75612500Y-146788450D01*
X353012500Y-141486550D02*
X356812500Y-141486550D01*
X353012500Y-146788450D02*
X356862500Y-146788450D01*
X78263450Y-144137500D02*
G75*
G03*
X75612500Y-141486550I-2650949J1D01*
G01*
X75612500Y-146788450D02*
G75*
G03*
X78263450Y-144137500I1J2650949D01*
G01*
X353012500Y-141486550D02*
G75*
G03*
X350361550Y-144137500I0J-2650950D01*
G01*
X350361550Y-144137500D02*
G75*
G03*
X353012500Y-146788450I2650950J0D01*
G01*
D13*
X325913750Y-153987500D03*
D14*
X330993750Y-153987500D03*
D13*
X336073750Y-153987500D03*
X125888750Y-173037500D03*
D14*
X130968750Y-173037500D03*
D13*
X136048750Y-173037500D03*
X94932500Y-96837500D03*
D14*
X100012500Y-96837500D03*
D13*
X105092500Y-96837500D03*
X133032500Y-96837500D03*
D14*
X138112500Y-96837500D03*
D13*
X143192500Y-96837500D03*
X268763750Y-173037500D03*
D14*
X273843750Y-173037500D03*
D13*
X278923750Y-173037500D03*
D15*
X147860000Y-106385000D03*
D16*
X145320000Y-106385000D03*
X142780000Y-106385000D03*
X140240000Y-106385000D03*
D13*
X204470000Y-134937500D03*
D14*
X209550000Y-134937500D03*
D13*
X214630000Y-134937500D03*
X271145000Y-153987500D03*
D14*
X276225000Y-153987500D03*
D13*
X281305000Y-153987500D03*
D17*
X204819250Y-180022500D03*
D18*
X204819250Y-164782500D03*
D17*
X180943250Y-180022500D03*
D18*
X180943250Y-164782500D03*
D13*
X194945000Y-153987500D03*
D14*
X200025000Y-153987500D03*
D13*
X205105000Y-153987500D03*
X330676250Y-134937500D03*
D14*
X335756250Y-134937500D03*
D13*
X340836250Y-134937500D03*
X228282500Y-96837500D03*
D14*
X233362500Y-96837500D03*
D13*
X238442500Y-96837500D03*
X156845000Y-153987500D03*
D14*
X161925000Y-153987500D03*
D13*
X167005000Y-153987500D03*
X166370000Y-134937500D03*
D14*
X171450000Y-134937500D03*
D13*
X176530000Y-134937500D03*
X113982500Y-96837500D03*
D14*
X119062500Y-96837500D03*
D13*
X124142500Y-96837500D03*
D15*
X176450000Y-169910000D03*
D16*
X178990000Y-169910000D03*
X181530000Y-169910000D03*
X184070000Y-169910000D03*
D17*
X347694250Y-141922500D03*
D18*
X347694250Y-126682500D03*
D17*
X323818250Y-141922500D03*
D18*
X323818250Y-126682500D03*
D19*
X73570465Y-141537500D03*
X73570465Y-146737500D03*
X75612500Y-141537500D03*
X75612500Y-146737500D03*
X77450978Y-142299022D03*
X77450978Y-145975978D03*
X78212500Y-144137500D03*
X94712500Y-115537500D03*
X95386154Y-113911154D03*
X95386154Y-117163846D03*
X97012500Y-113237500D03*
D20*
X97012500Y-115537500D03*
D19*
X97012500Y-117837500D03*
X98638846Y-113911154D03*
X98638846Y-117163846D03*
X99312500Y-115537500D03*
X198812500Y-132337500D03*
X198812500Y-136937500D03*
X200012500Y-132337500D03*
D21*
X200012500Y-134637500D03*
D19*
X200012500Y-136937500D03*
X201212500Y-132337500D03*
X201212500Y-136937500D03*
X261112500Y-170537500D03*
X261112500Y-175137500D03*
X262312500Y-170537500D03*
D21*
X262312500Y-172837500D03*
D19*
X262312500Y-175137500D03*
X263512500Y-170537500D03*
X263512500Y-175137500D03*
X330662500Y-113237500D03*
X330662500Y-117837500D03*
X331862500Y-113237500D03*
D21*
X331862500Y-115537500D03*
D19*
X331862500Y-117837500D03*
X333062500Y-113220500D03*
X333062500Y-117837500D03*
X350412500Y-144137500D03*
X351174022Y-142299022D03*
X351174022Y-145975978D03*
X353012500Y-141537500D03*
X353012500Y-146737500D03*
X355054535Y-141537500D03*
X355054535Y-146737500D03*
D13*
X314007500Y-115887500D03*
D14*
X319087500Y-115887500D03*
D13*
X324167500Y-115887500D03*
X147320000Y-134937500D03*
D14*
X152400000Y-134937500D03*
D13*
X157480000Y-134937500D03*
X237807500Y-115887500D03*
D14*
X242887500Y-115887500D03*
D13*
X247967500Y-115887500D03*
X137795000Y-153987500D03*
D14*
X142875000Y-153987500D03*
D13*
X147955000Y-153987500D03*
X161607500Y-115887500D03*
D14*
X166687500Y-115887500D03*
D13*
X171767500Y-115887500D03*
X185420000Y-134937500D03*
D14*
X190500000Y-134937500D03*
D13*
X195580000Y-134937500D03*
D17*
X252406250Y-180022500D03*
D18*
X252406250Y-164782500D03*
D17*
X152406250Y-180022500D03*
D18*
X152406250Y-164782500D03*
D13*
X316388750Y-173037500D03*
D14*
X321468750Y-173037500D03*
D13*
X326548750Y-173037500D03*
X123507500Y-115887500D03*
D14*
X128587500Y-115887500D03*
D13*
X133667500Y-115887500D03*
X190182500Y-96837500D03*
D14*
X195262500Y-96837500D03*
D13*
X200342500Y-96837500D03*
X152082500Y-96837500D03*
D14*
X157162500Y-96837500D03*
D13*
X162242500Y-96837500D03*
X275907500Y-115887500D03*
D14*
X280987500Y-115887500D03*
D13*
X286067500Y-115887500D03*
X149701250Y-173037500D03*
D14*
X154781250Y-173037500D03*
D13*
X159861250Y-173037500D03*
X299720000Y-134937500D03*
D14*
X304800000Y-134937500D03*
D13*
X309880000Y-134937500D03*
X175895000Y-153987500D03*
D14*
X180975000Y-153987500D03*
D13*
X186055000Y-153987500D03*
D17*
X252444250Y-180022500D03*
D18*
X252444250Y-164782500D03*
D17*
X228568250Y-180022500D03*
D18*
X228568250Y-164782500D03*
D13*
X118745000Y-153987500D03*
D14*
X123825000Y-153987500D03*
D13*
X128905000Y-153987500D03*
D17*
X319055750Y-147002500D03*
D18*
X319055750Y-162242500D03*
D17*
X342931750Y-147002500D03*
D18*
X342931750Y-162242500D03*
D13*
X252095000Y-153987500D03*
D14*
X257175000Y-153987500D03*
D13*
X262255000Y-153987500D03*
X233045000Y-153987500D03*
D14*
X238125000Y-153987500D03*
D13*
X243205000Y-153987500D03*
X333057500Y-96837500D03*
D14*
X338137500Y-96837500D03*
D13*
X343217500Y-96837500D03*
X213995000Y-153987500D03*
D14*
X219075000Y-153987500D03*
D13*
X224155000Y-153987500D03*
X180657500Y-115887500D03*
D14*
X185737500Y-115887500D03*
D13*
X190817500Y-115887500D03*
X128270000Y-134937500D03*
D14*
X133350000Y-134937500D03*
D13*
X138430000Y-134937500D03*
X104457500Y-115887500D03*
D14*
X109537500Y-115887500D03*
D13*
X114617500Y-115887500D03*
X102076250Y-173037500D03*
D14*
X107156250Y-173037500D03*
D13*
X112236250Y-173037500D03*
X109220000Y-134937500D03*
D14*
X114300000Y-134937500D03*
D13*
X119380000Y-134937500D03*
X83026250Y-134960000D03*
D14*
X88106250Y-134960000D03*
D13*
X93186250Y-134960000D03*
X209232500Y-96837500D03*
D14*
X214312500Y-96837500D03*
D13*
X219392500Y-96837500D03*
X142557500Y-115887500D03*
D14*
X147637500Y-115887500D03*
D13*
X152717500Y-115887500D03*
X294957500Y-115887500D03*
D14*
X300037500Y-115887500D03*
D13*
X305117500Y-115887500D03*
D17*
X326199500Y-89852500D03*
D18*
X326199500Y-105092500D03*
D17*
X350075500Y-89852500D03*
D18*
X350075500Y-105092500D03*
D13*
X337820000Y-115887500D03*
D14*
X342900000Y-115887500D03*
D13*
X347980000Y-115887500D03*
X80645000Y-115887500D03*
D14*
X85725000Y-115887500D03*
D13*
X90805000Y-115887500D03*
X199707500Y-115887500D03*
D14*
X204787500Y-115887500D03*
D13*
X209867500Y-115887500D03*
X197326250Y-173037500D03*
D14*
X202406250Y-173037500D03*
D13*
X207486250Y-173037500D03*
X340201250Y-173037500D03*
D14*
X345281250Y-173037500D03*
D13*
X350361250Y-173037500D03*
X285432500Y-96837500D03*
D14*
X290512500Y-96837500D03*
D13*
X295592500Y-96837500D03*
X171132500Y-96837500D03*
D14*
X176212500Y-96837500D03*
D13*
X181292500Y-96837500D03*
X242570000Y-134937500D03*
D14*
X247650000Y-134937500D03*
D13*
X252730000Y-134937500D03*
X235426250Y-173037500D03*
D14*
X240506250Y-173037500D03*
D13*
X245586250Y-173037500D03*
D17*
X80930750Y-147002500D03*
D18*
X80930750Y-162242500D03*
D17*
X104806750Y-147002500D03*
D18*
X104806750Y-162242500D03*
D13*
X218757500Y-115887500D03*
D14*
X223837500Y-115887500D03*
D13*
X228917500Y-115887500D03*
X187801250Y-173037500D03*
D14*
X192881250Y-173037500D03*
D13*
X197961250Y-173037500D03*
X223520000Y-134937500D03*
D14*
X228600000Y-134937500D03*
D13*
X233680000Y-134937500D03*
X78263750Y-173037500D03*
D14*
X83343750Y-173037500D03*
D13*
X88423750Y-173037500D03*
X290195000Y-153987500D03*
D14*
X295275000Y-153987500D03*
D13*
X300355000Y-153987500D03*
X247332500Y-96837500D03*
D14*
X252412500Y-96837500D03*
D13*
X257492500Y-96837500D03*
X280670000Y-134937500D03*
D14*
X285750000Y-134937500D03*
D13*
X290830000Y-134937500D03*
X256857500Y-115887500D03*
D14*
X261937500Y-115887500D03*
D13*
X267017500Y-115887500D03*
X304482500Y-96837500D03*
D14*
X309562500Y-96837500D03*
D13*
X314642500Y-96837500D03*
X261620000Y-134937500D03*
D14*
X266700000Y-134937500D03*
D13*
X271780000Y-134937500D03*
X87788750Y-153987500D03*
D14*
X92868750Y-153987500D03*
D13*
X97948750Y-153987500D03*
X75882500Y-96837500D03*
D14*
X80962500Y-96837500D03*
D13*
X86042500Y-96837500D03*
X292576250Y-173037500D03*
D14*
X297656250Y-173037500D03*
D13*
X302736250Y-173037500D03*
X266382500Y-96837500D03*
D14*
X271462500Y-96837500D03*
D13*
X276542500Y-96837500D03*
D22*
X104120000Y-133960000D03*
X104120000Y-136960000D03*
D23*
X87120000Y-92065000D03*
X92900000Y-92065000D03*
D24*
X85690000Y-88415000D03*
D25*
X85690000Y-92595000D03*
D24*
X94330000Y-88415000D03*
D25*
X94330000Y-92595000D03*
%LPD*%
M02*
