%TF.GenerationSoftware,KiCad,Pcbnew,7.0.5*%
%TF.CreationDate,2024-03-02T17:21:19+09:00*%
%TF.ProjectId,Hotp4ck60,486f7470-3463-46b3-9630-2e6b69636164,rev?*%
%TF.SameCoordinates,Original*%
%TF.FileFunction,Drillmap*%
%TF.FilePolarity,Positive*%
%FSLAX45Y45*%
G04 Gerber Fmt 4.5, Leading zero omitted, Abs format (unit mm)*
G04 Created by KiCad (PCBNEW 7.0.5) date 2024-03-02 17:21:19*
%MOMM*%
%LPD*%
G01*
G04 APERTURE LIST*
%ADD10C,0.200000*%
%ADD11C,0.030000*%
%ADD12C,0.040000*%
%ADD13C,0.100000*%
%ADD14C,0.147000*%
%ADD15C,0.249936*%
%ADD16C,0.249940*%
G04 APERTURE END LIST*
D10*
D11*
X9937000Y-14502000D02*
X9967000Y-14532000D01*
X9967000Y-14502000D02*
X9937000Y-14532000D01*
X10179000Y-16730000D02*
X10209000Y-16760000D01*
X10209000Y-16730000D02*
X10179000Y-16760000D01*
X10958787Y-13603453D02*
X10988787Y-13633453D01*
X10988787Y-13603453D02*
X10958787Y-13633453D01*
X10993000Y-13530853D02*
X11023000Y-13560853D01*
X11023000Y-13530853D02*
X10993000Y-13560853D01*
X11077447Y-13703853D02*
X11107447Y-13733853D01*
X11107447Y-13703853D02*
X11077447Y-13733853D01*
X11077497Y-13603497D02*
X11107497Y-13633497D01*
X11107497Y-13603497D02*
X11077497Y-13633497D01*
X11151108Y-13529886D02*
X11181108Y-13559886D01*
X11181108Y-13529886D02*
X11151108Y-13559886D01*
X11209000Y-13474000D02*
X11239000Y-13504000D01*
X11239000Y-13474000D02*
X11209000Y-13504000D01*
X13604000Y-18780000D02*
X13634000Y-18810000D01*
X13634000Y-18780000D02*
X13604000Y-18810000D01*
X13604000Y-19030000D02*
X13634000Y-19060000D01*
X13634000Y-19030000D02*
X13604000Y-19060000D01*
X13604000Y-19240000D02*
X13634000Y-19270000D01*
X13634000Y-19240000D02*
X13604000Y-19270000D01*
X13614000Y-18592000D02*
X13644000Y-18622000D01*
X13644000Y-18592000D02*
X13614000Y-18622000D01*
X13793000Y-19030000D02*
X13823000Y-19060000D01*
X13823000Y-19030000D02*
X13793000Y-19060000D01*
X13793000Y-19240000D02*
X13823000Y-19270000D01*
X13823000Y-19240000D02*
X13793000Y-19270000D01*
X13794000Y-18775000D02*
X13824000Y-18805000D01*
X13824000Y-18775000D02*
X13794000Y-18805000D01*
X13797000Y-18592000D02*
X13827000Y-18622000D01*
X13827000Y-18592000D02*
X13797000Y-18622000D01*
X13929000Y-18597000D02*
X13959000Y-18627000D01*
X13959000Y-18597000D02*
X13929000Y-18627000D01*
X13929000Y-18729000D02*
X13959000Y-18759000D01*
X13959000Y-18729000D02*
X13929000Y-18759000D01*
X14078000Y-18599000D02*
X14108000Y-18629000D01*
X14108000Y-18599000D02*
X14078000Y-18629000D01*
X14078000Y-18731000D02*
X14108000Y-18761000D01*
X14108000Y-18731000D02*
X14078000Y-18761000D01*
X14311000Y-18600000D02*
X14341000Y-18630000D01*
X14341000Y-18600000D02*
X14311000Y-18630000D01*
X14311000Y-18732000D02*
X14341000Y-18762000D01*
X14341000Y-18732000D02*
X14311000Y-18762000D01*
X14521000Y-18600000D02*
X14551000Y-18630000D01*
X14551000Y-18600000D02*
X14521000Y-18630000D01*
X14521000Y-18732000D02*
X14551000Y-18762000D01*
X14551000Y-18732000D02*
X14521000Y-18762000D01*
X14731000Y-18600000D02*
X14761000Y-18630000D01*
X14761000Y-18600000D02*
X14731000Y-18630000D01*
X14731000Y-18732000D02*
X14761000Y-18762000D01*
X14761000Y-18732000D02*
X14731000Y-18762000D01*
X14913000Y-18600000D02*
X14943000Y-18630000D01*
X14943000Y-18600000D02*
X14913000Y-18630000D01*
X14913000Y-18732000D02*
X14943000Y-18762000D01*
X14943000Y-18732000D02*
X14913000Y-18762000D01*
X14933125Y-17421875D02*
X14963125Y-17451875D01*
X14963125Y-17421875D02*
X14933125Y-17451875D01*
X15123000Y-18600000D02*
X15153000Y-18630000D01*
X15153000Y-18600000D02*
X15123000Y-18630000D01*
X15123000Y-18732000D02*
X15153000Y-18762000D01*
X15153000Y-18732000D02*
X15123000Y-18762000D01*
X15238879Y-17944605D02*
X15268879Y-17974605D01*
X15268879Y-17944605D02*
X15238879Y-17974605D01*
X15333000Y-18600000D02*
X15363000Y-18630000D01*
X15363000Y-18600000D02*
X15333000Y-18630000D01*
X15333000Y-18732000D02*
X15363000Y-18762000D01*
X15363000Y-18732000D02*
X15333000Y-18762000D01*
X15473000Y-18731000D02*
X15503000Y-18761000D01*
X15503000Y-18731000D02*
X15473000Y-18761000D01*
X15671225Y-13227150D02*
X15701225Y-13257150D01*
X15701225Y-13227150D02*
X15671225Y-13257150D01*
X15683000Y-18599000D02*
X15713000Y-18629000D01*
X15713000Y-18599000D02*
X15683000Y-18629000D01*
X15683000Y-18731000D02*
X15713000Y-18761000D01*
X15713000Y-18731000D02*
X15683000Y-18761000D01*
X15762000Y-13640200D02*
X15792000Y-13670200D01*
X15792000Y-13640200D02*
X15762000Y-13670200D01*
X15855650Y-13423000D02*
X15885650Y-13453000D01*
X15885650Y-13423000D02*
X15855650Y-13453000D01*
X15855650Y-13585000D02*
X15885650Y-13615000D01*
X15885650Y-13585000D02*
X15855650Y-13615000D01*
X15885000Y-13028125D02*
X15915000Y-13058125D01*
X15915000Y-13028125D02*
X15885000Y-13058125D01*
X15885000Y-13166000D02*
X15915000Y-13196000D01*
X15915000Y-13166000D02*
X15885000Y-13196000D01*
X15893000Y-18599000D02*
X15923000Y-18629000D01*
X15923000Y-18599000D02*
X15893000Y-18629000D01*
X15893000Y-18731000D02*
X15923000Y-18761000D01*
X15923000Y-18731000D02*
X15893000Y-18761000D01*
X15921000Y-17485000D02*
X15951000Y-17515000D01*
X15951000Y-17485000D02*
X15921000Y-17515000D01*
X15931000Y-14933000D02*
X15961000Y-14963000D01*
X15961000Y-14933000D02*
X15931000Y-14963000D01*
X15967000Y-12978000D02*
X15997000Y-13008000D01*
X15997000Y-12978000D02*
X15967000Y-13008000D01*
X15967000Y-13166000D02*
X15997000Y-13196000D01*
X15997000Y-13166000D02*
X15967000Y-13196000D01*
X15993650Y-13585000D02*
X16023650Y-13615000D01*
X16023650Y-13585000D02*
X15993650Y-13615000D01*
X16080500Y-14115000D02*
X16110500Y-14145000D01*
X16110500Y-14115000D02*
X16080500Y-14145000D01*
X16084000Y-18733000D02*
X16114000Y-18763000D01*
X16114000Y-18733000D02*
X16084000Y-18763000D01*
X16145500Y-14115000D02*
X16175500Y-14145000D01*
X16175500Y-14115000D02*
X16145500Y-14145000D01*
X16152000Y-17768150D02*
X16182000Y-17798150D01*
X16182000Y-17768150D02*
X16152000Y-17798150D01*
X16239000Y-13701000D02*
X16269000Y-13731000D01*
X16269000Y-13701000D02*
X16239000Y-13731000D01*
X16258125Y-14933125D02*
X16288125Y-14963125D01*
X16288125Y-14933125D02*
X16258125Y-14963125D01*
X16289000Y-17772000D02*
X16319000Y-17802000D01*
X16319000Y-17772000D02*
X16289000Y-17802000D01*
X16294000Y-18733000D02*
X16324000Y-18763000D01*
X16324000Y-18733000D02*
X16294000Y-18763000D01*
X16314000Y-17121000D02*
X16344000Y-17151000D01*
X16344000Y-17121000D02*
X16314000Y-17151000D01*
X16357000Y-17419000D02*
X16387000Y-17449000D01*
X16387000Y-17419000D02*
X16357000Y-17449000D01*
X16478000Y-18114000D02*
X16508000Y-18144000D01*
X16508000Y-18114000D02*
X16478000Y-18144000D01*
X16499000Y-18738000D02*
X16529000Y-18768000D01*
X16529000Y-18738000D02*
X16499000Y-18768000D01*
X16547000Y-17438000D02*
X16577000Y-17468000D01*
X16577000Y-17438000D02*
X16547000Y-17468000D01*
X16547000Y-17558000D02*
X16577000Y-17588000D01*
X16577000Y-17558000D02*
X16547000Y-17588000D01*
X16547000Y-17798000D02*
X16577000Y-17828000D01*
X16577000Y-17798000D02*
X16547000Y-17828000D01*
X16547000Y-17678000D02*
X16577000Y-17708000D01*
X16577000Y-17678000D02*
X16547000Y-17708000D01*
X16667000Y-17798000D02*
X16697000Y-17828000D01*
X16697000Y-17798000D02*
X16667000Y-17828000D01*
X16667000Y-17558000D02*
X16697000Y-17588000D01*
X16697000Y-17558000D02*
X16667000Y-17588000D01*
X16667000Y-17678000D02*
X16697000Y-17708000D01*
X16697000Y-17678000D02*
X16667000Y-17708000D01*
X16667000Y-17438000D02*
X16697000Y-17468000D01*
X16697000Y-17438000D02*
X16667000Y-17468000D01*
X16701000Y-14933125D02*
X16731000Y-14963125D01*
X16731000Y-14933125D02*
X16701000Y-14963125D01*
X16705000Y-18733000D02*
X16735000Y-18763000D01*
X16735000Y-18733000D02*
X16705000Y-18763000D01*
X16787000Y-17798000D02*
X16817000Y-17828000D01*
X16817000Y-17798000D02*
X16787000Y-17828000D01*
X16787000Y-17438000D02*
X16817000Y-17468000D01*
X16817000Y-17438000D02*
X16787000Y-17468000D01*
X16787000Y-17558000D02*
X16817000Y-17588000D01*
X16817000Y-17558000D02*
X16787000Y-17588000D01*
X16787000Y-17678000D02*
X16817000Y-17708000D01*
X16817000Y-17678000D02*
X16787000Y-17708000D01*
X16801000Y-16800000D02*
X16831000Y-16830000D01*
X16831000Y-16800000D02*
X16801000Y-16830000D01*
X16859000Y-16981000D02*
X16889000Y-17011000D01*
X16889000Y-16981000D02*
X16859000Y-17011000D01*
X16861000Y-18221000D02*
X16891000Y-18251000D01*
X16891000Y-18221000D02*
X16861000Y-18251000D01*
X16907000Y-17798000D02*
X16937000Y-17828000D01*
X16937000Y-17798000D02*
X16907000Y-17828000D01*
X16907000Y-17438000D02*
X16937000Y-17468000D01*
X16937000Y-17438000D02*
X16907000Y-17468000D01*
X16907000Y-17678000D02*
X16937000Y-17708000D01*
X16937000Y-17678000D02*
X16907000Y-17708000D01*
X16907000Y-17558000D02*
X16937000Y-17588000D01*
X16937000Y-17558000D02*
X16907000Y-17588000D01*
X16908000Y-15358000D02*
X16938000Y-15388000D01*
X16938000Y-15358000D02*
X16908000Y-15388000D01*
X16915000Y-18733000D02*
X16945000Y-18763000D01*
X16945000Y-18733000D02*
X16915000Y-18763000D01*
X16916000Y-18591000D02*
X16946000Y-18621000D01*
X16946000Y-18591000D02*
X16916000Y-18621000D01*
X16949500Y-17018000D02*
X16979500Y-17048000D01*
X16979500Y-17018000D02*
X16949500Y-17048000D01*
X17010000Y-13875000D02*
X17040000Y-13905000D01*
X17040000Y-13875000D02*
X17010000Y-13905000D01*
X17078000Y-17972000D02*
X17108000Y-18002000D01*
X17108000Y-17972000D02*
X17078000Y-18002000D01*
X17097000Y-18733000D02*
X17127000Y-18763000D01*
X17127000Y-18733000D02*
X17097000Y-18763000D01*
X17103000Y-18590000D02*
X17133000Y-18620000D01*
X17133000Y-18590000D02*
X17103000Y-18620000D01*
X17109000Y-13620000D02*
X17139000Y-13650000D01*
X17139000Y-13620000D02*
X17109000Y-13650000D01*
X17154000Y-17593000D02*
X17184000Y-17623000D01*
X17184000Y-17593000D02*
X17154000Y-17623000D01*
X17185000Y-13387000D02*
X17215000Y-13417000D01*
X17215000Y-13387000D02*
X17185000Y-13417000D01*
X17189000Y-13702000D02*
X17219000Y-13732000D01*
X17219000Y-13702000D02*
X17189000Y-13732000D01*
X17270000Y-13266000D02*
X17300000Y-13296000D01*
X17300000Y-13266000D02*
X17270000Y-13296000D01*
X17273000Y-17005000D02*
X17303000Y-17035000D01*
X17303000Y-17005000D02*
X17273000Y-17035000D01*
X17293000Y-17100000D02*
X17323000Y-17130000D01*
X17323000Y-17100000D02*
X17293000Y-17130000D01*
X17293950Y-16466000D02*
X17323950Y-16496000D01*
X17323950Y-16466000D02*
X17293950Y-16496000D01*
X17293950Y-16647000D02*
X17323950Y-16677000D01*
X17323950Y-16647000D02*
X17293950Y-16677000D01*
X17293950Y-16809000D02*
X17323950Y-16839000D01*
X17323950Y-16809000D02*
X17293950Y-16839000D01*
X17293992Y-16260448D02*
X17323992Y-16290448D01*
X17323992Y-16260448D02*
X17293992Y-16290448D01*
X17305000Y-13505000D02*
X17335000Y-13535000D01*
X17335000Y-13505000D02*
X17305000Y-13535000D01*
X17305000Y-13585000D02*
X17335000Y-13615000D01*
X17335000Y-13585000D02*
X17305000Y-13615000D01*
X17307000Y-17972000D02*
X17337000Y-18002000D01*
X17337000Y-17972000D02*
X17307000Y-18002000D01*
X17319000Y-18732000D02*
X17349000Y-18762000D01*
X17349000Y-18732000D02*
X17319000Y-18762000D01*
X17320000Y-18587000D02*
X17350000Y-18617000D01*
X17350000Y-18587000D02*
X17320000Y-18617000D01*
X17321000Y-17893000D02*
X17351000Y-17923000D01*
X17351000Y-17893000D02*
X17321000Y-17923000D01*
X17323000Y-17344000D02*
X17353000Y-17374000D01*
X17353000Y-17344000D02*
X17323000Y-17374000D01*
X17325000Y-17650000D02*
X17355000Y-17680000D01*
X17355000Y-17650000D02*
X17325000Y-17680000D01*
X17385000Y-13505000D02*
X17415000Y-13535000D01*
X17415000Y-13505000D02*
X17385000Y-13535000D01*
X17385000Y-13585000D02*
X17415000Y-13615000D01*
X17415000Y-13585000D02*
X17385000Y-13615000D01*
X17504000Y-13700000D02*
X17534000Y-13730000D01*
X17534000Y-13700000D02*
X17504000Y-13730000D01*
X17506000Y-13387000D02*
X17536000Y-13417000D01*
X17536000Y-13387000D02*
X17506000Y-13417000D01*
X17524000Y-17217000D02*
X17554000Y-17247000D01*
X17554000Y-17217000D02*
X17524000Y-17247000D01*
X17566000Y-18587000D02*
X17596000Y-18617000D01*
X17596000Y-18587000D02*
X17566000Y-18617000D01*
X17578000Y-18730000D02*
X17608000Y-18760000D01*
X17608000Y-18730000D02*
X17578000Y-18760000D01*
X17599000Y-13573000D02*
X17629000Y-13603000D01*
X17629000Y-13573000D02*
X17599000Y-13603000D01*
X17655000Y-13264000D02*
X17685000Y-13294000D01*
X17685000Y-13264000D02*
X17655000Y-13294000D01*
X17763096Y-17196096D02*
X17793096Y-17226096D01*
X17793096Y-17196096D02*
X17763096Y-17226096D01*
X17833000Y-18587000D02*
X17863000Y-18617000D01*
X17863000Y-18587000D02*
X17833000Y-18617000D01*
X17840000Y-18732000D02*
X17870000Y-18762000D01*
X17870000Y-18732000D02*
X17840000Y-18762000D01*
X17980000Y-13267000D02*
X18010000Y-13297000D01*
X18010000Y-13267000D02*
X17980000Y-13297000D01*
X18026000Y-18587000D02*
X18056000Y-18617000D01*
X18056000Y-18587000D02*
X18026000Y-18617000D01*
X18028000Y-18732000D02*
X18058000Y-18762000D01*
X18058000Y-18732000D02*
X18028000Y-18762000D01*
X18051000Y-13388000D02*
X18081000Y-13418000D01*
X18081000Y-13388000D02*
X18051000Y-13418000D01*
X18119482Y-18485250D02*
X18149482Y-18515250D01*
X18149482Y-18485250D02*
X18119482Y-18515250D01*
X18156000Y-13879000D02*
X18186000Y-13909000D01*
X18186000Y-13879000D02*
X18156000Y-13909000D01*
X18216000Y-18733000D02*
X18246000Y-18763000D01*
X18246000Y-18733000D02*
X18216000Y-18763000D01*
X18319000Y-13387000D02*
X18349000Y-13417000D01*
X18349000Y-13387000D02*
X18319000Y-13417000D01*
X18319000Y-13539000D02*
X18349000Y-13569000D01*
X18349000Y-13539000D02*
X18319000Y-13569000D01*
X18368000Y-14933125D02*
X18398000Y-14963125D01*
X18398000Y-14933125D02*
X18368000Y-14963125D01*
X18369000Y-15457000D02*
X18399000Y-15487000D01*
X18399000Y-15457000D02*
X18369000Y-15487000D01*
X18377000Y-15358125D02*
X18407000Y-15388125D01*
X18407000Y-15358125D02*
X18377000Y-15388125D01*
X18461000Y-18733000D02*
X18491000Y-18763000D01*
X18491000Y-18733000D02*
X18461000Y-18763000D01*
X18538000Y-15568000D02*
X18568000Y-15598000D01*
X18568000Y-15568000D02*
X18538000Y-15598000D01*
X18671000Y-18733000D02*
X18701000Y-18763000D01*
X18701000Y-18733000D02*
X18671000Y-18763000D01*
X18853000Y-18733000D02*
X18883000Y-18763000D01*
X18883000Y-18733000D02*
X18853000Y-18763000D01*
X19075000Y-18733000D02*
X19105000Y-18763000D01*
X19105000Y-18733000D02*
X19075000Y-18763000D01*
X19108117Y-17995250D02*
X19138117Y-18025250D01*
X19138117Y-17995250D02*
X19108117Y-18025250D01*
X19334000Y-18733000D02*
X19364000Y-18763000D01*
X19364000Y-18733000D02*
X19334000Y-18763000D01*
X19347000Y-13028125D02*
X19377000Y-13058125D01*
X19377000Y-13028125D02*
X19347000Y-13058125D01*
X19440000Y-11659000D02*
X19470000Y-11689000D01*
X19470000Y-11659000D02*
X19440000Y-11689000D01*
X19552000Y-18402000D02*
X19582000Y-18432000D01*
X19582000Y-18402000D02*
X19552000Y-18432000D01*
X19596000Y-18733000D02*
X19626000Y-18763000D01*
X19626000Y-18733000D02*
X19596000Y-18763000D01*
X19671238Y-17961238D02*
X19701238Y-17991238D01*
X19701238Y-17961238D02*
X19671238Y-17991238D01*
X19759000Y-13028125D02*
X19789000Y-13058125D01*
X19789000Y-13028125D02*
X19759000Y-13058125D01*
X19784000Y-18733000D02*
X19814000Y-18763000D01*
X19814000Y-18733000D02*
X19784000Y-18763000D01*
X19789339Y-17317881D02*
X19819339Y-17347881D01*
X19819339Y-17317881D02*
X19789339Y-17347881D01*
X19898691Y-17403691D02*
X19928691Y-17433691D01*
X19928691Y-17403691D02*
X19898691Y-17433691D01*
X19963113Y-17340110D02*
X19993113Y-17370110D01*
X19993113Y-17340110D02*
X19963113Y-17370110D01*
X19972000Y-18733000D02*
X20002000Y-18763000D01*
X20002000Y-18733000D02*
X19972000Y-18763000D01*
X20152000Y-18733000D02*
X20182000Y-18763000D01*
X20182000Y-18733000D02*
X20152000Y-18763000D01*
X20327000Y-19243000D02*
X20357000Y-19273000D01*
X20357000Y-19243000D02*
X20327000Y-19273000D01*
X20340000Y-18733000D02*
X20370000Y-18763000D01*
X20370000Y-18733000D02*
X20340000Y-18763000D01*
X20340000Y-18906000D02*
X20370000Y-18936000D01*
X20370000Y-18906000D02*
X20340000Y-18936000D01*
X20488000Y-18813000D02*
X20518000Y-18843000D01*
X20518000Y-18813000D02*
X20488000Y-18843000D01*
X20672000Y-18851000D02*
X20702000Y-18881000D01*
X20702000Y-18851000D02*
X20672000Y-18881000D01*
X20810000Y-19228000D02*
X20840000Y-19258000D01*
X20840000Y-19228000D02*
X20810000Y-19258000D01*
X20812000Y-18733000D02*
X20842000Y-18763000D01*
X20842000Y-18733000D02*
X20812000Y-18763000D01*
X20812000Y-18989000D02*
X20842000Y-19019000D01*
X20842000Y-18989000D02*
X20812000Y-19019000D01*
X16434000Y-18760500D02*
G75*
G03*
X16434000Y-18760500I-15000J0D01*
G01*
D12*
X17360000Y-13801000D02*
X17360000Y-13841000D01*
X17340000Y-13821000D02*
X17380000Y-13821000D01*
D13*
X17203356Y-18261856D02*
X17203356Y-18191144D01*
X17132644Y-18191144D01*
X17132644Y-18261856D01*
X17203356Y-18261856D01*
X17457356Y-18261856D02*
X17457356Y-18191144D01*
X17386644Y-18191144D01*
X17386644Y-18261856D01*
X17457356Y-18261856D01*
X17711356Y-18261856D02*
X17711356Y-18191144D01*
X17640644Y-18191144D01*
X17640644Y-18261856D01*
X17711356Y-18261856D01*
X17965356Y-18261856D02*
X17965356Y-18191144D01*
X17894644Y-18191144D01*
X17894644Y-18261856D01*
X17965356Y-18261856D01*
D14*
X7715250Y-10614500D02*
X7788750Y-10541000D01*
X7715250Y-10467500D01*
X7641750Y-10541000D01*
X7715250Y-10614500D01*
X7953375Y-18234500D02*
X8026875Y-18161000D01*
X7953375Y-18087500D01*
X7879875Y-18161000D01*
X7953375Y-18234500D01*
X8191500Y-12519500D02*
X8265000Y-12446000D01*
X8191500Y-12372500D01*
X8118000Y-12446000D01*
X8191500Y-12519500D01*
X8350250Y-10360500D02*
X8423750Y-10287000D01*
X8350250Y-10213500D01*
X8276750Y-10287000D01*
X8350250Y-10360500D01*
X8429625Y-14424500D02*
X8503125Y-14351000D01*
X8429625Y-14277500D01*
X8356125Y-14351000D01*
X8429625Y-14424500D01*
X8588375Y-17980500D02*
X8661875Y-17907000D01*
X8588375Y-17833500D01*
X8514875Y-17907000D01*
X8588375Y-17980500D01*
X8826500Y-12265500D02*
X8900000Y-12192000D01*
X8826500Y-12118500D01*
X8753000Y-12192000D01*
X8826500Y-12265500D01*
X8905875Y-16329500D02*
X8979375Y-16256000D01*
X8905875Y-16182500D01*
X8832375Y-16256000D01*
X8905875Y-16329500D01*
X9064625Y-14170500D02*
X9138125Y-14097000D01*
X9064625Y-14023500D01*
X8991125Y-14097000D01*
X9064625Y-14170500D01*
X9540875Y-16075500D02*
X9614375Y-16002000D01*
X9540875Y-15928500D01*
X9467375Y-16002000D01*
X9540875Y-16075500D01*
X9620250Y-10614500D02*
X9693750Y-10541000D01*
X9620250Y-10467500D01*
X9546750Y-10541000D01*
X9620250Y-10614500D01*
X10255250Y-10360500D02*
X10328750Y-10287000D01*
X10255250Y-10213500D01*
X10181750Y-10287000D01*
X10255250Y-10360500D01*
X10334625Y-18234500D02*
X10408125Y-18161000D01*
X10334625Y-18087500D01*
X10261125Y-18161000D01*
X10334625Y-18234500D01*
X10572750Y-12519500D02*
X10646250Y-12446000D01*
X10572750Y-12372500D01*
X10499250Y-12446000D01*
X10572750Y-12519500D01*
X10969625Y-17980500D02*
X11043125Y-17907000D01*
X10969625Y-17833500D01*
X10896125Y-17907000D01*
X10969625Y-17980500D01*
X11049000Y-14424500D02*
X11122500Y-14351000D01*
X11049000Y-14277500D01*
X10975500Y-14351000D01*
X11049000Y-14424500D01*
X11207750Y-12265500D02*
X11281250Y-12192000D01*
X11207750Y-12118500D01*
X11134250Y-12192000D01*
X11207750Y-12265500D01*
X11525250Y-10614500D02*
X11598750Y-10541000D01*
X11525250Y-10467500D01*
X11451750Y-10541000D01*
X11525250Y-10614500D01*
X11684000Y-14170500D02*
X11757500Y-14097000D01*
X11684000Y-14023500D01*
X11610500Y-14097000D01*
X11684000Y-14170500D01*
X12001500Y-16329500D02*
X12075000Y-16256000D01*
X12001500Y-16182500D01*
X11928000Y-16256000D01*
X12001500Y-16329500D01*
X12160250Y-10360500D02*
X12233750Y-10287000D01*
X12160250Y-10213500D01*
X12086750Y-10287000D01*
X12160250Y-10360500D01*
X12477750Y-12519500D02*
X12551250Y-12446000D01*
X12477750Y-12372500D01*
X12404250Y-12446000D01*
X12477750Y-12519500D01*
X12636500Y-16075500D02*
X12710000Y-16002000D01*
X12636500Y-15928500D01*
X12563000Y-16002000D01*
X12636500Y-16075500D01*
X12715875Y-18234500D02*
X12789375Y-18161000D01*
X12715875Y-18087500D01*
X12642375Y-18161000D01*
X12715875Y-18234500D01*
X12954000Y-14424500D02*
X13027500Y-14351000D01*
X12954000Y-14277500D01*
X12880500Y-14351000D01*
X12954000Y-14424500D01*
X13112750Y-12265500D02*
X13186250Y-12192000D01*
X13112750Y-12118500D01*
X13039250Y-12192000D01*
X13112750Y-12265500D01*
X13350875Y-17980500D02*
X13424375Y-17907000D01*
X13350875Y-17833500D01*
X13277375Y-17907000D01*
X13350875Y-17980500D01*
X13430250Y-10614500D02*
X13503750Y-10541000D01*
X13430250Y-10467500D01*
X13356750Y-10541000D01*
X13430250Y-10614500D01*
X13589000Y-14170500D02*
X13662500Y-14097000D01*
X13589000Y-14023500D01*
X13515500Y-14097000D01*
X13589000Y-14170500D01*
X13906500Y-16329500D02*
X13980000Y-16256000D01*
X13906500Y-16182500D01*
X13833000Y-16256000D01*
X13906500Y-16329500D01*
X14065250Y-10360500D02*
X14138750Y-10287000D01*
X14065250Y-10213500D01*
X13991750Y-10287000D01*
X14065250Y-10360500D01*
X14382750Y-12519500D02*
X14456250Y-12446000D01*
X14382750Y-12372500D01*
X14309250Y-12446000D01*
X14382750Y-12519500D01*
X14541500Y-16075500D02*
X14615000Y-16002000D01*
X14541500Y-15928500D01*
X14468000Y-16002000D01*
X14541500Y-16075500D01*
X14859000Y-14424500D02*
X14932500Y-14351000D01*
X14859000Y-14277500D01*
X14785500Y-14351000D01*
X14859000Y-14424500D01*
X15017750Y-12265500D02*
X15091250Y-12192000D01*
X15017750Y-12118500D01*
X14944250Y-12192000D01*
X15017750Y-12265500D01*
X15097125Y-18234500D02*
X15170625Y-18161000D01*
X15097125Y-18087500D01*
X15023625Y-18161000D01*
X15097125Y-18234500D01*
X15335250Y-10614500D02*
X15408750Y-10541000D01*
X15335250Y-10467500D01*
X15261750Y-10541000D01*
X15335250Y-10614500D01*
X15494000Y-14170500D02*
X15567500Y-14097000D01*
X15494000Y-14023500D01*
X15420500Y-14097000D01*
X15494000Y-14170500D01*
X15732125Y-17980500D02*
X15805625Y-17907000D01*
X15732125Y-17833500D01*
X15658625Y-17907000D01*
X15732125Y-17980500D01*
X15811500Y-16329500D02*
X15885000Y-16256000D01*
X15811500Y-16182500D01*
X15738000Y-16256000D01*
X15811500Y-16329500D01*
X15970250Y-10360500D02*
X16043750Y-10287000D01*
X15970250Y-10213500D01*
X15896750Y-10287000D01*
X15970250Y-10360500D01*
X16287750Y-12519500D02*
X16361250Y-12446000D01*
X16287750Y-12372500D01*
X16214250Y-12446000D01*
X16287750Y-12519500D01*
X16446500Y-16075500D02*
X16520000Y-16002000D01*
X16446500Y-15928500D01*
X16373000Y-16002000D01*
X16446500Y-16075500D01*
X16764000Y-14424500D02*
X16837500Y-14351000D01*
X16764000Y-14277500D01*
X16690500Y-14351000D01*
X16764000Y-14424500D01*
X16922750Y-12265500D02*
X16996250Y-12192000D01*
X16922750Y-12118500D01*
X16849250Y-12192000D01*
X16922750Y-12265500D01*
X17240250Y-10614500D02*
X17313750Y-10541000D01*
X17240250Y-10467500D01*
X17166750Y-10541000D01*
X17240250Y-10614500D01*
X17399000Y-14170500D02*
X17472500Y-14097000D01*
X17399000Y-14023500D01*
X17325500Y-14097000D01*
X17399000Y-14170500D01*
X17716500Y-16329500D02*
X17790000Y-16256000D01*
X17716500Y-16182500D01*
X17643000Y-16256000D01*
X17716500Y-16329500D01*
X17875250Y-10360500D02*
X17948750Y-10287000D01*
X17875250Y-10213500D01*
X17801750Y-10287000D01*
X17875250Y-10360500D01*
X18192750Y-12519500D02*
X18266250Y-12446000D01*
X18192750Y-12372500D01*
X18119250Y-12446000D01*
X18192750Y-12519500D01*
X18351500Y-16075500D02*
X18425000Y-16002000D01*
X18351500Y-15928500D01*
X18278000Y-16002000D01*
X18351500Y-16075500D01*
X18669000Y-14424500D02*
X18742500Y-14351000D01*
X18669000Y-14277500D01*
X18595500Y-14351000D01*
X18669000Y-14424500D01*
X18827750Y-12265500D02*
X18901250Y-12192000D01*
X18827750Y-12118500D01*
X18754250Y-12192000D01*
X18827750Y-12265500D01*
X18907125Y-18234500D02*
X18980625Y-18161000D01*
X18907125Y-18087500D01*
X18833625Y-18161000D01*
X18907125Y-18234500D01*
X19145250Y-10614500D02*
X19218750Y-10541000D01*
X19145250Y-10467500D01*
X19071750Y-10541000D01*
X19145250Y-10614500D01*
X19304000Y-14170500D02*
X19377500Y-14097000D01*
X19304000Y-14023500D01*
X19230500Y-14097000D01*
X19304000Y-14170500D01*
X19542125Y-17980500D02*
X19615625Y-17907000D01*
X19542125Y-17833500D01*
X19468625Y-17907000D01*
X19542125Y-17980500D01*
X19621500Y-16329500D02*
X19695000Y-16256000D01*
X19621500Y-16182500D01*
X19548000Y-16256000D01*
X19621500Y-16329500D01*
X19780250Y-10360500D02*
X19853750Y-10287000D01*
X19780250Y-10213500D01*
X19706750Y-10287000D01*
X19780250Y-10360500D01*
X19859625Y-18234500D02*
X19933125Y-18161000D01*
X19859625Y-18087500D01*
X19786125Y-18161000D01*
X19859625Y-18234500D01*
X20097750Y-12519500D02*
X20171250Y-12446000D01*
X20097750Y-12372500D01*
X20024250Y-12446000D01*
X20097750Y-12519500D01*
X20256500Y-16075500D02*
X20330000Y-16002000D01*
X20256500Y-15928500D01*
X20183000Y-16002000D01*
X20256500Y-16075500D01*
X20494625Y-17980500D02*
X20568125Y-17907000D01*
X20494625Y-17833500D01*
X20421125Y-17907000D01*
X20494625Y-17980500D01*
X20574000Y-14424500D02*
X20647500Y-14351000D01*
X20574000Y-14277500D01*
X20500500Y-14351000D01*
X20574000Y-14424500D01*
X20732750Y-12265500D02*
X20806250Y-12192000D01*
X20732750Y-12118500D01*
X20659250Y-12192000D01*
X20732750Y-12265500D01*
X21050250Y-10614500D02*
X21123750Y-10541000D01*
X21050250Y-10467500D01*
X20976750Y-10541000D01*
X21050250Y-10614500D01*
X21209000Y-14170500D02*
X21282500Y-14097000D01*
X21209000Y-14023500D01*
X21135500Y-14097000D01*
X21209000Y-14170500D01*
X21526500Y-16329500D02*
X21600000Y-16256000D01*
X21526500Y-16182500D01*
X21453000Y-16256000D01*
X21526500Y-16329500D01*
X21685250Y-10360500D02*
X21758750Y-10287000D01*
X21685250Y-10213500D01*
X21611750Y-10287000D01*
X21685250Y-10360500D01*
X22002750Y-12519500D02*
X22076250Y-12446000D01*
X22002750Y-12372500D01*
X21929250Y-12446000D01*
X22002750Y-12519500D01*
X22161500Y-16075500D02*
X22235000Y-16002000D01*
X22161500Y-15928500D01*
X22088000Y-16002000D01*
X22161500Y-16075500D01*
X22479000Y-14424500D02*
X22552500Y-14351000D01*
X22479000Y-14277500D01*
X22405500Y-14351000D01*
X22479000Y-14424500D01*
X22637750Y-12265500D02*
X22711250Y-12192000D01*
X22637750Y-12118500D01*
X22564250Y-12192000D01*
X22637750Y-12265500D01*
X22955250Y-10614500D02*
X23028750Y-10541000D01*
X22955250Y-10467500D01*
X22881750Y-10541000D01*
X22955250Y-10614500D01*
X23114000Y-14170500D02*
X23187500Y-14097000D01*
X23114000Y-14023500D01*
X23040500Y-14097000D01*
X23114000Y-14170500D01*
X23431500Y-16329500D02*
X23505000Y-16256000D01*
X23431500Y-16182500D01*
X23358000Y-16256000D01*
X23431500Y-16329500D01*
X23590250Y-10360500D02*
X23663750Y-10287000D01*
X23590250Y-10213500D01*
X23516750Y-10287000D01*
X23590250Y-10360500D01*
X23669625Y-18234500D02*
X23743125Y-18161000D01*
X23669625Y-18087500D01*
X23596125Y-18161000D01*
X23669625Y-18234500D01*
X23907750Y-12519500D02*
X23981250Y-12446000D01*
X23907750Y-12372500D01*
X23834250Y-12446000D01*
X23907750Y-12519500D01*
X24066500Y-16075500D02*
X24140000Y-16002000D01*
X24066500Y-15928500D01*
X23993000Y-16002000D01*
X24066500Y-16075500D01*
X24304625Y-17980500D02*
X24378125Y-17907000D01*
X24304625Y-17833500D01*
X24231125Y-17907000D01*
X24304625Y-17980500D01*
X24384000Y-14424500D02*
X24457500Y-14351000D01*
X24384000Y-14277500D01*
X24310500Y-14351000D01*
X24384000Y-14424500D01*
X24542750Y-12265500D02*
X24616250Y-12192000D01*
X24542750Y-12118500D01*
X24469250Y-12192000D01*
X24542750Y-12265500D01*
X24860250Y-10614500D02*
X24933750Y-10541000D01*
X24860250Y-10467500D01*
X24786750Y-10541000D01*
X24860250Y-10614500D01*
X25019000Y-14170500D02*
X25092500Y-14097000D01*
X25019000Y-14023500D01*
X24945500Y-14097000D01*
X25019000Y-14170500D01*
X25336500Y-16329500D02*
X25410000Y-16256000D01*
X25336500Y-16182500D01*
X25263000Y-16256000D01*
X25336500Y-16329500D01*
X25495250Y-10360500D02*
X25568750Y-10287000D01*
X25495250Y-10213500D01*
X25421750Y-10287000D01*
X25495250Y-10360500D01*
X25812750Y-12519500D02*
X25886250Y-12446000D01*
X25812750Y-12372500D01*
X25739250Y-12446000D01*
X25812750Y-12519500D01*
X25971500Y-16075500D02*
X26045000Y-16002000D01*
X25971500Y-15928500D01*
X25898000Y-16002000D01*
X25971500Y-16075500D01*
X26289000Y-14424500D02*
X26362500Y-14351000D01*
X26289000Y-14277500D01*
X26215500Y-14351000D01*
X26289000Y-14424500D01*
X26447750Y-12265500D02*
X26521250Y-12192000D01*
X26447750Y-12118500D01*
X26374250Y-12192000D01*
X26447750Y-12265500D01*
X26765250Y-10614500D02*
X26838750Y-10541000D01*
X26765250Y-10467500D01*
X26691750Y-10541000D01*
X26765250Y-10614500D01*
X26924000Y-14170500D02*
X26997500Y-14097000D01*
X26924000Y-14023500D01*
X26850500Y-14097000D01*
X26924000Y-14170500D01*
X27003375Y-18234500D02*
X27076875Y-18161000D01*
X27003375Y-18087500D01*
X26929875Y-18161000D01*
X27003375Y-18234500D01*
X27241500Y-16329500D02*
X27315000Y-16256000D01*
X27241500Y-16182500D01*
X27168000Y-16256000D01*
X27241500Y-16329500D01*
X27400250Y-10360500D02*
X27473750Y-10287000D01*
X27400250Y-10213500D01*
X27326750Y-10287000D01*
X27400250Y-10360500D01*
X27638375Y-17980500D02*
X27711875Y-17907000D01*
X27638375Y-17833500D01*
X27564875Y-17907000D01*
X27638375Y-17980500D01*
X27717750Y-12519500D02*
X27791250Y-12446000D01*
X27717750Y-12372500D01*
X27644250Y-12446000D01*
X27717750Y-12519500D01*
X27876500Y-16075500D02*
X27950000Y-16002000D01*
X27876500Y-15928500D01*
X27803000Y-16002000D01*
X27876500Y-16075500D01*
X28194000Y-14424500D02*
X28267500Y-14351000D01*
X28194000Y-14277500D01*
X28120500Y-14351000D01*
X28194000Y-14424500D01*
X28352750Y-12265500D02*
X28426250Y-12192000D01*
X28352750Y-12118500D01*
X28279250Y-12192000D01*
X28352750Y-12265500D01*
X28670250Y-10614500D02*
X28743750Y-10541000D01*
X28670250Y-10467500D01*
X28596750Y-10541000D01*
X28670250Y-10614500D01*
X28829000Y-14170500D02*
X28902500Y-14097000D01*
X28829000Y-14023500D01*
X28755500Y-14097000D01*
X28829000Y-14170500D01*
X29146500Y-16329500D02*
X29220000Y-16256000D01*
X29146500Y-16182500D01*
X29073000Y-16256000D01*
X29146500Y-16329500D01*
X29305250Y-10360500D02*
X29378750Y-10287000D01*
X29305250Y-10213500D01*
X29231750Y-10287000D01*
X29305250Y-10360500D01*
X29384625Y-18234500D02*
X29458125Y-18161000D01*
X29384625Y-18087500D01*
X29311125Y-18161000D01*
X29384625Y-18234500D01*
X29622750Y-12519500D02*
X29696250Y-12446000D01*
X29622750Y-12372500D01*
X29549250Y-12446000D01*
X29622750Y-12519500D01*
X29781500Y-16075500D02*
X29855000Y-16002000D01*
X29781500Y-15928500D01*
X29708000Y-16002000D01*
X29781500Y-16075500D01*
X30019625Y-17980500D02*
X30093125Y-17907000D01*
X30019625Y-17833500D01*
X29946125Y-17907000D01*
X30019625Y-17980500D01*
X30099000Y-14424500D02*
X30172500Y-14351000D01*
X30099000Y-14277500D01*
X30025500Y-14351000D01*
X30099000Y-14424500D01*
X30257750Y-12265500D02*
X30331250Y-12192000D01*
X30257750Y-12118500D01*
X30184250Y-12192000D01*
X30257750Y-12265500D01*
X30575250Y-10614500D02*
X30648750Y-10541000D01*
X30575250Y-10467500D01*
X30501750Y-10541000D01*
X30575250Y-10614500D01*
X30734000Y-14170500D02*
X30807500Y-14097000D01*
X30734000Y-14023500D01*
X30660500Y-14097000D01*
X30734000Y-14170500D01*
X31210250Y-10360500D02*
X31283750Y-10287000D01*
X31210250Y-10213500D01*
X31136750Y-10287000D01*
X31210250Y-10360500D01*
X31527750Y-12519500D02*
X31601250Y-12446000D01*
X31527750Y-12372500D01*
X31454250Y-12446000D01*
X31527750Y-12519500D01*
X31765875Y-18234500D02*
X31839375Y-18161000D01*
X31765875Y-18087500D01*
X31692375Y-18161000D01*
X31765875Y-18234500D01*
X32162750Y-12265500D02*
X32236250Y-12192000D01*
X32162750Y-12118500D01*
X32089250Y-12192000D01*
X32162750Y-12265500D01*
X32400875Y-17980500D02*
X32474375Y-17907000D01*
X32400875Y-17833500D01*
X32327375Y-17907000D01*
X32400875Y-17980500D01*
X32718375Y-16329500D02*
X32791875Y-16256000D01*
X32718375Y-16182500D01*
X32644875Y-16256000D01*
X32718375Y-16329500D01*
X33194625Y-14424500D02*
X33268125Y-14351000D01*
X33194625Y-14277500D01*
X33121125Y-14351000D01*
X33194625Y-14424500D01*
X33353375Y-16075500D02*
X33426875Y-16002000D01*
X33353375Y-15928500D01*
X33279875Y-16002000D01*
X33353375Y-16075500D01*
X33432750Y-10614500D02*
X33506250Y-10541000D01*
X33432750Y-10467500D01*
X33359250Y-10541000D01*
X33432750Y-10614500D01*
X33829625Y-14170500D02*
X33903125Y-14097000D01*
X33829625Y-14023500D01*
X33756125Y-14097000D01*
X33829625Y-14170500D01*
X33909000Y-12519500D02*
X33982500Y-12446000D01*
X33909000Y-12372500D01*
X33835500Y-12446000D01*
X33909000Y-12519500D01*
X34067750Y-10360500D02*
X34141250Y-10287000D01*
X34067750Y-10213500D01*
X33994250Y-10287000D01*
X34067750Y-10360500D01*
X34147125Y-18234500D02*
X34220625Y-18161000D01*
X34147125Y-18087500D01*
X34073625Y-18161000D01*
X34147125Y-18234500D01*
X34544000Y-12265500D02*
X34617500Y-12192000D01*
X34544000Y-12118500D01*
X34470500Y-12192000D01*
X34544000Y-12265500D01*
X34782125Y-17980500D02*
X34855625Y-17907000D01*
X34782125Y-17833500D01*
X34708625Y-17907000D01*
X34782125Y-17980500D01*
D15*
X19876282Y-14450032D02*
X20126218Y-14699968D01*
X20126218Y-14450032D02*
X19876282Y-14699968D01*
X20126218Y-14575000D02*
G75*
G03*
X20126218Y-14575000I-124968J0D01*
G01*
D10*
X19876155Y-14699968D02*
X20126345Y-14699968D01*
X20126345Y-14699968D02*
G75*
G03*
X20126345Y-14450032I0J124968D01*
G01*
X20126345Y-14450032D02*
X19876155Y-14450032D01*
X19876155Y-14450032D02*
G75*
G03*
X19876155Y-14699968I0J-124968D01*
G01*
D15*
X26106282Y-18270032D02*
X26356218Y-18519968D01*
X26356218Y-18270032D02*
X26106282Y-18519968D01*
X26356218Y-18395000D02*
G75*
G03*
X26356218Y-18395000I-124968J0D01*
G01*
D10*
X26106155Y-18519968D02*
X26356345Y-18519968D01*
X26356345Y-18519968D02*
G75*
G03*
X26356345Y-18270032I0J124968D01*
G01*
X26356345Y-18270032D02*
X26106155Y-18270032D01*
X26106155Y-18270032D02*
G75*
G03*
X26106155Y-18519968I0J-124968D01*
G01*
D15*
X33061282Y-12540032D02*
X33311218Y-12789968D01*
X33311218Y-12540032D02*
X33061282Y-12789968D01*
X33311218Y-12665000D02*
G75*
G03*
X33311218Y-12665000I-124968J0D01*
G01*
D10*
X33061155Y-12789968D02*
X33311345Y-12789968D01*
X33311345Y-12789968D02*
G75*
G03*
X33311345Y-12540032I0J124968D01*
G01*
X33311345Y-12540032D02*
X33061155Y-12540032D01*
X33061155Y-12540032D02*
G75*
G03*
X33061155Y-12789968I0J-124968D01*
G01*
D16*
X9576280Y-12540030D02*
X9826220Y-12789970D01*
X9826220Y-12540030D02*
X9576280Y-12789970D01*
X9701250Y-12540030D02*
X9701250Y-12789970D01*
X9576280Y-12665000D02*
X9826220Y-12665000D01*
D10*
X7427027Y-19661484D02*
X7427027Y-19461484D01*
X7427027Y-19461484D02*
X7474646Y-19461484D01*
X7474646Y-19461484D02*
X7503217Y-19471008D01*
X7503217Y-19471008D02*
X7522265Y-19490055D01*
X7522265Y-19490055D02*
X7531789Y-19509103D01*
X7531789Y-19509103D02*
X7541312Y-19547198D01*
X7541312Y-19547198D02*
X7541312Y-19575770D01*
X7541312Y-19575770D02*
X7531789Y-19613865D01*
X7531789Y-19613865D02*
X7522265Y-19632912D01*
X7522265Y-19632912D02*
X7503217Y-19651960D01*
X7503217Y-19651960D02*
X7474646Y-19661484D01*
X7474646Y-19661484D02*
X7427027Y-19661484D01*
X7627027Y-19661484D02*
X7627027Y-19528150D01*
X7627027Y-19566246D02*
X7636551Y-19547198D01*
X7636551Y-19547198D02*
X7646074Y-19537674D01*
X7646074Y-19537674D02*
X7665122Y-19528150D01*
X7665122Y-19528150D02*
X7684170Y-19528150D01*
X7750836Y-19661484D02*
X7750836Y-19528150D01*
X7750836Y-19461484D02*
X7741312Y-19471008D01*
X7741312Y-19471008D02*
X7750836Y-19480531D01*
X7750836Y-19480531D02*
X7760360Y-19471008D01*
X7760360Y-19471008D02*
X7750836Y-19461484D01*
X7750836Y-19461484D02*
X7750836Y-19480531D01*
X7874646Y-19661484D02*
X7855598Y-19651960D01*
X7855598Y-19651960D02*
X7846074Y-19632912D01*
X7846074Y-19632912D02*
X7846074Y-19461484D01*
X7979408Y-19661484D02*
X7960360Y-19651960D01*
X7960360Y-19651960D02*
X7950836Y-19632912D01*
X7950836Y-19632912D02*
X7950836Y-19461484D01*
X8207979Y-19661484D02*
X8207979Y-19461484D01*
X8207979Y-19461484D02*
X8274646Y-19604341D01*
X8274646Y-19604341D02*
X8341312Y-19461484D01*
X8341312Y-19461484D02*
X8341312Y-19661484D01*
X8522265Y-19661484D02*
X8522265Y-19556722D01*
X8522265Y-19556722D02*
X8512741Y-19537674D01*
X8512741Y-19537674D02*
X8493694Y-19528150D01*
X8493694Y-19528150D02*
X8455598Y-19528150D01*
X8455598Y-19528150D02*
X8436551Y-19537674D01*
X8522265Y-19651960D02*
X8503217Y-19661484D01*
X8503217Y-19661484D02*
X8455598Y-19661484D01*
X8455598Y-19661484D02*
X8436551Y-19651960D01*
X8436551Y-19651960D02*
X8427027Y-19632912D01*
X8427027Y-19632912D02*
X8427027Y-19613865D01*
X8427027Y-19613865D02*
X8436551Y-19594817D01*
X8436551Y-19594817D02*
X8455598Y-19585293D01*
X8455598Y-19585293D02*
X8503217Y-19585293D01*
X8503217Y-19585293D02*
X8522265Y-19575770D01*
X8617503Y-19528150D02*
X8617503Y-19728150D01*
X8617503Y-19537674D02*
X8636551Y-19528150D01*
X8636551Y-19528150D02*
X8674646Y-19528150D01*
X8674646Y-19528150D02*
X8693694Y-19537674D01*
X8693694Y-19537674D02*
X8703217Y-19547198D01*
X8703217Y-19547198D02*
X8712741Y-19566246D01*
X8712741Y-19566246D02*
X8712741Y-19623389D01*
X8712741Y-19623389D02*
X8703217Y-19642436D01*
X8703217Y-19642436D02*
X8693694Y-19651960D01*
X8693694Y-19651960D02*
X8674646Y-19661484D01*
X8674646Y-19661484D02*
X8636551Y-19661484D01*
X8636551Y-19661484D02*
X8617503Y-19651960D01*
X8798455Y-19642436D02*
X8807979Y-19651960D01*
X8807979Y-19651960D02*
X8798455Y-19661484D01*
X8798455Y-19661484D02*
X8788932Y-19651960D01*
X8788932Y-19651960D02*
X8798455Y-19642436D01*
X8798455Y-19642436D02*
X8798455Y-19661484D01*
X8798455Y-19537674D02*
X8807979Y-19547198D01*
X8807979Y-19547198D02*
X8798455Y-19556722D01*
X8798455Y-19556722D02*
X8788932Y-19547198D01*
X8788932Y-19547198D02*
X8798455Y-19537674D01*
X8798455Y-19537674D02*
X8798455Y-19556722D01*
D11*
X7136250Y-19975000D02*
X7166250Y-20005000D01*
X7166250Y-19975000D02*
X7136250Y-20005000D01*
D10*
X7465122Y-19881484D02*
X7484170Y-19881484D01*
X7484170Y-19881484D02*
X7503217Y-19891008D01*
X7503217Y-19891008D02*
X7512741Y-19900531D01*
X7512741Y-19900531D02*
X7522265Y-19919579D01*
X7522265Y-19919579D02*
X7531789Y-19957674D01*
X7531789Y-19957674D02*
X7531789Y-20005293D01*
X7531789Y-20005293D02*
X7522265Y-20043389D01*
X7522265Y-20043389D02*
X7512741Y-20062436D01*
X7512741Y-20062436D02*
X7503217Y-20071960D01*
X7503217Y-20071960D02*
X7484170Y-20081484D01*
X7484170Y-20081484D02*
X7465122Y-20081484D01*
X7465122Y-20081484D02*
X7446074Y-20071960D01*
X7446074Y-20071960D02*
X7436551Y-20062436D01*
X7436551Y-20062436D02*
X7427027Y-20043389D01*
X7427027Y-20043389D02*
X7417503Y-20005293D01*
X7417503Y-20005293D02*
X7417503Y-19957674D01*
X7417503Y-19957674D02*
X7427027Y-19919579D01*
X7427027Y-19919579D02*
X7436551Y-19900531D01*
X7436551Y-19900531D02*
X7446074Y-19891008D01*
X7446074Y-19891008D02*
X7465122Y-19881484D01*
X7617503Y-20062436D02*
X7627027Y-20071960D01*
X7627027Y-20071960D02*
X7617503Y-20081484D01*
X7617503Y-20081484D02*
X7607979Y-20071960D01*
X7607979Y-20071960D02*
X7617503Y-20062436D01*
X7617503Y-20062436D02*
X7617503Y-20081484D01*
X7693693Y-19881484D02*
X7817503Y-19881484D01*
X7817503Y-19881484D02*
X7750836Y-19957674D01*
X7750836Y-19957674D02*
X7779408Y-19957674D01*
X7779408Y-19957674D02*
X7798455Y-19967198D01*
X7798455Y-19967198D02*
X7807979Y-19976722D01*
X7807979Y-19976722D02*
X7817503Y-19995770D01*
X7817503Y-19995770D02*
X7817503Y-20043389D01*
X7817503Y-20043389D02*
X7807979Y-20062436D01*
X7807979Y-20062436D02*
X7798455Y-20071960D01*
X7798455Y-20071960D02*
X7779408Y-20081484D01*
X7779408Y-20081484D02*
X7722265Y-20081484D01*
X7722265Y-20081484D02*
X7703217Y-20071960D01*
X7703217Y-20071960D02*
X7693693Y-20062436D01*
X7941312Y-19881484D02*
X7960360Y-19881484D01*
X7960360Y-19881484D02*
X7979408Y-19891008D01*
X7979408Y-19891008D02*
X7988932Y-19900531D01*
X7988932Y-19900531D02*
X7998455Y-19919579D01*
X7998455Y-19919579D02*
X8007979Y-19957674D01*
X8007979Y-19957674D02*
X8007979Y-20005293D01*
X8007979Y-20005293D02*
X7998455Y-20043389D01*
X7998455Y-20043389D02*
X7988932Y-20062436D01*
X7988932Y-20062436D02*
X7979408Y-20071960D01*
X7979408Y-20071960D02*
X7960360Y-20081484D01*
X7960360Y-20081484D02*
X7941312Y-20081484D01*
X7941312Y-20081484D02*
X7922265Y-20071960D01*
X7922265Y-20071960D02*
X7912741Y-20062436D01*
X7912741Y-20062436D02*
X7903217Y-20043389D01*
X7903217Y-20043389D02*
X7893693Y-20005293D01*
X7893693Y-20005293D02*
X7893693Y-19957674D01*
X7893693Y-19957674D02*
X7903217Y-19919579D01*
X7903217Y-19919579D02*
X7912741Y-19900531D01*
X7912741Y-19900531D02*
X7922265Y-19891008D01*
X7922265Y-19891008D02*
X7941312Y-19881484D01*
X8131789Y-19881484D02*
X8150836Y-19881484D01*
X8150836Y-19881484D02*
X8169884Y-19891008D01*
X8169884Y-19891008D02*
X8179408Y-19900531D01*
X8179408Y-19900531D02*
X8188932Y-19919579D01*
X8188932Y-19919579D02*
X8198455Y-19957674D01*
X8198455Y-19957674D02*
X8198455Y-20005293D01*
X8198455Y-20005293D02*
X8188932Y-20043389D01*
X8188932Y-20043389D02*
X8179408Y-20062436D01*
X8179408Y-20062436D02*
X8169884Y-20071960D01*
X8169884Y-20071960D02*
X8150836Y-20081484D01*
X8150836Y-20081484D02*
X8131789Y-20081484D01*
X8131789Y-20081484D02*
X8112741Y-20071960D01*
X8112741Y-20071960D02*
X8103217Y-20062436D01*
X8103217Y-20062436D02*
X8093693Y-20043389D01*
X8093693Y-20043389D02*
X8084170Y-20005293D01*
X8084170Y-20005293D02*
X8084170Y-19957674D01*
X8084170Y-19957674D02*
X8093693Y-19919579D01*
X8093693Y-19919579D02*
X8103217Y-19900531D01*
X8103217Y-19900531D02*
X8112741Y-19891008D01*
X8112741Y-19891008D02*
X8131789Y-19881484D01*
X8284170Y-20081484D02*
X8284170Y-19948150D01*
X8284170Y-19967198D02*
X8293693Y-19957674D01*
X8293693Y-19957674D02*
X8312741Y-19948150D01*
X8312741Y-19948150D02*
X8341313Y-19948150D01*
X8341313Y-19948150D02*
X8360360Y-19957674D01*
X8360360Y-19957674D02*
X8369884Y-19976722D01*
X8369884Y-19976722D02*
X8369884Y-20081484D01*
X8369884Y-19976722D02*
X8379408Y-19957674D01*
X8379408Y-19957674D02*
X8398455Y-19948150D01*
X8398455Y-19948150D02*
X8427027Y-19948150D01*
X8427027Y-19948150D02*
X8446075Y-19957674D01*
X8446075Y-19957674D02*
X8455598Y-19976722D01*
X8455598Y-19976722D02*
X8455598Y-20081484D01*
X8550836Y-20081484D02*
X8550836Y-19948150D01*
X8550836Y-19967198D02*
X8560360Y-19957674D01*
X8560360Y-19957674D02*
X8579408Y-19948150D01*
X8579408Y-19948150D02*
X8607979Y-19948150D01*
X8607979Y-19948150D02*
X8627027Y-19957674D01*
X8627027Y-19957674D02*
X8636551Y-19976722D01*
X8636551Y-19976722D02*
X8636551Y-20081484D01*
X8636551Y-19976722D02*
X8646075Y-19957674D01*
X8646075Y-19957674D02*
X8665122Y-19948150D01*
X8665122Y-19948150D02*
X8693694Y-19948150D01*
X8693694Y-19948150D02*
X8712741Y-19957674D01*
X8712741Y-19957674D02*
X8722265Y-19976722D01*
X8722265Y-19976722D02*
X8722265Y-20081484D01*
X9112741Y-19871960D02*
X8941313Y-20129103D01*
X9369884Y-19881484D02*
X9388932Y-19881484D01*
X9388932Y-19881484D02*
X9407979Y-19891008D01*
X9407979Y-19891008D02*
X9417503Y-19900531D01*
X9417503Y-19900531D02*
X9427027Y-19919579D01*
X9427027Y-19919579D02*
X9436551Y-19957674D01*
X9436551Y-19957674D02*
X9436551Y-20005293D01*
X9436551Y-20005293D02*
X9427027Y-20043389D01*
X9427027Y-20043389D02*
X9417503Y-20062436D01*
X9417503Y-20062436D02*
X9407979Y-20071960D01*
X9407979Y-20071960D02*
X9388932Y-20081484D01*
X9388932Y-20081484D02*
X9369884Y-20081484D01*
X9369884Y-20081484D02*
X9350837Y-20071960D01*
X9350837Y-20071960D02*
X9341313Y-20062436D01*
X9341313Y-20062436D02*
X9331789Y-20043389D01*
X9331789Y-20043389D02*
X9322265Y-20005293D01*
X9322265Y-20005293D02*
X9322265Y-19957674D01*
X9322265Y-19957674D02*
X9331789Y-19919579D01*
X9331789Y-19919579D02*
X9341313Y-19900531D01*
X9341313Y-19900531D02*
X9350837Y-19891008D01*
X9350837Y-19891008D02*
X9369884Y-19881484D01*
X9522265Y-20062436D02*
X9531789Y-20071960D01*
X9531789Y-20071960D02*
X9522265Y-20081484D01*
X9522265Y-20081484D02*
X9512741Y-20071960D01*
X9512741Y-20071960D02*
X9522265Y-20062436D01*
X9522265Y-20062436D02*
X9522265Y-20081484D01*
X9655598Y-19881484D02*
X9674646Y-19881484D01*
X9674646Y-19881484D02*
X9693694Y-19891008D01*
X9693694Y-19891008D02*
X9703218Y-19900531D01*
X9703218Y-19900531D02*
X9712741Y-19919579D01*
X9712741Y-19919579D02*
X9722265Y-19957674D01*
X9722265Y-19957674D02*
X9722265Y-20005293D01*
X9722265Y-20005293D02*
X9712741Y-20043389D01*
X9712741Y-20043389D02*
X9703218Y-20062436D01*
X9703218Y-20062436D02*
X9693694Y-20071960D01*
X9693694Y-20071960D02*
X9674646Y-20081484D01*
X9674646Y-20081484D02*
X9655598Y-20081484D01*
X9655598Y-20081484D02*
X9636551Y-20071960D01*
X9636551Y-20071960D02*
X9627027Y-20062436D01*
X9627027Y-20062436D02*
X9617503Y-20043389D01*
X9617503Y-20043389D02*
X9607979Y-20005293D01*
X9607979Y-20005293D02*
X9607979Y-19957674D01*
X9607979Y-19957674D02*
X9617503Y-19919579D01*
X9617503Y-19919579D02*
X9627027Y-19900531D01*
X9627027Y-19900531D02*
X9636551Y-19891008D01*
X9636551Y-19891008D02*
X9655598Y-19881484D01*
X9912741Y-20081484D02*
X9798456Y-20081484D01*
X9855598Y-20081484D02*
X9855598Y-19881484D01*
X9855598Y-19881484D02*
X9836551Y-19910055D01*
X9836551Y-19910055D02*
X9817503Y-19929103D01*
X9817503Y-19929103D02*
X9798456Y-19938627D01*
X10103218Y-20081484D02*
X9988932Y-20081484D01*
X10046075Y-20081484D02*
X10046075Y-19881484D01*
X10046075Y-19881484D02*
X10027027Y-19910055D01*
X10027027Y-19910055D02*
X10007979Y-19929103D01*
X10007979Y-19929103D02*
X9988932Y-19938627D01*
X10217503Y-19967198D02*
X10198456Y-19957674D01*
X10198456Y-19957674D02*
X10188932Y-19948150D01*
X10188932Y-19948150D02*
X10179408Y-19929103D01*
X10179408Y-19929103D02*
X10179408Y-19919579D01*
X10179408Y-19919579D02*
X10188932Y-19900531D01*
X10188932Y-19900531D02*
X10198456Y-19891008D01*
X10198456Y-19891008D02*
X10217503Y-19881484D01*
X10217503Y-19881484D02*
X10255599Y-19881484D01*
X10255599Y-19881484D02*
X10274646Y-19891008D01*
X10274646Y-19891008D02*
X10284170Y-19900531D01*
X10284170Y-19900531D02*
X10293694Y-19919579D01*
X10293694Y-19919579D02*
X10293694Y-19929103D01*
X10293694Y-19929103D02*
X10284170Y-19948150D01*
X10284170Y-19948150D02*
X10274646Y-19957674D01*
X10274646Y-19957674D02*
X10255599Y-19967198D01*
X10255599Y-19967198D02*
X10217503Y-19967198D01*
X10217503Y-19967198D02*
X10198456Y-19976722D01*
X10198456Y-19976722D02*
X10188932Y-19986246D01*
X10188932Y-19986246D02*
X10179408Y-20005293D01*
X10179408Y-20005293D02*
X10179408Y-20043389D01*
X10179408Y-20043389D02*
X10188932Y-20062436D01*
X10188932Y-20062436D02*
X10198456Y-20071960D01*
X10198456Y-20071960D02*
X10217503Y-20081484D01*
X10217503Y-20081484D02*
X10255599Y-20081484D01*
X10255599Y-20081484D02*
X10274646Y-20071960D01*
X10274646Y-20071960D02*
X10284170Y-20062436D01*
X10284170Y-20062436D02*
X10293694Y-20043389D01*
X10293694Y-20043389D02*
X10293694Y-20005293D01*
X10293694Y-20005293D02*
X10284170Y-19986246D01*
X10284170Y-19986246D02*
X10274646Y-19976722D01*
X10274646Y-19976722D02*
X10255599Y-19967198D01*
X10369884Y-19881484D02*
X10369884Y-19919579D01*
X10446075Y-19881484D02*
X10446075Y-19919579D01*
X10741313Y-20157674D02*
X10731789Y-20148150D01*
X10731789Y-20148150D02*
X10712741Y-20119579D01*
X10712741Y-20119579D02*
X10703218Y-20100531D01*
X10703218Y-20100531D02*
X10693694Y-20071960D01*
X10693694Y-20071960D02*
X10684170Y-20024341D01*
X10684170Y-20024341D02*
X10684170Y-19986246D01*
X10684170Y-19986246D02*
X10693694Y-19938627D01*
X10693694Y-19938627D02*
X10703218Y-19910055D01*
X10703218Y-19910055D02*
X10712741Y-19891008D01*
X10712741Y-19891008D02*
X10731789Y-19862436D01*
X10731789Y-19862436D02*
X10741313Y-19852912D01*
X10922265Y-20081484D02*
X10807980Y-20081484D01*
X10865122Y-20081484D02*
X10865122Y-19881484D01*
X10865122Y-19881484D02*
X10846075Y-19910055D01*
X10846075Y-19910055D02*
X10827027Y-19929103D01*
X10827027Y-19929103D02*
X10807980Y-19938627D01*
X11093694Y-19881484D02*
X11055599Y-19881484D01*
X11055599Y-19881484D02*
X11036551Y-19891008D01*
X11036551Y-19891008D02*
X11027027Y-19900531D01*
X11027027Y-19900531D02*
X11007980Y-19929103D01*
X11007980Y-19929103D02*
X10998456Y-19967198D01*
X10998456Y-19967198D02*
X10998456Y-20043389D01*
X10998456Y-20043389D02*
X11007980Y-20062436D01*
X11007980Y-20062436D02*
X11017503Y-20071960D01*
X11017503Y-20071960D02*
X11036551Y-20081484D01*
X11036551Y-20081484D02*
X11074646Y-20081484D01*
X11074646Y-20081484D02*
X11093694Y-20071960D01*
X11093694Y-20071960D02*
X11103218Y-20062436D01*
X11103218Y-20062436D02*
X11112741Y-20043389D01*
X11112741Y-20043389D02*
X11112741Y-19995770D01*
X11112741Y-19995770D02*
X11103218Y-19976722D01*
X11103218Y-19976722D02*
X11093694Y-19967198D01*
X11093694Y-19967198D02*
X11074646Y-19957674D01*
X11074646Y-19957674D02*
X11036551Y-19957674D01*
X11036551Y-19957674D02*
X11017503Y-19967198D01*
X11017503Y-19967198D02*
X11007980Y-19976722D01*
X11007980Y-19976722D02*
X10998456Y-19995770D01*
X11303218Y-20081484D02*
X11188932Y-20081484D01*
X11246075Y-20081484D02*
X11246075Y-19881484D01*
X11246075Y-19881484D02*
X11227027Y-19910055D01*
X11227027Y-19910055D02*
X11207979Y-19929103D01*
X11207979Y-19929103D02*
X11188932Y-19938627D01*
X11541313Y-20081484D02*
X11541313Y-19881484D01*
X11627027Y-20081484D02*
X11627027Y-19976722D01*
X11627027Y-19976722D02*
X11617503Y-19957674D01*
X11617503Y-19957674D02*
X11598456Y-19948150D01*
X11598456Y-19948150D02*
X11569884Y-19948150D01*
X11569884Y-19948150D02*
X11550837Y-19957674D01*
X11550837Y-19957674D02*
X11541313Y-19967198D01*
X11750837Y-20081484D02*
X11731789Y-20071960D01*
X11731789Y-20071960D02*
X11722265Y-20062436D01*
X11722265Y-20062436D02*
X11712741Y-20043389D01*
X11712741Y-20043389D02*
X11712741Y-19986246D01*
X11712741Y-19986246D02*
X11722265Y-19967198D01*
X11722265Y-19967198D02*
X11731789Y-19957674D01*
X11731789Y-19957674D02*
X11750837Y-19948150D01*
X11750837Y-19948150D02*
X11779408Y-19948150D01*
X11779408Y-19948150D02*
X11798456Y-19957674D01*
X11798456Y-19957674D02*
X11807980Y-19967198D01*
X11807980Y-19967198D02*
X11817503Y-19986246D01*
X11817503Y-19986246D02*
X11817503Y-20043389D01*
X11817503Y-20043389D02*
X11807980Y-20062436D01*
X11807980Y-20062436D02*
X11798456Y-20071960D01*
X11798456Y-20071960D02*
X11779408Y-20081484D01*
X11779408Y-20081484D02*
X11750837Y-20081484D01*
X11931789Y-20081484D02*
X11912741Y-20071960D01*
X11912741Y-20071960D02*
X11903218Y-20052912D01*
X11903218Y-20052912D02*
X11903218Y-19881484D01*
X12084170Y-20071960D02*
X12065122Y-20081484D01*
X12065122Y-20081484D02*
X12027027Y-20081484D01*
X12027027Y-20081484D02*
X12007980Y-20071960D01*
X12007980Y-20071960D02*
X11998456Y-20052912D01*
X11998456Y-20052912D02*
X11998456Y-19976722D01*
X11998456Y-19976722D02*
X12007980Y-19957674D01*
X12007980Y-19957674D02*
X12027027Y-19948150D01*
X12027027Y-19948150D02*
X12065122Y-19948150D01*
X12065122Y-19948150D02*
X12084170Y-19957674D01*
X12084170Y-19957674D02*
X12093694Y-19976722D01*
X12093694Y-19976722D02*
X12093694Y-19995770D01*
X12093694Y-19995770D02*
X11998456Y-20014817D01*
X12169884Y-20071960D02*
X12188932Y-20081484D01*
X12188932Y-20081484D02*
X12227027Y-20081484D01*
X12227027Y-20081484D02*
X12246075Y-20071960D01*
X12246075Y-20071960D02*
X12255599Y-20052912D01*
X12255599Y-20052912D02*
X12255599Y-20043389D01*
X12255599Y-20043389D02*
X12246075Y-20024341D01*
X12246075Y-20024341D02*
X12227027Y-20014817D01*
X12227027Y-20014817D02*
X12198456Y-20014817D01*
X12198456Y-20014817D02*
X12179408Y-20005293D01*
X12179408Y-20005293D02*
X12169884Y-19986246D01*
X12169884Y-19986246D02*
X12169884Y-19976722D01*
X12169884Y-19976722D02*
X12179408Y-19957674D01*
X12179408Y-19957674D02*
X12198456Y-19948150D01*
X12198456Y-19948150D02*
X12227027Y-19948150D01*
X12227027Y-19948150D02*
X12246075Y-19957674D01*
X12322265Y-20157674D02*
X12331789Y-20148150D01*
X12331789Y-20148150D02*
X12350837Y-20119579D01*
X12350837Y-20119579D02*
X12360361Y-20100531D01*
X12360361Y-20100531D02*
X12369884Y-20071960D01*
X12369884Y-20071960D02*
X12379408Y-20024341D01*
X12379408Y-20024341D02*
X12379408Y-19986246D01*
X12379408Y-19986246D02*
X12369884Y-19938627D01*
X12369884Y-19938627D02*
X12360361Y-19910055D01*
X12360361Y-19910055D02*
X12350837Y-19891008D01*
X12350837Y-19891008D02*
X12331789Y-19862436D01*
X12331789Y-19862436D02*
X12322265Y-19852912D01*
D11*
X7166250Y-20254000D02*
G75*
G03*
X7166250Y-20254000I-15000J0D01*
G01*
D10*
X7465122Y-20145484D02*
X7484170Y-20145484D01*
X7484170Y-20145484D02*
X7503217Y-20155008D01*
X7503217Y-20155008D02*
X7512741Y-20164531D01*
X7512741Y-20164531D02*
X7522265Y-20183579D01*
X7522265Y-20183579D02*
X7531789Y-20221674D01*
X7531789Y-20221674D02*
X7531789Y-20269293D01*
X7531789Y-20269293D02*
X7522265Y-20307389D01*
X7522265Y-20307389D02*
X7512741Y-20326436D01*
X7512741Y-20326436D02*
X7503217Y-20335960D01*
X7503217Y-20335960D02*
X7484170Y-20345484D01*
X7484170Y-20345484D02*
X7465122Y-20345484D01*
X7465122Y-20345484D02*
X7446074Y-20335960D01*
X7446074Y-20335960D02*
X7436551Y-20326436D01*
X7436551Y-20326436D02*
X7427027Y-20307389D01*
X7427027Y-20307389D02*
X7417503Y-20269293D01*
X7417503Y-20269293D02*
X7417503Y-20221674D01*
X7417503Y-20221674D02*
X7427027Y-20183579D01*
X7427027Y-20183579D02*
X7436551Y-20164531D01*
X7436551Y-20164531D02*
X7446074Y-20155008D01*
X7446074Y-20155008D02*
X7465122Y-20145484D01*
X7617503Y-20326436D02*
X7627027Y-20335960D01*
X7627027Y-20335960D02*
X7617503Y-20345484D01*
X7617503Y-20345484D02*
X7607979Y-20335960D01*
X7607979Y-20335960D02*
X7617503Y-20326436D01*
X7617503Y-20326436D02*
X7617503Y-20345484D01*
X7693693Y-20145484D02*
X7817503Y-20145484D01*
X7817503Y-20145484D02*
X7750836Y-20221674D01*
X7750836Y-20221674D02*
X7779408Y-20221674D01*
X7779408Y-20221674D02*
X7798455Y-20231198D01*
X7798455Y-20231198D02*
X7807979Y-20240722D01*
X7807979Y-20240722D02*
X7817503Y-20259770D01*
X7817503Y-20259770D02*
X7817503Y-20307389D01*
X7817503Y-20307389D02*
X7807979Y-20326436D01*
X7807979Y-20326436D02*
X7798455Y-20335960D01*
X7798455Y-20335960D02*
X7779408Y-20345484D01*
X7779408Y-20345484D02*
X7722265Y-20345484D01*
X7722265Y-20345484D02*
X7703217Y-20335960D01*
X7703217Y-20335960D02*
X7693693Y-20326436D01*
X7941312Y-20145484D02*
X7960360Y-20145484D01*
X7960360Y-20145484D02*
X7979408Y-20155008D01*
X7979408Y-20155008D02*
X7988932Y-20164531D01*
X7988932Y-20164531D02*
X7998455Y-20183579D01*
X7998455Y-20183579D02*
X8007979Y-20221674D01*
X8007979Y-20221674D02*
X8007979Y-20269293D01*
X8007979Y-20269293D02*
X7998455Y-20307389D01*
X7998455Y-20307389D02*
X7988932Y-20326436D01*
X7988932Y-20326436D02*
X7979408Y-20335960D01*
X7979408Y-20335960D02*
X7960360Y-20345484D01*
X7960360Y-20345484D02*
X7941312Y-20345484D01*
X7941312Y-20345484D02*
X7922265Y-20335960D01*
X7922265Y-20335960D02*
X7912741Y-20326436D01*
X7912741Y-20326436D02*
X7903217Y-20307389D01*
X7903217Y-20307389D02*
X7893693Y-20269293D01*
X7893693Y-20269293D02*
X7893693Y-20221674D01*
X7893693Y-20221674D02*
X7903217Y-20183579D01*
X7903217Y-20183579D02*
X7912741Y-20164531D01*
X7912741Y-20164531D02*
X7922265Y-20155008D01*
X7922265Y-20155008D02*
X7941312Y-20145484D01*
X8131789Y-20145484D02*
X8150836Y-20145484D01*
X8150836Y-20145484D02*
X8169884Y-20155008D01*
X8169884Y-20155008D02*
X8179408Y-20164531D01*
X8179408Y-20164531D02*
X8188932Y-20183579D01*
X8188932Y-20183579D02*
X8198455Y-20221674D01*
X8198455Y-20221674D02*
X8198455Y-20269293D01*
X8198455Y-20269293D02*
X8188932Y-20307389D01*
X8188932Y-20307389D02*
X8179408Y-20326436D01*
X8179408Y-20326436D02*
X8169884Y-20335960D01*
X8169884Y-20335960D02*
X8150836Y-20345484D01*
X8150836Y-20345484D02*
X8131789Y-20345484D01*
X8131789Y-20345484D02*
X8112741Y-20335960D01*
X8112741Y-20335960D02*
X8103217Y-20326436D01*
X8103217Y-20326436D02*
X8093693Y-20307389D01*
X8093693Y-20307389D02*
X8084170Y-20269293D01*
X8084170Y-20269293D02*
X8084170Y-20221674D01*
X8084170Y-20221674D02*
X8093693Y-20183579D01*
X8093693Y-20183579D02*
X8103217Y-20164531D01*
X8103217Y-20164531D02*
X8112741Y-20155008D01*
X8112741Y-20155008D02*
X8131789Y-20145484D01*
X8284170Y-20345484D02*
X8284170Y-20212150D01*
X8284170Y-20231198D02*
X8293693Y-20221674D01*
X8293693Y-20221674D02*
X8312741Y-20212150D01*
X8312741Y-20212150D02*
X8341313Y-20212150D01*
X8341313Y-20212150D02*
X8360360Y-20221674D01*
X8360360Y-20221674D02*
X8369884Y-20240722D01*
X8369884Y-20240722D02*
X8369884Y-20345484D01*
X8369884Y-20240722D02*
X8379408Y-20221674D01*
X8379408Y-20221674D02*
X8398455Y-20212150D01*
X8398455Y-20212150D02*
X8427027Y-20212150D01*
X8427027Y-20212150D02*
X8446075Y-20221674D01*
X8446075Y-20221674D02*
X8455598Y-20240722D01*
X8455598Y-20240722D02*
X8455598Y-20345484D01*
X8550836Y-20345484D02*
X8550836Y-20212150D01*
X8550836Y-20231198D02*
X8560360Y-20221674D01*
X8560360Y-20221674D02*
X8579408Y-20212150D01*
X8579408Y-20212150D02*
X8607979Y-20212150D01*
X8607979Y-20212150D02*
X8627027Y-20221674D01*
X8627027Y-20221674D02*
X8636551Y-20240722D01*
X8636551Y-20240722D02*
X8636551Y-20345484D01*
X8636551Y-20240722D02*
X8646075Y-20221674D01*
X8646075Y-20221674D02*
X8665122Y-20212150D01*
X8665122Y-20212150D02*
X8693694Y-20212150D01*
X8693694Y-20212150D02*
X8712741Y-20221674D01*
X8712741Y-20221674D02*
X8722265Y-20240722D01*
X8722265Y-20240722D02*
X8722265Y-20345484D01*
X9112741Y-20135960D02*
X8941313Y-20393103D01*
X9369884Y-20145484D02*
X9388932Y-20145484D01*
X9388932Y-20145484D02*
X9407979Y-20155008D01*
X9407979Y-20155008D02*
X9417503Y-20164531D01*
X9417503Y-20164531D02*
X9427027Y-20183579D01*
X9427027Y-20183579D02*
X9436551Y-20221674D01*
X9436551Y-20221674D02*
X9436551Y-20269293D01*
X9436551Y-20269293D02*
X9427027Y-20307389D01*
X9427027Y-20307389D02*
X9417503Y-20326436D01*
X9417503Y-20326436D02*
X9407979Y-20335960D01*
X9407979Y-20335960D02*
X9388932Y-20345484D01*
X9388932Y-20345484D02*
X9369884Y-20345484D01*
X9369884Y-20345484D02*
X9350837Y-20335960D01*
X9350837Y-20335960D02*
X9341313Y-20326436D01*
X9341313Y-20326436D02*
X9331789Y-20307389D01*
X9331789Y-20307389D02*
X9322265Y-20269293D01*
X9322265Y-20269293D02*
X9322265Y-20221674D01*
X9322265Y-20221674D02*
X9331789Y-20183579D01*
X9331789Y-20183579D02*
X9341313Y-20164531D01*
X9341313Y-20164531D02*
X9350837Y-20155008D01*
X9350837Y-20155008D02*
X9369884Y-20145484D01*
X9522265Y-20326436D02*
X9531789Y-20335960D01*
X9531789Y-20335960D02*
X9522265Y-20345484D01*
X9522265Y-20345484D02*
X9512741Y-20335960D01*
X9512741Y-20335960D02*
X9522265Y-20326436D01*
X9522265Y-20326436D02*
X9522265Y-20345484D01*
X9655598Y-20145484D02*
X9674646Y-20145484D01*
X9674646Y-20145484D02*
X9693694Y-20155008D01*
X9693694Y-20155008D02*
X9703218Y-20164531D01*
X9703218Y-20164531D02*
X9712741Y-20183579D01*
X9712741Y-20183579D02*
X9722265Y-20221674D01*
X9722265Y-20221674D02*
X9722265Y-20269293D01*
X9722265Y-20269293D02*
X9712741Y-20307389D01*
X9712741Y-20307389D02*
X9703218Y-20326436D01*
X9703218Y-20326436D02*
X9693694Y-20335960D01*
X9693694Y-20335960D02*
X9674646Y-20345484D01*
X9674646Y-20345484D02*
X9655598Y-20345484D01*
X9655598Y-20345484D02*
X9636551Y-20335960D01*
X9636551Y-20335960D02*
X9627027Y-20326436D01*
X9627027Y-20326436D02*
X9617503Y-20307389D01*
X9617503Y-20307389D02*
X9607979Y-20269293D01*
X9607979Y-20269293D02*
X9607979Y-20221674D01*
X9607979Y-20221674D02*
X9617503Y-20183579D01*
X9617503Y-20183579D02*
X9627027Y-20164531D01*
X9627027Y-20164531D02*
X9636551Y-20155008D01*
X9636551Y-20155008D02*
X9655598Y-20145484D01*
X9912741Y-20345484D02*
X9798456Y-20345484D01*
X9855598Y-20345484D02*
X9855598Y-20145484D01*
X9855598Y-20145484D02*
X9836551Y-20174055D01*
X9836551Y-20174055D02*
X9817503Y-20193103D01*
X9817503Y-20193103D02*
X9798456Y-20202627D01*
X10103218Y-20345484D02*
X9988932Y-20345484D01*
X10046075Y-20345484D02*
X10046075Y-20145484D01*
X10046075Y-20145484D02*
X10027027Y-20174055D01*
X10027027Y-20174055D02*
X10007979Y-20193103D01*
X10007979Y-20193103D02*
X9988932Y-20202627D01*
X10217503Y-20231198D02*
X10198456Y-20221674D01*
X10198456Y-20221674D02*
X10188932Y-20212150D01*
X10188932Y-20212150D02*
X10179408Y-20193103D01*
X10179408Y-20193103D02*
X10179408Y-20183579D01*
X10179408Y-20183579D02*
X10188932Y-20164531D01*
X10188932Y-20164531D02*
X10198456Y-20155008D01*
X10198456Y-20155008D02*
X10217503Y-20145484D01*
X10217503Y-20145484D02*
X10255599Y-20145484D01*
X10255599Y-20145484D02*
X10274646Y-20155008D01*
X10274646Y-20155008D02*
X10284170Y-20164531D01*
X10284170Y-20164531D02*
X10293694Y-20183579D01*
X10293694Y-20183579D02*
X10293694Y-20193103D01*
X10293694Y-20193103D02*
X10284170Y-20212150D01*
X10284170Y-20212150D02*
X10274646Y-20221674D01*
X10274646Y-20221674D02*
X10255599Y-20231198D01*
X10255599Y-20231198D02*
X10217503Y-20231198D01*
X10217503Y-20231198D02*
X10198456Y-20240722D01*
X10198456Y-20240722D02*
X10188932Y-20250246D01*
X10188932Y-20250246D02*
X10179408Y-20269293D01*
X10179408Y-20269293D02*
X10179408Y-20307389D01*
X10179408Y-20307389D02*
X10188932Y-20326436D01*
X10188932Y-20326436D02*
X10198456Y-20335960D01*
X10198456Y-20335960D02*
X10217503Y-20345484D01*
X10217503Y-20345484D02*
X10255599Y-20345484D01*
X10255599Y-20345484D02*
X10274646Y-20335960D01*
X10274646Y-20335960D02*
X10284170Y-20326436D01*
X10284170Y-20326436D02*
X10293694Y-20307389D01*
X10293694Y-20307389D02*
X10293694Y-20269293D01*
X10293694Y-20269293D02*
X10284170Y-20250246D01*
X10284170Y-20250246D02*
X10274646Y-20240722D01*
X10274646Y-20240722D02*
X10255599Y-20231198D01*
X10369884Y-20145484D02*
X10369884Y-20183579D01*
X10446075Y-20145484D02*
X10446075Y-20183579D01*
X10741313Y-20421674D02*
X10731789Y-20412150D01*
X10731789Y-20412150D02*
X10712741Y-20383579D01*
X10712741Y-20383579D02*
X10703218Y-20364531D01*
X10703218Y-20364531D02*
X10693694Y-20335960D01*
X10693694Y-20335960D02*
X10684170Y-20288341D01*
X10684170Y-20288341D02*
X10684170Y-20250246D01*
X10684170Y-20250246D02*
X10693694Y-20202627D01*
X10693694Y-20202627D02*
X10703218Y-20174055D01*
X10703218Y-20174055D02*
X10712741Y-20155008D01*
X10712741Y-20155008D02*
X10731789Y-20126436D01*
X10731789Y-20126436D02*
X10741313Y-20116912D01*
X10922265Y-20345484D02*
X10807980Y-20345484D01*
X10865122Y-20345484D02*
X10865122Y-20145484D01*
X10865122Y-20145484D02*
X10846075Y-20174055D01*
X10846075Y-20174055D02*
X10827027Y-20193103D01*
X10827027Y-20193103D02*
X10807980Y-20202627D01*
X11160361Y-20345484D02*
X11160361Y-20145484D01*
X11246075Y-20345484D02*
X11246075Y-20240722D01*
X11246075Y-20240722D02*
X11236551Y-20221674D01*
X11236551Y-20221674D02*
X11217503Y-20212150D01*
X11217503Y-20212150D02*
X11188932Y-20212150D01*
X11188932Y-20212150D02*
X11169884Y-20221674D01*
X11169884Y-20221674D02*
X11160361Y-20231198D01*
X11369884Y-20345484D02*
X11350837Y-20335960D01*
X11350837Y-20335960D02*
X11341313Y-20326436D01*
X11341313Y-20326436D02*
X11331789Y-20307389D01*
X11331789Y-20307389D02*
X11331789Y-20250246D01*
X11331789Y-20250246D02*
X11341313Y-20231198D01*
X11341313Y-20231198D02*
X11350837Y-20221674D01*
X11350837Y-20221674D02*
X11369884Y-20212150D01*
X11369884Y-20212150D02*
X11398456Y-20212150D01*
X11398456Y-20212150D02*
X11417503Y-20221674D01*
X11417503Y-20221674D02*
X11427027Y-20231198D01*
X11427027Y-20231198D02*
X11436551Y-20250246D01*
X11436551Y-20250246D02*
X11436551Y-20307389D01*
X11436551Y-20307389D02*
X11427027Y-20326436D01*
X11427027Y-20326436D02*
X11417503Y-20335960D01*
X11417503Y-20335960D02*
X11398456Y-20345484D01*
X11398456Y-20345484D02*
X11369884Y-20345484D01*
X11550837Y-20345484D02*
X11531789Y-20335960D01*
X11531789Y-20335960D02*
X11522265Y-20316912D01*
X11522265Y-20316912D02*
X11522265Y-20145484D01*
X11703218Y-20335960D02*
X11684170Y-20345484D01*
X11684170Y-20345484D02*
X11646075Y-20345484D01*
X11646075Y-20345484D02*
X11627027Y-20335960D01*
X11627027Y-20335960D02*
X11617503Y-20316912D01*
X11617503Y-20316912D02*
X11617503Y-20240722D01*
X11617503Y-20240722D02*
X11627027Y-20221674D01*
X11627027Y-20221674D02*
X11646075Y-20212150D01*
X11646075Y-20212150D02*
X11684170Y-20212150D01*
X11684170Y-20212150D02*
X11703218Y-20221674D01*
X11703218Y-20221674D02*
X11712741Y-20240722D01*
X11712741Y-20240722D02*
X11712741Y-20259770D01*
X11712741Y-20259770D02*
X11617503Y-20278817D01*
X11779408Y-20421674D02*
X11788932Y-20412150D01*
X11788932Y-20412150D02*
X11807980Y-20383579D01*
X11807980Y-20383579D02*
X11817503Y-20364531D01*
X11817503Y-20364531D02*
X11827027Y-20335960D01*
X11827027Y-20335960D02*
X11836551Y-20288341D01*
X11836551Y-20288341D02*
X11836551Y-20250246D01*
X11836551Y-20250246D02*
X11827027Y-20202627D01*
X11827027Y-20202627D02*
X11817503Y-20174055D01*
X11817503Y-20174055D02*
X11807980Y-20155008D01*
X11807980Y-20155008D02*
X11788932Y-20126436D01*
X11788932Y-20126436D02*
X11779408Y-20116912D01*
D12*
X7146250Y-20498000D02*
X7146250Y-20538000D01*
X7126250Y-20518000D02*
X7166250Y-20518000D01*
D10*
X7465122Y-20409484D02*
X7484170Y-20409484D01*
X7484170Y-20409484D02*
X7503217Y-20419008D01*
X7503217Y-20419008D02*
X7512741Y-20428531D01*
X7512741Y-20428531D02*
X7522265Y-20447579D01*
X7522265Y-20447579D02*
X7531789Y-20485674D01*
X7531789Y-20485674D02*
X7531789Y-20533293D01*
X7531789Y-20533293D02*
X7522265Y-20571389D01*
X7522265Y-20571389D02*
X7512741Y-20590436D01*
X7512741Y-20590436D02*
X7503217Y-20599960D01*
X7503217Y-20599960D02*
X7484170Y-20609484D01*
X7484170Y-20609484D02*
X7465122Y-20609484D01*
X7465122Y-20609484D02*
X7446074Y-20599960D01*
X7446074Y-20599960D02*
X7436551Y-20590436D01*
X7436551Y-20590436D02*
X7427027Y-20571389D01*
X7427027Y-20571389D02*
X7417503Y-20533293D01*
X7417503Y-20533293D02*
X7417503Y-20485674D01*
X7417503Y-20485674D02*
X7427027Y-20447579D01*
X7427027Y-20447579D02*
X7436551Y-20428531D01*
X7436551Y-20428531D02*
X7446074Y-20419008D01*
X7446074Y-20419008D02*
X7465122Y-20409484D01*
X7617503Y-20590436D02*
X7627027Y-20599960D01*
X7627027Y-20599960D02*
X7617503Y-20609484D01*
X7617503Y-20609484D02*
X7607979Y-20599960D01*
X7607979Y-20599960D02*
X7617503Y-20590436D01*
X7617503Y-20590436D02*
X7617503Y-20609484D01*
X7798455Y-20476150D02*
X7798455Y-20609484D01*
X7750836Y-20399960D02*
X7703217Y-20542817D01*
X7703217Y-20542817D02*
X7827027Y-20542817D01*
X7941312Y-20409484D02*
X7960360Y-20409484D01*
X7960360Y-20409484D02*
X7979408Y-20419008D01*
X7979408Y-20419008D02*
X7988932Y-20428531D01*
X7988932Y-20428531D02*
X7998455Y-20447579D01*
X7998455Y-20447579D02*
X8007979Y-20485674D01*
X8007979Y-20485674D02*
X8007979Y-20533293D01*
X8007979Y-20533293D02*
X7998455Y-20571389D01*
X7998455Y-20571389D02*
X7988932Y-20590436D01*
X7988932Y-20590436D02*
X7979408Y-20599960D01*
X7979408Y-20599960D02*
X7960360Y-20609484D01*
X7960360Y-20609484D02*
X7941312Y-20609484D01*
X7941312Y-20609484D02*
X7922265Y-20599960D01*
X7922265Y-20599960D02*
X7912741Y-20590436D01*
X7912741Y-20590436D02*
X7903217Y-20571389D01*
X7903217Y-20571389D02*
X7893693Y-20533293D01*
X7893693Y-20533293D02*
X7893693Y-20485674D01*
X7893693Y-20485674D02*
X7903217Y-20447579D01*
X7903217Y-20447579D02*
X7912741Y-20428531D01*
X7912741Y-20428531D02*
X7922265Y-20419008D01*
X7922265Y-20419008D02*
X7941312Y-20409484D01*
X8131789Y-20409484D02*
X8150836Y-20409484D01*
X8150836Y-20409484D02*
X8169884Y-20419008D01*
X8169884Y-20419008D02*
X8179408Y-20428531D01*
X8179408Y-20428531D02*
X8188932Y-20447579D01*
X8188932Y-20447579D02*
X8198455Y-20485674D01*
X8198455Y-20485674D02*
X8198455Y-20533293D01*
X8198455Y-20533293D02*
X8188932Y-20571389D01*
X8188932Y-20571389D02*
X8179408Y-20590436D01*
X8179408Y-20590436D02*
X8169884Y-20599960D01*
X8169884Y-20599960D02*
X8150836Y-20609484D01*
X8150836Y-20609484D02*
X8131789Y-20609484D01*
X8131789Y-20609484D02*
X8112741Y-20599960D01*
X8112741Y-20599960D02*
X8103217Y-20590436D01*
X8103217Y-20590436D02*
X8093693Y-20571389D01*
X8093693Y-20571389D02*
X8084170Y-20533293D01*
X8084170Y-20533293D02*
X8084170Y-20485674D01*
X8084170Y-20485674D02*
X8093693Y-20447579D01*
X8093693Y-20447579D02*
X8103217Y-20428531D01*
X8103217Y-20428531D02*
X8112741Y-20419008D01*
X8112741Y-20419008D02*
X8131789Y-20409484D01*
X8284170Y-20609484D02*
X8284170Y-20476150D01*
X8284170Y-20495198D02*
X8293693Y-20485674D01*
X8293693Y-20485674D02*
X8312741Y-20476150D01*
X8312741Y-20476150D02*
X8341313Y-20476150D01*
X8341313Y-20476150D02*
X8360360Y-20485674D01*
X8360360Y-20485674D02*
X8369884Y-20504722D01*
X8369884Y-20504722D02*
X8369884Y-20609484D01*
X8369884Y-20504722D02*
X8379408Y-20485674D01*
X8379408Y-20485674D02*
X8398455Y-20476150D01*
X8398455Y-20476150D02*
X8427027Y-20476150D01*
X8427027Y-20476150D02*
X8446075Y-20485674D01*
X8446075Y-20485674D02*
X8455598Y-20504722D01*
X8455598Y-20504722D02*
X8455598Y-20609484D01*
X8550836Y-20609484D02*
X8550836Y-20476150D01*
X8550836Y-20495198D02*
X8560360Y-20485674D01*
X8560360Y-20485674D02*
X8579408Y-20476150D01*
X8579408Y-20476150D02*
X8607979Y-20476150D01*
X8607979Y-20476150D02*
X8627027Y-20485674D01*
X8627027Y-20485674D02*
X8636551Y-20504722D01*
X8636551Y-20504722D02*
X8636551Y-20609484D01*
X8636551Y-20504722D02*
X8646075Y-20485674D01*
X8646075Y-20485674D02*
X8665122Y-20476150D01*
X8665122Y-20476150D02*
X8693694Y-20476150D01*
X8693694Y-20476150D02*
X8712741Y-20485674D01*
X8712741Y-20485674D02*
X8722265Y-20504722D01*
X8722265Y-20504722D02*
X8722265Y-20609484D01*
X9112741Y-20399960D02*
X8941313Y-20657103D01*
X9369884Y-20409484D02*
X9388932Y-20409484D01*
X9388932Y-20409484D02*
X9407979Y-20419008D01*
X9407979Y-20419008D02*
X9417503Y-20428531D01*
X9417503Y-20428531D02*
X9427027Y-20447579D01*
X9427027Y-20447579D02*
X9436551Y-20485674D01*
X9436551Y-20485674D02*
X9436551Y-20533293D01*
X9436551Y-20533293D02*
X9427027Y-20571389D01*
X9427027Y-20571389D02*
X9417503Y-20590436D01*
X9417503Y-20590436D02*
X9407979Y-20599960D01*
X9407979Y-20599960D02*
X9388932Y-20609484D01*
X9388932Y-20609484D02*
X9369884Y-20609484D01*
X9369884Y-20609484D02*
X9350837Y-20599960D01*
X9350837Y-20599960D02*
X9341313Y-20590436D01*
X9341313Y-20590436D02*
X9331789Y-20571389D01*
X9331789Y-20571389D02*
X9322265Y-20533293D01*
X9322265Y-20533293D02*
X9322265Y-20485674D01*
X9322265Y-20485674D02*
X9331789Y-20447579D01*
X9331789Y-20447579D02*
X9341313Y-20428531D01*
X9341313Y-20428531D02*
X9350837Y-20419008D01*
X9350837Y-20419008D02*
X9369884Y-20409484D01*
X9522265Y-20590436D02*
X9531789Y-20599960D01*
X9531789Y-20599960D02*
X9522265Y-20609484D01*
X9522265Y-20609484D02*
X9512741Y-20599960D01*
X9512741Y-20599960D02*
X9522265Y-20590436D01*
X9522265Y-20590436D02*
X9522265Y-20609484D01*
X9655598Y-20409484D02*
X9674646Y-20409484D01*
X9674646Y-20409484D02*
X9693694Y-20419008D01*
X9693694Y-20419008D02*
X9703218Y-20428531D01*
X9703218Y-20428531D02*
X9712741Y-20447579D01*
X9712741Y-20447579D02*
X9722265Y-20485674D01*
X9722265Y-20485674D02*
X9722265Y-20533293D01*
X9722265Y-20533293D02*
X9712741Y-20571389D01*
X9712741Y-20571389D02*
X9703218Y-20590436D01*
X9703218Y-20590436D02*
X9693694Y-20599960D01*
X9693694Y-20599960D02*
X9674646Y-20609484D01*
X9674646Y-20609484D02*
X9655598Y-20609484D01*
X9655598Y-20609484D02*
X9636551Y-20599960D01*
X9636551Y-20599960D02*
X9627027Y-20590436D01*
X9627027Y-20590436D02*
X9617503Y-20571389D01*
X9617503Y-20571389D02*
X9607979Y-20533293D01*
X9607979Y-20533293D02*
X9607979Y-20485674D01*
X9607979Y-20485674D02*
X9617503Y-20447579D01*
X9617503Y-20447579D02*
X9627027Y-20428531D01*
X9627027Y-20428531D02*
X9636551Y-20419008D01*
X9636551Y-20419008D02*
X9655598Y-20409484D01*
X9912741Y-20609484D02*
X9798456Y-20609484D01*
X9855598Y-20609484D02*
X9855598Y-20409484D01*
X9855598Y-20409484D02*
X9836551Y-20438055D01*
X9836551Y-20438055D02*
X9817503Y-20457103D01*
X9817503Y-20457103D02*
X9798456Y-20466627D01*
X10093694Y-20409484D02*
X9998456Y-20409484D01*
X9998456Y-20409484D02*
X9988932Y-20504722D01*
X9988932Y-20504722D02*
X9998456Y-20495198D01*
X9998456Y-20495198D02*
X10017503Y-20485674D01*
X10017503Y-20485674D02*
X10065122Y-20485674D01*
X10065122Y-20485674D02*
X10084170Y-20495198D01*
X10084170Y-20495198D02*
X10093694Y-20504722D01*
X10093694Y-20504722D02*
X10103218Y-20523770D01*
X10103218Y-20523770D02*
X10103218Y-20571389D01*
X10103218Y-20571389D02*
X10093694Y-20590436D01*
X10093694Y-20590436D02*
X10084170Y-20599960D01*
X10084170Y-20599960D02*
X10065122Y-20609484D01*
X10065122Y-20609484D02*
X10017503Y-20609484D01*
X10017503Y-20609484D02*
X9998456Y-20599960D01*
X9998456Y-20599960D02*
X9988932Y-20590436D01*
X10169884Y-20409484D02*
X10303218Y-20409484D01*
X10303218Y-20409484D02*
X10217503Y-20609484D01*
X10369884Y-20409484D02*
X10369884Y-20447579D01*
X10446075Y-20409484D02*
X10446075Y-20447579D01*
X10741313Y-20685674D02*
X10731789Y-20676150D01*
X10731789Y-20676150D02*
X10712741Y-20647579D01*
X10712741Y-20647579D02*
X10703218Y-20628531D01*
X10703218Y-20628531D02*
X10693694Y-20599960D01*
X10693694Y-20599960D02*
X10684170Y-20552341D01*
X10684170Y-20552341D02*
X10684170Y-20514246D01*
X10684170Y-20514246D02*
X10693694Y-20466627D01*
X10693694Y-20466627D02*
X10703218Y-20438055D01*
X10703218Y-20438055D02*
X10712741Y-20419008D01*
X10712741Y-20419008D02*
X10731789Y-20390436D01*
X10731789Y-20390436D02*
X10741313Y-20380912D01*
X10922265Y-20609484D02*
X10807980Y-20609484D01*
X10865122Y-20609484D02*
X10865122Y-20409484D01*
X10865122Y-20409484D02*
X10846075Y-20438055D01*
X10846075Y-20438055D02*
X10827027Y-20457103D01*
X10827027Y-20457103D02*
X10807980Y-20466627D01*
X11160361Y-20609484D02*
X11160361Y-20409484D01*
X11246075Y-20609484D02*
X11246075Y-20504722D01*
X11246075Y-20504722D02*
X11236551Y-20485674D01*
X11236551Y-20485674D02*
X11217503Y-20476150D01*
X11217503Y-20476150D02*
X11188932Y-20476150D01*
X11188932Y-20476150D02*
X11169884Y-20485674D01*
X11169884Y-20485674D02*
X11160361Y-20495198D01*
X11369884Y-20609484D02*
X11350837Y-20599960D01*
X11350837Y-20599960D02*
X11341313Y-20590436D01*
X11341313Y-20590436D02*
X11331789Y-20571389D01*
X11331789Y-20571389D02*
X11331789Y-20514246D01*
X11331789Y-20514246D02*
X11341313Y-20495198D01*
X11341313Y-20495198D02*
X11350837Y-20485674D01*
X11350837Y-20485674D02*
X11369884Y-20476150D01*
X11369884Y-20476150D02*
X11398456Y-20476150D01*
X11398456Y-20476150D02*
X11417503Y-20485674D01*
X11417503Y-20485674D02*
X11427027Y-20495198D01*
X11427027Y-20495198D02*
X11436551Y-20514246D01*
X11436551Y-20514246D02*
X11436551Y-20571389D01*
X11436551Y-20571389D02*
X11427027Y-20590436D01*
X11427027Y-20590436D02*
X11417503Y-20599960D01*
X11417503Y-20599960D02*
X11398456Y-20609484D01*
X11398456Y-20609484D02*
X11369884Y-20609484D01*
X11550837Y-20609484D02*
X11531789Y-20599960D01*
X11531789Y-20599960D02*
X11522265Y-20580912D01*
X11522265Y-20580912D02*
X11522265Y-20409484D01*
X11703218Y-20599960D02*
X11684170Y-20609484D01*
X11684170Y-20609484D02*
X11646075Y-20609484D01*
X11646075Y-20609484D02*
X11627027Y-20599960D01*
X11627027Y-20599960D02*
X11617503Y-20580912D01*
X11617503Y-20580912D02*
X11617503Y-20504722D01*
X11617503Y-20504722D02*
X11627027Y-20485674D01*
X11627027Y-20485674D02*
X11646075Y-20476150D01*
X11646075Y-20476150D02*
X11684170Y-20476150D01*
X11684170Y-20476150D02*
X11703218Y-20485674D01*
X11703218Y-20485674D02*
X11712741Y-20504722D01*
X11712741Y-20504722D02*
X11712741Y-20523770D01*
X11712741Y-20523770D02*
X11617503Y-20542817D01*
X11779408Y-20685674D02*
X11788932Y-20676150D01*
X11788932Y-20676150D02*
X11807980Y-20647579D01*
X11807980Y-20647579D02*
X11817503Y-20628531D01*
X11817503Y-20628531D02*
X11827027Y-20599960D01*
X11827027Y-20599960D02*
X11836551Y-20552341D01*
X11836551Y-20552341D02*
X11836551Y-20514246D01*
X11836551Y-20514246D02*
X11827027Y-20466627D01*
X11827027Y-20466627D02*
X11817503Y-20438055D01*
X11817503Y-20438055D02*
X11807980Y-20419008D01*
X11807980Y-20419008D02*
X11788932Y-20390436D01*
X11788932Y-20390436D02*
X11779408Y-20380912D01*
D13*
X7151606Y-20817356D02*
X7151606Y-20746644D01*
X7080894Y-20746644D01*
X7080894Y-20817356D01*
X7151606Y-20817356D01*
D10*
X7531789Y-20873484D02*
X7417503Y-20873484D01*
X7474646Y-20873484D02*
X7474646Y-20673484D01*
X7474646Y-20673484D02*
X7455598Y-20702055D01*
X7455598Y-20702055D02*
X7436551Y-20721103D01*
X7436551Y-20721103D02*
X7417503Y-20730627D01*
X7617503Y-20854436D02*
X7627027Y-20863960D01*
X7627027Y-20863960D02*
X7617503Y-20873484D01*
X7617503Y-20873484D02*
X7607979Y-20863960D01*
X7607979Y-20863960D02*
X7617503Y-20854436D01*
X7617503Y-20854436D02*
X7617503Y-20873484D01*
X7750836Y-20673484D02*
X7769884Y-20673484D01*
X7769884Y-20673484D02*
X7788932Y-20683008D01*
X7788932Y-20683008D02*
X7798455Y-20692531D01*
X7798455Y-20692531D02*
X7807979Y-20711579D01*
X7807979Y-20711579D02*
X7817503Y-20749674D01*
X7817503Y-20749674D02*
X7817503Y-20797293D01*
X7817503Y-20797293D02*
X7807979Y-20835389D01*
X7807979Y-20835389D02*
X7798455Y-20854436D01*
X7798455Y-20854436D02*
X7788932Y-20863960D01*
X7788932Y-20863960D02*
X7769884Y-20873484D01*
X7769884Y-20873484D02*
X7750836Y-20873484D01*
X7750836Y-20873484D02*
X7731789Y-20863960D01*
X7731789Y-20863960D02*
X7722265Y-20854436D01*
X7722265Y-20854436D02*
X7712741Y-20835389D01*
X7712741Y-20835389D02*
X7703217Y-20797293D01*
X7703217Y-20797293D02*
X7703217Y-20749674D01*
X7703217Y-20749674D02*
X7712741Y-20711579D01*
X7712741Y-20711579D02*
X7722265Y-20692531D01*
X7722265Y-20692531D02*
X7731789Y-20683008D01*
X7731789Y-20683008D02*
X7750836Y-20673484D01*
X7941312Y-20673484D02*
X7960360Y-20673484D01*
X7960360Y-20673484D02*
X7979408Y-20683008D01*
X7979408Y-20683008D02*
X7988932Y-20692531D01*
X7988932Y-20692531D02*
X7998455Y-20711579D01*
X7998455Y-20711579D02*
X8007979Y-20749674D01*
X8007979Y-20749674D02*
X8007979Y-20797293D01*
X8007979Y-20797293D02*
X7998455Y-20835389D01*
X7998455Y-20835389D02*
X7988932Y-20854436D01*
X7988932Y-20854436D02*
X7979408Y-20863960D01*
X7979408Y-20863960D02*
X7960360Y-20873484D01*
X7960360Y-20873484D02*
X7941312Y-20873484D01*
X7941312Y-20873484D02*
X7922265Y-20863960D01*
X7922265Y-20863960D02*
X7912741Y-20854436D01*
X7912741Y-20854436D02*
X7903217Y-20835389D01*
X7903217Y-20835389D02*
X7893693Y-20797293D01*
X7893693Y-20797293D02*
X7893693Y-20749674D01*
X7893693Y-20749674D02*
X7903217Y-20711579D01*
X7903217Y-20711579D02*
X7912741Y-20692531D01*
X7912741Y-20692531D02*
X7922265Y-20683008D01*
X7922265Y-20683008D02*
X7941312Y-20673484D01*
X8131789Y-20673484D02*
X8150836Y-20673484D01*
X8150836Y-20673484D02*
X8169884Y-20683008D01*
X8169884Y-20683008D02*
X8179408Y-20692531D01*
X8179408Y-20692531D02*
X8188932Y-20711579D01*
X8188932Y-20711579D02*
X8198455Y-20749674D01*
X8198455Y-20749674D02*
X8198455Y-20797293D01*
X8198455Y-20797293D02*
X8188932Y-20835389D01*
X8188932Y-20835389D02*
X8179408Y-20854436D01*
X8179408Y-20854436D02*
X8169884Y-20863960D01*
X8169884Y-20863960D02*
X8150836Y-20873484D01*
X8150836Y-20873484D02*
X8131789Y-20873484D01*
X8131789Y-20873484D02*
X8112741Y-20863960D01*
X8112741Y-20863960D02*
X8103217Y-20854436D01*
X8103217Y-20854436D02*
X8093693Y-20835389D01*
X8093693Y-20835389D02*
X8084170Y-20797293D01*
X8084170Y-20797293D02*
X8084170Y-20749674D01*
X8084170Y-20749674D02*
X8093693Y-20711579D01*
X8093693Y-20711579D02*
X8103217Y-20692531D01*
X8103217Y-20692531D02*
X8112741Y-20683008D01*
X8112741Y-20683008D02*
X8131789Y-20673484D01*
X8284170Y-20873484D02*
X8284170Y-20740150D01*
X8284170Y-20759198D02*
X8293693Y-20749674D01*
X8293693Y-20749674D02*
X8312741Y-20740150D01*
X8312741Y-20740150D02*
X8341313Y-20740150D01*
X8341313Y-20740150D02*
X8360360Y-20749674D01*
X8360360Y-20749674D02*
X8369884Y-20768722D01*
X8369884Y-20768722D02*
X8369884Y-20873484D01*
X8369884Y-20768722D02*
X8379408Y-20749674D01*
X8379408Y-20749674D02*
X8398455Y-20740150D01*
X8398455Y-20740150D02*
X8427027Y-20740150D01*
X8427027Y-20740150D02*
X8446075Y-20749674D01*
X8446075Y-20749674D02*
X8455598Y-20768722D01*
X8455598Y-20768722D02*
X8455598Y-20873484D01*
X8550836Y-20873484D02*
X8550836Y-20740150D01*
X8550836Y-20759198D02*
X8560360Y-20749674D01*
X8560360Y-20749674D02*
X8579408Y-20740150D01*
X8579408Y-20740150D02*
X8607979Y-20740150D01*
X8607979Y-20740150D02*
X8627027Y-20749674D01*
X8627027Y-20749674D02*
X8636551Y-20768722D01*
X8636551Y-20768722D02*
X8636551Y-20873484D01*
X8636551Y-20768722D02*
X8646075Y-20749674D01*
X8646075Y-20749674D02*
X8665122Y-20740150D01*
X8665122Y-20740150D02*
X8693694Y-20740150D01*
X8693694Y-20740150D02*
X8712741Y-20749674D01*
X8712741Y-20749674D02*
X8722265Y-20768722D01*
X8722265Y-20768722D02*
X8722265Y-20873484D01*
X9112741Y-20663960D02*
X8941313Y-20921103D01*
X9369884Y-20673484D02*
X9388932Y-20673484D01*
X9388932Y-20673484D02*
X9407979Y-20683008D01*
X9407979Y-20683008D02*
X9417503Y-20692531D01*
X9417503Y-20692531D02*
X9427027Y-20711579D01*
X9427027Y-20711579D02*
X9436551Y-20749674D01*
X9436551Y-20749674D02*
X9436551Y-20797293D01*
X9436551Y-20797293D02*
X9427027Y-20835389D01*
X9427027Y-20835389D02*
X9417503Y-20854436D01*
X9417503Y-20854436D02*
X9407979Y-20863960D01*
X9407979Y-20863960D02*
X9388932Y-20873484D01*
X9388932Y-20873484D02*
X9369884Y-20873484D01*
X9369884Y-20873484D02*
X9350837Y-20863960D01*
X9350837Y-20863960D02*
X9341313Y-20854436D01*
X9341313Y-20854436D02*
X9331789Y-20835389D01*
X9331789Y-20835389D02*
X9322265Y-20797293D01*
X9322265Y-20797293D02*
X9322265Y-20749674D01*
X9322265Y-20749674D02*
X9331789Y-20711579D01*
X9331789Y-20711579D02*
X9341313Y-20692531D01*
X9341313Y-20692531D02*
X9350837Y-20683008D01*
X9350837Y-20683008D02*
X9369884Y-20673484D01*
X9522265Y-20854436D02*
X9531789Y-20863960D01*
X9531789Y-20863960D02*
X9522265Y-20873484D01*
X9522265Y-20873484D02*
X9512741Y-20863960D01*
X9512741Y-20863960D02*
X9522265Y-20854436D01*
X9522265Y-20854436D02*
X9522265Y-20873484D01*
X9655598Y-20673484D02*
X9674646Y-20673484D01*
X9674646Y-20673484D02*
X9693694Y-20683008D01*
X9693694Y-20683008D02*
X9703218Y-20692531D01*
X9703218Y-20692531D02*
X9712741Y-20711579D01*
X9712741Y-20711579D02*
X9722265Y-20749674D01*
X9722265Y-20749674D02*
X9722265Y-20797293D01*
X9722265Y-20797293D02*
X9712741Y-20835389D01*
X9712741Y-20835389D02*
X9703218Y-20854436D01*
X9703218Y-20854436D02*
X9693694Y-20863960D01*
X9693694Y-20863960D02*
X9674646Y-20873484D01*
X9674646Y-20873484D02*
X9655598Y-20873484D01*
X9655598Y-20873484D02*
X9636551Y-20863960D01*
X9636551Y-20863960D02*
X9627027Y-20854436D01*
X9627027Y-20854436D02*
X9617503Y-20835389D01*
X9617503Y-20835389D02*
X9607979Y-20797293D01*
X9607979Y-20797293D02*
X9607979Y-20749674D01*
X9607979Y-20749674D02*
X9617503Y-20711579D01*
X9617503Y-20711579D02*
X9627027Y-20692531D01*
X9627027Y-20692531D02*
X9636551Y-20683008D01*
X9636551Y-20683008D02*
X9655598Y-20673484D01*
X9788932Y-20673484D02*
X9912741Y-20673484D01*
X9912741Y-20673484D02*
X9846075Y-20749674D01*
X9846075Y-20749674D02*
X9874646Y-20749674D01*
X9874646Y-20749674D02*
X9893694Y-20759198D01*
X9893694Y-20759198D02*
X9903218Y-20768722D01*
X9903218Y-20768722D02*
X9912741Y-20787770D01*
X9912741Y-20787770D02*
X9912741Y-20835389D01*
X9912741Y-20835389D02*
X9903218Y-20854436D01*
X9903218Y-20854436D02*
X9893694Y-20863960D01*
X9893694Y-20863960D02*
X9874646Y-20873484D01*
X9874646Y-20873484D02*
X9817503Y-20873484D01*
X9817503Y-20873484D02*
X9798456Y-20863960D01*
X9798456Y-20863960D02*
X9788932Y-20854436D01*
X10007979Y-20873484D02*
X10046075Y-20873484D01*
X10046075Y-20873484D02*
X10065122Y-20863960D01*
X10065122Y-20863960D02*
X10074646Y-20854436D01*
X10074646Y-20854436D02*
X10093694Y-20825865D01*
X10093694Y-20825865D02*
X10103218Y-20787770D01*
X10103218Y-20787770D02*
X10103218Y-20711579D01*
X10103218Y-20711579D02*
X10093694Y-20692531D01*
X10093694Y-20692531D02*
X10084170Y-20683008D01*
X10084170Y-20683008D02*
X10065122Y-20673484D01*
X10065122Y-20673484D02*
X10027027Y-20673484D01*
X10027027Y-20673484D02*
X10007979Y-20683008D01*
X10007979Y-20683008D02*
X9998456Y-20692531D01*
X9998456Y-20692531D02*
X9988932Y-20711579D01*
X9988932Y-20711579D02*
X9988932Y-20759198D01*
X9988932Y-20759198D02*
X9998456Y-20778246D01*
X9998456Y-20778246D02*
X10007979Y-20787770D01*
X10007979Y-20787770D02*
X10027027Y-20797293D01*
X10027027Y-20797293D02*
X10065122Y-20797293D01*
X10065122Y-20797293D02*
X10084170Y-20787770D01*
X10084170Y-20787770D02*
X10093694Y-20778246D01*
X10093694Y-20778246D02*
X10103218Y-20759198D01*
X10274646Y-20740150D02*
X10274646Y-20873484D01*
X10227027Y-20663960D02*
X10179408Y-20806817D01*
X10179408Y-20806817D02*
X10303218Y-20806817D01*
X10369884Y-20673484D02*
X10369884Y-20711579D01*
X10446075Y-20673484D02*
X10446075Y-20711579D01*
X10741313Y-20949674D02*
X10731789Y-20940150D01*
X10731789Y-20940150D02*
X10712741Y-20911579D01*
X10712741Y-20911579D02*
X10703218Y-20892531D01*
X10703218Y-20892531D02*
X10693694Y-20863960D01*
X10693694Y-20863960D02*
X10684170Y-20816341D01*
X10684170Y-20816341D02*
X10684170Y-20778246D01*
X10684170Y-20778246D02*
X10693694Y-20730627D01*
X10693694Y-20730627D02*
X10703218Y-20702055D01*
X10703218Y-20702055D02*
X10712741Y-20683008D01*
X10712741Y-20683008D02*
X10731789Y-20654436D01*
X10731789Y-20654436D02*
X10741313Y-20644912D01*
X10903218Y-20740150D02*
X10903218Y-20873484D01*
X10855599Y-20663960D02*
X10807980Y-20806817D01*
X10807980Y-20806817D02*
X10931789Y-20806817D01*
X11160361Y-20873484D02*
X11160361Y-20673484D01*
X11246075Y-20873484D02*
X11246075Y-20768722D01*
X11246075Y-20768722D02*
X11236551Y-20749674D01*
X11236551Y-20749674D02*
X11217503Y-20740150D01*
X11217503Y-20740150D02*
X11188932Y-20740150D01*
X11188932Y-20740150D02*
X11169884Y-20749674D01*
X11169884Y-20749674D02*
X11160361Y-20759198D01*
X11369884Y-20873484D02*
X11350837Y-20863960D01*
X11350837Y-20863960D02*
X11341313Y-20854436D01*
X11341313Y-20854436D02*
X11331789Y-20835389D01*
X11331789Y-20835389D02*
X11331789Y-20778246D01*
X11331789Y-20778246D02*
X11341313Y-20759198D01*
X11341313Y-20759198D02*
X11350837Y-20749674D01*
X11350837Y-20749674D02*
X11369884Y-20740150D01*
X11369884Y-20740150D02*
X11398456Y-20740150D01*
X11398456Y-20740150D02*
X11417503Y-20749674D01*
X11417503Y-20749674D02*
X11427027Y-20759198D01*
X11427027Y-20759198D02*
X11436551Y-20778246D01*
X11436551Y-20778246D02*
X11436551Y-20835389D01*
X11436551Y-20835389D02*
X11427027Y-20854436D01*
X11427027Y-20854436D02*
X11417503Y-20863960D01*
X11417503Y-20863960D02*
X11398456Y-20873484D01*
X11398456Y-20873484D02*
X11369884Y-20873484D01*
X11550837Y-20873484D02*
X11531789Y-20863960D01*
X11531789Y-20863960D02*
X11522265Y-20844912D01*
X11522265Y-20844912D02*
X11522265Y-20673484D01*
X11703218Y-20863960D02*
X11684170Y-20873484D01*
X11684170Y-20873484D02*
X11646075Y-20873484D01*
X11646075Y-20873484D02*
X11627027Y-20863960D01*
X11627027Y-20863960D02*
X11617503Y-20844912D01*
X11617503Y-20844912D02*
X11617503Y-20768722D01*
X11617503Y-20768722D02*
X11627027Y-20749674D01*
X11627027Y-20749674D02*
X11646075Y-20740150D01*
X11646075Y-20740150D02*
X11684170Y-20740150D01*
X11684170Y-20740150D02*
X11703218Y-20749674D01*
X11703218Y-20749674D02*
X11712741Y-20768722D01*
X11712741Y-20768722D02*
X11712741Y-20787770D01*
X11712741Y-20787770D02*
X11617503Y-20806817D01*
X11788932Y-20863960D02*
X11807980Y-20873484D01*
X11807980Y-20873484D02*
X11846075Y-20873484D01*
X11846075Y-20873484D02*
X11865122Y-20863960D01*
X11865122Y-20863960D02*
X11874646Y-20844912D01*
X11874646Y-20844912D02*
X11874646Y-20835389D01*
X11874646Y-20835389D02*
X11865122Y-20816341D01*
X11865122Y-20816341D02*
X11846075Y-20806817D01*
X11846075Y-20806817D02*
X11817503Y-20806817D01*
X11817503Y-20806817D02*
X11798456Y-20797293D01*
X11798456Y-20797293D02*
X11788932Y-20778246D01*
X11788932Y-20778246D02*
X11788932Y-20768722D01*
X11788932Y-20768722D02*
X11798456Y-20749674D01*
X11798456Y-20749674D02*
X11817503Y-20740150D01*
X11817503Y-20740150D02*
X11846075Y-20740150D01*
X11846075Y-20740150D02*
X11865122Y-20749674D01*
X11941313Y-20949674D02*
X11950837Y-20940150D01*
X11950837Y-20940150D02*
X11969884Y-20911579D01*
X11969884Y-20911579D02*
X11979408Y-20892531D01*
X11979408Y-20892531D02*
X11988932Y-20863960D01*
X11988932Y-20863960D02*
X11998456Y-20816341D01*
X11998456Y-20816341D02*
X11998456Y-20778246D01*
X11998456Y-20778246D02*
X11988932Y-20730627D01*
X11988932Y-20730627D02*
X11979408Y-20702055D01*
X11979408Y-20702055D02*
X11969884Y-20683008D01*
X11969884Y-20683008D02*
X11950837Y-20654436D01*
X11950837Y-20654436D02*
X11941313Y-20644912D01*
D14*
X7092750Y-21119500D02*
X7166250Y-21046000D01*
X7092750Y-20972500D01*
X7019250Y-21046000D01*
X7092750Y-21119500D01*
D10*
X7531789Y-21137484D02*
X7417503Y-21137484D01*
X7474646Y-21137484D02*
X7474646Y-20937484D01*
X7474646Y-20937484D02*
X7455598Y-20966055D01*
X7455598Y-20966055D02*
X7436551Y-20985103D01*
X7436551Y-20985103D02*
X7417503Y-20994627D01*
X7617503Y-21118436D02*
X7627027Y-21127960D01*
X7627027Y-21127960D02*
X7617503Y-21137484D01*
X7617503Y-21137484D02*
X7607979Y-21127960D01*
X7607979Y-21127960D02*
X7617503Y-21118436D01*
X7617503Y-21118436D02*
X7617503Y-21137484D01*
X7798455Y-21004150D02*
X7798455Y-21137484D01*
X7750836Y-20927960D02*
X7703217Y-21070817D01*
X7703217Y-21070817D02*
X7827027Y-21070817D01*
X7884170Y-20937484D02*
X8017503Y-20937484D01*
X8017503Y-20937484D02*
X7931789Y-21137484D01*
X8131789Y-20937484D02*
X8150836Y-20937484D01*
X8150836Y-20937484D02*
X8169884Y-20947008D01*
X8169884Y-20947008D02*
X8179408Y-20956531D01*
X8179408Y-20956531D02*
X8188932Y-20975579D01*
X8188932Y-20975579D02*
X8198455Y-21013674D01*
X8198455Y-21013674D02*
X8198455Y-21061293D01*
X8198455Y-21061293D02*
X8188932Y-21099389D01*
X8188932Y-21099389D02*
X8179408Y-21118436D01*
X8179408Y-21118436D02*
X8169884Y-21127960D01*
X8169884Y-21127960D02*
X8150836Y-21137484D01*
X8150836Y-21137484D02*
X8131789Y-21137484D01*
X8131789Y-21137484D02*
X8112741Y-21127960D01*
X8112741Y-21127960D02*
X8103217Y-21118436D01*
X8103217Y-21118436D02*
X8093693Y-21099389D01*
X8093693Y-21099389D02*
X8084170Y-21061293D01*
X8084170Y-21061293D02*
X8084170Y-21013674D01*
X8084170Y-21013674D02*
X8093693Y-20975579D01*
X8093693Y-20975579D02*
X8103217Y-20956531D01*
X8103217Y-20956531D02*
X8112741Y-20947008D01*
X8112741Y-20947008D02*
X8131789Y-20937484D01*
X8284170Y-21137484D02*
X8284170Y-21004150D01*
X8284170Y-21023198D02*
X8293693Y-21013674D01*
X8293693Y-21013674D02*
X8312741Y-21004150D01*
X8312741Y-21004150D02*
X8341313Y-21004150D01*
X8341313Y-21004150D02*
X8360360Y-21013674D01*
X8360360Y-21013674D02*
X8369884Y-21032722D01*
X8369884Y-21032722D02*
X8369884Y-21137484D01*
X8369884Y-21032722D02*
X8379408Y-21013674D01*
X8379408Y-21013674D02*
X8398455Y-21004150D01*
X8398455Y-21004150D02*
X8427027Y-21004150D01*
X8427027Y-21004150D02*
X8446075Y-21013674D01*
X8446075Y-21013674D02*
X8455598Y-21032722D01*
X8455598Y-21032722D02*
X8455598Y-21137484D01*
X8550836Y-21137484D02*
X8550836Y-21004150D01*
X8550836Y-21023198D02*
X8560360Y-21013674D01*
X8560360Y-21013674D02*
X8579408Y-21004150D01*
X8579408Y-21004150D02*
X8607979Y-21004150D01*
X8607979Y-21004150D02*
X8627027Y-21013674D01*
X8627027Y-21013674D02*
X8636551Y-21032722D01*
X8636551Y-21032722D02*
X8636551Y-21137484D01*
X8636551Y-21032722D02*
X8646075Y-21013674D01*
X8646075Y-21013674D02*
X8665122Y-21004150D01*
X8665122Y-21004150D02*
X8693694Y-21004150D01*
X8693694Y-21004150D02*
X8712741Y-21013674D01*
X8712741Y-21013674D02*
X8722265Y-21032722D01*
X8722265Y-21032722D02*
X8722265Y-21137484D01*
X9112741Y-20927960D02*
X8941313Y-21185103D01*
X9369884Y-20937484D02*
X9388932Y-20937484D01*
X9388932Y-20937484D02*
X9407979Y-20947008D01*
X9407979Y-20947008D02*
X9417503Y-20956531D01*
X9417503Y-20956531D02*
X9427027Y-20975579D01*
X9427027Y-20975579D02*
X9436551Y-21013674D01*
X9436551Y-21013674D02*
X9436551Y-21061293D01*
X9436551Y-21061293D02*
X9427027Y-21099389D01*
X9427027Y-21099389D02*
X9417503Y-21118436D01*
X9417503Y-21118436D02*
X9407979Y-21127960D01*
X9407979Y-21127960D02*
X9388932Y-21137484D01*
X9388932Y-21137484D02*
X9369884Y-21137484D01*
X9369884Y-21137484D02*
X9350837Y-21127960D01*
X9350837Y-21127960D02*
X9341313Y-21118436D01*
X9341313Y-21118436D02*
X9331789Y-21099389D01*
X9331789Y-21099389D02*
X9322265Y-21061293D01*
X9322265Y-21061293D02*
X9322265Y-21013674D01*
X9322265Y-21013674D02*
X9331789Y-20975579D01*
X9331789Y-20975579D02*
X9341313Y-20956531D01*
X9341313Y-20956531D02*
X9350837Y-20947008D01*
X9350837Y-20947008D02*
X9369884Y-20937484D01*
X9522265Y-21118436D02*
X9531789Y-21127960D01*
X9531789Y-21127960D02*
X9522265Y-21137484D01*
X9522265Y-21137484D02*
X9512741Y-21127960D01*
X9512741Y-21127960D02*
X9522265Y-21118436D01*
X9522265Y-21118436D02*
X9522265Y-21137484D01*
X9655598Y-20937484D02*
X9674646Y-20937484D01*
X9674646Y-20937484D02*
X9693694Y-20947008D01*
X9693694Y-20947008D02*
X9703218Y-20956531D01*
X9703218Y-20956531D02*
X9712741Y-20975579D01*
X9712741Y-20975579D02*
X9722265Y-21013674D01*
X9722265Y-21013674D02*
X9722265Y-21061293D01*
X9722265Y-21061293D02*
X9712741Y-21099389D01*
X9712741Y-21099389D02*
X9703218Y-21118436D01*
X9703218Y-21118436D02*
X9693694Y-21127960D01*
X9693694Y-21127960D02*
X9674646Y-21137484D01*
X9674646Y-21137484D02*
X9655598Y-21137484D01*
X9655598Y-21137484D02*
X9636551Y-21127960D01*
X9636551Y-21127960D02*
X9627027Y-21118436D01*
X9627027Y-21118436D02*
X9617503Y-21099389D01*
X9617503Y-21099389D02*
X9607979Y-21061293D01*
X9607979Y-21061293D02*
X9607979Y-21013674D01*
X9607979Y-21013674D02*
X9617503Y-20975579D01*
X9617503Y-20975579D02*
X9627027Y-20956531D01*
X9627027Y-20956531D02*
X9636551Y-20947008D01*
X9636551Y-20947008D02*
X9655598Y-20937484D01*
X9903218Y-20937484D02*
X9807979Y-20937484D01*
X9807979Y-20937484D02*
X9798456Y-21032722D01*
X9798456Y-21032722D02*
X9807979Y-21023198D01*
X9807979Y-21023198D02*
X9827027Y-21013674D01*
X9827027Y-21013674D02*
X9874646Y-21013674D01*
X9874646Y-21013674D02*
X9893694Y-21023198D01*
X9893694Y-21023198D02*
X9903218Y-21032722D01*
X9903218Y-21032722D02*
X9912741Y-21051770D01*
X9912741Y-21051770D02*
X9912741Y-21099389D01*
X9912741Y-21099389D02*
X9903218Y-21118436D01*
X9903218Y-21118436D02*
X9893694Y-21127960D01*
X9893694Y-21127960D02*
X9874646Y-21137484D01*
X9874646Y-21137484D02*
X9827027Y-21137484D01*
X9827027Y-21137484D02*
X9807979Y-21127960D01*
X9807979Y-21127960D02*
X9798456Y-21118436D01*
X9979408Y-20937484D02*
X10112741Y-20937484D01*
X10112741Y-20937484D02*
X10027027Y-21137484D01*
X10198456Y-21137484D02*
X10236551Y-21137484D01*
X10236551Y-21137484D02*
X10255599Y-21127960D01*
X10255599Y-21127960D02*
X10265122Y-21118436D01*
X10265122Y-21118436D02*
X10284170Y-21089865D01*
X10284170Y-21089865D02*
X10293694Y-21051770D01*
X10293694Y-21051770D02*
X10293694Y-20975579D01*
X10293694Y-20975579D02*
X10284170Y-20956531D01*
X10284170Y-20956531D02*
X10274646Y-20947008D01*
X10274646Y-20947008D02*
X10255599Y-20937484D01*
X10255599Y-20937484D02*
X10217503Y-20937484D01*
X10217503Y-20937484D02*
X10198456Y-20947008D01*
X10198456Y-20947008D02*
X10188932Y-20956531D01*
X10188932Y-20956531D02*
X10179408Y-20975579D01*
X10179408Y-20975579D02*
X10179408Y-21023198D01*
X10179408Y-21023198D02*
X10188932Y-21042246D01*
X10188932Y-21042246D02*
X10198456Y-21051770D01*
X10198456Y-21051770D02*
X10217503Y-21061293D01*
X10217503Y-21061293D02*
X10255599Y-21061293D01*
X10255599Y-21061293D02*
X10274646Y-21051770D01*
X10274646Y-21051770D02*
X10284170Y-21042246D01*
X10284170Y-21042246D02*
X10293694Y-21023198D01*
X10369884Y-20937484D02*
X10369884Y-20975579D01*
X10446075Y-20937484D02*
X10446075Y-20975579D01*
X10741313Y-21213674D02*
X10731789Y-21204150D01*
X10731789Y-21204150D02*
X10712741Y-21175579D01*
X10712741Y-21175579D02*
X10703218Y-21156531D01*
X10703218Y-21156531D02*
X10693694Y-21127960D01*
X10693694Y-21127960D02*
X10684170Y-21080341D01*
X10684170Y-21080341D02*
X10684170Y-21042246D01*
X10684170Y-21042246D02*
X10693694Y-20994627D01*
X10693694Y-20994627D02*
X10703218Y-20966055D01*
X10703218Y-20966055D02*
X10712741Y-20947008D01*
X10712741Y-20947008D02*
X10731789Y-20918436D01*
X10731789Y-20918436D02*
X10741313Y-20908912D01*
X10922265Y-21137484D02*
X10807980Y-21137484D01*
X10865122Y-21137484D02*
X10865122Y-20937484D01*
X10865122Y-20937484D02*
X10846075Y-20966055D01*
X10846075Y-20966055D02*
X10827027Y-20985103D01*
X10827027Y-20985103D02*
X10807980Y-20994627D01*
X10998456Y-20956531D02*
X11007980Y-20947008D01*
X11007980Y-20947008D02*
X11027027Y-20937484D01*
X11027027Y-20937484D02*
X11074646Y-20937484D01*
X11074646Y-20937484D02*
X11093694Y-20947008D01*
X11093694Y-20947008D02*
X11103218Y-20956531D01*
X11103218Y-20956531D02*
X11112741Y-20975579D01*
X11112741Y-20975579D02*
X11112741Y-20994627D01*
X11112741Y-20994627D02*
X11103218Y-21023198D01*
X11103218Y-21023198D02*
X10988932Y-21137484D01*
X10988932Y-21137484D02*
X11112741Y-21137484D01*
X11227027Y-21023198D02*
X11207979Y-21013674D01*
X11207979Y-21013674D02*
X11198456Y-21004150D01*
X11198456Y-21004150D02*
X11188932Y-20985103D01*
X11188932Y-20985103D02*
X11188932Y-20975579D01*
X11188932Y-20975579D02*
X11198456Y-20956531D01*
X11198456Y-20956531D02*
X11207979Y-20947008D01*
X11207979Y-20947008D02*
X11227027Y-20937484D01*
X11227027Y-20937484D02*
X11265122Y-20937484D01*
X11265122Y-20937484D02*
X11284170Y-20947008D01*
X11284170Y-20947008D02*
X11293694Y-20956531D01*
X11293694Y-20956531D02*
X11303218Y-20975579D01*
X11303218Y-20975579D02*
X11303218Y-20985103D01*
X11303218Y-20985103D02*
X11293694Y-21004150D01*
X11293694Y-21004150D02*
X11284170Y-21013674D01*
X11284170Y-21013674D02*
X11265122Y-21023198D01*
X11265122Y-21023198D02*
X11227027Y-21023198D01*
X11227027Y-21023198D02*
X11207979Y-21032722D01*
X11207979Y-21032722D02*
X11198456Y-21042246D01*
X11198456Y-21042246D02*
X11188932Y-21061293D01*
X11188932Y-21061293D02*
X11188932Y-21099389D01*
X11188932Y-21099389D02*
X11198456Y-21118436D01*
X11198456Y-21118436D02*
X11207979Y-21127960D01*
X11207979Y-21127960D02*
X11227027Y-21137484D01*
X11227027Y-21137484D02*
X11265122Y-21137484D01*
X11265122Y-21137484D02*
X11284170Y-21127960D01*
X11284170Y-21127960D02*
X11293694Y-21118436D01*
X11293694Y-21118436D02*
X11303218Y-21099389D01*
X11303218Y-21099389D02*
X11303218Y-21061293D01*
X11303218Y-21061293D02*
X11293694Y-21042246D01*
X11293694Y-21042246D02*
X11284170Y-21032722D01*
X11284170Y-21032722D02*
X11265122Y-21023198D01*
X11541313Y-21137484D02*
X11541313Y-20937484D01*
X11627027Y-21137484D02*
X11627027Y-21032722D01*
X11627027Y-21032722D02*
X11617503Y-21013674D01*
X11617503Y-21013674D02*
X11598456Y-21004150D01*
X11598456Y-21004150D02*
X11569884Y-21004150D01*
X11569884Y-21004150D02*
X11550837Y-21013674D01*
X11550837Y-21013674D02*
X11541313Y-21023198D01*
X11750837Y-21137484D02*
X11731789Y-21127960D01*
X11731789Y-21127960D02*
X11722265Y-21118436D01*
X11722265Y-21118436D02*
X11712741Y-21099389D01*
X11712741Y-21099389D02*
X11712741Y-21042246D01*
X11712741Y-21042246D02*
X11722265Y-21023198D01*
X11722265Y-21023198D02*
X11731789Y-21013674D01*
X11731789Y-21013674D02*
X11750837Y-21004150D01*
X11750837Y-21004150D02*
X11779408Y-21004150D01*
X11779408Y-21004150D02*
X11798456Y-21013674D01*
X11798456Y-21013674D02*
X11807980Y-21023198D01*
X11807980Y-21023198D02*
X11817503Y-21042246D01*
X11817503Y-21042246D02*
X11817503Y-21099389D01*
X11817503Y-21099389D02*
X11807980Y-21118436D01*
X11807980Y-21118436D02*
X11798456Y-21127960D01*
X11798456Y-21127960D02*
X11779408Y-21137484D01*
X11779408Y-21137484D02*
X11750837Y-21137484D01*
X11931789Y-21137484D02*
X11912741Y-21127960D01*
X11912741Y-21127960D02*
X11903218Y-21108912D01*
X11903218Y-21108912D02*
X11903218Y-20937484D01*
X12084170Y-21127960D02*
X12065122Y-21137484D01*
X12065122Y-21137484D02*
X12027027Y-21137484D01*
X12027027Y-21137484D02*
X12007980Y-21127960D01*
X12007980Y-21127960D02*
X11998456Y-21108912D01*
X11998456Y-21108912D02*
X11998456Y-21032722D01*
X11998456Y-21032722D02*
X12007980Y-21013674D01*
X12007980Y-21013674D02*
X12027027Y-21004150D01*
X12027027Y-21004150D02*
X12065122Y-21004150D01*
X12065122Y-21004150D02*
X12084170Y-21013674D01*
X12084170Y-21013674D02*
X12093694Y-21032722D01*
X12093694Y-21032722D02*
X12093694Y-21051770D01*
X12093694Y-21051770D02*
X11998456Y-21070817D01*
X12169884Y-21127960D02*
X12188932Y-21137484D01*
X12188932Y-21137484D02*
X12227027Y-21137484D01*
X12227027Y-21137484D02*
X12246075Y-21127960D01*
X12246075Y-21127960D02*
X12255599Y-21108912D01*
X12255599Y-21108912D02*
X12255599Y-21099389D01*
X12255599Y-21099389D02*
X12246075Y-21080341D01*
X12246075Y-21080341D02*
X12227027Y-21070817D01*
X12227027Y-21070817D02*
X12198456Y-21070817D01*
X12198456Y-21070817D02*
X12179408Y-21061293D01*
X12179408Y-21061293D02*
X12169884Y-21042246D01*
X12169884Y-21042246D02*
X12169884Y-21032722D01*
X12169884Y-21032722D02*
X12179408Y-21013674D01*
X12179408Y-21013674D02*
X12198456Y-21004150D01*
X12198456Y-21004150D02*
X12227027Y-21004150D01*
X12227027Y-21004150D02*
X12246075Y-21013674D01*
X12322265Y-21213674D02*
X12331789Y-21204150D01*
X12331789Y-21204150D02*
X12350837Y-21175579D01*
X12350837Y-21175579D02*
X12360361Y-21156531D01*
X12360361Y-21156531D02*
X12369884Y-21127960D01*
X12369884Y-21127960D02*
X12379408Y-21080341D01*
X12379408Y-21080341D02*
X12379408Y-21042246D01*
X12379408Y-21042246D02*
X12369884Y-20994627D01*
X12369884Y-20994627D02*
X12360361Y-20966055D01*
X12360361Y-20966055D02*
X12350837Y-20947008D01*
X12350837Y-20947008D02*
X12331789Y-20918436D01*
X12331789Y-20918436D02*
X12322265Y-20908912D01*
X6966250Y-21213000D02*
X7166250Y-21413000D01*
X7166250Y-21213000D02*
X6966250Y-21413000D01*
X7166250Y-21313000D02*
G75*
G03*
X7166250Y-21313000I-100000J0D01*
G01*
X7417503Y-21223531D02*
X7427027Y-21214008D01*
X7427027Y-21214008D02*
X7446074Y-21204484D01*
X7446074Y-21204484D02*
X7493693Y-21204484D01*
X7493693Y-21204484D02*
X7512741Y-21214008D01*
X7512741Y-21214008D02*
X7522265Y-21223531D01*
X7522265Y-21223531D02*
X7531789Y-21242579D01*
X7531789Y-21242579D02*
X7531789Y-21261627D01*
X7531789Y-21261627D02*
X7522265Y-21290198D01*
X7522265Y-21290198D02*
X7407979Y-21404484D01*
X7407979Y-21404484D02*
X7531789Y-21404484D01*
X7617503Y-21385436D02*
X7627027Y-21394960D01*
X7627027Y-21394960D02*
X7617503Y-21404484D01*
X7617503Y-21404484D02*
X7607979Y-21394960D01*
X7607979Y-21394960D02*
X7617503Y-21385436D01*
X7617503Y-21385436D02*
X7617503Y-21404484D01*
X7798455Y-21271150D02*
X7798455Y-21404484D01*
X7750836Y-21194960D02*
X7703217Y-21337817D01*
X7703217Y-21337817D02*
X7827027Y-21337817D01*
X7912741Y-21404484D02*
X7950836Y-21404484D01*
X7950836Y-21404484D02*
X7969884Y-21394960D01*
X7969884Y-21394960D02*
X7979408Y-21385436D01*
X7979408Y-21385436D02*
X7998455Y-21356865D01*
X7998455Y-21356865D02*
X8007979Y-21318770D01*
X8007979Y-21318770D02*
X8007979Y-21242579D01*
X8007979Y-21242579D02*
X7998455Y-21223531D01*
X7998455Y-21223531D02*
X7988932Y-21214008D01*
X7988932Y-21214008D02*
X7969884Y-21204484D01*
X7969884Y-21204484D02*
X7931789Y-21204484D01*
X7931789Y-21204484D02*
X7912741Y-21214008D01*
X7912741Y-21214008D02*
X7903217Y-21223531D01*
X7903217Y-21223531D02*
X7893693Y-21242579D01*
X7893693Y-21242579D02*
X7893693Y-21290198D01*
X7893693Y-21290198D02*
X7903217Y-21309246D01*
X7903217Y-21309246D02*
X7912741Y-21318770D01*
X7912741Y-21318770D02*
X7931789Y-21328293D01*
X7931789Y-21328293D02*
X7969884Y-21328293D01*
X7969884Y-21328293D02*
X7988932Y-21318770D01*
X7988932Y-21318770D02*
X7998455Y-21309246D01*
X7998455Y-21309246D02*
X8007979Y-21290198D01*
X8103217Y-21404484D02*
X8141312Y-21404484D01*
X8141312Y-21404484D02*
X8160360Y-21394960D01*
X8160360Y-21394960D02*
X8169884Y-21385436D01*
X8169884Y-21385436D02*
X8188932Y-21356865D01*
X8188932Y-21356865D02*
X8198455Y-21318770D01*
X8198455Y-21318770D02*
X8198455Y-21242579D01*
X8198455Y-21242579D02*
X8188932Y-21223531D01*
X8188932Y-21223531D02*
X8179408Y-21214008D01*
X8179408Y-21214008D02*
X8160360Y-21204484D01*
X8160360Y-21204484D02*
X8122265Y-21204484D01*
X8122265Y-21204484D02*
X8103217Y-21214008D01*
X8103217Y-21214008D02*
X8093693Y-21223531D01*
X8093693Y-21223531D02*
X8084170Y-21242579D01*
X8084170Y-21242579D02*
X8084170Y-21290198D01*
X8084170Y-21290198D02*
X8093693Y-21309246D01*
X8093693Y-21309246D02*
X8103217Y-21318770D01*
X8103217Y-21318770D02*
X8122265Y-21328293D01*
X8122265Y-21328293D02*
X8160360Y-21328293D01*
X8160360Y-21328293D02*
X8179408Y-21318770D01*
X8179408Y-21318770D02*
X8188932Y-21309246D01*
X8188932Y-21309246D02*
X8198455Y-21290198D01*
X8284170Y-21404484D02*
X8284170Y-21271150D01*
X8284170Y-21290198D02*
X8293693Y-21280674D01*
X8293693Y-21280674D02*
X8312741Y-21271150D01*
X8312741Y-21271150D02*
X8341313Y-21271150D01*
X8341313Y-21271150D02*
X8360360Y-21280674D01*
X8360360Y-21280674D02*
X8369884Y-21299722D01*
X8369884Y-21299722D02*
X8369884Y-21404484D01*
X8369884Y-21299722D02*
X8379408Y-21280674D01*
X8379408Y-21280674D02*
X8398455Y-21271150D01*
X8398455Y-21271150D02*
X8427027Y-21271150D01*
X8427027Y-21271150D02*
X8446075Y-21280674D01*
X8446075Y-21280674D02*
X8455598Y-21299722D01*
X8455598Y-21299722D02*
X8455598Y-21404484D01*
X8550836Y-21404484D02*
X8550836Y-21271150D01*
X8550836Y-21290198D02*
X8560360Y-21280674D01*
X8560360Y-21280674D02*
X8579408Y-21271150D01*
X8579408Y-21271150D02*
X8607979Y-21271150D01*
X8607979Y-21271150D02*
X8627027Y-21280674D01*
X8627027Y-21280674D02*
X8636551Y-21299722D01*
X8636551Y-21299722D02*
X8636551Y-21404484D01*
X8636551Y-21299722D02*
X8646075Y-21280674D01*
X8646075Y-21280674D02*
X8665122Y-21271150D01*
X8665122Y-21271150D02*
X8693694Y-21271150D01*
X8693694Y-21271150D02*
X8712741Y-21280674D01*
X8712741Y-21280674D02*
X8722265Y-21299722D01*
X8722265Y-21299722D02*
X8722265Y-21404484D01*
X9112741Y-21194960D02*
X8941313Y-21452103D01*
X9369884Y-21204484D02*
X9388932Y-21204484D01*
X9388932Y-21204484D02*
X9407979Y-21214008D01*
X9407979Y-21214008D02*
X9417503Y-21223531D01*
X9417503Y-21223531D02*
X9427027Y-21242579D01*
X9427027Y-21242579D02*
X9436551Y-21280674D01*
X9436551Y-21280674D02*
X9436551Y-21328293D01*
X9436551Y-21328293D02*
X9427027Y-21366389D01*
X9427027Y-21366389D02*
X9417503Y-21385436D01*
X9417503Y-21385436D02*
X9407979Y-21394960D01*
X9407979Y-21394960D02*
X9388932Y-21404484D01*
X9388932Y-21404484D02*
X9369884Y-21404484D01*
X9369884Y-21404484D02*
X9350837Y-21394960D01*
X9350837Y-21394960D02*
X9341313Y-21385436D01*
X9341313Y-21385436D02*
X9331789Y-21366389D01*
X9331789Y-21366389D02*
X9322265Y-21328293D01*
X9322265Y-21328293D02*
X9322265Y-21280674D01*
X9322265Y-21280674D02*
X9331789Y-21242579D01*
X9331789Y-21242579D02*
X9341313Y-21223531D01*
X9341313Y-21223531D02*
X9350837Y-21214008D01*
X9350837Y-21214008D02*
X9369884Y-21204484D01*
X9522265Y-21385436D02*
X9531789Y-21394960D01*
X9531789Y-21394960D02*
X9522265Y-21404484D01*
X9522265Y-21404484D02*
X9512741Y-21394960D01*
X9512741Y-21394960D02*
X9522265Y-21385436D01*
X9522265Y-21385436D02*
X9522265Y-21404484D01*
X9655598Y-21204484D02*
X9674646Y-21204484D01*
X9674646Y-21204484D02*
X9693694Y-21214008D01*
X9693694Y-21214008D02*
X9703218Y-21223531D01*
X9703218Y-21223531D02*
X9712741Y-21242579D01*
X9712741Y-21242579D02*
X9722265Y-21280674D01*
X9722265Y-21280674D02*
X9722265Y-21328293D01*
X9722265Y-21328293D02*
X9712741Y-21366389D01*
X9712741Y-21366389D02*
X9703218Y-21385436D01*
X9703218Y-21385436D02*
X9693694Y-21394960D01*
X9693694Y-21394960D02*
X9674646Y-21404484D01*
X9674646Y-21404484D02*
X9655598Y-21404484D01*
X9655598Y-21404484D02*
X9636551Y-21394960D01*
X9636551Y-21394960D02*
X9627027Y-21385436D01*
X9627027Y-21385436D02*
X9617503Y-21366389D01*
X9617503Y-21366389D02*
X9607979Y-21328293D01*
X9607979Y-21328293D02*
X9607979Y-21280674D01*
X9607979Y-21280674D02*
X9617503Y-21242579D01*
X9617503Y-21242579D02*
X9627027Y-21223531D01*
X9627027Y-21223531D02*
X9636551Y-21214008D01*
X9636551Y-21214008D02*
X9655598Y-21204484D01*
X9817503Y-21404484D02*
X9855598Y-21404484D01*
X9855598Y-21404484D02*
X9874646Y-21394960D01*
X9874646Y-21394960D02*
X9884170Y-21385436D01*
X9884170Y-21385436D02*
X9903218Y-21356865D01*
X9903218Y-21356865D02*
X9912741Y-21318770D01*
X9912741Y-21318770D02*
X9912741Y-21242579D01*
X9912741Y-21242579D02*
X9903218Y-21223531D01*
X9903218Y-21223531D02*
X9893694Y-21214008D01*
X9893694Y-21214008D02*
X9874646Y-21204484D01*
X9874646Y-21204484D02*
X9836551Y-21204484D01*
X9836551Y-21204484D02*
X9817503Y-21214008D01*
X9817503Y-21214008D02*
X9807979Y-21223531D01*
X9807979Y-21223531D02*
X9798456Y-21242579D01*
X9798456Y-21242579D02*
X9798456Y-21290198D01*
X9798456Y-21290198D02*
X9807979Y-21309246D01*
X9807979Y-21309246D02*
X9817503Y-21318770D01*
X9817503Y-21318770D02*
X9836551Y-21328293D01*
X9836551Y-21328293D02*
X9874646Y-21328293D01*
X9874646Y-21328293D02*
X9893694Y-21318770D01*
X9893694Y-21318770D02*
X9903218Y-21309246D01*
X9903218Y-21309246D02*
X9912741Y-21290198D01*
X10027027Y-21290198D02*
X10007979Y-21280674D01*
X10007979Y-21280674D02*
X9998456Y-21271150D01*
X9998456Y-21271150D02*
X9988932Y-21252103D01*
X9988932Y-21252103D02*
X9988932Y-21242579D01*
X9988932Y-21242579D02*
X9998456Y-21223531D01*
X9998456Y-21223531D02*
X10007979Y-21214008D01*
X10007979Y-21214008D02*
X10027027Y-21204484D01*
X10027027Y-21204484D02*
X10065122Y-21204484D01*
X10065122Y-21204484D02*
X10084170Y-21214008D01*
X10084170Y-21214008D02*
X10093694Y-21223531D01*
X10093694Y-21223531D02*
X10103218Y-21242579D01*
X10103218Y-21242579D02*
X10103218Y-21252103D01*
X10103218Y-21252103D02*
X10093694Y-21271150D01*
X10093694Y-21271150D02*
X10084170Y-21280674D01*
X10084170Y-21280674D02*
X10065122Y-21290198D01*
X10065122Y-21290198D02*
X10027027Y-21290198D01*
X10027027Y-21290198D02*
X10007979Y-21299722D01*
X10007979Y-21299722D02*
X9998456Y-21309246D01*
X9998456Y-21309246D02*
X9988932Y-21328293D01*
X9988932Y-21328293D02*
X9988932Y-21366389D01*
X9988932Y-21366389D02*
X9998456Y-21385436D01*
X9998456Y-21385436D02*
X10007979Y-21394960D01*
X10007979Y-21394960D02*
X10027027Y-21404484D01*
X10027027Y-21404484D02*
X10065122Y-21404484D01*
X10065122Y-21404484D02*
X10084170Y-21394960D01*
X10084170Y-21394960D02*
X10093694Y-21385436D01*
X10093694Y-21385436D02*
X10103218Y-21366389D01*
X10103218Y-21366389D02*
X10103218Y-21328293D01*
X10103218Y-21328293D02*
X10093694Y-21309246D01*
X10093694Y-21309246D02*
X10084170Y-21299722D01*
X10084170Y-21299722D02*
X10065122Y-21290198D01*
X10274646Y-21271150D02*
X10274646Y-21404484D01*
X10227027Y-21194960D02*
X10179408Y-21337817D01*
X10179408Y-21337817D02*
X10303218Y-21337817D01*
X10369884Y-21204484D02*
X10369884Y-21242579D01*
X10446075Y-21204484D02*
X10446075Y-21242579D01*
X10741313Y-21480674D02*
X10731789Y-21471150D01*
X10731789Y-21471150D02*
X10712741Y-21442579D01*
X10712741Y-21442579D02*
X10703218Y-21423531D01*
X10703218Y-21423531D02*
X10693694Y-21394960D01*
X10693694Y-21394960D02*
X10684170Y-21347341D01*
X10684170Y-21347341D02*
X10684170Y-21309246D01*
X10684170Y-21309246D02*
X10693694Y-21261627D01*
X10693694Y-21261627D02*
X10703218Y-21233055D01*
X10703218Y-21233055D02*
X10712741Y-21214008D01*
X10712741Y-21214008D02*
X10731789Y-21185436D01*
X10731789Y-21185436D02*
X10741313Y-21175912D01*
X10855599Y-21204484D02*
X10874646Y-21204484D01*
X10874646Y-21204484D02*
X10893694Y-21214008D01*
X10893694Y-21214008D02*
X10903218Y-21223531D01*
X10903218Y-21223531D02*
X10912741Y-21242579D01*
X10912741Y-21242579D02*
X10922265Y-21280674D01*
X10922265Y-21280674D02*
X10922265Y-21328293D01*
X10922265Y-21328293D02*
X10912741Y-21366389D01*
X10912741Y-21366389D02*
X10903218Y-21385436D01*
X10903218Y-21385436D02*
X10893694Y-21394960D01*
X10893694Y-21394960D02*
X10874646Y-21404484D01*
X10874646Y-21404484D02*
X10855599Y-21404484D01*
X10855599Y-21404484D02*
X10836551Y-21394960D01*
X10836551Y-21394960D02*
X10827027Y-21385436D01*
X10827027Y-21385436D02*
X10817503Y-21366389D01*
X10817503Y-21366389D02*
X10807980Y-21328293D01*
X10807980Y-21328293D02*
X10807980Y-21280674D01*
X10807980Y-21280674D02*
X10817503Y-21242579D01*
X10817503Y-21242579D02*
X10827027Y-21223531D01*
X10827027Y-21223531D02*
X10836551Y-21214008D01*
X10836551Y-21214008D02*
X10855599Y-21204484D01*
X11160361Y-21404484D02*
X11160361Y-21204484D01*
X11246075Y-21404484D02*
X11246075Y-21299722D01*
X11246075Y-21299722D02*
X11236551Y-21280674D01*
X11236551Y-21280674D02*
X11217503Y-21271150D01*
X11217503Y-21271150D02*
X11188932Y-21271150D01*
X11188932Y-21271150D02*
X11169884Y-21280674D01*
X11169884Y-21280674D02*
X11160361Y-21290198D01*
X11369884Y-21404484D02*
X11350837Y-21394960D01*
X11350837Y-21394960D02*
X11341313Y-21385436D01*
X11341313Y-21385436D02*
X11331789Y-21366389D01*
X11331789Y-21366389D02*
X11331789Y-21309246D01*
X11331789Y-21309246D02*
X11341313Y-21290198D01*
X11341313Y-21290198D02*
X11350837Y-21280674D01*
X11350837Y-21280674D02*
X11369884Y-21271150D01*
X11369884Y-21271150D02*
X11398456Y-21271150D01*
X11398456Y-21271150D02*
X11417503Y-21280674D01*
X11417503Y-21280674D02*
X11427027Y-21290198D01*
X11427027Y-21290198D02*
X11436551Y-21309246D01*
X11436551Y-21309246D02*
X11436551Y-21366389D01*
X11436551Y-21366389D02*
X11427027Y-21385436D01*
X11427027Y-21385436D02*
X11417503Y-21394960D01*
X11417503Y-21394960D02*
X11398456Y-21404484D01*
X11398456Y-21404484D02*
X11369884Y-21404484D01*
X11550837Y-21404484D02*
X11531789Y-21394960D01*
X11531789Y-21394960D02*
X11522265Y-21375912D01*
X11522265Y-21375912D02*
X11522265Y-21204484D01*
X11703218Y-21394960D02*
X11684170Y-21404484D01*
X11684170Y-21404484D02*
X11646075Y-21404484D01*
X11646075Y-21404484D02*
X11627027Y-21394960D01*
X11627027Y-21394960D02*
X11617503Y-21375912D01*
X11617503Y-21375912D02*
X11617503Y-21299722D01*
X11617503Y-21299722D02*
X11627027Y-21280674D01*
X11627027Y-21280674D02*
X11646075Y-21271150D01*
X11646075Y-21271150D02*
X11684170Y-21271150D01*
X11684170Y-21271150D02*
X11703218Y-21280674D01*
X11703218Y-21280674D02*
X11712741Y-21299722D01*
X11712741Y-21299722D02*
X11712741Y-21318770D01*
X11712741Y-21318770D02*
X11617503Y-21337817D01*
X11788932Y-21394960D02*
X11807980Y-21404484D01*
X11807980Y-21404484D02*
X11846075Y-21404484D01*
X11846075Y-21404484D02*
X11865122Y-21394960D01*
X11865122Y-21394960D02*
X11874646Y-21375912D01*
X11874646Y-21375912D02*
X11874646Y-21366389D01*
X11874646Y-21366389D02*
X11865122Y-21347341D01*
X11865122Y-21347341D02*
X11846075Y-21337817D01*
X11846075Y-21337817D02*
X11817503Y-21337817D01*
X11817503Y-21337817D02*
X11798456Y-21328293D01*
X11798456Y-21328293D02*
X11788932Y-21309246D01*
X11788932Y-21309246D02*
X11788932Y-21299722D01*
X11788932Y-21299722D02*
X11798456Y-21280674D01*
X11798456Y-21280674D02*
X11817503Y-21271150D01*
X11817503Y-21271150D02*
X11846075Y-21271150D01*
X11846075Y-21271150D02*
X11865122Y-21280674D01*
X12112742Y-21328293D02*
X12265123Y-21328293D01*
X12188932Y-21404484D02*
X12188932Y-21252103D01*
X12493694Y-21204484D02*
X12617503Y-21204484D01*
X12617503Y-21204484D02*
X12550837Y-21280674D01*
X12550837Y-21280674D02*
X12579408Y-21280674D01*
X12579408Y-21280674D02*
X12598456Y-21290198D01*
X12598456Y-21290198D02*
X12607980Y-21299722D01*
X12607980Y-21299722D02*
X12617503Y-21318770D01*
X12617503Y-21318770D02*
X12617503Y-21366389D01*
X12617503Y-21366389D02*
X12607980Y-21385436D01*
X12607980Y-21385436D02*
X12598456Y-21394960D01*
X12598456Y-21394960D02*
X12579408Y-21404484D01*
X12579408Y-21404484D02*
X12522265Y-21404484D01*
X12522265Y-21404484D02*
X12503218Y-21394960D01*
X12503218Y-21394960D02*
X12493694Y-21385436D01*
X12846075Y-21394960D02*
X12865123Y-21404484D01*
X12865123Y-21404484D02*
X12903218Y-21404484D01*
X12903218Y-21404484D02*
X12922265Y-21394960D01*
X12922265Y-21394960D02*
X12931789Y-21375912D01*
X12931789Y-21375912D02*
X12931789Y-21366389D01*
X12931789Y-21366389D02*
X12922265Y-21347341D01*
X12922265Y-21347341D02*
X12903218Y-21337817D01*
X12903218Y-21337817D02*
X12874646Y-21337817D01*
X12874646Y-21337817D02*
X12855599Y-21328293D01*
X12855599Y-21328293D02*
X12846075Y-21309246D01*
X12846075Y-21309246D02*
X12846075Y-21299722D01*
X12846075Y-21299722D02*
X12855599Y-21280674D01*
X12855599Y-21280674D02*
X12874646Y-21271150D01*
X12874646Y-21271150D02*
X12903218Y-21271150D01*
X12903218Y-21271150D02*
X12922265Y-21280674D01*
X13046075Y-21404484D02*
X13027027Y-21394960D01*
X13027027Y-21394960D02*
X13017504Y-21375912D01*
X13017504Y-21375912D02*
X13017504Y-21204484D01*
X13150837Y-21404484D02*
X13131789Y-21394960D01*
X13131789Y-21394960D02*
X13122265Y-21385436D01*
X13122265Y-21385436D02*
X13112742Y-21366389D01*
X13112742Y-21366389D02*
X13112742Y-21309246D01*
X13112742Y-21309246D02*
X13122265Y-21290198D01*
X13122265Y-21290198D02*
X13131789Y-21280674D01*
X13131789Y-21280674D02*
X13150837Y-21271150D01*
X13150837Y-21271150D02*
X13179408Y-21271150D01*
X13179408Y-21271150D02*
X13198456Y-21280674D01*
X13198456Y-21280674D02*
X13207980Y-21290198D01*
X13207980Y-21290198D02*
X13217504Y-21309246D01*
X13217504Y-21309246D02*
X13217504Y-21366389D01*
X13217504Y-21366389D02*
X13207980Y-21385436D01*
X13207980Y-21385436D02*
X13198456Y-21394960D01*
X13198456Y-21394960D02*
X13179408Y-21404484D01*
X13179408Y-21404484D02*
X13150837Y-21404484D01*
X13274646Y-21271150D02*
X13350837Y-21271150D01*
X13303218Y-21204484D02*
X13303218Y-21375912D01*
X13303218Y-21375912D02*
X13312742Y-21394960D01*
X13312742Y-21394960D02*
X13331789Y-21404484D01*
X13331789Y-21404484D02*
X13350837Y-21404484D01*
X13407980Y-21394960D02*
X13427027Y-21404484D01*
X13427027Y-21404484D02*
X13465123Y-21404484D01*
X13465123Y-21404484D02*
X13484170Y-21394960D01*
X13484170Y-21394960D02*
X13493694Y-21375912D01*
X13493694Y-21375912D02*
X13493694Y-21366389D01*
X13493694Y-21366389D02*
X13484170Y-21347341D01*
X13484170Y-21347341D02*
X13465123Y-21337817D01*
X13465123Y-21337817D02*
X13436551Y-21337817D01*
X13436551Y-21337817D02*
X13417504Y-21328293D01*
X13417504Y-21328293D02*
X13407980Y-21309246D01*
X13407980Y-21309246D02*
X13407980Y-21299722D01*
X13407980Y-21299722D02*
X13417504Y-21280674D01*
X13417504Y-21280674D02*
X13436551Y-21271150D01*
X13436551Y-21271150D02*
X13465123Y-21271150D01*
X13465123Y-21271150D02*
X13484170Y-21280674D01*
X13560361Y-21480674D02*
X13569885Y-21471150D01*
X13569885Y-21471150D02*
X13588932Y-21442579D01*
X13588932Y-21442579D02*
X13598456Y-21423531D01*
X13598456Y-21423531D02*
X13607980Y-21394960D01*
X13607980Y-21394960D02*
X13617504Y-21347341D01*
X13617504Y-21347341D02*
X13617504Y-21309246D01*
X13617504Y-21309246D02*
X13607980Y-21261627D01*
X13607980Y-21261627D02*
X13598456Y-21233055D01*
X13598456Y-21233055D02*
X13588932Y-21214008D01*
X13588932Y-21214008D02*
X13569885Y-21185436D01*
X13569885Y-21185436D02*
X13560361Y-21175912D01*
X6966250Y-21533000D02*
X7166250Y-21733000D01*
X7166250Y-21533000D02*
X6966250Y-21733000D01*
X7066250Y-21533000D02*
X7066250Y-21733000D01*
X6966250Y-21633000D02*
X7166250Y-21633000D01*
X7417503Y-21543531D02*
X7427027Y-21534008D01*
X7427027Y-21534008D02*
X7446074Y-21524484D01*
X7446074Y-21524484D02*
X7493693Y-21524484D01*
X7493693Y-21524484D02*
X7512741Y-21534008D01*
X7512741Y-21534008D02*
X7522265Y-21543531D01*
X7522265Y-21543531D02*
X7531789Y-21562579D01*
X7531789Y-21562579D02*
X7531789Y-21581627D01*
X7531789Y-21581627D02*
X7522265Y-21610198D01*
X7522265Y-21610198D02*
X7407979Y-21724484D01*
X7407979Y-21724484D02*
X7531789Y-21724484D01*
X7617503Y-21705436D02*
X7627027Y-21714960D01*
X7627027Y-21714960D02*
X7617503Y-21724484D01*
X7617503Y-21724484D02*
X7607979Y-21714960D01*
X7607979Y-21714960D02*
X7617503Y-21705436D01*
X7617503Y-21705436D02*
X7617503Y-21724484D01*
X7798455Y-21591150D02*
X7798455Y-21724484D01*
X7750836Y-21514960D02*
X7703217Y-21657817D01*
X7703217Y-21657817D02*
X7827027Y-21657817D01*
X7912741Y-21724484D02*
X7950836Y-21724484D01*
X7950836Y-21724484D02*
X7969884Y-21714960D01*
X7969884Y-21714960D02*
X7979408Y-21705436D01*
X7979408Y-21705436D02*
X7998455Y-21676865D01*
X7998455Y-21676865D02*
X8007979Y-21638770D01*
X8007979Y-21638770D02*
X8007979Y-21562579D01*
X8007979Y-21562579D02*
X7998455Y-21543531D01*
X7998455Y-21543531D02*
X7988932Y-21534008D01*
X7988932Y-21534008D02*
X7969884Y-21524484D01*
X7969884Y-21524484D02*
X7931789Y-21524484D01*
X7931789Y-21524484D02*
X7912741Y-21534008D01*
X7912741Y-21534008D02*
X7903217Y-21543531D01*
X7903217Y-21543531D02*
X7893693Y-21562579D01*
X7893693Y-21562579D02*
X7893693Y-21610198D01*
X7893693Y-21610198D02*
X7903217Y-21629246D01*
X7903217Y-21629246D02*
X7912741Y-21638770D01*
X7912741Y-21638770D02*
X7931789Y-21648293D01*
X7931789Y-21648293D02*
X7969884Y-21648293D01*
X7969884Y-21648293D02*
X7988932Y-21638770D01*
X7988932Y-21638770D02*
X7998455Y-21629246D01*
X7998455Y-21629246D02*
X8007979Y-21610198D01*
X8103217Y-21724484D02*
X8141312Y-21724484D01*
X8141312Y-21724484D02*
X8160360Y-21714960D01*
X8160360Y-21714960D02*
X8169884Y-21705436D01*
X8169884Y-21705436D02*
X8188932Y-21676865D01*
X8188932Y-21676865D02*
X8198455Y-21638770D01*
X8198455Y-21638770D02*
X8198455Y-21562579D01*
X8198455Y-21562579D02*
X8188932Y-21543531D01*
X8188932Y-21543531D02*
X8179408Y-21534008D01*
X8179408Y-21534008D02*
X8160360Y-21524484D01*
X8160360Y-21524484D02*
X8122265Y-21524484D01*
X8122265Y-21524484D02*
X8103217Y-21534008D01*
X8103217Y-21534008D02*
X8093693Y-21543531D01*
X8093693Y-21543531D02*
X8084170Y-21562579D01*
X8084170Y-21562579D02*
X8084170Y-21610198D01*
X8084170Y-21610198D02*
X8093693Y-21629246D01*
X8093693Y-21629246D02*
X8103217Y-21638770D01*
X8103217Y-21638770D02*
X8122265Y-21648293D01*
X8122265Y-21648293D02*
X8160360Y-21648293D01*
X8160360Y-21648293D02*
X8179408Y-21638770D01*
X8179408Y-21638770D02*
X8188932Y-21629246D01*
X8188932Y-21629246D02*
X8198455Y-21610198D01*
X8284170Y-21724484D02*
X8284170Y-21591150D01*
X8284170Y-21610198D02*
X8293693Y-21600674D01*
X8293693Y-21600674D02*
X8312741Y-21591150D01*
X8312741Y-21591150D02*
X8341313Y-21591150D01*
X8341313Y-21591150D02*
X8360360Y-21600674D01*
X8360360Y-21600674D02*
X8369884Y-21619722D01*
X8369884Y-21619722D02*
X8369884Y-21724484D01*
X8369884Y-21619722D02*
X8379408Y-21600674D01*
X8379408Y-21600674D02*
X8398455Y-21591150D01*
X8398455Y-21591150D02*
X8427027Y-21591150D01*
X8427027Y-21591150D02*
X8446075Y-21600674D01*
X8446075Y-21600674D02*
X8455598Y-21619722D01*
X8455598Y-21619722D02*
X8455598Y-21724484D01*
X8550836Y-21724484D02*
X8550836Y-21591150D01*
X8550836Y-21610198D02*
X8560360Y-21600674D01*
X8560360Y-21600674D02*
X8579408Y-21591150D01*
X8579408Y-21591150D02*
X8607979Y-21591150D01*
X8607979Y-21591150D02*
X8627027Y-21600674D01*
X8627027Y-21600674D02*
X8636551Y-21619722D01*
X8636551Y-21619722D02*
X8636551Y-21724484D01*
X8636551Y-21619722D02*
X8646075Y-21600674D01*
X8646075Y-21600674D02*
X8665122Y-21591150D01*
X8665122Y-21591150D02*
X8693694Y-21591150D01*
X8693694Y-21591150D02*
X8712741Y-21600674D01*
X8712741Y-21600674D02*
X8722265Y-21619722D01*
X8722265Y-21619722D02*
X8722265Y-21724484D01*
X9112741Y-21514960D02*
X8941313Y-21772103D01*
X9369884Y-21524484D02*
X9388932Y-21524484D01*
X9388932Y-21524484D02*
X9407979Y-21534008D01*
X9407979Y-21534008D02*
X9417503Y-21543531D01*
X9417503Y-21543531D02*
X9427027Y-21562579D01*
X9427027Y-21562579D02*
X9436551Y-21600674D01*
X9436551Y-21600674D02*
X9436551Y-21648293D01*
X9436551Y-21648293D02*
X9427027Y-21686389D01*
X9427027Y-21686389D02*
X9417503Y-21705436D01*
X9417503Y-21705436D02*
X9407979Y-21714960D01*
X9407979Y-21714960D02*
X9388932Y-21724484D01*
X9388932Y-21724484D02*
X9369884Y-21724484D01*
X9369884Y-21724484D02*
X9350837Y-21714960D01*
X9350837Y-21714960D02*
X9341313Y-21705436D01*
X9341313Y-21705436D02*
X9331789Y-21686389D01*
X9331789Y-21686389D02*
X9322265Y-21648293D01*
X9322265Y-21648293D02*
X9322265Y-21600674D01*
X9322265Y-21600674D02*
X9331789Y-21562579D01*
X9331789Y-21562579D02*
X9341313Y-21543531D01*
X9341313Y-21543531D02*
X9350837Y-21534008D01*
X9350837Y-21534008D02*
X9369884Y-21524484D01*
X9522265Y-21705436D02*
X9531789Y-21714960D01*
X9531789Y-21714960D02*
X9522265Y-21724484D01*
X9522265Y-21724484D02*
X9512741Y-21714960D01*
X9512741Y-21714960D02*
X9522265Y-21705436D01*
X9522265Y-21705436D02*
X9522265Y-21724484D01*
X9655598Y-21524484D02*
X9674646Y-21524484D01*
X9674646Y-21524484D02*
X9693694Y-21534008D01*
X9693694Y-21534008D02*
X9703218Y-21543531D01*
X9703218Y-21543531D02*
X9712741Y-21562579D01*
X9712741Y-21562579D02*
X9722265Y-21600674D01*
X9722265Y-21600674D02*
X9722265Y-21648293D01*
X9722265Y-21648293D02*
X9712741Y-21686389D01*
X9712741Y-21686389D02*
X9703218Y-21705436D01*
X9703218Y-21705436D02*
X9693694Y-21714960D01*
X9693694Y-21714960D02*
X9674646Y-21724484D01*
X9674646Y-21724484D02*
X9655598Y-21724484D01*
X9655598Y-21724484D02*
X9636551Y-21714960D01*
X9636551Y-21714960D02*
X9627027Y-21705436D01*
X9627027Y-21705436D02*
X9617503Y-21686389D01*
X9617503Y-21686389D02*
X9607979Y-21648293D01*
X9607979Y-21648293D02*
X9607979Y-21600674D01*
X9607979Y-21600674D02*
X9617503Y-21562579D01*
X9617503Y-21562579D02*
X9627027Y-21543531D01*
X9627027Y-21543531D02*
X9636551Y-21534008D01*
X9636551Y-21534008D02*
X9655598Y-21524484D01*
X9817503Y-21724484D02*
X9855598Y-21724484D01*
X9855598Y-21724484D02*
X9874646Y-21714960D01*
X9874646Y-21714960D02*
X9884170Y-21705436D01*
X9884170Y-21705436D02*
X9903218Y-21676865D01*
X9903218Y-21676865D02*
X9912741Y-21638770D01*
X9912741Y-21638770D02*
X9912741Y-21562579D01*
X9912741Y-21562579D02*
X9903218Y-21543531D01*
X9903218Y-21543531D02*
X9893694Y-21534008D01*
X9893694Y-21534008D02*
X9874646Y-21524484D01*
X9874646Y-21524484D02*
X9836551Y-21524484D01*
X9836551Y-21524484D02*
X9817503Y-21534008D01*
X9817503Y-21534008D02*
X9807979Y-21543531D01*
X9807979Y-21543531D02*
X9798456Y-21562579D01*
X9798456Y-21562579D02*
X9798456Y-21610198D01*
X9798456Y-21610198D02*
X9807979Y-21629246D01*
X9807979Y-21629246D02*
X9817503Y-21638770D01*
X9817503Y-21638770D02*
X9836551Y-21648293D01*
X9836551Y-21648293D02*
X9874646Y-21648293D01*
X9874646Y-21648293D02*
X9893694Y-21638770D01*
X9893694Y-21638770D02*
X9903218Y-21629246D01*
X9903218Y-21629246D02*
X9912741Y-21610198D01*
X10027027Y-21610198D02*
X10007979Y-21600674D01*
X10007979Y-21600674D02*
X9998456Y-21591150D01*
X9998456Y-21591150D02*
X9988932Y-21572103D01*
X9988932Y-21572103D02*
X9988932Y-21562579D01*
X9988932Y-21562579D02*
X9998456Y-21543531D01*
X9998456Y-21543531D02*
X10007979Y-21534008D01*
X10007979Y-21534008D02*
X10027027Y-21524484D01*
X10027027Y-21524484D02*
X10065122Y-21524484D01*
X10065122Y-21524484D02*
X10084170Y-21534008D01*
X10084170Y-21534008D02*
X10093694Y-21543531D01*
X10093694Y-21543531D02*
X10103218Y-21562579D01*
X10103218Y-21562579D02*
X10103218Y-21572103D01*
X10103218Y-21572103D02*
X10093694Y-21591150D01*
X10093694Y-21591150D02*
X10084170Y-21600674D01*
X10084170Y-21600674D02*
X10065122Y-21610198D01*
X10065122Y-21610198D02*
X10027027Y-21610198D01*
X10027027Y-21610198D02*
X10007979Y-21619722D01*
X10007979Y-21619722D02*
X9998456Y-21629246D01*
X9998456Y-21629246D02*
X9988932Y-21648293D01*
X9988932Y-21648293D02*
X9988932Y-21686389D01*
X9988932Y-21686389D02*
X9998456Y-21705436D01*
X9998456Y-21705436D02*
X10007979Y-21714960D01*
X10007979Y-21714960D02*
X10027027Y-21724484D01*
X10027027Y-21724484D02*
X10065122Y-21724484D01*
X10065122Y-21724484D02*
X10084170Y-21714960D01*
X10084170Y-21714960D02*
X10093694Y-21705436D01*
X10093694Y-21705436D02*
X10103218Y-21686389D01*
X10103218Y-21686389D02*
X10103218Y-21648293D01*
X10103218Y-21648293D02*
X10093694Y-21629246D01*
X10093694Y-21629246D02*
X10084170Y-21619722D01*
X10084170Y-21619722D02*
X10065122Y-21610198D01*
X10274646Y-21591150D02*
X10274646Y-21724484D01*
X10227027Y-21514960D02*
X10179408Y-21657817D01*
X10179408Y-21657817D02*
X10303218Y-21657817D01*
X10369884Y-21524484D02*
X10369884Y-21562579D01*
X10446075Y-21524484D02*
X10446075Y-21562579D01*
X10741313Y-21800674D02*
X10731789Y-21791150D01*
X10731789Y-21791150D02*
X10712741Y-21762579D01*
X10712741Y-21762579D02*
X10703218Y-21743531D01*
X10703218Y-21743531D02*
X10693694Y-21714960D01*
X10693694Y-21714960D02*
X10684170Y-21667341D01*
X10684170Y-21667341D02*
X10684170Y-21629246D01*
X10684170Y-21629246D02*
X10693694Y-21581627D01*
X10693694Y-21581627D02*
X10703218Y-21553055D01*
X10703218Y-21553055D02*
X10712741Y-21534008D01*
X10712741Y-21534008D02*
X10731789Y-21505436D01*
X10731789Y-21505436D02*
X10741313Y-21495912D01*
X10922265Y-21724484D02*
X10807980Y-21724484D01*
X10865122Y-21724484D02*
X10865122Y-21524484D01*
X10865122Y-21524484D02*
X10846075Y-21553055D01*
X10846075Y-21553055D02*
X10827027Y-21572103D01*
X10827027Y-21572103D02*
X10807980Y-21581627D01*
X11160361Y-21724484D02*
X11160361Y-21524484D01*
X11246075Y-21724484D02*
X11246075Y-21619722D01*
X11246075Y-21619722D02*
X11236551Y-21600674D01*
X11236551Y-21600674D02*
X11217503Y-21591150D01*
X11217503Y-21591150D02*
X11188932Y-21591150D01*
X11188932Y-21591150D02*
X11169884Y-21600674D01*
X11169884Y-21600674D02*
X11160361Y-21610198D01*
X11369884Y-21724484D02*
X11350837Y-21714960D01*
X11350837Y-21714960D02*
X11341313Y-21705436D01*
X11341313Y-21705436D02*
X11331789Y-21686389D01*
X11331789Y-21686389D02*
X11331789Y-21629246D01*
X11331789Y-21629246D02*
X11341313Y-21610198D01*
X11341313Y-21610198D02*
X11350837Y-21600674D01*
X11350837Y-21600674D02*
X11369884Y-21591150D01*
X11369884Y-21591150D02*
X11398456Y-21591150D01*
X11398456Y-21591150D02*
X11417503Y-21600674D01*
X11417503Y-21600674D02*
X11427027Y-21610198D01*
X11427027Y-21610198D02*
X11436551Y-21629246D01*
X11436551Y-21629246D02*
X11436551Y-21686389D01*
X11436551Y-21686389D02*
X11427027Y-21705436D01*
X11427027Y-21705436D02*
X11417503Y-21714960D01*
X11417503Y-21714960D02*
X11398456Y-21724484D01*
X11398456Y-21724484D02*
X11369884Y-21724484D01*
X11550837Y-21724484D02*
X11531789Y-21714960D01*
X11531789Y-21714960D02*
X11522265Y-21695912D01*
X11522265Y-21695912D02*
X11522265Y-21524484D01*
X11703218Y-21714960D02*
X11684170Y-21724484D01*
X11684170Y-21724484D02*
X11646075Y-21724484D01*
X11646075Y-21724484D02*
X11627027Y-21714960D01*
X11627027Y-21714960D02*
X11617503Y-21695912D01*
X11617503Y-21695912D02*
X11617503Y-21619722D01*
X11617503Y-21619722D02*
X11627027Y-21600674D01*
X11627027Y-21600674D02*
X11646075Y-21591150D01*
X11646075Y-21591150D02*
X11684170Y-21591150D01*
X11684170Y-21591150D02*
X11703218Y-21600674D01*
X11703218Y-21600674D02*
X11712741Y-21619722D01*
X11712741Y-21619722D02*
X11712741Y-21638770D01*
X11712741Y-21638770D02*
X11617503Y-21657817D01*
X11779408Y-21800674D02*
X11788932Y-21791150D01*
X11788932Y-21791150D02*
X11807980Y-21762579D01*
X11807980Y-21762579D02*
X11817503Y-21743531D01*
X11817503Y-21743531D02*
X11827027Y-21714960D01*
X11827027Y-21714960D02*
X11836551Y-21667341D01*
X11836551Y-21667341D02*
X11836551Y-21629246D01*
X11836551Y-21629246D02*
X11827027Y-21581627D01*
X11827027Y-21581627D02*
X11817503Y-21553055D01*
X11817503Y-21553055D02*
X11807980Y-21534008D01*
X11807980Y-21534008D02*
X11788932Y-21505436D01*
X11788932Y-21505436D02*
X11779408Y-21495912D01*
M02*
