M48
; DRILL file {KiCad 7.0.5} date Sat Mar  2 17:21:16 2024
; FORMAT={-:-/ absolute / metric / decimal}
; #@! TF.CreationDate,2024-03-02T17:21:16+09:00
; #@! TF.GenerationSoftware,Kicad,Pcbnew,7.0.5
; #@! TF.FileFunction,NonPlated,1,2,NPTH
FMAT,2
METRIC
; #@! TA.AperFunction,NonPlated,NPTH,ComponentDrill
T1C0.850
; #@! TA.AperFunction,NonPlated,NPTH,ComponentDrill
T2C1.750
; #@! TA.AperFunction,NonPlated,NPTH,ComponentDrill
T3C3.048
; #@! TA.AperFunction,NonPlated,NPTH,ComponentDrill
T4C3.988
; #@! TA.AperFunction,NonPlated,NPTH,ComponentDrill
T5C4.000
%
G90
G05
T1
X104.09Y-139.49
X104.09Y-142.49
T2
X75.882Y-107.95
X78.264Y-184.15
X80.645Y-127.0
X83.026Y-146.05
X86.042Y-107.95
X87.789Y-165.1
X88.424Y-184.15
X90.805Y-127.0
X93.186Y-146.05
X94.932Y-107.95
X97.949Y-165.1
X102.076Y-184.15
X104.457Y-127.0
X105.093Y-107.95
X109.22Y-146.05
X112.236Y-184.15
X113.983Y-107.95
X114.617Y-127.0
X118.745Y-165.1
X119.38Y-146.05
X123.507Y-127.0
X124.142Y-107.95
X125.889Y-184.15
X128.27Y-146.05
X128.905Y-165.1
X133.032Y-107.95
X133.667Y-127.0
X136.049Y-184.15
X137.795Y-165.1
X138.43Y-146.05
X142.558Y-127.0
X143.192Y-107.95
X147.32Y-146.05
X147.955Y-165.1
X149.701Y-184.15
X152.082Y-107.95
X152.718Y-127.0
X156.845Y-165.1
X157.48Y-146.05
X159.861Y-184.15
X161.607Y-127.0
X162.243Y-107.95
X166.37Y-146.05
X167.005Y-165.1
X171.132Y-107.95
X171.767Y-127.0
X175.895Y-165.1
X176.53Y-146.05
X180.657Y-127.0
X181.292Y-107.95
X185.42Y-146.05
X186.055Y-165.1
X187.801Y-184.15
X190.183Y-107.95
X190.817Y-127.0
X194.945Y-165.1
X195.58Y-146.05
X197.326Y-184.15
X197.961Y-184.15
X199.707Y-127.0
X200.343Y-107.95
X204.47Y-146.05
X205.105Y-165.1
X207.486Y-184.15
X209.232Y-107.95
X209.867Y-127.0
X213.995Y-165.1
X214.63Y-146.05
X218.757Y-127.0
X219.392Y-107.95
X223.52Y-146.05
X224.155Y-165.1
X228.282Y-107.95
X228.917Y-127.0
X233.045Y-165.1
X233.68Y-146.05
X235.426Y-184.15
X237.807Y-127.0
X238.442Y-107.95
X242.57Y-146.05
X243.205Y-165.1
X245.586Y-184.15
X247.332Y-107.95
X247.968Y-127.0
X252.095Y-165.1
X252.73Y-146.05
X256.858Y-127.0
X257.493Y-107.95
X261.62Y-146.05
X262.255Y-165.1
X266.382Y-107.95
X267.017Y-127.0
X268.764Y-184.15
X271.145Y-165.1
X271.78Y-146.05
X275.907Y-127.0
X276.542Y-107.95
X278.924Y-184.15
X280.67Y-146.05
X281.305Y-165.1
X285.433Y-107.95
X286.067Y-127.0
X290.195Y-165.1
X290.83Y-146.05
X292.576Y-184.15
X294.957Y-127.0
X295.592Y-107.95
X299.72Y-146.05
X300.355Y-165.1
X302.736Y-184.15
X304.482Y-107.95
X305.118Y-127.0
X309.88Y-146.05
X314.007Y-127.0
X314.642Y-107.95
X316.389Y-184.15
X324.167Y-127.0
X325.914Y-165.1
X326.549Y-184.15
X330.676Y-146.05
X333.058Y-107.95
X336.074Y-165.1
X337.82Y-127.0
X340.201Y-184.15
X340.836Y-146.05
X343.217Y-107.95
X347.98Y-127.0
X350.361Y-184.15
T3
X80.931Y-158.115
X104.807Y-158.115
X152.406Y-191.135
X180.943Y-191.135
X204.819Y-191.135
X228.568Y-191.135
X252.406Y-191.135
X252.444Y-191.135
X319.056Y-158.115
X323.818Y-153.035
X326.2Y-100.965
X342.932Y-158.115
X347.694Y-153.035
X350.075Y-100.965
T4
X80.931Y-173.355
X104.807Y-173.355
X152.406Y-175.895
X180.943Y-175.895
X204.819Y-175.895
X228.568Y-175.895
X252.406Y-175.895
X252.444Y-175.895
X319.056Y-173.355
X323.818Y-137.795
X326.2Y-116.205
X342.932Y-173.355
X347.694Y-137.795
X350.075Y-116.205
T5
X80.962Y-107.95
X83.344Y-184.15
X85.725Y-127.0
X88.106Y-146.05
X92.869Y-165.1
X100.012Y-107.95
X107.156Y-184.15
X109.537Y-127.0
X114.3Y-146.05
X119.062Y-107.95
X123.825Y-165.1
X128.588Y-127.0
X130.969Y-184.15
X133.35Y-146.05
X138.112Y-107.95
X142.875Y-165.1
X147.637Y-127.0
X152.4Y-146.05
X154.781Y-184.15
X157.162Y-107.95
X161.925Y-165.1
X166.688Y-127.0
X171.45Y-146.05
X176.213Y-107.95
X180.975Y-165.1
X185.737Y-127.0
X190.5Y-146.05
X192.881Y-184.15
X195.262Y-107.95
X200.025Y-165.1
X202.406Y-184.15
X204.787Y-127.0
X209.55Y-146.05
X214.312Y-107.95
X219.075Y-165.1
X223.837Y-127.0
X228.6Y-146.05
X233.362Y-107.95
X238.125Y-165.1
X240.506Y-184.15
X242.887Y-127.0
X247.65Y-146.05
X252.412Y-107.95
X257.175Y-165.1
X261.938Y-127.0
X266.7Y-146.05
X271.462Y-107.95
X273.844Y-184.15
X276.225Y-165.1
X280.988Y-127.0
X285.75Y-146.05
X290.512Y-107.95
X295.275Y-165.1
X297.656Y-184.15
X300.037Y-127.0
X304.8Y-146.05
X309.562Y-107.95
X319.087Y-127.0
X321.469Y-184.15
X330.994Y-165.1
X335.756Y-146.05
X338.137Y-107.95
X342.9Y-127.0
X345.281Y-184.15
T0
M30
