M48
; DRILL file {KiCad 7.0.5} date Sat Mar  2 17:21:16 2024
; FORMAT={-:-/ absolute / metric / decimal}
; #@! TF.CreationDate,2024-03-02T17:21:16+09:00
; #@! TF.GenerationSoftware,Kicad,Pcbnew,7.0.5
; #@! TF.FileFunction,Plated,1,2,PTH
FMAT,2
METRIC
; #@! TA.AperFunction,Plated,PTH,ViaDrill
T1C0.300
; #@! TA.AperFunction,Plated,PTH,ComponentDrill
T2C0.300
; #@! TA.AperFunction,Plated,PTH,ViaDrill
T3C0.400
; #@! TA.AperFunction,Plated,PTH,ComponentDrill
T4C1.000
; #@! TA.AperFunction,Plated,PTH,ComponentDrill
T5C1.470
; #@! TA.AperFunction,Plated,PTH,ComponentDrill
T6C2.499
; #@! TA.AperFunction,Plated,PTH,ComponentDrill
T7C2.499
%
G90
G05
T1
X99.52Y-145.17
X101.94Y-167.45
X109.738Y-136.185
X110.08Y-135.459
X110.924Y-137.189
X110.925Y-136.185
X111.661Y-135.449
X112.24Y-134.89
X136.19Y-187.95
X136.19Y-190.45
X136.19Y-192.55
X136.29Y-186.07
X138.08Y-190.45
X138.08Y-192.55
X138.09Y-187.9
X138.12Y-186.07
X139.44Y-186.12
X139.44Y-187.44
X140.93Y-186.14
X140.93Y-187.46
X143.26Y-186.15
X143.26Y-187.47
X145.36Y-186.15
X145.36Y-187.47
X147.46Y-186.15
X147.46Y-187.47
X149.28Y-186.15
X149.28Y-187.47
X149.481Y-174.369
X151.38Y-186.15
X151.38Y-187.47
X152.539Y-179.596
X153.48Y-186.15
X153.48Y-187.47
X154.88Y-187.46
X156.862Y-132.421
X156.98Y-186.14
X156.98Y-187.46
X157.77Y-136.552
X158.707Y-134.38
X158.707Y-136.0
X159.0Y-130.431
X159.0Y-131.81
X159.08Y-186.14
X159.08Y-187.46
X159.36Y-175.0
X159.46Y-149.48
X159.82Y-129.93
X159.82Y-131.81
X160.087Y-136.0
X160.955Y-141.3
X160.99Y-187.48
X161.605Y-141.3
X161.67Y-177.832
X162.54Y-137.16
X162.731Y-149.481
X163.04Y-177.87
X163.09Y-187.48
X163.29Y-171.36
X163.72Y-174.34
X164.93Y-181.29
X165.14Y-187.53
X165.62Y-174.53
X165.62Y-175.73
X165.62Y-178.13
X165.62Y-176.93
X166.82Y-178.13
X166.82Y-175.73
X166.82Y-176.93
X166.82Y-174.53
X167.16Y-149.481
X167.2Y-187.48
X168.02Y-178.13
X168.02Y-174.53
X168.02Y-175.73
X168.02Y-176.93
X168.16Y-168.15
X168.74Y-169.96
X168.76Y-182.36
X169.22Y-178.13
X169.22Y-174.53
X169.22Y-176.93
X169.22Y-175.73
X169.23Y-153.73
X169.3Y-187.48
X169.31Y-186.06
X169.645Y-170.33
X170.25Y-138.9
X170.93Y-179.87
X171.12Y-187.48
X171.18Y-186.05
X171.24Y-136.35
X171.69Y-176.08
X172.0Y-134.02
X172.04Y-137.17
X172.85Y-132.81
X172.88Y-170.2
X173.08Y-171.15
X173.089Y-164.81
X173.089Y-166.62
X173.089Y-168.24
X173.09Y-162.754
X173.2Y-135.2
X173.2Y-136.0
X173.22Y-179.87
X173.34Y-187.47
X173.35Y-186.02
X173.36Y-179.08
X173.38Y-173.59
X173.4Y-176.65
X174.0Y-135.2
X174.0Y-136.0
X175.19Y-137.15
X175.21Y-134.02
X175.39Y-172.32
X175.81Y-186.02
X175.93Y-187.45
X176.14Y-135.88
X176.7Y-132.79
X177.781Y-172.111
X178.48Y-186.02
X178.55Y-187.47
X179.95Y-132.82
X180.41Y-186.02
X180.43Y-187.47
X180.66Y-134.03
X181.345Y-185.002
X181.71Y-138.94
X182.31Y-187.48
X183.34Y-134.02
X183.34Y-135.54
X183.83Y-149.481
X183.84Y-154.72
X183.92Y-153.731
X184.76Y-187.48
X185.53Y-155.83
X186.86Y-187.48
X188.68Y-187.48
X190.9Y-187.48
X191.231Y-180.102
X193.49Y-187.48
X193.62Y-130.431
X194.55Y-116.74
X195.67Y-184.17
X196.11Y-187.48
X196.862Y-179.762
X197.74Y-130.431
X197.99Y-187.48
X198.043Y-173.329
X199.137Y-174.187
X199.781Y-173.551
X199.87Y-187.48
X201.67Y-187.48
X203.42Y-192.58
X203.55Y-187.48
X203.55Y-189.21
X205.03Y-188.28
X206.87Y-188.66
X208.25Y-192.43
X208.27Y-187.48
X208.27Y-190.04
T2
X164.19Y-187.605
T3
X173.6Y-138.21
T4
X171.68Y-182.265
X174.22Y-182.265
X176.76Y-182.265
X179.3Y-182.265
T5
X77.153Y-105.41
X79.534Y-181.61
X81.915Y-124.46
X83.502Y-102.87
X84.296Y-143.51
X85.884Y-179.07
X88.265Y-121.92
X89.059Y-162.56
X90.646Y-140.97
X95.409Y-160.02
X96.203Y-105.41
X102.552Y-102.87
X103.346Y-181.61
X105.727Y-124.46
X109.696Y-179.07
X110.49Y-143.51
X112.078Y-121.92
X115.252Y-105.41
X116.84Y-140.97
X120.015Y-162.56
X121.602Y-102.87
X124.777Y-124.46
X126.365Y-160.02
X127.159Y-181.61
X129.54Y-143.51
X131.127Y-121.92
X133.509Y-179.07
X134.302Y-105.41
X135.89Y-140.97
X139.065Y-162.56
X140.653Y-102.87
X143.827Y-124.46
X145.415Y-160.02
X148.59Y-143.51
X150.177Y-121.92
X150.971Y-181.61
X153.352Y-105.41
X154.94Y-140.97
X157.321Y-179.07
X158.115Y-162.56
X159.702Y-102.87
X162.877Y-124.46
X164.465Y-160.02
X167.64Y-143.51
X169.227Y-121.92
X172.403Y-105.41
X173.99Y-140.97
X177.165Y-162.56
X178.752Y-102.87
X181.927Y-124.46
X183.515Y-160.02
X186.69Y-143.51
X188.278Y-121.92
X189.071Y-181.61
X191.452Y-105.41
X193.04Y-140.97
X195.421Y-179.07
X196.215Y-162.56
X197.802Y-102.87
X198.596Y-181.61
X200.977Y-124.46
X202.565Y-160.02
X204.946Y-179.07
X205.74Y-143.51
X207.327Y-121.92
X210.502Y-105.41
X212.09Y-140.97
X215.265Y-162.56
X216.852Y-102.87
X220.028Y-124.46
X221.615Y-160.02
X224.79Y-143.51
X226.377Y-121.92
X229.552Y-105.41
X231.14Y-140.97
X234.315Y-162.56
X235.903Y-102.87
X236.696Y-181.61
X239.077Y-124.46
X240.665Y-160.02
X243.046Y-179.07
X243.84Y-143.51
X245.427Y-121.92
X248.602Y-105.41
X250.19Y-140.97
X253.365Y-162.56
X254.952Y-102.87
X258.127Y-124.46
X259.715Y-160.02
X262.89Y-143.51
X264.477Y-121.92
X267.652Y-105.41
X269.24Y-140.97
X270.034Y-181.61
X272.415Y-162.56
X274.002Y-102.87
X276.384Y-179.07
X277.178Y-124.46
X278.765Y-160.02
X281.94Y-143.51
X283.527Y-121.92
X286.702Y-105.41
X288.29Y-140.97
X291.465Y-162.56
X293.053Y-102.87
X293.846Y-181.61
X296.227Y-124.46
X297.815Y-160.02
X300.196Y-179.07
X300.99Y-143.51
X302.577Y-121.92
X305.752Y-105.41
X307.34Y-140.97
X312.102Y-102.87
X315.277Y-124.46
X317.659Y-181.61
X321.627Y-121.92
X324.009Y-179.07
X327.184Y-162.56
X331.946Y-143.51
X333.534Y-160.02
X334.327Y-105.41
X338.296Y-140.97
X339.09Y-124.46
X340.678Y-102.87
X341.471Y-181.61
X345.44Y-121.92
X347.821Y-179.07
T7
X97.012Y-126.65
T6
X198.762Y-145.75G85X201.263Y-145.75
G05
X261.062Y-183.95G85X263.563Y-183.95
G05
X330.612Y-126.65G85X333.113Y-126.65
G05
T0
M30
