G04 #@! TF.GenerationSoftware,KiCad,Pcbnew,7.0.5*
G04 #@! TF.CreationDate,2024-03-02T17:21:11+09:00*
G04 #@! TF.ProjectId,Hotp4ck60,486f7470-3463-46b3-9630-2e6b69636164,rev?*
G04 #@! TF.SameCoordinates,Original*
G04 #@! TF.FileFunction,Soldermask,Top*
G04 #@! TF.FilePolarity,Negative*
%FSLAX46Y46*%
G04 Gerber Fmt 4.6, Leading zero omitted, Abs format (unit mm)*
G04 Created by KiCad (PCBNEW 7.0.5) date 2024-03-02 17:21:11*
%MOMM*%
%LPD*%
G01*
G04 APERTURE LIST*
%ADD10C,2.501900*%
%ADD11C,1.750000*%
%ADD12C,4.000000*%
%ADD13C,3.048000*%
%ADD14C,3.987800*%
%ADD15R,1.700000X1.700000*%
%ADD16O,1.700000X1.700000*%
%ADD17C,7.001300*%
%ADD18C,7.000240*%
%ADD19C,0.850000*%
G04 APERTURE END LIST*
D10*
X71812500Y-152599050D02*
X75612500Y-152599050D01*
X71812500Y-157900950D02*
X75612500Y-157900950D01*
X353012500Y-152599050D02*
X356812500Y-152599050D01*
X353012500Y-157900950D02*
X356862500Y-157900950D01*
X78263450Y-155250000D02*
G75*
G03*
X75612500Y-152599050I-2650949J1D01*
G01*
X75612500Y-157900950D02*
G75*
G03*
X78263450Y-155250000I1J2650949D01*
G01*
X353012500Y-152599050D02*
G75*
G03*
X350361550Y-155250000I0J-2650950D01*
G01*
X350361550Y-155250000D02*
G75*
G03*
X353012500Y-157900950I2650950J0D01*
G01*
D11*
X194945000Y-165100000D03*
D12*
X200025000Y-165100000D03*
D11*
X205105000Y-165100000D03*
X80645000Y-127000000D03*
D12*
X85725000Y-127000000D03*
D11*
X90805000Y-127000000D03*
D13*
X204819250Y-191135000D03*
D14*
X204819250Y-175895000D03*
D13*
X180943250Y-191135000D03*
D14*
X180943250Y-175895000D03*
D11*
X280670000Y-146050000D03*
D12*
X285750000Y-146050000D03*
D11*
X290830000Y-146050000D03*
X261620000Y-146050000D03*
D12*
X266700000Y-146050000D03*
D11*
X271780000Y-146050000D03*
X266382500Y-107950000D03*
D12*
X271462500Y-107950000D03*
D11*
X276542500Y-107950000D03*
X123507500Y-127000000D03*
D12*
X128587500Y-127000000D03*
D11*
X133667500Y-127000000D03*
D15*
X179300000Y-182265000D03*
D16*
X176760000Y-182265000D03*
X174220000Y-182265000D03*
X171680000Y-182265000D03*
D11*
X252095000Y-165100000D03*
D12*
X257175000Y-165100000D03*
D11*
X262255000Y-165100000D03*
X218757500Y-127000000D03*
D12*
X223837500Y-127000000D03*
D11*
X228917500Y-127000000D03*
X235426250Y-184150000D03*
D12*
X240506250Y-184150000D03*
D11*
X245586250Y-184150000D03*
X247332500Y-107950000D03*
D12*
X252412500Y-107950000D03*
D11*
X257492500Y-107950000D03*
X180657500Y-127000000D03*
D12*
X185737500Y-127000000D03*
D11*
X190817500Y-127000000D03*
X292576250Y-184150000D03*
D12*
X297656250Y-184150000D03*
D11*
X302736250Y-184150000D03*
X268763750Y-184150000D03*
D12*
X273843750Y-184150000D03*
D11*
X278923750Y-184150000D03*
X166370000Y-146050000D03*
D12*
X171450000Y-146050000D03*
D11*
X176530000Y-146050000D03*
X213995000Y-165100000D03*
D12*
X219075000Y-165100000D03*
D11*
X224155000Y-165100000D03*
X199707500Y-127000000D03*
D12*
X204787500Y-127000000D03*
D11*
X209867500Y-127000000D03*
X337820000Y-127000000D03*
D12*
X342900000Y-127000000D03*
D11*
X347980000Y-127000000D03*
X102076250Y-184150000D03*
D12*
X107156250Y-184150000D03*
D11*
X112236250Y-184150000D03*
X109220000Y-146050000D03*
D12*
X114300000Y-146050000D03*
D11*
X119380000Y-146050000D03*
X256857500Y-127000000D03*
D12*
X261937500Y-127000000D03*
D11*
X267017500Y-127000000D03*
X147320000Y-146050000D03*
D12*
X152400000Y-146050000D03*
D11*
X157480000Y-146050000D03*
X209232500Y-107950000D03*
D12*
X214312500Y-107950000D03*
D11*
X219392500Y-107950000D03*
X316388750Y-184150000D03*
D12*
X321468750Y-184150000D03*
D11*
X326548750Y-184150000D03*
X190182500Y-107950000D03*
D12*
X195262500Y-107950000D03*
D11*
X200342500Y-107950000D03*
X113982500Y-107950000D03*
D12*
X119062500Y-107950000D03*
D11*
X124142500Y-107950000D03*
X142557500Y-127000000D03*
D12*
X147637500Y-127000000D03*
D11*
X152717500Y-127000000D03*
X233045000Y-165100000D03*
D12*
X238125000Y-165100000D03*
D11*
X243205000Y-165100000D03*
X228282500Y-107950000D03*
D12*
X233362500Y-107950000D03*
D11*
X238442500Y-107950000D03*
D13*
X252444250Y-191135000D03*
D14*
X252444250Y-175895000D03*
D13*
X228568250Y-191135000D03*
D14*
X228568250Y-175895000D03*
D11*
X304482500Y-107950000D03*
D12*
X309562500Y-107950000D03*
D11*
X314642500Y-107950000D03*
X128270000Y-146050000D03*
D12*
X133350000Y-146050000D03*
D11*
X138430000Y-146050000D03*
D13*
X252406250Y-191135000D03*
D14*
X252406250Y-175895000D03*
D13*
X152406250Y-191135000D03*
D14*
X152406250Y-175895000D03*
D13*
X319055750Y-158115000D03*
D14*
X319055750Y-173355000D03*
D13*
X342931750Y-158115000D03*
D14*
X342931750Y-173355000D03*
D11*
X204470000Y-146050000D03*
D12*
X209550000Y-146050000D03*
D11*
X214630000Y-146050000D03*
X137795000Y-165100000D03*
D12*
X142875000Y-165100000D03*
D11*
X147955000Y-165100000D03*
X314007500Y-127000000D03*
D12*
X319087500Y-127000000D03*
D11*
X324167500Y-127000000D03*
X83026250Y-146050000D03*
D12*
X88106250Y-146050000D03*
D11*
X93186250Y-146050000D03*
X152082500Y-107950000D03*
D12*
X157162500Y-107950000D03*
D11*
X162242500Y-107950000D03*
X299720000Y-146050000D03*
D12*
X304800000Y-146050000D03*
D11*
X309880000Y-146050000D03*
X87788750Y-165100000D03*
D12*
X92868750Y-165100000D03*
D11*
X97948750Y-165100000D03*
X78263750Y-184150000D03*
D12*
X83343750Y-184150000D03*
D11*
X88423750Y-184150000D03*
X242570000Y-146050000D03*
D12*
X247650000Y-146050000D03*
D11*
X252730000Y-146050000D03*
X133032500Y-107950000D03*
D12*
X138112500Y-107950000D03*
D11*
X143192500Y-107950000D03*
X185420000Y-146050000D03*
D12*
X190500000Y-146050000D03*
D11*
X195580000Y-146050000D03*
X325913750Y-165100000D03*
D12*
X330993750Y-165100000D03*
D11*
X336073750Y-165100000D03*
X187801250Y-184150000D03*
D12*
X192881250Y-184150000D03*
D11*
X197961250Y-184150000D03*
X330676250Y-146050000D03*
D12*
X335756250Y-146050000D03*
D11*
X340836250Y-146050000D03*
X271145000Y-165100000D03*
D12*
X276225000Y-165100000D03*
D11*
X281305000Y-165100000D03*
X275907500Y-127000000D03*
D12*
X280987500Y-127000000D03*
D11*
X286067500Y-127000000D03*
X223520000Y-146050000D03*
D12*
X228600000Y-146050000D03*
D11*
X233680000Y-146050000D03*
X175895000Y-165100000D03*
D12*
X180975000Y-165100000D03*
D11*
X186055000Y-165100000D03*
X171132500Y-107950000D03*
D12*
X176212500Y-107950000D03*
D11*
X181292500Y-107950000D03*
D13*
X80930750Y-158115000D03*
D14*
X80930750Y-173355000D03*
D13*
X104806750Y-158115000D03*
D14*
X104806750Y-173355000D03*
D11*
X161607500Y-127000000D03*
D12*
X166687500Y-127000000D03*
D11*
X171767500Y-127000000D03*
X118745000Y-165100000D03*
D12*
X123825000Y-165100000D03*
D11*
X128905000Y-165100000D03*
D13*
X347694250Y-153035000D03*
D14*
X347694250Y-137795000D03*
D13*
X323818250Y-153035000D03*
D14*
X323818250Y-137795000D03*
D11*
X149701250Y-184150000D03*
D12*
X154781250Y-184150000D03*
D11*
X159861250Y-184150000D03*
X340201250Y-184150000D03*
D12*
X345281250Y-184150000D03*
D11*
X350361250Y-184150000D03*
X104457500Y-127000000D03*
D12*
X109537500Y-127000000D03*
D11*
X114617500Y-127000000D03*
D13*
X326199500Y-100965000D03*
D14*
X326199500Y-116205000D03*
D13*
X350075500Y-100965000D03*
D14*
X350075500Y-116205000D03*
D11*
X156845000Y-165100000D03*
D12*
X161925000Y-165100000D03*
D11*
X167005000Y-165100000D03*
X125888750Y-184150000D03*
D12*
X130968750Y-184150000D03*
D11*
X136048750Y-184150000D03*
X197326250Y-184150000D03*
D12*
X202406250Y-184150000D03*
D11*
X207486250Y-184150000D03*
X294957500Y-127000000D03*
D12*
X300037500Y-127000000D03*
D11*
X305117500Y-127000000D03*
X94932500Y-107950000D03*
D12*
X100012500Y-107950000D03*
D11*
X105092500Y-107950000D03*
X285432500Y-107950000D03*
D12*
X290512500Y-107950000D03*
D11*
X295592500Y-107950000D03*
X237807500Y-127000000D03*
D12*
X242887500Y-127000000D03*
D11*
X247967500Y-127000000D03*
X75882500Y-107950000D03*
D12*
X80962500Y-107950000D03*
D11*
X86042500Y-107950000D03*
X290195000Y-165100000D03*
D12*
X295275000Y-165100000D03*
D11*
X300355000Y-165100000D03*
D17*
X97012500Y-126650000D03*
D18*
X200012500Y-145750000D03*
X262312500Y-183950000D03*
X331862500Y-126650000D03*
D11*
X333057500Y-107950000D03*
D12*
X338137500Y-107950000D03*
D11*
X343217500Y-107950000D03*
D19*
X104090000Y-139490000D03*
X104090000Y-142490000D03*
M02*
