%TF.GenerationSoftware,KiCad,Pcbnew,7.0.5*%
%TF.CreationDate,2023-07-04T12:34:33+09:00*%
%TF.ProjectId,Hotp4ck60,486f7470-3463-46b3-9630-2e6b69636164,rev?*%
%TF.SameCoordinates,Original*%
%TF.FileFunction,Drillmap*%
%TF.FilePolarity,Positive*%
%FSLAX45Y45*%
G04 Gerber Fmt 4.5, Leading zero omitted, Abs format (unit mm)*
G04 Created by KiCad (PCBNEW 7.0.5) date 2023-07-04 12:34:33*
%MOMM*%
%LPD*%
G01*
G04 APERTURE LIST*
%ADD10C,0.200000*%
%ADD11C,0.065000*%
%ADD12C,0.085000*%
%ADD13C,0.175000*%
%ADD14C,0.304800*%
%ADD15C,0.398780*%
%ADD16C,0.400000*%
G04 APERTURE END LIST*
D10*
D11*
X8679500Y-9063500D02*
X8744500Y-9128500D01*
X8744500Y-9063500D02*
X8679500Y-9128500D01*
X9257500Y-9063500D02*
X9322500Y-9128500D01*
X9322500Y-9063500D02*
X9257500Y-9128500D01*
D12*
X9754500Y-13391000D02*
G75*
G03*
X9754500Y-13391000I-42500J0D01*
G01*
X9754500Y-13691000D02*
G75*
G03*
X9754500Y-13691000I-42500J0D01*
G01*
D13*
X7588250Y-9596250D02*
X7588250Y-9771250D01*
X7500750Y-9683750D02*
X7675750Y-9683750D01*
X7826375Y-17216250D02*
X7826375Y-17391250D01*
X7738875Y-17303750D02*
X7913875Y-17303750D01*
X8064500Y-11501250D02*
X8064500Y-11676250D01*
X7977000Y-11588750D02*
X8152000Y-11588750D01*
X8302625Y-13406250D02*
X8302625Y-13581250D01*
X8215125Y-13493750D02*
X8390125Y-13493750D01*
X8604250Y-9596250D02*
X8604250Y-9771250D01*
X8516750Y-9683750D02*
X8691750Y-9683750D01*
X8778875Y-15311250D02*
X8778875Y-15486250D01*
X8691375Y-15398750D02*
X8866375Y-15398750D01*
X8842375Y-17216250D02*
X8842375Y-17391250D01*
X8754875Y-17303750D02*
X8929875Y-17303750D01*
X9080500Y-11501250D02*
X9080500Y-11676250D01*
X8993000Y-11588750D02*
X9168000Y-11588750D01*
X9318625Y-13406250D02*
X9318625Y-13581250D01*
X9231125Y-13493750D02*
X9406125Y-13493750D01*
X9493250Y-9596250D02*
X9493250Y-9771250D01*
X9405750Y-9683750D02*
X9580750Y-9683750D01*
X9794875Y-15311250D02*
X9794875Y-15486250D01*
X9707375Y-15398750D02*
X9882375Y-15398750D01*
X10207625Y-17216250D02*
X10207625Y-17391250D01*
X10120125Y-17303750D02*
X10295125Y-17303750D01*
X10445750Y-11501250D02*
X10445750Y-11676250D01*
X10358250Y-11588750D02*
X10533250Y-11588750D01*
X10509250Y-9596250D02*
X10509250Y-9771250D01*
X10421750Y-9683750D02*
X10596750Y-9683750D01*
X10922000Y-13406250D02*
X10922000Y-13581250D01*
X10834500Y-13493750D02*
X11009500Y-13493750D01*
X11223625Y-17216250D02*
X11223625Y-17391250D01*
X11136125Y-17303750D02*
X11311125Y-17303750D01*
X11398250Y-9596250D02*
X11398250Y-9771250D01*
X11310750Y-9683750D02*
X11485750Y-9683750D01*
X11461750Y-11501250D02*
X11461750Y-11676250D01*
X11374250Y-11588750D02*
X11549250Y-11588750D01*
X11874500Y-15311250D02*
X11874500Y-15486250D01*
X11787000Y-15398750D02*
X11962000Y-15398750D01*
X11938000Y-13406250D02*
X11938000Y-13581250D01*
X11850500Y-13493750D02*
X12025500Y-13493750D01*
X12350750Y-11501250D02*
X12350750Y-11676250D01*
X12263250Y-11588750D02*
X12438250Y-11588750D01*
X12414250Y-9596250D02*
X12414250Y-9771250D01*
X12326750Y-9683750D02*
X12501750Y-9683750D01*
X12588875Y-17216250D02*
X12588875Y-17391250D01*
X12501375Y-17303750D02*
X12676375Y-17303750D01*
X12827000Y-13406250D02*
X12827000Y-13581250D01*
X12739500Y-13493750D02*
X12914500Y-13493750D01*
X12890500Y-15311250D02*
X12890500Y-15486250D01*
X12803000Y-15398750D02*
X12978000Y-15398750D01*
X13303250Y-9596250D02*
X13303250Y-9771250D01*
X13215750Y-9683750D02*
X13390750Y-9683750D01*
X13366750Y-11501250D02*
X13366750Y-11676250D01*
X13279250Y-11588750D02*
X13454250Y-11588750D01*
X13604875Y-17216250D02*
X13604875Y-17391250D01*
X13517375Y-17303750D02*
X13692375Y-17303750D01*
X13779500Y-15311250D02*
X13779500Y-15486250D01*
X13692000Y-15398750D02*
X13867000Y-15398750D01*
X13843000Y-13406250D02*
X13843000Y-13581250D01*
X13755500Y-13493750D02*
X13930500Y-13493750D01*
X14255750Y-11501250D02*
X14255750Y-11676250D01*
X14168250Y-11588750D02*
X14343250Y-11588750D01*
X14319250Y-9596250D02*
X14319250Y-9771250D01*
X14231750Y-9683750D02*
X14406750Y-9683750D01*
X14732000Y-13406250D02*
X14732000Y-13581250D01*
X14644500Y-13493750D02*
X14819500Y-13493750D01*
X14795500Y-15311250D02*
X14795500Y-15486250D01*
X14708000Y-15398750D02*
X14883000Y-15398750D01*
X14970125Y-17216250D02*
X14970125Y-17391250D01*
X14882625Y-17303750D02*
X15057625Y-17303750D01*
X15208250Y-9596250D02*
X15208250Y-9771250D01*
X15120750Y-9683750D02*
X15295750Y-9683750D01*
X15271750Y-11501250D02*
X15271750Y-11676250D01*
X15184250Y-11588750D02*
X15359250Y-11588750D01*
X15684500Y-15311250D02*
X15684500Y-15486250D01*
X15597000Y-15398750D02*
X15772000Y-15398750D01*
X15748000Y-13406250D02*
X15748000Y-13581250D01*
X15660500Y-13493750D02*
X15835500Y-13493750D01*
X15986125Y-17216250D02*
X15986125Y-17391250D01*
X15898625Y-17303750D02*
X16073625Y-17303750D01*
X16160750Y-11501250D02*
X16160750Y-11676250D01*
X16073250Y-11588750D02*
X16248250Y-11588750D01*
X16224250Y-9596250D02*
X16224250Y-9771250D01*
X16136750Y-9683750D02*
X16311750Y-9683750D01*
X16637000Y-13406250D02*
X16637000Y-13581250D01*
X16549500Y-13493750D02*
X16724500Y-13493750D01*
X16700500Y-15311250D02*
X16700500Y-15486250D01*
X16613000Y-15398750D02*
X16788000Y-15398750D01*
X17113250Y-9596250D02*
X17113250Y-9771250D01*
X17025750Y-9683750D02*
X17200750Y-9683750D01*
X17176750Y-11501250D02*
X17176750Y-11676250D01*
X17089250Y-11588750D02*
X17264250Y-11588750D01*
X17589500Y-15311250D02*
X17589500Y-15486250D01*
X17502000Y-15398750D02*
X17677000Y-15398750D01*
X17653000Y-13406250D02*
X17653000Y-13581250D01*
X17565500Y-13493750D02*
X17740500Y-13493750D01*
X18065750Y-11501250D02*
X18065750Y-11676250D01*
X17978250Y-11588750D02*
X18153250Y-11588750D01*
X18129250Y-9596250D02*
X18129250Y-9771250D01*
X18041750Y-9683750D02*
X18216750Y-9683750D01*
X18542000Y-13406250D02*
X18542000Y-13581250D01*
X18454500Y-13493750D02*
X18629500Y-13493750D01*
X18605500Y-15311250D02*
X18605500Y-15486250D01*
X18518000Y-15398750D02*
X18693000Y-15398750D01*
X18780125Y-17216250D02*
X18780125Y-17391250D01*
X18692625Y-17303750D02*
X18867625Y-17303750D01*
X19018250Y-9596250D02*
X19018250Y-9771250D01*
X18930750Y-9683750D02*
X19105750Y-9683750D01*
X19081750Y-11501250D02*
X19081750Y-11676250D01*
X18994250Y-11588750D02*
X19169250Y-11588750D01*
X19494500Y-15311250D02*
X19494500Y-15486250D01*
X19407000Y-15398750D02*
X19582000Y-15398750D01*
X19558000Y-13406250D02*
X19558000Y-13581250D01*
X19470500Y-13493750D02*
X19645500Y-13493750D01*
X19732625Y-17216250D02*
X19732625Y-17391250D01*
X19645125Y-17303750D02*
X19820125Y-17303750D01*
X19796125Y-17216250D02*
X19796125Y-17391250D01*
X19708625Y-17303750D02*
X19883625Y-17303750D01*
X19970750Y-11501250D02*
X19970750Y-11676250D01*
X19883250Y-11588750D02*
X20058250Y-11588750D01*
X20034250Y-9596250D02*
X20034250Y-9771250D01*
X19946750Y-9683750D02*
X20121750Y-9683750D01*
X20447000Y-13406250D02*
X20447000Y-13581250D01*
X20359500Y-13493750D02*
X20534500Y-13493750D01*
X20510500Y-15311250D02*
X20510500Y-15486250D01*
X20423000Y-15398750D02*
X20598000Y-15398750D01*
X20748625Y-17216250D02*
X20748625Y-17391250D01*
X20661125Y-17303750D02*
X20836125Y-17303750D01*
X20923250Y-9596250D02*
X20923250Y-9771250D01*
X20835750Y-9683750D02*
X21010750Y-9683750D01*
X20986750Y-11501250D02*
X20986750Y-11676250D01*
X20899250Y-11588750D02*
X21074250Y-11588750D01*
X21399500Y-15311250D02*
X21399500Y-15486250D01*
X21312000Y-15398750D02*
X21487000Y-15398750D01*
X21463000Y-13406250D02*
X21463000Y-13581250D01*
X21375500Y-13493750D02*
X21550500Y-13493750D01*
X21875750Y-11501250D02*
X21875750Y-11676250D01*
X21788250Y-11588750D02*
X21963250Y-11588750D01*
X21939250Y-9596250D02*
X21939250Y-9771250D01*
X21851750Y-9683750D02*
X22026750Y-9683750D01*
X22352000Y-13406250D02*
X22352000Y-13581250D01*
X22264500Y-13493750D02*
X22439500Y-13493750D01*
X22415500Y-15311250D02*
X22415500Y-15486250D01*
X22328000Y-15398750D02*
X22503000Y-15398750D01*
X22828250Y-9596250D02*
X22828250Y-9771250D01*
X22740750Y-9683750D02*
X22915750Y-9683750D01*
X22891750Y-11501250D02*
X22891750Y-11676250D01*
X22804250Y-11588750D02*
X22979250Y-11588750D01*
X23304500Y-15311250D02*
X23304500Y-15486250D01*
X23217000Y-15398750D02*
X23392000Y-15398750D01*
X23368000Y-13406250D02*
X23368000Y-13581250D01*
X23280500Y-13493750D02*
X23455500Y-13493750D01*
X23542625Y-17216250D02*
X23542625Y-17391250D01*
X23455125Y-17303750D02*
X23630125Y-17303750D01*
X23780750Y-11501250D02*
X23780750Y-11676250D01*
X23693250Y-11588750D02*
X23868250Y-11588750D01*
X23844250Y-9596250D02*
X23844250Y-9771250D01*
X23756750Y-9683750D02*
X23931750Y-9683750D01*
X24257000Y-13406250D02*
X24257000Y-13581250D01*
X24169500Y-13493750D02*
X24344500Y-13493750D01*
X24320500Y-15311250D02*
X24320500Y-15486250D01*
X24233000Y-15398750D02*
X24408000Y-15398750D01*
X24558625Y-17216250D02*
X24558625Y-17391250D01*
X24471125Y-17303750D02*
X24646125Y-17303750D01*
X24733250Y-9596250D02*
X24733250Y-9771250D01*
X24645750Y-9683750D02*
X24820750Y-9683750D01*
X24796750Y-11501250D02*
X24796750Y-11676250D01*
X24709250Y-11588750D02*
X24884250Y-11588750D01*
X25209500Y-15311250D02*
X25209500Y-15486250D01*
X25122000Y-15398750D02*
X25297000Y-15398750D01*
X25273000Y-13406250D02*
X25273000Y-13581250D01*
X25185500Y-13493750D02*
X25360500Y-13493750D01*
X25685750Y-11501250D02*
X25685750Y-11676250D01*
X25598250Y-11588750D02*
X25773250Y-11588750D01*
X25749250Y-9596250D02*
X25749250Y-9771250D01*
X25661750Y-9683750D02*
X25836750Y-9683750D01*
X26162000Y-13406250D02*
X26162000Y-13581250D01*
X26074500Y-13493750D02*
X26249500Y-13493750D01*
X26225500Y-15311250D02*
X26225500Y-15486250D01*
X26138000Y-15398750D02*
X26313000Y-15398750D01*
X26638250Y-9596250D02*
X26638250Y-9771250D01*
X26550750Y-9683750D02*
X26725750Y-9683750D01*
X26701750Y-11501250D02*
X26701750Y-11676250D01*
X26614250Y-11588750D02*
X26789250Y-11588750D01*
X26876375Y-17216250D02*
X26876375Y-17391250D01*
X26788875Y-17303750D02*
X26963875Y-17303750D01*
X27114500Y-15311250D02*
X27114500Y-15486250D01*
X27027000Y-15398750D02*
X27202000Y-15398750D01*
X27178000Y-13406250D02*
X27178000Y-13581250D01*
X27090500Y-13493750D02*
X27265500Y-13493750D01*
X27590750Y-11501250D02*
X27590750Y-11676250D01*
X27503250Y-11588750D02*
X27678250Y-11588750D01*
X27654250Y-9596250D02*
X27654250Y-9771250D01*
X27566750Y-9683750D02*
X27741750Y-9683750D01*
X27892375Y-17216250D02*
X27892375Y-17391250D01*
X27804875Y-17303750D02*
X27979875Y-17303750D01*
X28067000Y-13406250D02*
X28067000Y-13581250D01*
X27979500Y-13493750D02*
X28154500Y-13493750D01*
X28130500Y-15311250D02*
X28130500Y-15486250D01*
X28043000Y-15398750D02*
X28218000Y-15398750D01*
X28543250Y-9596250D02*
X28543250Y-9771250D01*
X28455750Y-9683750D02*
X28630750Y-9683750D01*
X28606750Y-11501250D02*
X28606750Y-11676250D01*
X28519250Y-11588750D02*
X28694250Y-11588750D01*
X29019500Y-15311250D02*
X29019500Y-15486250D01*
X28932000Y-15398750D02*
X29107000Y-15398750D01*
X29083000Y-13406250D02*
X29083000Y-13581250D01*
X28995500Y-13493750D02*
X29170500Y-13493750D01*
X29257625Y-17216250D02*
X29257625Y-17391250D01*
X29170125Y-17303750D02*
X29345125Y-17303750D01*
X29495750Y-11501250D02*
X29495750Y-11676250D01*
X29408250Y-11588750D02*
X29583250Y-11588750D01*
X29559250Y-9596250D02*
X29559250Y-9771250D01*
X29471750Y-9683750D02*
X29646750Y-9683750D01*
X29972000Y-13406250D02*
X29972000Y-13581250D01*
X29884500Y-13493750D02*
X30059500Y-13493750D01*
X30035500Y-15311250D02*
X30035500Y-15486250D01*
X29948000Y-15398750D02*
X30123000Y-15398750D01*
X30273625Y-17216250D02*
X30273625Y-17391250D01*
X30186125Y-17303750D02*
X30361125Y-17303750D01*
X30448250Y-9596250D02*
X30448250Y-9771250D01*
X30360750Y-9683750D02*
X30535750Y-9683750D01*
X30511750Y-11501250D02*
X30511750Y-11676250D01*
X30424250Y-11588750D02*
X30599250Y-11588750D01*
X30988000Y-13406250D02*
X30988000Y-13581250D01*
X30900500Y-13493750D02*
X31075500Y-13493750D01*
X31400750Y-11501250D02*
X31400750Y-11676250D01*
X31313250Y-11588750D02*
X31488250Y-11588750D01*
X31464250Y-9596250D02*
X31464250Y-9771250D01*
X31376750Y-9683750D02*
X31551750Y-9683750D01*
X31638875Y-17216250D02*
X31638875Y-17391250D01*
X31551375Y-17303750D02*
X31726375Y-17303750D01*
X32416750Y-11501250D02*
X32416750Y-11676250D01*
X32329250Y-11588750D02*
X32504250Y-11588750D01*
X32591375Y-15311250D02*
X32591375Y-15486250D01*
X32503875Y-15398750D02*
X32678875Y-15398750D01*
X32654875Y-17216250D02*
X32654875Y-17391250D01*
X32567375Y-17303750D02*
X32742375Y-17303750D01*
X33067625Y-13406250D02*
X33067625Y-13581250D01*
X32980125Y-13493750D02*
X33155125Y-13493750D01*
X33305750Y-9596250D02*
X33305750Y-9771250D01*
X33218250Y-9683750D02*
X33393250Y-9683750D01*
X33607375Y-15311250D02*
X33607375Y-15486250D01*
X33519875Y-15398750D02*
X33694875Y-15398750D01*
X33782000Y-11501250D02*
X33782000Y-11676250D01*
X33694500Y-11588750D02*
X33869500Y-11588750D01*
X34020125Y-17216250D02*
X34020125Y-17391250D01*
X33932625Y-17303750D02*
X34107625Y-17303750D01*
X34083625Y-13406250D02*
X34083625Y-13581250D01*
X33996125Y-13493750D02*
X34171125Y-13493750D01*
X34321750Y-9596250D02*
X34321750Y-9771250D01*
X34234250Y-9683750D02*
X34409250Y-9683750D01*
X34798000Y-11501250D02*
X34798000Y-11676250D01*
X34710500Y-11588750D02*
X34885500Y-11588750D01*
X35036125Y-17216250D02*
X35036125Y-17391250D01*
X34948625Y-17303750D02*
X35123625Y-17303750D01*
D14*
X8200839Y-14808014D02*
X8200839Y-14592486D01*
X7985311Y-14592486D01*
X7985311Y-14808014D01*
X8200839Y-14808014D01*
X10588439Y-14808014D02*
X10588439Y-14592486D01*
X10372911Y-14592486D01*
X10372911Y-14808014D01*
X10588439Y-14808014D01*
X15348389Y-18110014D02*
X15348389Y-17894486D01*
X15132861Y-17894486D01*
X15132861Y-18110014D01*
X15348389Y-18110014D01*
X18202089Y-18110014D02*
X18202089Y-17894486D01*
X17986561Y-17894486D01*
X17986561Y-18110014D01*
X18202089Y-18110014D01*
X20589689Y-18110014D02*
X20589689Y-17894486D01*
X20374161Y-17894486D01*
X20374161Y-18110014D01*
X20589689Y-18110014D01*
X22964589Y-18110014D02*
X22964589Y-17894486D01*
X22749061Y-17894486D01*
X22749061Y-18110014D01*
X22964589Y-18110014D01*
X25348389Y-18110014D02*
X25348389Y-17894486D01*
X25132861Y-17894486D01*
X25132861Y-18110014D01*
X25348389Y-18110014D01*
X25352189Y-18110014D02*
X25352189Y-17894486D01*
X25136661Y-17894486D01*
X25136661Y-18110014D01*
X25352189Y-18110014D01*
X32013339Y-14808014D02*
X32013339Y-14592486D01*
X31797811Y-14592486D01*
X31797811Y-14808014D01*
X32013339Y-14808014D01*
X32489589Y-14300014D02*
X32489589Y-14084486D01*
X32274061Y-14084486D01*
X32274061Y-14300014D01*
X32489589Y-14300014D01*
X32727714Y-9093014D02*
X32727714Y-8877486D01*
X32512186Y-8877486D01*
X32512186Y-9093014D01*
X32727714Y-9093014D01*
X34400939Y-14808014D02*
X34400939Y-14592486D01*
X34185411Y-14592486D01*
X34185411Y-14808014D01*
X34400939Y-14808014D01*
X34877189Y-14300014D02*
X34877189Y-14084486D01*
X34661661Y-14084486D01*
X34661661Y-14300014D01*
X34877189Y-14300014D01*
X35115314Y-9093014D02*
X35115314Y-8877486D01*
X34899786Y-8877486D01*
X34899786Y-9093014D01*
X35115314Y-9093014D01*
D15*
X8093075Y-16423640D02*
X8292465Y-16224250D01*
X8093075Y-16024860D01*
X7893685Y-16224250D01*
X8093075Y-16423640D01*
X10480675Y-16423640D02*
X10680065Y-16224250D01*
X10480675Y-16024860D01*
X10281285Y-16224250D01*
X10480675Y-16423640D01*
X15240625Y-16677640D02*
X15440015Y-16478250D01*
X15240625Y-16278860D01*
X15041235Y-16478250D01*
X15240625Y-16677640D01*
X18094325Y-16677640D02*
X18293715Y-16478250D01*
X18094325Y-16278860D01*
X17894935Y-16478250D01*
X18094325Y-16677640D01*
X20481925Y-16677640D02*
X20681315Y-16478250D01*
X20481925Y-16278860D01*
X20282535Y-16478250D01*
X20481925Y-16677640D01*
X22856825Y-16677640D02*
X23056215Y-16478250D01*
X22856825Y-16278860D01*
X22657435Y-16478250D01*
X22856825Y-16677640D01*
X25240625Y-16677640D02*
X25440015Y-16478250D01*
X25240625Y-16278860D01*
X25041235Y-16478250D01*
X25240625Y-16677640D01*
X25244425Y-16677640D02*
X25443815Y-16478250D01*
X25244425Y-16278860D01*
X25045035Y-16478250D01*
X25244425Y-16677640D01*
X31905575Y-16423640D02*
X32104965Y-16224250D01*
X31905575Y-16024860D01*
X31706185Y-16224250D01*
X31905575Y-16423640D01*
X32381825Y-12867640D02*
X32581215Y-12668250D01*
X32381825Y-12468860D01*
X32182435Y-12668250D01*
X32381825Y-12867640D01*
X32619950Y-10708640D02*
X32819340Y-10509250D01*
X32619950Y-10309860D01*
X32420560Y-10509250D01*
X32619950Y-10708640D01*
X34293175Y-16423640D02*
X34492565Y-16224250D01*
X34293175Y-16024860D01*
X34093785Y-16224250D01*
X34293175Y-16423640D01*
X34769425Y-12867640D02*
X34968815Y-12668250D01*
X34769425Y-12468860D01*
X34570035Y-12668250D01*
X34769425Y-12867640D01*
X35007550Y-10708640D02*
X35206940Y-10509250D01*
X35007550Y-10309860D01*
X34808160Y-10509250D01*
X35007550Y-10708640D01*
D16*
X7896250Y-9483750D02*
X8296250Y-9883750D01*
X8296250Y-9483750D02*
X7896250Y-9883750D01*
X8296250Y-9683750D02*
G75*
G03*
X8296250Y-9683750I-200000J0D01*
G01*
X8134375Y-17103750D02*
X8534375Y-17503750D01*
X8534375Y-17103750D02*
X8134375Y-17503750D01*
X8534375Y-17303750D02*
G75*
G03*
X8534375Y-17303750I-200000J0D01*
G01*
X8372500Y-11388750D02*
X8772500Y-11788750D01*
X8772500Y-11388750D02*
X8372500Y-11788750D01*
X8772500Y-11588750D02*
G75*
G03*
X8772500Y-11588750I-200000J0D01*
G01*
X8610625Y-13293750D02*
X9010625Y-13693750D01*
X9010625Y-13293750D02*
X8610625Y-13693750D01*
X9010625Y-13493750D02*
G75*
G03*
X9010625Y-13493750I-200000J0D01*
G01*
X9086875Y-15198750D02*
X9486875Y-15598750D01*
X9486875Y-15198750D02*
X9086875Y-15598750D01*
X9486875Y-15398750D02*
G75*
G03*
X9486875Y-15398750I-200000J0D01*
G01*
X9801250Y-9483750D02*
X10201250Y-9883750D01*
X10201250Y-9483750D02*
X9801250Y-9883750D01*
X10201250Y-9683750D02*
G75*
G03*
X10201250Y-9683750I-200000J0D01*
G01*
X10515625Y-17103750D02*
X10915625Y-17503750D01*
X10915625Y-17103750D02*
X10515625Y-17503750D01*
X10915625Y-17303750D02*
G75*
G03*
X10915625Y-17303750I-200000J0D01*
G01*
X10753750Y-11388750D02*
X11153750Y-11788750D01*
X11153750Y-11388750D02*
X10753750Y-11788750D01*
X11153750Y-11588750D02*
G75*
G03*
X11153750Y-11588750I-200000J0D01*
G01*
X11230000Y-13293750D02*
X11630000Y-13693750D01*
X11630000Y-13293750D02*
X11230000Y-13693750D01*
X11630000Y-13493750D02*
G75*
G03*
X11630000Y-13493750I-200000J0D01*
G01*
X11706250Y-9483750D02*
X12106250Y-9883750D01*
X12106250Y-9483750D02*
X11706250Y-9883750D01*
X12106250Y-9683750D02*
G75*
G03*
X12106250Y-9683750I-200000J0D01*
G01*
X12182500Y-15198750D02*
X12582500Y-15598750D01*
X12582500Y-15198750D02*
X12182500Y-15598750D01*
X12582500Y-15398750D02*
G75*
G03*
X12582500Y-15398750I-200000J0D01*
G01*
X12658750Y-11388750D02*
X13058750Y-11788750D01*
X13058750Y-11388750D02*
X12658750Y-11788750D01*
X13058750Y-11588750D02*
G75*
G03*
X13058750Y-11588750I-200000J0D01*
G01*
X12896875Y-17103750D02*
X13296875Y-17503750D01*
X13296875Y-17103750D02*
X12896875Y-17503750D01*
X13296875Y-17303750D02*
G75*
G03*
X13296875Y-17303750I-200000J0D01*
G01*
X13135000Y-13293750D02*
X13535000Y-13693750D01*
X13535000Y-13293750D02*
X13135000Y-13693750D01*
X13535000Y-13493750D02*
G75*
G03*
X13535000Y-13493750I-200000J0D01*
G01*
X13611250Y-9483750D02*
X14011250Y-9883750D01*
X14011250Y-9483750D02*
X13611250Y-9883750D01*
X14011250Y-9683750D02*
G75*
G03*
X14011250Y-9683750I-200000J0D01*
G01*
X14087500Y-15198750D02*
X14487500Y-15598750D01*
X14487500Y-15198750D02*
X14087500Y-15598750D01*
X14487500Y-15398750D02*
G75*
G03*
X14487500Y-15398750I-200000J0D01*
G01*
X14563750Y-11388750D02*
X14963750Y-11788750D01*
X14963750Y-11388750D02*
X14563750Y-11788750D01*
X14963750Y-11588750D02*
G75*
G03*
X14963750Y-11588750I-200000J0D01*
G01*
X15040000Y-13293750D02*
X15440000Y-13693750D01*
X15440000Y-13293750D02*
X15040000Y-13693750D01*
X15440000Y-13493750D02*
G75*
G03*
X15440000Y-13493750I-200000J0D01*
G01*
X15278125Y-17103750D02*
X15678125Y-17503750D01*
X15678125Y-17103750D02*
X15278125Y-17503750D01*
X15678125Y-17303750D02*
G75*
G03*
X15678125Y-17303750I-200000J0D01*
G01*
X15516250Y-9483750D02*
X15916250Y-9883750D01*
X15916250Y-9483750D02*
X15516250Y-9883750D01*
X15916250Y-9683750D02*
G75*
G03*
X15916250Y-9683750I-200000J0D01*
G01*
X15992500Y-15198750D02*
X16392500Y-15598750D01*
X16392500Y-15198750D02*
X15992500Y-15598750D01*
X16392500Y-15398750D02*
G75*
G03*
X16392500Y-15398750I-200000J0D01*
G01*
X16468750Y-11388750D02*
X16868750Y-11788750D01*
X16868750Y-11388750D02*
X16468750Y-11788750D01*
X16868750Y-11588750D02*
G75*
G03*
X16868750Y-11588750I-200000J0D01*
G01*
X16945000Y-13293750D02*
X17345000Y-13693750D01*
X17345000Y-13293750D02*
X16945000Y-13693750D01*
X17345000Y-13493750D02*
G75*
G03*
X17345000Y-13493750I-200000J0D01*
G01*
X17421250Y-9483750D02*
X17821250Y-9883750D01*
X17821250Y-9483750D02*
X17421250Y-9883750D01*
X17821250Y-9683750D02*
G75*
G03*
X17821250Y-9683750I-200000J0D01*
G01*
X17897500Y-15198750D02*
X18297500Y-15598750D01*
X18297500Y-15198750D02*
X17897500Y-15598750D01*
X18297500Y-15398750D02*
G75*
G03*
X18297500Y-15398750I-200000J0D01*
G01*
X18373750Y-11388750D02*
X18773750Y-11788750D01*
X18773750Y-11388750D02*
X18373750Y-11788750D01*
X18773750Y-11588750D02*
G75*
G03*
X18773750Y-11588750I-200000J0D01*
G01*
X18850000Y-13293750D02*
X19250000Y-13693750D01*
X19250000Y-13293750D02*
X18850000Y-13693750D01*
X19250000Y-13493750D02*
G75*
G03*
X19250000Y-13493750I-200000J0D01*
G01*
X19088125Y-17103750D02*
X19488125Y-17503750D01*
X19488125Y-17103750D02*
X19088125Y-17503750D01*
X19488125Y-17303750D02*
G75*
G03*
X19488125Y-17303750I-200000J0D01*
G01*
X19326250Y-9483750D02*
X19726250Y-9883750D01*
X19726250Y-9483750D02*
X19326250Y-9883750D01*
X19726250Y-9683750D02*
G75*
G03*
X19726250Y-9683750I-200000J0D01*
G01*
X19802500Y-15198750D02*
X20202500Y-15598750D01*
X20202500Y-15198750D02*
X19802500Y-15598750D01*
X20202500Y-15398750D02*
G75*
G03*
X20202500Y-15398750I-200000J0D01*
G01*
X20040625Y-17103750D02*
X20440625Y-17503750D01*
X20440625Y-17103750D02*
X20040625Y-17503750D01*
X20440625Y-17303750D02*
G75*
G03*
X20440625Y-17303750I-200000J0D01*
G01*
X20278750Y-11388750D02*
X20678750Y-11788750D01*
X20678750Y-11388750D02*
X20278750Y-11788750D01*
X20678750Y-11588750D02*
G75*
G03*
X20678750Y-11588750I-200000J0D01*
G01*
X20755000Y-13293750D02*
X21155000Y-13693750D01*
X21155000Y-13293750D02*
X20755000Y-13693750D01*
X21155000Y-13493750D02*
G75*
G03*
X21155000Y-13493750I-200000J0D01*
G01*
X21231250Y-9483750D02*
X21631250Y-9883750D01*
X21631250Y-9483750D02*
X21231250Y-9883750D01*
X21631250Y-9683750D02*
G75*
G03*
X21631250Y-9683750I-200000J0D01*
G01*
X21707500Y-15198750D02*
X22107500Y-15598750D01*
X22107500Y-15198750D02*
X21707500Y-15598750D01*
X22107500Y-15398750D02*
G75*
G03*
X22107500Y-15398750I-200000J0D01*
G01*
X22183750Y-11388750D02*
X22583750Y-11788750D01*
X22583750Y-11388750D02*
X22183750Y-11788750D01*
X22583750Y-11588750D02*
G75*
G03*
X22583750Y-11588750I-200000J0D01*
G01*
X22660000Y-13293750D02*
X23060000Y-13693750D01*
X23060000Y-13293750D02*
X22660000Y-13693750D01*
X23060000Y-13493750D02*
G75*
G03*
X23060000Y-13493750I-200000J0D01*
G01*
X23136250Y-9483750D02*
X23536250Y-9883750D01*
X23536250Y-9483750D02*
X23136250Y-9883750D01*
X23536250Y-9683750D02*
G75*
G03*
X23536250Y-9683750I-200000J0D01*
G01*
X23612500Y-15198750D02*
X24012500Y-15598750D01*
X24012500Y-15198750D02*
X23612500Y-15598750D01*
X24012500Y-15398750D02*
G75*
G03*
X24012500Y-15398750I-200000J0D01*
G01*
X23850625Y-17103750D02*
X24250625Y-17503750D01*
X24250625Y-17103750D02*
X23850625Y-17503750D01*
X24250625Y-17303750D02*
G75*
G03*
X24250625Y-17303750I-200000J0D01*
G01*
X24088750Y-11388750D02*
X24488750Y-11788750D01*
X24488750Y-11388750D02*
X24088750Y-11788750D01*
X24488750Y-11588750D02*
G75*
G03*
X24488750Y-11588750I-200000J0D01*
G01*
X24565000Y-13293750D02*
X24965000Y-13693750D01*
X24965000Y-13293750D02*
X24565000Y-13693750D01*
X24965000Y-13493750D02*
G75*
G03*
X24965000Y-13493750I-200000J0D01*
G01*
X25041250Y-9483750D02*
X25441250Y-9883750D01*
X25441250Y-9483750D02*
X25041250Y-9883750D01*
X25441250Y-9683750D02*
G75*
G03*
X25441250Y-9683750I-200000J0D01*
G01*
X25517500Y-15198750D02*
X25917500Y-15598750D01*
X25917500Y-15198750D02*
X25517500Y-15598750D01*
X25917500Y-15398750D02*
G75*
G03*
X25917500Y-15398750I-200000J0D01*
G01*
X25993750Y-11388750D02*
X26393750Y-11788750D01*
X26393750Y-11388750D02*
X25993750Y-11788750D01*
X26393750Y-11588750D02*
G75*
G03*
X26393750Y-11588750I-200000J0D01*
G01*
X26470000Y-13293750D02*
X26870000Y-13693750D01*
X26870000Y-13293750D02*
X26470000Y-13693750D01*
X26870000Y-13493750D02*
G75*
G03*
X26870000Y-13493750I-200000J0D01*
G01*
X26946250Y-9483750D02*
X27346250Y-9883750D01*
X27346250Y-9483750D02*
X26946250Y-9883750D01*
X27346250Y-9683750D02*
G75*
G03*
X27346250Y-9683750I-200000J0D01*
G01*
X27184375Y-17103750D02*
X27584375Y-17503750D01*
X27584375Y-17103750D02*
X27184375Y-17503750D01*
X27584375Y-17303750D02*
G75*
G03*
X27584375Y-17303750I-200000J0D01*
G01*
X27422500Y-15198750D02*
X27822500Y-15598750D01*
X27822500Y-15198750D02*
X27422500Y-15598750D01*
X27822500Y-15398750D02*
G75*
G03*
X27822500Y-15398750I-200000J0D01*
G01*
X27898750Y-11388750D02*
X28298750Y-11788750D01*
X28298750Y-11388750D02*
X27898750Y-11788750D01*
X28298750Y-11588750D02*
G75*
G03*
X28298750Y-11588750I-200000J0D01*
G01*
X28375000Y-13293750D02*
X28775000Y-13693750D01*
X28775000Y-13293750D02*
X28375000Y-13693750D01*
X28775000Y-13493750D02*
G75*
G03*
X28775000Y-13493750I-200000J0D01*
G01*
X28851250Y-9483750D02*
X29251250Y-9883750D01*
X29251250Y-9483750D02*
X28851250Y-9883750D01*
X29251250Y-9683750D02*
G75*
G03*
X29251250Y-9683750I-200000J0D01*
G01*
X29327500Y-15198750D02*
X29727500Y-15598750D01*
X29727500Y-15198750D02*
X29327500Y-15598750D01*
X29727500Y-15398750D02*
G75*
G03*
X29727500Y-15398750I-200000J0D01*
G01*
X29565625Y-17103750D02*
X29965625Y-17503750D01*
X29965625Y-17103750D02*
X29565625Y-17503750D01*
X29965625Y-17303750D02*
G75*
G03*
X29965625Y-17303750I-200000J0D01*
G01*
X29803750Y-11388750D02*
X30203750Y-11788750D01*
X30203750Y-11388750D02*
X29803750Y-11788750D01*
X30203750Y-11588750D02*
G75*
G03*
X30203750Y-11588750I-200000J0D01*
G01*
X30280000Y-13293750D02*
X30680000Y-13693750D01*
X30680000Y-13293750D02*
X30280000Y-13693750D01*
X30680000Y-13493750D02*
G75*
G03*
X30680000Y-13493750I-200000J0D01*
G01*
X30756250Y-9483750D02*
X31156250Y-9883750D01*
X31156250Y-9483750D02*
X30756250Y-9883750D01*
X31156250Y-9683750D02*
G75*
G03*
X31156250Y-9683750I-200000J0D01*
G01*
X31708750Y-11388750D02*
X32108750Y-11788750D01*
X32108750Y-11388750D02*
X31708750Y-11788750D01*
X32108750Y-11588750D02*
G75*
G03*
X32108750Y-11588750I-200000J0D01*
G01*
X31946875Y-17103750D02*
X32346875Y-17503750D01*
X32346875Y-17103750D02*
X31946875Y-17503750D01*
X32346875Y-17303750D02*
G75*
G03*
X32346875Y-17303750I-200000J0D01*
G01*
X32899375Y-15198750D02*
X33299375Y-15598750D01*
X33299375Y-15198750D02*
X32899375Y-15598750D01*
X33299375Y-15398750D02*
G75*
G03*
X33299375Y-15398750I-200000J0D01*
G01*
X33375625Y-13293750D02*
X33775625Y-13693750D01*
X33775625Y-13293750D02*
X33375625Y-13693750D01*
X33775625Y-13493750D02*
G75*
G03*
X33775625Y-13493750I-200000J0D01*
G01*
X33613750Y-9483750D02*
X34013750Y-9883750D01*
X34013750Y-9483750D02*
X33613750Y-9883750D01*
X34013750Y-9683750D02*
G75*
G03*
X34013750Y-9683750I-200000J0D01*
G01*
X34090000Y-11388750D02*
X34490000Y-11788750D01*
X34490000Y-11388750D02*
X34090000Y-11788750D01*
X34490000Y-11588750D02*
G75*
G03*
X34490000Y-11588750I-200000J0D01*
G01*
X34328125Y-17103750D02*
X34728125Y-17503750D01*
X34728125Y-17103750D02*
X34328125Y-17503750D01*
X34728125Y-17303750D02*
G75*
G03*
X34728125Y-17303750I-200000J0D01*
G01*
D10*
X7427027Y-18550234D02*
X7427027Y-18350234D01*
X7427027Y-18350234D02*
X7474646Y-18350234D01*
X7474646Y-18350234D02*
X7503217Y-18359758D01*
X7503217Y-18359758D02*
X7522265Y-18378805D01*
X7522265Y-18378805D02*
X7531789Y-18397853D01*
X7531789Y-18397853D02*
X7541312Y-18435948D01*
X7541312Y-18435948D02*
X7541312Y-18464520D01*
X7541312Y-18464520D02*
X7531789Y-18502615D01*
X7531789Y-18502615D02*
X7522265Y-18521662D01*
X7522265Y-18521662D02*
X7503217Y-18540710D01*
X7503217Y-18540710D02*
X7474646Y-18550234D01*
X7474646Y-18550234D02*
X7427027Y-18550234D01*
X7627027Y-18550234D02*
X7627027Y-18416900D01*
X7627027Y-18454996D02*
X7636551Y-18435948D01*
X7636551Y-18435948D02*
X7646074Y-18426424D01*
X7646074Y-18426424D02*
X7665122Y-18416900D01*
X7665122Y-18416900D02*
X7684170Y-18416900D01*
X7750836Y-18550234D02*
X7750836Y-18416900D01*
X7750836Y-18350234D02*
X7741312Y-18359758D01*
X7741312Y-18359758D02*
X7750836Y-18369281D01*
X7750836Y-18369281D02*
X7760360Y-18359758D01*
X7760360Y-18359758D02*
X7750836Y-18350234D01*
X7750836Y-18350234D02*
X7750836Y-18369281D01*
X7874646Y-18550234D02*
X7855598Y-18540710D01*
X7855598Y-18540710D02*
X7846074Y-18521662D01*
X7846074Y-18521662D02*
X7846074Y-18350234D01*
X7979408Y-18550234D02*
X7960360Y-18540710D01*
X7960360Y-18540710D02*
X7950836Y-18521662D01*
X7950836Y-18521662D02*
X7950836Y-18350234D01*
X8207979Y-18550234D02*
X8207979Y-18350234D01*
X8207979Y-18350234D02*
X8274646Y-18493091D01*
X8274646Y-18493091D02*
X8341312Y-18350234D01*
X8341312Y-18350234D02*
X8341312Y-18550234D01*
X8522265Y-18550234D02*
X8522265Y-18445472D01*
X8522265Y-18445472D02*
X8512741Y-18426424D01*
X8512741Y-18426424D02*
X8493694Y-18416900D01*
X8493694Y-18416900D02*
X8455598Y-18416900D01*
X8455598Y-18416900D02*
X8436551Y-18426424D01*
X8522265Y-18540710D02*
X8503217Y-18550234D01*
X8503217Y-18550234D02*
X8455598Y-18550234D01*
X8455598Y-18550234D02*
X8436551Y-18540710D01*
X8436551Y-18540710D02*
X8427027Y-18521662D01*
X8427027Y-18521662D02*
X8427027Y-18502615D01*
X8427027Y-18502615D02*
X8436551Y-18483567D01*
X8436551Y-18483567D02*
X8455598Y-18474043D01*
X8455598Y-18474043D02*
X8503217Y-18474043D01*
X8503217Y-18474043D02*
X8522265Y-18464520D01*
X8617503Y-18416900D02*
X8617503Y-18616900D01*
X8617503Y-18426424D02*
X8636551Y-18416900D01*
X8636551Y-18416900D02*
X8674646Y-18416900D01*
X8674646Y-18416900D02*
X8693694Y-18426424D01*
X8693694Y-18426424D02*
X8703217Y-18435948D01*
X8703217Y-18435948D02*
X8712741Y-18454996D01*
X8712741Y-18454996D02*
X8712741Y-18512139D01*
X8712741Y-18512139D02*
X8703217Y-18531186D01*
X8703217Y-18531186D02*
X8693694Y-18540710D01*
X8693694Y-18540710D02*
X8674646Y-18550234D01*
X8674646Y-18550234D02*
X8636551Y-18550234D01*
X8636551Y-18550234D02*
X8617503Y-18540710D01*
X8798455Y-18531186D02*
X8807979Y-18540710D01*
X8807979Y-18540710D02*
X8798455Y-18550234D01*
X8798455Y-18550234D02*
X8788932Y-18540710D01*
X8788932Y-18540710D02*
X8798455Y-18531186D01*
X8798455Y-18531186D02*
X8798455Y-18550234D01*
X8798455Y-18426424D02*
X8807979Y-18435948D01*
X8807979Y-18435948D02*
X8798455Y-18445472D01*
X8798455Y-18445472D02*
X8788932Y-18435948D01*
X8788932Y-18435948D02*
X8798455Y-18426424D01*
X8798455Y-18426424D02*
X8798455Y-18445472D01*
D11*
X7101250Y-18846250D02*
X7166250Y-18911250D01*
X7166250Y-18846250D02*
X7101250Y-18911250D01*
D10*
X7465122Y-18770234D02*
X7484170Y-18770234D01*
X7484170Y-18770234D02*
X7503217Y-18779758D01*
X7503217Y-18779758D02*
X7512741Y-18789281D01*
X7512741Y-18789281D02*
X7522265Y-18808329D01*
X7522265Y-18808329D02*
X7531789Y-18846424D01*
X7531789Y-18846424D02*
X7531789Y-18894043D01*
X7531789Y-18894043D02*
X7522265Y-18932139D01*
X7522265Y-18932139D02*
X7512741Y-18951186D01*
X7512741Y-18951186D02*
X7503217Y-18960710D01*
X7503217Y-18960710D02*
X7484170Y-18970234D01*
X7484170Y-18970234D02*
X7465122Y-18970234D01*
X7465122Y-18970234D02*
X7446074Y-18960710D01*
X7446074Y-18960710D02*
X7436551Y-18951186D01*
X7436551Y-18951186D02*
X7427027Y-18932139D01*
X7427027Y-18932139D02*
X7417503Y-18894043D01*
X7417503Y-18894043D02*
X7417503Y-18846424D01*
X7417503Y-18846424D02*
X7427027Y-18808329D01*
X7427027Y-18808329D02*
X7436551Y-18789281D01*
X7436551Y-18789281D02*
X7446074Y-18779758D01*
X7446074Y-18779758D02*
X7465122Y-18770234D01*
X7617503Y-18951186D02*
X7627027Y-18960710D01*
X7627027Y-18960710D02*
X7617503Y-18970234D01*
X7617503Y-18970234D02*
X7607979Y-18960710D01*
X7607979Y-18960710D02*
X7617503Y-18951186D01*
X7617503Y-18951186D02*
X7617503Y-18970234D01*
X7798455Y-18770234D02*
X7760360Y-18770234D01*
X7760360Y-18770234D02*
X7741312Y-18779758D01*
X7741312Y-18779758D02*
X7731789Y-18789281D01*
X7731789Y-18789281D02*
X7712741Y-18817853D01*
X7712741Y-18817853D02*
X7703217Y-18855948D01*
X7703217Y-18855948D02*
X7703217Y-18932139D01*
X7703217Y-18932139D02*
X7712741Y-18951186D01*
X7712741Y-18951186D02*
X7722265Y-18960710D01*
X7722265Y-18960710D02*
X7741312Y-18970234D01*
X7741312Y-18970234D02*
X7779408Y-18970234D01*
X7779408Y-18970234D02*
X7798455Y-18960710D01*
X7798455Y-18960710D02*
X7807979Y-18951186D01*
X7807979Y-18951186D02*
X7817503Y-18932139D01*
X7817503Y-18932139D02*
X7817503Y-18884520D01*
X7817503Y-18884520D02*
X7807979Y-18865472D01*
X7807979Y-18865472D02*
X7798455Y-18855948D01*
X7798455Y-18855948D02*
X7779408Y-18846424D01*
X7779408Y-18846424D02*
X7741312Y-18846424D01*
X7741312Y-18846424D02*
X7722265Y-18855948D01*
X7722265Y-18855948D02*
X7712741Y-18865472D01*
X7712741Y-18865472D02*
X7703217Y-18884520D01*
X7998455Y-18770234D02*
X7903217Y-18770234D01*
X7903217Y-18770234D02*
X7893693Y-18865472D01*
X7893693Y-18865472D02*
X7903217Y-18855948D01*
X7903217Y-18855948D02*
X7922265Y-18846424D01*
X7922265Y-18846424D02*
X7969884Y-18846424D01*
X7969884Y-18846424D02*
X7988932Y-18855948D01*
X7988932Y-18855948D02*
X7998455Y-18865472D01*
X7998455Y-18865472D02*
X8007979Y-18884520D01*
X8007979Y-18884520D02*
X8007979Y-18932139D01*
X8007979Y-18932139D02*
X7998455Y-18951186D01*
X7998455Y-18951186D02*
X7988932Y-18960710D01*
X7988932Y-18960710D02*
X7969884Y-18970234D01*
X7969884Y-18970234D02*
X7922265Y-18970234D01*
X7922265Y-18970234D02*
X7903217Y-18960710D01*
X7903217Y-18960710D02*
X7893693Y-18951186D01*
X8131789Y-18770234D02*
X8150836Y-18770234D01*
X8150836Y-18770234D02*
X8169884Y-18779758D01*
X8169884Y-18779758D02*
X8179408Y-18789281D01*
X8179408Y-18789281D02*
X8188932Y-18808329D01*
X8188932Y-18808329D02*
X8198455Y-18846424D01*
X8198455Y-18846424D02*
X8198455Y-18894043D01*
X8198455Y-18894043D02*
X8188932Y-18932139D01*
X8188932Y-18932139D02*
X8179408Y-18951186D01*
X8179408Y-18951186D02*
X8169884Y-18960710D01*
X8169884Y-18960710D02*
X8150836Y-18970234D01*
X8150836Y-18970234D02*
X8131789Y-18970234D01*
X8131789Y-18970234D02*
X8112741Y-18960710D01*
X8112741Y-18960710D02*
X8103217Y-18951186D01*
X8103217Y-18951186D02*
X8093693Y-18932139D01*
X8093693Y-18932139D02*
X8084170Y-18894043D01*
X8084170Y-18894043D02*
X8084170Y-18846424D01*
X8084170Y-18846424D02*
X8093693Y-18808329D01*
X8093693Y-18808329D02*
X8103217Y-18789281D01*
X8103217Y-18789281D02*
X8112741Y-18779758D01*
X8112741Y-18779758D02*
X8131789Y-18770234D01*
X8284170Y-18970234D02*
X8284170Y-18836900D01*
X8284170Y-18855948D02*
X8293693Y-18846424D01*
X8293693Y-18846424D02*
X8312741Y-18836900D01*
X8312741Y-18836900D02*
X8341313Y-18836900D01*
X8341313Y-18836900D02*
X8360360Y-18846424D01*
X8360360Y-18846424D02*
X8369884Y-18865472D01*
X8369884Y-18865472D02*
X8369884Y-18970234D01*
X8369884Y-18865472D02*
X8379408Y-18846424D01*
X8379408Y-18846424D02*
X8398455Y-18836900D01*
X8398455Y-18836900D02*
X8427027Y-18836900D01*
X8427027Y-18836900D02*
X8446075Y-18846424D01*
X8446075Y-18846424D02*
X8455598Y-18865472D01*
X8455598Y-18865472D02*
X8455598Y-18970234D01*
X8550836Y-18970234D02*
X8550836Y-18836900D01*
X8550836Y-18855948D02*
X8560360Y-18846424D01*
X8560360Y-18846424D02*
X8579408Y-18836900D01*
X8579408Y-18836900D02*
X8607979Y-18836900D01*
X8607979Y-18836900D02*
X8627027Y-18846424D01*
X8627027Y-18846424D02*
X8636551Y-18865472D01*
X8636551Y-18865472D02*
X8636551Y-18970234D01*
X8636551Y-18865472D02*
X8646075Y-18846424D01*
X8646075Y-18846424D02*
X8665122Y-18836900D01*
X8665122Y-18836900D02*
X8693694Y-18836900D01*
X8693694Y-18836900D02*
X8712741Y-18846424D01*
X8712741Y-18846424D02*
X8722265Y-18865472D01*
X8722265Y-18865472D02*
X8722265Y-18970234D01*
X9112741Y-18760710D02*
X8941313Y-19017853D01*
X9369884Y-18770234D02*
X9388932Y-18770234D01*
X9388932Y-18770234D02*
X9407979Y-18779758D01*
X9407979Y-18779758D02*
X9417503Y-18789281D01*
X9417503Y-18789281D02*
X9427027Y-18808329D01*
X9427027Y-18808329D02*
X9436551Y-18846424D01*
X9436551Y-18846424D02*
X9436551Y-18894043D01*
X9436551Y-18894043D02*
X9427027Y-18932139D01*
X9427027Y-18932139D02*
X9417503Y-18951186D01*
X9417503Y-18951186D02*
X9407979Y-18960710D01*
X9407979Y-18960710D02*
X9388932Y-18970234D01*
X9388932Y-18970234D02*
X9369884Y-18970234D01*
X9369884Y-18970234D02*
X9350837Y-18960710D01*
X9350837Y-18960710D02*
X9341313Y-18951186D01*
X9341313Y-18951186D02*
X9331789Y-18932139D01*
X9331789Y-18932139D02*
X9322265Y-18894043D01*
X9322265Y-18894043D02*
X9322265Y-18846424D01*
X9322265Y-18846424D02*
X9331789Y-18808329D01*
X9331789Y-18808329D02*
X9341313Y-18789281D01*
X9341313Y-18789281D02*
X9350837Y-18779758D01*
X9350837Y-18779758D02*
X9369884Y-18770234D01*
X9522265Y-18951186D02*
X9531789Y-18960710D01*
X9531789Y-18960710D02*
X9522265Y-18970234D01*
X9522265Y-18970234D02*
X9512741Y-18960710D01*
X9512741Y-18960710D02*
X9522265Y-18951186D01*
X9522265Y-18951186D02*
X9522265Y-18970234D01*
X9655598Y-18770234D02*
X9674646Y-18770234D01*
X9674646Y-18770234D02*
X9693694Y-18779758D01*
X9693694Y-18779758D02*
X9703218Y-18789281D01*
X9703218Y-18789281D02*
X9712741Y-18808329D01*
X9712741Y-18808329D02*
X9722265Y-18846424D01*
X9722265Y-18846424D02*
X9722265Y-18894043D01*
X9722265Y-18894043D02*
X9712741Y-18932139D01*
X9712741Y-18932139D02*
X9703218Y-18951186D01*
X9703218Y-18951186D02*
X9693694Y-18960710D01*
X9693694Y-18960710D02*
X9674646Y-18970234D01*
X9674646Y-18970234D02*
X9655598Y-18970234D01*
X9655598Y-18970234D02*
X9636551Y-18960710D01*
X9636551Y-18960710D02*
X9627027Y-18951186D01*
X9627027Y-18951186D02*
X9617503Y-18932139D01*
X9617503Y-18932139D02*
X9607979Y-18894043D01*
X9607979Y-18894043D02*
X9607979Y-18846424D01*
X9607979Y-18846424D02*
X9617503Y-18808329D01*
X9617503Y-18808329D02*
X9627027Y-18789281D01*
X9627027Y-18789281D02*
X9636551Y-18779758D01*
X9636551Y-18779758D02*
X9655598Y-18770234D01*
X9798456Y-18789281D02*
X9807979Y-18779758D01*
X9807979Y-18779758D02*
X9827027Y-18770234D01*
X9827027Y-18770234D02*
X9874646Y-18770234D01*
X9874646Y-18770234D02*
X9893694Y-18779758D01*
X9893694Y-18779758D02*
X9903218Y-18789281D01*
X9903218Y-18789281D02*
X9912741Y-18808329D01*
X9912741Y-18808329D02*
X9912741Y-18827377D01*
X9912741Y-18827377D02*
X9903218Y-18855948D01*
X9903218Y-18855948D02*
X9788932Y-18970234D01*
X9788932Y-18970234D02*
X9912741Y-18970234D01*
X10093694Y-18770234D02*
X9998456Y-18770234D01*
X9998456Y-18770234D02*
X9988932Y-18865472D01*
X9988932Y-18865472D02*
X9998456Y-18855948D01*
X9998456Y-18855948D02*
X10017503Y-18846424D01*
X10017503Y-18846424D02*
X10065122Y-18846424D01*
X10065122Y-18846424D02*
X10084170Y-18855948D01*
X10084170Y-18855948D02*
X10093694Y-18865472D01*
X10093694Y-18865472D02*
X10103218Y-18884520D01*
X10103218Y-18884520D02*
X10103218Y-18932139D01*
X10103218Y-18932139D02*
X10093694Y-18951186D01*
X10093694Y-18951186D02*
X10084170Y-18960710D01*
X10084170Y-18960710D02*
X10065122Y-18970234D01*
X10065122Y-18970234D02*
X10017503Y-18970234D01*
X10017503Y-18970234D02*
X9998456Y-18960710D01*
X9998456Y-18960710D02*
X9988932Y-18951186D01*
X10274646Y-18770234D02*
X10236551Y-18770234D01*
X10236551Y-18770234D02*
X10217503Y-18779758D01*
X10217503Y-18779758D02*
X10207979Y-18789281D01*
X10207979Y-18789281D02*
X10188932Y-18817853D01*
X10188932Y-18817853D02*
X10179408Y-18855948D01*
X10179408Y-18855948D02*
X10179408Y-18932139D01*
X10179408Y-18932139D02*
X10188932Y-18951186D01*
X10188932Y-18951186D02*
X10198456Y-18960710D01*
X10198456Y-18960710D02*
X10217503Y-18970234D01*
X10217503Y-18970234D02*
X10255599Y-18970234D01*
X10255599Y-18970234D02*
X10274646Y-18960710D01*
X10274646Y-18960710D02*
X10284170Y-18951186D01*
X10284170Y-18951186D02*
X10293694Y-18932139D01*
X10293694Y-18932139D02*
X10293694Y-18884520D01*
X10293694Y-18884520D02*
X10284170Y-18865472D01*
X10284170Y-18865472D02*
X10274646Y-18855948D01*
X10274646Y-18855948D02*
X10255599Y-18846424D01*
X10255599Y-18846424D02*
X10217503Y-18846424D01*
X10217503Y-18846424D02*
X10198456Y-18855948D01*
X10198456Y-18855948D02*
X10188932Y-18865472D01*
X10188932Y-18865472D02*
X10179408Y-18884520D01*
X10369884Y-18770234D02*
X10369884Y-18808329D01*
X10446075Y-18770234D02*
X10446075Y-18808329D01*
X10741313Y-19046424D02*
X10731789Y-19036900D01*
X10731789Y-19036900D02*
X10712741Y-19008329D01*
X10712741Y-19008329D02*
X10703218Y-18989281D01*
X10703218Y-18989281D02*
X10693694Y-18960710D01*
X10693694Y-18960710D02*
X10684170Y-18913091D01*
X10684170Y-18913091D02*
X10684170Y-18874996D01*
X10684170Y-18874996D02*
X10693694Y-18827377D01*
X10693694Y-18827377D02*
X10703218Y-18798805D01*
X10703218Y-18798805D02*
X10712741Y-18779758D01*
X10712741Y-18779758D02*
X10731789Y-18751186D01*
X10731789Y-18751186D02*
X10741313Y-18741662D01*
X10807980Y-18789281D02*
X10817503Y-18779758D01*
X10817503Y-18779758D02*
X10836551Y-18770234D01*
X10836551Y-18770234D02*
X10884170Y-18770234D01*
X10884170Y-18770234D02*
X10903218Y-18779758D01*
X10903218Y-18779758D02*
X10912741Y-18789281D01*
X10912741Y-18789281D02*
X10922265Y-18808329D01*
X10922265Y-18808329D02*
X10922265Y-18827377D01*
X10922265Y-18827377D02*
X10912741Y-18855948D01*
X10912741Y-18855948D02*
X10798456Y-18970234D01*
X10798456Y-18970234D02*
X10922265Y-18970234D01*
X11160361Y-18970234D02*
X11160361Y-18770234D01*
X11246075Y-18970234D02*
X11246075Y-18865472D01*
X11246075Y-18865472D02*
X11236551Y-18846424D01*
X11236551Y-18846424D02*
X11217503Y-18836900D01*
X11217503Y-18836900D02*
X11188932Y-18836900D01*
X11188932Y-18836900D02*
X11169884Y-18846424D01*
X11169884Y-18846424D02*
X11160361Y-18855948D01*
X11369884Y-18970234D02*
X11350837Y-18960710D01*
X11350837Y-18960710D02*
X11341313Y-18951186D01*
X11341313Y-18951186D02*
X11331789Y-18932139D01*
X11331789Y-18932139D02*
X11331789Y-18874996D01*
X11331789Y-18874996D02*
X11341313Y-18855948D01*
X11341313Y-18855948D02*
X11350837Y-18846424D01*
X11350837Y-18846424D02*
X11369884Y-18836900D01*
X11369884Y-18836900D02*
X11398456Y-18836900D01*
X11398456Y-18836900D02*
X11417503Y-18846424D01*
X11417503Y-18846424D02*
X11427027Y-18855948D01*
X11427027Y-18855948D02*
X11436551Y-18874996D01*
X11436551Y-18874996D02*
X11436551Y-18932139D01*
X11436551Y-18932139D02*
X11427027Y-18951186D01*
X11427027Y-18951186D02*
X11417503Y-18960710D01*
X11417503Y-18960710D02*
X11398456Y-18970234D01*
X11398456Y-18970234D02*
X11369884Y-18970234D01*
X11550837Y-18970234D02*
X11531789Y-18960710D01*
X11531789Y-18960710D02*
X11522265Y-18941662D01*
X11522265Y-18941662D02*
X11522265Y-18770234D01*
X11703218Y-18960710D02*
X11684170Y-18970234D01*
X11684170Y-18970234D02*
X11646075Y-18970234D01*
X11646075Y-18970234D02*
X11627027Y-18960710D01*
X11627027Y-18960710D02*
X11617503Y-18941662D01*
X11617503Y-18941662D02*
X11617503Y-18865472D01*
X11617503Y-18865472D02*
X11627027Y-18846424D01*
X11627027Y-18846424D02*
X11646075Y-18836900D01*
X11646075Y-18836900D02*
X11684170Y-18836900D01*
X11684170Y-18836900D02*
X11703218Y-18846424D01*
X11703218Y-18846424D02*
X11712741Y-18865472D01*
X11712741Y-18865472D02*
X11712741Y-18884520D01*
X11712741Y-18884520D02*
X11617503Y-18903567D01*
X11788932Y-18960710D02*
X11807980Y-18970234D01*
X11807980Y-18970234D02*
X11846075Y-18970234D01*
X11846075Y-18970234D02*
X11865122Y-18960710D01*
X11865122Y-18960710D02*
X11874646Y-18941662D01*
X11874646Y-18941662D02*
X11874646Y-18932139D01*
X11874646Y-18932139D02*
X11865122Y-18913091D01*
X11865122Y-18913091D02*
X11846075Y-18903567D01*
X11846075Y-18903567D02*
X11817503Y-18903567D01*
X11817503Y-18903567D02*
X11798456Y-18894043D01*
X11798456Y-18894043D02*
X11788932Y-18874996D01*
X11788932Y-18874996D02*
X11788932Y-18865472D01*
X11788932Y-18865472D02*
X11798456Y-18846424D01*
X11798456Y-18846424D02*
X11817503Y-18836900D01*
X11817503Y-18836900D02*
X11846075Y-18836900D01*
X11846075Y-18836900D02*
X11865122Y-18846424D01*
X11941313Y-19046424D02*
X11950837Y-19036900D01*
X11950837Y-19036900D02*
X11969884Y-19008329D01*
X11969884Y-19008329D02*
X11979408Y-18989281D01*
X11979408Y-18989281D02*
X11988932Y-18960710D01*
X11988932Y-18960710D02*
X11998456Y-18913091D01*
X11998456Y-18913091D02*
X11998456Y-18874996D01*
X11998456Y-18874996D02*
X11988932Y-18827377D01*
X11988932Y-18827377D02*
X11979408Y-18798805D01*
X11979408Y-18798805D02*
X11969884Y-18779758D01*
X11969884Y-18779758D02*
X11950837Y-18751186D01*
X11950837Y-18751186D02*
X11941313Y-18741662D01*
X12303218Y-19046424D02*
X12293694Y-19036900D01*
X12293694Y-19036900D02*
X12274646Y-19008329D01*
X12274646Y-19008329D02*
X12265122Y-18989281D01*
X12265122Y-18989281D02*
X12255599Y-18960710D01*
X12255599Y-18960710D02*
X12246075Y-18913091D01*
X12246075Y-18913091D02*
X12246075Y-18874996D01*
X12246075Y-18874996D02*
X12255599Y-18827377D01*
X12255599Y-18827377D02*
X12265122Y-18798805D01*
X12265122Y-18798805D02*
X12274646Y-18779758D01*
X12274646Y-18779758D02*
X12293694Y-18751186D01*
X12293694Y-18751186D02*
X12303218Y-18741662D01*
X12379408Y-18836900D02*
X12379408Y-18970234D01*
X12379408Y-18855948D02*
X12388932Y-18846424D01*
X12388932Y-18846424D02*
X12407980Y-18836900D01*
X12407980Y-18836900D02*
X12436551Y-18836900D01*
X12436551Y-18836900D02*
X12455599Y-18846424D01*
X12455599Y-18846424D02*
X12465122Y-18865472D01*
X12465122Y-18865472D02*
X12465122Y-18970234D01*
X12588932Y-18970234D02*
X12569884Y-18960710D01*
X12569884Y-18960710D02*
X12560361Y-18951186D01*
X12560361Y-18951186D02*
X12550837Y-18932139D01*
X12550837Y-18932139D02*
X12550837Y-18874996D01*
X12550837Y-18874996D02*
X12560361Y-18855948D01*
X12560361Y-18855948D02*
X12569884Y-18846424D01*
X12569884Y-18846424D02*
X12588932Y-18836900D01*
X12588932Y-18836900D02*
X12617503Y-18836900D01*
X12617503Y-18836900D02*
X12636551Y-18846424D01*
X12636551Y-18846424D02*
X12646075Y-18855948D01*
X12646075Y-18855948D02*
X12655599Y-18874996D01*
X12655599Y-18874996D02*
X12655599Y-18932139D01*
X12655599Y-18932139D02*
X12646075Y-18951186D01*
X12646075Y-18951186D02*
X12636551Y-18960710D01*
X12636551Y-18960710D02*
X12617503Y-18970234D01*
X12617503Y-18970234D02*
X12588932Y-18970234D01*
X12712742Y-18836900D02*
X12788932Y-18836900D01*
X12741313Y-18770234D02*
X12741313Y-18941662D01*
X12741313Y-18941662D02*
X12750837Y-18960710D01*
X12750837Y-18960710D02*
X12769884Y-18970234D01*
X12769884Y-18970234D02*
X12788932Y-18970234D01*
X13007980Y-18836900D02*
X13007980Y-19036900D01*
X13007980Y-18846424D02*
X13027027Y-18836900D01*
X13027027Y-18836900D02*
X13065123Y-18836900D01*
X13065123Y-18836900D02*
X13084170Y-18846424D01*
X13084170Y-18846424D02*
X13093694Y-18855948D01*
X13093694Y-18855948D02*
X13103218Y-18874996D01*
X13103218Y-18874996D02*
X13103218Y-18932139D01*
X13103218Y-18932139D02*
X13093694Y-18951186D01*
X13093694Y-18951186D02*
X13084170Y-18960710D01*
X13084170Y-18960710D02*
X13065123Y-18970234D01*
X13065123Y-18970234D02*
X13027027Y-18970234D01*
X13027027Y-18970234D02*
X13007980Y-18960710D01*
X13217503Y-18970234D02*
X13198456Y-18960710D01*
X13198456Y-18960710D02*
X13188932Y-18941662D01*
X13188932Y-18941662D02*
X13188932Y-18770234D01*
X13379408Y-18970234D02*
X13379408Y-18865472D01*
X13379408Y-18865472D02*
X13369884Y-18846424D01*
X13369884Y-18846424D02*
X13350837Y-18836900D01*
X13350837Y-18836900D02*
X13312742Y-18836900D01*
X13312742Y-18836900D02*
X13293694Y-18846424D01*
X13379408Y-18960710D02*
X13360361Y-18970234D01*
X13360361Y-18970234D02*
X13312742Y-18970234D01*
X13312742Y-18970234D02*
X13293694Y-18960710D01*
X13293694Y-18960710D02*
X13284170Y-18941662D01*
X13284170Y-18941662D02*
X13284170Y-18922615D01*
X13284170Y-18922615D02*
X13293694Y-18903567D01*
X13293694Y-18903567D02*
X13312742Y-18894043D01*
X13312742Y-18894043D02*
X13360361Y-18894043D01*
X13360361Y-18894043D02*
X13379408Y-18884520D01*
X13446075Y-18836900D02*
X13522265Y-18836900D01*
X13474646Y-18770234D02*
X13474646Y-18941662D01*
X13474646Y-18941662D02*
X13484170Y-18960710D01*
X13484170Y-18960710D02*
X13503218Y-18970234D01*
X13503218Y-18970234D02*
X13522265Y-18970234D01*
X13665123Y-18960710D02*
X13646075Y-18970234D01*
X13646075Y-18970234D02*
X13607980Y-18970234D01*
X13607980Y-18970234D02*
X13588932Y-18960710D01*
X13588932Y-18960710D02*
X13579408Y-18941662D01*
X13579408Y-18941662D02*
X13579408Y-18865472D01*
X13579408Y-18865472D02*
X13588932Y-18846424D01*
X13588932Y-18846424D02*
X13607980Y-18836900D01*
X13607980Y-18836900D02*
X13646075Y-18836900D01*
X13646075Y-18836900D02*
X13665123Y-18846424D01*
X13665123Y-18846424D02*
X13674646Y-18865472D01*
X13674646Y-18865472D02*
X13674646Y-18884520D01*
X13674646Y-18884520D02*
X13579408Y-18903567D01*
X13846075Y-18970234D02*
X13846075Y-18770234D01*
X13846075Y-18960710D02*
X13827027Y-18970234D01*
X13827027Y-18970234D02*
X13788932Y-18970234D01*
X13788932Y-18970234D02*
X13769884Y-18960710D01*
X13769884Y-18960710D02*
X13760361Y-18951186D01*
X13760361Y-18951186D02*
X13750837Y-18932139D01*
X13750837Y-18932139D02*
X13750837Y-18874996D01*
X13750837Y-18874996D02*
X13760361Y-18855948D01*
X13760361Y-18855948D02*
X13769884Y-18846424D01*
X13769884Y-18846424D02*
X13788932Y-18836900D01*
X13788932Y-18836900D02*
X13827027Y-18836900D01*
X13827027Y-18836900D02*
X13846075Y-18846424D01*
X13922265Y-19046424D02*
X13931789Y-19036900D01*
X13931789Y-19036900D02*
X13950837Y-19008329D01*
X13950837Y-19008329D02*
X13960361Y-18989281D01*
X13960361Y-18989281D02*
X13969884Y-18960710D01*
X13969884Y-18960710D02*
X13979408Y-18913091D01*
X13979408Y-18913091D02*
X13979408Y-18874996D01*
X13979408Y-18874996D02*
X13969884Y-18827377D01*
X13969884Y-18827377D02*
X13960361Y-18798805D01*
X13960361Y-18798805D02*
X13950837Y-18779758D01*
X13950837Y-18779758D02*
X13931789Y-18751186D01*
X13931789Y-18751186D02*
X13922265Y-18741662D01*
D12*
X7166250Y-19142750D02*
G75*
G03*
X7166250Y-19142750I-42500J0D01*
G01*
D10*
X7465122Y-19034234D02*
X7484170Y-19034234D01*
X7484170Y-19034234D02*
X7503217Y-19043758D01*
X7503217Y-19043758D02*
X7512741Y-19053281D01*
X7512741Y-19053281D02*
X7522265Y-19072329D01*
X7522265Y-19072329D02*
X7531789Y-19110424D01*
X7531789Y-19110424D02*
X7531789Y-19158043D01*
X7531789Y-19158043D02*
X7522265Y-19196139D01*
X7522265Y-19196139D02*
X7512741Y-19215186D01*
X7512741Y-19215186D02*
X7503217Y-19224710D01*
X7503217Y-19224710D02*
X7484170Y-19234234D01*
X7484170Y-19234234D02*
X7465122Y-19234234D01*
X7465122Y-19234234D02*
X7446074Y-19224710D01*
X7446074Y-19224710D02*
X7436551Y-19215186D01*
X7436551Y-19215186D02*
X7427027Y-19196139D01*
X7427027Y-19196139D02*
X7417503Y-19158043D01*
X7417503Y-19158043D02*
X7417503Y-19110424D01*
X7417503Y-19110424D02*
X7427027Y-19072329D01*
X7427027Y-19072329D02*
X7436551Y-19053281D01*
X7436551Y-19053281D02*
X7446074Y-19043758D01*
X7446074Y-19043758D02*
X7465122Y-19034234D01*
X7617503Y-19215186D02*
X7627027Y-19224710D01*
X7627027Y-19224710D02*
X7617503Y-19234234D01*
X7617503Y-19234234D02*
X7607979Y-19224710D01*
X7607979Y-19224710D02*
X7617503Y-19215186D01*
X7617503Y-19215186D02*
X7617503Y-19234234D01*
X7741312Y-19119948D02*
X7722265Y-19110424D01*
X7722265Y-19110424D02*
X7712741Y-19100900D01*
X7712741Y-19100900D02*
X7703217Y-19081853D01*
X7703217Y-19081853D02*
X7703217Y-19072329D01*
X7703217Y-19072329D02*
X7712741Y-19053281D01*
X7712741Y-19053281D02*
X7722265Y-19043758D01*
X7722265Y-19043758D02*
X7741312Y-19034234D01*
X7741312Y-19034234D02*
X7779408Y-19034234D01*
X7779408Y-19034234D02*
X7798455Y-19043758D01*
X7798455Y-19043758D02*
X7807979Y-19053281D01*
X7807979Y-19053281D02*
X7817503Y-19072329D01*
X7817503Y-19072329D02*
X7817503Y-19081853D01*
X7817503Y-19081853D02*
X7807979Y-19100900D01*
X7807979Y-19100900D02*
X7798455Y-19110424D01*
X7798455Y-19110424D02*
X7779408Y-19119948D01*
X7779408Y-19119948D02*
X7741312Y-19119948D01*
X7741312Y-19119948D02*
X7722265Y-19129472D01*
X7722265Y-19129472D02*
X7712741Y-19138996D01*
X7712741Y-19138996D02*
X7703217Y-19158043D01*
X7703217Y-19158043D02*
X7703217Y-19196139D01*
X7703217Y-19196139D02*
X7712741Y-19215186D01*
X7712741Y-19215186D02*
X7722265Y-19224710D01*
X7722265Y-19224710D02*
X7741312Y-19234234D01*
X7741312Y-19234234D02*
X7779408Y-19234234D01*
X7779408Y-19234234D02*
X7798455Y-19224710D01*
X7798455Y-19224710D02*
X7807979Y-19215186D01*
X7807979Y-19215186D02*
X7817503Y-19196139D01*
X7817503Y-19196139D02*
X7817503Y-19158043D01*
X7817503Y-19158043D02*
X7807979Y-19138996D01*
X7807979Y-19138996D02*
X7798455Y-19129472D01*
X7798455Y-19129472D02*
X7779408Y-19119948D01*
X7998455Y-19034234D02*
X7903217Y-19034234D01*
X7903217Y-19034234D02*
X7893693Y-19129472D01*
X7893693Y-19129472D02*
X7903217Y-19119948D01*
X7903217Y-19119948D02*
X7922265Y-19110424D01*
X7922265Y-19110424D02*
X7969884Y-19110424D01*
X7969884Y-19110424D02*
X7988932Y-19119948D01*
X7988932Y-19119948D02*
X7998455Y-19129472D01*
X7998455Y-19129472D02*
X8007979Y-19148520D01*
X8007979Y-19148520D02*
X8007979Y-19196139D01*
X8007979Y-19196139D02*
X7998455Y-19215186D01*
X7998455Y-19215186D02*
X7988932Y-19224710D01*
X7988932Y-19224710D02*
X7969884Y-19234234D01*
X7969884Y-19234234D02*
X7922265Y-19234234D01*
X7922265Y-19234234D02*
X7903217Y-19224710D01*
X7903217Y-19224710D02*
X7893693Y-19215186D01*
X8131789Y-19034234D02*
X8150836Y-19034234D01*
X8150836Y-19034234D02*
X8169884Y-19043758D01*
X8169884Y-19043758D02*
X8179408Y-19053281D01*
X8179408Y-19053281D02*
X8188932Y-19072329D01*
X8188932Y-19072329D02*
X8198455Y-19110424D01*
X8198455Y-19110424D02*
X8198455Y-19158043D01*
X8198455Y-19158043D02*
X8188932Y-19196139D01*
X8188932Y-19196139D02*
X8179408Y-19215186D01*
X8179408Y-19215186D02*
X8169884Y-19224710D01*
X8169884Y-19224710D02*
X8150836Y-19234234D01*
X8150836Y-19234234D02*
X8131789Y-19234234D01*
X8131789Y-19234234D02*
X8112741Y-19224710D01*
X8112741Y-19224710D02*
X8103217Y-19215186D01*
X8103217Y-19215186D02*
X8093693Y-19196139D01*
X8093693Y-19196139D02*
X8084170Y-19158043D01*
X8084170Y-19158043D02*
X8084170Y-19110424D01*
X8084170Y-19110424D02*
X8093693Y-19072329D01*
X8093693Y-19072329D02*
X8103217Y-19053281D01*
X8103217Y-19053281D02*
X8112741Y-19043758D01*
X8112741Y-19043758D02*
X8131789Y-19034234D01*
X8284170Y-19234234D02*
X8284170Y-19100900D01*
X8284170Y-19119948D02*
X8293693Y-19110424D01*
X8293693Y-19110424D02*
X8312741Y-19100900D01*
X8312741Y-19100900D02*
X8341313Y-19100900D01*
X8341313Y-19100900D02*
X8360360Y-19110424D01*
X8360360Y-19110424D02*
X8369884Y-19129472D01*
X8369884Y-19129472D02*
X8369884Y-19234234D01*
X8369884Y-19129472D02*
X8379408Y-19110424D01*
X8379408Y-19110424D02*
X8398455Y-19100900D01*
X8398455Y-19100900D02*
X8427027Y-19100900D01*
X8427027Y-19100900D02*
X8446075Y-19110424D01*
X8446075Y-19110424D02*
X8455598Y-19129472D01*
X8455598Y-19129472D02*
X8455598Y-19234234D01*
X8550836Y-19234234D02*
X8550836Y-19100900D01*
X8550836Y-19119948D02*
X8560360Y-19110424D01*
X8560360Y-19110424D02*
X8579408Y-19100900D01*
X8579408Y-19100900D02*
X8607979Y-19100900D01*
X8607979Y-19100900D02*
X8627027Y-19110424D01*
X8627027Y-19110424D02*
X8636551Y-19129472D01*
X8636551Y-19129472D02*
X8636551Y-19234234D01*
X8636551Y-19129472D02*
X8646075Y-19110424D01*
X8646075Y-19110424D02*
X8665122Y-19100900D01*
X8665122Y-19100900D02*
X8693694Y-19100900D01*
X8693694Y-19100900D02*
X8712741Y-19110424D01*
X8712741Y-19110424D02*
X8722265Y-19129472D01*
X8722265Y-19129472D02*
X8722265Y-19234234D01*
X9112741Y-19024710D02*
X8941313Y-19281853D01*
X9369884Y-19034234D02*
X9388932Y-19034234D01*
X9388932Y-19034234D02*
X9407979Y-19043758D01*
X9407979Y-19043758D02*
X9417503Y-19053281D01*
X9417503Y-19053281D02*
X9427027Y-19072329D01*
X9427027Y-19072329D02*
X9436551Y-19110424D01*
X9436551Y-19110424D02*
X9436551Y-19158043D01*
X9436551Y-19158043D02*
X9427027Y-19196139D01*
X9427027Y-19196139D02*
X9417503Y-19215186D01*
X9417503Y-19215186D02*
X9407979Y-19224710D01*
X9407979Y-19224710D02*
X9388932Y-19234234D01*
X9388932Y-19234234D02*
X9369884Y-19234234D01*
X9369884Y-19234234D02*
X9350837Y-19224710D01*
X9350837Y-19224710D02*
X9341313Y-19215186D01*
X9341313Y-19215186D02*
X9331789Y-19196139D01*
X9331789Y-19196139D02*
X9322265Y-19158043D01*
X9322265Y-19158043D02*
X9322265Y-19110424D01*
X9322265Y-19110424D02*
X9331789Y-19072329D01*
X9331789Y-19072329D02*
X9341313Y-19053281D01*
X9341313Y-19053281D02*
X9350837Y-19043758D01*
X9350837Y-19043758D02*
X9369884Y-19034234D01*
X9522265Y-19215186D02*
X9531789Y-19224710D01*
X9531789Y-19224710D02*
X9522265Y-19234234D01*
X9522265Y-19234234D02*
X9512741Y-19224710D01*
X9512741Y-19224710D02*
X9522265Y-19215186D01*
X9522265Y-19215186D02*
X9522265Y-19234234D01*
X9655598Y-19034234D02*
X9674646Y-19034234D01*
X9674646Y-19034234D02*
X9693694Y-19043758D01*
X9693694Y-19043758D02*
X9703218Y-19053281D01*
X9703218Y-19053281D02*
X9712741Y-19072329D01*
X9712741Y-19072329D02*
X9722265Y-19110424D01*
X9722265Y-19110424D02*
X9722265Y-19158043D01*
X9722265Y-19158043D02*
X9712741Y-19196139D01*
X9712741Y-19196139D02*
X9703218Y-19215186D01*
X9703218Y-19215186D02*
X9693694Y-19224710D01*
X9693694Y-19224710D02*
X9674646Y-19234234D01*
X9674646Y-19234234D02*
X9655598Y-19234234D01*
X9655598Y-19234234D02*
X9636551Y-19224710D01*
X9636551Y-19224710D02*
X9627027Y-19215186D01*
X9627027Y-19215186D02*
X9617503Y-19196139D01*
X9617503Y-19196139D02*
X9607979Y-19158043D01*
X9607979Y-19158043D02*
X9607979Y-19110424D01*
X9607979Y-19110424D02*
X9617503Y-19072329D01*
X9617503Y-19072329D02*
X9627027Y-19053281D01*
X9627027Y-19053281D02*
X9636551Y-19043758D01*
X9636551Y-19043758D02*
X9655598Y-19034234D01*
X9788932Y-19034234D02*
X9912741Y-19034234D01*
X9912741Y-19034234D02*
X9846075Y-19110424D01*
X9846075Y-19110424D02*
X9874646Y-19110424D01*
X9874646Y-19110424D02*
X9893694Y-19119948D01*
X9893694Y-19119948D02*
X9903218Y-19129472D01*
X9903218Y-19129472D02*
X9912741Y-19148520D01*
X9912741Y-19148520D02*
X9912741Y-19196139D01*
X9912741Y-19196139D02*
X9903218Y-19215186D01*
X9903218Y-19215186D02*
X9893694Y-19224710D01*
X9893694Y-19224710D02*
X9874646Y-19234234D01*
X9874646Y-19234234D02*
X9817503Y-19234234D01*
X9817503Y-19234234D02*
X9798456Y-19224710D01*
X9798456Y-19224710D02*
X9788932Y-19215186D01*
X9979408Y-19034234D02*
X10103218Y-19034234D01*
X10103218Y-19034234D02*
X10036551Y-19110424D01*
X10036551Y-19110424D02*
X10065122Y-19110424D01*
X10065122Y-19110424D02*
X10084170Y-19119948D01*
X10084170Y-19119948D02*
X10093694Y-19129472D01*
X10093694Y-19129472D02*
X10103218Y-19148520D01*
X10103218Y-19148520D02*
X10103218Y-19196139D01*
X10103218Y-19196139D02*
X10093694Y-19215186D01*
X10093694Y-19215186D02*
X10084170Y-19224710D01*
X10084170Y-19224710D02*
X10065122Y-19234234D01*
X10065122Y-19234234D02*
X10007979Y-19234234D01*
X10007979Y-19234234D02*
X9988932Y-19224710D01*
X9988932Y-19224710D02*
X9979408Y-19215186D01*
X10284170Y-19034234D02*
X10188932Y-19034234D01*
X10188932Y-19034234D02*
X10179408Y-19129472D01*
X10179408Y-19129472D02*
X10188932Y-19119948D01*
X10188932Y-19119948D02*
X10207979Y-19110424D01*
X10207979Y-19110424D02*
X10255599Y-19110424D01*
X10255599Y-19110424D02*
X10274646Y-19119948D01*
X10274646Y-19119948D02*
X10284170Y-19129472D01*
X10284170Y-19129472D02*
X10293694Y-19148520D01*
X10293694Y-19148520D02*
X10293694Y-19196139D01*
X10293694Y-19196139D02*
X10284170Y-19215186D01*
X10284170Y-19215186D02*
X10274646Y-19224710D01*
X10274646Y-19224710D02*
X10255599Y-19234234D01*
X10255599Y-19234234D02*
X10207979Y-19234234D01*
X10207979Y-19234234D02*
X10188932Y-19224710D01*
X10188932Y-19224710D02*
X10179408Y-19215186D01*
X10369884Y-19034234D02*
X10369884Y-19072329D01*
X10446075Y-19034234D02*
X10446075Y-19072329D01*
X10741313Y-19310424D02*
X10731789Y-19300900D01*
X10731789Y-19300900D02*
X10712741Y-19272329D01*
X10712741Y-19272329D02*
X10703218Y-19253281D01*
X10703218Y-19253281D02*
X10693694Y-19224710D01*
X10693694Y-19224710D02*
X10684170Y-19177091D01*
X10684170Y-19177091D02*
X10684170Y-19138996D01*
X10684170Y-19138996D02*
X10693694Y-19091377D01*
X10693694Y-19091377D02*
X10703218Y-19062805D01*
X10703218Y-19062805D02*
X10712741Y-19043758D01*
X10712741Y-19043758D02*
X10731789Y-19015186D01*
X10731789Y-19015186D02*
X10741313Y-19005662D01*
X10807980Y-19053281D02*
X10817503Y-19043758D01*
X10817503Y-19043758D02*
X10836551Y-19034234D01*
X10836551Y-19034234D02*
X10884170Y-19034234D01*
X10884170Y-19034234D02*
X10903218Y-19043758D01*
X10903218Y-19043758D02*
X10912741Y-19053281D01*
X10912741Y-19053281D02*
X10922265Y-19072329D01*
X10922265Y-19072329D02*
X10922265Y-19091377D01*
X10922265Y-19091377D02*
X10912741Y-19119948D01*
X10912741Y-19119948D02*
X10798456Y-19234234D01*
X10798456Y-19234234D02*
X10922265Y-19234234D01*
X11160361Y-19234234D02*
X11160361Y-19034234D01*
X11246075Y-19234234D02*
X11246075Y-19129472D01*
X11246075Y-19129472D02*
X11236551Y-19110424D01*
X11236551Y-19110424D02*
X11217503Y-19100900D01*
X11217503Y-19100900D02*
X11188932Y-19100900D01*
X11188932Y-19100900D02*
X11169884Y-19110424D01*
X11169884Y-19110424D02*
X11160361Y-19119948D01*
X11369884Y-19234234D02*
X11350837Y-19224710D01*
X11350837Y-19224710D02*
X11341313Y-19215186D01*
X11341313Y-19215186D02*
X11331789Y-19196139D01*
X11331789Y-19196139D02*
X11331789Y-19138996D01*
X11331789Y-19138996D02*
X11341313Y-19119948D01*
X11341313Y-19119948D02*
X11350837Y-19110424D01*
X11350837Y-19110424D02*
X11369884Y-19100900D01*
X11369884Y-19100900D02*
X11398456Y-19100900D01*
X11398456Y-19100900D02*
X11417503Y-19110424D01*
X11417503Y-19110424D02*
X11427027Y-19119948D01*
X11427027Y-19119948D02*
X11436551Y-19138996D01*
X11436551Y-19138996D02*
X11436551Y-19196139D01*
X11436551Y-19196139D02*
X11427027Y-19215186D01*
X11427027Y-19215186D02*
X11417503Y-19224710D01*
X11417503Y-19224710D02*
X11398456Y-19234234D01*
X11398456Y-19234234D02*
X11369884Y-19234234D01*
X11550837Y-19234234D02*
X11531789Y-19224710D01*
X11531789Y-19224710D02*
X11522265Y-19205662D01*
X11522265Y-19205662D02*
X11522265Y-19034234D01*
X11703218Y-19224710D02*
X11684170Y-19234234D01*
X11684170Y-19234234D02*
X11646075Y-19234234D01*
X11646075Y-19234234D02*
X11627027Y-19224710D01*
X11627027Y-19224710D02*
X11617503Y-19205662D01*
X11617503Y-19205662D02*
X11617503Y-19129472D01*
X11617503Y-19129472D02*
X11627027Y-19110424D01*
X11627027Y-19110424D02*
X11646075Y-19100900D01*
X11646075Y-19100900D02*
X11684170Y-19100900D01*
X11684170Y-19100900D02*
X11703218Y-19110424D01*
X11703218Y-19110424D02*
X11712741Y-19129472D01*
X11712741Y-19129472D02*
X11712741Y-19148520D01*
X11712741Y-19148520D02*
X11617503Y-19167567D01*
X11788932Y-19224710D02*
X11807980Y-19234234D01*
X11807980Y-19234234D02*
X11846075Y-19234234D01*
X11846075Y-19234234D02*
X11865122Y-19224710D01*
X11865122Y-19224710D02*
X11874646Y-19205662D01*
X11874646Y-19205662D02*
X11874646Y-19196139D01*
X11874646Y-19196139D02*
X11865122Y-19177091D01*
X11865122Y-19177091D02*
X11846075Y-19167567D01*
X11846075Y-19167567D02*
X11817503Y-19167567D01*
X11817503Y-19167567D02*
X11798456Y-19158043D01*
X11798456Y-19158043D02*
X11788932Y-19138996D01*
X11788932Y-19138996D02*
X11788932Y-19129472D01*
X11788932Y-19129472D02*
X11798456Y-19110424D01*
X11798456Y-19110424D02*
X11817503Y-19100900D01*
X11817503Y-19100900D02*
X11846075Y-19100900D01*
X11846075Y-19100900D02*
X11865122Y-19110424D01*
X11941313Y-19310424D02*
X11950837Y-19300900D01*
X11950837Y-19300900D02*
X11969884Y-19272329D01*
X11969884Y-19272329D02*
X11979408Y-19253281D01*
X11979408Y-19253281D02*
X11988932Y-19224710D01*
X11988932Y-19224710D02*
X11998456Y-19177091D01*
X11998456Y-19177091D02*
X11998456Y-19138996D01*
X11998456Y-19138996D02*
X11988932Y-19091377D01*
X11988932Y-19091377D02*
X11979408Y-19062805D01*
X11979408Y-19062805D02*
X11969884Y-19043758D01*
X11969884Y-19043758D02*
X11950837Y-19015186D01*
X11950837Y-19015186D02*
X11941313Y-19005662D01*
X12303218Y-19310424D02*
X12293694Y-19300900D01*
X12293694Y-19300900D02*
X12274646Y-19272329D01*
X12274646Y-19272329D02*
X12265122Y-19253281D01*
X12265122Y-19253281D02*
X12255599Y-19224710D01*
X12255599Y-19224710D02*
X12246075Y-19177091D01*
X12246075Y-19177091D02*
X12246075Y-19138996D01*
X12246075Y-19138996D02*
X12255599Y-19091377D01*
X12255599Y-19091377D02*
X12265122Y-19062805D01*
X12265122Y-19062805D02*
X12274646Y-19043758D01*
X12274646Y-19043758D02*
X12293694Y-19015186D01*
X12293694Y-19015186D02*
X12303218Y-19005662D01*
X12379408Y-19100900D02*
X12379408Y-19234234D01*
X12379408Y-19119948D02*
X12388932Y-19110424D01*
X12388932Y-19110424D02*
X12407980Y-19100900D01*
X12407980Y-19100900D02*
X12436551Y-19100900D01*
X12436551Y-19100900D02*
X12455599Y-19110424D01*
X12455599Y-19110424D02*
X12465122Y-19129472D01*
X12465122Y-19129472D02*
X12465122Y-19234234D01*
X12588932Y-19234234D02*
X12569884Y-19224710D01*
X12569884Y-19224710D02*
X12560361Y-19215186D01*
X12560361Y-19215186D02*
X12550837Y-19196139D01*
X12550837Y-19196139D02*
X12550837Y-19138996D01*
X12550837Y-19138996D02*
X12560361Y-19119948D01*
X12560361Y-19119948D02*
X12569884Y-19110424D01*
X12569884Y-19110424D02*
X12588932Y-19100900D01*
X12588932Y-19100900D02*
X12617503Y-19100900D01*
X12617503Y-19100900D02*
X12636551Y-19110424D01*
X12636551Y-19110424D02*
X12646075Y-19119948D01*
X12646075Y-19119948D02*
X12655599Y-19138996D01*
X12655599Y-19138996D02*
X12655599Y-19196139D01*
X12655599Y-19196139D02*
X12646075Y-19215186D01*
X12646075Y-19215186D02*
X12636551Y-19224710D01*
X12636551Y-19224710D02*
X12617503Y-19234234D01*
X12617503Y-19234234D02*
X12588932Y-19234234D01*
X12712742Y-19100900D02*
X12788932Y-19100900D01*
X12741313Y-19034234D02*
X12741313Y-19205662D01*
X12741313Y-19205662D02*
X12750837Y-19224710D01*
X12750837Y-19224710D02*
X12769884Y-19234234D01*
X12769884Y-19234234D02*
X12788932Y-19234234D01*
X13007980Y-19100900D02*
X13007980Y-19300900D01*
X13007980Y-19110424D02*
X13027027Y-19100900D01*
X13027027Y-19100900D02*
X13065123Y-19100900D01*
X13065123Y-19100900D02*
X13084170Y-19110424D01*
X13084170Y-19110424D02*
X13093694Y-19119948D01*
X13093694Y-19119948D02*
X13103218Y-19138996D01*
X13103218Y-19138996D02*
X13103218Y-19196139D01*
X13103218Y-19196139D02*
X13093694Y-19215186D01*
X13093694Y-19215186D02*
X13084170Y-19224710D01*
X13084170Y-19224710D02*
X13065123Y-19234234D01*
X13065123Y-19234234D02*
X13027027Y-19234234D01*
X13027027Y-19234234D02*
X13007980Y-19224710D01*
X13217503Y-19234234D02*
X13198456Y-19224710D01*
X13198456Y-19224710D02*
X13188932Y-19205662D01*
X13188932Y-19205662D02*
X13188932Y-19034234D01*
X13379408Y-19234234D02*
X13379408Y-19129472D01*
X13379408Y-19129472D02*
X13369884Y-19110424D01*
X13369884Y-19110424D02*
X13350837Y-19100900D01*
X13350837Y-19100900D02*
X13312742Y-19100900D01*
X13312742Y-19100900D02*
X13293694Y-19110424D01*
X13379408Y-19224710D02*
X13360361Y-19234234D01*
X13360361Y-19234234D02*
X13312742Y-19234234D01*
X13312742Y-19234234D02*
X13293694Y-19224710D01*
X13293694Y-19224710D02*
X13284170Y-19205662D01*
X13284170Y-19205662D02*
X13284170Y-19186615D01*
X13284170Y-19186615D02*
X13293694Y-19167567D01*
X13293694Y-19167567D02*
X13312742Y-19158043D01*
X13312742Y-19158043D02*
X13360361Y-19158043D01*
X13360361Y-19158043D02*
X13379408Y-19148520D01*
X13446075Y-19100900D02*
X13522265Y-19100900D01*
X13474646Y-19034234D02*
X13474646Y-19205662D01*
X13474646Y-19205662D02*
X13484170Y-19224710D01*
X13484170Y-19224710D02*
X13503218Y-19234234D01*
X13503218Y-19234234D02*
X13522265Y-19234234D01*
X13665123Y-19224710D02*
X13646075Y-19234234D01*
X13646075Y-19234234D02*
X13607980Y-19234234D01*
X13607980Y-19234234D02*
X13588932Y-19224710D01*
X13588932Y-19224710D02*
X13579408Y-19205662D01*
X13579408Y-19205662D02*
X13579408Y-19129472D01*
X13579408Y-19129472D02*
X13588932Y-19110424D01*
X13588932Y-19110424D02*
X13607980Y-19100900D01*
X13607980Y-19100900D02*
X13646075Y-19100900D01*
X13646075Y-19100900D02*
X13665123Y-19110424D01*
X13665123Y-19110424D02*
X13674646Y-19129472D01*
X13674646Y-19129472D02*
X13674646Y-19148520D01*
X13674646Y-19148520D02*
X13579408Y-19167567D01*
X13846075Y-19234234D02*
X13846075Y-19034234D01*
X13846075Y-19224710D02*
X13827027Y-19234234D01*
X13827027Y-19234234D02*
X13788932Y-19234234D01*
X13788932Y-19234234D02*
X13769884Y-19224710D01*
X13769884Y-19224710D02*
X13760361Y-19215186D01*
X13760361Y-19215186D02*
X13750837Y-19196139D01*
X13750837Y-19196139D02*
X13750837Y-19138996D01*
X13750837Y-19138996D02*
X13760361Y-19119948D01*
X13760361Y-19119948D02*
X13769884Y-19110424D01*
X13769884Y-19110424D02*
X13788932Y-19100900D01*
X13788932Y-19100900D02*
X13827027Y-19100900D01*
X13827027Y-19100900D02*
X13846075Y-19110424D01*
X13922265Y-19310424D02*
X13931789Y-19300900D01*
X13931789Y-19300900D02*
X13950837Y-19272329D01*
X13950837Y-19272329D02*
X13960361Y-19253281D01*
X13960361Y-19253281D02*
X13969884Y-19224710D01*
X13969884Y-19224710D02*
X13979408Y-19177091D01*
X13979408Y-19177091D02*
X13979408Y-19138996D01*
X13979408Y-19138996D02*
X13969884Y-19091377D01*
X13969884Y-19091377D02*
X13960361Y-19062805D01*
X13960361Y-19062805D02*
X13950837Y-19043758D01*
X13950837Y-19043758D02*
X13931789Y-19015186D01*
X13931789Y-19015186D02*
X13922265Y-19005662D01*
D13*
X7078750Y-19319250D02*
X7078750Y-19494250D01*
X6991250Y-19406750D02*
X7166250Y-19406750D01*
D10*
X7531789Y-19498234D02*
X7417503Y-19498234D01*
X7474646Y-19498234D02*
X7474646Y-19298234D01*
X7474646Y-19298234D02*
X7455598Y-19326805D01*
X7455598Y-19326805D02*
X7436551Y-19345853D01*
X7436551Y-19345853D02*
X7417503Y-19355377D01*
X7617503Y-19479186D02*
X7627027Y-19488710D01*
X7627027Y-19488710D02*
X7617503Y-19498234D01*
X7617503Y-19498234D02*
X7607979Y-19488710D01*
X7607979Y-19488710D02*
X7617503Y-19479186D01*
X7617503Y-19479186D02*
X7617503Y-19498234D01*
X7693693Y-19298234D02*
X7827027Y-19298234D01*
X7827027Y-19298234D02*
X7741312Y-19498234D01*
X7998455Y-19298234D02*
X7903217Y-19298234D01*
X7903217Y-19298234D02*
X7893693Y-19393472D01*
X7893693Y-19393472D02*
X7903217Y-19383948D01*
X7903217Y-19383948D02*
X7922265Y-19374424D01*
X7922265Y-19374424D02*
X7969884Y-19374424D01*
X7969884Y-19374424D02*
X7988932Y-19383948D01*
X7988932Y-19383948D02*
X7998455Y-19393472D01*
X7998455Y-19393472D02*
X8007979Y-19412520D01*
X8007979Y-19412520D02*
X8007979Y-19460139D01*
X8007979Y-19460139D02*
X7998455Y-19479186D01*
X7998455Y-19479186D02*
X7988932Y-19488710D01*
X7988932Y-19488710D02*
X7969884Y-19498234D01*
X7969884Y-19498234D02*
X7922265Y-19498234D01*
X7922265Y-19498234D02*
X7903217Y-19488710D01*
X7903217Y-19488710D02*
X7893693Y-19479186D01*
X8131789Y-19298234D02*
X8150836Y-19298234D01*
X8150836Y-19298234D02*
X8169884Y-19307758D01*
X8169884Y-19307758D02*
X8179408Y-19317281D01*
X8179408Y-19317281D02*
X8188932Y-19336329D01*
X8188932Y-19336329D02*
X8198455Y-19374424D01*
X8198455Y-19374424D02*
X8198455Y-19422043D01*
X8198455Y-19422043D02*
X8188932Y-19460139D01*
X8188932Y-19460139D02*
X8179408Y-19479186D01*
X8179408Y-19479186D02*
X8169884Y-19488710D01*
X8169884Y-19488710D02*
X8150836Y-19498234D01*
X8150836Y-19498234D02*
X8131789Y-19498234D01*
X8131789Y-19498234D02*
X8112741Y-19488710D01*
X8112741Y-19488710D02*
X8103217Y-19479186D01*
X8103217Y-19479186D02*
X8093693Y-19460139D01*
X8093693Y-19460139D02*
X8084170Y-19422043D01*
X8084170Y-19422043D02*
X8084170Y-19374424D01*
X8084170Y-19374424D02*
X8093693Y-19336329D01*
X8093693Y-19336329D02*
X8103217Y-19317281D01*
X8103217Y-19317281D02*
X8112741Y-19307758D01*
X8112741Y-19307758D02*
X8131789Y-19298234D01*
X8284170Y-19498234D02*
X8284170Y-19364900D01*
X8284170Y-19383948D02*
X8293693Y-19374424D01*
X8293693Y-19374424D02*
X8312741Y-19364900D01*
X8312741Y-19364900D02*
X8341313Y-19364900D01*
X8341313Y-19364900D02*
X8360360Y-19374424D01*
X8360360Y-19374424D02*
X8369884Y-19393472D01*
X8369884Y-19393472D02*
X8369884Y-19498234D01*
X8369884Y-19393472D02*
X8379408Y-19374424D01*
X8379408Y-19374424D02*
X8398455Y-19364900D01*
X8398455Y-19364900D02*
X8427027Y-19364900D01*
X8427027Y-19364900D02*
X8446075Y-19374424D01*
X8446075Y-19374424D02*
X8455598Y-19393472D01*
X8455598Y-19393472D02*
X8455598Y-19498234D01*
X8550836Y-19498234D02*
X8550836Y-19364900D01*
X8550836Y-19383948D02*
X8560360Y-19374424D01*
X8560360Y-19374424D02*
X8579408Y-19364900D01*
X8579408Y-19364900D02*
X8607979Y-19364900D01*
X8607979Y-19364900D02*
X8627027Y-19374424D01*
X8627027Y-19374424D02*
X8636551Y-19393472D01*
X8636551Y-19393472D02*
X8636551Y-19498234D01*
X8636551Y-19393472D02*
X8646075Y-19374424D01*
X8646075Y-19374424D02*
X8665122Y-19364900D01*
X8665122Y-19364900D02*
X8693694Y-19364900D01*
X8693694Y-19364900D02*
X8712741Y-19374424D01*
X8712741Y-19374424D02*
X8722265Y-19393472D01*
X8722265Y-19393472D02*
X8722265Y-19498234D01*
X9112741Y-19288710D02*
X8941313Y-19545853D01*
X9369884Y-19298234D02*
X9388932Y-19298234D01*
X9388932Y-19298234D02*
X9407979Y-19307758D01*
X9407979Y-19307758D02*
X9417503Y-19317281D01*
X9417503Y-19317281D02*
X9427027Y-19336329D01*
X9427027Y-19336329D02*
X9436551Y-19374424D01*
X9436551Y-19374424D02*
X9436551Y-19422043D01*
X9436551Y-19422043D02*
X9427027Y-19460139D01*
X9427027Y-19460139D02*
X9417503Y-19479186D01*
X9417503Y-19479186D02*
X9407979Y-19488710D01*
X9407979Y-19488710D02*
X9388932Y-19498234D01*
X9388932Y-19498234D02*
X9369884Y-19498234D01*
X9369884Y-19498234D02*
X9350837Y-19488710D01*
X9350837Y-19488710D02*
X9341313Y-19479186D01*
X9341313Y-19479186D02*
X9331789Y-19460139D01*
X9331789Y-19460139D02*
X9322265Y-19422043D01*
X9322265Y-19422043D02*
X9322265Y-19374424D01*
X9322265Y-19374424D02*
X9331789Y-19336329D01*
X9331789Y-19336329D02*
X9341313Y-19317281D01*
X9341313Y-19317281D02*
X9350837Y-19307758D01*
X9350837Y-19307758D02*
X9369884Y-19298234D01*
X9522265Y-19479186D02*
X9531789Y-19488710D01*
X9531789Y-19488710D02*
X9522265Y-19498234D01*
X9522265Y-19498234D02*
X9512741Y-19488710D01*
X9512741Y-19488710D02*
X9522265Y-19479186D01*
X9522265Y-19479186D02*
X9522265Y-19498234D01*
X9655598Y-19298234D02*
X9674646Y-19298234D01*
X9674646Y-19298234D02*
X9693694Y-19307758D01*
X9693694Y-19307758D02*
X9703218Y-19317281D01*
X9703218Y-19317281D02*
X9712741Y-19336329D01*
X9712741Y-19336329D02*
X9722265Y-19374424D01*
X9722265Y-19374424D02*
X9722265Y-19422043D01*
X9722265Y-19422043D02*
X9712741Y-19460139D01*
X9712741Y-19460139D02*
X9703218Y-19479186D01*
X9703218Y-19479186D02*
X9693694Y-19488710D01*
X9693694Y-19488710D02*
X9674646Y-19498234D01*
X9674646Y-19498234D02*
X9655598Y-19498234D01*
X9655598Y-19498234D02*
X9636551Y-19488710D01*
X9636551Y-19488710D02*
X9627027Y-19479186D01*
X9627027Y-19479186D02*
X9617503Y-19460139D01*
X9617503Y-19460139D02*
X9607979Y-19422043D01*
X9607979Y-19422043D02*
X9607979Y-19374424D01*
X9607979Y-19374424D02*
X9617503Y-19336329D01*
X9617503Y-19336329D02*
X9627027Y-19317281D01*
X9627027Y-19317281D02*
X9636551Y-19307758D01*
X9636551Y-19307758D02*
X9655598Y-19298234D01*
X9893694Y-19298234D02*
X9855598Y-19298234D01*
X9855598Y-19298234D02*
X9836551Y-19307758D01*
X9836551Y-19307758D02*
X9827027Y-19317281D01*
X9827027Y-19317281D02*
X9807979Y-19345853D01*
X9807979Y-19345853D02*
X9798456Y-19383948D01*
X9798456Y-19383948D02*
X9798456Y-19460139D01*
X9798456Y-19460139D02*
X9807979Y-19479186D01*
X9807979Y-19479186D02*
X9817503Y-19488710D01*
X9817503Y-19488710D02*
X9836551Y-19498234D01*
X9836551Y-19498234D02*
X9874646Y-19498234D01*
X9874646Y-19498234D02*
X9893694Y-19488710D01*
X9893694Y-19488710D02*
X9903218Y-19479186D01*
X9903218Y-19479186D02*
X9912741Y-19460139D01*
X9912741Y-19460139D02*
X9912741Y-19412520D01*
X9912741Y-19412520D02*
X9903218Y-19393472D01*
X9903218Y-19393472D02*
X9893694Y-19383948D01*
X9893694Y-19383948D02*
X9874646Y-19374424D01*
X9874646Y-19374424D02*
X9836551Y-19374424D01*
X9836551Y-19374424D02*
X9817503Y-19383948D01*
X9817503Y-19383948D02*
X9807979Y-19393472D01*
X9807979Y-19393472D02*
X9798456Y-19412520D01*
X10027027Y-19383948D02*
X10007979Y-19374424D01*
X10007979Y-19374424D02*
X9998456Y-19364900D01*
X9998456Y-19364900D02*
X9988932Y-19345853D01*
X9988932Y-19345853D02*
X9988932Y-19336329D01*
X9988932Y-19336329D02*
X9998456Y-19317281D01*
X9998456Y-19317281D02*
X10007979Y-19307758D01*
X10007979Y-19307758D02*
X10027027Y-19298234D01*
X10027027Y-19298234D02*
X10065122Y-19298234D01*
X10065122Y-19298234D02*
X10084170Y-19307758D01*
X10084170Y-19307758D02*
X10093694Y-19317281D01*
X10093694Y-19317281D02*
X10103218Y-19336329D01*
X10103218Y-19336329D02*
X10103218Y-19345853D01*
X10103218Y-19345853D02*
X10093694Y-19364900D01*
X10093694Y-19364900D02*
X10084170Y-19374424D01*
X10084170Y-19374424D02*
X10065122Y-19383948D01*
X10065122Y-19383948D02*
X10027027Y-19383948D01*
X10027027Y-19383948D02*
X10007979Y-19393472D01*
X10007979Y-19393472D02*
X9998456Y-19402996D01*
X9998456Y-19402996D02*
X9988932Y-19422043D01*
X9988932Y-19422043D02*
X9988932Y-19460139D01*
X9988932Y-19460139D02*
X9998456Y-19479186D01*
X9998456Y-19479186D02*
X10007979Y-19488710D01*
X10007979Y-19488710D02*
X10027027Y-19498234D01*
X10027027Y-19498234D02*
X10065122Y-19498234D01*
X10065122Y-19498234D02*
X10084170Y-19488710D01*
X10084170Y-19488710D02*
X10093694Y-19479186D01*
X10093694Y-19479186D02*
X10103218Y-19460139D01*
X10103218Y-19460139D02*
X10103218Y-19422043D01*
X10103218Y-19422043D02*
X10093694Y-19402996D01*
X10093694Y-19402996D02*
X10084170Y-19393472D01*
X10084170Y-19393472D02*
X10065122Y-19383948D01*
X10198456Y-19498234D02*
X10236551Y-19498234D01*
X10236551Y-19498234D02*
X10255599Y-19488710D01*
X10255599Y-19488710D02*
X10265122Y-19479186D01*
X10265122Y-19479186D02*
X10284170Y-19450615D01*
X10284170Y-19450615D02*
X10293694Y-19412520D01*
X10293694Y-19412520D02*
X10293694Y-19336329D01*
X10293694Y-19336329D02*
X10284170Y-19317281D01*
X10284170Y-19317281D02*
X10274646Y-19307758D01*
X10274646Y-19307758D02*
X10255599Y-19298234D01*
X10255599Y-19298234D02*
X10217503Y-19298234D01*
X10217503Y-19298234D02*
X10198456Y-19307758D01*
X10198456Y-19307758D02*
X10188932Y-19317281D01*
X10188932Y-19317281D02*
X10179408Y-19336329D01*
X10179408Y-19336329D02*
X10179408Y-19383948D01*
X10179408Y-19383948D02*
X10188932Y-19402996D01*
X10188932Y-19402996D02*
X10198456Y-19412520D01*
X10198456Y-19412520D02*
X10217503Y-19422043D01*
X10217503Y-19422043D02*
X10255599Y-19422043D01*
X10255599Y-19422043D02*
X10274646Y-19412520D01*
X10274646Y-19412520D02*
X10284170Y-19402996D01*
X10284170Y-19402996D02*
X10293694Y-19383948D01*
X10369884Y-19298234D02*
X10369884Y-19336329D01*
X10446075Y-19298234D02*
X10446075Y-19336329D01*
X10741313Y-19574424D02*
X10731789Y-19564900D01*
X10731789Y-19564900D02*
X10712741Y-19536329D01*
X10712741Y-19536329D02*
X10703218Y-19517281D01*
X10703218Y-19517281D02*
X10693694Y-19488710D01*
X10693694Y-19488710D02*
X10684170Y-19441091D01*
X10684170Y-19441091D02*
X10684170Y-19402996D01*
X10684170Y-19402996D02*
X10693694Y-19355377D01*
X10693694Y-19355377D02*
X10703218Y-19326805D01*
X10703218Y-19326805D02*
X10712741Y-19307758D01*
X10712741Y-19307758D02*
X10731789Y-19279186D01*
X10731789Y-19279186D02*
X10741313Y-19269662D01*
X10922265Y-19498234D02*
X10807980Y-19498234D01*
X10865122Y-19498234D02*
X10865122Y-19298234D01*
X10865122Y-19298234D02*
X10846075Y-19326805D01*
X10846075Y-19326805D02*
X10827027Y-19345853D01*
X10827027Y-19345853D02*
X10807980Y-19355377D01*
X10998456Y-19317281D02*
X11007980Y-19307758D01*
X11007980Y-19307758D02*
X11027027Y-19298234D01*
X11027027Y-19298234D02*
X11074646Y-19298234D01*
X11074646Y-19298234D02*
X11093694Y-19307758D01*
X11093694Y-19307758D02*
X11103218Y-19317281D01*
X11103218Y-19317281D02*
X11112741Y-19336329D01*
X11112741Y-19336329D02*
X11112741Y-19355377D01*
X11112741Y-19355377D02*
X11103218Y-19383948D01*
X11103218Y-19383948D02*
X10988932Y-19498234D01*
X10988932Y-19498234D02*
X11112741Y-19498234D01*
X11227027Y-19383948D02*
X11207979Y-19374424D01*
X11207979Y-19374424D02*
X11198456Y-19364900D01*
X11198456Y-19364900D02*
X11188932Y-19345853D01*
X11188932Y-19345853D02*
X11188932Y-19336329D01*
X11188932Y-19336329D02*
X11198456Y-19317281D01*
X11198456Y-19317281D02*
X11207979Y-19307758D01*
X11207979Y-19307758D02*
X11227027Y-19298234D01*
X11227027Y-19298234D02*
X11265122Y-19298234D01*
X11265122Y-19298234D02*
X11284170Y-19307758D01*
X11284170Y-19307758D02*
X11293694Y-19317281D01*
X11293694Y-19317281D02*
X11303218Y-19336329D01*
X11303218Y-19336329D02*
X11303218Y-19345853D01*
X11303218Y-19345853D02*
X11293694Y-19364900D01*
X11293694Y-19364900D02*
X11284170Y-19374424D01*
X11284170Y-19374424D02*
X11265122Y-19383948D01*
X11265122Y-19383948D02*
X11227027Y-19383948D01*
X11227027Y-19383948D02*
X11207979Y-19393472D01*
X11207979Y-19393472D02*
X11198456Y-19402996D01*
X11198456Y-19402996D02*
X11188932Y-19422043D01*
X11188932Y-19422043D02*
X11188932Y-19460139D01*
X11188932Y-19460139D02*
X11198456Y-19479186D01*
X11198456Y-19479186D02*
X11207979Y-19488710D01*
X11207979Y-19488710D02*
X11227027Y-19498234D01*
X11227027Y-19498234D02*
X11265122Y-19498234D01*
X11265122Y-19498234D02*
X11284170Y-19488710D01*
X11284170Y-19488710D02*
X11293694Y-19479186D01*
X11293694Y-19479186D02*
X11303218Y-19460139D01*
X11303218Y-19460139D02*
X11303218Y-19422043D01*
X11303218Y-19422043D02*
X11293694Y-19402996D01*
X11293694Y-19402996D02*
X11284170Y-19393472D01*
X11284170Y-19393472D02*
X11265122Y-19383948D01*
X11541313Y-19498234D02*
X11541313Y-19298234D01*
X11627027Y-19498234D02*
X11627027Y-19393472D01*
X11627027Y-19393472D02*
X11617503Y-19374424D01*
X11617503Y-19374424D02*
X11598456Y-19364900D01*
X11598456Y-19364900D02*
X11569884Y-19364900D01*
X11569884Y-19364900D02*
X11550837Y-19374424D01*
X11550837Y-19374424D02*
X11541313Y-19383948D01*
X11750837Y-19498234D02*
X11731789Y-19488710D01*
X11731789Y-19488710D02*
X11722265Y-19479186D01*
X11722265Y-19479186D02*
X11712741Y-19460139D01*
X11712741Y-19460139D02*
X11712741Y-19402996D01*
X11712741Y-19402996D02*
X11722265Y-19383948D01*
X11722265Y-19383948D02*
X11731789Y-19374424D01*
X11731789Y-19374424D02*
X11750837Y-19364900D01*
X11750837Y-19364900D02*
X11779408Y-19364900D01*
X11779408Y-19364900D02*
X11798456Y-19374424D01*
X11798456Y-19374424D02*
X11807980Y-19383948D01*
X11807980Y-19383948D02*
X11817503Y-19402996D01*
X11817503Y-19402996D02*
X11817503Y-19460139D01*
X11817503Y-19460139D02*
X11807980Y-19479186D01*
X11807980Y-19479186D02*
X11798456Y-19488710D01*
X11798456Y-19488710D02*
X11779408Y-19498234D01*
X11779408Y-19498234D02*
X11750837Y-19498234D01*
X11931789Y-19498234D02*
X11912741Y-19488710D01*
X11912741Y-19488710D02*
X11903218Y-19469662D01*
X11903218Y-19469662D02*
X11903218Y-19298234D01*
X12084170Y-19488710D02*
X12065122Y-19498234D01*
X12065122Y-19498234D02*
X12027027Y-19498234D01*
X12027027Y-19498234D02*
X12007980Y-19488710D01*
X12007980Y-19488710D02*
X11998456Y-19469662D01*
X11998456Y-19469662D02*
X11998456Y-19393472D01*
X11998456Y-19393472D02*
X12007980Y-19374424D01*
X12007980Y-19374424D02*
X12027027Y-19364900D01*
X12027027Y-19364900D02*
X12065122Y-19364900D01*
X12065122Y-19364900D02*
X12084170Y-19374424D01*
X12084170Y-19374424D02*
X12093694Y-19393472D01*
X12093694Y-19393472D02*
X12093694Y-19412520D01*
X12093694Y-19412520D02*
X11998456Y-19431567D01*
X12169884Y-19488710D02*
X12188932Y-19498234D01*
X12188932Y-19498234D02*
X12227027Y-19498234D01*
X12227027Y-19498234D02*
X12246075Y-19488710D01*
X12246075Y-19488710D02*
X12255599Y-19469662D01*
X12255599Y-19469662D02*
X12255599Y-19460139D01*
X12255599Y-19460139D02*
X12246075Y-19441091D01*
X12246075Y-19441091D02*
X12227027Y-19431567D01*
X12227027Y-19431567D02*
X12198456Y-19431567D01*
X12198456Y-19431567D02*
X12179408Y-19422043D01*
X12179408Y-19422043D02*
X12169884Y-19402996D01*
X12169884Y-19402996D02*
X12169884Y-19393472D01*
X12169884Y-19393472D02*
X12179408Y-19374424D01*
X12179408Y-19374424D02*
X12198456Y-19364900D01*
X12198456Y-19364900D02*
X12227027Y-19364900D01*
X12227027Y-19364900D02*
X12246075Y-19374424D01*
X12322265Y-19574424D02*
X12331789Y-19564900D01*
X12331789Y-19564900D02*
X12350837Y-19536329D01*
X12350837Y-19536329D02*
X12360361Y-19517281D01*
X12360361Y-19517281D02*
X12369884Y-19488710D01*
X12369884Y-19488710D02*
X12379408Y-19441091D01*
X12379408Y-19441091D02*
X12379408Y-19402996D01*
X12379408Y-19402996D02*
X12369884Y-19355377D01*
X12369884Y-19355377D02*
X12360361Y-19326805D01*
X12360361Y-19326805D02*
X12350837Y-19307758D01*
X12350837Y-19307758D02*
X12331789Y-19279186D01*
X12331789Y-19279186D02*
X12322265Y-19269662D01*
X12684170Y-19574424D02*
X12674646Y-19564900D01*
X12674646Y-19564900D02*
X12655599Y-19536329D01*
X12655599Y-19536329D02*
X12646075Y-19517281D01*
X12646075Y-19517281D02*
X12636551Y-19488710D01*
X12636551Y-19488710D02*
X12627027Y-19441091D01*
X12627027Y-19441091D02*
X12627027Y-19402996D01*
X12627027Y-19402996D02*
X12636551Y-19355377D01*
X12636551Y-19355377D02*
X12646075Y-19326805D01*
X12646075Y-19326805D02*
X12655599Y-19307758D01*
X12655599Y-19307758D02*
X12674646Y-19279186D01*
X12674646Y-19279186D02*
X12684170Y-19269662D01*
X12760361Y-19364900D02*
X12760361Y-19498234D01*
X12760361Y-19383948D02*
X12769884Y-19374424D01*
X12769884Y-19374424D02*
X12788932Y-19364900D01*
X12788932Y-19364900D02*
X12817503Y-19364900D01*
X12817503Y-19364900D02*
X12836551Y-19374424D01*
X12836551Y-19374424D02*
X12846075Y-19393472D01*
X12846075Y-19393472D02*
X12846075Y-19498234D01*
X12969884Y-19498234D02*
X12950837Y-19488710D01*
X12950837Y-19488710D02*
X12941313Y-19479186D01*
X12941313Y-19479186D02*
X12931789Y-19460139D01*
X12931789Y-19460139D02*
X12931789Y-19402996D01*
X12931789Y-19402996D02*
X12941313Y-19383948D01*
X12941313Y-19383948D02*
X12950837Y-19374424D01*
X12950837Y-19374424D02*
X12969884Y-19364900D01*
X12969884Y-19364900D02*
X12998456Y-19364900D01*
X12998456Y-19364900D02*
X13017503Y-19374424D01*
X13017503Y-19374424D02*
X13027027Y-19383948D01*
X13027027Y-19383948D02*
X13036551Y-19402996D01*
X13036551Y-19402996D02*
X13036551Y-19460139D01*
X13036551Y-19460139D02*
X13027027Y-19479186D01*
X13027027Y-19479186D02*
X13017503Y-19488710D01*
X13017503Y-19488710D02*
X12998456Y-19498234D01*
X12998456Y-19498234D02*
X12969884Y-19498234D01*
X13093694Y-19364900D02*
X13169884Y-19364900D01*
X13122265Y-19298234D02*
X13122265Y-19469662D01*
X13122265Y-19469662D02*
X13131789Y-19488710D01*
X13131789Y-19488710D02*
X13150837Y-19498234D01*
X13150837Y-19498234D02*
X13169884Y-19498234D01*
X13388932Y-19364900D02*
X13388932Y-19564900D01*
X13388932Y-19374424D02*
X13407980Y-19364900D01*
X13407980Y-19364900D02*
X13446075Y-19364900D01*
X13446075Y-19364900D02*
X13465123Y-19374424D01*
X13465123Y-19374424D02*
X13474646Y-19383948D01*
X13474646Y-19383948D02*
X13484170Y-19402996D01*
X13484170Y-19402996D02*
X13484170Y-19460139D01*
X13484170Y-19460139D02*
X13474646Y-19479186D01*
X13474646Y-19479186D02*
X13465123Y-19488710D01*
X13465123Y-19488710D02*
X13446075Y-19498234D01*
X13446075Y-19498234D02*
X13407980Y-19498234D01*
X13407980Y-19498234D02*
X13388932Y-19488710D01*
X13598456Y-19498234D02*
X13579408Y-19488710D01*
X13579408Y-19488710D02*
X13569884Y-19469662D01*
X13569884Y-19469662D02*
X13569884Y-19298234D01*
X13760361Y-19498234D02*
X13760361Y-19393472D01*
X13760361Y-19393472D02*
X13750837Y-19374424D01*
X13750837Y-19374424D02*
X13731789Y-19364900D01*
X13731789Y-19364900D02*
X13693694Y-19364900D01*
X13693694Y-19364900D02*
X13674646Y-19374424D01*
X13760361Y-19488710D02*
X13741313Y-19498234D01*
X13741313Y-19498234D02*
X13693694Y-19498234D01*
X13693694Y-19498234D02*
X13674646Y-19488710D01*
X13674646Y-19488710D02*
X13665123Y-19469662D01*
X13665123Y-19469662D02*
X13665123Y-19450615D01*
X13665123Y-19450615D02*
X13674646Y-19431567D01*
X13674646Y-19431567D02*
X13693694Y-19422043D01*
X13693694Y-19422043D02*
X13741313Y-19422043D01*
X13741313Y-19422043D02*
X13760361Y-19412520D01*
X13827027Y-19364900D02*
X13903218Y-19364900D01*
X13855599Y-19298234D02*
X13855599Y-19469662D01*
X13855599Y-19469662D02*
X13865123Y-19488710D01*
X13865123Y-19488710D02*
X13884170Y-19498234D01*
X13884170Y-19498234D02*
X13903218Y-19498234D01*
X14046075Y-19488710D02*
X14027027Y-19498234D01*
X14027027Y-19498234D02*
X13988932Y-19498234D01*
X13988932Y-19498234D02*
X13969884Y-19488710D01*
X13969884Y-19488710D02*
X13960361Y-19469662D01*
X13960361Y-19469662D02*
X13960361Y-19393472D01*
X13960361Y-19393472D02*
X13969884Y-19374424D01*
X13969884Y-19374424D02*
X13988932Y-19364900D01*
X13988932Y-19364900D02*
X14027027Y-19364900D01*
X14027027Y-19364900D02*
X14046075Y-19374424D01*
X14046075Y-19374424D02*
X14055599Y-19393472D01*
X14055599Y-19393472D02*
X14055599Y-19412520D01*
X14055599Y-19412520D02*
X13960361Y-19431567D01*
X14227027Y-19498234D02*
X14227027Y-19298234D01*
X14227027Y-19488710D02*
X14207980Y-19498234D01*
X14207980Y-19498234D02*
X14169884Y-19498234D01*
X14169884Y-19498234D02*
X14150837Y-19488710D01*
X14150837Y-19488710D02*
X14141313Y-19479186D01*
X14141313Y-19479186D02*
X14131789Y-19460139D01*
X14131789Y-19460139D02*
X14131789Y-19402996D01*
X14131789Y-19402996D02*
X14141313Y-19383948D01*
X14141313Y-19383948D02*
X14150837Y-19374424D01*
X14150837Y-19374424D02*
X14169884Y-19364900D01*
X14169884Y-19364900D02*
X14207980Y-19364900D01*
X14207980Y-19364900D02*
X14227027Y-19374424D01*
X14303218Y-19574424D02*
X14312742Y-19564900D01*
X14312742Y-19564900D02*
X14331789Y-19536329D01*
X14331789Y-19536329D02*
X14341313Y-19517281D01*
X14341313Y-19517281D02*
X14350837Y-19488710D01*
X14350837Y-19488710D02*
X14360361Y-19441091D01*
X14360361Y-19441091D02*
X14360361Y-19402996D01*
X14360361Y-19402996D02*
X14350837Y-19355377D01*
X14350837Y-19355377D02*
X14341313Y-19326805D01*
X14341313Y-19326805D02*
X14331789Y-19307758D01*
X14331789Y-19307758D02*
X14312742Y-19279186D01*
X14312742Y-19279186D02*
X14303218Y-19269662D01*
X7136961Y-19772461D02*
X7136961Y-19631039D01*
X6995539Y-19631039D01*
X6995539Y-19772461D01*
X7136961Y-19772461D01*
X7407979Y-19593234D02*
X7531789Y-19593234D01*
X7531789Y-19593234D02*
X7465122Y-19669424D01*
X7465122Y-19669424D02*
X7493693Y-19669424D01*
X7493693Y-19669424D02*
X7512741Y-19678948D01*
X7512741Y-19678948D02*
X7522265Y-19688472D01*
X7522265Y-19688472D02*
X7531789Y-19707520D01*
X7531789Y-19707520D02*
X7531789Y-19755139D01*
X7531789Y-19755139D02*
X7522265Y-19774186D01*
X7522265Y-19774186D02*
X7512741Y-19783710D01*
X7512741Y-19783710D02*
X7493693Y-19793234D01*
X7493693Y-19793234D02*
X7436551Y-19793234D01*
X7436551Y-19793234D02*
X7417503Y-19783710D01*
X7417503Y-19783710D02*
X7407979Y-19774186D01*
X7617503Y-19774186D02*
X7627027Y-19783710D01*
X7627027Y-19783710D02*
X7617503Y-19793234D01*
X7617503Y-19793234D02*
X7607979Y-19783710D01*
X7607979Y-19783710D02*
X7617503Y-19774186D01*
X7617503Y-19774186D02*
X7617503Y-19793234D01*
X7750836Y-19593234D02*
X7769884Y-19593234D01*
X7769884Y-19593234D02*
X7788932Y-19602758D01*
X7788932Y-19602758D02*
X7798455Y-19612281D01*
X7798455Y-19612281D02*
X7807979Y-19631329D01*
X7807979Y-19631329D02*
X7817503Y-19669424D01*
X7817503Y-19669424D02*
X7817503Y-19717043D01*
X7817503Y-19717043D02*
X7807979Y-19755139D01*
X7807979Y-19755139D02*
X7798455Y-19774186D01*
X7798455Y-19774186D02*
X7788932Y-19783710D01*
X7788932Y-19783710D02*
X7769884Y-19793234D01*
X7769884Y-19793234D02*
X7750836Y-19793234D01*
X7750836Y-19793234D02*
X7731789Y-19783710D01*
X7731789Y-19783710D02*
X7722265Y-19774186D01*
X7722265Y-19774186D02*
X7712741Y-19755139D01*
X7712741Y-19755139D02*
X7703217Y-19717043D01*
X7703217Y-19717043D02*
X7703217Y-19669424D01*
X7703217Y-19669424D02*
X7712741Y-19631329D01*
X7712741Y-19631329D02*
X7722265Y-19612281D01*
X7722265Y-19612281D02*
X7731789Y-19602758D01*
X7731789Y-19602758D02*
X7750836Y-19593234D01*
X7988932Y-19659900D02*
X7988932Y-19793234D01*
X7941312Y-19583710D02*
X7893693Y-19726567D01*
X7893693Y-19726567D02*
X8017503Y-19726567D01*
X8122265Y-19678948D02*
X8103217Y-19669424D01*
X8103217Y-19669424D02*
X8093693Y-19659900D01*
X8093693Y-19659900D02*
X8084170Y-19640853D01*
X8084170Y-19640853D02*
X8084170Y-19631329D01*
X8084170Y-19631329D02*
X8093693Y-19612281D01*
X8093693Y-19612281D02*
X8103217Y-19602758D01*
X8103217Y-19602758D02*
X8122265Y-19593234D01*
X8122265Y-19593234D02*
X8160360Y-19593234D01*
X8160360Y-19593234D02*
X8179408Y-19602758D01*
X8179408Y-19602758D02*
X8188932Y-19612281D01*
X8188932Y-19612281D02*
X8198455Y-19631329D01*
X8198455Y-19631329D02*
X8198455Y-19640853D01*
X8198455Y-19640853D02*
X8188932Y-19659900D01*
X8188932Y-19659900D02*
X8179408Y-19669424D01*
X8179408Y-19669424D02*
X8160360Y-19678948D01*
X8160360Y-19678948D02*
X8122265Y-19678948D01*
X8122265Y-19678948D02*
X8103217Y-19688472D01*
X8103217Y-19688472D02*
X8093693Y-19697996D01*
X8093693Y-19697996D02*
X8084170Y-19717043D01*
X8084170Y-19717043D02*
X8084170Y-19755139D01*
X8084170Y-19755139D02*
X8093693Y-19774186D01*
X8093693Y-19774186D02*
X8103217Y-19783710D01*
X8103217Y-19783710D02*
X8122265Y-19793234D01*
X8122265Y-19793234D02*
X8160360Y-19793234D01*
X8160360Y-19793234D02*
X8179408Y-19783710D01*
X8179408Y-19783710D02*
X8188932Y-19774186D01*
X8188932Y-19774186D02*
X8198455Y-19755139D01*
X8198455Y-19755139D02*
X8198455Y-19717043D01*
X8198455Y-19717043D02*
X8188932Y-19697996D01*
X8188932Y-19697996D02*
X8179408Y-19688472D01*
X8179408Y-19688472D02*
X8160360Y-19678948D01*
X8284170Y-19793234D02*
X8284170Y-19659900D01*
X8284170Y-19678948D02*
X8293693Y-19669424D01*
X8293693Y-19669424D02*
X8312741Y-19659900D01*
X8312741Y-19659900D02*
X8341313Y-19659900D01*
X8341313Y-19659900D02*
X8360360Y-19669424D01*
X8360360Y-19669424D02*
X8369884Y-19688472D01*
X8369884Y-19688472D02*
X8369884Y-19793234D01*
X8369884Y-19688472D02*
X8379408Y-19669424D01*
X8379408Y-19669424D02*
X8398455Y-19659900D01*
X8398455Y-19659900D02*
X8427027Y-19659900D01*
X8427027Y-19659900D02*
X8446075Y-19669424D01*
X8446075Y-19669424D02*
X8455598Y-19688472D01*
X8455598Y-19688472D02*
X8455598Y-19793234D01*
X8550836Y-19793234D02*
X8550836Y-19659900D01*
X8550836Y-19678948D02*
X8560360Y-19669424D01*
X8560360Y-19669424D02*
X8579408Y-19659900D01*
X8579408Y-19659900D02*
X8607979Y-19659900D01*
X8607979Y-19659900D02*
X8627027Y-19669424D01*
X8627027Y-19669424D02*
X8636551Y-19688472D01*
X8636551Y-19688472D02*
X8636551Y-19793234D01*
X8636551Y-19688472D02*
X8646075Y-19669424D01*
X8646075Y-19669424D02*
X8665122Y-19659900D01*
X8665122Y-19659900D02*
X8693694Y-19659900D01*
X8693694Y-19659900D02*
X8712741Y-19669424D01*
X8712741Y-19669424D02*
X8722265Y-19688472D01*
X8722265Y-19688472D02*
X8722265Y-19793234D01*
X9112741Y-19583710D02*
X8941313Y-19840853D01*
X9369884Y-19593234D02*
X9388932Y-19593234D01*
X9388932Y-19593234D02*
X9407979Y-19602758D01*
X9407979Y-19602758D02*
X9417503Y-19612281D01*
X9417503Y-19612281D02*
X9427027Y-19631329D01*
X9427027Y-19631329D02*
X9436551Y-19669424D01*
X9436551Y-19669424D02*
X9436551Y-19717043D01*
X9436551Y-19717043D02*
X9427027Y-19755139D01*
X9427027Y-19755139D02*
X9417503Y-19774186D01*
X9417503Y-19774186D02*
X9407979Y-19783710D01*
X9407979Y-19783710D02*
X9388932Y-19793234D01*
X9388932Y-19793234D02*
X9369884Y-19793234D01*
X9369884Y-19793234D02*
X9350837Y-19783710D01*
X9350837Y-19783710D02*
X9341313Y-19774186D01*
X9341313Y-19774186D02*
X9331789Y-19755139D01*
X9331789Y-19755139D02*
X9322265Y-19717043D01*
X9322265Y-19717043D02*
X9322265Y-19669424D01*
X9322265Y-19669424D02*
X9331789Y-19631329D01*
X9331789Y-19631329D02*
X9341313Y-19612281D01*
X9341313Y-19612281D02*
X9350837Y-19602758D01*
X9350837Y-19602758D02*
X9369884Y-19593234D01*
X9522265Y-19774186D02*
X9531789Y-19783710D01*
X9531789Y-19783710D02*
X9522265Y-19793234D01*
X9522265Y-19793234D02*
X9512741Y-19783710D01*
X9512741Y-19783710D02*
X9522265Y-19774186D01*
X9522265Y-19774186D02*
X9522265Y-19793234D01*
X9722265Y-19793234D02*
X9607979Y-19793234D01*
X9665122Y-19793234D02*
X9665122Y-19593234D01*
X9665122Y-19593234D02*
X9646075Y-19621805D01*
X9646075Y-19621805D02*
X9627027Y-19640853D01*
X9627027Y-19640853D02*
X9607979Y-19650377D01*
X9798456Y-19612281D02*
X9807979Y-19602758D01*
X9807979Y-19602758D02*
X9827027Y-19593234D01*
X9827027Y-19593234D02*
X9874646Y-19593234D01*
X9874646Y-19593234D02*
X9893694Y-19602758D01*
X9893694Y-19602758D02*
X9903218Y-19612281D01*
X9903218Y-19612281D02*
X9912741Y-19631329D01*
X9912741Y-19631329D02*
X9912741Y-19650377D01*
X9912741Y-19650377D02*
X9903218Y-19678948D01*
X9903218Y-19678948D02*
X9788932Y-19793234D01*
X9788932Y-19793234D02*
X9912741Y-19793234D01*
X10036551Y-19593234D02*
X10055599Y-19593234D01*
X10055599Y-19593234D02*
X10074646Y-19602758D01*
X10074646Y-19602758D02*
X10084170Y-19612281D01*
X10084170Y-19612281D02*
X10093694Y-19631329D01*
X10093694Y-19631329D02*
X10103218Y-19669424D01*
X10103218Y-19669424D02*
X10103218Y-19717043D01*
X10103218Y-19717043D02*
X10093694Y-19755139D01*
X10093694Y-19755139D02*
X10084170Y-19774186D01*
X10084170Y-19774186D02*
X10074646Y-19783710D01*
X10074646Y-19783710D02*
X10055599Y-19793234D01*
X10055599Y-19793234D02*
X10036551Y-19793234D01*
X10036551Y-19793234D02*
X10017503Y-19783710D01*
X10017503Y-19783710D02*
X10007979Y-19774186D01*
X10007979Y-19774186D02*
X9998456Y-19755139D01*
X9998456Y-19755139D02*
X9988932Y-19717043D01*
X9988932Y-19717043D02*
X9988932Y-19669424D01*
X9988932Y-19669424D02*
X9998456Y-19631329D01*
X9998456Y-19631329D02*
X10007979Y-19612281D01*
X10007979Y-19612281D02*
X10017503Y-19602758D01*
X10017503Y-19602758D02*
X10036551Y-19593234D01*
X10227027Y-19593234D02*
X10246075Y-19593234D01*
X10246075Y-19593234D02*
X10265122Y-19602758D01*
X10265122Y-19602758D02*
X10274646Y-19612281D01*
X10274646Y-19612281D02*
X10284170Y-19631329D01*
X10284170Y-19631329D02*
X10293694Y-19669424D01*
X10293694Y-19669424D02*
X10293694Y-19717043D01*
X10293694Y-19717043D02*
X10284170Y-19755139D01*
X10284170Y-19755139D02*
X10274646Y-19774186D01*
X10274646Y-19774186D02*
X10265122Y-19783710D01*
X10265122Y-19783710D02*
X10246075Y-19793234D01*
X10246075Y-19793234D02*
X10227027Y-19793234D01*
X10227027Y-19793234D02*
X10207979Y-19783710D01*
X10207979Y-19783710D02*
X10198456Y-19774186D01*
X10198456Y-19774186D02*
X10188932Y-19755139D01*
X10188932Y-19755139D02*
X10179408Y-19717043D01*
X10179408Y-19717043D02*
X10179408Y-19669424D01*
X10179408Y-19669424D02*
X10188932Y-19631329D01*
X10188932Y-19631329D02*
X10198456Y-19612281D01*
X10198456Y-19612281D02*
X10207979Y-19602758D01*
X10207979Y-19602758D02*
X10227027Y-19593234D01*
X10369884Y-19593234D02*
X10369884Y-19631329D01*
X10446075Y-19593234D02*
X10446075Y-19631329D01*
X10741313Y-19869424D02*
X10731789Y-19859900D01*
X10731789Y-19859900D02*
X10712741Y-19831329D01*
X10712741Y-19831329D02*
X10703218Y-19812281D01*
X10703218Y-19812281D02*
X10693694Y-19783710D01*
X10693694Y-19783710D02*
X10684170Y-19736091D01*
X10684170Y-19736091D02*
X10684170Y-19697996D01*
X10684170Y-19697996D02*
X10693694Y-19650377D01*
X10693694Y-19650377D02*
X10703218Y-19621805D01*
X10703218Y-19621805D02*
X10712741Y-19602758D01*
X10712741Y-19602758D02*
X10731789Y-19574186D01*
X10731789Y-19574186D02*
X10741313Y-19564662D01*
X10922265Y-19793234D02*
X10807980Y-19793234D01*
X10865122Y-19793234D02*
X10865122Y-19593234D01*
X10865122Y-19593234D02*
X10846075Y-19621805D01*
X10846075Y-19621805D02*
X10827027Y-19640853D01*
X10827027Y-19640853D02*
X10807980Y-19650377D01*
X11093694Y-19659900D02*
X11093694Y-19793234D01*
X11046075Y-19583710D02*
X10998456Y-19726567D01*
X10998456Y-19726567D02*
X11122265Y-19726567D01*
X11350837Y-19793234D02*
X11350837Y-19593234D01*
X11436551Y-19793234D02*
X11436551Y-19688472D01*
X11436551Y-19688472D02*
X11427027Y-19669424D01*
X11427027Y-19669424D02*
X11407980Y-19659900D01*
X11407980Y-19659900D02*
X11379408Y-19659900D01*
X11379408Y-19659900D02*
X11360360Y-19669424D01*
X11360360Y-19669424D02*
X11350837Y-19678948D01*
X11560360Y-19793234D02*
X11541313Y-19783710D01*
X11541313Y-19783710D02*
X11531789Y-19774186D01*
X11531789Y-19774186D02*
X11522265Y-19755139D01*
X11522265Y-19755139D02*
X11522265Y-19697996D01*
X11522265Y-19697996D02*
X11531789Y-19678948D01*
X11531789Y-19678948D02*
X11541313Y-19669424D01*
X11541313Y-19669424D02*
X11560360Y-19659900D01*
X11560360Y-19659900D02*
X11588932Y-19659900D01*
X11588932Y-19659900D02*
X11607980Y-19669424D01*
X11607980Y-19669424D02*
X11617503Y-19678948D01*
X11617503Y-19678948D02*
X11627027Y-19697996D01*
X11627027Y-19697996D02*
X11627027Y-19755139D01*
X11627027Y-19755139D02*
X11617503Y-19774186D01*
X11617503Y-19774186D02*
X11607980Y-19783710D01*
X11607980Y-19783710D02*
X11588932Y-19793234D01*
X11588932Y-19793234D02*
X11560360Y-19793234D01*
X11741313Y-19793234D02*
X11722265Y-19783710D01*
X11722265Y-19783710D02*
X11712741Y-19764662D01*
X11712741Y-19764662D02*
X11712741Y-19593234D01*
X11893694Y-19783710D02*
X11874646Y-19793234D01*
X11874646Y-19793234D02*
X11836551Y-19793234D01*
X11836551Y-19793234D02*
X11817503Y-19783710D01*
X11817503Y-19783710D02*
X11807980Y-19764662D01*
X11807980Y-19764662D02*
X11807980Y-19688472D01*
X11807980Y-19688472D02*
X11817503Y-19669424D01*
X11817503Y-19669424D02*
X11836551Y-19659900D01*
X11836551Y-19659900D02*
X11874646Y-19659900D01*
X11874646Y-19659900D02*
X11893694Y-19669424D01*
X11893694Y-19669424D02*
X11903218Y-19688472D01*
X11903218Y-19688472D02*
X11903218Y-19707520D01*
X11903218Y-19707520D02*
X11807980Y-19726567D01*
X11979408Y-19783710D02*
X11998456Y-19793234D01*
X11998456Y-19793234D02*
X12036551Y-19793234D01*
X12036551Y-19793234D02*
X12055599Y-19783710D01*
X12055599Y-19783710D02*
X12065122Y-19764662D01*
X12065122Y-19764662D02*
X12065122Y-19755139D01*
X12065122Y-19755139D02*
X12055599Y-19736091D01*
X12055599Y-19736091D02*
X12036551Y-19726567D01*
X12036551Y-19726567D02*
X12007980Y-19726567D01*
X12007980Y-19726567D02*
X11988932Y-19717043D01*
X11988932Y-19717043D02*
X11979408Y-19697996D01*
X11979408Y-19697996D02*
X11979408Y-19688472D01*
X11979408Y-19688472D02*
X11988932Y-19669424D01*
X11988932Y-19669424D02*
X12007980Y-19659900D01*
X12007980Y-19659900D02*
X12036551Y-19659900D01*
X12036551Y-19659900D02*
X12055599Y-19669424D01*
X12131789Y-19869424D02*
X12141313Y-19859900D01*
X12141313Y-19859900D02*
X12160361Y-19831329D01*
X12160361Y-19831329D02*
X12169884Y-19812281D01*
X12169884Y-19812281D02*
X12179408Y-19783710D01*
X12179408Y-19783710D02*
X12188932Y-19736091D01*
X12188932Y-19736091D02*
X12188932Y-19697996D01*
X12188932Y-19697996D02*
X12179408Y-19650377D01*
X12179408Y-19650377D02*
X12169884Y-19621805D01*
X12169884Y-19621805D02*
X12160361Y-19602758D01*
X12160361Y-19602758D02*
X12141313Y-19574186D01*
X12141313Y-19574186D02*
X12131789Y-19564662D01*
X12493694Y-19869424D02*
X12484170Y-19859900D01*
X12484170Y-19859900D02*
X12465122Y-19831329D01*
X12465122Y-19831329D02*
X12455599Y-19812281D01*
X12455599Y-19812281D02*
X12446075Y-19783710D01*
X12446075Y-19783710D02*
X12436551Y-19736091D01*
X12436551Y-19736091D02*
X12436551Y-19697996D01*
X12436551Y-19697996D02*
X12446075Y-19650377D01*
X12446075Y-19650377D02*
X12455599Y-19621805D01*
X12455599Y-19621805D02*
X12465122Y-19602758D01*
X12465122Y-19602758D02*
X12484170Y-19574186D01*
X12484170Y-19574186D02*
X12493694Y-19564662D01*
X12569884Y-19659900D02*
X12569884Y-19793234D01*
X12569884Y-19678948D02*
X12579408Y-19669424D01*
X12579408Y-19669424D02*
X12598456Y-19659900D01*
X12598456Y-19659900D02*
X12627027Y-19659900D01*
X12627027Y-19659900D02*
X12646075Y-19669424D01*
X12646075Y-19669424D02*
X12655599Y-19688472D01*
X12655599Y-19688472D02*
X12655599Y-19793234D01*
X12779408Y-19793234D02*
X12760361Y-19783710D01*
X12760361Y-19783710D02*
X12750837Y-19774186D01*
X12750837Y-19774186D02*
X12741313Y-19755139D01*
X12741313Y-19755139D02*
X12741313Y-19697996D01*
X12741313Y-19697996D02*
X12750837Y-19678948D01*
X12750837Y-19678948D02*
X12760361Y-19669424D01*
X12760361Y-19669424D02*
X12779408Y-19659900D01*
X12779408Y-19659900D02*
X12807980Y-19659900D01*
X12807980Y-19659900D02*
X12827027Y-19669424D01*
X12827027Y-19669424D02*
X12836551Y-19678948D01*
X12836551Y-19678948D02*
X12846075Y-19697996D01*
X12846075Y-19697996D02*
X12846075Y-19755139D01*
X12846075Y-19755139D02*
X12836551Y-19774186D01*
X12836551Y-19774186D02*
X12827027Y-19783710D01*
X12827027Y-19783710D02*
X12807980Y-19793234D01*
X12807980Y-19793234D02*
X12779408Y-19793234D01*
X12903218Y-19659900D02*
X12979408Y-19659900D01*
X12931789Y-19593234D02*
X12931789Y-19764662D01*
X12931789Y-19764662D02*
X12941313Y-19783710D01*
X12941313Y-19783710D02*
X12960361Y-19793234D01*
X12960361Y-19793234D02*
X12979408Y-19793234D01*
X13198456Y-19659900D02*
X13198456Y-19859900D01*
X13198456Y-19669424D02*
X13217503Y-19659900D01*
X13217503Y-19659900D02*
X13255599Y-19659900D01*
X13255599Y-19659900D02*
X13274646Y-19669424D01*
X13274646Y-19669424D02*
X13284170Y-19678948D01*
X13284170Y-19678948D02*
X13293694Y-19697996D01*
X13293694Y-19697996D02*
X13293694Y-19755139D01*
X13293694Y-19755139D02*
X13284170Y-19774186D01*
X13284170Y-19774186D02*
X13274646Y-19783710D01*
X13274646Y-19783710D02*
X13255599Y-19793234D01*
X13255599Y-19793234D02*
X13217503Y-19793234D01*
X13217503Y-19793234D02*
X13198456Y-19783710D01*
X13407980Y-19793234D02*
X13388932Y-19783710D01*
X13388932Y-19783710D02*
X13379408Y-19764662D01*
X13379408Y-19764662D02*
X13379408Y-19593234D01*
X13569884Y-19793234D02*
X13569884Y-19688472D01*
X13569884Y-19688472D02*
X13560361Y-19669424D01*
X13560361Y-19669424D02*
X13541313Y-19659900D01*
X13541313Y-19659900D02*
X13503218Y-19659900D01*
X13503218Y-19659900D02*
X13484170Y-19669424D01*
X13569884Y-19783710D02*
X13550837Y-19793234D01*
X13550837Y-19793234D02*
X13503218Y-19793234D01*
X13503218Y-19793234D02*
X13484170Y-19783710D01*
X13484170Y-19783710D02*
X13474646Y-19764662D01*
X13474646Y-19764662D02*
X13474646Y-19745615D01*
X13474646Y-19745615D02*
X13484170Y-19726567D01*
X13484170Y-19726567D02*
X13503218Y-19717043D01*
X13503218Y-19717043D02*
X13550837Y-19717043D01*
X13550837Y-19717043D02*
X13569884Y-19707520D01*
X13636551Y-19659900D02*
X13712742Y-19659900D01*
X13665123Y-19593234D02*
X13665123Y-19764662D01*
X13665123Y-19764662D02*
X13674646Y-19783710D01*
X13674646Y-19783710D02*
X13693694Y-19793234D01*
X13693694Y-19793234D02*
X13712742Y-19793234D01*
X13855599Y-19783710D02*
X13836551Y-19793234D01*
X13836551Y-19793234D02*
X13798456Y-19793234D01*
X13798456Y-19793234D02*
X13779408Y-19783710D01*
X13779408Y-19783710D02*
X13769884Y-19764662D01*
X13769884Y-19764662D02*
X13769884Y-19688472D01*
X13769884Y-19688472D02*
X13779408Y-19669424D01*
X13779408Y-19669424D02*
X13798456Y-19659900D01*
X13798456Y-19659900D02*
X13836551Y-19659900D01*
X13836551Y-19659900D02*
X13855599Y-19669424D01*
X13855599Y-19669424D02*
X13865123Y-19688472D01*
X13865123Y-19688472D02*
X13865123Y-19707520D01*
X13865123Y-19707520D02*
X13769884Y-19726567D01*
X14036551Y-19793234D02*
X14036551Y-19593234D01*
X14036551Y-19783710D02*
X14017504Y-19793234D01*
X14017504Y-19793234D02*
X13979408Y-19793234D01*
X13979408Y-19793234D02*
X13960361Y-19783710D01*
X13960361Y-19783710D02*
X13950837Y-19774186D01*
X13950837Y-19774186D02*
X13941313Y-19755139D01*
X13941313Y-19755139D02*
X13941313Y-19697996D01*
X13941313Y-19697996D02*
X13950837Y-19678948D01*
X13950837Y-19678948D02*
X13960361Y-19669424D01*
X13960361Y-19669424D02*
X13979408Y-19659900D01*
X13979408Y-19659900D02*
X14017504Y-19659900D01*
X14017504Y-19659900D02*
X14036551Y-19669424D01*
X14112742Y-19869424D02*
X14122265Y-19859900D01*
X14122265Y-19859900D02*
X14141313Y-19831329D01*
X14141313Y-19831329D02*
X14150837Y-19812281D01*
X14150837Y-19812281D02*
X14160361Y-19783710D01*
X14160361Y-19783710D02*
X14169884Y-19736091D01*
X14169884Y-19736091D02*
X14169884Y-19697996D01*
X14169884Y-19697996D02*
X14160361Y-19650377D01*
X14160361Y-19650377D02*
X14150837Y-19621805D01*
X14150837Y-19621805D02*
X14141313Y-19602758D01*
X14141313Y-19602758D02*
X14122265Y-19574186D01*
X14122265Y-19574186D02*
X14112742Y-19564662D01*
X7066250Y-20121750D02*
X7166250Y-20021750D01*
X7066250Y-19921750D01*
X6966250Y-20021750D01*
X7066250Y-20121750D01*
X7407979Y-19913234D02*
X7531789Y-19913234D01*
X7531789Y-19913234D02*
X7465122Y-19989424D01*
X7465122Y-19989424D02*
X7493693Y-19989424D01*
X7493693Y-19989424D02*
X7512741Y-19998948D01*
X7512741Y-19998948D02*
X7522265Y-20008472D01*
X7522265Y-20008472D02*
X7531789Y-20027520D01*
X7531789Y-20027520D02*
X7531789Y-20075139D01*
X7531789Y-20075139D02*
X7522265Y-20094186D01*
X7522265Y-20094186D02*
X7512741Y-20103710D01*
X7512741Y-20103710D02*
X7493693Y-20113234D01*
X7493693Y-20113234D02*
X7436551Y-20113234D01*
X7436551Y-20113234D02*
X7417503Y-20103710D01*
X7417503Y-20103710D02*
X7407979Y-20094186D01*
X7617503Y-20094186D02*
X7627027Y-20103710D01*
X7627027Y-20103710D02*
X7617503Y-20113234D01*
X7617503Y-20113234D02*
X7607979Y-20103710D01*
X7607979Y-20103710D02*
X7617503Y-20094186D01*
X7617503Y-20094186D02*
X7617503Y-20113234D01*
X7722265Y-20113234D02*
X7760360Y-20113234D01*
X7760360Y-20113234D02*
X7779408Y-20103710D01*
X7779408Y-20103710D02*
X7788932Y-20094186D01*
X7788932Y-20094186D02*
X7807979Y-20065615D01*
X7807979Y-20065615D02*
X7817503Y-20027520D01*
X7817503Y-20027520D02*
X7817503Y-19951329D01*
X7817503Y-19951329D02*
X7807979Y-19932281D01*
X7807979Y-19932281D02*
X7798455Y-19922758D01*
X7798455Y-19922758D02*
X7779408Y-19913234D01*
X7779408Y-19913234D02*
X7741312Y-19913234D01*
X7741312Y-19913234D02*
X7722265Y-19922758D01*
X7722265Y-19922758D02*
X7712741Y-19932281D01*
X7712741Y-19932281D02*
X7703217Y-19951329D01*
X7703217Y-19951329D02*
X7703217Y-19998948D01*
X7703217Y-19998948D02*
X7712741Y-20017996D01*
X7712741Y-20017996D02*
X7722265Y-20027520D01*
X7722265Y-20027520D02*
X7741312Y-20037043D01*
X7741312Y-20037043D02*
X7779408Y-20037043D01*
X7779408Y-20037043D02*
X7798455Y-20027520D01*
X7798455Y-20027520D02*
X7807979Y-20017996D01*
X7807979Y-20017996D02*
X7817503Y-19998948D01*
X7931789Y-19998948D02*
X7912741Y-19989424D01*
X7912741Y-19989424D02*
X7903217Y-19979900D01*
X7903217Y-19979900D02*
X7893693Y-19960853D01*
X7893693Y-19960853D02*
X7893693Y-19951329D01*
X7893693Y-19951329D02*
X7903217Y-19932281D01*
X7903217Y-19932281D02*
X7912741Y-19922758D01*
X7912741Y-19922758D02*
X7931789Y-19913234D01*
X7931789Y-19913234D02*
X7969884Y-19913234D01*
X7969884Y-19913234D02*
X7988932Y-19922758D01*
X7988932Y-19922758D02*
X7998455Y-19932281D01*
X7998455Y-19932281D02*
X8007979Y-19951329D01*
X8007979Y-19951329D02*
X8007979Y-19960853D01*
X8007979Y-19960853D02*
X7998455Y-19979900D01*
X7998455Y-19979900D02*
X7988932Y-19989424D01*
X7988932Y-19989424D02*
X7969884Y-19998948D01*
X7969884Y-19998948D02*
X7931789Y-19998948D01*
X7931789Y-19998948D02*
X7912741Y-20008472D01*
X7912741Y-20008472D02*
X7903217Y-20017996D01*
X7903217Y-20017996D02*
X7893693Y-20037043D01*
X7893693Y-20037043D02*
X7893693Y-20075139D01*
X7893693Y-20075139D02*
X7903217Y-20094186D01*
X7903217Y-20094186D02*
X7912741Y-20103710D01*
X7912741Y-20103710D02*
X7931789Y-20113234D01*
X7931789Y-20113234D02*
X7969884Y-20113234D01*
X7969884Y-20113234D02*
X7988932Y-20103710D01*
X7988932Y-20103710D02*
X7998455Y-20094186D01*
X7998455Y-20094186D02*
X8007979Y-20075139D01*
X8007979Y-20075139D02*
X8007979Y-20037043D01*
X8007979Y-20037043D02*
X7998455Y-20017996D01*
X7998455Y-20017996D02*
X7988932Y-20008472D01*
X7988932Y-20008472D02*
X7969884Y-19998948D01*
X8122265Y-19998948D02*
X8103217Y-19989424D01*
X8103217Y-19989424D02*
X8093693Y-19979900D01*
X8093693Y-19979900D02*
X8084170Y-19960853D01*
X8084170Y-19960853D02*
X8084170Y-19951329D01*
X8084170Y-19951329D02*
X8093693Y-19932281D01*
X8093693Y-19932281D02*
X8103217Y-19922758D01*
X8103217Y-19922758D02*
X8122265Y-19913234D01*
X8122265Y-19913234D02*
X8160360Y-19913234D01*
X8160360Y-19913234D02*
X8179408Y-19922758D01*
X8179408Y-19922758D02*
X8188932Y-19932281D01*
X8188932Y-19932281D02*
X8198455Y-19951329D01*
X8198455Y-19951329D02*
X8198455Y-19960853D01*
X8198455Y-19960853D02*
X8188932Y-19979900D01*
X8188932Y-19979900D02*
X8179408Y-19989424D01*
X8179408Y-19989424D02*
X8160360Y-19998948D01*
X8160360Y-19998948D02*
X8122265Y-19998948D01*
X8122265Y-19998948D02*
X8103217Y-20008472D01*
X8103217Y-20008472D02*
X8093693Y-20017996D01*
X8093693Y-20017996D02*
X8084170Y-20037043D01*
X8084170Y-20037043D02*
X8084170Y-20075139D01*
X8084170Y-20075139D02*
X8093693Y-20094186D01*
X8093693Y-20094186D02*
X8103217Y-20103710D01*
X8103217Y-20103710D02*
X8122265Y-20113234D01*
X8122265Y-20113234D02*
X8160360Y-20113234D01*
X8160360Y-20113234D02*
X8179408Y-20103710D01*
X8179408Y-20103710D02*
X8188932Y-20094186D01*
X8188932Y-20094186D02*
X8198455Y-20075139D01*
X8198455Y-20075139D02*
X8198455Y-20037043D01*
X8198455Y-20037043D02*
X8188932Y-20017996D01*
X8188932Y-20017996D02*
X8179408Y-20008472D01*
X8179408Y-20008472D02*
X8160360Y-19998948D01*
X8284170Y-20113234D02*
X8284170Y-19979900D01*
X8284170Y-19998948D02*
X8293693Y-19989424D01*
X8293693Y-19989424D02*
X8312741Y-19979900D01*
X8312741Y-19979900D02*
X8341313Y-19979900D01*
X8341313Y-19979900D02*
X8360360Y-19989424D01*
X8360360Y-19989424D02*
X8369884Y-20008472D01*
X8369884Y-20008472D02*
X8369884Y-20113234D01*
X8369884Y-20008472D02*
X8379408Y-19989424D01*
X8379408Y-19989424D02*
X8398455Y-19979900D01*
X8398455Y-19979900D02*
X8427027Y-19979900D01*
X8427027Y-19979900D02*
X8446075Y-19989424D01*
X8446075Y-19989424D02*
X8455598Y-20008472D01*
X8455598Y-20008472D02*
X8455598Y-20113234D01*
X8550836Y-20113234D02*
X8550836Y-19979900D01*
X8550836Y-19998948D02*
X8560360Y-19989424D01*
X8560360Y-19989424D02*
X8579408Y-19979900D01*
X8579408Y-19979900D02*
X8607979Y-19979900D01*
X8607979Y-19979900D02*
X8627027Y-19989424D01*
X8627027Y-19989424D02*
X8636551Y-20008472D01*
X8636551Y-20008472D02*
X8636551Y-20113234D01*
X8636551Y-20008472D02*
X8646075Y-19989424D01*
X8646075Y-19989424D02*
X8665122Y-19979900D01*
X8665122Y-19979900D02*
X8693694Y-19979900D01*
X8693694Y-19979900D02*
X8712741Y-19989424D01*
X8712741Y-19989424D02*
X8722265Y-20008472D01*
X8722265Y-20008472D02*
X8722265Y-20113234D01*
X9112741Y-19903710D02*
X8941313Y-20160853D01*
X9369884Y-19913234D02*
X9388932Y-19913234D01*
X9388932Y-19913234D02*
X9407979Y-19922758D01*
X9407979Y-19922758D02*
X9417503Y-19932281D01*
X9417503Y-19932281D02*
X9427027Y-19951329D01*
X9427027Y-19951329D02*
X9436551Y-19989424D01*
X9436551Y-19989424D02*
X9436551Y-20037043D01*
X9436551Y-20037043D02*
X9427027Y-20075139D01*
X9427027Y-20075139D02*
X9417503Y-20094186D01*
X9417503Y-20094186D02*
X9407979Y-20103710D01*
X9407979Y-20103710D02*
X9388932Y-20113234D01*
X9388932Y-20113234D02*
X9369884Y-20113234D01*
X9369884Y-20113234D02*
X9350837Y-20103710D01*
X9350837Y-20103710D02*
X9341313Y-20094186D01*
X9341313Y-20094186D02*
X9331789Y-20075139D01*
X9331789Y-20075139D02*
X9322265Y-20037043D01*
X9322265Y-20037043D02*
X9322265Y-19989424D01*
X9322265Y-19989424D02*
X9331789Y-19951329D01*
X9331789Y-19951329D02*
X9341313Y-19932281D01*
X9341313Y-19932281D02*
X9350837Y-19922758D01*
X9350837Y-19922758D02*
X9369884Y-19913234D01*
X9522265Y-20094186D02*
X9531789Y-20103710D01*
X9531789Y-20103710D02*
X9522265Y-20113234D01*
X9522265Y-20113234D02*
X9512741Y-20103710D01*
X9512741Y-20103710D02*
X9522265Y-20094186D01*
X9522265Y-20094186D02*
X9522265Y-20113234D01*
X9722265Y-20113234D02*
X9607979Y-20113234D01*
X9665122Y-20113234D02*
X9665122Y-19913234D01*
X9665122Y-19913234D02*
X9646075Y-19941805D01*
X9646075Y-19941805D02*
X9627027Y-19960853D01*
X9627027Y-19960853D02*
X9607979Y-19970377D01*
X9903218Y-19913234D02*
X9807979Y-19913234D01*
X9807979Y-19913234D02*
X9798456Y-20008472D01*
X9798456Y-20008472D02*
X9807979Y-19998948D01*
X9807979Y-19998948D02*
X9827027Y-19989424D01*
X9827027Y-19989424D02*
X9874646Y-19989424D01*
X9874646Y-19989424D02*
X9893694Y-19998948D01*
X9893694Y-19998948D02*
X9903218Y-20008472D01*
X9903218Y-20008472D02*
X9912741Y-20027520D01*
X9912741Y-20027520D02*
X9912741Y-20075139D01*
X9912741Y-20075139D02*
X9903218Y-20094186D01*
X9903218Y-20094186D02*
X9893694Y-20103710D01*
X9893694Y-20103710D02*
X9874646Y-20113234D01*
X9874646Y-20113234D02*
X9827027Y-20113234D01*
X9827027Y-20113234D02*
X9807979Y-20103710D01*
X9807979Y-20103710D02*
X9798456Y-20094186D01*
X9979408Y-19913234D02*
X10112741Y-19913234D01*
X10112741Y-19913234D02*
X10027027Y-20113234D01*
X10227027Y-19913234D02*
X10246075Y-19913234D01*
X10246075Y-19913234D02*
X10265122Y-19922758D01*
X10265122Y-19922758D02*
X10274646Y-19932281D01*
X10274646Y-19932281D02*
X10284170Y-19951329D01*
X10284170Y-19951329D02*
X10293694Y-19989424D01*
X10293694Y-19989424D02*
X10293694Y-20037043D01*
X10293694Y-20037043D02*
X10284170Y-20075139D01*
X10284170Y-20075139D02*
X10274646Y-20094186D01*
X10274646Y-20094186D02*
X10265122Y-20103710D01*
X10265122Y-20103710D02*
X10246075Y-20113234D01*
X10246075Y-20113234D02*
X10227027Y-20113234D01*
X10227027Y-20113234D02*
X10207979Y-20103710D01*
X10207979Y-20103710D02*
X10198456Y-20094186D01*
X10198456Y-20094186D02*
X10188932Y-20075139D01*
X10188932Y-20075139D02*
X10179408Y-20037043D01*
X10179408Y-20037043D02*
X10179408Y-19989424D01*
X10179408Y-19989424D02*
X10188932Y-19951329D01*
X10188932Y-19951329D02*
X10198456Y-19932281D01*
X10198456Y-19932281D02*
X10207979Y-19922758D01*
X10207979Y-19922758D02*
X10227027Y-19913234D01*
X10369884Y-19913234D02*
X10369884Y-19951329D01*
X10446075Y-19913234D02*
X10446075Y-19951329D01*
X10741313Y-20189424D02*
X10731789Y-20179900D01*
X10731789Y-20179900D02*
X10712741Y-20151329D01*
X10712741Y-20151329D02*
X10703218Y-20132281D01*
X10703218Y-20132281D02*
X10693694Y-20103710D01*
X10693694Y-20103710D02*
X10684170Y-20056091D01*
X10684170Y-20056091D02*
X10684170Y-20017996D01*
X10684170Y-20017996D02*
X10693694Y-19970377D01*
X10693694Y-19970377D02*
X10703218Y-19941805D01*
X10703218Y-19941805D02*
X10712741Y-19922758D01*
X10712741Y-19922758D02*
X10731789Y-19894186D01*
X10731789Y-19894186D02*
X10741313Y-19884662D01*
X10922265Y-20113234D02*
X10807980Y-20113234D01*
X10865122Y-20113234D02*
X10865122Y-19913234D01*
X10865122Y-19913234D02*
X10846075Y-19941805D01*
X10846075Y-19941805D02*
X10827027Y-19960853D01*
X10827027Y-19960853D02*
X10807980Y-19970377D01*
X11093694Y-19979900D02*
X11093694Y-20113234D01*
X11046075Y-19903710D02*
X10998456Y-20046567D01*
X10998456Y-20046567D02*
X11122265Y-20046567D01*
X11350837Y-20113234D02*
X11350837Y-19913234D01*
X11436551Y-20113234D02*
X11436551Y-20008472D01*
X11436551Y-20008472D02*
X11427027Y-19989424D01*
X11427027Y-19989424D02*
X11407980Y-19979900D01*
X11407980Y-19979900D02*
X11379408Y-19979900D01*
X11379408Y-19979900D02*
X11360360Y-19989424D01*
X11360360Y-19989424D02*
X11350837Y-19998948D01*
X11560360Y-20113234D02*
X11541313Y-20103710D01*
X11541313Y-20103710D02*
X11531789Y-20094186D01*
X11531789Y-20094186D02*
X11522265Y-20075139D01*
X11522265Y-20075139D02*
X11522265Y-20017996D01*
X11522265Y-20017996D02*
X11531789Y-19998948D01*
X11531789Y-19998948D02*
X11541313Y-19989424D01*
X11541313Y-19989424D02*
X11560360Y-19979900D01*
X11560360Y-19979900D02*
X11588932Y-19979900D01*
X11588932Y-19979900D02*
X11607980Y-19989424D01*
X11607980Y-19989424D02*
X11617503Y-19998948D01*
X11617503Y-19998948D02*
X11627027Y-20017996D01*
X11627027Y-20017996D02*
X11627027Y-20075139D01*
X11627027Y-20075139D02*
X11617503Y-20094186D01*
X11617503Y-20094186D02*
X11607980Y-20103710D01*
X11607980Y-20103710D02*
X11588932Y-20113234D01*
X11588932Y-20113234D02*
X11560360Y-20113234D01*
X11741313Y-20113234D02*
X11722265Y-20103710D01*
X11722265Y-20103710D02*
X11712741Y-20084662D01*
X11712741Y-20084662D02*
X11712741Y-19913234D01*
X11893694Y-20103710D02*
X11874646Y-20113234D01*
X11874646Y-20113234D02*
X11836551Y-20113234D01*
X11836551Y-20113234D02*
X11817503Y-20103710D01*
X11817503Y-20103710D02*
X11807980Y-20084662D01*
X11807980Y-20084662D02*
X11807980Y-20008472D01*
X11807980Y-20008472D02*
X11817503Y-19989424D01*
X11817503Y-19989424D02*
X11836551Y-19979900D01*
X11836551Y-19979900D02*
X11874646Y-19979900D01*
X11874646Y-19979900D02*
X11893694Y-19989424D01*
X11893694Y-19989424D02*
X11903218Y-20008472D01*
X11903218Y-20008472D02*
X11903218Y-20027520D01*
X11903218Y-20027520D02*
X11807980Y-20046567D01*
X11979408Y-20103710D02*
X11998456Y-20113234D01*
X11998456Y-20113234D02*
X12036551Y-20113234D01*
X12036551Y-20113234D02*
X12055599Y-20103710D01*
X12055599Y-20103710D02*
X12065122Y-20084662D01*
X12065122Y-20084662D02*
X12065122Y-20075139D01*
X12065122Y-20075139D02*
X12055599Y-20056091D01*
X12055599Y-20056091D02*
X12036551Y-20046567D01*
X12036551Y-20046567D02*
X12007980Y-20046567D01*
X12007980Y-20046567D02*
X11988932Y-20037043D01*
X11988932Y-20037043D02*
X11979408Y-20017996D01*
X11979408Y-20017996D02*
X11979408Y-20008472D01*
X11979408Y-20008472D02*
X11988932Y-19989424D01*
X11988932Y-19989424D02*
X12007980Y-19979900D01*
X12007980Y-19979900D02*
X12036551Y-19979900D01*
X12036551Y-19979900D02*
X12055599Y-19989424D01*
X12131789Y-20189424D02*
X12141313Y-20179900D01*
X12141313Y-20179900D02*
X12160361Y-20151329D01*
X12160361Y-20151329D02*
X12169884Y-20132281D01*
X12169884Y-20132281D02*
X12179408Y-20103710D01*
X12179408Y-20103710D02*
X12188932Y-20056091D01*
X12188932Y-20056091D02*
X12188932Y-20017996D01*
X12188932Y-20017996D02*
X12179408Y-19970377D01*
X12179408Y-19970377D02*
X12169884Y-19941805D01*
X12169884Y-19941805D02*
X12160361Y-19922758D01*
X12160361Y-19922758D02*
X12141313Y-19894186D01*
X12141313Y-19894186D02*
X12131789Y-19884662D01*
X12493694Y-20189424D02*
X12484170Y-20179900D01*
X12484170Y-20179900D02*
X12465122Y-20151329D01*
X12465122Y-20151329D02*
X12455599Y-20132281D01*
X12455599Y-20132281D02*
X12446075Y-20103710D01*
X12446075Y-20103710D02*
X12436551Y-20056091D01*
X12436551Y-20056091D02*
X12436551Y-20017996D01*
X12436551Y-20017996D02*
X12446075Y-19970377D01*
X12446075Y-19970377D02*
X12455599Y-19941805D01*
X12455599Y-19941805D02*
X12465122Y-19922758D01*
X12465122Y-19922758D02*
X12484170Y-19894186D01*
X12484170Y-19894186D02*
X12493694Y-19884662D01*
X12569884Y-19979900D02*
X12569884Y-20113234D01*
X12569884Y-19998948D02*
X12579408Y-19989424D01*
X12579408Y-19989424D02*
X12598456Y-19979900D01*
X12598456Y-19979900D02*
X12627027Y-19979900D01*
X12627027Y-19979900D02*
X12646075Y-19989424D01*
X12646075Y-19989424D02*
X12655599Y-20008472D01*
X12655599Y-20008472D02*
X12655599Y-20113234D01*
X12779408Y-20113234D02*
X12760361Y-20103710D01*
X12760361Y-20103710D02*
X12750837Y-20094186D01*
X12750837Y-20094186D02*
X12741313Y-20075139D01*
X12741313Y-20075139D02*
X12741313Y-20017996D01*
X12741313Y-20017996D02*
X12750837Y-19998948D01*
X12750837Y-19998948D02*
X12760361Y-19989424D01*
X12760361Y-19989424D02*
X12779408Y-19979900D01*
X12779408Y-19979900D02*
X12807980Y-19979900D01*
X12807980Y-19979900D02*
X12827027Y-19989424D01*
X12827027Y-19989424D02*
X12836551Y-19998948D01*
X12836551Y-19998948D02*
X12846075Y-20017996D01*
X12846075Y-20017996D02*
X12846075Y-20075139D01*
X12846075Y-20075139D02*
X12836551Y-20094186D01*
X12836551Y-20094186D02*
X12827027Y-20103710D01*
X12827027Y-20103710D02*
X12807980Y-20113234D01*
X12807980Y-20113234D02*
X12779408Y-20113234D01*
X12903218Y-19979900D02*
X12979408Y-19979900D01*
X12931789Y-19913234D02*
X12931789Y-20084662D01*
X12931789Y-20084662D02*
X12941313Y-20103710D01*
X12941313Y-20103710D02*
X12960361Y-20113234D01*
X12960361Y-20113234D02*
X12979408Y-20113234D01*
X13198456Y-19979900D02*
X13198456Y-20179900D01*
X13198456Y-19989424D02*
X13217503Y-19979900D01*
X13217503Y-19979900D02*
X13255599Y-19979900D01*
X13255599Y-19979900D02*
X13274646Y-19989424D01*
X13274646Y-19989424D02*
X13284170Y-19998948D01*
X13284170Y-19998948D02*
X13293694Y-20017996D01*
X13293694Y-20017996D02*
X13293694Y-20075139D01*
X13293694Y-20075139D02*
X13284170Y-20094186D01*
X13284170Y-20094186D02*
X13274646Y-20103710D01*
X13274646Y-20103710D02*
X13255599Y-20113234D01*
X13255599Y-20113234D02*
X13217503Y-20113234D01*
X13217503Y-20113234D02*
X13198456Y-20103710D01*
X13407980Y-20113234D02*
X13388932Y-20103710D01*
X13388932Y-20103710D02*
X13379408Y-20084662D01*
X13379408Y-20084662D02*
X13379408Y-19913234D01*
X13569884Y-20113234D02*
X13569884Y-20008472D01*
X13569884Y-20008472D02*
X13560361Y-19989424D01*
X13560361Y-19989424D02*
X13541313Y-19979900D01*
X13541313Y-19979900D02*
X13503218Y-19979900D01*
X13503218Y-19979900D02*
X13484170Y-19989424D01*
X13569884Y-20103710D02*
X13550837Y-20113234D01*
X13550837Y-20113234D02*
X13503218Y-20113234D01*
X13503218Y-20113234D02*
X13484170Y-20103710D01*
X13484170Y-20103710D02*
X13474646Y-20084662D01*
X13474646Y-20084662D02*
X13474646Y-20065615D01*
X13474646Y-20065615D02*
X13484170Y-20046567D01*
X13484170Y-20046567D02*
X13503218Y-20037043D01*
X13503218Y-20037043D02*
X13550837Y-20037043D01*
X13550837Y-20037043D02*
X13569884Y-20027520D01*
X13636551Y-19979900D02*
X13712742Y-19979900D01*
X13665123Y-19913234D02*
X13665123Y-20084662D01*
X13665123Y-20084662D02*
X13674646Y-20103710D01*
X13674646Y-20103710D02*
X13693694Y-20113234D01*
X13693694Y-20113234D02*
X13712742Y-20113234D01*
X13855599Y-20103710D02*
X13836551Y-20113234D01*
X13836551Y-20113234D02*
X13798456Y-20113234D01*
X13798456Y-20113234D02*
X13779408Y-20103710D01*
X13779408Y-20103710D02*
X13769884Y-20084662D01*
X13769884Y-20084662D02*
X13769884Y-20008472D01*
X13769884Y-20008472D02*
X13779408Y-19989424D01*
X13779408Y-19989424D02*
X13798456Y-19979900D01*
X13798456Y-19979900D02*
X13836551Y-19979900D01*
X13836551Y-19979900D02*
X13855599Y-19989424D01*
X13855599Y-19989424D02*
X13865123Y-20008472D01*
X13865123Y-20008472D02*
X13865123Y-20027520D01*
X13865123Y-20027520D02*
X13769884Y-20046567D01*
X14036551Y-20113234D02*
X14036551Y-19913234D01*
X14036551Y-20103710D02*
X14017504Y-20113234D01*
X14017504Y-20113234D02*
X13979408Y-20113234D01*
X13979408Y-20113234D02*
X13960361Y-20103710D01*
X13960361Y-20103710D02*
X13950837Y-20094186D01*
X13950837Y-20094186D02*
X13941313Y-20075139D01*
X13941313Y-20075139D02*
X13941313Y-20017996D01*
X13941313Y-20017996D02*
X13950837Y-19998948D01*
X13950837Y-19998948D02*
X13960361Y-19989424D01*
X13960361Y-19989424D02*
X13979408Y-19979900D01*
X13979408Y-19979900D02*
X14017504Y-19979900D01*
X14017504Y-19979900D02*
X14036551Y-19989424D01*
X14112742Y-20189424D02*
X14122265Y-20179900D01*
X14122265Y-20179900D02*
X14141313Y-20151329D01*
X14141313Y-20151329D02*
X14150837Y-20132281D01*
X14150837Y-20132281D02*
X14160361Y-20103710D01*
X14160361Y-20103710D02*
X14169884Y-20056091D01*
X14169884Y-20056091D02*
X14169884Y-20017996D01*
X14169884Y-20017996D02*
X14160361Y-19970377D01*
X14160361Y-19970377D02*
X14150837Y-19941805D01*
X14150837Y-19941805D02*
X14141313Y-19922758D01*
X14141313Y-19922758D02*
X14122265Y-19894186D01*
X14122265Y-19894186D02*
X14112742Y-19884662D01*
X6966250Y-20241750D02*
X7166250Y-20441750D01*
X7166250Y-20241750D02*
X6966250Y-20441750D01*
X7166250Y-20341750D02*
G75*
G03*
X7166250Y-20341750I-100000J0D01*
G01*
X7512741Y-20299900D02*
X7512741Y-20433234D01*
X7465122Y-20223710D02*
X7417503Y-20366567D01*
X7417503Y-20366567D02*
X7541312Y-20366567D01*
X7617503Y-20414186D02*
X7627027Y-20423710D01*
X7627027Y-20423710D02*
X7617503Y-20433234D01*
X7617503Y-20433234D02*
X7607979Y-20423710D01*
X7607979Y-20423710D02*
X7617503Y-20414186D01*
X7617503Y-20414186D02*
X7617503Y-20433234D01*
X7750836Y-20233234D02*
X7769884Y-20233234D01*
X7769884Y-20233234D02*
X7788932Y-20242758D01*
X7788932Y-20242758D02*
X7798455Y-20252281D01*
X7798455Y-20252281D02*
X7807979Y-20271329D01*
X7807979Y-20271329D02*
X7817503Y-20309424D01*
X7817503Y-20309424D02*
X7817503Y-20357043D01*
X7817503Y-20357043D02*
X7807979Y-20395139D01*
X7807979Y-20395139D02*
X7798455Y-20414186D01*
X7798455Y-20414186D02*
X7788932Y-20423710D01*
X7788932Y-20423710D02*
X7769884Y-20433234D01*
X7769884Y-20433234D02*
X7750836Y-20433234D01*
X7750836Y-20433234D02*
X7731789Y-20423710D01*
X7731789Y-20423710D02*
X7722265Y-20414186D01*
X7722265Y-20414186D02*
X7712741Y-20395139D01*
X7712741Y-20395139D02*
X7703217Y-20357043D01*
X7703217Y-20357043D02*
X7703217Y-20309424D01*
X7703217Y-20309424D02*
X7712741Y-20271329D01*
X7712741Y-20271329D02*
X7722265Y-20252281D01*
X7722265Y-20252281D02*
X7731789Y-20242758D01*
X7731789Y-20242758D02*
X7750836Y-20233234D01*
X7941312Y-20233234D02*
X7960360Y-20233234D01*
X7960360Y-20233234D02*
X7979408Y-20242758D01*
X7979408Y-20242758D02*
X7988932Y-20252281D01*
X7988932Y-20252281D02*
X7998455Y-20271329D01*
X7998455Y-20271329D02*
X8007979Y-20309424D01*
X8007979Y-20309424D02*
X8007979Y-20357043D01*
X8007979Y-20357043D02*
X7998455Y-20395139D01*
X7998455Y-20395139D02*
X7988932Y-20414186D01*
X7988932Y-20414186D02*
X7979408Y-20423710D01*
X7979408Y-20423710D02*
X7960360Y-20433234D01*
X7960360Y-20433234D02*
X7941312Y-20433234D01*
X7941312Y-20433234D02*
X7922265Y-20423710D01*
X7922265Y-20423710D02*
X7912741Y-20414186D01*
X7912741Y-20414186D02*
X7903217Y-20395139D01*
X7903217Y-20395139D02*
X7893693Y-20357043D01*
X7893693Y-20357043D02*
X7893693Y-20309424D01*
X7893693Y-20309424D02*
X7903217Y-20271329D01*
X7903217Y-20271329D02*
X7912741Y-20252281D01*
X7912741Y-20252281D02*
X7922265Y-20242758D01*
X7922265Y-20242758D02*
X7941312Y-20233234D01*
X8131789Y-20233234D02*
X8150836Y-20233234D01*
X8150836Y-20233234D02*
X8169884Y-20242758D01*
X8169884Y-20242758D02*
X8179408Y-20252281D01*
X8179408Y-20252281D02*
X8188932Y-20271329D01*
X8188932Y-20271329D02*
X8198455Y-20309424D01*
X8198455Y-20309424D02*
X8198455Y-20357043D01*
X8198455Y-20357043D02*
X8188932Y-20395139D01*
X8188932Y-20395139D02*
X8179408Y-20414186D01*
X8179408Y-20414186D02*
X8169884Y-20423710D01*
X8169884Y-20423710D02*
X8150836Y-20433234D01*
X8150836Y-20433234D02*
X8131789Y-20433234D01*
X8131789Y-20433234D02*
X8112741Y-20423710D01*
X8112741Y-20423710D02*
X8103217Y-20414186D01*
X8103217Y-20414186D02*
X8093693Y-20395139D01*
X8093693Y-20395139D02*
X8084170Y-20357043D01*
X8084170Y-20357043D02*
X8084170Y-20309424D01*
X8084170Y-20309424D02*
X8093693Y-20271329D01*
X8093693Y-20271329D02*
X8103217Y-20252281D01*
X8103217Y-20252281D02*
X8112741Y-20242758D01*
X8112741Y-20242758D02*
X8131789Y-20233234D01*
X8284170Y-20433234D02*
X8284170Y-20299900D01*
X8284170Y-20318948D02*
X8293693Y-20309424D01*
X8293693Y-20309424D02*
X8312741Y-20299900D01*
X8312741Y-20299900D02*
X8341313Y-20299900D01*
X8341313Y-20299900D02*
X8360360Y-20309424D01*
X8360360Y-20309424D02*
X8369884Y-20328472D01*
X8369884Y-20328472D02*
X8369884Y-20433234D01*
X8369884Y-20328472D02*
X8379408Y-20309424D01*
X8379408Y-20309424D02*
X8398455Y-20299900D01*
X8398455Y-20299900D02*
X8427027Y-20299900D01*
X8427027Y-20299900D02*
X8446075Y-20309424D01*
X8446075Y-20309424D02*
X8455598Y-20328472D01*
X8455598Y-20328472D02*
X8455598Y-20433234D01*
X8550836Y-20433234D02*
X8550836Y-20299900D01*
X8550836Y-20318948D02*
X8560360Y-20309424D01*
X8560360Y-20309424D02*
X8579408Y-20299900D01*
X8579408Y-20299900D02*
X8607979Y-20299900D01*
X8607979Y-20299900D02*
X8627027Y-20309424D01*
X8627027Y-20309424D02*
X8636551Y-20328472D01*
X8636551Y-20328472D02*
X8636551Y-20433234D01*
X8636551Y-20328472D02*
X8646075Y-20309424D01*
X8646075Y-20309424D02*
X8665122Y-20299900D01*
X8665122Y-20299900D02*
X8693694Y-20299900D01*
X8693694Y-20299900D02*
X8712741Y-20309424D01*
X8712741Y-20309424D02*
X8722265Y-20328472D01*
X8722265Y-20328472D02*
X8722265Y-20433234D01*
X9112741Y-20223710D02*
X8941313Y-20480853D01*
X9369884Y-20233234D02*
X9388932Y-20233234D01*
X9388932Y-20233234D02*
X9407979Y-20242758D01*
X9407979Y-20242758D02*
X9417503Y-20252281D01*
X9417503Y-20252281D02*
X9427027Y-20271329D01*
X9427027Y-20271329D02*
X9436551Y-20309424D01*
X9436551Y-20309424D02*
X9436551Y-20357043D01*
X9436551Y-20357043D02*
X9427027Y-20395139D01*
X9427027Y-20395139D02*
X9417503Y-20414186D01*
X9417503Y-20414186D02*
X9407979Y-20423710D01*
X9407979Y-20423710D02*
X9388932Y-20433234D01*
X9388932Y-20433234D02*
X9369884Y-20433234D01*
X9369884Y-20433234D02*
X9350837Y-20423710D01*
X9350837Y-20423710D02*
X9341313Y-20414186D01*
X9341313Y-20414186D02*
X9331789Y-20395139D01*
X9331789Y-20395139D02*
X9322265Y-20357043D01*
X9322265Y-20357043D02*
X9322265Y-20309424D01*
X9322265Y-20309424D02*
X9331789Y-20271329D01*
X9331789Y-20271329D02*
X9341313Y-20252281D01*
X9341313Y-20252281D02*
X9350837Y-20242758D01*
X9350837Y-20242758D02*
X9369884Y-20233234D01*
X9522265Y-20414186D02*
X9531789Y-20423710D01*
X9531789Y-20423710D02*
X9522265Y-20433234D01*
X9522265Y-20433234D02*
X9512741Y-20423710D01*
X9512741Y-20423710D02*
X9522265Y-20414186D01*
X9522265Y-20414186D02*
X9522265Y-20433234D01*
X9722265Y-20433234D02*
X9607979Y-20433234D01*
X9665122Y-20433234D02*
X9665122Y-20233234D01*
X9665122Y-20233234D02*
X9646075Y-20261805D01*
X9646075Y-20261805D02*
X9627027Y-20280853D01*
X9627027Y-20280853D02*
X9607979Y-20290377D01*
X9903218Y-20233234D02*
X9807979Y-20233234D01*
X9807979Y-20233234D02*
X9798456Y-20328472D01*
X9798456Y-20328472D02*
X9807979Y-20318948D01*
X9807979Y-20318948D02*
X9827027Y-20309424D01*
X9827027Y-20309424D02*
X9874646Y-20309424D01*
X9874646Y-20309424D02*
X9893694Y-20318948D01*
X9893694Y-20318948D02*
X9903218Y-20328472D01*
X9903218Y-20328472D02*
X9912741Y-20347520D01*
X9912741Y-20347520D02*
X9912741Y-20395139D01*
X9912741Y-20395139D02*
X9903218Y-20414186D01*
X9903218Y-20414186D02*
X9893694Y-20423710D01*
X9893694Y-20423710D02*
X9874646Y-20433234D01*
X9874646Y-20433234D02*
X9827027Y-20433234D01*
X9827027Y-20433234D02*
X9807979Y-20423710D01*
X9807979Y-20423710D02*
X9798456Y-20414186D01*
X9979408Y-20233234D02*
X10112741Y-20233234D01*
X10112741Y-20233234D02*
X10027027Y-20433234D01*
X10284170Y-20233234D02*
X10188932Y-20233234D01*
X10188932Y-20233234D02*
X10179408Y-20328472D01*
X10179408Y-20328472D02*
X10188932Y-20318948D01*
X10188932Y-20318948D02*
X10207979Y-20309424D01*
X10207979Y-20309424D02*
X10255599Y-20309424D01*
X10255599Y-20309424D02*
X10274646Y-20318948D01*
X10274646Y-20318948D02*
X10284170Y-20328472D01*
X10284170Y-20328472D02*
X10293694Y-20347520D01*
X10293694Y-20347520D02*
X10293694Y-20395139D01*
X10293694Y-20395139D02*
X10284170Y-20414186D01*
X10284170Y-20414186D02*
X10274646Y-20423710D01*
X10274646Y-20423710D02*
X10255599Y-20433234D01*
X10255599Y-20433234D02*
X10207979Y-20433234D01*
X10207979Y-20433234D02*
X10188932Y-20423710D01*
X10188932Y-20423710D02*
X10179408Y-20414186D01*
X10369884Y-20233234D02*
X10369884Y-20271329D01*
X10446075Y-20233234D02*
X10446075Y-20271329D01*
X10741313Y-20509424D02*
X10731789Y-20499900D01*
X10731789Y-20499900D02*
X10712741Y-20471329D01*
X10712741Y-20471329D02*
X10703218Y-20452281D01*
X10703218Y-20452281D02*
X10693694Y-20423710D01*
X10693694Y-20423710D02*
X10684170Y-20376091D01*
X10684170Y-20376091D02*
X10684170Y-20337996D01*
X10684170Y-20337996D02*
X10693694Y-20290377D01*
X10693694Y-20290377D02*
X10703218Y-20261805D01*
X10703218Y-20261805D02*
X10712741Y-20242758D01*
X10712741Y-20242758D02*
X10731789Y-20214186D01*
X10731789Y-20214186D02*
X10741313Y-20204662D01*
X10903218Y-20233234D02*
X10865122Y-20233234D01*
X10865122Y-20233234D02*
X10846075Y-20242758D01*
X10846075Y-20242758D02*
X10836551Y-20252281D01*
X10836551Y-20252281D02*
X10817503Y-20280853D01*
X10817503Y-20280853D02*
X10807980Y-20318948D01*
X10807980Y-20318948D02*
X10807980Y-20395139D01*
X10807980Y-20395139D02*
X10817503Y-20414186D01*
X10817503Y-20414186D02*
X10827027Y-20423710D01*
X10827027Y-20423710D02*
X10846075Y-20433234D01*
X10846075Y-20433234D02*
X10884170Y-20433234D01*
X10884170Y-20433234D02*
X10903218Y-20423710D01*
X10903218Y-20423710D02*
X10912741Y-20414186D01*
X10912741Y-20414186D02*
X10922265Y-20395139D01*
X10922265Y-20395139D02*
X10922265Y-20347520D01*
X10922265Y-20347520D02*
X10912741Y-20328472D01*
X10912741Y-20328472D02*
X10903218Y-20318948D01*
X10903218Y-20318948D02*
X10884170Y-20309424D01*
X10884170Y-20309424D02*
X10846075Y-20309424D01*
X10846075Y-20309424D02*
X10827027Y-20318948D01*
X10827027Y-20318948D02*
X10817503Y-20328472D01*
X10817503Y-20328472D02*
X10807980Y-20347520D01*
X11093694Y-20299900D02*
X11093694Y-20433234D01*
X11046075Y-20223710D02*
X10998456Y-20366567D01*
X10998456Y-20366567D02*
X11122265Y-20366567D01*
X11350837Y-20433234D02*
X11350837Y-20233234D01*
X11436551Y-20433234D02*
X11436551Y-20328472D01*
X11436551Y-20328472D02*
X11427027Y-20309424D01*
X11427027Y-20309424D02*
X11407980Y-20299900D01*
X11407980Y-20299900D02*
X11379408Y-20299900D01*
X11379408Y-20299900D02*
X11360360Y-20309424D01*
X11360360Y-20309424D02*
X11350837Y-20318948D01*
X11560360Y-20433234D02*
X11541313Y-20423710D01*
X11541313Y-20423710D02*
X11531789Y-20414186D01*
X11531789Y-20414186D02*
X11522265Y-20395139D01*
X11522265Y-20395139D02*
X11522265Y-20337996D01*
X11522265Y-20337996D02*
X11531789Y-20318948D01*
X11531789Y-20318948D02*
X11541313Y-20309424D01*
X11541313Y-20309424D02*
X11560360Y-20299900D01*
X11560360Y-20299900D02*
X11588932Y-20299900D01*
X11588932Y-20299900D02*
X11607980Y-20309424D01*
X11607980Y-20309424D02*
X11617503Y-20318948D01*
X11617503Y-20318948D02*
X11627027Y-20337996D01*
X11627027Y-20337996D02*
X11627027Y-20395139D01*
X11627027Y-20395139D02*
X11617503Y-20414186D01*
X11617503Y-20414186D02*
X11607980Y-20423710D01*
X11607980Y-20423710D02*
X11588932Y-20433234D01*
X11588932Y-20433234D02*
X11560360Y-20433234D01*
X11741313Y-20433234D02*
X11722265Y-20423710D01*
X11722265Y-20423710D02*
X11712741Y-20404662D01*
X11712741Y-20404662D02*
X11712741Y-20233234D01*
X11893694Y-20423710D02*
X11874646Y-20433234D01*
X11874646Y-20433234D02*
X11836551Y-20433234D01*
X11836551Y-20433234D02*
X11817503Y-20423710D01*
X11817503Y-20423710D02*
X11807980Y-20404662D01*
X11807980Y-20404662D02*
X11807980Y-20328472D01*
X11807980Y-20328472D02*
X11817503Y-20309424D01*
X11817503Y-20309424D02*
X11836551Y-20299900D01*
X11836551Y-20299900D02*
X11874646Y-20299900D01*
X11874646Y-20299900D02*
X11893694Y-20309424D01*
X11893694Y-20309424D02*
X11903218Y-20328472D01*
X11903218Y-20328472D02*
X11903218Y-20347520D01*
X11903218Y-20347520D02*
X11807980Y-20366567D01*
X11979408Y-20423710D02*
X11998456Y-20433234D01*
X11998456Y-20433234D02*
X12036551Y-20433234D01*
X12036551Y-20433234D02*
X12055599Y-20423710D01*
X12055599Y-20423710D02*
X12065122Y-20404662D01*
X12065122Y-20404662D02*
X12065122Y-20395139D01*
X12065122Y-20395139D02*
X12055599Y-20376091D01*
X12055599Y-20376091D02*
X12036551Y-20366567D01*
X12036551Y-20366567D02*
X12007980Y-20366567D01*
X12007980Y-20366567D02*
X11988932Y-20357043D01*
X11988932Y-20357043D02*
X11979408Y-20337996D01*
X11979408Y-20337996D02*
X11979408Y-20328472D01*
X11979408Y-20328472D02*
X11988932Y-20309424D01*
X11988932Y-20309424D02*
X12007980Y-20299900D01*
X12007980Y-20299900D02*
X12036551Y-20299900D01*
X12036551Y-20299900D02*
X12055599Y-20309424D01*
X12131789Y-20509424D02*
X12141313Y-20499900D01*
X12141313Y-20499900D02*
X12160361Y-20471329D01*
X12160361Y-20471329D02*
X12169884Y-20452281D01*
X12169884Y-20452281D02*
X12179408Y-20423710D01*
X12179408Y-20423710D02*
X12188932Y-20376091D01*
X12188932Y-20376091D02*
X12188932Y-20337996D01*
X12188932Y-20337996D02*
X12179408Y-20290377D01*
X12179408Y-20290377D02*
X12169884Y-20261805D01*
X12169884Y-20261805D02*
X12160361Y-20242758D01*
X12160361Y-20242758D02*
X12141313Y-20214186D01*
X12141313Y-20214186D02*
X12131789Y-20204662D01*
X12493694Y-20509424D02*
X12484170Y-20499900D01*
X12484170Y-20499900D02*
X12465122Y-20471329D01*
X12465122Y-20471329D02*
X12455599Y-20452281D01*
X12455599Y-20452281D02*
X12446075Y-20423710D01*
X12446075Y-20423710D02*
X12436551Y-20376091D01*
X12436551Y-20376091D02*
X12436551Y-20337996D01*
X12436551Y-20337996D02*
X12446075Y-20290377D01*
X12446075Y-20290377D02*
X12455599Y-20261805D01*
X12455599Y-20261805D02*
X12465122Y-20242758D01*
X12465122Y-20242758D02*
X12484170Y-20214186D01*
X12484170Y-20214186D02*
X12493694Y-20204662D01*
X12569884Y-20299900D02*
X12569884Y-20433234D01*
X12569884Y-20318948D02*
X12579408Y-20309424D01*
X12579408Y-20309424D02*
X12598456Y-20299900D01*
X12598456Y-20299900D02*
X12627027Y-20299900D01*
X12627027Y-20299900D02*
X12646075Y-20309424D01*
X12646075Y-20309424D02*
X12655599Y-20328472D01*
X12655599Y-20328472D02*
X12655599Y-20433234D01*
X12779408Y-20433234D02*
X12760361Y-20423710D01*
X12760361Y-20423710D02*
X12750837Y-20414186D01*
X12750837Y-20414186D02*
X12741313Y-20395139D01*
X12741313Y-20395139D02*
X12741313Y-20337996D01*
X12741313Y-20337996D02*
X12750837Y-20318948D01*
X12750837Y-20318948D02*
X12760361Y-20309424D01*
X12760361Y-20309424D02*
X12779408Y-20299900D01*
X12779408Y-20299900D02*
X12807980Y-20299900D01*
X12807980Y-20299900D02*
X12827027Y-20309424D01*
X12827027Y-20309424D02*
X12836551Y-20318948D01*
X12836551Y-20318948D02*
X12846075Y-20337996D01*
X12846075Y-20337996D02*
X12846075Y-20395139D01*
X12846075Y-20395139D02*
X12836551Y-20414186D01*
X12836551Y-20414186D02*
X12827027Y-20423710D01*
X12827027Y-20423710D02*
X12807980Y-20433234D01*
X12807980Y-20433234D02*
X12779408Y-20433234D01*
X12903218Y-20299900D02*
X12979408Y-20299900D01*
X12931789Y-20233234D02*
X12931789Y-20404662D01*
X12931789Y-20404662D02*
X12941313Y-20423710D01*
X12941313Y-20423710D02*
X12960361Y-20433234D01*
X12960361Y-20433234D02*
X12979408Y-20433234D01*
X13198456Y-20299900D02*
X13198456Y-20499900D01*
X13198456Y-20309424D02*
X13217503Y-20299900D01*
X13217503Y-20299900D02*
X13255599Y-20299900D01*
X13255599Y-20299900D02*
X13274646Y-20309424D01*
X13274646Y-20309424D02*
X13284170Y-20318948D01*
X13284170Y-20318948D02*
X13293694Y-20337996D01*
X13293694Y-20337996D02*
X13293694Y-20395139D01*
X13293694Y-20395139D02*
X13284170Y-20414186D01*
X13284170Y-20414186D02*
X13274646Y-20423710D01*
X13274646Y-20423710D02*
X13255599Y-20433234D01*
X13255599Y-20433234D02*
X13217503Y-20433234D01*
X13217503Y-20433234D02*
X13198456Y-20423710D01*
X13407980Y-20433234D02*
X13388932Y-20423710D01*
X13388932Y-20423710D02*
X13379408Y-20404662D01*
X13379408Y-20404662D02*
X13379408Y-20233234D01*
X13569884Y-20433234D02*
X13569884Y-20328472D01*
X13569884Y-20328472D02*
X13560361Y-20309424D01*
X13560361Y-20309424D02*
X13541313Y-20299900D01*
X13541313Y-20299900D02*
X13503218Y-20299900D01*
X13503218Y-20299900D02*
X13484170Y-20309424D01*
X13569884Y-20423710D02*
X13550837Y-20433234D01*
X13550837Y-20433234D02*
X13503218Y-20433234D01*
X13503218Y-20433234D02*
X13484170Y-20423710D01*
X13484170Y-20423710D02*
X13474646Y-20404662D01*
X13474646Y-20404662D02*
X13474646Y-20385615D01*
X13474646Y-20385615D02*
X13484170Y-20366567D01*
X13484170Y-20366567D02*
X13503218Y-20357043D01*
X13503218Y-20357043D02*
X13550837Y-20357043D01*
X13550837Y-20357043D02*
X13569884Y-20347520D01*
X13636551Y-20299900D02*
X13712742Y-20299900D01*
X13665123Y-20233234D02*
X13665123Y-20404662D01*
X13665123Y-20404662D02*
X13674646Y-20423710D01*
X13674646Y-20423710D02*
X13693694Y-20433234D01*
X13693694Y-20433234D02*
X13712742Y-20433234D01*
X13855599Y-20423710D02*
X13836551Y-20433234D01*
X13836551Y-20433234D02*
X13798456Y-20433234D01*
X13798456Y-20433234D02*
X13779408Y-20423710D01*
X13779408Y-20423710D02*
X13769884Y-20404662D01*
X13769884Y-20404662D02*
X13769884Y-20328472D01*
X13769884Y-20328472D02*
X13779408Y-20309424D01*
X13779408Y-20309424D02*
X13798456Y-20299900D01*
X13798456Y-20299900D02*
X13836551Y-20299900D01*
X13836551Y-20299900D02*
X13855599Y-20309424D01*
X13855599Y-20309424D02*
X13865123Y-20328472D01*
X13865123Y-20328472D02*
X13865123Y-20347520D01*
X13865123Y-20347520D02*
X13769884Y-20366567D01*
X14036551Y-20433234D02*
X14036551Y-20233234D01*
X14036551Y-20423710D02*
X14017504Y-20433234D01*
X14017504Y-20433234D02*
X13979408Y-20433234D01*
X13979408Y-20433234D02*
X13960361Y-20423710D01*
X13960361Y-20423710D02*
X13950837Y-20414186D01*
X13950837Y-20414186D02*
X13941313Y-20395139D01*
X13941313Y-20395139D02*
X13941313Y-20337996D01*
X13941313Y-20337996D02*
X13950837Y-20318948D01*
X13950837Y-20318948D02*
X13960361Y-20309424D01*
X13960361Y-20309424D02*
X13979408Y-20299900D01*
X13979408Y-20299900D02*
X14017504Y-20299900D01*
X14017504Y-20299900D02*
X14036551Y-20309424D01*
X14112742Y-20509424D02*
X14122265Y-20499900D01*
X14122265Y-20499900D02*
X14141313Y-20471329D01*
X14141313Y-20471329D02*
X14150837Y-20452281D01*
X14150837Y-20452281D02*
X14160361Y-20423710D01*
X14160361Y-20423710D02*
X14169884Y-20376091D01*
X14169884Y-20376091D02*
X14169884Y-20337996D01*
X14169884Y-20337996D02*
X14160361Y-20290377D01*
X14160361Y-20290377D02*
X14150837Y-20261805D01*
X14150837Y-20261805D02*
X14141313Y-20242758D01*
X14141313Y-20242758D02*
X14122265Y-20214186D01*
X14122265Y-20214186D02*
X14112742Y-20204662D01*
M02*
