M48
; DRILL file {KiCad 7.0.5} date Tue Jul  4 00:19:55 2023
; FORMAT={-:-/ absolute / metric / decimal}
; #@! TF.CreationDate,2023-07-04T00:19:55+09:00
; #@! TF.GenerationSoftware,Kicad,Pcbnew,7.0.5
; #@! TF.FileFunction,Plated,1,2,PTH
FMAT,2
METRIC
; #@! TA.AperFunction,Plated,PTH,ViaDrill
T1C0.150
; #@! TA.AperFunction,Plated,PTH,ViaDrill
T2C0.250
; #@! TA.AperFunction,Plated,PTH,ViaDrill
T3C0.300
; #@! TA.AperFunction,Plated,PTH,ComponentDrill
T4C0.300
; #@! TA.AperFunction,Plated,PTH,ComponentDrill
T5C0.500
; #@! TA.AperFunction,Plated,PTH,ComponentDrill
T6C0.600
; #@! TA.AperFunction,Plated,PTH,ComponentDrill
T7C1.000
; #@! TA.AperFunction,Plated,PTH,ComponentDrill
T8C1.470
; #@! TA.AperFunction,Plated,PTH,ComponentDrill
T9C2.400
; #@! TA.AperFunction,Plated,PTH,ComponentDrill
T10C2.499
; #@! TA.AperFunction,Plated,PTH,ComponentDrill
T11C2.499
%
G90
G05
T1
X168.9Y-169.59
X169.4Y-169.59
X169.9Y-169.59
X170.4Y-169.59
X171.15Y-166.84
T2
X96.739Y-120.33
T3
X86.76Y-93.57
X86.94Y-95.6
X87.56Y-93.57
X87.685Y-99.43
X87.685Y-101.05
X87.685Y-102.84
X88.855Y-101.04
X88.855Y-102.83
X88.89Y-99.43
X88.902Y-104.568
X89.779Y-93.842
X90.5Y-99.43
X90.5Y-100.98
X90.5Y-102.33
X90.5Y-103.7
X90.717Y-106.383
X91.56Y-118.53
X91.59Y-105.48
X91.72Y-109.61
X91.98Y-100.98
X91.98Y-102.33
X91.98Y-103.7
X91.99Y-99.43
X92.46Y-93.57
X92.63Y-107.47
X92.69Y-104.47
X93.26Y-93.57
X93.27Y-96.96
X93.41Y-106.72
X93.41Y-108.25
X93.42Y-105.21
X93.77Y-129.45
X93.94Y-137.66
X94.03Y-133.16
X94.03Y-136.16
X94.56Y-138.55
X94.79Y-106.72
X94.8Y-105.21
X95.58Y-125.96
X96.942Y-124.097
X97.419Y-130.0
X97.73Y-105.248
X97.74Y-106.76
X97.88Y-121.85
X98.179Y-130.0
X99.33Y-123.64
X99.62Y-129.07
X99.64Y-125.51
X100.64Y-131.07
X100.73Y-105.248
X100.751Y-106.761
X100.99Y-121.79
X102.26Y-139.578
X102.42Y-121.79
X102.56Y-138.32
X102.725Y-133.54
X102.725Y-135.83
X102.74Y-132.13
X102.91Y-108.39
X103.0Y-125.73
X103.0Y-128.83
X103.13Y-106.72
X103.14Y-105.21
X103.31Y-131.06
X103.33Y-124.48
X103.37Y-123.46
X103.62Y-120.99
X103.9Y-127.03
X104.08Y-139.578
X104.88Y-134.97
X104.89Y-118.525
X105.443Y-127.48
X105.45Y-128.38
X105.45Y-130.14
X105.54Y-106.72
X105.55Y-105.21
X106.09Y-123.56
X106.333Y-141.325
X107.67Y-140.74
X107.67Y-141.909
X107.92Y-106.72
X107.93Y-105.21
X108.13Y-123.55
X110.36Y-106.72
X110.37Y-105.21
X110.46Y-123.56
X111.186Y-141.909
X111.2Y-140.74
X112.4Y-123.3
X112.45Y-121.01
X112.45Y-122.08
X113.07Y-106.72
X113.08Y-105.21
X113.975Y-119.085
X114.92Y-140.74
X114.92Y-141.909
X115.41Y-123.34
X115.49Y-106.72
X115.5Y-105.21
X115.95Y-119.068
X115.95Y-120.39
X115.96Y-122.08
X116.94Y-123.43
X117.41Y-105.22
X117.41Y-106.72
X117.54Y-125.15
X117.54Y-125.87
X118.64Y-158.87
X118.76Y-141.909
X118.77Y-140.74
X118.89Y-126.49
X119.15Y-119.068
X119.4Y-106.73
X119.41Y-105.22
X120.28Y-125.48
X121.6Y-106.73
X121.61Y-105.22
X121.79Y-119.068
X123.09Y-141.909
X123.1Y-140.74
X124.08Y-106.73
X124.09Y-105.22
X125.279Y-119.068
X125.28Y-120.342
X126.17Y-106.73
X126.18Y-105.22
X127.42Y-140.74
X127.42Y-141.909
X128.28Y-106.73
X128.29Y-105.22
X129.98Y-119.068
X129.98Y-120.342
X130.24Y-106.73
X130.25Y-105.22
X131.97Y-141.909
X132.0Y-140.74
X132.55Y-106.73
X132.56Y-105.22
X134.82Y-119.068
X134.82Y-120.342
X134.84Y-106.73
X134.85Y-105.22
X135.95Y-141.909
X135.96Y-140.74
X136.53Y-106.73
X136.54Y-105.22
X137.74Y-177.38
X137.74Y-179.48
X137.74Y-181.58
X138.15Y-119.068
X138.15Y-120.342
X138.91Y-106.73
X138.92Y-105.22
X139.1Y-175.15
X139.1Y-176.47
X139.41Y-140.74
X139.41Y-141.909
X140.59Y-175.17
X140.59Y-176.49
X141.1Y-106.73
X141.11Y-105.22
X141.46Y-119.068
X141.46Y-120.342
X142.87Y-140.74
X142.87Y-141.909
X142.92Y-175.18
X142.92Y-176.5
X143.46Y-106.73
X143.47Y-105.22
X145.02Y-175.18
X145.02Y-176.5
X145.72Y-106.73
X145.73Y-105.22
X146.15Y-119.068
X146.15Y-120.342
X146.88Y-140.74
X146.88Y-141.909
X147.12Y-175.18
X147.12Y-176.5
X148.17Y-106.73
X148.18Y-105.22
X148.94Y-175.18
X148.94Y-176.5
X150.08Y-140.74
X150.08Y-141.909
X150.44Y-119.068
X150.44Y-120.342
X150.6Y-106.73
X150.61Y-105.22
X151.04Y-175.18
X151.04Y-176.5
X153.05Y-142.29
X153.06Y-140.74
X153.12Y-106.73
X153.13Y-105.22
X153.14Y-175.18
X153.14Y-176.5
X153.44Y-120.69
X153.576Y-119.096
X153.758Y-123.24
X154.185Y-125.475
X154.355Y-118.525
X154.46Y-99.72
X154.54Y-176.49
X154.82Y-106.73
X154.922Y-120.374
X155.035Y-121.83
X155.104Y-124.555
X155.44Y-105.2
X155.82Y-107.78
X155.92Y-142.28
X155.96Y-140.74
X156.035Y-127.325
X156.39Y-123.96
X156.48Y-109.24
X156.48Y-110.82
X156.48Y-112.34
X156.48Y-114.59
X156.48Y-116.91
X156.48Y-119.55
X156.48Y-121.78
X156.64Y-175.17
X156.64Y-176.49
X156.85Y-106.39
X156.957Y-126.443
X157.635Y-128.925
X157.695Y-107.455
X157.78Y-125.6
X157.802Y-109.24
X157.802Y-110.82
X157.802Y-112.34
X157.802Y-114.59
X157.802Y-116.91
X157.802Y-119.55
X157.802Y-121.78
X157.802Y-123.26
X158.562Y-128.048
X158.74Y-140.73
X158.74Y-175.17
X158.74Y-176.49
X158.75Y-142.19
X158.76Y-159.89
X158.812Y-118.83
X159.025Y-124.575
X159.24Y-132.75
X159.41Y-127.16
X159.77Y-131.06
X160.555Y-126.105
X160.597Y-130.083
X160.65Y-174.46
X160.65Y-176.51
X160.66Y-170.76
X160.8Y-162.48
X160.81Y-165.7
X160.823Y-133.5
X160.823Y-136.2
X160.823Y-137.575
X160.98Y-169.49
X161.058Y-140.74
X161.094Y-139.174
X161.46Y-173.53
X161.55Y-129.12
X161.558Y-142.234
X162.021Y-131.507
X162.03Y-168.64
X162.098Y-133.5
X162.098Y-136.19
X162.098Y-138.35
X162.098Y-139.815
X162.26Y-141.909
X162.57Y-128.12
X162.75Y-174.41
X162.75Y-176.51
X162.79Y-130.4
X163.14Y-168.56
X163.21Y-142.85
X163.267Y-131.41
X163.267Y-133.49
X163.267Y-136.18
X163.267Y-139.08
X163.323Y-161.995
X163.49Y-158.57
X163.934Y-141.306
X164.02Y-160.19
X164.398Y-164.07
X164.398Y-165.418
X164.48Y-171.793
X164.48Y-173.893
X164.566Y-140.136
X164.815Y-164.695
X164.85Y-174.41
X164.85Y-176.51
X164.93Y-144.57
X164.94Y-158.47
X165.082Y-137.575
X165.12Y-160.2
X165.645Y-173.075
X165.744Y-143.116
X165.745Y-141.315
X165.96Y-157.529
X166.6Y-167.44
X166.6Y-166.24
X166.6Y-168.64
X166.6Y-165.04
X166.73Y-173.44
X166.745Y-146.385
X166.86Y-176.51
X167.01Y-157.529
X167.56Y-143.13
X167.579Y-144.951
X167.8Y-166.24
X167.8Y-167.44
X167.8Y-168.64
X167.8Y-165.04
X167.99Y-156.63
X168.006Y-158.748
X168.59Y-173.465
X168.81Y-148.45
X168.96Y-176.51
X169.0Y-168.64
X169.0Y-166.24
X169.0Y-167.44
X169.0Y-165.04
X169.292Y-150.05
X169.292Y-151.78
X169.292Y-153.72
X169.292Y-155.67
X169.292Y-157.127
X169.39Y-144.96
X169.429Y-146.801
X169.55Y-162.47
X169.56Y-173.46
X169.61Y-174.55
X170.2Y-166.24
X170.2Y-165.04
X170.2Y-167.44
X170.2Y-168.64
X170.38Y-160.55
X170.78Y-176.51
X170.897Y-151.78
X170.897Y-153.72
X170.897Y-155.67
X170.897Y-148.66
X171.02Y-174.16
X171.255Y-146.825
X171.405Y-160.545
X171.521Y-157.469
X171.947Y-175.071
X172.081Y-158.029
X172.15Y-173.23
X172.171Y-148.69
X172.171Y-151.77
X172.171Y-153.8
X172.216Y-156.005
X172.71Y-160.39
X173.0Y-176.5
X173.23Y-167.34
X173.631Y-157.419
X174.07Y-173.36
X174.214Y-160.446
X174.52Y-169.86
X174.56Y-174.98
X174.59Y-166.73
X174.67Y-168.845
X174.7Y-164.37
X174.7Y-162.94
X174.971Y-158.759
X175.135Y-170.32
X175.59Y-176.48
X175.891Y-159.679
X176.14Y-167.93
X176.33Y-173.29
X176.564Y-161.83
X176.564Y-163.611
X177.31Y-174.98
X177.82Y-166.28
X178.21Y-176.5
X178.379Y-156.625
X178.62Y-173.35
X179.509Y-175.012
X180.09Y-176.5
X180.63Y-173.347
X181.97Y-176.5
X182.1Y-174.88
X183.35Y-162.46
X184.42Y-176.5
X184.44Y-174.91
X186.46Y-175.25
X186.52Y-176.5
X186.81Y-162.46
X188.34Y-176.5
X189.54Y-162.46
X189.79Y-173.11
X190.56Y-176.49
X193.04Y-162.46
X193.15Y-176.47
X195.5Y-161.327
X195.77Y-176.49
X197.65Y-176.49
X199.53Y-176.49
X201.33Y-176.49
X203.21Y-176.49
X203.21Y-178.24
X203.31Y-181.688
X215.35Y-157.648
X234.315Y-158.15
T4
X163.8Y-176.56
T5
X73.57Y-141.537
X73.57Y-146.737
X75.612Y-141.537
X75.612Y-146.737
X77.451Y-142.299
X77.451Y-145.976
X78.212Y-144.137
X94.712Y-115.537
X95.386Y-113.911
X95.386Y-117.164
X97.012Y-113.237
X97.012Y-117.837
X98.639Y-113.911
X98.639Y-117.164
X99.312Y-115.537
X198.812Y-132.338
X198.812Y-136.938
X200.012Y-132.338
X200.012Y-136.938
X201.212Y-132.338
X201.212Y-136.938
X261.113Y-170.537
X261.113Y-175.137
X262.312Y-170.537
X262.312Y-175.137
X263.512Y-170.537
X263.512Y-175.137
X330.662Y-113.237
X330.662Y-117.837
X331.863Y-113.237
X331.863Y-117.837
X333.062Y-113.221
X333.062Y-117.837
X350.412Y-144.137
X351.174Y-142.299
X351.174Y-145.976
X353.012Y-141.537
X353.012Y-146.737
X355.055Y-141.537
X355.055Y-146.737
T7
X178.25Y-168.86
X180.79Y-168.86
X183.33Y-168.86
X185.87Y-168.86
T8
X77.153Y-94.297
X79.534Y-170.498
X81.915Y-113.347
X83.502Y-91.757
X84.296Y-132.398
X85.884Y-167.957
X88.265Y-110.807
X89.059Y-151.447
X90.646Y-129.857
X95.409Y-148.907
X96.203Y-94.297
X102.552Y-91.757
X103.346Y-170.498
X105.727Y-113.347
X109.696Y-167.957
X110.49Y-132.398
X112.078Y-110.807
X115.252Y-94.297
X116.84Y-129.857
X120.015Y-151.447
X121.602Y-91.757
X124.777Y-113.347
X126.365Y-148.907
X127.159Y-170.498
X129.54Y-132.398
X131.127Y-110.807
X133.509Y-167.957
X134.302Y-94.297
X135.89Y-129.857
X139.065Y-151.447
X140.653Y-91.757
X143.827Y-113.347
X145.415Y-148.907
X148.59Y-132.398
X150.177Y-110.807
X150.971Y-170.498
X153.352Y-94.297
X154.94Y-129.857
X157.321Y-167.957
X158.115Y-151.447
X159.702Y-91.757
X162.877Y-113.347
X164.465Y-148.907
X167.64Y-132.398
X169.227Y-110.807
X172.403Y-94.297
X173.99Y-129.857
X177.165Y-151.447
X178.752Y-91.757
X181.927Y-113.347
X183.515Y-148.907
X186.69Y-132.398
X188.278Y-110.807
X189.071Y-170.498
X191.452Y-94.297
X193.04Y-129.857
X195.421Y-167.957
X196.215Y-151.447
X197.802Y-91.757
X198.596Y-170.498
X200.977Y-113.347
X202.565Y-148.907
X204.946Y-167.957
X205.74Y-132.398
X207.327Y-110.807
X210.502Y-94.297
X212.09Y-129.857
X215.265Y-151.447
X216.852Y-91.757
X220.028Y-113.347
X221.615Y-148.907
X224.79Y-132.398
X226.377Y-110.807
X229.552Y-94.297
X231.14Y-129.857
X234.315Y-151.447
X235.903Y-91.757
X236.696Y-170.498
X239.077Y-113.347
X240.665Y-148.907
X243.046Y-167.957
X243.84Y-132.398
X245.427Y-110.807
X248.602Y-94.297
X250.19Y-129.857
X253.365Y-151.447
X254.952Y-91.757
X258.127Y-113.347
X259.715Y-148.907
X262.89Y-132.398
X264.477Y-110.807
X267.652Y-94.297
X269.24Y-129.857
X270.034Y-170.498
X272.415Y-151.447
X274.002Y-91.757
X276.384Y-167.957
X277.178Y-113.347
X278.765Y-148.907
X281.94Y-132.398
X283.527Y-110.807
X286.702Y-94.297
X288.29Y-129.857
X291.465Y-151.447
X293.053Y-91.757
X293.846Y-170.498
X296.227Y-113.347
X297.815Y-148.907
X300.196Y-167.957
X300.99Y-132.398
X302.577Y-110.807
X305.752Y-94.297
X307.34Y-129.857
X312.102Y-91.757
X315.277Y-113.347
X317.659Y-170.498
X321.627Y-110.807
X324.009Y-167.957
X327.184Y-151.447
X331.946Y-132.398
X333.534Y-148.907
X334.327Y-94.297
X338.296Y-129.857
X339.09Y-113.347
X340.678Y-91.757
X341.471Y-170.498
X345.44Y-110.807
X347.821Y-167.957
T9
X74.112Y-111.637
X74.112Y-157.938
X109.012Y-89.938
X109.012Y-179.637
X166.912Y-89.938
X243.212Y-89.938
X258.404Y-179.645
X319.712Y-89.938
X319.812Y-179.637
X354.512Y-111.837
X354.512Y-158.137
T11
X97.012Y-115.537
T6
X85.69Y-87.01G85X85.69Y-87.61
G05
X85.69Y-90.94G85X85.69Y-92.04
G05
X94.33Y-87.01G85X94.33Y-87.61
G05
X94.33Y-90.94G85X94.33Y-92.04
G05
T10
X198.762Y-134.637G85X201.263Y-134.637
G05
X261.062Y-172.838G85X263.563Y-172.838
G05
X330.612Y-115.537G85X333.113Y-115.537
G05
T0
M30
