G04 #@! TF.GenerationSoftware,KiCad,Pcbnew,7.0.5*
G04 #@! TF.CreationDate,2023-07-04T12:34:17+09:00*
G04 #@! TF.ProjectId,Hotp4ck60,486f7470-3463-46b3-9630-2e6b69636164,rev?*
G04 #@! TF.SameCoordinates,Original*
G04 #@! TF.FileFunction,Soldermask,Bot*
G04 #@! TF.FilePolarity,Negative*
%FSLAX46Y46*%
G04 Gerber Fmt 4.6, Leading zero omitted, Abs format (unit mm)*
G04 Created by KiCad (PCBNEW 7.0.5) date 2023-07-04 12:34:17*
%MOMM*%
%LPD*%
G01*
G04 APERTURE LIST*
G04 Aperture macros list*
%AMRoundRect*
0 Rectangle with rounded corners*
0 $1 Rounding radius*
0 $2 $3 $4 $5 $6 $7 $8 $9 X,Y pos of 4 corners*
0 Add a 4 corners polygon primitive as box body*
4,1,4,$2,$3,$4,$5,$6,$7,$8,$9,$2,$3,0*
0 Add four circle primitives for the rounded corners*
1,1,$1+$1,$2,$3*
1,1,$1+$1,$4,$5*
1,1,$1+$1,$6,$7*
1,1,$1+$1,$8,$9*
0 Add four rect primitives between the rounded corners*
20,1,$1+$1,$2,$3,$4,$5,0*
20,1,$1+$1,$4,$5,$6,$7,0*
20,1,$1+$1,$6,$7,$8,$9,0*
20,1,$1+$1,$8,$9,$2,$3,0*%
G04 Aperture macros list end*
%ADD10C,2.501900*%
%ADD11C,1.750000*%
%ADD12C,4.000000*%
%ADD13C,2.250000*%
%ADD14C,3.048000*%
%ADD15C,3.987800*%
%ADD16C,1.000000*%
%ADD17C,7.001300*%
%ADD18C,7.000240*%
%ADD19C,3.700000*%
%ADD20R,1.700000X1.700000*%
%ADD21O,1.700000X1.700000*%
%ADD22RoundRect,0.150000X-0.150000X0.587500X-0.150000X-0.587500X0.150000X-0.587500X0.150000X0.587500X0*%
%ADD23RoundRect,0.112500X0.112500X-0.187500X0.112500X0.187500X-0.112500X0.187500X-0.112500X-0.187500X0*%
%ADD24RoundRect,0.140000X-0.170000X0.140000X-0.170000X-0.140000X0.170000X-0.140000X0.170000X0.140000X0*%
%ADD25RoundRect,0.140000X0.140000X0.170000X-0.140000X0.170000X-0.140000X-0.170000X0.140000X-0.170000X0*%
%ADD26R,0.800000X0.900000*%
%ADD27RoundRect,0.112500X-0.112500X0.187500X-0.112500X-0.187500X0.112500X-0.187500X0.112500X0.187500X0*%
%ADD28RoundRect,0.140000X0.170000X-0.140000X0.170000X0.140000X-0.170000X0.140000X-0.170000X-0.140000X0*%
%ADD29RoundRect,0.275000X0.625000X0.275000X-0.625000X0.275000X-0.625000X-0.275000X0.625000X-0.275000X0*%
%ADD30RoundRect,0.135000X-0.135000X-0.185000X0.135000X-0.185000X0.135000X0.185000X-0.135000X0.185000X0*%
%ADD31C,0.250000*%
%ADD32R,4.850000X4.850000*%
%ADD33RoundRect,0.135000X-0.185000X0.135000X-0.185000X-0.135000X0.185000X-0.135000X0.185000X0.135000X0*%
%ADD34R,1.100000X0.600000*%
%ADD35C,0.850000*%
%ADD36RoundRect,0.090000X-0.535000X0.210000X-0.535000X-0.210000X0.535000X-0.210000X0.535000X0.210000X0*%
%ADD37RoundRect,0.105000X0.245000X0.445000X-0.245000X0.445000X-0.245000X-0.445000X0.245000X-0.445000X0*%
%ADD38RoundRect,0.135000X0.135000X0.185000X-0.135000X0.185000X-0.135000X-0.185000X0.135000X-0.185000X0*%
%ADD39RoundRect,0.140000X-0.140000X-0.170000X0.140000X-0.170000X0.140000X0.170000X-0.140000X0.170000X0*%
%ADD40RoundRect,0.147500X0.172500X-0.147500X0.172500X0.147500X-0.172500X0.147500X-0.172500X-0.147500X0*%
%ADD41RoundRect,0.135000X0.185000X-0.135000X0.185000X0.135000X-0.185000X0.135000X-0.185000X-0.135000X0*%
%ADD42RoundRect,0.147500X0.147500X0.172500X-0.147500X0.172500X-0.147500X-0.172500X0.147500X-0.172500X0*%
%ADD43RoundRect,0.225000X-0.250000X0.225000X-0.250000X-0.225000X0.250000X-0.225000X0.250000X0.225000X0*%
%ADD44RoundRect,0.147500X-0.172500X0.147500X-0.172500X-0.147500X0.172500X-0.147500X0.172500X0.147500X0*%
%ADD45RoundRect,0.218750X-0.218750X-0.256250X0.218750X-0.256250X0.218750X0.256250X-0.218750X0.256250X0*%
%ADD46RoundRect,0.062500X0.062500X-0.325000X0.062500X0.325000X-0.062500X0.325000X-0.062500X-0.325000X0*%
%ADD47R,1.300000X0.700000*%
%ADD48RoundRect,0.062500X-0.062500X0.375000X-0.062500X-0.375000X0.062500X-0.375000X0.062500X0.375000X0*%
%ADD49RoundRect,0.062500X-0.375000X0.062500X-0.375000X-0.062500X0.375000X-0.062500X0.375000X0.062500X0*%
%ADD50R,1.600000X1.600000*%
%ADD51RoundRect,0.218750X0.218750X0.256250X-0.218750X0.256250X-0.218750X-0.256250X0.218750X-0.256250X0*%
%ADD52RoundRect,0.150000X-0.475000X-0.150000X0.475000X-0.150000X0.475000X0.150000X-0.475000X0.150000X0*%
%ADD53RoundRect,0.200000X-0.600000X0.200000X-0.600000X-0.200000X0.600000X-0.200000X0.600000X0.200000X0*%
%ADD54RoundRect,0.250001X-1.249999X0.799999X-1.249999X-0.799999X1.249999X-0.799999X1.249999X0.799999X0*%
%ADD55C,0.650000*%
%ADD56R,0.600000X1.450000*%
%ADD57R,0.300000X1.450000*%
%ADD58O,1.000000X1.600000*%
%ADD59O,1.000000X2.100000*%
%ADD60RoundRect,0.218750X-0.256250X0.218750X-0.256250X-0.218750X0.256250X-0.218750X0.256250X0.218750X0*%
G04 APERTURE END LIST*
D10*
X71812500Y-141486550D02*
X75612500Y-141486550D01*
X71812500Y-146788450D02*
X75612500Y-146788450D01*
X353012500Y-141486550D02*
X356812500Y-141486550D01*
X353012500Y-146788450D02*
X356862500Y-146788450D01*
X78263450Y-144137500D02*
G75*
G03*
X75612500Y-141486550I-2650949J1D01*
G01*
X75612500Y-146788450D02*
G75*
G03*
X78263450Y-144137500I1J2650949D01*
G01*
X353012500Y-141486550D02*
G75*
G03*
X350361550Y-144137500I0J-2650950D01*
G01*
X350361550Y-144137500D02*
G75*
G03*
X353012500Y-146788450I2650950J0D01*
G01*
D11*
X325913750Y-153987500D03*
D12*
X330993750Y-153987500D03*
D11*
X336073750Y-153987500D03*
D13*
X327183750Y-151447500D03*
X333533750Y-148907500D03*
D11*
X125888750Y-173037500D03*
D12*
X130968750Y-173037500D03*
D11*
X136048750Y-173037500D03*
D13*
X127158750Y-170497500D03*
X133508750Y-167957500D03*
D14*
X252406250Y-180022500D03*
D15*
X252406250Y-164782500D03*
D14*
X152406250Y-180022500D03*
D15*
X152406250Y-164782500D03*
D11*
X94932500Y-96837500D03*
D12*
X100012500Y-96837500D03*
D11*
X105092500Y-96837500D03*
D13*
X96202500Y-94297500D03*
X102552500Y-91757500D03*
D11*
X133032500Y-96837500D03*
D12*
X138112500Y-96837500D03*
D11*
X143192500Y-96837500D03*
D13*
X134302500Y-94297500D03*
X140652500Y-91757500D03*
D11*
X268763750Y-173037500D03*
D12*
X273843750Y-173037500D03*
D11*
X278923750Y-173037500D03*
D13*
X270033750Y-170497500D03*
X276383750Y-167957500D03*
D11*
X204470000Y-134937500D03*
D12*
X209550000Y-134937500D03*
D11*
X214630000Y-134937500D03*
D13*
X205740000Y-132397500D03*
X212090000Y-129857500D03*
D11*
X271145000Y-153987500D03*
D12*
X276225000Y-153987500D03*
D11*
X281305000Y-153987500D03*
D13*
X272415000Y-151447500D03*
X278765000Y-148907500D03*
D14*
X204819250Y-180022500D03*
D15*
X204819250Y-164782500D03*
D14*
X180943250Y-180022500D03*
D15*
X180943250Y-164782500D03*
D11*
X194945000Y-153987500D03*
D12*
X200025000Y-153987500D03*
D11*
X205105000Y-153987500D03*
D13*
X196215000Y-151447500D03*
X202565000Y-148907500D03*
D11*
X330676250Y-134937500D03*
D12*
X335756250Y-134937500D03*
D11*
X340836250Y-134937500D03*
D13*
X331946250Y-132397500D03*
X338296250Y-129857500D03*
D11*
X228282500Y-96837500D03*
D12*
X233362500Y-96837500D03*
D11*
X238442500Y-96837500D03*
D13*
X229552500Y-94297500D03*
X235902500Y-91757500D03*
D11*
X156845000Y-153987500D03*
D12*
X161925000Y-153987500D03*
D11*
X167005000Y-153987500D03*
D13*
X158115000Y-151447500D03*
X164465000Y-148907500D03*
D11*
X166370000Y-134937500D03*
D12*
X171450000Y-134937500D03*
D11*
X176530000Y-134937500D03*
D13*
X167640000Y-132397500D03*
X173990000Y-129857500D03*
D11*
X113982500Y-96837500D03*
D12*
X119062500Y-96837500D03*
D11*
X124142500Y-96837500D03*
D13*
X115252500Y-94297500D03*
X121602500Y-91757500D03*
D14*
X347694250Y-141922500D03*
D15*
X347694250Y-126682500D03*
D14*
X323818250Y-141922500D03*
D15*
X323818250Y-126682500D03*
D16*
X73570465Y-141537500D03*
X73570465Y-146737500D03*
X75612500Y-141537500D03*
X75612500Y-146737500D03*
X77450978Y-142299022D03*
X77450978Y-145975978D03*
X78212500Y-144137500D03*
X94712500Y-115537500D03*
X95386154Y-113911154D03*
X95386154Y-117163846D03*
X97012500Y-113237500D03*
D17*
X97012500Y-115537500D03*
D16*
X97012500Y-117837500D03*
X98638846Y-113911154D03*
X98638846Y-117163846D03*
X99312500Y-115537500D03*
X198812500Y-132337500D03*
X198812500Y-136937500D03*
X200012500Y-132337500D03*
D18*
X200012500Y-134637500D03*
D16*
X200012500Y-136937500D03*
X201212500Y-132337500D03*
X201212500Y-136937500D03*
X261112500Y-170537500D03*
X261112500Y-175137500D03*
X262312500Y-170537500D03*
D18*
X262312500Y-172837500D03*
D16*
X262312500Y-175137500D03*
X263512500Y-170537500D03*
X263512500Y-175137500D03*
X330662500Y-113237500D03*
X330662500Y-117837500D03*
X331862500Y-113237500D03*
D18*
X331862500Y-115537500D03*
D16*
X331862500Y-117837500D03*
X333062500Y-113220500D03*
X333062500Y-117837500D03*
X350412500Y-144137500D03*
X351174022Y-142299022D03*
X351174022Y-145975978D03*
X353012500Y-141537500D03*
X353012500Y-146737500D03*
X355054535Y-141537500D03*
X355054535Y-146737500D03*
D19*
X74112500Y-111637500D03*
X74112500Y-157937500D03*
X109012500Y-89937500D03*
X109012500Y-179637500D03*
X166912500Y-89937500D03*
X243212500Y-89937500D03*
X258404500Y-179645500D03*
X319712500Y-89937500D03*
X319812500Y-179637500D03*
X354512500Y-111837500D03*
X354512500Y-158137500D03*
D11*
X314007500Y-115887500D03*
D12*
X319087500Y-115887500D03*
D11*
X324167500Y-115887500D03*
D13*
X315277500Y-113347500D03*
X321627500Y-110807500D03*
D11*
X147320000Y-134937500D03*
D12*
X152400000Y-134937500D03*
D11*
X157480000Y-134937500D03*
D13*
X148590000Y-132397500D03*
X154940000Y-129857500D03*
D11*
X237807500Y-115887500D03*
D12*
X242887500Y-115887500D03*
D11*
X247967500Y-115887500D03*
D13*
X239077500Y-113347500D03*
X245427500Y-110807500D03*
D11*
X137795000Y-153987500D03*
D12*
X142875000Y-153987500D03*
D11*
X147955000Y-153987500D03*
D13*
X139065000Y-151447500D03*
X145415000Y-148907500D03*
D11*
X161607500Y-115887500D03*
D12*
X166687500Y-115887500D03*
D11*
X171767500Y-115887500D03*
D13*
X162877500Y-113347500D03*
X169227500Y-110807500D03*
D11*
X185420000Y-134937500D03*
D12*
X190500000Y-134937500D03*
D11*
X195580000Y-134937500D03*
D13*
X186690000Y-132397500D03*
X193040000Y-129857500D03*
D11*
X316388750Y-173037500D03*
D12*
X321468750Y-173037500D03*
D11*
X326548750Y-173037500D03*
D13*
X317658750Y-170497500D03*
X324008750Y-167957500D03*
D11*
X123507500Y-115887500D03*
D12*
X128587500Y-115887500D03*
D11*
X133667500Y-115887500D03*
D13*
X124777500Y-113347500D03*
X131127500Y-110807500D03*
D11*
X190182500Y-96837500D03*
D12*
X195262500Y-96837500D03*
D11*
X200342500Y-96837500D03*
D13*
X191452500Y-94297500D03*
X197802500Y-91757500D03*
D11*
X152082500Y-96837500D03*
D12*
X157162500Y-96837500D03*
D11*
X162242500Y-96837500D03*
D13*
X153352500Y-94297500D03*
X159702500Y-91757500D03*
D11*
X275907500Y-115887500D03*
D12*
X280987500Y-115887500D03*
D11*
X286067500Y-115887500D03*
D13*
X277177500Y-113347500D03*
X283527500Y-110807500D03*
D11*
X149701250Y-173037500D03*
D12*
X154781250Y-173037500D03*
D11*
X159861250Y-173037500D03*
D13*
X150971250Y-170497500D03*
X157321250Y-167957500D03*
D20*
X178250000Y-168860000D03*
D21*
X180790000Y-168860000D03*
X183330000Y-168860000D03*
X185870000Y-168860000D03*
D11*
X299720000Y-134937500D03*
D12*
X304800000Y-134937500D03*
D11*
X309880000Y-134937500D03*
D13*
X300990000Y-132397500D03*
X307340000Y-129857500D03*
D11*
X175895000Y-153987500D03*
D12*
X180975000Y-153987500D03*
D11*
X186055000Y-153987500D03*
D13*
X177165000Y-151447500D03*
X183515000Y-148907500D03*
D14*
X252444250Y-180022500D03*
D15*
X252444250Y-164782500D03*
D14*
X228568250Y-180022500D03*
D15*
X228568250Y-164782500D03*
D11*
X118745000Y-153987500D03*
D12*
X123825000Y-153987500D03*
D11*
X128905000Y-153987500D03*
D13*
X120015000Y-151447500D03*
X126365000Y-148907500D03*
D14*
X319055750Y-147002500D03*
D15*
X319055750Y-162242500D03*
D14*
X342931750Y-147002500D03*
D15*
X342931750Y-162242500D03*
D11*
X252095000Y-153987500D03*
D12*
X257175000Y-153987500D03*
D11*
X262255000Y-153987500D03*
D13*
X253365000Y-151447500D03*
X259715000Y-148907500D03*
D11*
X233045000Y-153987500D03*
D12*
X238125000Y-153987500D03*
D11*
X243205000Y-153987500D03*
D13*
X234315000Y-151447500D03*
X240665000Y-148907500D03*
D11*
X333057500Y-96837500D03*
D12*
X338137500Y-96837500D03*
D11*
X343217500Y-96837500D03*
D13*
X334327500Y-94297500D03*
X340677500Y-91757500D03*
D11*
X213995000Y-153987500D03*
D12*
X219075000Y-153987500D03*
D11*
X224155000Y-153987500D03*
D13*
X215265000Y-151447500D03*
X221615000Y-148907500D03*
D11*
X180657500Y-115887500D03*
D12*
X185737500Y-115887500D03*
D11*
X190817500Y-115887500D03*
D13*
X181927500Y-113347500D03*
X188277500Y-110807500D03*
D11*
X128270000Y-134937500D03*
D12*
X133350000Y-134937500D03*
D11*
X138430000Y-134937500D03*
D13*
X129540000Y-132397500D03*
X135890000Y-129857500D03*
D11*
X104457500Y-115887500D03*
D12*
X109537500Y-115887500D03*
D11*
X114617500Y-115887500D03*
D13*
X105727500Y-113347500D03*
X112077500Y-110807500D03*
D11*
X102076250Y-173037500D03*
D12*
X107156250Y-173037500D03*
D11*
X112236250Y-173037500D03*
D13*
X103346250Y-170497500D03*
X109696250Y-167957500D03*
D11*
X109220000Y-134937500D03*
D12*
X114300000Y-134937500D03*
D11*
X119380000Y-134937500D03*
D13*
X110490000Y-132397500D03*
X116840000Y-129857500D03*
D11*
X209232500Y-96837500D03*
D12*
X214312500Y-96837500D03*
D11*
X219392500Y-96837500D03*
D13*
X210502500Y-94297500D03*
X216852500Y-91757500D03*
D11*
X142557500Y-115887500D03*
D12*
X147637500Y-115887500D03*
D11*
X152717500Y-115887500D03*
D13*
X143827500Y-113347500D03*
X150177500Y-110807500D03*
D11*
X294957500Y-115887500D03*
D12*
X300037500Y-115887500D03*
D11*
X305117500Y-115887500D03*
D13*
X296227500Y-113347500D03*
X302577500Y-110807500D03*
D14*
X326199500Y-89852500D03*
D15*
X326199500Y-105092500D03*
D14*
X350075500Y-89852500D03*
D15*
X350075500Y-105092500D03*
D11*
X337820000Y-115887500D03*
D12*
X342900000Y-115887500D03*
D11*
X347980000Y-115887500D03*
D13*
X339090000Y-113347500D03*
X345440000Y-110807500D03*
D11*
X80645000Y-115887500D03*
D12*
X85725000Y-115887500D03*
D11*
X90805000Y-115887500D03*
D13*
X81915000Y-113347500D03*
X88265000Y-110807500D03*
D11*
X199707500Y-115887500D03*
D12*
X204787500Y-115887500D03*
D11*
X209867500Y-115887500D03*
D13*
X200977500Y-113347500D03*
X207327500Y-110807500D03*
D11*
X197326250Y-173037500D03*
D12*
X202406250Y-173037500D03*
D11*
X207486250Y-173037500D03*
D13*
X198596250Y-170497500D03*
X204946250Y-167957500D03*
D11*
X340201250Y-173037500D03*
D12*
X345281250Y-173037500D03*
D11*
X350361250Y-173037500D03*
D13*
X341471250Y-170497500D03*
X347821250Y-167957500D03*
D11*
X285432500Y-96837500D03*
D12*
X290512500Y-96837500D03*
D11*
X295592500Y-96837500D03*
D13*
X286702500Y-94297500D03*
X293052500Y-91757500D03*
D11*
X171132500Y-96837500D03*
D12*
X176212500Y-96837500D03*
D11*
X181292500Y-96837500D03*
D13*
X172402500Y-94297500D03*
X178752500Y-91757500D03*
D11*
X242570000Y-134937500D03*
D12*
X247650000Y-134937500D03*
D11*
X252730000Y-134937500D03*
D13*
X243840000Y-132397500D03*
X250190000Y-129857500D03*
D11*
X235426250Y-173037500D03*
D12*
X240506250Y-173037500D03*
D11*
X245586250Y-173037500D03*
D13*
X236696250Y-170497500D03*
X243046250Y-167957500D03*
D14*
X80930750Y-147002500D03*
D15*
X80930750Y-162242500D03*
D14*
X104806750Y-147002500D03*
D15*
X104806750Y-162242500D03*
D11*
X218757500Y-115887500D03*
D12*
X223837500Y-115887500D03*
D11*
X228917500Y-115887500D03*
D13*
X220027500Y-113347500D03*
X226377500Y-110807500D03*
D11*
X187801250Y-173037500D03*
D12*
X192881250Y-173037500D03*
D11*
X197961250Y-173037500D03*
D13*
X189071250Y-170497500D03*
X195421250Y-167957500D03*
D11*
X223520000Y-134937500D03*
D12*
X228600000Y-134937500D03*
D11*
X233680000Y-134937500D03*
D13*
X224790000Y-132397500D03*
X231140000Y-129857500D03*
D11*
X83026250Y-134937500D03*
D12*
X88106250Y-134937500D03*
D11*
X93186250Y-134937500D03*
D13*
X84296250Y-132397500D03*
X90646250Y-129857500D03*
D11*
X78263750Y-173037500D03*
D12*
X83343750Y-173037500D03*
D11*
X88423750Y-173037500D03*
D13*
X79533750Y-170497500D03*
X85883750Y-167957500D03*
D11*
X290195000Y-153987500D03*
D12*
X295275000Y-153987500D03*
D11*
X300355000Y-153987500D03*
D13*
X291465000Y-151447500D03*
X297815000Y-148907500D03*
D11*
X247332500Y-96837500D03*
D12*
X252412500Y-96837500D03*
D11*
X257492500Y-96837500D03*
D13*
X248602500Y-94297500D03*
X254952500Y-91757500D03*
D11*
X280670000Y-134937500D03*
D12*
X285750000Y-134937500D03*
D11*
X290830000Y-134937500D03*
D13*
X281940000Y-132397500D03*
X288290000Y-129857500D03*
D11*
X256857500Y-115887500D03*
D12*
X261937500Y-115887500D03*
D11*
X267017500Y-115887500D03*
D13*
X258127500Y-113347500D03*
X264477500Y-110807500D03*
D11*
X304482500Y-96837500D03*
D12*
X309562500Y-96837500D03*
D11*
X314642500Y-96837500D03*
D13*
X305752500Y-94297500D03*
X312102500Y-91757500D03*
D11*
X261620000Y-134937500D03*
D12*
X266700000Y-134937500D03*
D11*
X271780000Y-134937500D03*
D13*
X262890000Y-132397500D03*
X269240000Y-129857500D03*
D11*
X87788750Y-153987500D03*
D12*
X92868750Y-153987500D03*
D11*
X97948750Y-153987500D03*
D13*
X89058750Y-151447500D03*
X95408750Y-148907500D03*
D11*
X75882500Y-96837500D03*
D12*
X80962500Y-96837500D03*
D11*
X86042500Y-96837500D03*
D13*
X77152500Y-94297500D03*
X83502500Y-91757500D03*
D11*
X292576250Y-173037500D03*
D12*
X297656250Y-173037500D03*
D11*
X302736250Y-173037500D03*
D13*
X293846250Y-170497500D03*
X300196250Y-167957500D03*
D11*
X266382500Y-96837500D03*
D12*
X271462500Y-96837500D03*
D11*
X276542500Y-96837500D03*
D13*
X267652500Y-94297500D03*
X274002500Y-91757500D03*
D22*
X96910000Y-122222500D03*
X98810000Y-122222500D03*
X97860000Y-124097500D03*
D23*
X317500000Y-99475000D03*
X317500000Y-97375000D03*
D24*
X163960000Y-168640000D03*
X163960000Y-169600000D03*
D23*
X227012500Y-156625000D03*
X227012500Y-154525000D03*
D25*
X114225000Y-123295000D03*
X113265000Y-123295000D03*
D23*
X141287500Y-137575000D03*
X141287500Y-135475000D03*
X265112500Y-156625000D03*
X265112500Y-154525000D03*
D26*
X162149996Y-172240002D03*
X162149996Y-170840002D03*
X163249996Y-170840002D03*
X163249996Y-172240002D03*
D27*
X210343750Y-164050000D03*
X210343750Y-166150000D03*
D28*
X165119998Y-161970003D03*
X165119998Y-161010003D03*
D23*
X312737500Y-137575000D03*
X312737500Y-135475000D03*
D29*
X191340000Y-162460000D03*
X185140000Y-162460000D03*
X191340000Y-166160000D03*
X185140000Y-166160000D03*
D23*
X131762500Y-156625000D03*
X131762500Y-154525000D03*
X232568750Y-118525000D03*
X232568750Y-116425000D03*
D30*
X92360000Y-94580000D03*
X93380000Y-94580000D03*
D27*
X146843750Y-164050000D03*
X146843750Y-166150000D03*
X329406250Y-164050000D03*
X329406250Y-166150000D03*
D28*
X167010000Y-159425000D03*
X167010000Y-158465000D03*
D31*
X165150000Y-165589999D03*
X165150000Y-166089999D03*
X165150000Y-166589999D03*
X165150000Y-167089999D03*
X165150000Y-167589999D03*
X165150000Y-168089999D03*
X165150000Y-168589999D03*
X165150000Y-169089999D03*
X165150000Y-169589999D03*
X170650000Y-170089999D03*
X170900000Y-164089999D03*
X171150000Y-164839999D03*
X171150000Y-165839999D03*
X171150000Y-166339999D03*
X171150000Y-166839999D03*
X171150000Y-167339999D03*
X171150000Y-167839999D03*
X171150000Y-168339999D03*
X171150000Y-168839999D03*
X171150000Y-170089999D03*
X171650000Y-164089999D03*
X171650000Y-164589999D03*
X171650000Y-165089999D03*
X171650000Y-165589999D03*
X171650000Y-166089999D03*
X171650000Y-166589999D03*
X171650000Y-167089999D03*
X171650000Y-167589999D03*
X171650000Y-168089999D03*
X171650000Y-168589999D03*
X171650000Y-169089999D03*
X171650000Y-169589999D03*
X165650000Y-163589999D03*
X165650000Y-164339999D03*
X165650000Y-164839999D03*
X165650000Y-165339999D03*
X165650000Y-165839999D03*
X165650000Y-166339999D03*
X165650000Y-166839999D03*
X165650000Y-167339999D03*
X165650000Y-167839999D03*
X165650000Y-168339999D03*
X165650000Y-170089999D03*
X166150000Y-163589999D03*
X166400000Y-164089999D03*
X166400000Y-169589999D03*
X166650000Y-170089999D03*
D32*
X168400000Y-166839999D03*
D31*
X166900000Y-164089999D03*
X166900000Y-169589999D03*
X167150000Y-163589999D03*
X167400000Y-164089999D03*
X167400000Y-169589999D03*
X167650000Y-163589999D03*
X167650000Y-170089999D03*
X167900000Y-164089999D03*
X168150000Y-163589999D03*
X168150000Y-170089999D03*
X168400000Y-164089999D03*
X168650000Y-163589999D03*
X168650000Y-170089999D03*
X168900000Y-164089999D03*
X168900000Y-169589999D03*
X169150000Y-163589999D03*
X169150000Y-170089999D03*
X169400000Y-164089999D03*
X169400000Y-169589999D03*
X169650000Y-163589999D03*
X169650000Y-170089999D03*
X169900000Y-169589999D03*
X170150000Y-163589999D03*
X170150000Y-170089999D03*
X170400000Y-164089999D03*
X170400000Y-169589999D03*
D33*
X98400000Y-125960000D03*
X98400000Y-126980000D03*
D23*
X146050000Y-99475000D03*
X146050000Y-97375000D03*
X288925000Y-118525000D03*
X288925000Y-116425000D03*
D27*
X337343750Y-164050000D03*
X337343750Y-166150000D03*
D34*
X166757576Y-161940001D03*
X166757576Y-160540001D03*
D24*
X169590000Y-171600000D03*
X169590000Y-172560000D03*
D23*
X236537500Y-137575000D03*
X236537500Y-135475000D03*
X153987500Y-156625000D03*
X153987500Y-154525000D03*
D35*
X97120000Y-136910000D03*
X97120000Y-133910000D03*
D36*
X95120000Y-133160000D03*
X95120000Y-136160000D03*
X95120000Y-137660000D03*
D37*
X95970000Y-139110000D03*
X98270000Y-139110000D03*
X95970000Y-131710000D03*
X98270000Y-131710000D03*
D38*
X87660000Y-94630000D03*
X86640000Y-94630000D03*
D23*
X184150000Y-99475000D03*
X184150000Y-97375000D03*
X174625000Y-118525000D03*
X174625000Y-116425000D03*
D38*
X169640000Y-160420000D03*
X168620000Y-160420000D03*
D23*
X311150000Y-118525000D03*
X311150000Y-116425000D03*
D28*
X165957578Y-159424999D03*
X165957578Y-158464999D03*
D39*
X172840000Y-166730000D03*
X173800000Y-166730000D03*
D23*
X293687500Y-137575000D03*
X293687500Y-135475000D03*
X327818750Y-137575000D03*
X327818750Y-135475000D03*
D40*
X167629997Y-173374999D03*
X167629997Y-172404999D03*
D23*
X139700000Y-118525000D03*
X139700000Y-116425000D03*
D27*
X246856250Y-164050000D03*
X246856250Y-166150000D03*
X115093750Y-164050000D03*
X115093750Y-166150000D03*
D39*
X172820000Y-164370000D03*
X173780000Y-164370000D03*
D23*
X307975000Y-118525000D03*
X307975000Y-116425000D03*
D41*
X100100000Y-124660000D03*
X100100000Y-123640000D03*
D23*
X193675000Y-118525000D03*
X193675000Y-116425000D03*
D39*
X164940000Y-175512363D03*
X165900000Y-175512363D03*
X172819999Y-162939999D03*
X173779999Y-162939999D03*
D38*
X104340000Y-130060000D03*
X103320000Y-130060000D03*
X100010000Y-130000000D03*
X98990000Y-130000000D03*
D23*
X100806250Y-156625000D03*
X100806250Y-154525000D03*
X323080000Y-156625000D03*
X323080000Y-154525000D03*
D41*
X97330000Y-126980000D03*
X97330000Y-125960000D03*
D28*
X164020001Y-161970005D03*
X164020001Y-161010005D03*
D42*
X89655000Y-94620000D03*
X88685000Y-94620000D03*
D23*
X222250000Y-99475000D03*
X222250000Y-97375000D03*
X179387500Y-137575000D03*
X179387500Y-135475000D03*
X260350000Y-99475000D03*
X260350000Y-97375000D03*
D27*
X91281250Y-164050000D03*
X91281250Y-166150000D03*
D39*
X101460000Y-123460000D03*
X102420000Y-123460000D03*
D43*
X163170004Y-164734999D03*
X163170004Y-166284999D03*
D23*
X241300000Y-99475000D03*
X241300000Y-97375000D03*
X77787500Y-118525000D03*
X77787500Y-116425000D03*
D39*
X162219999Y-173540002D03*
X163179999Y-173540002D03*
D44*
X104080000Y-134000000D03*
X104080000Y-134970000D03*
D23*
X284162500Y-156625000D03*
X284162500Y-154525000D03*
D45*
X172694199Y-161618682D03*
X174269199Y-161618682D03*
D23*
X298450000Y-99475000D03*
X298450000Y-97375000D03*
D39*
X101450000Y-130060000D03*
X102410000Y-130060000D03*
D23*
X274637500Y-137575000D03*
X274637500Y-135475000D03*
X212725000Y-118525000D03*
X212725000Y-116425000D03*
X188912500Y-156625000D03*
X188912500Y-154525000D03*
X350837500Y-118525000D03*
X350837500Y-116425000D03*
D24*
X161900004Y-164459999D03*
X161900004Y-165419999D03*
D25*
X168589997Y-174390000D03*
X167629997Y-174390000D03*
D23*
X203200000Y-99475000D03*
X203200000Y-97375000D03*
D39*
X101460000Y-124450000D03*
X102420000Y-124450000D03*
D23*
X246062500Y-156625000D03*
X246062500Y-154525000D03*
X217487500Y-137575000D03*
X217487500Y-135475000D03*
D46*
X114975000Y-122077500D03*
X114475000Y-122077500D03*
X113975000Y-122077500D03*
X113475000Y-122077500D03*
X113475000Y-120152500D03*
X113975000Y-120152500D03*
X114475000Y-120152500D03*
X114975000Y-120152500D03*
D47*
X114225000Y-121115000D03*
D39*
X166670000Y-171390004D03*
X167630000Y-171390004D03*
D28*
X170380000Y-162400000D03*
X170380000Y-161440000D03*
X171405000Y-162404998D03*
X171405000Y-161444998D03*
D23*
X107970000Y-97887500D03*
X107970000Y-95787500D03*
X165100000Y-99475000D03*
X165100000Y-97375000D03*
X150812500Y-156625000D03*
X150812500Y-154525000D03*
X269875000Y-118525000D03*
X269875000Y-116425000D03*
X117475000Y-118525000D03*
X117475000Y-116425000D03*
D48*
X100700000Y-125842500D03*
X101200000Y-125842500D03*
X101700000Y-125842500D03*
X102200000Y-125842500D03*
D49*
X102887500Y-126530000D03*
X102887500Y-127030000D03*
X102887500Y-127530000D03*
X102887500Y-128030000D03*
D48*
X102200000Y-128717500D03*
X101700000Y-128717500D03*
X101200000Y-128717500D03*
X100700000Y-128717500D03*
D49*
X100012500Y-128030000D03*
X100012500Y-127530000D03*
X100012500Y-127030000D03*
X100012500Y-126530000D03*
D50*
X101450000Y-127280000D03*
D27*
X305593750Y-164050000D03*
X305593750Y-166150000D03*
D23*
X80168750Y-137575000D03*
X80168750Y-135475000D03*
X250825000Y-118525000D03*
X250825000Y-116425000D03*
D51*
X163687500Y-163210000D03*
X162112500Y-163210000D03*
D30*
X94620000Y-122650000D03*
X95640000Y-122650000D03*
D52*
X90045000Y-97900000D03*
X90045000Y-96950000D03*
X90045000Y-96000000D03*
X92395000Y-96000000D03*
X92395000Y-96950000D03*
X92395000Y-97900000D03*
D25*
X102410000Y-131060000D03*
X101450000Y-131060000D03*
D44*
X104080000Y-136225000D03*
X104080000Y-137195000D03*
D38*
X161940000Y-166710000D03*
X160920000Y-166710000D03*
D23*
X279400000Y-99475000D03*
X279400000Y-97375000D03*
D53*
X118890000Y-124230000D03*
X118890000Y-125480000D03*
D54*
X121790000Y-121680000D03*
X121790000Y-128030000D03*
D38*
X169370000Y-161480000D03*
X168350000Y-161480000D03*
D24*
X98420000Y-128080000D03*
X98420000Y-129040000D03*
D44*
X160849997Y-163675002D03*
X160849997Y-164645002D03*
D55*
X87120000Y-90960000D03*
X92900000Y-90960000D03*
D56*
X86760000Y-92405000D03*
X87560000Y-92405000D03*
D57*
X88760000Y-92405000D03*
X89760000Y-92405000D03*
X90260000Y-92405000D03*
X91260000Y-92405000D03*
D56*
X92460000Y-92405000D03*
X93260000Y-92405000D03*
X93260000Y-92405000D03*
X92460000Y-92405000D03*
D57*
X91760000Y-92405000D03*
X90760000Y-92405000D03*
X89260000Y-92405000D03*
X88260000Y-92405000D03*
D56*
X87560000Y-92405000D03*
X86760000Y-92405000D03*
D58*
X85690000Y-87310000D03*
D59*
X85690000Y-91490000D03*
D58*
X94330000Y-87310000D03*
D59*
X94330000Y-91490000D03*
D27*
X138906250Y-164050000D03*
X138906250Y-166150000D03*
D23*
X111125000Y-97887500D03*
X111125000Y-95787500D03*
X207962500Y-156625000D03*
X207962500Y-154525000D03*
X255587500Y-137575000D03*
X255587500Y-135475000D03*
D33*
X95580000Y-123640000D03*
X95580000Y-124660000D03*
D24*
X165400003Y-171259999D03*
X165400003Y-172219999D03*
D23*
X182562500Y-137575000D03*
X182562500Y-135475000D03*
X303212500Y-156625000D03*
X303212500Y-154525000D03*
X122237500Y-137575000D03*
X122237500Y-135475000D03*
D60*
X88270000Y-95972500D03*
X88270000Y-97547500D03*
D39*
X172720000Y-169860000D03*
X173680000Y-169860000D03*
D24*
X97430000Y-128080000D03*
X97430000Y-129040000D03*
D33*
X100110000Y-121590000D03*
X100110000Y-122610000D03*
D27*
X284162500Y-164050000D03*
X284162500Y-166150000D03*
D23*
X330200000Y-99475000D03*
X330200000Y-97375000D03*
X136525000Y-118525000D03*
X136525000Y-116425000D03*
X144462500Y-137575000D03*
X144462500Y-135475000D03*
X127000000Y-99475000D03*
X127000000Y-97375000D03*
D25*
X162990000Y-169550000D03*
X162030000Y-169550000D03*
M02*
