G04 #@! TF.GenerationSoftware,KiCad,Pcbnew,7.0.5*
G04 #@! TF.CreationDate,2023-07-04T00:19:37+09:00*
G04 #@! TF.ProjectId,Hotp4ck60,486f7470-3463-46b3-9630-2e6b69636164,rev?*
G04 #@! TF.SameCoordinates,Original*
G04 #@! TF.FileFunction,Profile,NP*
%FSLAX46Y46*%
G04 Gerber Fmt 4.6, Leading zero omitted, Abs format (unit mm)*
G04 Created by KiCad (PCBNEW 7.0.5) date 2023-07-04 00:19:37*
%MOMM*%
%LPD*%
G01*
G04 APERTURE LIST*
G04 #@! TA.AperFunction,Profile*
%ADD10C,0.300000*%
G04 #@! TD*
G04 APERTURE END LIST*
D10*
X71812500Y-142737500D02*
X71812500Y-89637500D01*
X71812500Y-145537500D02*
X75612500Y-145537500D01*
X71812500Y-180237500D02*
X71812500Y-145537500D01*
X73812500Y-87637500D02*
X83942819Y-87637498D01*
X73812500Y-182237500D02*
X354812500Y-182237500D01*
X75612500Y-142737500D02*
X71812500Y-142737500D01*
X94542660Y-86067658D02*
X85512661Y-86067658D01*
X353012500Y-142737500D02*
X356812500Y-142737500D01*
X353012500Y-145537500D02*
X356812500Y-145537500D01*
X354812500Y-87637500D02*
X96112500Y-87637500D01*
X356812500Y-142737500D02*
X356812500Y-89637500D01*
X356812500Y-145537500D02*
X356812500Y-180237500D01*
X73812500Y-87637500D02*
G75*
G03*
X71812500Y-89637500I-1J-1999999D01*
G01*
X71812500Y-180237500D02*
G75*
G03*
X73812500Y-182237500I1999999J-1D01*
G01*
X77012500Y-144137500D02*
G75*
G03*
X75612500Y-142737500I-1400002J-2D01*
G01*
X75612500Y-145537500D02*
G75*
G03*
X77012500Y-144137500I-2J1400002D01*
G01*
X83942819Y-87637498D02*
G75*
G03*
X84727740Y-86852578I2J784919D01*
G01*
X85512661Y-86067658D02*
G75*
G03*
X84727740Y-86852578I-2J-784919D01*
G01*
X95327580Y-86852579D02*
G75*
G03*
X94542660Y-86067658I-784919J2D01*
G01*
X95327580Y-86852579D02*
G75*
G03*
X96112500Y-87637500I784919J-2D01*
G01*
X353012500Y-142737500D02*
G75*
G03*
X351612500Y-144137500I0J-1400000D01*
G01*
X351612500Y-144137500D02*
G75*
G03*
X353012500Y-145537500I1400000J0D01*
G01*
X356812500Y-89637500D02*
G75*
G03*
X354812500Y-87637500I-2000000J0D01*
G01*
X354812500Y-182237500D02*
G75*
G03*
X356812500Y-180237500I0J2000000D01*
G01*
M02*
