M48
; DRILL file {KiCad 7.0.5} date Tue Jul  4 00:19:55 2023
; FORMAT={-:-/ absolute / metric / decimal}
; #@! TF.CreationDate,2023-07-04T00:19:55+09:00
; #@! TF.GenerationSoftware,Kicad,Pcbnew,7.0.5
; #@! TF.FileFunction,NonPlated,1,2,NPTH
FMAT,2
METRIC
; #@! TA.AperFunction,NonPlated,NPTH,ComponentDrill
T1C0.650
; #@! TA.AperFunction,NonPlated,NPTH,ComponentDrill
T2C0.850
; #@! TA.AperFunction,NonPlated,NPTH,ComponentDrill
T3C1.750
; #@! TA.AperFunction,NonPlated,NPTH,ComponentDrill
T4C3.048
; #@! TA.AperFunction,NonPlated,NPTH,ComponentDrill
T5C3.988
; #@! TA.AperFunction,NonPlated,NPTH,ComponentDrill
T6C4.000
%
G90
G05
T1
X87.12Y-90.96
X92.9Y-90.96
T2
X97.12Y-133.91
X97.12Y-136.91
T3
X75.882Y-96.837
X78.264Y-173.037
X80.645Y-115.887
X83.026Y-134.938
X86.042Y-96.837
X87.789Y-153.987
X88.424Y-173.037
X90.805Y-115.887
X93.186Y-134.938
X94.932Y-96.837
X97.949Y-153.987
X102.076Y-173.037
X104.457Y-115.887
X105.093Y-96.837
X109.22Y-134.938
X112.236Y-173.037
X113.983Y-96.837
X114.617Y-115.887
X118.745Y-153.987
X119.38Y-134.938
X123.507Y-115.887
X124.142Y-96.837
X125.889Y-173.037
X128.27Y-134.938
X128.905Y-153.987
X133.032Y-96.837
X133.667Y-115.887
X136.049Y-173.037
X137.795Y-153.987
X138.43Y-134.938
X142.558Y-115.887
X143.192Y-96.837
X147.32Y-134.938
X147.955Y-153.987
X149.701Y-173.037
X152.082Y-96.837
X152.718Y-115.887
X156.845Y-153.987
X157.48Y-134.938
X159.861Y-173.037
X161.607Y-115.887
X162.243Y-96.837
X166.37Y-134.938
X167.005Y-153.987
X171.132Y-96.837
X171.767Y-115.887
X175.895Y-153.987
X176.53Y-134.938
X180.657Y-115.887
X181.292Y-96.837
X185.42Y-134.938
X186.055Y-153.987
X187.801Y-173.037
X190.183Y-96.837
X190.817Y-115.887
X194.945Y-153.987
X195.58Y-134.938
X197.326Y-173.037
X197.961Y-173.037
X199.707Y-115.887
X200.343Y-96.837
X204.47Y-134.938
X205.105Y-153.987
X207.486Y-173.037
X209.232Y-96.837
X209.867Y-115.887
X213.995Y-153.987
X214.63Y-134.938
X218.757Y-115.887
X219.392Y-96.837
X223.52Y-134.938
X224.155Y-153.987
X228.282Y-96.837
X228.917Y-115.887
X233.045Y-153.987
X233.68Y-134.938
X235.426Y-173.037
X237.807Y-115.887
X238.442Y-96.837
X242.57Y-134.938
X243.205Y-153.987
X245.586Y-173.037
X247.332Y-96.837
X247.968Y-115.887
X252.095Y-153.987
X252.73Y-134.938
X256.858Y-115.887
X257.493Y-96.837
X261.62Y-134.938
X262.255Y-153.987
X266.382Y-96.837
X267.017Y-115.887
X268.764Y-173.037
X271.145Y-153.987
X271.78Y-134.938
X275.907Y-115.887
X276.542Y-96.837
X278.924Y-173.037
X280.67Y-134.938
X281.305Y-153.987
X285.433Y-96.837
X286.067Y-115.887
X290.195Y-153.987
X290.83Y-134.938
X292.576Y-173.037
X294.957Y-115.887
X295.592Y-96.837
X299.72Y-134.938
X300.355Y-153.987
X302.736Y-173.037
X304.482Y-96.837
X305.118Y-115.887
X309.88Y-134.938
X314.007Y-115.887
X314.642Y-96.837
X316.389Y-173.037
X324.167Y-115.887
X325.914Y-153.987
X326.549Y-173.037
X330.676Y-134.938
X333.058Y-96.837
X336.074Y-153.987
X337.82Y-115.887
X340.201Y-173.037
X340.836Y-134.938
X343.217Y-96.837
X347.98Y-115.887
X350.361Y-173.037
T4
X80.931Y-147.002
X104.807Y-147.002
X152.406Y-180.022
X180.943Y-180.022
X204.819Y-180.022
X228.568Y-180.022
X252.406Y-180.022
X252.444Y-180.022
X319.056Y-147.002
X323.818Y-141.922
X326.2Y-89.852
X342.932Y-147.002
X347.694Y-141.922
X350.075Y-89.852
T5
X80.931Y-162.243
X104.807Y-162.243
X152.406Y-164.782
X180.943Y-164.782
X204.819Y-164.782
X228.568Y-164.782
X252.406Y-164.782
X252.444Y-164.782
X319.056Y-162.243
X323.818Y-126.682
X326.2Y-105.093
X342.932Y-162.243
X347.694Y-126.682
X350.075Y-105.093
T6
X80.962Y-96.837
X83.344Y-173.037
X85.725Y-115.887
X88.106Y-134.938
X92.869Y-153.987
X100.012Y-96.837
X107.156Y-173.037
X109.537Y-115.887
X114.3Y-134.938
X119.062Y-96.837
X123.825Y-153.987
X128.588Y-115.887
X130.969Y-173.037
X133.35Y-134.938
X138.112Y-96.837
X142.875Y-153.987
X147.637Y-115.887
X152.4Y-134.938
X154.781Y-173.037
X157.162Y-96.837
X161.925Y-153.987
X166.688Y-115.887
X171.45Y-134.938
X176.213Y-96.837
X180.975Y-153.987
X185.737Y-115.887
X190.5Y-134.938
X192.881Y-173.037
X195.262Y-96.837
X200.025Y-153.987
X202.406Y-173.037
X204.787Y-115.887
X209.55Y-134.938
X214.312Y-96.837
X219.075Y-153.987
X223.837Y-115.887
X228.6Y-134.938
X233.362Y-96.837
X238.125Y-153.987
X240.506Y-173.037
X242.887Y-115.887
X247.65Y-134.938
X252.412Y-96.837
X257.175Y-153.987
X261.938Y-115.887
X266.7Y-134.938
X271.462Y-96.837
X273.844Y-173.037
X276.225Y-153.987
X280.988Y-115.887
X285.75Y-134.938
X290.512Y-96.837
X295.275Y-153.987
X297.656Y-173.037
X300.037Y-115.887
X304.8Y-134.938
X309.562Y-96.837
X319.087Y-115.887
X321.469Y-173.037
X330.994Y-153.987
X335.756Y-134.938
X338.137Y-96.837
X342.9Y-115.887
X345.281Y-173.037
T0
M30
